<svg width="79.9px" height="70.85px" viewBox="0 0 79.9 70.85" xmlns="http://www.w3.org/2000/svg" xmlns:xlink="http://www.w3.org/1999/xlink">
  <defs/>
  <g>
    <path stroke="none" fill="#000000" d="M29.85 33.15 Q29.1 34.7 29.55 36.1 30 38.2 32.3 39.1 L32.75 39.3 33.2 39.45 35.4 39.75 37.15 39.6 37.8 39.4 Q40.65 38.65 42.2 36.45 43.8 34.45 43.3 32.4 L42.6 31.1 Q41.85 30.1 40.35 29.4 L35.05 29.2 Q32.1 30 30.45 32.1 L29.85 33.15 M73.25 25.8 L73.5 28.55 73.5 28.7 Q73.5 31.55 73.8 34.7 74.05 38.9 75 42.7 76.3 47.85 78.6 51.15 L78.7 51.35 Q80 54.25 79.9 56.9 L79.45 59.55 Q78.8 61.7 76.75 63.9 L76.7 64 Q72.1 68.3 67.3 69.9 L67.1 69.95 66.35 70.15 66.2 70.2 61.25 70.85 57.3 70.45 Q50.35 68.35 50.35 64 50.1 62.75 50.2 61.7 L50.25 59.8 Q50.2 57.25 49.8 57.2 49.7 57 49.15 56.95 L48.95 56.95 Q47.15 56.7 44.15 59.45 41.25 61.75 38.75 63.05 35.25 64.85 31.55 65.7 L27.1 66.3 26.6 66.3 25.65 66.35 20.75 65.8 Q15.55 64.65 11.7 60.75 9.1 58.2 7.15 54.5 L6.2 52.7 6.05 52.35 Q5.05 50.25 4.55 47.9 2.85 40.75 5.6 32.4 6.85 28.6 8.8 24.95 L11.1 21.45 13.4 18.4 Q18 12.9 24.1 9.2 24.7 8.7 25.5 8.35 30.5 5.5 36.45 3.75 L40.75 3.05 Q45.75 2.45 50.8 3.3 58.1 4.65 64.3 9.45 L64.9 10 Q71.85 16.2 73.25 25.8"/>
    <path stroke="none" fill="#ff3333" d="M63.7 27.25 L68.1 23.15 68.35 25.85 Q68.35 29.15 68.65 32 L63.7 27.25"/>
    <path stroke="none" fill="#ffcc33" d="M51.9 15.9 L60.1 8.1 Q66.75 13.95 68.15 23.2 L63.75 27.3 51.9 15.9"/>
    <path stroke="none" fill="#6666ff" d="M63.7 27.25 L68.65 32 Q68.95 36.45 69.85 40.15 L63.55 46.1 53.7 36.75 63.7 27.25"/>
    <path stroke="none" fill="#ff3333" d="M59.65 7.65 L60.1 8.1 51.9 15.85 41.95 6.3 46.7 1.75 Q53.7 3.05 59.65 7.65"/>
    <path stroke="none" fill="#b5b5ff" d="M74.75 54.1 L73.35 55.4 63.55 46.1 69.9 40.2 Q71.25 45.65 73.7 49.05 74.85 51.65 74.75 54.1"/>
    <path stroke="none" fill="#ff3333" d="M74.35 56.35 Q73.7 58.4 71.95 60.3 67.6 64.35 63 65.9 L62.65 65.55 73.35 55.4 74.35 56.35"/>
    <path stroke="none" fill="#6666ff" d="M62.6 65.55 L63 65.9 61.95 66.2 62.6 65.55"/>
    <path stroke="none" fill="#b5b5ff" d="M62.6 65.55 L61.95 66.2 53.65 66.45 Q48.35 65.45 47.65 61 L52.7 56.25 62.6 65.55"/>
    <path stroke="none" fill="#6666ff" d="M74.35 56.35 L73.3 55.4 74.75 54.05 74.35 56.35"/>
    <path stroke="none" fill="#ffcc33" d="M52.75 56.25 L63.55 46.1 73.35 55.4 62.65 65.55 52.75 56.25"/>
    <path stroke="none" fill="#b5b5ff" d="M8.2 19.45 L10.95 16.85 21.05 26.3 10.2 36.75 2.9 30 Q4.05 26.5 6.05 22.75 7.05 21 8.2 19.45"/>
    <path stroke="none" fill="#ffcc33" d="M37 1.5 Q42.1 0.9 46.7 1.75 L41.95 6.25 37 1.5"/>
    <path stroke="none" fill="#b5b5ff" d="M37 1.5 L41.95 6.25 31.85 15.9 22.15 6.7 Q27 3.9 32.9 2.15 L37 1.5"/>
    <path stroke="none" fill="#ffcc33" d="M20.9 7.4 L22.1 6.7 31.85 15.95 21.05 26.3 10.9 16.85 20.9 7.4"/>
    <path stroke="none" fill="#ff3333" d="M10.9 16.8 L10.5 16.4 Q14.95 11.05 20.95 7.4 L10.9 16.8"/>
    <path stroke="none" fill="#6666ff" d="M10.5 16.4 L10.9 16.8 8.2 19.4 10.5 16.4"/>
    <path stroke="none" fill="#6666ff" d="M10.2 36.75 L21.05 26.3 24.8 29.85 Q23.9 31.75 24.45 33.65 25.1 36.3 27.95 37.45 L28.9 37.85 20.3 46.1 10.2 36.75"/>
    <path stroke="none" fill="#ff3333" d="M25.6 28.55 L24.8 29.9 21.05 26.35 31.85 15.95 41.8 25.5 39.7 27.55 Q38.7 26.3 37 25.5 L30.85 25.25 Q27.45 26.15 25.6 28.55"/>
    <path stroke="none" fill="#ffcc33" d="M33.5 38 L34.2 37.8 Q37.55 36.9 39.35 34.4 41.25 31.95 40.6 29.3 40.35 28.3 39.7 27.5 L41.85 25.45 53.7 36.75 42.9 46.95 33.5 38"/>
    <path stroke="none" fill="#b5b5ff" d="M53.7 36.75 L41.8 25.45 51.9 15.85 63.7 27.25 53.7 36.75"/>
    <path stroke="none" fill="#6666ff" d="M41.95 6.25 L51.9 15.85 41.8 25.45 31.85 15.9 41.95 6.25"/>
    <path stroke="none" fill="#b5b5ff" d="M20.25 46.1 L28.9 37.85 33.45 38.05 42.9 46.95 32.15 57.15 20.25 46.1"/>
    <path stroke="none" fill="#ffcc33" d="M1.85 44.85 Q0.25 37.95 2.9 30 L10.2 36.75 1.85 44.85"/>
    <path stroke="none" fill="#6666ff" d="M32.15 57.15 L42.9 46.95 52.75 56.25 47.65 61 Q47.45 60 47.55 59 L47.6 57.05 Q47.8 52.95 45.25 52.95 42.8 52.6 39.4 55.75 36.9 57.75 34.25 59.15 L32.15 57.15"/>
    <path stroke="none" fill="#ff3333" d="M52.75 56.25 L42.9 46.95 53.7 36.75 63.55 46.1 52.75 56.25"/>
    <path stroke="none" fill="#ffcc33" d="M10.3 55.5 L20.25 46.1 32.15 57.15 27.4 61.65 23.15 62.25 22.65 62.25 17.1 61.8 10.3 55.5"/>
    <path stroke="none" fill="#ff3333" d="M32.15 57.15 L34.3 59.15 Q30.95 60.85 27.4 61.7 L32.15 57.15"/>
    <path stroke="none" fill="#b5b5ff" d="M10.35 55.5 L17.15 61.8 Q12.35 60.7 8.7 57.05 L10.35 55.5"/>
    <path stroke="none" fill="#ff3333" d="M20.25 46.1 L10.3 55.5 3.3 49.05 Q2.3 46.95 1.85 44.85 L10.2 36.75 20.25 46.1"/>
    <path stroke="none" fill="#6666ff" d="M4.35 51.1 L3.3 49.05 10.3 55.5 8.65 57.1 Q6.2 54.65 4.35 51.1"/>
    <path stroke="none" fill="#6666ff" d="M76 54.1 L75.55 56.75 Q74.9 58.85 72.85 61.1 L72.8 61.2 Q68.2 65.5 63.4 67.1 L63.2 67.15 62.45 67.35 62.3 67.4 57.35 68.05 53.4 67.65 Q46.45 65.55 46.45 61.2 46.2 59.95 46.3 58.9 L46.35 57 Q46.3 54.45 45.9 54.4 45.8 54.2 45.25 54.15 L45.05 54.15 Q43.25 53.9 40.25 56.65 37.35 58.95 34.85 60.25 31.35 62.05 27.65 62.9 L23.2 63.5 22.7 63.5 21.75 63.55 16.85 63 Q11.65 61.85 7.8 57.95 5.2 55.4 3.25 51.7 L2.3 49.9 2.15 49.55 Q1.15 47.45 0.65 45.1 -1.05 37.95 1.7 29.6 2.95 25.8 4.9 22.15 L7.2 18.65 9.5 15.6 Q14.1 10.1 20.2 6.4 L21.6 5.55 Q26.6 2.7 32.55 0.95 L36.85 0.25 Q41.85 -0.35 46.9 0.5 54.25 1.85 60.4 6.65 L61 7.2 Q67.9 13.4 69.35 23 L69.6 25.8 Q69.6 28.8 69.9 31.9 70.2 36.15 71.1 39.9 72.4 45.1 74.7 48.35 L74.8 48.55 Q76.1 51.45 76 54.1 M73.5 53.95 Q73.6 52 72.6 49.7 70.05 46.05 68.65 40.5 67.7 36.5 67.4 32.1 67.1 28.9 67.1 25.9 L66.9 23.35 Q65.6 14.65 59.25 9 L58.9 8.7 Q53.15 4.2 46.5 2.95 41.85 2.15 37.15 2.75 L33.15 3.4 Q27.6 5 22.75 7.75 L22.65 7.85 Q22.1 8.05 21.75 8.35 L21.6 8.5 Q15.8 12 11.45 17.2 L9.2 20.15 7.1 23.35 Q5.25 26.8 4.05 30.4 1.55 38.05 3.1 44.55 3.55 46.6 4.45 48.5 L4.6 48.85 5.4 50.45 Q7.25 53.9 9.55 56.2 12.95 59.55 17.4 60.55 L22.65 61 23.15 61 27.1 60.45 Q30.5 59.65 33.7 58 L38.65 54.75 Q42.4 51.3 45.35 51.65 46.75 51.7 47.7 52.65 49 54 48.85 57.1 L48.8 59.1 Q48.7 59.85 48.9 60.8 49.45 64.4 53.85 65.2 L61.6 65 62.7 64.7 Q66.95 63.25 71.05 59.4 72.65 57.6 73.15 56 L73.5 53.95 M30.5 24 Q34.3 23 37.45 24.3 39.55 25.3 40.7 26.75 41.45 27.75 41.8 29 42.6 32.25 40.35 35.15 38.3 38 34.55 39.05 L33.8 39.2 31.5 39.45 28.55 39.05 28.45 39 28 38.8 27.45 38.65 Q24 37.15 23.2 33.95 22.55 31.65 23.65 29.35 L24.55 27.8 Q26.75 25.05 30.5 24 M26.55 29.3 L25.95 30.35 Q25.2 31.9 25.65 33.3 26.1 35.4 28.4 36.3 L28.85 36.45 29.3 36.65 31.5 36.95 33.25 36.8 33.9 36.6 Q36.75 35.85 38.3 33.65 39.9 31.65 39.4 29.6 L38.7 28.3 Q37.95 27.3 36.45 26.6 L31.15 26.4 Q28.15 27.25 26.55 29.3"/>
  </g>
</svg>