<?xml version="1.0" encoding="utf-8"?>
<!-- Generator: Adobe Illustrator 18.0.0, SVG Export Plug-In . SVG Version: 6.00 Build 0)  -->
<!DOCTYPE svg PUBLIC "-//W3C//DTD SVG 1.1//EN" "http://www.w3.org/Graphics/SVG/1.1/DTD/svg11.dtd">
<svg version="1.1" id="Layer_1" xmlns="http://www.w3.org/2000/svg" xmlns:xlink="http://www.w3.org/1999/xlink" x="0px" y="0px"
	 width="247.9px" height="311.5px" viewBox="0 0 247.9 311.5" enable-background="new 0 0 247.9 311.5" xml:space="preserve">
<g>
	<g>
		<g>
			<g>
				<g>
					<g>
						<g>
							<g>
								<path d="M35.2,169.1c10.2-8,21.3-14.5,33.3-19.4c12.1-5,24.8-8.5,37.5-11.4c24.9-5.8,50.4-9.6,74.4-18.7
									c13-4.9,26.2-11.5,36.5-21c0.6-0.5-0.1-1.5-0.8-1c-10.5,7.9-21.4,14.5-33.7,19.4c-12.3,4.9-25,8.4-37.9,11.4
									c-24.8,5.7-50.2,9.6-74,18.9c-13,5.1-25.5,11.8-35.7,21.3C34.4,168.8,34.8,169.4,35.2,169.1L35.2,169.1z"/>
							</g>
							<g>
								<path d="M40,203.5c10.2-8,21.3-14.5,33.3-19.4c12.1-5,24.8-8.5,37.5-11.4c24.9-5.8,50.4-9.6,74.4-18.7
									c13-4.9,26.2-11.5,36.5-21c0.6-0.5-0.1-1.5-0.8-1c-10.5,7.9-21.4,14.5-33.7,19.4c-12.3,4.9-25,8.4-37.9,11.4
									c-24.8,5.7-50.2,9.6-74,18.9c-13,5.1-25.5,11.8-35.7,21.3C39.2,203.2,39.6,203.7,40,203.5L40,203.5z"/>
							</g>
							<g>
								<path d="M34.8,168.7c0.1,5.6,1.2,11.3,2,16.8c0.8,5.5,1.1,11.3,2.6,16.7c0.1,0.5,0.8,0.4,0.8-0.1
									c-0.1-5.6-1.3-11.3-2.1-16.8c-0.8-5.6-1.3-11.3-2.7-16.7C35.3,168.3,34.8,168.3,34.8,168.7L34.8,168.7z"/>
							</g>
							<g>
								<path d="M216.6,98.3c-0.4,2.6,0.3,5.3,0.7,7.9c0.4,2.9,0.8,5.9,1.2,8.8c0.8,5.4,1,11.4,2.7,16.6c0.1,0.4,0.8,0.3,0.8-0.1
									c0.2-5.5-1.2-11.3-2-16.7c-0.4-2.9-0.8-5.9-1.3-8.8c-0.4-2.5-0.4-5.4-1.5-7.7C217.1,98,216.7,98,216.6,98.3L216.6,98.3z"/>
							</g>
							<g>
								<path d="M39.5,201.5c-1.3,2,0.7,3.6,2.4,4.4c2.6,1.1,6.7,3,9.5,2.4c0.3-0.1,0.4-0.4,0.1-0.6c-3-2.1-10.7-1.5-11.4-6
									C40.2,201.4,39.7,201.2,39.5,201.5L39.5,201.5z"/>
							</g>
							<g>
								<path d="M51.7,207.7c0.2-2-0.3-4.1-0.5-6.1c-0.2-2-0.2-4.3-1.2-6c-0.2-0.3-0.5-0.2-0.6,0.1c-0.5,2,0.2,4.2,0.5,6.1
									c0.3,2,0.4,4.1,1.2,6C51.2,208.1,51.7,208,51.7,207.7L51.7,207.7z"/>
							</g>
							<g>
								<path d="M50.7,205.9c0.4,6.2-10.1,6.3-14.3,7.4c-4.1,1.1-8.1,2.4-11.8,4.4c-5.3,2.8-12.6,8.1-13.5,14.6
									c0,0.3,0.4,0.5,0.6,0.2c1.4-1.7,2.4-3.8,3.9-5.6c1.4-1.7,3-3.3,4.8-4.6c3.9-3,8.4-5.1,13-6.6c4.6-1.5,9.8-1.8,14.2-3.6
									c2.6-1.1,4.6-3.5,3.8-6.4C51.2,205.4,50.7,205.6,50.7,205.9L50.7,205.9z"/>
							</g>
							<g>
								<path d="M36.3,180.9c-7,0.5-14.5,4.1-20.4,7.8c-3.2,2-6.3,4.3-9.2,6.8c-2.4,2.1-5.6,4.7-6.8,7.8c-0.1,0.3,0.3,0.6,0.5,0.4
									c2.8-1.9,4.9-5.1,7.4-7.4c2.8-2.5,5.8-4.8,9.1-6.6c2.9-1.7,5.9-3.1,9.1-4.3c3.4-1.3,7-2,10.5-3.1
									C37.4,181.9,37,180.8,36.3,180.9L36.3,180.9z"/>
							</g>
							<g>
								<path d="M0.3,203.3c1,1.9,2.3,3.6,3.5,5.3c1.2,1.7,2.3,3.7,4,5c0.2,0.2,0.5-0.1,0.4-0.3c-0.7-1.9-2.1-3.4-3.3-5
									c-1.3-1.8-2.6-3.6-4.2-5.2C0.5,202.9,0.1,203,0.3,203.3L0.3,203.3z"/>
							</g>
							<g>
								<path d="M7.2,212.5c0.6,6.3,2.1,13,3.6,19.1c0.1,0.4,0.7,0.3,0.6-0.1c-0.7-6.3-1.7-13-3.4-19.2C8,211.8,7.2,211.9,7.2,212.5
									L7.2,212.5z"/>
							</g>
							<g>
								<path d="M217.4,98.5c-1.9-7.6-13.3-8.6-19.2-5.9c-0.5,0.3-0.3,1,0.3,1c3.5,0,6.8-1.1,10.3-0.3c3.5,0.7,5.9,2.8,8,5.5
									C217,99.1,217.5,98.9,217.4,98.5L217.4,98.5z"/>
							</g>
							<g>
								<path d="M198.1,93.3c-0.2,2.4,0.3,4.9,0.6,7.3c0.3,2.3,0.2,5.1,1.4,7.2c0.2,0.3,0.6,0.2,0.7-0.1c0.5-2.3-0.3-4.9-0.6-7.3
									c-0.4-2.4-0.5-4.9-1.4-7.2C198.6,92.9,198.1,92.9,198.1,93.3L198.1,93.3z"/>
							</g>
							<g>
								<path d="M200.7,109.3c0.4-1.2,0.1-2.3,0-3.5c-0.2-1.3-0.4-2.6-0.9-3.8c-0.1-0.4-0.7-0.3-0.7,0.1c-0.2,1.3,0,2.6,0.2,3.9
									c0.2,1.2,0.2,2.3,0.9,3.3C200.3,109.6,200.6,109.6,200.7,109.3L200.7,109.3z"/>
							</g>
							<g>
								<path d="M198.7,94.7c3.2-9.6,14.3-7.2,22.2-9.2c3.5-0.9,6.8-2.3,9.9-4.1c2.9-1.7,6.2-4,7.7-7.1c0.1-0.3-0.2-0.4-0.4-0.3
									c-1.9,1.1-3.3,2.8-5.1,4.1c-1.9,1.5-4.1,2.7-6.3,3.8c-4.3,2-8.7,2.8-13.3,3.1c-5.6,0.4-15.6,1.8-15.7,9.4
									C197.7,95,198.5,95.3,198.7,94.7L198.7,94.7z"/>
							</g>
							<g>
								<path d="M219.5,118.5c2.6-2.4,5.8-3.2,9.1-4.2c3-0.9,5.8-2.3,8.3-4c4.4-3,10-8,11.1-13.5c0.1-0.3-0.4-0.4-0.5-0.2
									c-2.1,2.4-3.5,5.3-5.7,7.6c-2.5,2.7-5.4,4.9-8.6,6.6c-4.4,2.4-11.4,2.6-14.1,7.4C218.9,118.4,219.3,118.7,219.5,118.5
									L219.5,118.5z"/>
							</g>
							<g>
								<path d="M241.2,89.3c0.8,1.5,1.8,2.9,2.7,4.2c1.1,1.5,2,3.2,3.3,4.6c0.3,0.3,0.8,0,0.6-0.4c-0.6-1.6-1.8-3.1-2.7-4.6
									c-0.9-1.5-1.8-3.1-2.9-4.5C241.8,88.1,240.9,88.7,241.2,89.3L241.2,89.3z"/>
							</g>
							<g>
								<path d="M238.3,75.3c0.4-0.1,0.3-0.6-0.1-0.6C237.9,74.8,237.9,75.4,238.3,75.3L238.3,75.3z"/>
							</g>
							<g>
								<path d="M238.4,75.9c1.1-0.2,0.8-1.8-0.2-1.7C237.1,74.4,237.3,76.1,238.4,75.9L238.4,75.9z"/>
							</g>
							<g>
								<path d="M237.7,75.2c0.6,4.6,2.1,9.4,3.8,13.7c0.1,0.2,0.4,0.1,0.3-0.1c-0.6-4.6-1.5-9.5-3.1-13.9
									C238.5,74.3,237.6,74.6,237.7,75.2L237.7,75.2z"/>
							</g>
						</g>
						<g>
							<path d="M242.1,88.9c-0.2-2.7-1.1-5.3-1.8-7.9c-0.5-2-0.8-4.1-1.9-5.9c-0.1-0.2-0.5-0.1-0.6,0.2c-0.1,2.3,0.9,4.7,1.5,6.9
								c0.6,2.3,1,4.7,2.1,6.9C241.6,89.5,242.1,89.3,242.1,88.9L242.1,88.9z"/>
						</g>
						<g>
							<path d="M214.9,99.8c0.9,5.9,3.1,11.6,4.1,17.6c0,0.1,0.1,0.1,0.1,0c-0.4-5.9-0.8-12.3-3.4-17.8
								C215.5,99.2,214.8,99.3,214.9,99.8L214.9,99.8z"/>
						</g>
						<g>
							<path d="M218.8,118.2c0,0.3,0,0.6,0.1,0.9c0,0.2,0,0.5,0.2,0.7c0.1,0,0.2,0,0.2,0c0.1-0.2,0.1-0.4,0-0.7
								c-0.1-0.3-0.1-0.6-0.2-0.9C219,117.9,218.8,118,218.8,118.2L218.8,118.2z"/>
						</g>
						<g>
							<path d="M219.3,121.2c0.4,4,0.3,7.7,0,11.6c0,0.4,0.6,0.5,0.6,0.1C220.7,129.1,220.3,124.8,219.3,121.2
								C219.3,121.1,219.2,121.1,219.3,121.2L219.3,121.2z"/>
						</g>
						<g>
							<path d="M220.4,132.9c1.1-1.1,1.3-3.5,1-5c-0.1-0.7-1.3-0.8-1.4,0c-0.1,0.8,0,1.7-0.1,2.5c-0.1,0.8-0.2,1.5-0.1,2.3
								C219.9,132.9,220.2,133.1,220.4,132.9L220.4,132.9z"/>
						</g>
						<g>
							<path d="M221.3,130.9c0.3-2.5-0.1-5.6-0.7-8c-0.1-0.2-0.4-0.3-0.4,0c-0.3,2.5-0.3,5.6,0.4,8
								C220.6,131.3,221.3,131.4,221.3,130.9L221.3,130.9z"/>
						</g>
						<g>
							<path d="M215.4,99.2c0,0.9,0.2,2,0.6,2.8c0.1,0.2,0.3,0.2,0.5,0.2c0,0,0.1,0,0.1,0c0.2-0.1,0.3-0.2,0.3-0.4
								c0.1-0.9-0.2-2-0.6-2.8C216.1,98.3,215.4,98.6,215.4,99.2L215.4,99.2z"/>
						</g>
						<g>
							<path d="M215.7,99.7c0.1,0.4,0.2,0.7,0.2,1.1c0.1,0.4,0.2,0.6,0.4,0.9c0.1,0.1,0.3,0.2,0.4,0.1c0.8-0.7,0.5-1.9,0-2.7
								c-0.2-0.3-0.6-0.3-0.8-0.1C215.7,99.1,215.6,99.4,215.7,99.7L215.7,99.7z"/>
						</g>
						<g>
							<path d="M201.8,107.4c0-0.7-0.3-1.2-0.5-1.9c-0.2-0.6-0.4-1.2-0.9-1.7c-0.1-0.1-0.4-0.1-0.4,0.1c0,0.6,0.2,1.2,0.4,1.8
								c0.2,0.6,0.4,1.3,0.8,1.9C201.5,107.8,201.9,107.6,201.8,107.4L201.8,107.4z"/>
						</g>
						<g>
							<path d="M201.2,107.6c0.3-1.9-0.1-4.8-1.1-6.5c-0.1-0.2-0.4-0.2-0.5,0.1c-0.5,1.9,0,4.8,0.9,6.5
								C200.6,108,201.1,107.9,201.2,107.6L201.2,107.6z"/>
						</g>
						<g>
							<path d="M200.8,105.9c0.1-4.2-0.7-9.5-2.2-13.4c-0.1-0.3-0.6-0.2-0.6,0.1c-0.2,4.2,0.8,9.5,2.3,13.4
								C200.3,106.2,200.8,106.2,200.8,105.9L200.8,105.9z"/>
						</g>
						<g>
							<path d="M233,83.2c1.4-0.6,2.6-1.5,3.7-2.5c0.8-0.7,2.3-1.8,2.4-2.9c0-0.2-0.1-0.3-0.3-0.2c-1,0.4-1.7,1.7-2.4,2.5
								C235.3,81.2,234.1,82.1,233,83.2C232.9,83.2,232.9,83.2,233,83.2L233,83.2z"/>
						</g>
						<g>
							<path d="M235.9,84.6c0.7-0.5,1.4-1.1,2-1.7c0.6-0.5,1.2-1,1.8-1.6c0.2-0.2-0.1-0.4-0.3-0.3c-0.7,0.5-1.3,1.2-2,1.8
								c-0.6,0.6-1.2,1.1-1.7,1.7C235.7,84.5,235.8,84.6,235.9,84.6L235.9,84.6z"/>
						</g>
						<g>
							<path d="M237.1,86.9c0.6-0.4,1.1-0.9,1.7-1.3c0.5-0.4,1.1-0.8,1.4-1.4c0.1-0.1,0-0.3-0.2-0.3c-0.6,0.3-1.1,0.9-1.6,1.3
								c-0.5,0.5-1,0.9-1.5,1.5C236.9,86.8,237,86.9,237.1,86.9L237.1,86.9z"/>
						</g>
						<g>
							<path d="M238.1,89.9c0.6-0.4,1.1-0.8,1.6-1.2c0.5-0.4,1-0.7,1.3-1.2c0.1-0.1,0-0.2-0.1-0.2c-0.6,0.3-1.1,0.8-1.5,1.2
								c-0.5,0.4-0.9,0.9-1.4,1.4C238,89.9,238.1,90,238.1,89.9L238.1,89.9z"/>
						</g>
						<g>
							<path d="M239.7,91.8c1-0.6,2-1.4,2.8-2.3c0.1-0.1,0-0.2-0.1-0.2c-1,0.6-2,1.5-2.8,2.3C239.5,91.8,239.7,91.9,239.7,91.8
								L239.7,91.8z"/>
						</g>
						<g>
							<path d="M241,94.3c0.9-0.5,1.8-1.2,2.6-1.9c0.1-0.1,0-0.2-0.1-0.1c-0.9,0.5-1.8,1.2-2.6,1.9C240.9,94.2,240.9,94.4,241,94.3
								L241,94.3z"/>
						</g>
						<g>
							<path d="M242.4,96.9c0.6-0.5,1.1-1,1.7-1.5c0.4-0.4,1-0.8,1.2-1.4c0.1-0.1-0.1-0.3-0.2-0.2c-0.6,0.3-1.1,0.9-1.5,1.4
								c-0.5,0.5-0.9,1-1.4,1.5C242.1,96.8,242.3,97,242.4,96.9L242.4,96.9z"/>
						</g>
						<g>
							<path d="M243.6,98.8c0.7-0.5,1.4-1.1,2-1.6c0.5-0.5,1.1-0.9,1.5-1.5c0.1-0.1-0.1-0.3-0.2-0.2c-0.7,0.3-1.2,1-1.8,1.5
								c-0.6,0.5-1.1,1.1-1.6,1.7C243.3,98.7,243.5,98.9,243.6,98.8L243.6,98.8z"/>
						</g>
						<g>
							<path d="M207.6,95.7c1.5,0.1,2.8,0.2,4.2,0.9c0.7,0.3,1.3,0.7,1.9,1.2c0.5,0.4,0.8,0.8,1.4,1c0.1,0,0.3,0,0.2-0.2
								c-0.3-1.2-2-2-3.1-2.5c-1.4-0.6-3.1-0.9-4.6-0.5C207.5,95.6,207.5,95.7,207.6,95.7L207.6,95.7z"/>
						</g>
						<g>
							<path d="M208.6,98.2c0.9,0.2,1.7,0.5,2.5,1c0.6,0.3,1.3,1,1.9,1.1c0.1,0,0.2-0.1,0.2-0.2c-0.2-0.7-1.3-1.1-1.9-1.4
								c-0.9-0.4-1.7-0.7-2.7-0.8C208.5,97.8,208.4,98.1,208.6,98.2L208.6,98.2z"/>
						</g>
						<g>
							<path d="M207.9,100.8c0.5,0.2,1.1,0.3,1.6,0.6c0.6,0.3,1,0.7,1.5,1.1c0.2,0.2,0.5-0.1,0.3-0.3c-0.7-1-2.2-1.6-3.4-1.5
								C207.8,100.6,207.8,100.8,207.9,100.8L207.9,100.8z"/>
						</g>
						<g>
							<path d="M208.1,102.8c0.4,0.2,1,0.4,1.5,0.4c0.1,0,0.1-0.2,0.1-0.2c-0.4-0.3-1-0.4-1.4-0.4C208,102.5,208,102.7,208.1,102.8
								L208.1,102.8z"/>
						</g>
						<g>
							<path d="M207.7,108.9c3.1-1.5,6.5-3.6,8.8-6.2c0.2-0.2-0.1-0.5-0.4-0.4C213.3,104.5,210.7,106.8,207.7,108.9
								C207.7,108.9,207.7,108.9,207.7,108.9L207.7,108.9z"/>
						</g>
						<g>
							<path d="M212.5,109.2c2-0.8,4.3-2.3,5.4-4.1c0.1-0.1-0.1-0.3-0.2-0.2c-0.9,0.7-1.6,1.6-2.5,2.3c-0.9,0.7-1.8,1.3-2.8,2
								C212.4,109.1,212.5,109.2,212.5,109.2L212.5,109.2z"/>
						</g>
						<g>
							<path d="M214.2,112.2c0.9-0.6,1.6-1.2,2.5-1.9c0.7-0.6,1.5-1.1,2-1.8c0.1-0.1,0-0.2-0.1-0.2c-0.9,0.4-1.6,1.2-2.3,1.8
								c-0.7,0.6-1.5,1.3-2.2,2C214,112.2,214.1,112.3,214.2,112.2L214.2,112.2z"/>
						</g>
						<g>
							<path d="M214.4,115.8c1-0.3,2-0.8,2.9-1.5c0.8-0.5,1.7-1.2,2.1-2c0.1-0.1-0.1-0.3-0.2-0.2c-0.8,0.4-1.5,1.3-2.2,1.8
								c-0.8,0.6-1.8,1.2-2.7,1.7C214.3,115.7,214.3,115.8,214.4,115.8L214.4,115.8z"/>
						</g>
						<g>
							<path d="M216.2,119.9c0.8-0.5,1.5-1,2.2-1.5c0.6-0.5,1.3-0.9,1.8-1.5c0.1-0.1,0-0.3-0.2-0.2c-0.7,0.3-1.3,0.9-1.9,1.4
								c-0.7,0.6-1.4,1.1-2,1.7C216,119.9,216.1,120,216.2,119.9L216.2,119.9z"/>
						</g>
						<g>
							<path d="M216.2,123.2c1.5-0.5,3.4-1.6,4.1-3.1c0.1-0.1-0.1-0.3-0.2-0.2c-0.6,0.5-1.1,1.1-1.7,1.6c-0.7,0.5-1.4,1-2.2,1.4
								C216,123.1,216.1,123.3,216.2,123.2L216.2,123.2z"/>
						</g>
						<g>
							<path d="M214.7,128.7c2-0.6,4.5-2,5.6-3.8c0.1-0.1-0.1-0.2-0.2-0.2c-0.9,0.6-1.6,1.4-2.4,2.1c-1,0.7-2,1.3-3.1,1.8
								C214.6,128.7,214.6,128.8,214.7,128.7L214.7,128.7z"/>
						</g>
						<g>
							<path d="M213.4,134c2.8-1.1,6-3.2,7.5-5.8c0.1-0.2-0.1-0.4-0.3-0.2c-1.3,0.9-2.3,2.1-3.6,3.1c-1.2,1-2.5,1.8-3.8,2.8
								C213.1,133.8,213.2,134,213.4,134L213.4,134z"/>
						</g>
						<g>
							<path d="M42,166.8c-2.5,0.9-4.9,2.9-6.7,4.9c-0.2,0.2,0.1,0.6,0.4,0.4c2.1-1.8,4.3-3.3,6.5-5C42.3,167,42.2,166.8,42,166.8
								L42,166.8z"/>
						</g>
						<g>
							<path d="M40.6,171.7c-1.7,0.5-3.7,1.9-4.6,3.4c-0.1,0.2,0.1,0.5,0.3,0.3c0.7-0.6,1.4-1.3,2.1-1.9c0.7-0.6,1.5-1.1,2.3-1.7
								C40.7,171.7,40.7,171.7,40.6,171.7L40.6,171.7z"/>
						</g>
						<g>
							<path d="M40.3,175.5c-1.6,0.7-3.7,1.8-4.6,3.4c-0.1,0.1,0.1,0.2,0.2,0.2c0.8-0.4,1.4-1.1,2.1-1.6c0.8-0.6,1.6-1.1,2.4-1.7
								C40.6,175.6,40.5,175.4,40.3,175.5L40.3,175.5z"/>
						</g>
						<g>
							<path d="M40.5,179.4c-0.7,0.2-1.5,0.6-2.2,0.9c-0.6,0.2-1.2,0.4-1.6,0.9c-0.1,0.1,0,0.2,0.1,0.2c0.7,0,1.4-0.5,2-0.8
								c0.6-0.3,1.3-0.6,1.9-1C40.8,179.5,40.6,179.3,40.5,179.4L40.5,179.4z"/>
						</g>
						<g>
							<path d="M41.1,182.2c-0.8,0.4-1.6,0.9-2.5,1.3c-0.6,0.4-1.3,0.7-1.8,1.3c-0.1,0.1,0,0.2,0.1,0.2c0.7-0.1,1.3-0.6,2-1
								c0.8-0.5,1.6-1,2.3-1.6C41.4,182.3,41.2,182.1,41.1,182.2L41.1,182.2z"/>
						</g>
						<g>
							<path d="M41.9,185.4c-0.8,0.4-1.5,0.8-2.2,1.2c-0.6,0.4-1.4,0.7-1.9,1.2c-0.1,0.1,0,0.4,0.2,0.3c0.7-0.2,1.3-0.7,2-1.1
								c0.7-0.4,1.4-0.9,2.1-1.4C42.2,185.5,42.1,185.3,41.9,185.4L41.9,185.4z"/>
						</g>
						<g>
							<path d="M45.5,186.7c-2.6,1.2-5.4,2.8-7.7,4.6c-0.3,0.2,0,0.7,0.3,0.6c2.6-1.3,5.3-3,7.5-4.8
								C45.9,186.9,45.7,186.7,45.5,186.7L45.5,186.7z"/>
						</g>
						<g>
							<path d="M46.4,189.7c-1.4,0.6-2.6,1.5-3.9,2.3c-1.2,0.8-2.6,1.6-3.5,2.8c-0.1,0.1,0,0.2,0.1,0.2c1.2-0.6,2.3-1.6,3.4-2.4
								c1.3-0.9,2.7-1.7,3.9-2.6C46.6,189.9,46.5,189.7,46.4,189.7L46.4,189.7z"/>
						</g>
						<g>
							<path d="M48.3,191.5c-1.6,1.1-3.2,2.3-4.8,3.6c-1.4,1.1-2.9,2-4,3.4c-0.1,0.1,0,0.3,0.2,0.2c1.6-0.8,2.9-2.1,4.2-3.1
								c1.6-1.2,3.1-2.5,4.6-3.8C48.5,191.6,48.4,191.5,48.3,191.5L48.3,191.5z"/>
						</g>
						<g>
							<path d="M46.7,203.8c-0.9-0.4-1.9-0.6-2.8-1.1c-0.9-0.5-1.6-1.3-2.5-1.7c-0.1-0.1-0.3,0.1-0.2,0.2c0.4,0.9,1.5,1.5,2.3,1.9
								c0.9,0.5,2,0.9,3.1,0.9C46.8,204,46.8,203.8,46.7,203.8L46.7,203.8z"/>
						</g>
						<g>
							<path d="M47.4,201.5c-0.6-0.4-1.3-0.4-1.9-0.8c-0.3-0.2-0.6-0.5-0.9-0.8c-0.2-0.2-0.3-0.4-0.6-0.5c-0.1,0-0.2,0-0.2,0.1
								c0,0.7,0.9,1.3,1.4,1.7c0.6,0.3,1.5,0.8,2.1,0.5C47.4,201.6,47.5,201.5,47.4,201.5L47.4,201.5z"/>
						</g>
						<g>
							<path d="M47.8,199.2c-0.4-0.1-0.8-0.3-1.1-0.5c-0.3-0.2-0.5-0.5-0.8-0.7c-0.1-0.1-0.2,0-0.2,0.1c0.1,0.9,1.2,1.4,2,1.3
								C47.9,199.5,47.9,199.3,47.8,199.2L47.8,199.2z"/>
						</g>
						<g>
							<path d="M7.8,199.5c-1.2,0.8-2.3,1.8-3.5,2.7c-1,0.8-2.2,1.5-2.9,2.6c-0.1,0.1,0,0.3,0.2,0.2c1.1-0.6,2.1-1.6,3.1-2.4
								c1.1-0.9,2.3-1.9,3.3-2.9C8,199.6,7.9,199.4,7.8,199.5L7.8,199.5z"/>
						</g>
						<g>
							<path d="M7.8,202.5c-1.7,1.2-3.3,2.7-4.8,4.2c-0.2,0.2,0.1,0.6,0.3,0.4c1.6-1.4,3.3-2.8,4.7-4.4
								C8.1,202.6,7.9,202.5,7.8,202.5L7.8,202.5z"/>
						</g>
						<g>
							<path d="M8.2,205.2c-0.7,0.6-1.3,1.2-2,1.9c-0.5,0.5-1.1,1-1.4,1.7c-0.1,0.1,0.1,0.2,0.2,0.1c0.7-0.4,1.2-1,1.7-1.6
								c0.6-0.6,1.2-1.2,1.7-1.9C8.5,205.2,8.3,205,8.2,205.2L8.2,205.2z"/>
						</g>
						<g>
							<path d="M8.8,207.8c-0.5,0.5-1,1-1.5,1.6c-0.4,0.4-1,0.9-1.2,1.6c0,0.1,0.1,0.1,0.2,0.1c0.5-0.2,0.9-0.9,1.3-1.3
								c0.5-0.6,1-1.2,1.4-1.8C9,207.9,8.9,207.7,8.8,207.8L8.8,207.8z"/>
						</g>
						<g>
							<path d="M11.2,210.5c-1.3,1-2.7,1.9-3.8,3.1c-0.1,0.1,0,0.2,0.1,0.2c1.4-0.8,2.6-1.9,3.8-3C11.6,210.6,11.4,210.3,11.2,210.5
								L11.2,210.5z"/>
						</g>
						<g>
							<path d="M13.9,212.2c-1.1,0.8-2,1.6-3,2.5c-0.8,0.8-1.9,1.5-2.5,2.4c-0.1,0.1,0,0.4,0.2,0.3c1.1-0.6,1.9-1.6,2.8-2.4
								c0.9-0.8,1.8-1.7,2.7-2.6C14.3,212.2,14,212,13.9,212.2L13.9,212.2z"/>
						</g>
						<g>
							<path d="M15.2,215.5c-1.1,1-2.1,2-3.2,3c-0.9,0.9-2,1.7-2.8,2.8c-0.1,0.1,0.1,0.3,0.2,0.2c1.2-0.8,2.2-2,3.2-3
								c0.9-0.9,1.9-1.8,2.8-2.8C15.6,215.6,15.4,215.4,15.2,215.5L15.2,215.5z"/>
						</g>
						<g>
							<path d="M17.1,218.3c-2.5,1.9-4.9,4.3-7,6.6c-0.2,0.2,0.1,0.5,0.3,0.3c2.4-2,4.9-4.3,6.9-6.8
								C17.4,218.4,17.2,218.2,17.1,218.3L17.1,218.3z"/>
						</g>
						<g>
							<path d="M14.2,224.2c-0.6,0.7-1.3,1.5-1.9,2.2c-0.5,0.6-1.3,1.3-1.6,2.1c0,0.1,0.1,0.2,0.2,0.2c0.7-0.4,1.2-1.2,1.7-1.9
								c0.6-0.8,1.2-1.6,1.8-2.4C14.5,224.2,14.3,224,14.2,224.2L14.2,224.2z"/>
						</g>
						<g>
							<path d="M205.2,138.9c-9.5,5-19,9.7-29.1,13.2c-10.5,3.6-21.2,6.4-32,8.9c-20.5,4.7-41.3,8.4-61.3,15.1
								c-11.1,3.7-22.4,8.2-32.1,14.9c-0.2,0.1,0,0.4,0.2,0.3c9.4-5.2,18.9-9.9,29-13.4c10.4-3.7,21.2-6.4,32-8.9
								c20.5-4.7,41.3-8.4,61.3-15c11.1-3.7,22.5-8.1,32.1-14.8C205.3,139,205.3,138.8,205.2,138.9L205.2,138.9z"/>
						</g>
						<g>
							<path d="M204.3,109.7c-18.9,10.6-39.1,17.4-60.1,22.5c-20.3,5-41,8.8-61,15.1c-11.3,3.5-22.8,7.6-32.9,13.7
								c-0.2,0.1-0.1,0.4,0.1,0.3c9.6-4.6,19.2-8.9,29.3-12.2c10.4-3.4,21.1-6.1,31.7-8.6c20.5-4.8,41.2-8.8,61.2-15.7
								c11-3.8,22-8.4,31.8-14.7C204.7,110,204.5,109.6,204.3,109.7L204.3,109.7z"/>
						</g>
						<g>
							<path d="M202.4,95.1c-0.9,2.4-1.9,5-2.4,7.5c0,0.1,0.1,0.1,0.2,0C201.1,100.3,201.8,97.7,202.4,95.1
								C202.5,95.1,202.4,95.1,202.4,95.1L202.4,95.1z"/>
						</g>
						<g>
							<path d="M203.3,96.7c-0.9,2.8-1.9,5.6-2.5,8.4c0,0.1,0.1,0.1,0.1,0c1-2.7,1.8-5.6,2.5-8.4C203.4,96.6,203.3,96.6,203.3,96.7
								L203.3,96.7z"/>
						</g>
						<g>
							<path d="M204.2,98.8c-1.1,2.7-2.1,5.6-2.8,8.5c0,0.1,0.1,0.1,0.2,0c1.2-2.7,2.1-5.6,2.8-8.4
								C204.5,98.8,204.3,98.7,204.2,98.8L204.2,98.8z"/>
						</g>
						<g>
							<path d="M205.2,101c-0.8,2-1.5,4.2-2,6.3c0,0.1,0.1,0.1,0.1,0c0.9-2,1.5-4.2,2-6.3C205.4,101,205.2,100.9,205.2,101
								L205.2,101z"/>
						</g>
						<g>
							<path d="M202.6,92c1.3-1.6,2.8-3.3,3.9-5.1c0.1-0.1-0.1-0.2-0.1-0.1c-1.4,1.5-2.6,3.4-3.9,5.1C202.5,92,202.6,92.1,202.6,92
								L202.6,92z"/>
						</g>
						<g>
							<path d="M205.8,91.9c1.3-1.9,2.8-3.7,3.8-5.7c0.1-0.1-0.1-0.2-0.2-0.1c-1.5,1.7-2.6,3.8-3.8,5.7
								C205.5,91.9,205.7,92.1,205.8,91.9L205.8,91.9z"/>
						</g>
						<g>
							<path d="M208.2,92.2c0.7-0.8,1.2-1.7,1.8-2.5c0.5-0.8,1.1-1.5,1.5-2.3c0.1-0.1-0.1-0.2-0.2-0.1c-0.7,0.8-1.2,1.7-1.8,2.5
								c-0.5,0.8-1.1,1.5-1.5,2.3C208,92.2,208.1,92.3,208.2,92.2L208.2,92.2z"/>
						</g>
						<g>
							<path d="M211.6,90.2c0.8-1.2,1.7-2.5,2.4-3.8c0-0.1-0.1-0.1-0.1-0.1c-0.9,1.2-1.6,2.5-2.3,3.8
								C211.4,90.2,211.5,90.3,211.6,90.2L211.6,90.2z"/>
						</g>
						<g>
							<path d="M214,89.8c0.9-1.2,1.9-2.5,2.6-3.8c0-0.1-0.1-0.2-0.1-0.1C215.6,87.1,214.8,88.5,214,89.8
								C214,89.8,214,89.9,214,89.8L214,89.8z"/>
						</g>
						<g>
							<path d="M217,88.6c0.8-0.9,1.6-1.8,2.2-2.9c0-0.1,0-0.1-0.1-0.1c-0.8,0.9-1.5,1.9-2.2,2.9C216.9,88.6,217,88.6,217,88.6
								L217,88.6z"/>
						</g>
						<g>
							<path d="M219.3,88c0.6-0.7,1.1-1.5,1.7-2.3c0,0,0-0.1-0.1-0.1c-0.6,0.7-1.2,1.5-1.7,2.2C219.1,88,219.2,88.1,219.3,88
								L219.3,88z"/>
						</g>
						<g>
							<path d="M222.2,87c0.7-0.8,1.4-1.8,1.9-2.8c0-0.1-0.1-0.2-0.1-0.1C223.3,84.9,222.7,85.9,222.2,87
								C222.1,87,222.2,87,222.2,87L222.2,87z"/>
						</g>
						<g>
							<path d="M41.7,204.8c1-1.4,2.2-2.7,3.1-4.2c0.1-0.1-0.1-0.2-0.2-0.1c-1.2,1.2-2.1,2.8-3.2,4.1
								C41.4,204.8,41.6,205,41.7,204.8L41.7,204.8z"/>
						</g>
						<g>
							<path d="M43.5,205.4c0.8-1,1.7-2.1,2.4-3.2c0-0.1,0-0.1-0.1-0.1c-0.9,1-1.7,2.1-2.5,3.2C43.3,205.4,43.5,205.5,43.5,205.4
								L43.5,205.4z"/>
						</g>
						<g>
							<path d="M45.1,206.3c0.4-0.4,0.7-0.9,1.1-1.3c0.3-0.4,0.7-0.8,0.9-1.3c0-0.1-0.1-0.2-0.2-0.1c-0.4,0.3-0.7,0.8-1,1.2
								c-0.3,0.5-0.7,0.9-1,1.4C44.8,206.3,45,206.4,45.1,206.3L45.1,206.3z"/>
						</g>
						<g>
							<path d="M46.5,206.7c0.7-0.8,1.4-1.6,1.9-2.6c0-0.1-0.1-0.1-0.1-0.1c-0.8,0.7-1.3,1.7-1.9,2.6
								C46.4,206.7,46.5,206.7,46.5,206.7L46.5,206.7z"/>
						</g>
						<g>
							<path d="M48.5,206.7c0.3-0.4,0.7-0.8,1-1.3c0-0.1,0-0.1-0.1-0.1C49,205.7,48.7,206.2,48.5,206.7
								C48.4,206.7,48.5,206.7,48.5,206.7L48.5,206.7z"/>
						</g>
						<g>
							<path d="M49.4,206.8c0.2-0.2,0.3-0.4,0.5-0.7c0,0,0-0.1-0.1-0.1c-0.2,0.2-0.3,0.4-0.5,0.6C49.3,206.8,49.4,206.9,49.4,206.8
								L49.4,206.8z"/>
						</g>
						<g>
							<path d="M48.1,208.3c-0.3,0.4-0.4,0.8-0.6,1.2c-0.2,0.4-0.4,0.8-0.5,1.3c0,0.1,0.1,0.1,0.1,0.1c0.3-0.4,0.4-0.8,0.6-1.2
								c0.2-0.4,0.4-0.8,0.5-1.3C48.3,208.3,48.1,208.2,48.1,208.3L48.1,208.3z"/>
						</g>
						<g>
							<path d="M47.3,207c-0.5,0.8-0.8,1.7-1.2,2.6c-0.3,0.8-0.8,1.5-1,2.3c0,0.1,0.1,0.1,0.2,0.1c0.5-0.7,0.8-1.5,1.1-2.3
								c0.4-0.9,0.8-1.7,1.1-2.6C47.5,207,47.4,206.9,47.3,207L47.3,207z"/>
						</g>
						<g>
							<path d="M46.1,206.9c-0.8,1.6-1.6,3.2-2.1,4.9c0,0.1,0.1,0.2,0.1,0.1c0.9-1.5,1.5-3.2,2.2-4.9
								C46.4,206.8,46.2,206.8,46.1,206.9L46.1,206.9z"/>
						</g>
						<g>
							<path d="M44.9,206.5c-0.8,1.8-1.7,3.6-2.3,5.5c0,0.1,0.1,0.1,0.1,0.1c1-1.7,1.7-3.6,2.4-5.5C45.2,206.5,45,206.4,44.9,206.5
								L44.9,206.5z"/>
						</g>
						<g>
							<path d="M43,207.9c-0.8,1.7-1.6,3.4-2,5.2c0,0.1,0.1,0.1,0.2,0c0.9-1.6,1.5-3.5,2.1-5.2C43.3,207.8,43.1,207.7,43,207.9
								L43,207.9z"/>
						</g>
						<g>
							<path d="M41.1,209.6c-0.6,1.1-1.1,2.2-1.5,3.4c0,0.1,0.1,0.1,0.1,0.1c0.6-1.1,1.1-2.2,1.6-3.4
								C41.3,209.6,41.1,209.5,41.1,209.6L41.1,209.6z"/>
						</g>
						<g>
							<path d="M39.5,210.4c-0.3,0.5-0.5,1-0.8,1.4c-0.2,0.4-0.5,0.9-0.6,1.3c0,0.1,0.1,0.2,0.2,0.1c0.3-0.4,0.5-0.9,0.7-1.3
								c0.2-0.5,0.4-1,0.7-1.5C39.7,210.4,39.5,210.3,39.5,210.4L39.5,210.4z"/>
						</g>
						<g>
							<path d="M37.1,212.2c-0.1,0.6-0.3,1.2-0.3,1.8c0,0.1,0.1,0.1,0.2,0c0.2-0.5,0.3-1.2,0.4-1.8
								C37.3,212.1,37.1,212.1,37.1,212.2L37.1,212.2z"/>
						</g>
						<g>
							<path d="M35.8,212.7c-0.4,0.8-0.8,1.6-1.1,2.5c0,0.1,0.1,0.1,0.1,0c0.4-0.8,0.8-1.6,1.1-2.4C36,212.6,35.8,212.6,35.8,212.7
								L35.8,212.7z"/>
						</g>
						<g>
							<path d="M34.3,212.6c-0.4,0.9-0.7,1.8-1,2.7c0,0.1,0.1,0.1,0.1,0c0.4-0.9,0.7-1.8,1.1-2.7C34.6,212.5,34.4,212.4,34.3,212.6
								L34.3,212.6z"/>
						</g>
						<g>
							<path d="M32.3,214.3c-0.4,0.6-0.9,1.2-1.1,1.9c0,0.1,0.1,0.2,0.1,0.1c0.5-0.5,0.8-1.2,1.2-1.9
								C32.6,214.3,32.3,214.1,32.3,214.3L32.3,214.3z"/>
						</g>
						<g>
							<path d="M41.4,163.3c0.7,0.8,1.3,1.7,2.1,2.3c0.1,0,0.1,0,0.1-0.1c-0.5-0.9-1.3-1.6-2-2.3C41.5,163,41.3,163.2,41.4,163.3
								L41.4,163.3z"/>
						</g>
						<g>
							<path d="M42.7,162.3c0.3,0.5,0.7,0.9,1.1,1.4c0.3,0.4,0.6,0.8,1.1,1.2c0.1,0.1,0.2,0,0.1-0.1c-0.2-0.5-0.6-0.9-0.9-1.3
								c-0.4-0.5-0.7-0.9-1.1-1.4C42.8,162,42.6,162.1,42.7,162.3L42.7,162.3z"/>
						</g>
						<g>
							<path d="M44.3,161.5c0.5,0.5,0.9,1.1,1.4,1.5c0.1,0,0.2,0,0.1-0.1c-0.3-0.6-0.9-1.1-1.3-1.6
								C44.4,161.2,44.1,161.4,44.3,161.5L44.3,161.5z"/>
						</g>
						<g>
							<path d="M45.3,160.8c0.3,0.4,0.5,0.7,0.8,1c0.1,0.1,0.2,0,0.1-0.1c-0.2-0.4-0.4-0.8-0.7-1.1
								C45.5,160.4,45.2,160.6,45.3,160.8L45.3,160.8z"/>
						</g>
						<g>
							<path d="M185,149.6c-0.5,0.9-0.8,2-0.9,3.1c0,0.1,0.1,0.1,0.2,0.1c0.5-0.9,0.9-2,1.1-3C185.4,149.5,185.1,149.5,185,149.6
								L185,149.6z"/>
						</g>
						<g>
							<path d="M186.7,149.2c-0.1,0.4-0.2,0.8-0.3,1.3c-0.1,0.4-0.2,0.7-0.2,1.1c0,0.1,0.1,0.1,0.1,0c0.2-0.3,0.2-0.7,0.3-1
								c0.1-0.5,0.2-0.9,0.3-1.4C186.9,149.1,186.7,149,186.7,149.2L186.7,149.2z"/>
						</g>
						<g>
							<path d="M188.5,148.3c-0.2,0.5-0.3,0.9-0.5,1.4c-0.1,0.4-0.3,0.7-0.3,1.1c0,0.1,0.1,0.1,0.2,0.1c0.3-0.3,0.3-0.7,0.5-1
								c0.2-0.5,0.3-0.9,0.4-1.4C188.9,148.2,188.6,148.1,188.5,148.3L188.5,148.3z"/>
						</g>
						<g>
							<path d="M190.7,147.4c-0.6,0.7-1.4,2.2-1,3.2c0,0.1,0.2,0.1,0.2,0c0.2-0.4,0.1-1,0.3-1.4c0.2-0.6,0.4-1.1,0.8-1.5
								C191.2,147.4,190.9,147.2,190.7,147.4L190.7,147.4z"/>
						</g>
						<g>
							<path d="M192.1,147.2c-0.4,1.2-0.8,2.4-0.9,3.6c0,0.1,0.2,0.2,0.2,0.1c0.5-1.1,0.8-2.4,1-3.6
								C192.5,147.1,192.2,147,192.1,147.2L192.1,147.2z"/>
						</g>
						<g>
							<path d="M213.1,128.9c-0.5,1.2-0.8,3-1.1,4.4c-0.4,2-0.9,4-1.2,6c0,0.1,0.2,0.2,0.2,0.1c1.1-3.5,2-7.5,2.4-11.2
								c0-0.1-0.1-0.1-0.2,0c-0.1,0.2-0.2,0.5-0.3,0.7C213,128.9,213.1,129,213.1,128.9L213.1,128.9z"/>
						</g>
						<g>
							<path d="M213.3,134.6c-0.1,0.5-0.2,1-0.4,1.5c-0.1,0.5-0.3,1-0.3,1.5c0,0.1,0.1,0.1,0.2,0c0.2-0.4,0.3-0.9,0.4-1.4
								c0.1-0.5,0.3-1.1,0.4-1.6C213.6,134.4,213.3,134.4,213.3,134.6L213.3,134.6z"/>
						</g>
						<g>
							<path d="M215.4,133.1c-0.1,0.5-0.2,1-0.3,1.6c-0.1,0.4-0.2,0.9-0.1,1.4c0,0.1,0.1,0.1,0.2,0c0.2-0.4,0.2-0.9,0.3-1.3
								c0.1-0.6,0.2-1.1,0.2-1.7C215.7,133,215.4,132.9,215.4,133.1L215.4,133.1z"/>
						</g>
						<g>
							<path d="M216.5,133.2c-0.2,0.9-0.4,1.8-0.4,2.7c0,0.1,0.1,0.1,0.2,0c0.3-0.9,0.4-1.8,0.6-2.7
								C216.8,133.1,216.6,133.1,216.5,133.2L216.5,133.2z"/>
						</g>
						<g>
							<path d="M205.4,106.5c0.4,1.3,0.6,2.9,1.2,4.1c0,0.1,0.1,0,0.1,0c-0.1-1.4-0.7-2.8-1.1-4.2
								C205.6,106.3,205.4,106.4,205.4,106.5L205.4,106.5z"/>
						</g>
						<g>
							<path d="M207.1,105.1c0.1,0.9,0.1,2,0.4,2.8c0,0.1,0.2,0.1,0.2,0c0.1-0.9-0.2-1.9-0.4-2.8
								C207.4,104.9,207.1,104.9,207.1,105.1L207.1,105.1z"/>
						</g>
						<g>
							<path d="M208.3,103.5c0.2,0.6,0.3,1.3,0.6,1.9c0,0.1,0.2,0,0.2,0c-0.1-0.7-0.3-1.3-0.5-2
								C208.5,103.3,208.3,103.4,208.3,103.5L208.3,103.5z"/>
						</g>
						<g>
							<path d="M209.9,103.9c0.1,0.2,0.3,0.3,0.4,0.5c0,0,0.1,0,0.1-0.1c-0.1-0.2-0.2-0.4-0.3-0.5
								C210,103.7,209.8,103.8,209.9,103.9L209.9,103.9z"/>
						</g>
						<g>
							<path d="M49.6,189.4c1-2.5,2.1-5,2.9-7.6c0-0.1-0.1-0.2-0.2-0.1c-1.1,2.5-2,5-3,7.6C49.3,189.4,49.5,189.5,49.6,189.4
								L49.6,189.4z"/>
						</g>
						<g>
							<path d="M51.6,187.6c0.6-1.2,1.1-2.4,1.5-3.6c0-0.1-0.1-0.1-0.1-0.1C52.4,185.1,51.9,186.3,51.6,187.6
								C51.5,187.6,51.6,187.7,51.6,187.6L51.6,187.6z"/>
						</g>
						<g>
							<path d="M53.9,185.6c0.3-0.5,0.7-1,0.9-1.6c0-0.1-0.1-0.2-0.1-0.1c-0.4,0.5-0.7,1-1,1.5C53.6,185.6,53.8,185.8,53.9,185.6
								L53.9,185.6z"/>
						</g>
					</g>
					<g>
						<path d="M236.4,77.4c0.3-0.3,0.7-0.4,1.2-0.3c0.3,0,0.6,0.4,0.9,0.3c0.1,0,0.1,0,0.1-0.1c0.1-0.5-0.7-0.6-1-0.6
							c-0.5,0-1,0.2-1.3,0.6C236.1,77.3,236.3,77.5,236.4,77.4L236.4,77.4z"/>
					</g>
					<g>
						<path d="M237.8,75.9c-0.5,0-0.8,0.4-1,0.8c-0.1,0.2,0.1,0.4,0.3,0.3C237.3,76.7,237.6,76.4,237.8,75.9
							c0.2-0.1-0.2-0.3-0.3-0.1c-0.2,0.2-0.4,0.4-0.6,0.7c-0.2,0.2,0.2,0.5,0.4,0.3c0.1-0.1,0.2-0.2,0.3-0.3c0,0,0.3,0,0.2,0.1
							c0.1,0,0.3,0.1,0.4,0.1c0-0.2-0.1-0.5-0.4-0.6c-0.2-0.1-0.4,0-0.5,0.2c-0.1,0.2,0,0.4,0.1,0.6c0.2,0.2,0.5,0.2,0.7,0.2
							c0.1,0,0.2-0.1,0.2-0.3c0-0.3-0.3-0.8-0.7-0.6c-0.3,0.1-0.3,0.5,0,0.6c0.1,0,0.2-0.1,0.2-0.1c0,0,0,0.1,0,0.2
							c0.1-0.1,0.1-0.2,0.2-0.3c-0.1,0-0.1,0-0.2,0c-0.1,0-0.2-0.1-0.2-0.1c-0.1,0,0,0-0.1,0c0,0,0.1,0.2,0.1,0.2
							c0,0.2,0.3,0.3,0.4,0.1c0.2-0.3,0.1-0.6-0.2-0.8c-0.4-0.2-0.8,0.1-1.1,0.4c0.1,0.1,0.2,0.2,0.4,0.3c0.2-0.2,0.4-0.5,0.6-0.7
							c-0.1-0.1-0.2-0.1-0.4-0.2c-0.2,0.3-0.4,0.6-0.7,0.8c0.1,0.1,0.2,0.1,0.3,0.2c0.2-0.3,0.5-0.5,0.8-0.8
							C237.9,76,237.8,75.9,237.8,75.9L237.8,75.9z"/>
					</g>
					<g>
						<path d="M246.4,96.8c-0.1,0.4,0,0.8-0.2,1.2c-0.1,0.4-0.4,0.9-0.7,1.2c-0.2,0.2,0.1,0.5,0.2,0.3c0.7-0.7,1.1-1.6,1-2.6
							c0-0.3-0.4-0.2-0.4,0.1c0,0.5-0.1,1-0.2,1.5c0,0.1,0.1,0.1,0.2,0.1c0.4-0.5,0.5-1.1,0.5-1.7c-0.1,0-0.3,0-0.4,0.1
							c0,0.8-0.3,1.6-0.9,2.2c0.1,0.1,0.2,0.2,0.2,0.3c0.4-0.4,0.7-0.8,0.8-1.4c0.1-0.4,0.2-1,0-1.3
							C246.5,96.7,246.4,96.8,246.4,96.8L246.4,96.8z"/>
					</g>
					<g>
						<path d="M242,88.1c1.7,2.9,3.6,5.8,5.5,8.6c0.1,0.2,0.4,0,0.3-0.2c-1.8-2.9-3.7-5.7-5.7-8.5C242.1,88,241.9,88.1,242,88.1
							L242,88.1z"/>
					</g>
					<g>
						<path d="M244.6,92.6c0.7,1.2,1.4,2.7,2.4,3.7c0.1,0.1,0.4,0,0.3-0.2c-0.6-1.3-1.7-2.5-2.5-3.7
							C244.7,92.4,244.5,92.5,244.6,92.6L244.6,92.6z"/>
					</g>
					<g>
						<path d="M241.7,88c0.2,0.5,0.4,1,0.6,1.5c0.1,0.1,0.3,0.1,0.3-0.1c-0.1-0.5-0.3-1-0.7-1.4c-0.1-0.1-0.2,0-0.1,0.1
							c0.1,0.3,0.2,0.5,0.4,0.8c0,0,0.1,0,0.1,0c-0.1-0.3-0.2-0.5-0.4-0.8c0,0-0.1,0-0.1,0.1c0.3,0.4,0.4,0.8,0.5,1.3
							c0.1,0,0.2,0,0.3-0.1c-0.2-0.5-0.5-1-0.8-1.4C241.8,87.9,241.7,88,241.7,88L241.7,88z"/>
					</g>
					<g>
						<path d="M241.3,88.8c-0.5-3.9-1.8-8.1-2.8-11.9c0-0.1-0.2,0-0.2,0c0.4,3.9,1.3,8.4,2.9,11.9C241.2,88.9,241.3,88.9,241.3,88.8
							L241.3,88.8z"/>
					</g>
					<g>
						<path d="M201.4,89.6c-0.4,0.4-0.8,0.9-0.7,1.5c0.1,0.5,0.4,0.9,1,1c0-0.2,0-0.3,0-0.5c-0.8,0-1.2-0.9-0.8-1.5
							c0.1-0.2-0.2-0.4-0.3-0.2c-0.4,0.6-0.5,1.4-0.1,2c0.1-0.1,0.2-0.2,0.3-0.2c-0.2-0.3-0.3-0.5-0.4-0.8c0-0.3-0.4-0.2-0.4,0.1
							c0,0.4,0.1,0.8,0.1,1.2c0.1,0,0.3,0,0.4-0.1c-0.1-0.3-0.2-0.5-0.3-0.6c-0.2-0.2-0.4,0-0.3,0.2c0.1,0.2,0.1,0.3,0.2,0.4
							c0,0.1,0.1,0,0.2,0c0-0.2,0-0.3,0-0.5c-0.1,0-0.2,0.1-0.3,0.1c0.1,0.1,0.2,0.3,0.2,0.5c0.1,0.3,0.4,0.2,0.4-0.1
							c0-0.4-0.1-0.8-0.1-1.2c-0.1,0-0.3,0-0.4,0.1c0.1,0.4,0.2,0.7,0.5,1c0.2,0.2,0.4,0,0.3-0.2c-0.3-0.5-0.3-1.1,0-1.6
							c-0.1-0.1-0.2-0.1-0.3-0.2c-0.6,0.9-0.1,2.1,1,2.2c0.3,0,0.4-0.4,0.1-0.5c-0.9-0.2-0.5-1.4-0.1-1.9
							C201.7,89.7,201.6,89.5,201.4,89.6L201.4,89.6z"/>
					</g>
					<g>
						<path d="M197.9,94.1c0.1,4.8,0.8,10,1.6,14.7c0,0.2,0.4,0.2,0.3,0c-0.3-4.8-0.7-10-1.7-14.7C198,94,197.9,94,197.9,94.1
							L197.9,94.1z"/>
					</g>
					<g>
						<path d="M216.3,98.6c-0.3,0.1-0.2,0.6,0.1,0.6c0.5,0.1,0.6-0.5,0.5-0.9c0-0.2-0.4-0.2-0.4,0c-0.1,0.4-0.3,1-0.1,1.4
							c0,0.1,0.2,0.1,0.2,0c0.3-0.3,0.2-1,0.3-1.4c-0.1,0-0.3,0-0.4,0c0,0.1,0.1,0.2,0.1,0.3c0,0.1,0,0.1-0.1,0.2c0,0,0,0-0.1,0
							C216.6,98.8,216.5,98.5,216.3,98.6L216.3,98.6z"/>
					</g>
					<g>
						<path d="M36.1,167.9c-0.8,0.9-1.2,2.4-0.6,3.5c0,0.1,0.2,0.1,0.2,0c0-1.2,0.1-2.2,0.6-3.4C36.3,167.9,36.2,167.9,36.1,167.9
							L36.1,167.9z"/>
					</g>
					<g>
						<path d="M34.9,168.8c-0.1,0.3,0,0.6,0,0.9c0,0.3,0.1,0.7,0.2,1c0,0.1,0.1,0.1,0.2,0c0.1-0.3,0-0.7,0-1c0-0.3,0-0.6-0.2-0.8
							C35,168.7,34.9,168.7,34.9,168.8L34.9,168.8z"/>
					</g>
					<g>
						<path d="M34.9,168.7c-0.1,0.5,0,1,0.1,1.5c0.1,0.6,0.2,1.1,0.3,1.7c0,0.1,0.1,0.1,0.1,0c0-0.6-0.1-1.2-0.1-1.7
							C35.2,169.7,35.2,169.1,34.9,168.7C34.9,168.7,34.9,168.7,34.9,168.7L34.9,168.7z"/>
					</g>
					<g>
						<path d="M37.9,166.7c-2.7,1.1-2.6,5.3-1.8,7.6c0,0.1,0.1,0,0.1,0c0-2.9-0.6-5.1,1.7-7.4C38.1,166.7,38,166.6,37.9,166.7
							L37.9,166.7z"/>
					</g>
					<g>
						<path d="M35.5,168.7c-0.3,0.9-0.1,2.3,0.1,3.3c0,0.1,0.2,0.1,0.2,0c0-0.5,0-1,0-1.5c0-0.6,0-1.2-0.1-1.7
							C35.6,168.7,35.5,168.6,35.5,168.7L35.5,168.7z"/>
					</g>
					<g>
						<path d="M39.8,199.2c-0.6,0.7,0.5,1.6,1.1,1.8c0.8,0.2,2.2-0.2,2.5-1c0-0.1-0.1-0.2-0.1-0.1c-0.7,0.3-1.1,0.9-1.9,0.9
							c-0.5,0-0.9-0.2-1.2-0.5C40,199.9,40,199.6,39.8,199.2C39.9,199.2,39.8,199.2,39.8,199.2L39.8,199.2z"/>
					</g>
					<g>
						<path d="M39.6,200.5c0,0.4,0.4,0.8,0.8,0.9c0.3,0.1,1,0.3,1.3,0c0.1-0.1,0.1-0.2,0-0.3c-0.1-0.1-0.4,0-0.5,0
							c-0.6,0.1-1.1-0.3-1.3-0.7C39.8,200.3,39.6,200.4,39.6,200.5L39.6,200.5z"/>
					</g>
					<g>
						<path d="M39.9,200.5c0.3,0.5,0.7,0.8,1.2,1c0.3,0.1,0.4-0.3,0.2-0.4c-0.4-0.2-0.8-0.4-1.2-0.7c-0.2-0.1-0.4,0.1-0.3,0.3
							c0.2,0.4,0.5,0.8,0.9,1.1c0.2,0.2,0.5-0.2,0.3-0.4c-0.4-0.3-1,0-0.9,0.5c0,0.1,0.2,0.2,0.3,0.2c0.3-0.2,0.5-0.5,0.3-0.9
							c-0.1-0.1-0.3-0.2-0.4,0c-0.2,0.3-0.3,0.5-0.2,0.9c0,0.1,0.2,0.3,0.3,0.1c0.3-0.3,0.7-0.9,0.1-1.2c-0.5-0.3-0.7,0.5-0.6,0.8
							c0,0.1,0.1,0.1,0.2,0.1c0,0-0.1,0-0.1-0.1c0.1,0.2,0.4,0.2,0.4-0.1c0-0.2-0.1-0.3-0.3-0.3c0.1,0.1,0.1,0.1,0.2,0.2
							c0,0,0-0.1,0-0.2c0,0,0-0.3,0-0.1c0.1,0.2-0.1,0.3-0.2,0.4c0.1,0,0.2,0.1,0.3,0.1c0-0.2,0-0.4,0.1-0.5c-0.1,0-0.2,0-0.4,0
							c0.1,0.1,0,0.2-0.1,0.3c0.1,0.1,0.2,0.1,0.3,0.2c0.1,0,0.1-0.1,0.2-0.1c0.1-0.1,0.2-0.2,0.3-0.4c-0.3-0.2-0.6-0.5-0.8-0.9
							c-0.1,0.1-0.2,0.2-0.3,0.3c0.4,0.2,0.8,0.4,1.2,0.7c0-0.1,0.1-0.3,0.1-0.4c-0.4-0.1-0.8-0.4-1.1-0.7
							C40.1,200.2,39.9,200.3,39.9,200.5L39.9,200.5z"/>
					</g>
					<g>
						<path d="M40.1,201c-0.2,0.3-0.5,0.9-0.1,1.1c0,0,0.1,0,0.1,0c0.1-0.1,0.1-0.3,0.1-0.4c0-0.2,0.1-0.4,0.2-0.5
							C40.4,201,40.2,200.9,40.1,201L40.1,201z"/>
					</g>
					<g>
						<path d="M39.5,200.8c-0.2,0.6-0.2,1.1-0.1,1.7c0.1,0,0.3-0.1,0.4-0.1c-0.1-0.2-0.1-0.3-0.3-0.4c0,0-0.1,0-0.1,0
							c-0.1,0.2,0,0.3,0,0.5c0.1,0.2,0.5,0.2,0.4-0.1c-0.1-0.5-0.1-1.1-0.1-1.6C39.7,200.8,39.6,200.7,39.5,200.8L39.5,200.8z"/>
					</g>
					<g>
						<path d="M38.6,196.1c-0.2,2.3,0.1,4.9,0.7,7.1c0,0.1,0.2,0.1,0.2,0C39.2,200.8,39,198.4,38.6,196.1
							C38.6,196.1,38.6,196.1,38.6,196.1L38.6,196.1z"/>
					</g>
					<g>
						<path d="M49.2,207c0.4,0.4,1.1,0.1,1.4-0.2c0.2-0.2,0.4-0.6,0.4-0.9c0.1-0.3,0.1-0.8-0.1-1c0-0.1-0.1-0.1-0.2,0
							c-0.3,0.3-0.1,1-0.3,1.4c-0.2,0.5-0.7,0.8-1.2,0.7C49.2,206.9,49.1,207,49.2,207L49.2,207z"/>
					</g>
					<g>
						<path d="M50.7,205c0.5,0.9,0.1,2-0.9,2.4c-0.2,0.1-0.1,0.4,0.1,0.3c1.1-0.5,1.6-1.7,0.9-2.8C50.8,204.8,50.7,204.9,50.7,205
							L50.7,205z"/>
					</g>
					<g>
						<path d="M48.9,206.8c0.5,0.3,1.2,0.3,1.7-0.1c0.4-0.3,0.8-1,0.5-1.5c-0.1-0.1-0.2,0-0.2,0c-0.2,0.4-0.1,0.7-0.4,1.1
							c-0.4,0.4-1,0.5-1.5,0.3C48.9,206.7,48.8,206.8,48.9,206.8L48.9,206.8z"/>
					</g>
					<g>
						<path d="M50.8,207.4c0.1-0.4,0.2-0.8,0.3-1.1c-0.1,0-0.2,0-0.4,0c0,0.2,0,0.4,0.1,0.5c0,0.1,0.1,0.1,0.2,0
							c0.1-0.2,0.1-0.3,0.1-0.5c0-0.2-0.3-0.3-0.4,0c-0.1,0.4-0.2,0.7-0.2,1.1C50.5,207.5,50.7,207.6,50.8,207.4L50.8,207.4z"/>
					</g>
					<g>
						<path d="M49.4,208c0.3,0.3,0.5,0.6,0.4,1c0,0.4-0.2,0.8-0.6,0.9c0,0,0,0.1,0,0.1c0.6-0.4,1.3-1.2,0.8-2
							c-0.1-0.2-0.5-0.1-0.3,0.1c0.2,0.4,0.2,0.9,0,1.3c0.1,0,0.2,0.1,0.3,0.1c0.2-0.5,0.4-1,0.5-1.6c-0.1,0-0.2,0-0.4,0
							c0.1,0.5-0.1,0.9-0.2,1.3c0,0.1,0.1,0.1,0.1,0.1c0.5-0.3,0.6-0.9,0.5-1.5c0-0.2-0.4-0.2-0.4,0c-0.1,0.5-0.2,1-0.5,1.5
							c-0.1,0.2,0.2,0.3,0.3,0.2c0.3-0.5,0.4-1.1,0.1-1.6c-0.1,0-0.2,0.1-0.3,0.1c0.4,0.7-0.2,1.3-0.6,1.8c0,0,0,0.1,0.1,0.1
							c0.4-0.2,0.9-0.5,0.9-1c0.1-0.5-0.2-1-0.7-1.2C49.3,207.7,49.3,207.9,49.4,208L49.4,208z"/>
					</g>
					<g>
						<path d="M51.5,206.8c-0.1,0.2-0.1,0.5-0.1,0.7c-0.1,0.4-0.2,0.8-0.3,1.1c-0.4,0.8-1,1.2-1.6,1.8c0,0,0,0.1,0,0.1
							c0.8-0.1,1.3-0.8,1.7-1.5C51.6,208.5,52,207.3,51.5,206.8C51.6,206.8,51.5,206.8,51.5,206.8L51.5,206.8z"/>
					</g>
					<g>
						<path d="M10.9,230.6c0,0.3,0,0.6,0.1,0.9c0,0.2,0.1,0.5,0.3,0.7c0,0,0.1,0,0.1,0c0-0.2-0.1-0.4-0.2-0.6
							c-0.1-0.3-0.2-0.6-0.2-0.9C11.1,230.5,10.9,230.5,10.9,230.6L10.9,230.6z"/>
					</g>
					<g>
						<path d="M10.9,230.9c0,0.3,0,0.6,0.1,0.9c0,0.2,0,0.4,0.2,0.6c0,0,0.1,0,0.1,0c0.1-0.2,0-0.4,0-0.6c-0.1-0.3-0.1-0.5-0.2-0.8
							C11,230.9,10.9,230.9,10.9,230.9L10.9,230.9z"/>
					</g>
					<g>
						<path d="M10.8,231.1c0,0.2,0.1,0.5,0.1,0.7c0,0.2,0,0.4,0.2,0.5c0,0.1,0.1,0,0.1,0c0-0.2,0-0.4-0.1-0.6c0-0.2-0.1-0.4-0.1-0.6
							C11,230.9,10.8,231,10.8,231.1L10.8,231.1z"/>
					</g>
					<g>
						<path d="M10.9,227.7c-0.3,0.6,0,1.5,0.7,1.8c0.6,0.2,1.6-0.1,1.6-0.9c0-0.1-0.1-0.1-0.1-0.1c-0.3,0.3-0.7,0.7-1.2,0.6
							c-0.6-0.1-1-0.8-0.8-1.3C11.1,227.6,10.9,227.5,10.9,227.7L10.9,227.7z"/>
					</g>
					<g>
						<path d="M11,228.9c0.1,0.5,0.3,1.1,0.4,1.6c0.1,0.2,0.4,0.1,0.3-0.1c-0.1-0.5-0.2-0.9-0.3-1.4c-0.1,0-0.2,0-0.4,0
							c0.1,0.5,0.2,1.1,0.3,1.6c0,0.2,0.3,0.3,0.4,0c0.1-0.4,0.1-0.8-0.1-1.2c-0.1-0.2-0.4-0.2-0.4,0.1c0,0.3,0.1,0.6,0.3,0.8
							c0.1,0.1,0.2,0.1,0.3,0c0.3-0.3,0.4-0.6,0.2-1c-0.1-0.1-0.3-0.2-0.4,0c-0.2,0.3,0.1,0.8,0.5,0.7c0.4-0.2,0.2-0.7-0.1-0.8
							c-0.1,0-0.2,0.1-0.2,0.2c0,0.1,0,0.1,0,0.2c0,0.1,0.1,0.1,0.2,0.1c0.1-0.1,0.1-0.1,0.1-0.2c-0.1,0-0.2,0.1-0.2,0.1
							c0,0,0.1,0,0.1,0c-0.1,0-0.2,0-0.4,0c0.1,0.2,0,0.4-0.1,0.5c0.1,0,0.2,0,0.3,0c-0.1-0.1-0.2-0.3-0.2-0.5c-0.1,0-0.3,0-0.4,0.1
							c0.2,0.3,0.2,0.6,0.1,1c0.1,0,0.3,0,0.4,0c-0.1-0.5-0.3-1.1-0.4-1.6c-0.1-0.2-0.4-0.2-0.4,0c0.1,0.5,0.2,0.9,0.3,1.4
							c0.1,0,0.2-0.1,0.3-0.1c-0.2-0.5-0.3-1-0.5-1.5C11.1,228.8,10.9,228.8,11,228.9L11,228.9z"/>
					</g>
					<g>
						<path d="M0.1,203.6c0.7,1,1.5,2,2.3,3c0.7,0.9,1.3,1.8,2.2,2.5c0.1,0.1,0.2,0,0.1-0.1c-0.5-1-1.3-1.8-2-2.7
							c-0.8-1-1.5-2-2.4-2.9C0.2,203.3,0,203.4,0.1,203.6L0.1,203.6z"/>
					</g>
					<g>
						<path d="M2.1,201.8c-0.8,1.2-0.6,3.9,0.9,4.6c0.1,0,0.1,0,0.1-0.1c-0.3-0.7-0.8-1.3-1-2.1c-0.2-0.8,0-1.5,0.2-2.3
							C2.3,201.7,2.1,201.7,2.1,201.8L2.1,201.8z"/>
					</g>
					<g>
						<path d="M1.4,202.4c-0.2,0.6-0.1,1.3,0,1.9c0,0.2,0.4,0.2,0.4,0c0-0.5-0.1-1-0.3-1.5c-0.1-0.2-0.4-0.1-0.4,0.1
							c0,0.3,0,0.6,0,0.9c0.1-0.1,0.3-0.1,0.4-0.2c-0.2-0.2-0.3-0.4-0.3-0.6c-0.1,0.1-0.3,0.1-0.4,0.2c0.1,0.2,0.3,0.4,0.4,0.6
							c0.1,0.2,0.5,0,0.4-0.2c-0.1-0.2-0.3-0.4-0.4-0.6c-0.1-0.2-0.5-0.1-0.4,0.1c0.1,0.3,0.2,0.6,0.4,0.8c0.1,0.2,0.4,0.1,0.4-0.2
							c0-0.3-0.1-0.6-0.1-0.9c-0.1,0-0.3,0.1-0.4,0.1c0.2,0.4,0.3,0.8,0.3,1.3c0.1,0,0.3,0,0.4,0c-0.1-0.6-0.1-1.2-0.2-1.8
							C1.6,202.3,1.5,202.3,1.4,202.4L1.4,202.4z"/>
					</g>
				</g>
			</g>
			<g>
				<g>
					<g>
						<g>
							<path d="M93.7,16.2c0,0-0.1-0.2-0.3-0.5c-0.2-0.3-0.4-0.8-0.5-1.5c-0.1-0.7-0.2-1.6,0.1-2.6c0.2-1,0.7-2.1,1.6-3.2
								c0.8-1.1,1.9-2.1,3.4-2.9c1.4-0.8,3.2-1.3,5.1-1c0.5,0.1,0.9,0.2,1.4,0.4c0.4,0.2,0.9,0.3,1.3,0.6c0.2,0.1,0.5,0.3,0.7,0.4
								c0.2,0.2,0.4,0.3,0.6,0.5c0.4,0.3,0.8,0.7,1.2,1.1c0.7,0.8,1.4,1.7,1.9,2.7c0.5,1,0.9,2.1,1.2,3.2c0.3,1.1,0.4,2.3,0.4,3.6
								c0,1.2-0.2,2.5-0.5,3.7c-0.1,0.3-0.2,0.6-0.3,0.9l-0.2,0.5l-0.2,0.4c-0.1,0.3-0.2,0.6-0.4,0.9c-0.2,0.3-0.3,0.6-0.5,0.9
								c-0.7,1.1-1.5,2.2-2.3,3.2c-3.6,4-8.8,6.7-14.2,8.3c-5.5,1.7-11.3,2.7-16.8,4.7c-2.8,1-5.4,2.3-7.8,3.9
								c-2.4,1.7-4.5,3.7-6,6.2c-0.2,0.3-0.3,0.6-0.5,0.9l-0.1,0.2l-0.1,0.2l-0.2,0.5c-0.1,0.3-0.3,0.7-0.4,1l-0.3,1l-0.1,0.5
								l-0.1,0.5l-0.1,1.1c0,0.4,0,0.7,0,1.1c0,0.4,0,0.7,0,1.1c0.2,2.8,1.1,5.7,2.6,8.1c1.5,2.4,3.6,4.4,6,5.8
								c0.3,0.2,0.6,0.3,0.9,0.4c0.3,0.1,0.6,0.3,0.9,0.4l1,0.3l0.2,0.1l0.1,0c0,0,0.1,0,0,0l0.1,0l0.5,0.1l1.1,0.2
								c0.3,0,0.7,0,1,0.1c0.3,0,0.7,0.1,1,0l1-0.1l0.5,0c0.2,0,0.3-0.1,0.5-0.1l1-0.2c0.7-0.1,1.3-0.4,1.9-0.6
								c0.6-0.3,1.2-0.5,1.8-0.8l0.9-0.5l0.4-0.2l0.4-0.3c2.2-1.4,4-3.3,5.3-5.5c1.3-2.1,2.1-4.5,2.2-6.8c0-0.1,0-0.3,0-0.4l0-0.5
								c0-0.3,0-0.6,0-0.9c0-0.3-0.1-0.6-0.1-0.8c-0.1-0.3-0.1-0.6-0.2-0.8c-0.2-1.1-0.6-2.2-1-3.2c-1.8-4-5.3-6.8-8.9-7.2
								c-1.8-0.2-3.5,0.1-4.9,0.7c-1.4,0.6-2.6,1.5-3.5,2.4c-1.8,1.9-2.6,3.9-2.7,5.3c0,0.4,0,0.7,0,0.9c0,0.3,0.1,0.5,0.1,0.7
								c0,0.4,0.1,0.6,0.1,0.6s0-0.2-0.1-0.5c0-0.2-0.1-0.4-0.1-0.7c0-0.3,0-0.6,0-0.9c0-0.4,0.1-0.7,0.2-1.2
								c0.1-0.2,0.1-0.4,0.2-0.7c0.1-0.2,0.1-0.5,0.2-0.7c0.4-1,1-2,1.9-3c0.9-1,2.1-1.9,3.6-2.6c0.7-0.3,1.5-0.6,2.4-0.8
								c0.4-0.1,0.9-0.2,1.3-0.2c0.2,0,0.5,0,0.7,0c0.2,0,0.5,0,0.7,0.1c1,0.1,1.9,0.4,2.8,0.7c0.5,0.2,0.9,0.4,1.4,0.7
								c0.2,0.1,0.4,0.3,0.7,0.4c0.2,0.2,0.4,0.3,0.6,0.5c0.2,0.2,0.4,0.3,0.6,0.5c0.2,0.2,0.4,0.4,0.6,0.5c0.4,0.4,0.8,0.8,1.1,1.2
								c0.7,0.9,1.3,1.8,1.8,2.9c0.5,1,0.9,2.2,1.2,3.4c0.1,0.3,0.1,0.6,0.2,0.9c0,0.3,0.1,0.6,0.1,0.9c0,0.3,0,0.6,0.1,0.9l0,0.5
								c0,0.2,0,0.3,0,0.5c-0.1,2.5-0.9,5.1-2.2,7.4c-1.4,2.3-3.3,4.4-5.6,6l-0.4,0.3L84.4,73l-0.9,0.5c-0.6,0.3-1.3,0.6-2,0.9
								c-0.7,0.2-1.4,0.5-2.1,0.6l-1.1,0.2c-0.2,0-0.4,0.1-0.5,0.1l-0.6,0.1l-1.1,0.1c-0.4,0-0.8,0-1.1,0c-0.4,0-0.8,0-1.1-0.1
								l-1.1-0.2l-0.5-0.1l-0.1,0c-0.1,0-0.1,0-0.1,0l-0.1,0l-0.3-0.1l-1.1-0.3c-0.4-0.1-0.7-0.3-1.1-0.4c-0.3-0.2-0.7-0.3-1-0.5
								c-2.7-1.5-5-3.7-6.6-6.3c-1.6-2.6-2.6-5.7-2.9-8.8c-0.1-0.4,0-0.8,0-1.2c0-0.4,0-0.8,0-1.2l0.2-1.2l0.1-0.6l0.1-0.6l0.3-1.2
								c0.1-0.4,0.3-0.7,0.4-1.1l0.2-0.5l0.1-0.1l0-0.1c0,0,0-0.1,0.1-0.1l0.1-0.3c0.2-0.3,0.4-0.7,0.6-1c1.6-2.8,3.9-5,6.5-6.7
								c2.6-1.8,5.4-3.1,8.2-4.1c5.7-2,11.5-2.9,16.9-4.6c2.7-0.8,5.2-1.8,7.6-3.1c2.3-1.3,4.5-2.8,6.2-4.6c0.9-0.9,1.6-1.9,2.3-2.9
								l0.4-0.8c0.1-0.3,0.3-0.6,0.4-0.8l0.2-0.4l0.2-0.4c0.1-0.3,0.2-0.5,0.3-0.8c0.3-1.1,0.5-2.3,0.6-3.4c0-1.1-0.1-2.3-0.3-3.3
								c-0.4-2.1-1.4-4.1-2.7-5.6c-0.4-0.3-0.7-0.7-1.1-1c-0.2-0.2-0.4-0.3-0.6-0.4c-0.2-0.1-0.4-0.2-0.6-0.4
								c-0.4-0.3-0.8-0.4-1.3-0.6c-0.4-0.2-0.8-0.3-1.3-0.4c-1.7-0.3-3.4,0.1-4.8,0.8c-1.4,0.7-2.5,1.6-3.3,2.6
								c-0.8,1-1.4,2.1-1.6,3c-0.3,1-0.3,1.9-0.2,2.6c0.1,0.7,0.3,1.2,0.5,1.5C93.6,16,93.7,16.2,93.7,16.2z"/>
							<path d="M107.2,57.4c0,0,0.2,0.2,0.5,0.6c0.2,0.2,0.4,0.4,0.7,0.7c0.3,0.3,0.7,0.5,1.1,0.8c0.9,0.5,2.1,1,3.5,1.1
								c1.5,0.2,3.2,0.1,5-0.5c0.9-0.3,1.8-0.7,2.6-1.4c0.2-0.1,0.4-0.3,0.6-0.5c0.2-0.2,0.4-0.3,0.6-0.6c0.2-0.2,0.4-0.4,0.5-0.6
								c0.2-0.2,0.3-0.5,0.5-0.7c1.2-1.9,1.9-4.4,1.6-7c-0.2-2.6-1.3-5.3-3.3-7.4l-0.4-0.4l-0.1-0.1l-0.1-0.1l-0.2-0.2
								c-0.3-0.2-0.6-0.5-0.9-0.7l-0.4-0.3c-0.2-0.1-0.3-0.2-0.5-0.3l-0.5-0.3l-0.5-0.2c-1.4-0.6-2.9-1.1-4.5-1.2
								c-3.2-0.3-6.6,0.3-9.5,2.1c-1.4,0.9-2.8,2-4,3.3c-1.2,1.3-2.2,2.8-3,4.5c-0.4,0.8-0.8,1.7-1,2.6c-0.2,0.4-0.3,0.9-0.4,1.3
								L95,52.7L94.9,53c0,0,0,0.1,0,0l0,0.1l0,0.2c-0.1,0.5-0.1,1-0.2,1.4c0,0.2-0.1,0.5-0.1,0.7l0,0.7c0,0.5,0,0.9-0.1,1.4
								c0,0.5,0.1,1,0.1,1.4c0.3,3.8,1.7,7.6,3.8,11c0.2,0.4,0.6,0.8,0.9,1.2c0.3,0.4,0.6,0.8,0.9,1.2c0.7,0.8,1.3,1.5,2.1,2.2
								l0.6,0.5c0.2,0.2,0.4,0.3,0.6,0.5l1.2,0.9l0.3,0.2l0.3,0.2l0.6,0.4c0.4,0.3,0.8,0.6,1.3,0.8l1.4,0.7c0.5,0.2,1,0.4,1.4,0.6
								c0.9,0.4,2,0.6,3,0.9l0.1,0c0,0,0,0,0.1,0l0.2,0l0.4,0.1l0.8,0.1c0.5,0.1,1,0.1,1.6,0.1c1,0.1,2.1,0,3.1,0
								c4.2-0.3,8.3-1.5,12.2-3.3c1.9-0.9,3.8-1.9,5.7-3.1c1.8-1.1,3.6-2.3,5.4-3.6c7-5.1,13.6-11.1,21.3-15.3
								c1.9-1.1,3.9-2,5.9-2.7l0.8-0.3l0.2-0.1l0.2-0.1l0.4-0.1c0.5-0.2,1-0.3,1.5-0.5c1.1-0.2,2.2-0.5,3.2-0.6
								c0.5-0.1,1.1-0.2,1.6-0.2c0.5,0,1.1-0.1,1.6-0.1c1.1,0,2.2,0,3.2,0.1c1.1,0,2.1,0.2,3.2,0.4c1,0.2,2.1,0.4,3.1,0.8
								c1,0.3,2,0.7,3,1.1c0.5,0.2,0.9,0.5,1.4,0.7l0.3,0.2l0.3,0.2l0.7,0.4l0.7,0.4c0.2,0.1,0.4,0.3,0.6,0.5c0.4,0.3,0.8,0.6,1.2,1
								c0.4,0.4,0.7,0.7,1.1,1.1c0.2,0.2,0.3,0.4,0.5,0.6l0.5,0.6l0.5,0.6c0.1,0.2,0.3,0.4,0.4,0.7c0.3,0.5,0.5,0.9,0.8,1.4
								c0.2,0.5,0.4,0.9,0.6,1.4l0.3,0.7l0.2,0.7c0.5,1.9,0.7,4,0.5,5.9c-0.3,3.9-2.1,7.6-4.8,10c-2.8,2.5-6.3,3.7-9.7,3.8
								c-1.7,0-3.4-0.2-4.9-0.8c-0.4-0.2-0.8-0.3-1.1-0.5c-0.4-0.2-0.7-0.3-1.1-0.6c-0.3-0.2-0.6-0.4-1-0.6
								c-0.3-0.3-0.6-0.5-0.9-0.8c-2.3-2.1-3.6-4.9-4.1-7.5c-0.2-1.3-0.3-2.7-0.1-3.9c0.2-1.3,0.5-2.5,1.1-3.5c0.5-1,1.2-2,2-2.7
								c0.8-0.7,1.6-1.4,2.4-1.9c1.7-1,3.4-1.5,4.9-1.6c1.5-0.2,2.8,0,3.8,0.2c0.5,0.1,0.9,0.2,1.3,0.4c0.4,0.1,0.7,0.3,0.9,0.4
								c0.5,0.2,0.7,0.4,0.7,0.4s-0.2-0.1-0.7-0.4c-0.2-0.1-0.5-0.2-0.9-0.4c-0.4-0.1-0.8-0.2-1.3-0.4c-1-0.2-2.3-0.3-3.7-0.1
								c-1.5,0.2-3.1,0.7-4.7,1.7c-0.8,0.5-1.6,1.1-2.3,1.9c-0.7,0.8-1.3,1.6-1.8,2.7c-0.5,1-0.8,2.2-0.9,3.4
								c-0.2,1.2-0.1,2.5,0.2,3.8c0.5,2.5,1.8,5.1,4,7.1c0.3,0.2,0.6,0.4,0.8,0.7c0.3,0.2,0.6,0.4,1,0.6c0.3,0.2,0.7,0.3,1,0.5
								c0.3,0.2,0.7,0.3,1,0.4c1.4,0.5,3,0.7,4.6,0.7c1.6,0,3.2-0.4,4.7-1c1.5-0.6,3-1.5,4.2-2.6c2.5-2.3,4.1-5.7,4.4-9.4
								c0.1-1.8,0-3.7-0.5-5.4l-0.2-0.7l-0.2-0.6c-0.1-0.4-0.4-0.9-0.6-1.3c-0.2-0.4-0.5-0.8-0.7-1.2c-0.1-0.2-0.2-0.4-0.4-0.6
								l-0.4-0.6c-1.1-1.5-2.6-2.8-4.2-3.9l-0.6-0.4l-0.3-0.2l-0.3-0.2l-1.3-0.7c-0.9-0.4-1.8-0.8-2.8-1c-0.9-0.3-1.9-0.5-2.9-0.7
								c-1-0.1-2-0.3-3-0.3c-1-0.1-2-0.1-3.1,0c-0.5,0-1,0.1-1.5,0.1c-0.5,0-1,0.1-1.5,0.2c-1,0.1-2,0.4-3,0.6
								c-0.5,0.1-1,0.3-1.5,0.5l-0.4,0.1l-0.2,0.1c0,0-0.1,0-0.2,0.1l-0.7,0.3c-2,0.7-3.9,1.6-5.7,2.7c-7.5,4.1-13.9,10.1-21,15.3
								c-1.8,1.3-3.6,2.5-5.5,3.7c-1.9,1.2-3.8,2.2-5.9,3.1c-4,1.9-8.4,3.1-12.8,3.4c-1.1,0-2.2,0.1-3.3,0c-0.6,0-1.1-0.1-1.6-0.2
								l-0.8-0.1L113,82l-0.2,0c0,0-0.1,0-0.1,0l-0.1,0c-1.1-0.3-2.2-0.5-3.2-0.9c-0.5-0.2-1-0.4-1.5-0.6l-1.5-0.7
								c-0.5-0.2-0.9-0.6-1.4-0.8l-0.7-0.4l-0.3-0.2l-0.3-0.3l-1.3-1c-0.2-0.2-0.4-0.3-0.6-0.5l-0.6-0.6c-0.8-0.7-1.5-1.5-2.2-2.3
								c-0.4-0.4-0.6-0.9-1-1.3c-0.3-0.4-0.6-0.8-0.9-1.3c-2.2-3.6-3.7-7.6-3.9-11.7c0-0.5-0.1-1-0.1-1.5c0-0.5,0.1-1,0.1-1.5l0-0.8
								c0-0.3,0.1-0.5,0.1-0.7c0.1-0.5,0.2-1,0.2-1.4c0.2-1,0.5-1.9,0.8-2.9c0.3-0.9,0.7-1.8,1.1-2.7c0.9-1.7,2-3.3,3.2-4.7
								c1.3-1.4,2.7-2.6,4.3-3.5c3.1-1.9,6.8-2.5,10.2-2.1c1.7,0.2,3.3,0.7,4.8,1.4l0.5,0.3l0.5,0.3c0.2,0.1,0.3,0.2,0.5,0.3
								l0.5,0.4c0.3,0.2,0.6,0.5,0.9,0.7l0.2,0.2l0.1,0.1l0.1,0.1l0.4,0.4c2.1,2.3,3.2,5.2,3.3,7.9c0.2,2.7-0.5,5.3-1.9,7.3
								c-0.2,0.2-0.3,0.5-0.5,0.7c-0.2,0.2-0.4,0.4-0.6,0.6c-0.2,0.2-0.4,0.4-0.6,0.6c-0.2,0.2-0.4,0.4-0.6,0.5
								c-0.9,0.6-1.8,1-2.8,1.4c-1.9,0.6-3.6,0.6-5.1,0.4c-1.5-0.2-2.7-0.7-3.6-1.3c-0.4-0.3-0.8-0.5-1.1-0.8
								c-0.3-0.3-0.6-0.5-0.7-0.7C107.3,57.6,107.2,57.4,107.2,57.4z"/>
							<path d="M124.1,66.5c0,0,0.2-0.1,0.7-0.3c0.4-0.2,1.1-0.4,1.9-0.9c0.4-0.2,0.8-0.4,1.3-0.7c0.5-0.3,1-0.5,1.5-0.8
								c0.5-0.3,1.1-0.7,1.6-1c0.6-0.4,1.1-0.8,1.8-1.2c1.2-0.9,2.4-2,3.6-3.2c1.2-1.2,2.4-2.6,3.5-4c1.1-1.5,2.1-3.1,3.1-4.8
								c0.9-1.7,1.7-3.6,2.2-5.4c0.6-2,1-3.8,1.3-5.8c0.2-1.9,0.3-3.8,0.3-5.7c-0.1-1.9-0.2-3.6-0.6-5.3c-0.3-1.7-0.7-3.2-1.1-4.7
								c-0.2-0.7-0.5-1.4-0.7-2c-0.3-0.6-0.5-1.2-0.7-1.8c-0.3-0.6-0.5-1.1-0.7-1.5c-0.2-0.5-0.5-0.9-0.7-1.3
								c-0.4-0.8-0.8-1.4-1-1.8c-0.2-0.4-0.4-0.6-0.4-0.6s0.2,0.2,0.5,0.6c0.3,0.4,0.8,0.9,1.2,1.6c0.2,0.4,0.5,0.8,0.8,1.2
								c0.3,0.5,0.6,1,0.9,1.5c0.3,0.6,0.6,1.1,0.9,1.8c0.3,0.6,0.6,1.3,0.9,2c0.3,0.7,0.6,1.5,0.8,2.3c0.2,0.8,0.5,1.6,0.7,2.5
								c0.4,1.7,0.7,3.6,0.8,5.5c0.1,1.9,0.1,3.9-0.1,6c-0.3,2-0.7,4.1-1.3,6c-0.7,2-1.5,3.9-2.4,5.7c-1,1.8-2.1,3.5-3.3,5
								c-1.2,1.5-2.5,2.9-3.8,4c-0.6,0.6-1.3,1.1-2,1.7c-0.7,0.5-1.3,0.9-2,1.4c-0.7,0.4-1.3,0.8-1.9,1.1c-0.6,0.3-1.2,0.6-1.8,0.9
								c-0.6,0.3-1.1,0.5-1.6,0.7c-0.5,0.2-1,0.4-1.4,0.5c-0.8,0.3-1.5,0.5-2,0.6C124.3,66.5,124.1,66.5,124.1,66.5z"/>
							<path d="M146,44.6c0,0,0.1-0.4,0.3-1c0.2-0.7,0.6-1.7,1.1-2.9c0.5-1.2,1.2-2.7,2.1-4.4c0.9-1.6,2.1-3.4,3.6-5.2
								c1.5-1.7,3.5-3.5,5.8-4.8c2.3-1.4,5-2.4,8-2.7c2.9-0.3,6.1,0.2,9,1.7c1.4,0.7,2.7,1.7,3.9,2.8c0.5,0.6,1.1,1.2,1.5,1.9
								l0.3,0.5l0.3,0.6c0.2,0.4,0.3,0.8,0.5,1.1c0.6,1.5,0.8,3.2,0.8,4.8c0,1.6-0.3,3.2-1,4.7c-0.7,1.5-1.7,2.8-2.9,3.8
								c-1.3,1-2.7,1.6-4.3,2c-1.5,0.3-3.1,0.3-4.5-0.1c-1.4-0.4-2.8-1.2-3.7-2.2c-2-2.1-2.6-4.9-2.1-7.3c0.2-1.2,0.7-2.3,1.5-3.2
								c0.2-0.2,0.4-0.4,0.6-0.5c0.2-0.2,0.4-0.3,0.7-0.5c0.2-0.1,0.5-0.3,0.7-0.4c0.2-0.1,0.5-0.2,0.7-0.3c0.9-0.3,1.8-0.4,2.7-0.4
								c0.8,0,1.6,0.2,2.2,0.4c1.3,0.5,2.1,1.2,2.6,1.8c0.2,0.3,0.4,0.5,0.5,0.7c0.1,0.2,0.1,0.2,0.1,0.2s-0.1-0.1-0.2-0.2
								c-0.1-0.1-0.3-0.4-0.5-0.6c-0.5-0.5-1.3-1.2-2.6-1.5c-1.2-0.4-2.9-0.4-4.6,0.3c-0.2,0.1-0.4,0.2-0.6,0.3
								c-0.2,0.1-0.4,0.3-0.6,0.4c-0.2,0.1-0.3,0.3-0.5,0.4c-0.2,0.2-0.3,0.4-0.5,0.6c-0.6,0.7-1,1.7-1.1,2.8
								c-0.3,2.1,0.4,4.6,2.1,6.3c1.7,1.7,4.5,2.3,7,1.7c0.6-0.2,1.3-0.4,1.9-0.7c0.6-0.3,1.2-0.7,1.7-1.1c1.1-0.9,1.9-2,2.4-3.3
								c0.6-1.3,0.8-2.7,0.8-4.1c0-1.4-0.2-2.8-0.7-4.2c-0.1-0.3-0.3-0.7-0.4-1l-0.2-0.5l-0.3-0.5c-0.4-0.6-0.8-1.1-1.3-1.7
								c-1-1-2.1-1.9-3.4-2.5c-2.5-1.3-5.4-1.9-8.1-1.7c-2.7,0.2-5.3,1.1-7.5,2.3c-2.2,1.2-4.1,2.8-5.7,4.4
								c-1.6,1.6-2.8,3.3-3.8,4.8c-1,1.5-1.8,3-2.4,4.2c-0.6,1.2-1,2.1-1.3,2.8C146.2,44.3,146,44.6,146,44.6z"/>
							<path d="M129.5,67.5c0,0,0.5-0.3,1.4-0.7c0.5-0.2,1-0.5,1.6-0.9c0.3-0.2,0.6-0.3,1-0.5c0.3-0.2,0.7-0.4,1-0.6
								c0.4-0.2,0.7-0.4,1.1-0.7c0.4-0.3,0.8-0.5,1.2-0.8c0.4-0.3,0.8-0.6,1.2-0.9c0.4-0.3,0.8-0.6,1.2-0.9c0.8-0.7,1.7-1.4,2.5-2.1
								c0.8-0.7,1.6-1.6,2.4-2.4c0.8-0.8,1.5-1.7,2.2-2.5c0.7-0.9,1.4-1.7,2-2.6c0.3-0.4,0.6-0.9,0.9-1.3c0.3-0.4,0.6-0.8,0.8-1.3
								c0.3-0.4,0.5-0.8,0.7-1.2c0.2-0.4,0.4-0.8,0.6-1.2c0.2-0.4,0.4-0.7,0.6-1.1c0.2-0.4,0.3-0.7,0.5-1c0.3-0.6,0.6-1.2,0.8-1.6
								c0.4-0.9,0.6-1.5,0.6-1.5s-0.1,0.6-0.3,1.6c-0.1,0.2-0.1,0.5-0.2,0.8c-0.1,0.3-0.2,0.6-0.3,1c-0.1,0.3-0.2,0.7-0.3,1.1
								c-0.1,0.4-0.3,0.8-0.5,1.2c-0.2,0.4-0.3,0.8-0.5,1.3c-0.2,0.4-0.4,0.9-0.6,1.3c-0.2,0.5-0.5,0.9-0.7,1.4
								c-0.3,0.5-0.5,0.9-0.8,1.4c-0.6,0.9-1.2,1.9-2,2.8c-0.7,0.9-1.5,1.8-2.3,2.7c-0.8,0.8-1.7,1.7-2.6,2.4
								c-0.9,0.8-1.8,1.4-2.7,2.1c-0.5,0.3-0.9,0.6-1.4,0.9c-0.4,0.3-0.9,0.6-1.3,0.8c-0.4,0.2-0.9,0.5-1.3,0.7
								c-0.4,0.2-0.8,0.4-1.2,0.6c-0.4,0.2-0.8,0.4-1.1,0.5c-0.4,0.1-0.7,0.3-1.1,0.4c-0.3,0.1-0.6,0.2-0.9,0.3
								c-0.3,0.1-0.6,0.2-0.8,0.2C130.1,67.4,129.5,67.5,129.5,67.5z"/>
							<path d="M137.2,80.3c0,0,1.5-1.4,3.9-3.3c0.6-0.5,1.2-1,1.9-1.5c0.7-0.5,1.4-1.1,2.2-1.6c0.8-0.6,1.5-1.1,2.3-1.7
								c0.8-0.6,1.6-1.1,2.4-1.7c0.8-0.6,1.7-1.1,2.5-1.7c0.8-0.6,1.6-1.1,2.4-1.6c1.6-1,3.1-1.9,4.4-2.7c2.6-1.5,4.4-2.5,4.4-2.5
								s-1.5,1.4-3.9,3.3c-1.2,0.9-2.6,2-4.1,3.1c-0.8,0.6-1.5,1.1-2.3,1.7c-0.8,0.6-1.6,1.1-2.4,1.7c-0.8,0.6-1.7,1.1-2.5,1.7
								c-0.8,0.6-1.6,1.1-2.4,1.6c-0.8,0.5-1.6,1-2.3,1.4c-0.7,0.5-1.4,0.9-2.1,1.3C139,79.4,137.2,80.3,137.2,80.3z"/>
							<path d="M57.5,67.2c0,0-0.1-0.2-0.2-0.5c-0.1-0.3-0.4-0.7-0.6-1.3c-0.1-0.3-0.3-0.6-0.4-1c-0.1-0.4-0.3-0.7-0.4-1.2
								c-0.1-0.4-0.2-0.9-0.4-1.3c-0.1-0.5-0.2-1-0.3-1.5c-0.2-1.1-0.3-2.2-0.3-3.5c0-1.2,0.1-2.6,0.3-3.9c0.2-1.3,0.6-2.7,1.1-4.1
								c0.5-1.4,1.1-2.7,1.9-4c0.8-1.2,1.7-2.4,2.6-3.5c1-1.1,2-2,3.1-2.8c1.1-0.8,2.2-1.5,3.3-2.1c0.5-0.3,1.1-0.5,1.6-0.8
								c0.5-0.2,1.1-0.4,1.6-0.6c0.5-0.2,1-0.3,1.5-0.4c0.5-0.1,0.9-0.2,1.4-0.3c0.4-0.1,0.8-0.1,1.2-0.2c0.4,0,0.7-0.1,1-0.1
								c0.6-0.1,1.1,0,1.4-0.1c0.3,0,0.5,0,0.5,0s-0.2,0-0.5,0.1c-0.3,0.1-0.8,0.1-1.4,0.3c-0.3,0.1-0.6,0.1-1,0.2
								c-0.4,0.1-0.7,0.2-1.1,0.3c-0.4,0.1-0.8,0.3-1.3,0.5c-0.4,0.2-0.9,0.4-1.4,0.6c-0.9,0.4-1.9,0.9-3,1.6c-1,0.6-2,1.4-3,2.2
								c-1,0.8-1.9,1.8-2.8,2.8c-0.9,1-1.7,2.1-2.4,3.3c-0.7,1.2-1.3,2.4-1.8,3.6c-0.5,1.3-0.9,2.5-1.1,3.8
								c-0.2,1.3-0.4,2.5-0.5,3.7c-0.1,1.2-0.1,2.3,0,3.3c0,0.5,0.1,1,0.1,1.5c0.1,0.5,0.1,0.9,0.2,1.3c0.1,0.4,0.2,0.8,0.2,1.2
								c0.1,0.4,0.2,0.7,0.2,1c0.1,0.6,0.3,1.1,0.4,1.4C57.4,67,57.5,67.2,57.5,67.2z"/>
						</g>
					</g>
					<g>
						<path d="M202.3,46.5c1.7-4.6,6.5-5.7,10.3-7.7c0.4-0.2,0.4-0.7,0-0.9c-2.5-1.2-5.2-0.1-7.2,1.6c-2.2,1.8-3,4.2-3.5,6.9
							C201.9,46.6,202.2,46.7,202.3,46.5L202.3,46.5z"/>
					</g>
					<g>
						<path d="M200.5,44.7c-0.6-2.2-0.2-4.3,1.1-6.1c1-1.5,2.7-2.3,3.7-3.7c0.2-0.3,0-0.7-0.3-0.8c-2.3-0.5-4.2,2-4.9,3.9
							C199.2,40.1,199.4,42.7,200.5,44.7C200.5,44.7,200.5,44.7,200.5,44.7L200.5,44.7z"/>
					</g>
					<g>
						<path d="M196.9,42c-2.3-4.9,1.5-8.1,5.3-10.6c0.3-0.2,0.2-0.7-0.1-0.8c-2.8-0.8-5.5,0.8-6.6,3.5c-1.1,2.7-0.5,5.7,1.3,8
							C196.8,42.2,196.9,42.1,196.9,42L196.9,42z"/>
					</g>
					<g>
						<path d="M127.8,55.7c3.4-3.4,8-13.7,2.4-16.9c-0.3-0.2-0.6,0.1-0.7,0.4c-0.5,2.6,0.7,4.6,1.1,7.1
							C131,49.8,129.7,52.9,127.8,55.7C127.7,55.7,127.8,55.8,127.8,55.7L127.8,55.7z"/>
					</g>
					<g>
						<path d="M133.2,53.4c2.2-3.2,3.6-7.1,3.9-11.1c0.2-2.6,0.2-8.6-3-9.4c-0.3-0.1-0.6,0-0.7,0.3c-0.4,1.1-0.1,1.9,0.3,3
							c0.7,1.9,1.3,3.7,1.5,5.7c0.6,4.1-0.2,7.8-2.2,11.4C133,53.4,133.1,53.5,133.2,53.4L133.2,53.4z"/>
					</g>
					<g>
						<path d="M139.9,46c1.3-4.1,1.6-8.3,1.4-12.5c-0.2-2.7-0.4-9.2-4.2-9.4c-0.3,0-0.5,0.1-0.6,0.4c-1.3,2.7,1.9,6.2,2.8,8.6
							c1.5,4.2,1.4,8.6,0.5,12.9C139.7,46.1,139.9,46.1,139.9,46L139.9,46z"/>
					</g>
					<g>
						<path d="M164.9,19.4c-2.7-1.9-4.5-3.7-6.2-6.5c-1.4-2.3-2.4-5-4.3-7c-0.2-0.2-0.6-0.2-0.7,0.2c-1.2,6.2,6.2,11.5,11.1,13.5
							C164.9,19.7,165,19.5,164.9,19.4L164.9,19.4z"/>
					</g>
					<g>
						<path d="M158.4,18.6c-2.5-1.9-4.7-4-6-6.9c-1.1-2.4-1.4-5-2.2-7.5c-0.1-0.4-0.7-0.3-0.8,0c-2.6,5.9,3.4,13.1,8.9,14.6
							C158.4,18.9,158.6,18.7,158.4,18.6L158.4,18.6z"/>
					</g>
					<g>
						<path d="M149.9,15.9c-2-2.5-3.7-5-4.1-8.3c-0.3-2.4,0.3-4.9-0.4-7.2c-0.1-0.5-0.7-0.4-1-0.1c-4.1,4.4,1.3,13.3,5.3,15.9
							C149.9,16.2,150,16,149.9,15.9L149.9,15.9z"/>
					</g>
				</g>
				<g>
					<g>
						<path d="M211.7,202.3c0,0-0.1-0.1-0.2-0.2c-0.1-0.1-0.2-0.3-0.4-0.6c-0.3-0.6-0.5-1.6-0.2-2.8c0.2-0.6,0.4-1.3,0.9-1.9
							c0.5-0.6,1.2-1.1,2.1-1.4c1.8-0.6,4.1,0,5.8,1.7c0.8,0.8,1.4,2,1.7,3.3c0.3,1.3,0.3,2.7-0.1,4.1c-0.3,1.4-1,2.7-1.8,4
							c-0.9,1.3-2,2.4-3.2,3.5c-0.6,0.6-1.3,1.1-1.9,1.6c-0.7,0.5-1.4,1-2.1,1.5c-1.4,1-2.9,1.9-4.6,2.7c-3.2,1.7-6.8,3-10.7,4
							c-3.8,1-8,1.7-12.2,2.1c-4.3,0.4-8.7,0.6-13.2,0.7c-4.5,0.1-9.2,0.1-13.9,0.3c-1.2,0-2.4,0.1-3.6,0.2
							c-1.2,0.1-2.4,0.1-3.6,0.3c-1.2,0.1-2.4,0.2-3.6,0.3c-1.2,0.1-2.4,0.3-3.6,0.4c-4.9,0.6-9.8,1.5-14.7,2.7
							c-4.9,1.2-9.9,2.6-14.7,4.3c-1.2,0.4-2.4,0.8-3.6,1.3c-1.2,0.4-2.4,0.9-3.6,1.4c-2.4,1-4.8,2-7.1,3.2
							c-2.3,1.2-4.5,2.5-6.5,4.1c-2,1.6-3.9,3.4-5.3,5.5l-0.5,0.8l-0.1,0.1c0,0,0,0.1,0,0.1l-0.1,0.2l-0.2,0.4
							c-0.3,0.6-0.7,1.1-0.9,1.7c-0.5,1.1-1,2.3-1.3,3.5c-0.6,2.5-0.9,5-0.7,7.6c0.3,5.1,2.2,10,5.3,14c0.7,1,1.6,1.9,2.5,2.8
							c0.5,0.4,1,0.9,1.4,1.3l1.5,1.1c2.1,1.4,4.3,2.5,6.6,3.4c4.7,1.6,9.7,2.2,14.5,1.6c2.4-0.3,4.7-0.9,7-1.6
							c2.3-0.8,4.3-1.9,6.3-3.1c3.9-2.5,7.1-6,8.8-10.1c0.8-2,1.3-4.2,1.5-6.3c0.1-2.1,0-4.3-0.5-6.3c-1-4-3.1-7.6-6-10.2
							c-2.9-2.6-6.4-4.2-9.8-4.9c-0.4-0.1-0.9-0.1-1.3-0.2c-0.4,0-0.9-0.1-1.3-0.1c-0.4,0-0.8,0-1.3,0c-0.4,0-0.9,0-1.3,0.1
							c-1.6,0.1-3.3,0.5-4.8,1c-3,1-5.5,2.7-7.3,4.8c-1.8,2.1-2.9,4.4-3.3,6.7c-0.1,0.6-0.2,1.1-0.2,1.6c0,0.5-0.1,1.1,0,1.6
							c0,0.3,0,0.5,0,0.8c0,0.2,0.1,0.5,0.1,0.7c0,0.5,0.2,0.9,0.2,1.4c0.4,1.7,1,3.1,1.7,4.2c0.1,0.3,0.3,0.5,0.5,0.7
							c0.2,0.2,0.3,0.4,0.5,0.6c0.3,0.3,0.6,0.7,0.8,0.9c0.5,0.4,0.7,0.6,0.7,0.6s-0.2-0.2-0.7-0.6c-0.2-0.2-0.5-0.5-0.8-0.8
							c-0.2-0.2-0.3-0.4-0.5-0.6c-0.2-0.2-0.4-0.4-0.5-0.7c-0.7-1-1.4-2.4-1.8-4.2c-0.1-0.4-0.2-0.9-0.3-1.4c0-0.2-0.1-0.5-0.1-0.7
							c0-0.3,0-0.5,0-0.8c0-0.5,0-1.1,0-1.6c0.1-0.5,0.1-1.1,0.2-1.7c0.4-2.3,1.5-4.8,3.3-6.9c1.8-2.1,4.4-4,7.5-5.1
							c1.5-0.6,3.2-0.9,4.9-1.1c0.4,0,0.9,0,1.3-0.1c0.5,0,0.9,0,1.3,0c0.4,0,0.9,0.1,1.3,0.1c0.4,0.1,0.9,0.1,1.4,0.2
							c3.6,0.7,7.2,2.3,10.3,5c3.1,2.6,5.4,6.4,6.5,10.6c0.5,2.1,0.7,4.4,0.6,6.6c-0.2,2.3-0.6,4.5-1.5,6.7c-0.9,2.1-2.1,4.2-3.7,6
							c-1.6,1.8-3.4,3.4-5.4,4.8c-1,0.7-2.1,1.3-3.2,1.8c-0.6,0.3-1.1,0.5-1.7,0.8l-0.9,0.4l-0.9,0.3c-2.3,0.8-4.8,1.4-7.3,1.7
							c-5,0.6-10.3,0.1-15.2-1.6c-2.5-0.9-4.8-2-7-3.5l-1.6-1.2c-0.5-0.4-1-0.9-1.5-1.3c-1-0.9-1.9-1.9-2.7-3
							c-3.3-4.2-5.3-9.5-5.7-14.9c-0.2-2.7,0-5.4,0.7-8.1c0.4-1.3,0.8-2.6,1.4-3.9c0.3-0.7,0.6-1.2,0.9-1.8l0.2-0.4l0.1-0.2l0.1-0.1
							l0.1-0.1l0.6-0.8c1.6-2.2,3.6-4.1,5.7-5.8c2.1-1.6,4.4-3,6.8-4.2c2.4-1.2,4.8-2.3,7.2-3.2c1.2-0.5,2.4-1,3.7-1.4
							c1.2-0.5,2.5-0.9,3.7-1.3c4.9-1.7,9.9-3.1,14.9-4.2c5-1.2,10-2,14.9-2.7c1.2-0.2,2.5-0.3,3.7-0.4c1.2-0.1,2.4-0.2,3.7-0.3
							c1.2-0.1,2.4-0.2,3.6-0.2c1.2-0.1,2.4-0.1,3.6-0.1c4.8-0.1,9.4-0.1,14-0.2c4.5,0,8.9-0.2,13.1-0.5c4.2-0.4,8.3-1,12.1-2
							c3.8-0.9,7.4-2.2,10.6-3.8c1.6-0.8,3.1-1.7,4.5-2.6c0.7-0.5,1.4-0.9,2-1.4c0.7-0.5,1.3-1,1.9-1.5c2.4-2.1,4.3-4.5,5-7.1
							c0.7-2.6,0.1-5.4-1.4-7c-1.5-1.6-3.8-2.2-5.5-1.7c-0.9,0.2-1.5,0.7-2,1.3c-0.5,0.6-0.8,1.2-0.9,1.8c-0.3,1.2-0.1,2.2,0.1,2.7
							c0.1,0.3,0.3,0.5,0.4,0.6C211.6,202.2,211.7,202.3,211.7,202.3z"/>
						<path d="M134.3,277.9c0,0,0.3-0.4,0.9-1.1c0.6-0.7,1.5-1.7,2.7-2.8c1.3-1.1,2.9-2.3,5-3.4c2.1-1.1,4.6-2.1,7.5-2.7
							c2.9-0.6,6.1-0.8,9.4-0.3c3.3,0.5,6.8,1.8,9.8,4.1c3,2.3,5.3,5.7,6,9.7c0.2,1,0.2,2,0.2,3l0,0.4c0,0.2,0,0.3,0,0.4
							c0,0.2-0.1,0.5-0.1,0.7c-0.1,0.5-0.2,1-0.4,1.5c-0.6,1.9-1.6,3.8-2.8,5.3c-2.5,3.1-6.1,5.4-9.9,6.4c-1.9,0.5-3.9,0.6-5.9,0.4
							l-0.2,0c0,0,0,0-0.1,0l-0.1,0l-0.3-0.1c-0.2,0-0.4-0.1-0.7-0.1l-0.7-0.2l-0.7-0.2c-0.9-0.3-1.8-0.7-2.6-1.2
							c-0.8-0.5-1.6-1-2.3-1.6c-0.4-0.3-0.7-0.6-1-1c-0.3-0.3-0.6-0.7-0.9-1.1c-1.1-1.4-1.9-3.1-2.3-4.8c-0.8-3.5,0.1-6.8,1.8-9.3
							c0.8-1.2,1.9-2.3,3.1-3c1.1-0.7,2.4-1.2,3.6-1.3c2.4-0.4,4.5,0.2,6,0.9c1.5,0.7,2.5,1.7,3.1,2.4c0.3,0.3,0.5,0.6,0.6,0.8
							c0.1,0.2,0.2,0.3,0.2,0.3s-0.1-0.1-0.2-0.3c-0.1-0.2-0.3-0.5-0.6-0.8c-0.6-0.7-1.6-1.5-3.1-2.2c-1.5-0.6-3.6-1-5.8-0.6
							c-1.1,0.2-2.2,0.7-3.3,1.4c-1,0.7-2,1.7-2.7,2.8c-0.7,1.2-1.2,2.5-1.5,4c-0.3,1.4-0.2,3,0.1,4.5c0.8,3.1,3,5.8,6,7.4
							c0.7,0.4,1.5,0.8,2.4,1l0.6,0.2l0.6,0.1c0.2,0.1,0.4,0.1,0.7,0.1l0.3,0.1l0.1,0c0,0,0,0,0.1,0l0.2,0c1.7,0.2,3.5,0.1,5.3-0.4
							c3.5-0.9,6.7-3,9-5.8c1.1-1.4,2-3,2.6-4.7c0.1-0.4,0.2-0.9,0.3-1.3c0-0.2,0.1-0.4,0.1-0.7c0-0.1,0-0.3,0-0.3l0-0.3
							c0.1-0.9,0-1.8-0.1-2.6c-0.3-1.7-1-3.4-1.9-4.9c-0.5-0.7-1-1.5-1.6-2.1c-0.6-0.7-1.2-1.2-1.9-1.8c-2.7-2.1-5.9-3.4-9.1-4
							c-3.2-0.6-6.3-0.5-9,0c-2.8,0.5-5.3,1.3-7.4,2.3c-2.1,1-3.8,2.1-5.1,3.1c-1.3,1.1-2.3,1.9-2.9,2.6
							C134.6,277.6,134.3,277.9,134.3,277.9z"/>
						<path d="M142.6,266.6c0,0,0.1-0.3,0.2-0.8c0.1-0.3,0.2-0.6,0.3-1c0.1-0.2,0.1-0.4,0.2-0.6c0.1-0.2,0.2-0.4,0.3-0.7
							c0.8-1.9,2.3-4.4,4.9-6.8c1.3-1.2,2.8-2.4,4.5-3.4c0.9-0.5,1.8-1,2.7-1.5c0.9-0.4,1.9-0.9,2.9-1.3c2-0.8,4.2-1.5,6.4-2.1
							c2.2-0.6,4.4-1.2,6.6-1.7c2.2-0.5,4.4-1.1,6.5-1.8c2.1-0.7,4.2-1.4,6.1-2.3c1.9-0.9,3.7-1.9,5.3-3c0.4-0.3,0.8-0.6,1.1-0.9
							c0.4-0.3,0.7-0.6,1.1-0.9c0.7-0.6,1.3-1.2,1.8-1.8c1.1-1.3,1.8-2.6,2.1-3.9c0.3-1.3,0.1-2.5-0.2-3.4c-0.3-0.9-0.8-1.6-1.2-1.9
							c-0.2-0.2-0.4-0.3-0.5-0.4c-0.1-0.1-0.2-0.1-0.2-0.1s0.1,0,0.2,0.1c0.1,0.1,0.3,0.2,0.5,0.3c0.4,0.3,1,0.9,1.4,1.9
							c0.4,0.9,0.7,2.2,0.5,3.7c-0.2,1.5-0.9,3-2,4.4c-1.1,1.4-2.4,2.8-4,4c-1.6,1.3-3.4,2.4-5.4,3.3c-2,1-4.1,1.8-6.2,2.5
							c-2.2,0.7-4.4,1.3-6.6,1.9c-2.2,0.6-4.5,1.1-6.6,1.7c-2.2,0.6-4.3,1.2-6.3,1.9c-1,0.4-1.9,0.8-2.9,1.2
							c-0.9,0.4-1.8,0.8-2.7,1.3c-1.7,0.9-3.2,2-4.5,3c-1.3,1.1-2.4,2.2-3.3,3.3c-0.9,1.1-1.5,2.1-2,3c-0.1,0.2-0.2,0.4-0.3,0.6
							c-0.1,0.2-0.2,0.4-0.3,0.6c-0.2,0.3-0.3,0.7-0.4,0.9C142.7,266.3,142.6,266.6,142.6,266.6z"/>
						<path d="M143.1,266c0,0,0-0.1,0.1-0.4c0.1-0.2,0.2-0.6,0.3-1.1c0.3-0.9,1-2.2,2.2-3.6c1.2-1.4,2.9-2.9,5.2-4
							c2.3-1.2,5.1-2,8.4-2.1c0.4,0,0.8,0,1.2,0c0.4,0,0.8,0,1.2,0c0.8,0.1,1.7,0.1,2.5,0.2c1.7,0.2,3.4,0.6,5.2,1.1
							c3.5,1,7,2.4,10.6,3.8c3.6,1.4,7.4,2.7,11.3,3.5c2,0.4,4,0.6,6,0.5c0.5,0,1,0,1.5-0.1c0.2,0,0.5,0,0.7-0.1l0.8-0.1l0.4-0.1
							l0.4-0.1l0.7-0.2c0.5-0.1,0.9-0.3,1.4-0.5c1.9-0.7,3.6-1.7,5.1-2.9c1.5-1.2,2.7-2.8,3.5-4.5c0.2-0.4,0.3-0.9,0.5-1.3
							c0.1-0.4,0.2-0.9,0.3-1.4l0.1-0.7l0-0.3l0-0.1c0,0.1,0,0,0,0l0,0l0-0.2l0-0.8c0-0.2-0.1-0.4-0.1-0.7c0-0.4-0.2-0.9-0.3-1.3
							l-0.2-0.7c-0.1-0.2-0.1-0.4-0.2-0.6l-0.3-0.6l-0.3-0.6c-0.2-0.4-0.5-0.8-0.8-1.2c-1.1-1.5-2.5-2.6-4.1-3.4
							c-1.6-0.8-3.3-1.1-5-1c-1.6,0.1-3.3,0.7-4.6,1.5c-1.4,0.8-2.5,1.9-3.4,3.1c-0.9,1.2-1.4,2.6-1.7,3.9c-0.3,1.4-0.2,2.6,0.1,3.9
							c0.5,2.4,1.8,4.3,3.1,5.5c1.3,1.2,2.6,1.9,3.5,2.3c0.4,0.2,0.8,0.3,1.1,0.3c0.2,0.1,0.4,0.1,0.4,0.1s-0.1,0-0.4-0.1
							c-0.2-0.1-0.6-0.1-1.1-0.3c-0.9-0.3-2.3-0.9-3.7-2.1c-1.4-1.2-2.8-3.1-3.5-5.6c-0.3-1.2-0.5-2.7-0.3-4.1
							c0.2-1.5,0.8-3,1.7-4.3c0.9-1.4,2.1-2.6,3.6-3.5c1.5-1,3.2-1.6,5.1-1.8c1.8-0.2,3.9,0.2,5.7,1c1.8,0.8,3.4,2.2,4.7,3.8
							c0.3,0.4,0.6,0.8,0.9,1.3l0.4,0.7l0.3,0.7c0.1,0.2,0.2,0.5,0.3,0.7c0.1,0.3,0.2,0.5,0.3,0.8c0.1,0.5,0.3,1,0.3,1.6
							c0,0.3,0.1,0.6,0.1,0.8l0,0.8l0,0.2l0,0.1l0,0.1l0,0.4l-0.1,0.8c-0.1,0.5-0.2,1.1-0.4,1.6c-0.2,0.5-0.3,1-0.6,1.5
							c-0.9,2-2.3,3.7-4,5.1c-1.7,1.4-3.6,2.5-5.6,3.3c-0.5,0.2-1,0.3-1.6,0.5l-0.8,0.2l-0.4,0.1l-0.4,0.1l-0.8,0.1
							c-0.3,0.1-0.5,0.1-0.8,0.1c-0.5,0.1-1.1,0.1-1.6,0.1c-2.1,0.1-4.3-0.2-6.3-0.5c-4.1-0.8-7.9-2.2-11.6-3.7
							c-3.6-1.4-7.1-2.9-10.5-3.9c-3.4-1-6.7-1.6-9.7-1.6c-1.5,0-3,0.2-4.3,0.5c-1.4,0.3-2.6,0.7-3.8,1.2c-2.3,1-4,2.4-5.3,3.7
							c-1.2,1.3-1.9,2.6-2.3,3.5c-0.2,0.4-0.3,0.8-0.4,1C143.1,265.9,143.1,266,143.1,266z"/>
						<path d="M186,267.7c0,0,0.5,0.1,1.3,0.3c0.2,0.1,0.4,0.1,0.7,0.2c0.2,0.1,0.5,0.1,0.8,0.2c0.3,0.1,0.6,0.1,0.9,0.2
							c0.3,0.1,0.6,0.1,1,0.2c0.3,0.1,0.7,0.1,1.1,0.2c0.4,0,0.8,0.1,1.2,0.1c0.4,0.1,0.8,0.1,1.2,0.1c0.4,0,0.8,0.1,1.3,0.1
							c0.9,0,1.8,0,2.7-0.1c0.9,0,1.8-0.2,2.7-0.3c0.9-0.2,1.8-0.3,2.7-0.5c0.9-0.2,1.7-0.5,2.6-0.7c0.4-0.1,0.8-0.3,1.2-0.4
							c0.4-0.1,0.8-0.3,1.1-0.4c0.4-0.2,0.7-0.3,1.1-0.5c0.3-0.1,0.7-0.3,1-0.5c0.3-0.2,0.6-0.3,0.9-0.4c0.3-0.2,0.5-0.3,0.8-0.4
							c0.5-0.3,0.9-0.5,1.3-0.8c0.7-0.4,1.1-0.7,1.1-0.7s-0.3,0.4-0.9,1c-0.2,0.1-0.3,0.3-0.5,0.5c-0.2,0.2-0.4,0.3-0.6,0.5
							c-0.2,0.2-0.5,0.4-0.7,0.6c-0.3,0.2-0.6,0.4-0.9,0.6c-0.3,0.2-0.6,0.4-0.9,0.6c-0.3,0.2-0.7,0.4-1.1,0.6
							c-0.4,0.2-0.8,0.4-1.2,0.6c-0.4,0.2-0.8,0.4-1.2,0.5c-0.9,0.3-1.7,0.7-2.7,0.9c-0.9,0.3-1.9,0.4-2.9,0.6
							c-1,0.1-1.9,0.2-2.9,0.2c-1,0.1-1.9,0-2.8-0.1c-0.5,0-0.9-0.1-1.3-0.2c-0.4-0.1-0.9-0.1-1.3-0.2c-0.4-0.1-0.8-0.2-1.2-0.3
							c-0.4-0.1-0.7-0.2-1.1-0.3c-0.3-0.1-0.7-0.2-1-0.3c-0.3-0.1-0.6-0.3-0.9-0.4c-0.3-0.1-0.5-0.2-0.8-0.3
							c-0.2-0.1-0.4-0.2-0.6-0.3C186.4,268,186,267.7,186,267.7z"/>
						<path d="M84.2,243.5c0,0-0.1,0.2-0.4,0.5c-0.2,0.3-0.6,0.8-1,1.5c-0.2,0.3-0.4,0.7-0.7,1.1c-0.2,0.4-0.5,0.8-0.7,1.3
							c-0.2,0.5-0.5,1-0.7,1.5c-0.2,0.6-0.5,1.1-0.7,1.7c-0.5,1.2-0.9,2.6-1.3,4c-0.4,1.4-0.7,3-0.9,4.6c-0.2,1.6-0.2,3.3-0.2,5
							c0.1,1.7,0.3,3.4,0.6,5.1c0.4,1.7,0.8,3.4,1.4,5c0.6,1.6,1.3,3.1,2.1,4.5c0.8,1.4,1.6,2.8,2.6,3.9c0.9,1.2,1.8,2.3,2.7,3.2
							c0.5,0.5,0.9,0.9,1.3,1.3c0.4,0.4,0.9,0.8,1.3,1.1c0.4,0.3,0.8,0.7,1.2,0.9c0.4,0.3,0.7,0.5,1,0.8c0.6,0.5,1.1,0.8,1.5,1
							c0.3,0.2,0.5,0.4,0.5,0.4s-0.2-0.1-0.6-0.3c-0.4-0.2-1-0.4-1.6-0.8c-0.3-0.2-0.7-0.4-1.1-0.6c-0.4-0.3-0.8-0.5-1.3-0.8
							c-0.4-0.3-0.9-0.7-1.4-1c-0.5-0.4-1-0.8-1.5-1.2c-0.5-0.5-1-0.9-1.5-1.5c-0.5-0.5-1-1.1-1.5-1.7c-1-1.2-2-2.5-2.9-4
							c-0.9-1.5-1.7-3-2.3-4.7c-0.6-1.7-1.2-3.5-1.5-5.2c-0.3-1.8-0.5-3.6-0.5-5.4c0-1.8,0.1-3.6,0.4-5.2c0.3-1.7,0.7-3.3,1.2-4.8
							c0.2-0.7,0.5-1.4,0.8-2.1c0.3-0.7,0.6-1.3,0.9-1.9c0.3-0.6,0.6-1.2,0.9-1.7c0.3-0.5,0.6-1,0.9-1.5c0.3-0.4,0.6-0.9,0.9-1.3
							c0.3-0.4,0.6-0.7,0.8-1c0.5-0.6,0.9-1,1.2-1.4C84,243.6,84.2,243.5,84.2,243.5z"/>
						<path d="M77.4,273.1c0,0,0.1,0.3,0.2,1c0.1,0.7,0.3,1.6,0.5,2.8c0.2,1.2,0.4,2.7,0.5,4.5c0.1,1.7,0.1,3.7-0.2,5.9
							c-0.4,2.1-1.1,4.5-2.5,6.6c-1.4,2.1-3.4,4.1-6.2,5c-0.6,0.2-1.4,0.4-2.1,0.5c-0.4,0-0.7,0.1-1.1,0.1c-0.4,0-0.7,0-1.1,0
							c-1.5-0.1-2.9-0.5-4.3-1c-2.7-1.1-5.1-3.2-6.8-5.6c-1.7-2.5-2.5-5.5-2.5-8.5c0-1.5,0.3-3,0.8-4.3c0.1-0.2,0.1-0.3,0.2-0.5
							l0.2-0.5c0.2-0.3,0.3-0.7,0.5-1c0.4-0.6,0.8-1.2,1.3-1.7c1-1,2.1-1.9,3.4-2.5c1.2-0.6,2.6-0.9,3.9-0.9c2.7,0,5,1.3,6.5,3
							c0.7,0.9,1.3,1.8,1.5,2.8l0.1,0.4c0,0.2,0,0.3,0.1,0.4l0,0.3l0,0.4l0,0.4l0,0.4c0,0.2,0,0.5-0.1,0.7c-0.4,1.8-1.3,3.1-2.2,4
							c-1,0.9-1.9,1.2-2.6,1.4c-0.3,0.1-0.6,0.1-0.8,0.1c-0.2,0-0.3,0-0.3,0s0.1,0,0.3,0c0.2,0,0.4-0.1,0.7-0.2
							c0.6-0.2,1.5-0.6,2.4-1.5c0.4-0.4,0.8-1,1.2-1.6c0.3-0.6,0.6-1.4,0.7-2.2c0.2-1.6-0.3-3.5-1.7-5c-1.4-1.4-3.5-2.5-5.7-2.4
							c-2.3,0-4.5,1.2-6.2,3.1c-0.4,0.5-0.8,1-1.1,1.5c-0.2,0.3-0.3,0.5-0.4,0.8l-0.2,0.5c0,0.1-0.1,0.3-0.2,0.4
							c-0.4,1.2-0.6,2.5-0.6,3.8c0,2.6,0.8,5.3,2.3,7.5c1.5,2.2,3.6,4,6,5.1c1.2,0.5,2.5,0.9,3.7,1c0.3,0,0.6,0,0.9,0
							c0.3,0,0.6,0,0.9-0.1c0.6-0.1,1.2-0.2,1.8-0.4c2.3-0.7,4.3-2.4,5.6-4.3c1.3-1.9,2.2-4,2.6-6.1c0.4-2,0.5-4,0.5-5.7
							c0-1.7-0.1-3.2-0.2-4.5C77.6,274.5,77.4,273.1,77.4,273.1z"/>
						<path d="M71.8,268.7c0,0-0.1-0.5-0.4-1.3c-0.1-0.2-0.1-0.5-0.2-0.7c0-0.3-0.1-0.6-0.1-0.9c-0.1-0.3-0.1-0.6-0.2-1
							c0-0.4-0.1-0.7-0.1-1.1c0-0.4-0.1-0.8-0.1-1.2c0-0.4,0-0.9,0-1.3c0-0.4,0-0.9,0.1-1.4c0-0.5,0.1-0.9,0.2-1.4
							c0.2-1,0.3-2,0.6-2.9c0.2-1,0.6-2,0.9-3c0.4-1,0.8-1.9,1.3-2.8c0.4-0.9,1-1.8,1.5-2.6c0.3-0.4,0.6-0.8,0.9-1.2
							c0.3-0.4,0.6-0.7,0.9-1.1c0.3-0.3,0.6-0.7,0.9-1c0.3-0.3,0.6-0.6,0.9-0.8c0.3-0.3,0.5-0.5,0.8-0.8c0.3-0.2,0.5-0.4,0.8-0.6
							c0.2-0.2,0.5-0.4,0.7-0.5c0.2-0.2,0.4-0.3,0.6-0.4c0.8-0.5,1.2-0.7,1.2-0.7s-0.4,0.4-1,1c-0.2,0.2-0.3,0.3-0.5,0.5
							c-0.2,0.2-0.4,0.4-0.6,0.6c-0.2,0.2-0.4,0.5-0.7,0.7c-0.2,0.3-0.4,0.5-0.7,0.8c-0.2,0.3-0.5,0.6-0.7,0.9
							c-0.2,0.3-0.5,0.7-0.7,1c-0.3,0.3-0.5,0.7-0.7,1.1c-0.2,0.4-0.5,0.8-0.7,1.1c-0.5,0.8-0.9,1.6-1.3,2.5
							c-0.5,0.9-0.8,1.8-1.2,2.7c-0.3,0.9-0.7,1.8-0.9,2.8c-0.3,0.9-0.5,1.9-0.7,2.8c-0.1,0.5-0.1,0.9-0.2,1.3
							c-0.1,0.4-0.2,0.9-0.2,1.3c-0.1,0.4-0.1,0.8-0.1,1.2c0,0.4-0.1,0.8-0.1,1.2c0,0.4,0,0.7-0.1,1.1c0,0.3,0,0.7,0,1
							c0,0.3,0,0.6,0,0.9c0,0.3,0,0.5,0,0.7C71.8,268.2,71.8,268.7,71.8,268.7z"/>
						<path d="M131.1,243.1c0,0,0.3,0,0.9,0c0.3,0,0.6,0.1,1,0.1c0.2,0,0.4,0.1,0.6,0.1c0.2,0.1,0.4,0.1,0.7,0.2
							c0.2,0.1,0.5,0.1,0.7,0.2c0.2,0.1,0.5,0.2,0.7,0.3c0.3,0.1,0.5,0.2,0.8,0.4c0.3,0.1,0.5,0.3,0.8,0.5c0.5,0.3,1,0.7,1.5,1.1
							c0.5,0.4,0.9,0.9,1.4,1.4c0.4,0.5,0.8,1,1.2,1.5c0.4,0.5,0.6,1.1,0.9,1.6c0.2,0.6,0.5,1.1,0.6,1.6c0.1,0.3,0.1,0.5,0.2,0.8
							c0.1,0.3,0.1,0.5,0.1,0.7c0,0.2,0.1,0.5,0.1,0.7c0,0.2,0,0.4,0,0.6c0,0.4,0,0.7,0,1c0,0.6-0.1,0.9-0.1,0.9s-0.1-0.3-0.3-0.8
							c-0.1-0.3-0.2-0.6-0.3-0.9c-0.1-0.4-0.3-0.7-0.4-1.2c-0.2-0.4-0.4-0.9-0.6-1.3c-0.1-0.2-0.2-0.5-0.4-0.7
							c-0.1-0.2-0.3-0.5-0.4-0.7c-0.3-0.5-0.6-0.9-0.9-1.4c-0.3-0.5-0.7-0.9-1.1-1.4c-0.4-0.4-0.8-0.9-1.2-1.3
							c-0.4-0.4-0.8-0.8-1.3-1.1c-0.4-0.3-0.8-0.7-1.3-0.9c-0.4-0.3-0.8-0.6-1.2-0.8c-0.2-0.1-0.4-0.2-0.6-0.3
							c-0.2-0.1-0.4-0.2-0.5-0.3c-0.3-0.2-0.6-0.3-0.9-0.4C131.4,243.3,131.1,243.1,131.1,243.1z"/>
						<path d="M199.6,225c0,0,0.4-0.1,1.1-0.3c0.4-0.1,0.8-0.2,1.3-0.3c0.5-0.1,1-0.3,1.6-0.4c0.6-0.2,1.2-0.4,1.8-0.6
							c0.3-0.1,0.7-0.2,1-0.4c0.3-0.1,0.7-0.3,1-0.4c0.7-0.3,1.4-0.6,2.1-1c0.7-0.3,1.4-0.7,2.1-1.1c0.7-0.4,1.4-0.8,2-1.3
							c0.7-0.4,1.3-0.9,1.9-1.3c0.3-0.2,0.6-0.5,0.9-0.7c0.3-0.2,0.6-0.4,0.8-0.7c0.5-0.5,1-0.9,1.4-1.3c0.4-0.4,0.8-0.8,1.2-1.2
							c0.3-0.4,0.7-0.7,0.9-0.9c0.5-0.5,0.8-0.8,0.8-0.8s-0.2,0.4-0.5,1c-0.2,0.3-0.4,0.7-0.6,1.1c-0.1,0.2-0.3,0.4-0.4,0.7
							c-0.2,0.2-0.3,0.5-0.5,0.7c-0.2,0.2-0.4,0.5-0.6,0.8c-0.2,0.3-0.5,0.5-0.7,0.8c-0.5,0.5-1,1.1-1.6,1.6
							c-0.6,0.5-1.2,1.1-1.9,1.5c-0.7,0.5-1.4,0.9-2.1,1.4c-0.7,0.4-1.5,0.8-2.2,1.1c-0.7,0.4-1.5,0.6-2.3,0.9
							c-0.8,0.2-1.5,0.5-2.2,0.6c-0.4,0.1-0.7,0.1-1,0.2c-0.3,0.1-0.7,0.1-1,0.1c-0.3,0-0.6,0.1-0.9,0.1c-0.3,0-0.6,0-0.8,0
							c-0.5,0-0.9,0-1.3,0C200,225,199.6,225,199.6,225z"/>
						<path d="M140.8,283.2c0,0,0,0.1-0.1,0.3c-0.1,0.2-0.2,0.5-0.3,0.8c-0.1,0.4-0.2,0.8-0.3,1.3c-0.1,0.5-0.2,1.1-0.2,1.7
							c0,0.6-0.1,1.3,0,2c0,0.7,0.1,1.4,0.3,2.2c0.1,0.7,0.4,1.5,0.6,2.2c0.3,0.7,0.6,1.5,1,2.1c0.5,0.8,0.9,1.3,1.4,1.9
							c0.5,0.6,1.1,1.1,1.7,1.6c0.6,0.5,1.2,0.9,1.8,1.2c0.6,0.4,1.2,0.6,1.8,0.9c0.6,0.2,1.1,0.4,1.6,0.6c0.5,0.1,0.9,0.2,1.3,0.3
							c0.4,0.1,0.7,0.1,0.9,0.2c0.2,0,0.3,0.1,0.3,0.1s-0.1,0-0.3,0c-0.2,0-0.5,0.1-0.9,0.1c-0.4,0-0.8,0-1.4,0
							c-0.3,0-0.6-0.1-0.9-0.1c-0.3,0-0.6-0.1-0.9-0.2c-0.6-0.2-1.4-0.4-2.1-0.7c-0.7-0.3-1.4-0.7-2.1-1.2c-0.7-0.5-1.4-1-2-1.7
							c-0.6-0.6-1.2-1.4-1.7-2.1c-0.5-0.8-0.8-1.6-1.2-2.5c-0.3-0.9-0.5-1.7-0.6-2.6c-0.1-0.8-0.1-1.7,0-2.4c0-0.8,0.2-1.5,0.3-2.1
							c0.1-0.3,0.2-0.6,0.3-0.9c0.1-0.3,0.2-0.6,0.3-0.8c0.2-0.5,0.4-0.9,0.6-1.2c0.2-0.3,0.4-0.6,0.5-0.7
							C140.8,283.3,140.8,283.2,140.8,283.2z"/>
					</g>
					<g>
						<path d="M69.9,243.3c-3.1,0.9-5.8,3.5-7.4,6.3c-1.4,2.3-2.3,6,0.1,8c0.3,0.2,0.7,0.1,0.8-0.2c1-2,0.7-4.4,1.1-6.5
							c0.7-3.4,2.6-5.5,5.5-7.2C70.3,243.5,70.1,243.2,69.9,243.3L69.9,243.3z"/>
					</g>
					<g>
						<path d="M147,253.9c2.3-5.9,9.4-4,14.1-6.2c2.7-1.3,4.7-4.6,2.8-7.4c-0.2-0.3-0.7-0.2-0.8,0.1c-0.7,1.9-1.9,3.5-3.5,4.9
							c-1.9,1.6-4.2,2.1-6.5,2.9c-2.8,1.1-5.6,2.4-6.7,5.5C146.4,254,146.8,254.2,147,253.9L147,253.9z"/>
					</g>
					<g>
						<path d="M145.2,251.4c1.8-1.1,3.5-2.5,5.3-3.7c1.4-0.9,2.8-1.7,4-2.9c1.6-1.6,2.8-4.6,0.5-6.2c-0.3-0.2-0.6,0-0.7,0.3
							c-0.5,2.9-1.1,4.9-3.2,7.1c-1.9,1.9-4.1,3.4-6,5.2C145,251.3,145.1,251.5,145.2,251.4L145.2,251.4z"/>
					</g>
					<g>
						<path d="M108.2,256c-1.6,3.2-1.2,7.5,0.8,10.5c1.5,2.2,5.3,5,8,3.4c0.3-0.2,0.2-0.5,0-0.7c-1.7-1.4-4.2-1.5-6-3.1
							c-3.1-2.6-3.6-6.2-2.4-10C108.6,255.9,108.3,255.8,108.2,256L108.2,256z"/>
					</g>
					<g>
						<path d="M110.8,256.8c-0.3,2.8,1.3,6.1,3.5,7.8c2,1.5,6.4,2.8,7.9-0.1c0.1-0.2,0-0.4-0.2-0.5c-2-0.9-4.3-0.1-6.5-0.9
							c-2.9-1.1-3.9-3.4-4.3-6.3C111.1,256.6,110.8,256.6,110.8,256.8L110.8,256.8z"/>
					</g>
					<g>
						<path d="M113.4,256.9c1.5,3.6,9.5,7.5,12.1,3.1c0.2-0.3,0-0.7-0.4-0.7c-1.9,0.1-3.7,1-5.7,0.8c-2.5-0.2-4.1-1.5-5.7-3.4
							C113.6,256.6,113.3,256.7,113.4,256.9L113.4,256.9z"/>
					</g>
					<g>
						<path d="M170.3,283.7c-0.2,3-1,6.2-4.7,6.1c-2-0.1-3.8-1.4-5.8-1.1c-0.7,0.1-1.2,0.8-1.1,1.5c0.6,3.9,6.2,3.7,8.7,1.9
							c2.3-1.7,4.3-5.6,3.1-8.3C170.4,283.6,170.4,283.6,170.3,283.7L170.3,283.7z"/>
					</g>
					<g>
						<path d="M81.1,289.7c0.2,2.2-0.2,4.6-1.7,6.4c-1.5,1.8-3.1,2.1-5.2,2.8c-2.2,0.7-0.8,4.4,1.5,3.4c4.3-1.9,6.8-8.2,5.7-12.6
							C81.3,289.5,81.1,289.5,81.1,289.7L81.1,289.7z"/>
					</g>
				</g>
			</g>
		</g>
	</g>
</g>
<path d="M224.4,143.5c-0.2,0-0.2,0.3,0,0.3l0,0c3.1,0.7,6.8-0.3,9.5-1.9c2.3-1.3,4.9-4.2,3.8-7c-0.1-0.3-0.5-0.4-0.8-0.2
	c-1.9,1.2-2.7,3.5-4.1,5.2C230.4,142.5,227.7,143.4,224.4,143.5"/>
</svg>
