<?xml version="1.0" encoding="utf-8"?>
<!-- Generator: Adobe Illustrator 18.0.0, SVG Export Plug-In . SVG Version: 6.00 Build 0)  -->
<!DOCTYPE svg PUBLIC "-//W3C//DTD SVG 1.1//EN" "http://www.w3.org/Graphics/SVG/1.1/DTD/svg11.dtd">
<svg version="1.1" id="Capa_1" xmlns="http://www.w3.org/2000/svg" xmlns:xlink="http://www.w3.org/1999/xlink" x="0px" y="0px"
	 width="289px" height="82px" viewBox="0 0 289 82" enable-background="new 0 0 289 82" xml:space="preserve">
<g>
	<g id="b28_carrot">
		<path d="M176.6,72.6c0,0,0-0.1,0-0.2c-2.1,0-4.2,0-6.5,0L176.6,72.6z"/>
		<path d="M233.5,39.5c-0.2-31.7-29.8-30.7-29.8-30.7s2.3,25.2-8.2,29.9c-4.1-5.8,0.2-28.3,0.3-30c-12.2-0.5-28.3-0.3-49.5,0
			c-19.1,0.3-36.7,1.6-52.4,3.7c0.9,4.8,0.3,11.4-5.4,19.6l0.6-18.9C44.3,19.7,15,32.3,7.5,42.6c5.5,8.4,20.2,15.8,42.2,21.2
			l0.8-22.6c0,0,9.2,8.6,2,23.3c23.9,5.5,56.1,8.7,94.7,8.1c8.4-0.1,16-0.2,22.9-0.2l-2,0l1.4-22.5c10.7,5.7,7.4,20.7,7,22.5
			C226.8,72.1,233.9,71,233.5,39.5z M140.6,26.4c0,0,11.4,10.6-1,28.4L140.6,26.4z"/>
		<path d="M266.5,59.7L254.3,47l16.2,0.3c2.7,0.1,10.5-0.6,10.6-3.3c0.1-2.7-7.6-6.5-10.4-6.6l-16.2-0.3l11.7-11.2
			c2-1.9,6.9-8.7,5-10.7c-1.9-2-9.9,1.7-11.8,3.6l-20.3,19.5c0,0,0,0,0,0.1c-0.4,0.4-0.8,0.9-1.1,1.5c-0.5,1.2-0.6,2.6-0.1,3.8
			c0.2,0.6,0.6,1.1,1,1.6c0,0,0,0.1,0,0.1c0,0,0,0,0.1,0.1c0.1,0.1,0.3,0.2,0.5,0.4c0.1,0.2,0.2,0.4,0.3,0.5l19.5,20.3
			c1.9,2,10.1,10.9,12,9C273.3,73.7,268.4,61.7,266.5,59.7z"/>
	</g>
	<g id="Capa_1_212_">
	</g>
</g>
</svg>
