<?xml version="1.0" encoding="utf-8"?>
<!-- Generator: Adobe Illustrator 18.0.0, SVG Export Plug-In . SVG Version: 6.00 Build 0)  -->
<!DOCTYPE svg PUBLIC "-//W3C//DTD SVG 1.1//EN" "http://www.w3.org/Graphics/SVG/1.1/DTD/svg11.dtd">
<svg version="1.1" id="Layer_1" xmlns="http://www.w3.org/2000/svg" xmlns:xlink="http://www.w3.org/1999/xlink" x="0px" y="0px"
	 width="144.5px" height="23.9px" viewBox="0 0 144.5 23.9" enable-background="new 0 0 144.5 23.9" xml:space="preserve">
<path d="M139.5,8.4c-1.5-0.6-4-1.4-5.4,0.1c-1.2,1.3-1.8,3-0.7,4.5c1.5,2.1,6.3,1.5,5.7-1.6c-0.1-0.7-1.1-0.4-1,0.3
	c0.2,1.5-2,1.5-2.7,1.2c-3.6-1.3,0.1-4.6,2.2-3.9c1.8,0.6,5.1,2.3,4.4,4.6c-0.5,1.8-2.3,2.6-4,3c-5.1,1.3-10.6,0.7-15.8,0.1
	c-9.8-1.1-19.4-3.3-29-5.3c-4.5-0.9-18.1-5.4-20.3,0.9c-0.5-3,0.3-5.9,3.8-7.6c3.9-1.9,8.5-2,12.6-1c5.6,1.4,11.1,3.8,16,6.8
	c2.7,1.6,6.5,3.9,9.9,2.9c2.1-0.6,3.6-2.2,3.2-4.9c-0.3-2.2-3.3-3.9-5.1-3.3c-3.4,1.1-2.9,6.5,0.6,4.8c0.4-0.2,0.5-1.1-0.2-1.2
	c-0.9-0.4-0.2-1.2,0.2-1.3c2.2-0.9,3.9,3,0.9,4.4c-1.5,0.2-2.9,0.1-4.3-0.4c-2-0.7-3.8-1.8-5.7-2.7C102,7.5,99.1,6.1,96.1,5
	c-4.7-1.7-9.7-3.2-14.7-2.5c-3.3,0.5-7.5,1.8-8.7,5.3c-0.2,0.6-0.3,1.1-0.4,1.7C72.2,9,72,8.4,71.8,7.8c-1.2-3.5-5.4-4.9-8.7-5.3
	c-5-0.7-10.1,0.7-14.7,2.5c-3,1.1-5.9,2.6-8.8,3.9c-1.9,0.9-3.7,2-5.7,2.7c-1.4,0.5-2.8,0.6-4.3,0.4c-3-1.4-1.4-5.3,0.9-4.4
	c0.4,0.2,1.1,0.9,0.2,1.3c-0.7,0.1-0.7,1-0.2,1.2c3.5,1.6,4-3.8,0.6-4.8c-1.8-0.6-4.8,1.1-5.1,3.3c-0.4,2.6,1.1,4.2,3.2,4.9
	c3.4,1,7.2-1.3,9.9-2.9c4.9-2.9,10.5-5.4,16-6.8c4.1-1,8.8-0.9,12.6,1c3.5,1.7,4.3,4.6,3.8,7.6c-2.2-6.3-15.8-1.8-20.3-0.9
	c-9.7,2-19.2,4.2-29,5.3c-5.1,0.6-10.7,1.2-15.8-0.1c-1.7-0.4-3.4-1.2-4-3C2,11.3,5.3,9.6,7,9c2.2-0.7,5.8,2.7,2.2,3.9
	c-0.7,0.3-2.9,0.3-2.7-1.2c0.1-0.7-0.9-0.9-1-0.3c-0.7,3.1,4.1,3.6,5.7,1.6c1.1-1.5,0.5-3.3-0.7-4.5C9.1,7,6.6,7.8,5.1,8.4
	C1.8,9.8,0,13.7,2.9,16.3c3,2.6,8.3,2.4,12,2.4c11.2,0,22.6-2.7,33.5-5.1c1-0.2,1.9-0.4,2.9-0.7c-3.4,2-5.8,5-2.7,8
	c1.8,1.8,6.2,1.3,6.7-1.5c0.4-2.2-2.1-3.1-3.6-1.8c-0.5,0.5,0.2,1.2,0.8,0.8c1.8-1.4,2.2,1.1,0.9,2c-1.1,0.7-2.5,0.5-3.6-0.1
	c-2.4-1.4-0.4-4,0.9-5.1c1.5-1.4,3.7-2.7,5.8-3.4c0.9-0.2,1.9-0.4,2.8-0.6c2.9-0.6,6.1-1,9.1-0.2c2.1,0.6,2.7,2.3,2.4,4.3
	c0,0.2-0.1,0.5-0.2,0.7c-0.2,0.4-0.4,0.8-0.6,1.2c-0.3,0.4-0.6,0.8-0.9,1.2c-0.5,0.6-1.1,1.1-1.8,1.5c-1.8,1.2-4.4-0.1-3.8-2.5
	c0.3-1.2,1.3-1.6,2.4-1.6c0.4,0.1,0.7-0.5,0.3-0.7c-3.7-1.7-6.5,4-3,6c2.7,1.5,5.8-0.3,7.5-2.8c0-0.1,0.1-0.1,0.1-0.2
	c0.1-0.1,0.1-0.2,0.2-0.3c0.1-0.2,0.2-0.3,0.3-0.5c0.5-1,0.9-2,1.1-3.1c0.2,1.1,0.6,2.1,1.1,3.1c0.1,0.2,0.2,0.4,0.3,0.5
	c0.1,0.1,0.1,0.2,0.1,0.3c0,0.1,0.1,0.1,0.1,0.2c1.7,2.5,4.8,4.2,7.5,2.8c3.5-1.9,0.7-7.7-3-6c-0.4,0.2-0.1,0.8,0.3,0.7
	c1.1,0,2.1,0.4,2.4,1.6c0.6,2.4-2.1,3.6-3.8,2.5c-0.7-0.4-1.3-0.9-1.8-1.5c-0.3-0.4-0.6-0.8-0.9-1.2c-0.2-0.4-0.4-0.8-0.6-1.2
	c-0.1-0.2-0.1-0.4-0.2-0.7c-0.3-2,0.3-3.7,2.4-4.3c2.9-0.8,6.1-0.4,9.1,0.2c0.9,0.2,1.9,0.4,2.8,0.6c2.2,0.7,4.3,2,5.8,3.4
	c1.3,1.2,3.3,3.8,0.9,5.1c-1.1,0.6-2.5,0.8-3.6,0.1c-1.3-0.9-0.9-3.4,0.9-2c0.5,0.4,1.3-0.3,0.8-0.8c-1.5-1.3-4-0.5-3.6,1.8
	c0.5,2.8,4.8,3.3,6.7,1.5c3.1-3,0.7-6-2.7-8c1,0.2,1.9,0.4,2.9,0.7c10.9,2.4,22.3,5.1,33.5,5.1c3.6,0,9,0.2,12-2.4
	C144.6,13.7,142.7,9.8,139.5,8.4z"/>
</svg>
