<?xml version="1.0" standalone="no"?>
<!DOCTYPE svg PUBLIC "-//W3C//DTD SVG 20010904//EN"
 "http://www.w3.org/TR/2001/REC-SVG-20010904/DTD/svg10.dtd">
<svg version="1.0" xmlns="http://www.w3.org/2000/svg"
 width="960.000000pt" height="480.000000pt" viewBox="0 0 960.000000 480.000000"
 preserveAspectRatio="xMidYMid meet">
<metadata>
Created by potrace 1.13, written by Peter Selinger 2001-2015
</metadata>
<g transform="translate(0.000000,480.000000) scale(0.100000,-0.100000)"
fill="#000000" stroke="none">
<path d="M2130 2509 c-2236 -95 -2163 -90 -2118 -135 14 -15 265 -26 2180 -96
1189 -43 2182 -77 2206 -75 52 6 102 39 136 91 64 99 3 264 -109 295 -22 6
-74 10 -115 10 -41 -1 -1022 -41 -2180 -90z m2329 -141 c-16 -57 -41 -72 -122
-76 -39 -1 -639 13 -1332 31 -1252 33 -1305 36 -1305 67 0 7 502 10 1384 10
l1385 0 -10 -32z"/>
<path d="M4724 2581 c-51 -23 -111 -93 -125 -145 -33 -123 63 -236 201 -236
102 0 192 67 204 152 10 64 -8 121 -52 170 -67 74 -148 95 -228 59z m206 -201
c0 -115 -183 -152 -244 -50 -9 16 -16 38 -16 49 0 20 5 21 130 21 124 0 130
-1 130 -20z"/>
<path d="M5165 2585 c-107 -37 -161 -196 -99 -291 34 -52 84 -85 136 -91 24
-2 1017 32 2206 75 1915 70 2166 81 2180 96 45 45 121 40 -2174 136 -1189 49
-2172 90 -2185 90 -13 -1 -42 -7 -64 -15z m2735 -195 c0 -31 -53 -34 -1305
-67 -693 -18 -1293 -32 -1332 -31 -81 4 -106 19 -122 76 l-10 32 1385 0 c882
0 1384 -3 1384 -10z"/>
</g>
</svg>
