<?xml version="1.0" encoding="utf-8"?>
<!-- Generator: Adobe Illustrator 18.0.0, SVG Export Plug-In . SVG Version: 6.00 Build 0)  -->
<!DOCTYPE svg PUBLIC "-//W3C//DTD SVG 1.1//EN" "http://www.w3.org/Graphics/SVG/1.1/DTD/svg11.dtd">
<svg version="1.1" id="Layer_1" xmlns="http://www.w3.org/2000/svg" xmlns:xlink="http://www.w3.org/1999/xlink" x="0px" y="0px"
	 width="230.7px" height="222.1px" viewBox="0 0 230.7 222.1" enable-background="new 0 0 230.7 222.1" xml:space="preserve">
<g opacity="0.8">
	<path fill="#DDE0D1" d="M113.7,198.8c1.6,1.7,1.1,5.5,1.1,7.5c-0.2,3.9-0.7,7.7-1.1,11.5c4.7-2.5,7.4-6.5,10.6-10.7
		c-1.4-4.4-3-8.8-5-13C117.6,195.8,115.7,197.4,113.7,198.8z"/>
	<path fill="#DDE0D1" d="M112.7,199.6c-1,0.7-1.9,1.3-2.9,1.9c-0.7,0.4-1.4,0-1.6-0.7c-1.2-3.1-1.6-6.3-1.7-9.6
		c-2.4,3.7-5.9,7.1-8.9,10.1c-0.5,0.5-1.1,1.1-1.7,1.6c0.4,4.5,0.3,9.3-0.2,13.8c3.4-0.3,6.7-2.4,9.4-4.3c1.8-1.3,3.6-2.7,5.2-4.4
		c0.9-1,1.6-2.2,2.6-3c0.1-1.2,0.1-2.4,0-3.5C112.8,200.8,112.7,200.2,112.7,199.6z"/>
	<path fill="#DDE0D1" d="M131.6,190.8c0.1-1.1,0-2.2,0.1-3.3c-1.5-1.6-3.1-3.2-4.6-4.8c-0.9,3.7-3.6,7.1-6.1,9.8
		c-0.2,0.2-0.4,0.4-0.6,0.6c2.9,4.2,4.6,9.2,6.3,14.1c1.5-2.9,2.8-5.9,3.6-9C130.9,195.8,131.5,193.3,131.6,190.8z"/>
	<path fill="#DDE0D1" d="M134.2,189c0.2,3.2-0.8,7-1.6,9.7c-0.8,2.5-1.7,5-2.8,7.4c2.5,6.3,8,10.9,12.5,15.9
		c1.6-7.9,4.7-15.9,2.9-23.9C141,195.9,137.4,192.6,134.2,189z"/>
	<path fill="#DDE0D1" d="M136.4,177.1c-0.2,3.5-0.8,6.9-1.7,10.2c3.7,3.2,7.3,6.6,11.6,8.8c0.3,0,0.6,0.1,0.8,0.4
		c0.9,0.4,1.8,0.8,2.8,1.1c-0.5-5.8-2.6-11.4-2.6-17.2C143.7,179.4,140.1,178.2,136.4,177.1z"/>
	<path fill="#DDE0D1" d="M74,196.5c-0.2,5.2-0.5,10.3,0.6,15.4c3.2-3.9,6.3-7.9,9.6-11.7c-0.2-4.2-0.1-8.3,0.9-12.3
		c-1.5,1.5-3.2,2.9-4.7,4.1C78.4,193.6,76.2,195.1,74,196.5z"/>
	<path fill="#DDE0D1" d="M89.7,178.4c0.4-1.9,0.6-3.8,0.5-5.8c-4,2.3-9.7,4.1-13.9,5.4c-0.7,0.2-2.7-0.4-2.7-1v0
		c-2,0.8-2.9,1.8-5.1,2.6c-0.6,5.6,0.2,11.2,0.4,16.9c1.1-0.5,2.8-1.6,3.7-2.3c0,0,0.2-0.1,0.2-0.1c0.1-0.4,0.5-0.5,0.8-0.4
		c2-1.3,3.9-2.6,5.7-4.1c3.8-3.2,6.3-6.6,9.1-10.7C88.8,178.4,89.3,178.3,89.7,178.4z"/>
	<path fill="#DDE0D1" d="M106,188.4c0.1-0.1,0.3-0.2,0.4-0.2c0-3.2,0.1-6.4-0.3-9.6c-0.1,0-0.3,0-0.4-0.1c-4.5,3.6-10.5,5.9-16,7.1
		c-0.8,0.2-1.4-0.5-1.3-1.2c0-0.1,0.1-0.3,0.1-0.4c-0.5,0.8-1.1,1.5-1.8,2.3c0.1,0.1,0.1,0.3,0.1,0.5c-0.8,4.2-0.8,8.4-0.6,12.6
		c0.3,0.3,0.4,0.7,0.1,1.1c0,0-0.1,0.1-0.1,0.1c0.1,2.2,0.3,4.4,0.3,6.6c3.7-2.1,7-5,10-8.1C99.8,195.6,102.5,191.3,106,188.4z"/>
	<path fill="#DDE0D1" d="M67.2,198c0.1-4.9-0.3-10,0.4-14.9c-2.4,4.2-7.1,7.5-11.2,9.4c-0.1,1-0.2,2-0.2,2.2c-0.1,2-0.2,3.9-0.2,5.9
		c0,2.8,0.1,5.6,0.1,8.4c5.3-2.8,10.8-5.4,15.4-9.2c0.3-0.2,0.5-0.3,0.8-0.3c0.1-0.7,0.1-1.3,0.2-2c-1.3,0.9-2.6,1.7-4.1,1.7
		C67.8,199.2,67.2,198.6,67.2,198z"/>
	<path fill="#DDE0D1" d="M151.7,191.7c0.4,1.9,0.7,3.9,0.8,5.8c7.7,1.4,14,6.8,21.3,9.6c0-4.9-1.7-9.6-3.7-14.1
		C163.9,194.1,157.7,192.9,151.7,191.7z"/>
	<path fill="#DDE0D1" d="M184.2,179.4C184.1,179.4,184.1,179.3,184.2,179.4c-1.6-0.5-3.1-1-4.4-1.8c0.3,1.4,0.7,2.7,1.3,3.8
		c0.5,1-0.3,2-1.4,1.8c-3.5-0.7-7-1.6-10.4-2.7c0.5,1.4,0.8,2.9,1.1,4.2c0.6,2.1,1.1,4.1,1.7,6.2c0-0.2,0-0.3,0-0.5
		c0.1-0.9,1.1-1.1,1.6-0.4c2.8,3.9,9,6.3,13.9,6.7c0-2.7,0-5.3-0.3-8C187.2,185.9,186.9,180.9,184.2,179.4z"/>
	<path fill="#DDE0D1" d="M199,174.5c-2.9-0.3-6-0.6-8.6-1.7c0,0.1,0,0.1,0.1,0.2c0.6,2,1.3,4,1.6,6.1c0.1,0.9-0.5,1.7-1.5,1.5
		c-1.1-0.2-2.2-0.4-3.3-0.6c1.3,1.7,1.8,4.3,2.1,6.2c3.8-1,7.9-0.4,11.7-1.3c-0.1-2-0.2-3.9-0.6-5.8
		C200.1,177.5,199.5,176,199,174.5z"/>
	<path fill="#DDE0D1" d="M169.3,190.7c0-0.1,0.1-0.3,0.2-0.4c-0.6-2-1.2-4-1.7-6c-0.5-1.6-1.2-3.2-1.4-4.9c-0.3-0.1-0.5-0.2-0.8-0.3
		c-2.1-0.8-4.9-1.6-7.1-3c0.1,1.7,0.1,3.3-0.1,4.6c-0.1,0.7-0.5,1.3-1.2,1.2c-2.4-0.1-4.7-0.5-7-1c0.1,3.2,0.7,6.3,1.4,9.4
		C157.5,190.5,163.3,191.9,169.3,190.7z"/>
	<path fill="#DDE0D1" d="M53.4,45.2c2.9,1.4,5.5,3.1,7.7,5.2c-0.2-4.9,0.8-9.7,3.7-13.7c0.4-0.5,1-0.8,1.6-0.4
		c1.2,0.8,2.5,1.6,3.6,2.4c-1.2-2.5-2.4-5.1-3.9-7.5c-1.6-2.6-5.9-9.9-10-8.5c-3.9,1.4-2.9,9.4-2.8,12.5
		C53.6,38.4,54.1,42,53.4,45.2z"/>
	<path fill="#DDE0D1" d="M64.4,58.1c0.2,1,1.9,7.7,3.3,10.5c2.7,0.8,5.4,1.8,7.9,3.2c4.3,2.3,8.1,5.1,11.9,8.1c0-1,0-2.1,0.1-3.1
		c0.1-1,1-1.5,1.9-1.1c0.4,0.2,0.8,0.4,1.2,0.6c-1.3-5.8-3.6-12.2-2.1-17.8c-7.5-6.6-13.9-14.2-22.4-19.6
		C62.6,44.5,63.1,51.8,64.4,58.1z"/>
	<path fill="#DDE0D1" d="M103.6,47.5c0,0.2-0.1,0.4-0.2,0.6c0.3,0.3,0.6,0.7,0.9,1c0.1-8.3,4.7-15.9,10.2-22.2
		c0.1-7.8-2.5-15.5-6.6-22.2C103,10.7,102.3,19,97,24.5C100.8,31.7,104.3,38.8,103.6,47.5z"/>
	<path fill="#DDE0D1" d="M96.7,43.4c0.3-0.7,1.3-1.2,1.9-0.5c0.7,0.8,1.6,1.7,2.4,2.6c-0.1-11.2-7-19.9-11.2-30
		c-3.4,4.4-6.2,9.2-8.1,14.4c-1.1,3.2-1.7,6-2.1,9.3c-0.2,2.1-0.5,4.1-1.4,6c3.9,3.5,7.6,7.2,11.3,10.8C91.4,51.5,95,48,96.7,43.4z"
		/>
	<path fill="#DDE0D1" d="M165.2,33.5c2.5-6.6,3.8-13.4,4.1-20.5c-6.2,3.4-11.5,8.1-17.4,11.9c-0.6,4.2-1.5,8.3-2.8,12.4
		C153.6,33.9,159.6,33.8,165.2,33.5z"/>
	<path fill="#DDE0D1" d="M128.1,37.2c-0.2,0.1-0.3,0.1-0.5,0.2c0.8,1.9,1.5,3.8,1.9,5.8c1.5,7.1-0.2,13.8-3.3,20.2
		c-0.1,0.3-0.3,0.4-0.5,0.5c0.9,1.6,1.8,3.2,2.6,4.9c1.4-4.7,4.5-8.6,8.4-11.6c-0.1-0.3,0-0.6,0.2-0.9c8.1-11.8,12.8-24.9,13.2-39.2
		c-7.7,2.4-13.6,7.4-17.8,14.3C131.3,33.1,129.9,36.4,128.1,37.2z"/>
	<path fill="#DDE0D1" d="M167.9,34.7c0,2,0,3.9-0.1,5.8c3.4-1.9,6.5-4.3,9.8-6.4c0-0.3,0-0.6,0.3-0.9c3-3.5,3.4-7.8,3.5-12.2
		c-3.7,1.2-7.5,2.1-11.1,3.4c-0.6,3.2-1.5,6.3-2.7,9.4C167.8,34.1,167.9,34.4,167.9,34.7z"/>
	<path fill="#DDE0D1" d="M19.5,108.2c0.1,0,0.2-0.1,0.3-0.1c0-0.2,0.3-0.3,0.4-0.2c3.6-1.5,7.3-3.1,11.1-4.1
		c-1.5-1.3-2.9-2.5-4.4-3.8c-0.7-0.6-0.3-1.7,0.5-2c3.3-0.9,6.5-1.9,9.8-2.8c-2.7-3-4.7-6.3-6.4-9.8C22.1,81.2,11.4,85,2,85.5
		c3,5.8,6.4,11.3,11,16.1c1.1,1.2,2.2,2.4,3.4,3.6c0.7,0.7,1.4,1.4,2.1,2.1C18.7,107.5,19.2,108,19.5,108.2z"/>
	<path fill="#DDE0D1" d="M21.8,150.5c1.3-1.1,2.7-2,4.1-2.9c2.1-1.3,4.4-2.7,6.7-3.8c-2.1-0.7-4.2-1.6-6.1-2.8
		c-1.8,0.4-3.9,0.2-5.4,0.2c-3-0.1-6-0.5-8.9-1.1c-0.6-0.1-1.1-0.2-1.7-0.4c-1.9,4-6,6.8-9.2,9.8c2.6,2.2,6,3.2,9.5,3.1
		c3.7-0.1,6.6-1.5,10.2-2.2C21.2,150.3,21.5,150.3,21.8,150.5z"/>
	<path fill="#DDE0D1" d="M21.8,138.6c0.5,0,1.1,0,1.6-0.1c-0.2-0.4-0.1-1,0.2-1.3c3.1-3.1,6.7-6.6,10.7-9.5
		c-7.3,0.5-13.9-3.2-20.7-6C9.1,125.7,4.1,129,0,133.4c3.8,2.6,9.2,3.6,13.6,4.4C16.3,138.2,19.1,138.6,21.8,138.6z"/>
	<path fill="#DDE0D1" d="M41.7,170.4c-0.7-0.1-1.3-0.7-1.1-1.4c2.1-6.2,6.4-12.3,11.7-16.3c-2.2-0.7-4.2-1.6-6.2-2.8
		c-0.5-0.3-0.8-1-0.4-1.6c0.8-1.3,1.7-2.6,2.7-3.8c-4.3,0.8-8.8,0.9-13.2-0.1c-6,3.5-12.1,6.5-16.6,11.9c3.9,0.7,7.8,1.7,11.7,2.3
		c2.5,0.4,5.1,0.6,7.7,0.4c2.4-0.2,4.2-1.2,6.4-1.6c1-0.2,1.6,0.9,0.9,1.6c-2.9,3.3-9.7,2.6-13.6,2.1c-0.2,0-0.4-0.1-0.6-0.1
		c-0.5,0.6-1.1,1.2-1.5,1.9c-0.9,1.6-1.9,3.2-2.9,4.7c-1.8,2.8-3.6,5.7-5.3,8.5c8.3-0.1,17-0.4,23.8-5.3
		C44.1,170.7,42.8,170.5,41.7,170.4z"/>
	<path fill="#DDE0D1" d="M65.5,180.9c-2.7,0.7-5.4,0.9-8.3,0.2c-0.8-0.2-0.8-1-0.6-1.6c1.4-2.9,2.8-6,4.3-8.9
		c-3.3,1.9-7.9,1.6-12.2,0.9c-1,1.4-2.3,2.4-3.8,3.3c-2.1,5.4-4.9,10.5-6.4,16.1c5.3,2.3,11.6,1.8,16.8-0.8c2.6-1.3,5.1-2.9,7.1-5
		C63.7,183.8,64.6,182.4,65.5,180.9z"/>
	<path fill="#DDE0D1" d="M32.1,83.4c0.5,0.3,0.6,0.8,0.5,1.2c1.7,3.6,4,6.8,5.9,10.2c3.6-0.9,7.2-1.7,10.9-2.1
		c6.1-0.6,13.5-0.5,17.8,4.6c0.1,0,0.1,0,0.2-0.1c-2-1.3-4.4-5.2-5-6c-3.1-4.2-5.2-8.8-5.8-13.6c0,0,0,0,0,0
		c-7.3-7.6-18.6-6.3-28.3-7.3C29.2,74.9,30.2,79.3,32.1,83.4C32,83.4,32.1,83.4,32.1,83.4z"/>
	<path fill="#DDE0D1" d="M37.5,124.7c0.5-0.1,0.9,0,1.2,0.3c1.6-0.9,3.3-1.7,5-2.2c-0.9-0.5-1.7-1.1-2.6-1.7
		c-0.5-0.3-0.7-0.9-0.4-1.5c1.8-2.8,4.1-5.3,6.7-7.4c-3,0.8-6.8-1.4-9.1-2.9c-2-1.3-3.9-2.8-5.7-4.3c-4,2.1-8.5,3.4-12.6,5.3
		c-4.1,1.9-8.1,4.2-11.3,7.4C18.5,120.2,27,127.1,37.5,124.7z"/>
	<path fill="#DDE0D1" d="M43.6,69.2c4.7,0.6,9.1,1.9,12.9,4.9c0.1-2.1,0.5-4.3,1.3-6.5c0.2-0.6,0.7-0.9,1.4-0.8
		c2.1,0.3,4.3,0.7,6.4,1.2c-1.3-2.5-2.3-6.1-2.5-6.9c-0.6-2.1-1.1-4.3-1.4-6.6c-0.2-0.1-0.3-0.2-0.4-0.3c-6.3-7.3-18-10.9-27.5-11.2
		c-2,9.3,4.7,18.9,9.9,25.9C43.6,69,43.6,69.1,43.6,69.2z"/>
	<path fill="#DDE0D1" d="M117.4,23.7c0.6-0.6,1.4-0.4,1.8,0.2c2.8,3.9,5.8,8,8,12.4c0.1,0,0.2,0.1,0.2,0.2c-0.3-1.1,2.4-4.4,3-5.4
		c1.1-2,2.2-4,3.7-5.7c0.1-0.1,0.2-0.2,0.3-0.4c-0.1-0.2-0.1-0.3-0.1-0.6c0-8.6-1.4-16.6-4.5-24.5c-6.1,3.5-10.8,8-14.9,13.7
		c1.2,3.4,1.9,7,2.1,10.5C117,24,117.2,23.9,117.4,23.7z"/>
	<path fill="#DDE0D1" d="M210.3,93.7c0.4,0.6,0.6,1.4,0,1.9c-2.5,2.3-5,4.6-7.6,6.7c2.2,0.2,4.4,1,6.5,2.2
		c7.7-1.9,15.8-4.4,21.5-10.1c-4.7-2.1-10.2-4.6-15.2-4.9c-3.5-0.1-6.9,0.2-10.3-0.3C207.2,90.6,209,92.1,210.3,93.7z"/>
	<path fill="#DDE0D1" d="M139,156.8c4.7,5.3,11.5,8.5,18.5,8.8c-5.6-7.1-3.9-18.3-7.6-26.4c-3,0.4-6,0.4-8.8-0.4
		c0,8.7-2.5,17.2-6,25.1c0.1,0.1,0.2,0.3,0.3,0.5c1,3.7,1.4,7.6,1.2,11.4c3.8,0.4,7.5,1.5,11.2,2.3c0.6-1,2.3-0.8,2.4,0.5
		c1.9,0.4,3.9,0.7,5.9,0.8c0.1-2.2,0-4.4-0.7-6.5c-0.6-2-2-3.8-2.6-5.8c-5.9-1.4-11.4-4.7-14.5-9.8
		C137.8,156.9,138.5,156.3,139,156.8z"/>
	<path fill="#DDE0D1" d="M203.9,156.9c-0.5-1.4-1.9-2.6-2.4-4c-3.2,0.8-6.5,1.3-9.8,1.2c1.9,4.5,2.6,9.9,3.5,14.1
		c0.2,0.8-0.4,1.5-1.2,1.6c-1.5,0.2-3.1,0.1-4.6-0.1c0,0.1,0.1,0.1,0.1,0.2c0.1,0,0.3,0,0.4,0c4.5,0.6,8.8,1.8,13.4,2.1
		c2.4,0.1,4.8,0.2,7.3,0.2c-1.9-2-3.1-4.8-4-7.4C205.7,162.3,204.9,159.6,203.9,156.9z"/>
	<path fill="#DDE0D1" d="M112.1,110.7c-7.3,0.7-14.5,2.3-21,5.8c-6.4,3.5-11.9,8.1-17,13.2c7.2,6.4,18.6,4,26.6,0.3
		c7.5-3.5,16.1-9.1,19.5-17l0-0.2c-2.5-0.4-4.9-1-7.3-1.9c-0.3,0.1-0.7,0.3-1,0.5c-0.2,0.1-0.5-0.2-0.3-0.3
		C111.8,111,111.9,110.9,112.1,110.7z"/>
	<path fill="#DDE0D1" d="M62.9,108c-8,1.2-15.1,5.1-19.7,11.9c4.9,3.2,10.3,5.7,16.2,5.8c3,0.1,6-0.2,9-0.9c2.7-0.7,5.4-1.8,8.1-2.3
		c0.6-0.1,1,0.3,1.2,0.7c9.1-7.7,19.3-13.3,31.4-13.8c-6-2.9-11.4-7.2-15.3-12.4c-0.1,0.5-0.4,0.9-1.1,0.8c-5.8-0.6-11-0.9-16.8,0.3
		c-4.8,1-9.5,2.4-14.2,3.7c2.9,3.5,6.7,6.5,10.3,9.1c3.1,2.2,9.4,7.2,13.4,5c0.6-0.3,1.4,0.5,0.8,1c-4,3.4-10.7-0.7-14.2-3.1
		c-4.9-3.3-9.9-7.3-13.5-12c-0.5-0.7,0-1.6,0.7-1.8c1.7-0.5,3.4-1,5.2-1.6c-4.9-3.9-11.9-3.5-17.9-2.5c-5.6,0.9-11,2.5-16.5,4
		c1.3,1.1,2.6,2.3,3.9,3.4c0.3,0,0.6,0.2,0.6,0.5c1,0.9,2.1,1.7,3.2,2.5c2.8,2.1,7.8,6,11.5,4.1c0.3-0.1,0.6,0.1,0.6,0.3
		c0.5-0.3,0.9-0.6,1.4-0.8c3.4-1.9,7.8-3.9,11.8-3C63.4,107,63.5,107.9,62.9,108z"/>
	<path fill="#DDE0D1" d="M111,154.2c-1.1,6.8-2,13.7-3.3,20.5c0.4,0.2,0.6,0.6,0.6,1c8.1-2.6,15.8-8.6,18.3-16.9
		c0.1-0.3,0.3-0.5,0.5-0.6c-2.9-4.9-4.6-10.5-5-16.2C119,146.5,115,150.7,111,154.2z"/>
	<path fill="#DDE0D1" d="M122.2,114.8c-2.8,6-8.3,10.8-14.3,14.3c-4.1,8.3-6.3,18.7-3.3,27.6c6.2-4.7,13.2-11.3,17.4-18.7
		c0-0.2,0-0.4,0-0.6c0-0.4,0.3-0.6,0.6-0.5C126.4,129.8,127.3,122.1,122.2,114.8z"/>
	<path fill="#DDE0D1" d="M74.6,151c-1.3,2.4-2.4,4.9-3.3,7.5c3.5-0.4,7-1.3,10.5-2.5c0-0.1,0-0.1,0.1-0.2c0.1-0.5,0.8-0.5,1.1-0.3
		c7-2.8,13.6-7.2,17.7-12.9c0.2-0.3,0.5-0.5,0.8-0.5c0.5-4,1.7-7.9,3.5-11.3c-1.6,0.8-3.2,1.5-4.7,2.2c-4.8,2-10.5,3.4-15.9,3.2
		c-2.8,3.9-5.7,7.9-8.1,12c0.4,0.4,0.5,1,0,1.5C75.7,150.1,75.1,150.6,74.6,151z"/>
	<path fill="#DDE0D1" d="M137.4,82c6.4-7.6,9.1-17.9,9.5-27.7c-7.8,2.9-14.7,8.3-18,16.1c1,2.4,1.7,4.9,1.9,7.6
		c0.3,3.7-0.6,6.9-1.9,9.9C131.5,85.6,134.3,83.7,137.4,82z"/>
	<path fill="#DDE0D1" d="M62.4,87.5c0.6,1,5.9,10,7.1,8.9c0.2-0.2,0.5,0,0.5,0.2c7.6-2.1,15.6-3.5,22.7-1.2
		c-2.5-3.7-4.2-7.8-4.9-12.1c-4.2-3.4-8.5-6.9-13.3-9.4c-4.7-2.4-9.6-3.8-14.8-4.7c-0.7,2.3-1,4.7-0.9,7c0.3,0.4,0.2,0.8,0.1,1.2
		C59.1,80.8,60.4,84.3,62.4,87.5z"/>
	<path fill="#DDE0D1" d="M168.4,127.2c0.1,0,0.1,0.1,0.2,0.1c0.7,0.5,0.9,1.4,0.3,2.1c-1.5,1.5-3.2,3-5.1,4.3c3.2,0.8,6.6,4.8,8,6.8
		c0.4,0.6,0.7,1.1,1.1,1.7c0.2-0.4,0.6-0.8,1.1-0.6c1.4,0.5,2.1,2,3.4,2.7c1.8,0.9,3.8,1.5,5.8,1.9c3.4,0.7,6.9,1,10.3,0.8
		c0.1-4.6-0.5-9.2-2.5-13.3c-1.6-3.4-3.8-6.4-6-9.4C179.7,126.3,173.8,127,168.4,127.2z"/>
	<path fill="#DDE0D1" d="M190.3,128.3c4,5.7,6,12.6,5.7,19.9c0,0.8-0.6,1.2-1.3,1.3c-1.8,0.2-3.7,0.2-5.5,0.2
		c0.7,0.9,1.3,1.8,1.8,2.8c6.3-0.5,12-2.1,17.8-4.2c0,0-0.1,0-0.1,0c-1.2-0.1-1.6-1.5-1-2.2c-2.8-4.9-6.1-9.3-10.1-13.5
		c-0.5-0.5-0.4-1.2,0-1.6C195,130.3,192.6,129.5,190.3,128.3z"/>
	<path fill="#DDE0D1" d="M36.7,142.3c0.3-0.1,0.7-0.1,1-0.2c0.3,0,0.5,0.2,0.5,0.4c3.6,0.4,7.3,0.1,10.8-0.6c0.6-0.1,1,0.1,1.3,0.5
		c2.3-2.5,4.9-4.8,7.6-6.8c3.6-2.7,9.1-6.4,13.8-4.8c-0.1-0.1-0.2-0.2-0.3-0.3c-0.5-0.5-0.5-1.2,0-1.7c1.3-1.2,2.5-2.5,3.8-3.6
		c-5,2.3-11.6,3.2-16.7,2.7c-4.8-0.4-9.1-1.9-13.1-4.2c-3.3,2-6.7,3.7-9.8,6c-3.3,2.5-6.4,5.2-9.4,8.2c0.1,0.1,0.2,0.2,0.4,0.3
		c0.4,0,0.8,0,1.1,0c0.8,0.1,1.2,0.7,1,1.3C31.1,141,33.9,141.9,36.7,142.3z"/>
	<path fill="#DDE0D1" d="M133.1,165.8c-0.1-0.1-0.3-0.1-0.4-0.2c-1.6-1.6-3-3.4-4.2-5.2c-1.6,4.3-4.5,8.1-8.1,11.1
		c3.7,5.2,8.1,9.5,12.5,14.1C134.3,179,134.5,172.3,133.1,165.8z"/>
	<path fill="#DDE0D1" d="M203.3,152.5c1.9,1.3,3.5,6.1,3.8,7.1c0.1,0.2,0.2,0.5,0.3,0.8c3.2-0.5,6.1-0.6,9-2.2
		c-2.3-2.4-4.7-5-6.4-7.8C207.7,151.2,205.5,151.9,203.3,152.5z"/>
	<path fill="#DDE0D1" d="M190.8,158.5c-0.8-3.2-2.1-6-3.4-9c-2.5-0.2-5-0.6-7.3-1.3c-1.1-0.3-3.3-1-5-2.1c2.1,4,3.8,8.3,4.8,12.5
		c0.2,0.6-0.2,1.4-0.9,1.5c-1.3,0.3-2.7,0.5-4.2,0.6c0.5,0.5,0.9,1.1,1.2,1.7c2.9,1.2,5.4,2.9,8.6,3.7c2.6,0.7,5.2,1.2,7.9,1.2
		C192.1,164.5,191.6,161.5,190.8,158.5z"/>
	<path fill="#DDE0D1" d="M161,174.5c2.2,1.1,4.5,2,6.8,2.8c3.4,1.2,6.8,2.2,10.2,3c-1-3.1-1.3-6.4-1.8-9.5c-0.3-1.8-0.6-4.2-1.3-6.3
		c-0.1-0.1-0.2-0.3-0.3-0.4c-0.2-0.2-0.2-0.5-0.1-0.8c-0.4-0.9-0.8-1.7-1.4-2.3c-5.8,0.2-12.4-0.8-16.6-3.9c0.8,3.3,2,6.5,4.6,8.8
		c0.8,0.7,0.1,2-0.9,2.1c-1.4,0.1-2.8,0-4.2-0.1c0.9,1.4,1.5,3.1,1.9,4.9C158.9,173.3,159.9,174,161,174.5z"/>
	<path fill="#DDE0D1" d="M189.2,178.1c-0.4-1.5-0.8-2.9-1.2-4.4c-0.5-1.4-1.1-2.8-1.2-4.3c-1.3-0.2-2.5-0.6-3.7-0.9
		c-1.7-0.5-3.7-1.1-5.4-2c0.8,2.9,1.2,6.1,1.7,9.1C182.4,177.2,185.8,177.8,189.2,178.1z"/>
	<path fill="#DDE0D1" d="M118.7,191.6c3.1-3.2,5-6.6,6.9-10.5c-2.5-2.7-4.7-5.5-6.3-8.8c-3.5,2.6-7.5,4.4-11.7,5
		c1.8,7.1,0.1,14.5,2.2,21.5C113.1,196.7,116.1,194.3,118.7,191.6z"/>
	<path fill="#DDE0D1" d="M128.1,127.8c-0.5,4.1-2.2,8.1-4.6,12c1.1,8.5,3.9,16.6,9.7,23.1c3.4-7.8,5.8-16.2,5.6-24.8
		C133.5,136,130.3,132.3,128.1,127.8z"/>
	<path fill="#DDE0D1" d="M165.1,52.4c3.4-0.1,6.9,0.3,10.2,0.9c0.5,0.1,1,0.7,0.9,1.2c-0.1,0.5-0.1,0.9-0.2,1.4
		c2.4-1.7,5-3.2,7.6-4.4c-0.3-0.3-0.4-0.8-0.1-1.4c3.5-5.6,4.6-11.9,3.9-18.4c-7.1,2.1-12.7,7.4-19.6,10.1
		C167.4,45.4,166.7,49,165.1,52.4z"/>
	<path fill="#DDE0D1" d="M199.8,131.2c4.2,4.3,7.6,9.2,10.5,14.5c4.3,0.1,8.4-0.7,12.3-2.5c-3.3-4.2-6.5-8.4-10.2-12.2
		C208.2,131.7,203.9,131.8,199.8,131.2z"/>
	<path fill="#DDE0D1" d="M191.6,63.2c-0.9,1-2.1,2.8-3.4,3.9c1.8,0.5,3.5,1.2,5.2,2.1c0.5,0.3,0.8,1,0.6,1.5
		c-0.2,0.6-0.4,1.2-0.6,1.8c3-1.3,6-2.4,9.2-3.2c-0.1-0.3,0-0.6,0.2-0.9c2.1-2.4,4.3-4.3,6.1-6.9c0.9-1.3,1.8-2.6,2.8-3.8
		c-5.1,0.1-10.3,0.5-15.2-0.8C195,59.1,193.4,61.2,191.6,63.2z"/>
	<path fill="#DDE0D1" d="M171.8,67.4c4.3-1.3,8.8-1.7,13.2-1c0.1-0.3,0.4-0.6,0.8-0.6c0.2-0.2,0.4-0.3,0.6-0.5
		c0.6-0.5,1.1-1.1,1.7-1.7c1.2-1.4,2.4-2.8,3.6-4.2c0.9-1.2,1.8-2.3,2.7-3.5c0-0.2,0.1-0.4,0.4-0.5c1.6-2.3,3.1-4.6,4.3-7.1
		c-8,2.6-15.8,5-23.2,9.2C174.9,60.9,173.6,64.3,171.8,67.4z"/>
	<path fill="#DDE0D1" d="M184.2,86.3c4.6-2,10.6-1.5,16,0.5c0.1-0.1,0.1-0.2,0.2-0.2c6.4-4.6,13.6-9.2,16.3-16.9
		c-8.4,0.2-15.9,2.3-23.9,4.4C190.8,78.6,187.9,82.9,184.2,86.3z"/>
	<path fill="#DDE0D1" d="M187.1,87.1c-0.9,0-2.5,0.6-3.3-0.1c-0.1,0,0-0.2,0-0.2c0-0.1,0-0.1,0-0.2c-2.2,2-4.7,3.7-7.3,4.8
		c0.6,0.2,1.3,0.4,1.9,0.6c0.8,0.3,1.3,1.2,0.8,2c-2.2,3.5-4.7,6.9-7.5,10c4.9-1.1,10.1,0.6,14.5,3.5c0.1-0.1,0.3-0.1,0.4-0.2
		c8.4-1.5,14.7-7.4,20.8-12.9c-3.2-3.6-8.3-5.7-12.9-6.7C192.1,87.3,189.6,87.1,187.1,87.1z"/>
	<path fill="#DDE0D1" d="M208.4,107.4c-0.8,0.2-1.3-0.3-1.5-0.8c-2.2-0.9-4.4-1.2-6.8-1.8c-0.1,0-0.2-0.1-0.3-0.1
		c-3.3,2.3-6.8,4.2-10.7,5.1c2.4,2,4.5,4.3,6.1,6.7c0.3,0.5,0.2,1.2-0.2,1.6c-2.4,2.5-5.4,4.4-8.6,5.8c0.7,0.7,1.4,1.4,2,2.2
		c0.2-0.2,0.6-0.3,1-0.1c6.4,3.1,14,3.8,21.5,2.9c0.2-0.2,0.4-0.3,0.7-0.1c0,0,0,0,0.1,0c5.1-0.7,10.2-2.1,14.7-3.9
		c-3.5-4-6.9-8.2-10.7-11.9c-2.1-2.1-4.4-4.1-7-5.5C208.5,107.4,208.5,107.4,208.4,107.4z"/>
	<path fill="#DDE0D1" d="M105.3,175.8c0.9-6.7,1.9-13.7,4.1-20.1c-1.6,1.4-3.2,2.6-4.6,3.7c-0.3,0.2-0.7,0.2-1,0
		c-2.7,5.2-7.1,9.2-12.1,12.3c0.9,3.9-0.1,7.6-0.9,11.5C96.2,181.7,100.6,179,105.3,175.8z"/>
	<path fill="#DDE0D1" d="M148.1,40.3c-1.8,4.9-4.1,9.5-6.9,14c2.1-1.2,4.4-2.1,6.6-2.9c0.7-0.2,1.5,0.4,1.5,1.1
		c0,1.9-0.1,3.9-0.3,5.9c3.5-3.5,8.1-5.2,12.9-5.8c2.9-5.3,3.3-10.8,3.4-16.7C159,35.7,153.2,36.5,148.1,40.3z"/>
	<path fill="#DDE0D1" d="M163.8,54.8c-0.5,0.6-1.2,0.5-1.8,0.1c-4.6,0.5-9.1,2-12.8,5.1c-0.1,0.1-0.3,0.1-0.4,0.1
		c-0.9,6.8-3,13.6-6.6,19.3c3.2-1.6,6.5-3,9.8-4.4c1-0.4,2.1,0.3,1.9,1.4c-0.3,1.2-0.5,2.5-0.8,3.7c10.4-3.8,18.7-13.8,20.5-24.7
		C170.4,54.9,167.1,54.6,163.8,54.8z"/>
	<path fill="#DDE0D1" d="M191.1,71.1c-6.2-3.2-13.1-2.9-19.8-1.8c-0.3,0-0.5,0-0.6-0.1c-4.3,6.5-10.7,11.6-18.1,13.9
		c-0.5,2.5-1,5-1.6,7.4c2.6-2.1,8.6-2,11.1-1.9c3.3,0.2,6.6,0.8,9.8,1.6c0.1,0,0.1-0.1,0.2-0.1C180.7,88,188,79.4,191.1,71.1z"/>
	<path fill="#DDE0D1" d="M139.3,135.7c0.5-0.2,1.2-0.1,1.5,0.4c8.7,2.1,18.6-1.5,25-7.5c-10.3-7.3-19.2-17.6-33-16.7
		c-0.3,0-0.5,0-0.7-0.2c-2.4,0.8-5,1.3-7.7,1.7c0,0.1,0.1,0.2,0.1,0.3c2.2,3,3.3,6.2,3.6,9.4C130.5,128.7,133.6,133.8,139.3,135.7z"
		/>
	<path fill="#DDE0D1" d="M162.9,90.9c-2.5-0.3-5.1-0.4-7.6,0c-1.6,0.3-3.3,1.4-4.9,1.4c-1.1,3.6-2.5,7.1-4.9,10.3
		c-2.2,3-4.8,5.2-7.7,6.8c5.2,0.6,9.8,2.8,14.1,5.5c9.9-4,18.3-11.9,24.1-20.8C171.8,92.7,167.4,91.4,162.9,90.9z"/>
	<path fill="#DDE0D1" d="M156.1,155.1c0.3-0.5,0.9-0.7,1.6-0.3c5.4,3.2,13.1,4.3,19.5,3.3c-1.2-4.7-3.4-9.4-5.7-13.6
		c-1.4-2.6-3-5.3-5.3-7.3c-1.8-1.6-3.3-2.1-5.3-1.8c-2.7,1.5-5.6,2.6-8.6,3.3c1.8,4.1,2.4,8.6,3.1,13
		C155.7,152.8,155.9,154,156.1,155.1z"/>
	<path fill="#DDE0D1" d="M123.2,100.1c-0.2,0.6-0.6,0.8-1.1,0.9c0.8,3.2,1.1,6.6,0.8,10c0.1,0,0.1,0.1,0.1,0.1
		c8.7-1.4,16.3-3.6,21.3-11.5c4.2-6.5,4.9-14,6.4-21.4c-3.9,1.6-7.8,3.2-11.5,5.1c-0.2,0.2-0.4,0.4-0.5,0.6
		c-0.4,0.4-0.8,0.5-1.2,0.3c-1,0.6-2.1,1.2-3.1,1.8c-3,1.9-5.6,4-8,6.5C125.3,95,124,97.4,123.2,100.1z"/>
	<path fill="#DDE0D1" d="M181.1,107.4c-4.2-1.6-7.8-1.4-11.9-0.8c-4.3,4.1-9.2,7.6-14.7,10.1c3.5,2.5,6.8,5.3,10.3,7.9
		c0.1-0.1,0.3-0.1,0.5-0.1c9-0.2,20-1.3,27-7.8C189.5,112.8,185.7,109.1,181.1,107.4z"/>
	<path fill="#DDE0D1" d="M120.3,111.5c0.5-8.8-1.8-17.8-9.1-23.5c-5.6-4.4-12.7-6-19.2-8.5c-0.2,0-0.5-0.1-0.6-0.2
		c-0.5-0.2-0.9-0.4-1.4-0.6C89.7,95.2,105.4,107.4,120.3,111.5z"/>
	<path fill="#DDE0D1" d="M61.8,167.7c0.3-0.1,0.6-0.1,0.8,0.1c1.7-2.9,3.7-5.6,6-7.9c0-0.2,0-0.3,0-0.5c0.7-2.3,1.6-4.6,2.6-6.8
		c-3.2,1.2-6.8,1.5-9.9,1.4c-2.4-0.1-4.8-0.4-7.1-0.9c-4.5,4.4-8.8,9.2-11,15.1C49.6,169.1,55.5,170.3,61.8,167.7z"/>
	<path fill="#DDE0D1" d="M73.1,148.9c2.5-4.7,5.7-9,9.2-13c-3.6-0.5-7.1-1.8-9.9-4.5c0.1,0.4-0.1,0.9-0.7,0.9
		c-5.1-0.3-9.9,2.9-13.7,6.1c-3.5,2.9-6.9,6.2-9.5,10C56,152.8,65.3,152.8,73.1,148.9z"/>
	<path fill="#DDE0D1" d="M76.4,174.3c0.4-5.5,2.8-10.7,4.6-15.9c-3.6,1.3-7.4,2.1-11.3,2.4c-4.1,5.9-7.5,12-10.5,18.4
		C65.3,180,70.8,176.4,76.4,174.3z"/>
	<path fill="#DDE0D1" d="M119.2,57.8c-4,4.3-6.4,10.3-7.9,15.8c-0.6,2.2-1,4.4-1.3,6.7c-0.1,1-0.2,1.9-0.3,2.9c0,0.2,0,0.5-0.1,0.7
		c0.3,0.2,0.6,0.4,0.9,0.5c0.1,0,0.1,0,0.1,0.1c1.6,1.1,3.2,2.3,4.5,3.8c2.6,2.9,4.6,6.1,5.9,9.5c0.4-0.9,0.9-1.7,1.4-2.5
		C125,90,128.8,85,128.3,79C127.7,71.1,123,64.5,119.2,57.8z"/>
	<path fill="#DDE0D1" d="M126.7,42.2c-1.8-5.8-5.2-10.9-8.7-15.9c-0.4,0.4-0.8,0.8-1.2,1.2c0,0,0,0.1,0,0.1
		c-0.1,0.7-0.6,1.1-1.2,1.2c-5.4,6.2-9,13.1-10.3,21.5c3.5,4.1,6.5,8.8,6.9,13.8c1.6-3.4,3.5-6.7,6.3-9.3c0.6-0.5,1.5-0.5,1.9,0.2
		c1.2,2.1,2.5,4.3,3.9,6.5C127.1,55.5,128.7,48.8,126.7,42.2z"/>
	<path fill="#DDE0D1" d="M91,58c-1.7,6.3,0.9,12.8,1.7,19.1c5.1,2,10.6,3.4,15.4,5.9c-0.2-1.8,0.1-3.7,0.1-5.5
		c0-3.3,1.5-7.1,2.8-10.4c-0.6,0-1.1-0.4-1-1.1c0.3-7.8-6.8-14.7-11.9-20.2C96,50,92.3,53.4,91,58z"/>
	<path fill="#DDE0D1" d="M79.1,175.2c9.6-3.5,18.4-9.1,23.3-18.4c-1-3.3-1.4-7.1-1.3-11c-3.5,4.4-8.7,7.6-13.6,9.9
		c-1.5,0.7-3.1,1.4-4.7,2c-1,5.5-3.8,10.6-4.3,16.2C79,174.1,79.2,174.7,79.1,175.2z"/>
</g>
</svg>
