<?xml version="1.0" encoding="utf-8"?>
<!-- Generator: Adobe Illustrator 18.0.0, SVG Export Plug-In . SVG Version: 6.00 Build 0)  -->
<!DOCTYPE svg PUBLIC "-//W3C//DTD SVG 1.1//EN" "http://www.w3.org/Graphics/SVG/1.1/DTD/svg11.dtd">
<svg version="1.1" id="Layer_1" xmlns="http://www.w3.org/2000/svg" xmlns:xlink="http://www.w3.org/1999/xlink" x="0px" y="0px"
	 width="223px" height="211px" viewBox="0 0 223 211" enable-background="new 0 0 223 211" xml:space="preserve">
<g opacity="0.8">
	<g>
		<path fill="#F8A7A0" d="M113.6,103.9c-4.9-2.4-9-6.1-13.2-9.5c-5.2-4.3-10.5-8.7-15.7-13.1c-8.5-7.2-15.8-15.7-27-18.5
			c-5.1-1.3-10.6-1.1-15.8-0.9c-5.9,0.2-11.8,1.2-17.3,3.3C15.5,68.9,9.3,77,9.5,87c0,1.4,2.1,1.4,2.1,0
			c-0.2-11.7,8.6-18.7,19.1-21.4c9.8-2.6,22.6-2.9,32,1.2c4.4,1.9,8.2,5,11.8,8.2c4.5,4.1,9.1,8.2,13.8,12.1
			c7.6,6.3,15.2,14.2,24.2,18.6C113.8,106.3,114.8,104.5,113.6,103.9L113.6,103.9z"/>
	</g>
	<g>
		<path fill="#F8A7A0" d="M9.5,85.9C9.4,88,9.8,90,10.3,92.1c0.6,3.1,0.1,6-1.2,8.9c-1.8,4-4.7,7.5-6.8,11.4c-1.7,3.2-3,7.1-2,10.7
			c0.9,3.3,5,5.1,7,7.6c0.8,1.1,2.3-0.4,1.5-1.5c-2.5-3.1-6.8-4.7-6.7-9.1c0-4.5,3.2-8.8,5.5-12.4c1.9-3,3.7-6,4.7-9.5
			c1.2-4.2-0.9-8.1-0.7-12.3C11.7,84.6,9.6,84.6,9.5,85.9L9.5,85.9z"/>
	</g>
	<g>
		<path fill="#F8A7A0" d="M6.7,130.2c2.1,9.7,5.7,19.5,12.9,26.5c7.8,7.7,19.6,9.8,29.1,4c1.2-0.7,0.1-2.5-1.1-1.8
			c-9.5,5.7-20.4,2.7-27.8-5c-6.2-6.5-9.3-15.7-11.1-24.3C8.5,128.3,6.4,128.9,6.7,130.2L6.7,130.2z"/>
	</g>
	<g>
		<path fill="#F8A7A0" d="M48.8,160.9c6.6-4,12.3-9.2,18.6-13.6c6.3-4.4,13.3-7.7,19.7-11.9c5.7-3.8,11-8.2,15.5-13.4
			c4.3-5.1,9.1-10.6,11.6-16.9c0.5-1.3-1.5-1.8-2-0.6c-2.6,6.5-7.9,12.4-12.6,17.7c-4.4,5-9.8,9-15.4,12.6
			c-5.8,3.8-12,6.8-17.8,10.7c-6.4,4.3-11.9,9.6-18.6,13.6C46.5,159.8,47.6,161.6,48.8,160.9L48.8,160.9z"/>
	</g>
	<g>
		<path fill="#F8A7A0" d="M47,160c-6.2,7.7,1.4,17.8,7.5,22.8c4.3,3.5,9.4,5.9,14.3,8.5c6.3,3.4,12.8,6.4,19.2,9.7
			c5.3,2.7,10,6.3,15.4,8.6c4.6,2,9.2,1.7,13.9,0.2c8.4-2.7,13.3-9.7,11.5-18.4c-0.3-1.3-2.3-0.8-2,0.6c1.8,9.1-4.6,14.6-12.8,16.6
			c-9.5,2.3-18.3-6.1-26.2-10.1c-8.9-4.5-17.9-8.7-26.6-13.7c-6.5-3.7-19.5-14.8-12.7-23.3C49.4,160.4,47.9,158.9,47,160L47,160z"/>
	</g>
	<g>
		<path fill="#F8A7A0" d="M112.2,105.4c3.6,6.4,5.4,13.5,7.8,20.4c2.7,7.9,6.8,15,7.2,23.5c0.3,7.9-2.9,15.4-3.2,23.3
			c-0.2,6.9,0.7,13.6,2.8,20.2c0.4,1.3,2.5,0.7,2-0.6c-2.2-7.1-3.3-14.5-2.6-21.9c0.7-8,3.5-15.3,2.9-23.4
			c-0.6-7.7-4.7-14.5-7.1-21.6c-2.5-7.1-4.3-14.3-8-20.9C113.3,103.1,111.5,104.2,112.2,105.4L112.2,105.4z"/>
	</g>
	<g>
		<path fill="#F8A7A0" d="M126.8,192.7c1.4,7.5,10.7,11.3,17.5,10.9c9.2-0.6,19.3-6,25.7-12.5c0.9-1-0.5-2.5-1.5-1.5
			c-5.4,5.6-12.8,9.4-20.3,11.3c-6.8,1.7-17.8-0.3-19.4-8.7C128.6,190.8,126.5,191.4,126.8,192.7L126.8,192.7z"/>
	</g>
	<g>
		<path fill="#F8A7A0" d="M169.8,190.6c0-0.1,0-0.1,0-0.2c-0.3,0.3-0.7,0.5-1,0.8c1.3,0,3.8,2,5.1,2.6c3,1.2,6.5,1.7,9.7,2
			c3.7,0.3,7.5-1.3,9.8-4.3c2.4-3.4,3.2-7.5,3.5-11.5c0.3-5.1,0.1-10.9-2.3-15.4c-0.6-1.2-2.4-0.1-1.8,1.1c2.2,4.3,2.2,9.7,2,14.4
			c-0.2,3.8-1,7.8-3.5,10.8c-3.3,4-8.9,3-13.3,2c-2.2-0.5-4.3-1.2-6.2-2.3c-0.9-0.5-1.8-1.3-2.9-1.3c-0.4,0-0.9,0.3-1,0.8
			c0,0.1,0,0.1,0,0.2C167.5,191.4,169.5,191.9,169.8,190.6L169.8,190.6z"/>
	</g>
	<g>
		<path fill="#F8A7A0" d="M112.9,105.4c3.7,5.1,7.7,10,11.9,14.7c4.1,4.7,8,9.5,12.7,13.7c9.6,8.8,21,16.5,32.1,23.3
			c8,4.9,19.9,11.3,29.5,7.1c9.9-4.4,11.2-17.5,10.6-27c-0.1-1.4-2.2-1.4-2.1,0c0.7,10-1.1,24.7-13.5,26
			c-10.6,1.1-21.5-6.5-29.8-12.1c-9.6-6.5-19.5-13.2-27.8-21.3c-3.6-3.5-6.7-7.5-10-11.3c-4-4.6-8-9.3-11.5-14.3
			C113.9,103.2,112.1,104.2,112.9,105.4L112.9,105.4z"/>
	</g>
	<g>
		<path fill="#F8A7A0" d="M113.5,105.8c8,2.8,16.4,4.5,24.8,5.4c9.7,1,19.3-0.9,29-0.9c8.5,0,17.3,0.3,25.3,3.7
			c9.8,4.2,13,13.8,14.9,23.5c0.3,1.3,2.3,0.8,2-0.6c-1.6-8.6-4.3-17.1-11.7-22.5c-6.7-4.8-15.8-5.8-23.9-6.1
			c-10.8-0.5-21.6,1.5-32.4,1c-9.3-0.4-18.7-2.6-27.4-5.6C112.8,103.4,112.2,105.4,113.5,105.8L113.5,105.8z"/>
	</g>
	<g>
		<path fill="#F8A7A0" d="M114.8,105.1C120,91,122.6,75.9,128.4,62c3.7-8.7,9.6-16.9,17.3-22.5c9.6-7,21-6.4,30.7,0
			c1.1,0.8,2.2-1.1,1.1-1.8c-8.6-5.7-18.2-7.2-27.7-3c-9.1,4-15.9,12.6-20.6,21c-4.1,7.2-6.2,15.3-8.6,23.2
			c-2.5,8.5-4.8,17.2-7.9,25.6C112.3,105.8,114.3,106.4,114.8,105.1L114.8,105.1z"/>
	</g>
	<g>
		<path fill="#F8A7A0" d="M176,39.3c3.7,1.6,7.9,1,11.4,2.8c3.1,1.5,4.5,4.9,5.8,7.9c1.1,2.6,2.3,5,4.3,7c2.8,2.7,6.9,3.3,8.1,7.6
			c0.4,1.3,2.4,0.8,2-0.6c-0.9-3.2-3.2-5.1-5.9-6.7c-3.8-2.3-5.3-5.1-7-9c-1.1-2.6-2.4-5.3-4.8-7c-3.9-2.8-8.6-1.9-12.8-3.7
			C175.8,36.9,174.7,38.7,176,39.3L176,39.3z"/>
	</g>
	<g>
		<path fill="#F8A7A0" d="M206,64c0.4,2.9,1,5.6,1.3,8.5c0.2,2.2,0.5,4.2,1.7,6.1c1.2,1.9,3.4,3,5.3,4c3.8,1.9,5.9,4.2,6.5,8.5
			c0.8,5.9,0.1,12.8-1.4,18.5c-1.7,6.3-7.3,14-14.3,14.7c-1.3,0.1-1.4,2.2,0,2.1c13.4-1.3,17.6-17.5,17.8-28.5
			c0.1-5.1,0.6-11.6-4.1-15c-3.3-2.4-7.9-3.3-9.1-7.7c-0.5-1.9-0.4-4-0.6-5.9c-0.2-1.8-0.8-3.5-1-5.2C207.9,62.6,205.8,62.6,206,64
			L206,64z"/>
	</g>
	<g>
		<path fill="#F8A7A0" d="M113.1,103.8c-10.6-1.4-20.7-5.1-30.2-9.9c-8.5-4.3-17.3-9.4-23.7-16.6c-6.4-7.3-9.3-18-10.3-27.5
			c-1.2-11.4,3.9-19.7,11.8-27.4c1-0.9-0.5-2.4-1.5-1.5c-7.7,7.4-12.8,15.4-12.6,26.4c0.2,10.1,3.6,21.6,9.7,29.7
			c6.1,8.1,15.6,13.4,24.4,18.1c10.1,5.3,21,9.3,32.3,10.8C114.4,106.1,114.4,103.9,113.1,103.8L113.1,103.8z"/>
	</g>
	<g>
		<path fill="#F8A7A0" d="M60,23.4c7.5-6.7,15.5-10.3,25.4-12c4.7-0.8,9.2-1.6,13.6-3.3c4.4-1.7,8.6-3.7,13.2-4.9
			c9.1-2.6,17.8,0.4,24.6,6.7c7.1,6.6,10.4,15.9,11.3,25.3c0.1,1.3,2.2,1.4,2.1,0c-1-9.5-4-18.2-10.5-25.3
			c-5.9-6.6-14.4-10.4-23.3-9.6c-4.7,0.4-9.3,2.3-13.6,4.1c-5.5,2.3-10.8,3.9-16.7,4.9C81,10,76,11,71.2,13.2
			c-4.7,2.1-8.8,5.3-12.6,8.7C57.5,22.8,59,24.3,60,23.4L60,23.4z"/>
	</g>
	<g>
		<path fill="#F8A7A0" d="M148.2,36.2c0,7.5,0.5,15-1.4,22.3c-1.9,7.2-7.2,12.2-11.1,18.2c-3.5,5.5-6.3,11.4-9.5,16.9
			c-2.8,4.8-8.2,7.5-12.9,10.1c-1.2,0.7-0.1,2.5,1.1,1.8c4.3-2.5,9.2-4.9,12.3-9c4.3-5.7,7.1-12.7,10.9-18.8
			c3.7-5.9,8.7-10.7,10.9-17.4c2.5-7.8,2-16.1,1.9-24.2C150.3,34.9,148.2,34.9,148.2,36.2L148.2,36.2z"/>
	</g>
	<g>
		<path fill="#F8A7A0" d="M52.3,29.9c-3,8.4-1.1,17.1,1.9,25.2c2.9,7.6,6.7,15,12.1,21.1c12.9,14.4,32,20.2,48.8,28.7
			c0.8,0.4,1.5-0.8,0.7-1.2c-15.8-8-33-13.5-46-26c-6-5.8-10.1-13-13.3-20.7c-3.5-8.4-6-17.7-2.8-26.7C54,29.4,52.6,29,52.3,29.9
			L52.3,29.9z"/>
	</g>
	<g>
		<path fill="#F8A7A0" d="M62.7,20c-2.5,8.3-4.7,16.2-3,24.8c1.6,8.4,6.4,15.6,12.5,21.5c13.5,13,31.9,21.8,40.6,39.1
			c0.3,0.6,1.3,0.3,1.3-0.4c0-0.2,0-0.5,0-0.7c0-0.9-1.4-0.9-1.4,0c0,0.2,0,0.5,0,0.7c0.4-0.1,0.9-0.2,1.3-0.4
			C106.2,89.2,90.4,80,77.4,69.1c-7-5.8-12.5-12.3-15.4-21c-3.2-9.5-0.7-18.5,2.1-27.7C64.3,19.5,63,19.2,62.7,20L62.7,20z"/>
	</g>
	<g>
		<path fill="#F8A7A0" d="M67.3,16.3c0.2,4.1-0.4,8.2,0,12.3c0.4,3.7,1.2,7.4,2.1,11.1c1.9,8.2,4.7,14.9,9.9,21.6
			c5.3,6.8,10.5,13.6,15.8,20.4c5.9,7.5,10.6,15.6,16.4,23.2c0.4,0.5,1.3,0.4,1.3-0.4c0-0.2,0-0.4,0-0.5c0-0.9-1.4-0.9-1.4,0
			c0,0.2,0,0.4,0,0.5c0.4-0.1,0.9-0.2,1.3-0.4c-4.7-6.2-8.4-13-13.1-19.2c-5.4-7-10.8-14.1-16.3-21c-2.6-3.3-5.2-6.5-7.3-10.1
			c-2.3-3.8-3.4-8-4.5-12.2c-1.1-4-1.9-8.1-2.5-12.1c-0.7-4.4,0.1-8.9-0.1-13.3C68.6,15.4,67.2,15.4,67.3,16.3L67.3,16.3z"/>
	</g>
	<g>
		<path fill="#F8A7A0" d="M71.5,14.7c-1.4,7.8-0.3,14,3,21.1c3.6,7.9,7.6,15.7,11.8,23.2c4.1,7.4,8.8,14.5,13.8,21.2
			c5.4,7.2,12.1,13.9,12.9,23.4c0.1,0.9,1.4,0.9,1.4,0c0-0.1,0-0.2,0-0.4c0-0.9-1.4-0.9-1.4,0c0,0.1,0,0.2,0,0.4c0.5,0,0.9,0,1.4,0
			c-0.6-7-4.2-12.8-8.5-18.3c-5.4-7-10.6-14-15.2-21.6c-4.4-7.1-7.9-14.7-11.7-22.1c-2-3.9-4.1-7.9-5.5-12.1
			c-1.7-4.9-1.5-9.5-0.6-14.6C73,14.2,71.7,13.8,71.5,14.7L71.5,14.7z"/>
	</g>
	<g>
		<path fill="#F8A7A0" d="M72.2,14c-0.3,2.1,2.7,4.3,3.8,5.8c2.5,3.3,4.8,6.7,6.7,10.4c4,7.7,6,16.3,9.7,24.1
			c3.9,8.2,9,15.7,13.1,23.7c2.1,4.1,3.8,8.4,5,12.9c1.2,4.6,2.7,9.3,2.9,14c0,0.9,1.4,0.9,1.4,0c0-0.2,0-0.5,0-0.7
			c0-0.9-1.4-0.9-1.4,0c0,0.2,0,0.5,0,0.7c0.5,0,0.9,0,1.4,0c-0.1-3.7-1.2-7.1-2.1-10.8c-1-4.1-2.1-8-3.7-11.9
			c-3.4-8.1-8.4-15.4-12.5-23.2c-4.4-8.1-7-16.6-10.5-25c-1.4-3.5-3.2-6.8-5.2-10c-1.1-1.7-2.4-3.4-3.6-5c-0.7-0.9-3.8-3.8-3.7-4.7
			C73.7,13.5,72.4,13.1,72.2,14L72.2,14z"/>
	</g>
	<g>
		<path fill="#F8A7A0" d="M76.1,13.3c6,5,10.3,10.8,13.8,17.7c4,7.8,6.4,16.3,9.4,24.6c2.8,7.7,5.6,15.4,8.3,23.2
			c1.3,3.8,2.5,7.7,3.8,11.6c1.2,3.6,3.1,8.8,1.8,12.5c-0.3,0.9,1.1,1.2,1.4,0.4c1-2.7,0.2-5.4-0.4-8.1c-0.8-4.3-2.6-8.5-3.9-12.8
			c-2.9-9.1-6.3-18.1-9.5-27.1c-5.7-15.8-10.3-31.7-23.6-42.9C76.4,11.7,75.4,12.7,76.1,13.3L76.1,13.3z"/>
	</g>
	<g>
		<path fill="#F8A7A0" d="M88.1,9.8c0.3,1,0.8,1.6,1.5,2.4c1.7,1.8,2.6,3.7,3.3,6.1c1.3,4,2,8.3,2.8,12.4c1.7,8.9,2.8,17.9,5,26.7
			c1.1,4.3,2.6,8.4,3.8,12.7c1.1,4.1,2,8.3,3.1,12.5c1.1,4.3,1.9,8.6,3,12.9c0.6,2.4,0.3,5.1,1.7,7.2c0.5,0.8,1.7,0.1,1.2-0.7
			c-1.2-1.9-1.1-4.7-1.5-6.9c-0.8-4.3-1.8-8.7-3-12.9c-1.1-4.1-2-8.3-3.1-12.5c-1.1-4.3-2.6-8.4-3.8-12.7c-2.3-8.8-3.3-17.8-5-26.7
			c-0.8-4.2-1.7-8.3-2.8-12.4c-0.4-1.5-1.1-2.9-1.8-4.3c-0.8-1.5-2.5-2.5-3-4.1C89.1,8.6,87.8,9,88.1,9.8L88.1,9.8z"/>
	</g>
	<g>
		<path fill="#F8A7A0" d="M90.9,9.3c0.2,1.2,0.6,2,1.3,3c1.2,1.9,2.1,4,2.8,6.1c1.4,3.9,2.6,7.9,4.1,11.8c3,7.8,5.8,15.2,7.3,23.5
			c1.4,8.2,3.1,16.4,5,24.6c1.7,7.4,5.6,15.7,3,23.3c-0.3,0.9,1.1,1.2,1.4,0.4c2.1-6.4-0.1-13.1-1.9-19.3c-2.3-8.3-4-16.9-5.5-25.4
			c-1.5-8.7-3.7-16.8-7-25c-1.5-3.9-2.9-7.9-4.2-11.9c-0.6-1.9-1.3-3.7-2-5.6c-0.8-2-2.4-3.7-2.8-5.8C92.1,8,90.8,8.4,90.9,9.3
			L90.9,9.3z"/>
	</g>
	<g>
		<path fill="#F8A7A0" d="M93.7,8.6c2.2,2.3,4.9,3.9,7,6.3c2.7,3.1,4.5,7.1,6.1,10.8c3.1,7.6,4.7,15.8,6,23.8c1.5,8.7,3,17.2,3.5,26
			c0.5,8.5-0.8,16.6-3,24.8c0.5,0.1,0.9,0.1,1.4,0.2c0.1-0.2,0.1-0.5,0.2-0.7c0.3-0.9-1.1-1.2-1.4-0.4c-0.2,0.4-0.2,0.6-0.2,1.1
			c0,0.8,1.2,0.9,1.4,0.2c2.2-7.9,3.4-15.7,3.1-23.9c-0.3-8.9-1.9-17.5-3.4-26.3c-1.5-8.9-3.3-17.9-6.7-26.3
			c-1.3-3.3-3.1-6.5-5.2-9.3c-2.2-3-5.3-4.7-7.8-7.3C94.1,6.9,93.1,7.9,93.7,8.6L93.7,8.6z"/>
	</g>
	<g>
		<path fill="#F8A7A0" d="M98.6,7.3c3.5,1,7,2.1,10.1,4.1c3.8,2.4,6.1,6.7,7.6,10.8c2.9,7.6,3.8,16.3,4.1,24.3
			c0.3,8.6,0.7,17.4-0.2,26c-0.9,9.2-3.9,18.6-6.8,27.4c0.3-0.1,0.7-0.3,1-0.4c0.1,0.1,0.1,0.2,0.2,0.3c-0.1-0.9-1.5-0.9-1.4,0
			c0,0.5,0.1,0.7,0.5,1c0.4,0.3,0.9,0,1-0.4c3-9,5.7-18.4,6.9-27.8c1.2-10.2,0.6-21.3-0.2-31.5c-0.6-7.5-2-15.4-5.1-22.2
			C112.9,11.2,106.5,8.2,99,6C98.1,5.7,97.8,7.1,98.6,7.3L98.6,7.3z"/>
	</g>
	<g>
		<path fill="#F8A7A0" d="M111.1,2.8c9.8-0.5,11,16.4,11.4,22.8c0.7,11-1.2,21.5-4.6,31.9c-2.9,9-6,17.7-8,27
			c-1.3,6.3-2.6,14,1.9,19.3c0.6,0.7,1.6-0.3,1-1c-5.8-6.8-1.5-19.5,0.6-27.2c2.8-10.4,7.3-20.4,9.4-31c2-9.9,1.7-20.7-0.5-30.6
			c-1.3-5.6-4.4-13.1-11.2-12.7C110.2,1.4,110.2,2.8,111.1,2.8L111.1,2.8z"/>
	</g>
	<g>
		<path fill="#F8A7A0" d="M122.1,2.5c2.7,2.3,4.1,6.8,5.4,10c1.5,3.9,2.1,7.8,1.9,11.9c-0.3,8.1-2,16.5-3.9,24.3
			c-1.9,7.8-3.1,15.8-4.9,23.7c-1.8,8-4.6,15.7-6.3,23.7c-0.2,0.9,1.2,1.3,1.4,0.4c1.9-8.9,5-17.4,6.9-26.3
			c1.9-8.8,3.6-17.6,5.5-26.4c1.7-7.7,3.3-16.3,2.7-24.2c-0.3-3.5-1.5-6.9-2.9-10c-1.3-2.8-2.3-6.1-4.7-8.1
			C122.4,0.9,121.4,1.9,122.1,2.5L122.1,2.5z"/>
	</g>
	<g>
		<path fill="#F8A7A0" d="M128.1,3.4c3.4,2.9,4.7,8.4,5.8,12.5c1.2,4.2,2.1,8.5,2.8,12.8c1.3,8.7,2.8,18,1.9,26.7
			c-0.8,8.7-6.6,15.8-11.6,22.6c-5.4,7.4-10.4,15.2-15.2,23.1c-0.5,0.8,0.7,1.5,1.2,0.7c5-8.2,10.2-16.3,15.9-24
			c5.1-6.9,9.9-13.7,11.1-22.4c1.2-9.2-0.9-19.3-2.2-28.4c-0.7-4.8-1.9-9.4-3.3-14c-1.1-3.6-2.5-8.2-5.4-10.7
			C128.4,1.9,127.4,2.9,128.1,3.4L128.1,3.4z"/>
	</g>
	<g>
		<path fill="#F8A7A0" d="M148.5,45c-0.9,2.7-0.9,5.5-1.8,8.2c-1.2,3.5-2.8,6.8-4.5,10.1c-3,5.6-7.1,10.4-11.2,15.2
			c-3.7,4.3-7.4,8.5-10.6,13.2c-1.8,2.7-3.5,5.5-5.5,8c-0.8,1-1.8,2-1.8,3.4c0,0.9,1.4,0.9,1.4,0c0-1.6,3.4-5.1,4.2-6.2
			c1.7-2.5,3.2-5,5-7.4c3.7-5.1,8.1-9.7,12.1-14.5c3.4-4.1,6.3-8.4,8.7-13.2c1.2-2.3,2.2-4.6,3.1-7c1.2-3.1,1.3-6.2,2.2-9.3
			C150.1,44.5,148.8,44.2,148.5,45L148.5,45z"/>
	</g>
	<g>
		<path fill="#F8A7A0" d="M176,37.5c-7.5,0.3-14.7,3.8-21.2,7.1c-7.1,3.6-13.6,8.1-19,13.9c-5.1,5.5-8.5,12.6-11.9,19.2
			c-4,7.7-6.6,15.6-8.6,24c-0.2,0.9,1.1,1.3,1.4,0.4c1.9-7.8,4.3-15.2,7.9-22.5c3.3-6.6,6.7-13.6,11.5-19.2
			c4.7-5.6,10.9-9.8,17.3-13.3c6.8-3.8,14.8-7.8,22.7-8C176.9,38.8,176.9,37.4,176,37.5L176,37.5z"/>
	</g>
	<g>
		<path fill="#F8A7A0" d="M176.5,37.8c-14,5.1-25,18-35,28.4c-5.4,5.6-10.6,11.1-15.1,17.6c-4.4,6.4-9.1,12.7-11.9,20
			c0.5,0.1,0.9,0.1,1.4,0.2c-0.1,0.1-0.1,0.2-0.2,0.3c0.7-0.5,0-1.7-0.7-1.2c-0.4,0.3-0.5,0.5-0.5,1c-0.1,0.8,1.1,0.9,1.4,0.2
			c2.6-6.8,7-12.7,11-18.7c4.3-6.4,9.3-11.8,14.6-17.3c5.1-5.3,10.2-10.7,15.7-15.7c5.7-5.2,12.3-10.7,19.6-13.4
			C177.7,38.9,177.3,37.5,176.5,37.8L176.5,37.8z"/>
	</g>
	<g>
		<path fill="#F8A7A0" d="M176,38.6c-1.9,1.2-2.2,3.4-3.3,5.3c-2,3.6-4.7,6.5-7.5,9.5c-5.8,6.3-11.6,12.5-17.9,18.3
			c-6.1,5.5-12.5,10.7-18.7,16.2c-5.1,4.6-10.9,8.5-15,14.1c-0.5,0.7,0.6,1.4,1.1,0.9c0.1-0.1,0.2-0.2,0.4-0.4c0.6-0.6-0.4-1.6-1-1
			c-0.1,0.1-0.2,0.2-0.4,0.4c0.4,0.3,0.7,0.6,1.1,0.9c4-5.5,9.8-9.2,14.8-13.8c5.8-5.3,11.9-10.2,17.7-15.3c6-5.3,11.5-11.2,17-17.1
			c2.4-2.6,4.9-5.1,7.1-7.9c0.9-1.2,1.7-2.6,2.5-3.9c0.9-1.5,1.2-3.8,2.8-4.8C177.4,39.4,176.7,38.1,176,38.6L176,38.6z"/>
	</g>
	<g>
		<path fill="#F8A7A0" d="M184.3,40c-0.7,0.7-1,1.3-1.3,2.2c-0.7,2.1-1.8,3.9-3,5.7c-2.4,3.6-5.9,6.5-9.2,9.2
			c-6.3,5.2-13.3,9.5-19.5,15c-6.1,5.4-11.3,11.6-17.5,16.8c-6.5,5.5-14.2,9-21.2,13.8c0.2,0.4,0.5,0.8,0.7,1.2
			c0.3-0.2,0.4-0.3,0.6-0.6c0.5-0.8-0.7-1.5-1.2-0.7c0,0-0.1,0.1-0.1,0.1c-0.7,0.5,0,1.7,0.7,1.2c6.4-4.4,13.5-7.6,19.6-12.5
			c6.7-5.3,12.3-11.7,18.5-17.5c6-5.6,13-10,19.4-15.1c3.2-2.5,6.1-5.2,8.8-8.2c1.1-1.2,2-2.6,2.8-4c1-1.6,1.5-4.4,2.9-5.7
			C185.9,40.3,184.9,39.3,184.3,40L184.3,40z"/>
	</g>
	<g>
		<path fill="#F8A7A0" d="M193.8,50c-16.1,1.1-26.4,13.9-37.6,23.8c-6.7,5.8-13.2,11.7-20.6,16.7c-3.5,2.3-7,4.5-10.6,6.7
			c-3.9,2.5-8.2,5.4-12.8,6.3c-0.9,0.2-0.5,1.5,0.4,1.4c7.4-1.4,14.3-7.1,20.6-11.1c6.9-4.3,13-9.3,19.1-14.7
			c6.3-5.5,12.3-11.3,18.5-16.8c6.3-5.6,14.4-10.2,23-10.7C194.7,51.3,194.7,49.9,193.8,50L193.8,50z"/>
	</g>
	<g>
		<path fill="#F8A7A0" d="M197.5,54.4c-7.1-0.2-13.3,4.6-18.4,8.9c-7,5.9-14,11.6-21.2,17.2c-7.4,5.8-14.7,11.1-23,15.5
			c-4.3,2.3-8.6,4.5-13.3,5.9c-3.7,1.1-7.2,1.8-10.6,3.9c-0.8,0.5-0.1,1.7,0.7,1.2c3.5-2.2,7.5-2.9,11.4-4.1
			c3.6-1.1,6.9-2.8,10.2-4.6c7.7-3.9,15-8.2,21.7-13.7c6.5-5.4,13.5-10.1,19.8-15.7c6.2-5.5,13.8-13.5,22.7-13.1
			C198.4,55.8,198.4,54.4,197.5,54.4L197.5,54.4z"/>
	</g>
	<g>
		<path fill="#F8A7A0" d="M205.6,61.5c-5.4-3.4-13.6,1.2-18.7,3.3c-8.3,3.6-16.5,7.5-24.8,11.2c-8.3,3.7-15.4,8.9-22.8,14.1
			c-7.9,5.6-16.6,9.1-25.4,12.9c-0.8,0.4-0.1,1.6,0.7,1.2c7.5-3.3,15.2-6.3,22.1-10.7c6.9-4.4,13.1-9.7,20.4-13.6
			c7-3.8,14.7-6.6,21.9-10c4.4-2.1,8.8-4.1,13.3-5.8c3.6-1.4,8.8-3.7,12.5-1.4C205.6,63.2,206.3,62,205.6,61.5L205.6,61.5z"/>
	</g>
	<g>
		<path fill="#F8A7A0" d="M207.3,65.1c-7.8,0-15.7,4.3-22.8,7c-8.1,3.2-15,8.2-22.5,12.6c-7.9,4.8-16.1,9.2-24.3,13.5
			c-7.5,3.9-16.5,9.3-25.2,7.5c-0.9-0.2-1.3,1.2-0.4,1.4c6.8,1.4,13.5-1.4,19.6-4.2c8.2-3.9,16.2-8.4,24.1-12.9
			c7.9-4.5,15.4-10,23.5-14.1c4.4-2.2,9-3.7,13.6-5.5c4.7-1.8,9.3-3.9,14.3-3.9C208.2,66.5,208.2,65.1,207.3,65.1L207.3,65.1z"/>
	</g>
	<g>
		<path fill="#F8A7A0" d="M206.6,67.6c-13.5,11.7-30,18.8-46.6,25.3c-7.9,3.1-15.7,6.4-23.6,9.4c-8.1,3.1-17.5,5.5-25.8,2
			c-0.8-0.4-1.5,0.9-0.7,1.2c7.1,3,14.9,2.1,22-0.1c9.3-2.9,18.2-7.2,27.2-10.7c17.2-6.6,34.4-14,48.5-26.2
			C208.3,68,207.3,67,206.6,67.6L206.6,67.6z"/>
	</g>
	<g>
		<path fill="#F8A7A0" d="M210,76.8c-6.9-0.2-13.7,5.5-19.3,8.8c-8.3,4.8-16.9,8.7-26,11.6c-8.9,2.9-17.7,6.2-27.1,7.2
			c-9,1-17.6,2.4-25.9-2.3c-0.8-0.5-1.5,0.8-0.7,1.2c7.2,4.1,14.9,4,22.9,2.9c4.2-0.6,8.4-0.8,12.5-1.8c4.6-1.1,9.1-2.8,13.6-4.2
			c8.8-2.8,17.4-5.8,25.7-10.2c4.2-2.2,8.3-4.7,12.5-7.1c3.7-2.1,7.4-4.8,11.8-4.7C210.9,78.2,210.9,76.8,210,76.8L210,76.8z"/>
	</g>
	<g>
		<path fill="#F8A7A0" d="M219.3,84c-3.2-0.6-6.7,0.5-9.8,1.3c-4.7,1.3-9.4,2.9-14.1,4.3c-9,2.7-17.7,5.9-26.5,9
			c-8.8,3.1-17.8,5.4-27,6.2c-5,0.4-10.1,0.2-15-0.9c-4.4-1-8.7-2.9-12.9-4.5c-0.9-0.3-1.2,1-0.4,1.4c8.2,3.1,15.6,5.6,24.5,5.5
			c8.5,0,17-2,25.1-4.4c8.8-2.7,17.3-6.3,26.1-9c4.8-1.5,9.6-2.9,14.5-4.4c4.5-1.4,10.4-4.2,15.2-3.2
			C219.8,85.5,220.2,84.2,219.3,84L219.3,84z"/>
	</g>
	<g>
		<path fill="#F8A7A0" d="M221.4,86.6c-8.4,0.7-16.6,4.6-24.5,7.4c-8.7,3.1-17.1,6.9-25.9,9.7c-8.4,2.7-17.3,3.8-26,5.4
			c-4.8,0.9-9.5,1.1-14.3,0c-4.6-1.1-8.9-3.3-13.1-5.4c-0.8-0.4-1.5,0.8-0.7,1.2c7.4,3.8,14.8,6.9,23.3,6.3
			c4.3-0.3,8.5-1.4,12.8-2.1c4.6-0.8,9.1-1.4,13.6-2.5c9.2-2.4,17.9-6.5,26.9-9.8c4.5-1.7,9.1-3.2,13.7-4.8
			c4.7-1.7,9.3-3.4,14.3-3.8C222.3,88,222.3,86.5,221.4,86.6L221.4,86.6z"/>
	</g>
	<g>
		<path fill="#F8A7A0" d="M221.1,89.8c-2,0.1-4.2,1.5-6,2.4c-3.4,1.8-6.6,3.7-9.9,5.7c-4.3,2.6-8.2,6-12.6,8.3
			c-5.3,2.7-11.4,2.1-17.1,2.1c-0.9,0-0.9,1.4,0,1.4c4.6,0.1,9.1,0.3,13.6-0.7c4.8-1.1,8.6-4.2,12.5-6.9c3.4-2.3,6.9-4.4,10.4-6.5
			c2.5-1.4,6.2-4.3,9.1-4.4C222,91.2,222,89.8,221.1,89.8L221.1,89.8z"/>
	</g>
	<g>
		<path fill="#F8A7A0" d="M221.8,97.7c-1.3,0.4-2.3,1.7-3.3,2.6c-1.8,1.7-3.6,3.3-5.5,5c-3.1,2.7-6.6,4.9-10.5,6.4
			c-1.5,0.6-7.3,2.6-8.7,1c-0.6-0.7-1.6,0.3-1,1c1.1,1.3,3.4,0.8,4.9,0.6c3.4-0.5,6.5-1.7,9.5-3.3c3.1-1.7,5.9-4,8.5-6.3
			c1.8-1.5,4-4.9,6.3-5.7C223,98.8,222.6,97.4,221.8,97.7L221.8,97.7z"/>
	</g>
	<g>
		<path fill="#F8A7A0" d="M220.7,108.5c-3.7,1.3-6.9,3.3-10.7,4.3c-2.4,0.6-4.9,0.6-7.4,0.6c-2.2,0-4.7,0.3-6.8-0.4
			c-0.9-0.3-1.2,1.1-0.4,1.4c3.6,1.2,8.6,0.5,12.3,0.2c5-0.4,8.7-3.2,13.3-4.8C221.9,109.5,221.6,108.2,220.7,108.5L220.7,108.5z"/>
	</g>
	<g>
		<path fill="#F8A7A0" d="M201.9,118.7c-3-0.6-6.2-2.2-9.2-3.1c-3.8-1.1-7.5-2.2-11.4-2.8c-7.4-1.2-15-1.3-22.5-2.1
			c-7.8-0.8-15.9,0.1-23.6-1.6c-8.2-1.8-15.4-5.4-22.7-9.3c-0.8-0.4-1.5,0.8-0.7,1.2c6.6,3.6,13.2,7.1,20.5,8.8
			c7.6,1.8,14.9,1.4,22.5,2c7.9,0.6,15.8,1.2,23.7,2.1c4.3,0.5,8.4,1.5,12.5,2.7c1.7,0.5,3.3,1,5,1.5c1.9,0.6,3.5,1.6,5.4,2
			C202.4,120.2,202.8,118.9,201.9,118.7L201.9,118.7z"/>
	</g>
	<g>
		<path fill="#F8A7A0" d="M206.8,127.9c-7.2-3.3-14.6-5.3-22.4-6.5c-8.4-1.3-17-1.7-25.4-3.3c-8.8-1.7-16.8-4.8-25-8.4
			c-3.4-1.5-7-2.7-10.5-4c-2.9-1.1-8.6-2.7-10-5.7c-0.4-0.8-1.6-0.1-1.2,0.7c1,2,3,3,5,3.8c3.9,1.6,7.7,3.2,11.6,4.6
			c8.4,2.9,16,7,24.6,9.2c8.5,2.2,17.1,2.9,25.8,3.8c9.2,1,18.3,3.2,26.7,7C206.9,129.5,207.6,128.3,206.8,127.9L206.8,127.9z"/>
	</g>
	<g>
		<path fill="#F8A7A0" d="M208.4,135.1c-1.2-0.2-3.1-1.5-4.4-2c-1.9-0.7-3.9-1.3-5.9-1.8c-4.3-1.3-8.4-3.3-12.6-4.7
			c-8.6-2.9-17.7-4.5-26.4-7c-9-2.6-18-5.1-26.8-8.4c-4.2-1.6-8.6-2.8-12.6-4.7c-1.9-0.8-8.1-3.3-7.4-5.9c0.2-0.9-1.1-1.3-1.4-0.4
			c-1,4.4,7.5,7.4,10.5,8.5c9.6,3.9,19.6,7.2,29.5,10c10.2,2.9,20.5,5.6,30.8,8.2c4.7,1.2,9.2,3.2,13.8,4.9c2.3,0.9,4.7,1.5,7,2.2
			c1.9,0.6,3.6,2.1,5.5,2.4C208.9,136.6,209.3,135.2,208.4,135.1L208.4,135.1z"/>
	</g>
	<g>
		<path fill="#F8A7A0" d="M209.6,142.8c-2.4-5.9-10.6-6.8-16-7.8c-10.2-2-20.7-2.1-30.7-4.8c-10-2.6-19.3-7.3-28.2-12.6
			c-9-5.4-16.8-11.5-22.5-20.4c-0.5-0.8-1.7-0.1-1.2,0.7c9.8,15.1,26.9,24.6,43.3,31c8.9,3.5,18,4.6,27.4,5.7
			c5.4,0.7,11,1.4,16.3,2.8c3.8,1,8.8,1.8,10.4,5.8C208.6,144,209.9,143.6,209.6,142.8L209.6,142.8z"/>
	</g>
	<g>
		<path fill="#F8A7A0" d="M208.6,151.4c-4.5-6.2-11.6-8-18.3-10.7c-4.1-1.7-8.2-3.5-12.5-4.8c-5-1.6-10.2-2.2-15.2-3.8
			c-10.1-3.1-19.5-7.5-28.9-12.4c-7.7-4-17.7-9.5-20.2-18.5c-0.2-0.9-1.6-0.5-1.4,0.4c2,6.9,8.7,12.5,14.7,16
			c8,4.7,16.5,9.1,25.2,12.3c4.6,1.7,9.3,3.4,14.1,4.7c4.9,1.4,10,2.1,14.8,3.8c4.6,1.6,9,3.7,13.6,5.4c5,1.9,9.7,3.8,13,8.3
			C207.9,152.9,209.2,152.2,208.6,151.4L208.6,151.4z"/>
	</g>
	<g>
		<path fill="#F8A7A0" d="M205.4,159.4c0.9-4-6.3-7.1-8.9-8.9c-8.7-5.9-17.9-9.1-28-11.9c-18.9-5.3-44-15.6-49.9-36.5
			c-0.2-0.9-1.6-0.5-1.4,0.4c4.8,16.8,22,26.8,37.1,32.9c10,4.1,20.9,5.6,30.7,10.1c4.2,1.9,8.2,4.4,12,7c1.7,1.2,7.6,3.9,7,6.4
			C203.8,159.9,205.2,160.3,205.4,159.4L205.4,159.4z"/>
	</g>
	<g>
		<path fill="#F8A7A0" d="M203.6,159.8c-3-1.4-6.1-1.9-9.4-2.4c-4.1-0.6-8-1.5-11.9-2.9c-8.9-3.2-16.3-9.4-24.1-14.6
			c-8.4-5.6-16.5-11.2-24.1-17.9c-7.2-6.3-14.3-12.5-17.4-21.9c-0.3-0.9-1.6-0.5-1.4,0.4c2.7,8.3,8.4,14.3,14.8,20
			c7.3,6.4,14.6,12.4,22.8,17.7c8.2,5.3,15.9,11.6,24.6,15.9c3.8,1.9,7.9,3.2,12,4.1c4.5,0.9,9.1,0.9,13.3,2.9
			C203.7,161.4,204.4,160.2,203.6,159.8L203.6,159.8z"/>
	</g>
	<g>
		<path fill="#F8A7A0" d="M200.8,161.7c-8.3-2.5-16.7-3.3-24.5-7.2c-3.9-1.9-7-4.9-10.3-7.5c-3.3-2.6-6.9-4.7-10.5-6.9
			c-7.3-4.3-15.3-7.9-21.5-13.7c-6.6-6.2-10.8-15.7-11.9-24.6c-0.1-0.9-1.5-0.9-1.4,0c1,8.1,4.3,15.7,9.4,22.1
			c5.7,7.2,13.8,11,21.5,15.5c3.9,2.3,7.8,4.6,11.5,7.2c4,2.8,7.3,6.1,11.5,8.6c8.1,4.6,17.2,5.3,25.9,7.9
			C201.3,163.3,201.7,161.9,200.8,161.7L200.8,161.7z"/>
	</g>
	<g>
		<path fill="#F8A7A0" d="M196.6,176.2c-0.7-0.4-1.4-2.9-1.8-3.6c-0.7-1.4-1.7-2.5-2.6-3.7c-2.4-3-6.2-4.6-9.1-6.9
			c-0.7-0.6-1.7,0.4-1,1c3,2.4,6.5,4.1,9.1,6.9c1.4,1.5,2.6,3.4,3.4,5.3c0.4,0.9,0.5,1.7,1.4,2.2
			C196.6,177.9,197.3,176.7,196.6,176.2L196.6,176.2z"/>
	</g>
	<g>
		<path fill="#F8A7A0" d="M195.9,176.8c-4.2-0.8-8-2.8-12-4.5c-3.9-1.7-7.9-3.4-11.7-5.3c-8.5-4.3-15.6-11.5-22.6-17.8
			c-6.7-6-13.4-12-19.2-18.9c-3.4-4.1-6.1-8.5-8.1-13.4c-1.7-4.2-3-8.5-4.6-12.6c-0.3-0.8-1.7-0.5-1.4,0.4c3.5,8.6,5.8,17,11.5,24.5
			c6,7.9,13.5,14.4,20.9,21.1c6.9,6.2,13.7,12.9,21.9,17.5c4.1,2.3,8.4,4,12.7,5.9c4,1.8,8,3.8,12.3,4.7
			C196.4,178.4,196.8,177,195.9,176.8L195.9,176.8z"/>
	</g>
	<g>
		<path fill="#F8A7A0" d="M195.3,183.3c-9.8,0.3-19.6-4.7-27.3-10.3c-7.9-5.7-15.6-12.1-22.2-19.3c-6.5-7-12.3-15.1-18.1-22.7
			c-6.4-8.4-9.5-17.3-10.9-27.7c-0.1-0.9-1.5-0.5-1.4,0.4c1.4,10.6,4.7,19.4,11.1,28c6,8.1,12.2,16.4,19.1,23.8
			c6.7,7.2,14.7,13.5,22.6,19.3c7.6,5.5,17.6,10.1,27.1,9.8C196.2,184.7,196.3,183.3,195.3,183.3L195.3,183.3z"/>
	</g>
	<g>
		<path fill="#F8A7A0" d="M190.1,192.5c-9.7-3.5-13.9-12.7-19-20.8c-4.9-7.8-11.5-14.7-18.1-21.1c-14.7-14-26.9-30.4-34.8-49.2
			c-0.3-0.8-1.7-0.5-1.4,0.4c8,19,20.3,35.6,35.1,49.8c7.5,7.1,14.7,14.9,19.8,23.9c4.3,7.6,9.3,15.2,17.9,18.3
			C190.6,194.2,190.9,192.8,190.1,192.5L190.1,192.5z"/>
	</g>
	<g>
		<path fill="#F8A7A0" d="M187.8,193.4c-4.5-1.4-8.4-4.2-12.5-6.4c-4.5-2.4-8.7-5.1-12.7-8.2c-7.7-6-13.1-13.3-18-21.7
			c-5.1-8.8-10.9-17.1-16.7-25.5c-2.9-4.2-5.6-8.3-7.6-13.1c-1.8-4.5-3.1-9.3-4.6-13.9c-0.3-0.9-1.6-0.5-1.4,0.4
			c1.6,4.6,2.9,9.3,4.6,13.9c1.9,4.9,4.8,9.1,7.7,13.4c6.2,9,12.4,18.1,17.9,27.6c4.7,8.2,10.5,15,18.1,20.7
			c3.8,2.8,7.8,5.4,11.9,7.6c4.2,2.3,8.2,5.1,12.9,6.6C188.3,195,188.6,193.7,187.8,193.4L187.8,193.4z"/>
	</g>
	<g>
		<path fill="#F8A7A0" d="M170.7,189.9c-2.9-3-5.8-5.3-7.9-9c-2.1-3.6-3.8-7.4-6.1-10.9c-2.3-3.4-5-6.6-7.4-10
			c-2.6-3.8-5.2-7.6-8-11.3c-5-6.6-9.2-13.5-13.7-20.4c-4.7-7.3-7.3-15.7-11.2-23.5c-0.4-0.8-1.6-0.1-1.2,0.7
			c3.9,7.8,6.4,16.1,11.2,23.5c4.7,7.3,9.2,14.5,14.4,21.4c2.6,3.3,4.9,6.8,7.2,10.3c2.5,3.8,5.5,7.2,8.1,11c2.4,3.5,4,7.4,6.1,11
			c1.9,3.3,4.9,5.5,7.5,8.2C170.3,191.5,171.3,190.5,170.7,189.9L170.7,189.9z"/>
	</g>
	<g>
		<path fill="#F8A7A0" d="M168.4,190.1c-7.2-3.7-13.8-7.1-19.6-13c-5.7-5.9-9.5-13-12.7-20.4c-7-16.1-14.7-31.7-17-49.3
			c-0.1-0.9-1.5-0.9-1.4,0c2.3,18,10.1,33.6,17.2,50c3.3,7.6,7.2,14.6,13,20.7c5.7,6,12.6,9.5,19.8,13.2
			C168.5,191.8,169.2,190.5,168.4,190.1L168.4,190.1z"/>
	</g>
	<g>
		<path fill="#F8A7A0" d="M165.4,193.2c-9.1-0.6-16.2-3.9-21.7-11.4c-4.9-6.7-6.8-15.2-8.7-23.2c-4.3-17.8-12.6-34.9-13.1-53.5
			c0-0.5-0.6-0.9-1.1-0.6c-0.4,0.3-0.5,0.5-0.5,1c-0.1,0.9,1.3,0.9,1.4,0c-0.1,0.1-0.1,0.2-0.2,0.3c-0.4-0.2-0.7-0.4-1.1-0.6
			c0.6,19.8,9.4,38.5,14.1,57.5c2,8.1,4.6,16,10,22.5c5.4,6.5,12.7,9,20.8,9.5C166.3,194.7,166.3,193.3,165.4,193.2L165.4,193.2z"/>
	</g>
	<g>
		<path fill="#F8A7A0" d="M155.4,198.5c-9.5-3.9-13.4-12-16.7-21.1c-1.8-4.8-1.8-9.7-2-14.8c-0.2-4.6-0.4-9.2-0.8-13.8
			c-0.8-8.9-2.4-17.6-5.5-26c-1.5-4-3.4-7.7-5.7-11.3c-2.3-3.6-5.8-6.9-7.2-10.9c-0.3-0.9-1.7-0.5-1.4,0.4c1.3,3.8,4.4,7,6.7,10.3
			c3.1,4.4,5.3,9.3,7.1,14.4c3.5,9.9,4.5,20.4,5.1,30.8c0.3,5,0.1,10.2,0.6,15.2c0.5,4.6,2.6,8.9,4.4,13.1c2.9,7,7.9,12.4,15,15.3
			C155.8,200.2,156.2,198.8,155.4,198.5L155.4,198.5z"/>
	</g>
	<g>
		<path fill="#F8A7A0" d="M148.5,201.7c-3.6-2.6-6.6-4.6-9.3-8.2c-2.6-3.6-4.4-7.9-6-12c-3.6-9.4-3.8-18.8-4.1-28.7
			c-0.3-9-2.5-17.8-3-26.9c-0.2-4,0-8-0.6-11.9c-0.7-4.4-3.4-7.8-5.3-11.7c-0.4-0.8-1.6-0.1-1.2,0.7c2.4,4.7,4.9,8.4,5.5,13.8
			c0.5,4.8,0.2,9.7,0.7,14.6c0.5,4.9,1.4,9.8,2,14.7c0.6,5,0.6,9.9,0.7,14.9c0.2,8.7,2,16.7,5.5,24.7c1.6,3.7,3.6,7.3,6,10.5
			c2.4,3.1,5.3,4.6,8.4,6.8C148.5,203.5,149.2,202.3,148.5,201.7L148.5,201.7z"/>
	</g>
	<g>
		<path fill="#F8A7A0" d="M128.5,191.6c-1.9-2.5-4.3-4.3-5.8-7.2c-1.6-3.3-2.4-7.2-3.2-10.7c-1.7-8.4-1.9-17.1-1.7-25.7
			c0.1-8.3,0.5-16.6,0.1-24.9c-0.4-8.2-3.3-16-4.1-24.2c-0.1-0.9-1.5-0.9-1.4,0c0.7,8.2,3.6,16,4.1,24.2c0.6,9.2,0,18.5-0.1,27.7
			c-0.1,7.8,0.4,15.6,1.8,23.3c0.6,3.4,1.5,6.9,2.9,10.1c0.8,1.7,1.6,3.2,2.7,4.7c1,1.3,2.5,2.2,3.5,3.5
			C127.8,193,129,192.3,128.5,191.6L128.5,191.6z"/>
	</g>
	<g>
		<path fill="#F8A7A0" d="M126.1,168.9c-1.4-5.3-2.9-10.3-3.9-15.7c-1.1-6,0.1-12.2,0.7-18.2c1.1-10.4-0.5-19.6-7.4-27.7
			c-0.6-0.7-1.6,0.3-1,1c3.9,4.5,6.5,9.5,6.9,15.5c0.4,5.4,0.1,10.7-0.6,16.1c-0.6,5-0.8,9.9,0.1,14.9c0.9,4.9,2.4,9.6,3.7,14.4
			C125,170.1,126.3,169.8,126.1,168.9L126.1,168.9z"/>
	</g>
	<g>
		<path fill="#F8A7A0" d="M113.7,209.8c4.4-7.5,6.2-15,5.2-23.7c-1.1-9.4-4-18.6-6.3-27.7c-2.6-10-4.7-20-5.1-30.3
			c-0.2-5.2,0.6-10.2,1.7-15.3c1-4.5,1.5-9.7,4.6-13.3c0.6-0.7-0.4-1.7-1-1c-2.1,2.5-3,5.4-3.8,8.5c-1,4.4-2.1,8.8-2.6,13.3
			c-1.1,9.5,0.5,19.2,2.4,28.4c2.1,9.7,5.1,19.2,7.1,28.9c1.1,5.3,2.1,10.6,1.8,16.1c-0.2,5.5-2.5,10.7-5.3,15.4
			C112,209.8,113.2,210.5,113.7,209.8L113.7,209.8z"/>
	</g>
	<g>
		<path fill="#F8A7A0" d="M109.9,210.1c0.3-4.2-0.4-8.4-0.5-12.7c-0.1-4.5,0.5-9.1,1-13.6c1-9.4,2.4-18.8,3.1-28.2
			c0.7-9.1,2.1-18.1,2-27.3c-0.1-8.9-1.4-18-2.7-26.7c-0.1-0.9-1.5-0.5-1.4,0.4c1.4,9.1,2.6,18.5,2.7,27.7
			c0.1,9.1-1.4,18.2-2.1,27.3c-0.7,9-2,17.9-3,26.9c-0.5,4.5-0.9,9.1-1,13.6c-0.1,4.2,0.9,8.4,0.5,12.7
			C108.4,211,109.8,211,109.9,210.1L109.9,210.1z"/>
	</g>
	<g>
		<path fill="#F8A7A0" d="M102.3,207.3c-0.7-8.8,1.8-17.2,4-25.6c2.2-8.7,2.9-17.4,3.3-26.3c0.4-9.2,0.6-18.3,0.6-27.5
			c0-4.4,0.4-8.8,0.8-13.1c0.4-5.1,0.8-10.1,3.3-14.7c0.4-0.8-0.8-1.5-1.2-0.7c-3.7,6.8-3.7,15.5-4.1,23.1
			c-0.6,10-0.2,20.2-0.6,30.2c-0.4,9.7-0.9,19.2-3.3,28.7c-2.2,8.6-4.7,17-4,26C101,208.2,102.4,208.2,102.3,207.3L102.3,207.3z"/>
	</g>
	<g>
		<path fill="#F8A7A0" d="M96.1,203.9c-2.2-9.4-0.6-17.4,2.5-26.3c3-8.7,4.3-17.7,6.7-26.6c2.2-8.3,4.8-16.6,6.3-25.1
			c0.7-4.1,2-8,2.7-12.1c0.6-3.9-1.1-8.5,0.6-12.2c0.4-0.8-0.8-1.5-1.2-0.7c-1.4,2.9-0.7,5.9-0.6,9c0.2,5-1.7,9.6-2.6,14.4
			c-1.6,9.3-4.4,18.5-6.8,27.6c-1.3,4.8-2,9.6-3.1,14.4c-1,4.5-2.6,8.9-4.1,13.3c-2.8,8.4-3.7,16.1-1.7,24.7
			C95,205.2,96.3,204.8,96.1,203.9L96.1,203.9z"/>
	</g>
	<g>
		<path fill="#F8A7A0" d="M86.3,198c0.1-4.4,0.3-8.7,1.1-13c0.8-4.2,2.4-8.2,4-12.2c3.1-7.7,6.2-15.4,9.1-23.3
			c2.9-8,6.8-15.6,9.7-23.6c1.5-4.1,2.8-8.4,3.6-12.7c0.8-4.2,1.3-8.4,2.7-12.5c0.3-0.9-1.1-1.2-1.4-0.4c-1.2,3.7-1.8,7.4-2.5,11.2
			c-0.7,4.3-2,8.5-3.4,12.7c-2.9,8.5-7,16.5-10.1,24.9c-3,8.2-6.3,16.3-9.5,24.4c-3.2,8-4.3,15.7-4.6,24.3
			C84.9,198.9,86.3,198.9,86.3,198L86.3,198z"/>
	</g>
	<g>
		<path fill="#F8A7A0" d="M80.3,195.5c-0.3-4.4-0.7-8.3,0.1-12.8c0.7-4.1,2.4-7.9,3.7-11.8c1.4-4.1,2.5-8.3,4.4-12.3
			c1.8-3.8,3.7-7.6,5.4-11.5c3.4-7.5,7.7-14.4,11.8-21.6c3.9-7,8.2-14,10.6-21.8c0.3-0.9-1.1-1.2-1.4-0.4
			c-2.6,8.4-7.4,16.1-11.7,23.7c-4.2,7.5-8.5,14.9-12.1,22.7c-1.6,3.5-3.5,6.8-4.9,10.4c-1.5,3.7-2.5,7.6-3.8,11.4
			c-1.4,4-2.8,7.8-3.6,11.9c-0.7,4.1-0.2,7.8,0.1,11.9C79,196.4,80.4,196.4,80.3,195.5L80.3,195.5z"/>
	</g>
	<g>
		<path fill="#F8A7A0" d="M73.1,192c-0.1-4.6,0.2-9.2,1.2-13.7c1-4.5,3.4-8.7,5.6-12.7c4.2-7.6,9.3-14.5,14.6-21.4
			c5.2-6.8,10.4-13.6,14.9-20.8c4.1-6.6,8.8-15,9.2-22.9c0.1-0.9-1.4-0.9-1.4,0c-0.3,4.8-2.6,9.9-4.6,14.2
			c-1.8,3.9-4.1,7.6-6.5,11.2c-4.6,7.2-10,13.9-15.2,20.7c-5.3,6.9-10.1,14-14,21.7c-3.9,7.5-5.4,15.2-5.1,23.7
			C71.7,192.9,73.1,192.9,73.1,192L73.1,192z"/>
	</g>
	<g>
		<path fill="#F8A7A0" d="M64.5,187c0.2-5.1,1-9.5,3-14.3c1.7-3.9,4.1-7.5,6.8-10.9c2.5-3.1,5.4-5.9,8.2-8.8
			c2.9-3.1,5.5-6.5,8.2-9.8c5-6.1,10.9-11.1,14.5-18.3c1.8-3.7,3.7-7.3,5.7-10.9c2-3.7,4.7-7.1,6.7-10.8c0.4-0.8-0.8-1.5-1.2-0.7
			c-2.1,3.7-4.6,7.1-6.7,10.8c-2.3,3.9-4.3,8-6.3,12.1c-2,3.9-4.8,7.1-7.8,10.1c-3.3,3.3-6.1,7-9.1,10.6
			c-5.2,6.4-11.4,11.8-16.1,18.5c-2.1,3-3.8,6.3-5,9.8c-0.7,2.1-1.4,4.2-1.9,6.4c-0.5,2-0.2,4-0.3,6.1C63,187.9,64.4,187.9,64.5,187
			L64.5,187z"/>
	</g>
	<g>
		<path fill="#F8A7A0" d="M59.3,183c-0.4-17.1,14.7-28.2,25.5-39.3c5.5-5.7,11.9-10.3,17.9-15.5c2.7-2.3,5.3-4.9,7.4-7.8
			c2.8-3.8,4.6-8.1,7.6-11.7c0.6-0.7-0.4-1.7-1-1c-2.6,3.1-4.5,6.6-6.6,10c-2.4,4-5.8,7.2-9.4,10.3c-6.7,5.7-13.5,10.9-19.6,17.3
			c-10.4,11-23.8,21.1-23.4,37.7C58,183.9,59.4,183.9,59.3,183L59.3,183z"/>
	</g>
	<g>
		<path fill="#F8A7A0" d="M50.2,174.5c0.5-8.6,10.4-15.5,16.7-20c7.4-5.2,14.9-10.4,22.2-15.6c3.3-2.3,6.8-4.3,10.1-6.5
			c3.1-2.1,5.5-4.8,7.7-7.7c2.5-3.3,5.5-6.1,7.8-9.5c2-2.9,2.1-6.4,2.1-9.9c0-0.9-1.4-0.9-1.4,0c0,5-1.1,8.5-4.4,12.3
			c-2.9,3.3-5.5,6.8-8.4,10.1c-2.7,3.1-6.5,5-10,7.1c-4.1,2.5-7.8,5.5-11.7,8.3c-7,5.1-14.4,9.5-21.1,15c-4.9,4-10.8,9.8-11.1,16.5
			C48.7,175.4,50.1,175.4,50.2,174.5L50.2,174.5z"/>
	</g>
	<g>
		<path fill="#F8A7A0" d="M12.9,145.1c1.7,2.6,6.5,3.5,9.2,4.6c4.7,1.9,9.4,3.3,14.5,3.6c10.3,0.6,19.7-4.6,28.4-9.4
			c9.7-5.4,18.5-11.6,27.4-18.1c8.7-6.3,17-13.3,27.3-16.7c0.9-0.3,0.5-1.6-0.4-1.4c-8.6,2.8-15.8,8-22.9,13.4
			c-8,5.9-16,12.1-24.5,17.2c-8.6,5.3-18.1,10.9-28.1,12.9c-5.6,1.2-11.4,0.5-16.7-1.3c-2.3-0.8-4.6-1.7-6.9-2.6
			c-1.7-0.7-5.1-1.4-6.1-3C13.7,143.6,12.4,144.3,12.9,145.1L12.9,145.1z"/>
	</g>
	<g>
		<path fill="#F8A7A0" d="M9.8,137.8c8.2,4,17.1,5.1,26.1,4.7c9.1-0.3,18.8-1.8,27.3-5.1c8.6-3.4,16.6-8.9,24.2-14.1
			c4.1-2.8,7.9-5.8,11.8-8.8c4.6-3.4,10.8-4.8,16.4-5.2c0.9-0.1,0.9-1.5,0-1.4c-4.1,0.3-7.9,1.2-11.8,2.5c-4.2,1.4-7.6,4.7-11,7.2
			c-7.5,5.7-15.7,10.9-24,15.4c-8.8,4.8-18.3,6.6-28.2,7.6c-10.3,1.1-20.8,0.3-30.3-4.2C9.7,136.2,9,137.4,9.8,137.8L9.8,137.8z"/>
	</g>
	<g>
		<path fill="#F8A7A0" d="M16,151.8c4.9,5.7,14.5,6.5,21.5,5.6c4.9-0.6,9.7-2.7,14.5-4c4.9-1.3,9.4-3.3,13.8-5.8
			c0.8-0.4,0.1-1.7-0.7-1.2c-7.7,4.2-15.9,6.3-24.2,8.8c-7.2,2.1-18.6,1.6-23.9-4.5C16.4,150.1,15.4,151.1,16,151.8L16,151.8z"/>
	</g>
	<g>
		<path fill="#F8A7A0" d="M8.8,132.9c1.5,0.6,2.8,1.5,4.3,1.9c1.7,0.5,3.7,0.6,5.4,0.7c5.2,0.3,10.3,0.3,15.5,0
			c10.1-0.6,20.1-2.9,29.5-6.5c8.6-3.4,16.4-7.9,23.9-13.2c4.3-3,8.7-5.7,13.6-7.6c2.7-1,5.5-1.5,8.3-1.5c2.4,0,4.8,0.9,7.2,1.1
			c0.9,0,0.9-1.4,0-1.4c-4.3-0.2-7.9-1.4-12.3-0.6c-4.4,0.8-8.7,3.2-12.5,5.5c-3.8,2.3-7.2,5-10.9,7.4c-4.1,2.7-8.7,4.9-13.2,7
			c-9.8,4.5-20.3,7.2-31,8.2c-4.8,0.5-9.7,0.5-14.5,0.4c-2.6-0.1-5.2-0.2-7.7-0.6c-2-0.3-3.5-1.5-5.3-2.2
			C8.3,131.2,7.9,132.6,8.8,132.9L8.8,132.9z"/>
	</g>
	<g>
		<path fill="#F8A7A0" d="M7.7,130.1c4.7-0.4,9.5,0.2,14.2,0.2c4.7,0,9.7-0.6,14.3-1.5c4.8-0.9,9.6-2.5,14.3-3.8
			c5-1.3,10-2.9,14.9-4.6c4.1-1.4,8.2-2.9,12-5c4.6-2.5,8.8-4.9,13.9-6.1c5.5-1.2,11-2.2,16.6-1.4c4.7,0.7,8.6,3.5,13.2,4.4
			c0.9,0.2,1.3-1.2,0.4-1.4c-4.2-0.9-7.8-3.2-12-4.2c-4.1-1-8.5-0.6-12.7,0c-4.2,0.7-8.8,1.4-12.7,3.2c-4.9,2.3-9.2,5.3-14.2,7.2
			c-9.9,3.7-20.1,6.3-30.2,9.2c-5.5,1.5-11,1.9-16.6,2.4c-5.2,0.4-10.3-0.6-15.5-0.2C6.8,128.8,6.8,130.2,7.7,130.1L7.7,130.1z"/>
	</g>
	<g>
		<path fill="#F8A7A0" d="M0.5,118.6c8,3.8,18.1,3.1,26.7,2.5c10.3-0.7,20.2-3.3,30.1-6c10.3-2.9,20.3-5.5,31.1-5.9
			c11-0.5,21.5,1.4,32.2,3.3c0.9,0.2,1.3-1.2,0.4-1.4c-9.6-1.8-18.8-3.4-28.6-3.5c-10,0-19.5,1.7-29.1,4.3
			c-10.2,2.8-20.3,5.9-30.8,7.2c-4.8,0.6-9.7,0.8-14.6,0.8c-5.6,0-11.6-0.2-16.7-2.6C0.4,117-0.3,118.2,0.5,118.6L0.5,118.6z"/>
	</g>
	<g>
		<path fill="#F8A7A0" d="M2.3,115.3c9.1-2.5,18.4-2.7,27.8-2.7c9.5-0.1,19.1-0.3,28.5-0.9c9-0.6,17.4-3,26.2-4.6
			c9.6-1.7,19.2-1,28.6,1.2c0.9,0.2,1.3-1.1,0.4-1.4c-3.5-0.9-7-1.7-10.7-2.1c-4.9-0.5-9.8,0.1-14.6,0.4c-4.4,0.2-8.7,1.5-12.9,2.5
			c-5.2,1.3-10.4,2-15.7,2.5c-9.9,0.8-20,1-29.9,1c-9.5,0.1-19,0.2-28.2,2.8C1,114.2,1.4,115.6,2.3,115.3L2.3,115.3z"/>
	</g>
	<g>
		<path fill="#F8A7A0" d="M5.3,110.3c17.9-10.7,40.3-12.5,60.6-11.6c11.3,0.6,21.7,3.4,32.5,6.7c4.5,1.4,9,2.6,13.7,3.2
			c2.8,0.3,6.9,1.3,9.3-0.9c0.7-0.6-0.3-1.6-1-1c-1.6,1.5-5.1,0.8-7,0.7c-2.9-0.3-5.7-0.9-8.5-1.5c-4.9-1.1-9.7-2.9-14.5-4.3
			c-9.7-2.9-19.6-4.2-29.7-4.4c-19-0.4-39.5,2-56.1,11.9C3.8,109.6,4.5,110.8,5.3,110.3L5.3,110.3z"/>
	</g>
	<g>
		<path fill="#F8A7A0" d="M9.9,103.6c7.9-5.7,17.9-7.5,27.4-8.4c10.3-0.9,20.6,0.6,30.6,2.6c9.5,1.8,18.8,4.1,28.3,5.7
			c4.4,0.7,8.9,1.4,13.3,1.8c3,0.3,6.5,0.7,9-1.5c0.7-0.6-0.3-1.6-1-1c-3.5,3-11.8,0.7-15.7,0.1c-4.8-0.7-9.5-1.5-14.2-2.4
			c-9.5-1.9-18.8-4.2-28.4-5.6c-16.1-2.4-36.2-2.5-50.1,7.5C8.4,102.9,9.1,104.1,9.9,103.6L9.9,103.6z"/>
	</g>
	<g>
		<path fill="#F8A7A0" d="M12,96.9c2.6-1.5,4.8-3.3,7.7-4.4c3-1.2,6.6-1.5,9.8-1.9c6.5-0.8,13-0.5,19.5,0.3
			c13.2,1.5,25.8,6.4,38.8,9.3c3.5,0.8,31,6.3,29.7-0.7c-0.2-0.9-1.5-0.5-1.4,0.4c0.5,2.5-14.7,1.2-16.2,1
			c-8.7-0.8-17.3-3.2-25.7-5.6c-10.9-3.1-21.6-5.9-33-6.5c-5.3-0.2-10.5,0.1-15.7,0.9c-2.5,0.4-5.1,0.8-7.4,1.9
			c-2.4,1.1-4.5,2.8-6.8,4.1C10.5,96.1,11.2,97.4,12,96.9L12,96.9z"/>
	</g>
	<g>
		<path fill="#F8A7A0" d="M12,91.6c4.9-7.9,16.4-9,24.8-9.4c9.3-0.4,18.6,1.1,27.4,3.8c9,2.8,17.9,6.6,26.7,10.1
			c8.5,3.4,16.6,7.5,23.4,13.9c0.3-0.4,0.6-0.7,0.9-1.1c0,0-0.1-0.1-0.1-0.1c-0.5-0.8-1.7-0.1-1.2,0.7c0.2,0.3,0.3,0.4,0.6,0.6
			c0.7,0.5,1.4-0.6,0.9-1.1c-6.2-5.9-13.6-10-21.5-13.2c-10.4-4.3-21-8.7-31.7-11.9C52.4,81,42,80.1,31.9,81.1
			c-7.7,0.8-16.7,2.7-21,9.7C10.3,91.6,11.6,92.3,12,91.6L12,91.6z"/>
	</g>
	<g>
		<path fill="#F8A7A0" d="M11.4,85.2c11.4-11.8,31.9-8.7,46.2-5.6c16.9,3.7,35.4,9.6,44.5,25.5c0.3,0.4,1,0.5,1.2,0
			c0.1-0.1,0.1-0.2,0.2-0.4c0.4-0.8-0.8-1.5-1.2-0.7c-0.1,0.1-0.1,0.2-0.2,0.4c0.4,0,0.8,0,1.2,0C94,88.1,75.3,82.2,58,78.3
			c-14.7-3.4-35.9-6.3-47.6,5.9C9.8,84.8,10.8,85.8,11.4,85.2L11.4,85.2z"/>
	</g>
	<g>
		<path fill="#F8A7A0" d="M14.2,78.5c2.5-3.6,6.8-5,10.9-6.2c4.8-1.4,9.6-2.3,14.5-2.6C50.3,69,60.8,72,70.5,76.1
			C79.7,80,86.9,85.5,94,92.4c5.7,5.5,11.4,10.5,19.4,11.8c0.9,0.1,1.3-1.2,0.4-1.4c-10.3-1.6-16.7-9.7-24-16.3
			c-7.1-6.5-15.7-10.7-24.7-14c-10-3.6-20.2-5.1-30.8-3.7c-7.1,0.9-17,2.7-21.4,9C12.4,78.6,13.6,79.3,14.2,78.5L14.2,78.5z"/>
	</g>
</g>
</svg>
