<?xml version="1.0" encoding="UTF-8" standalone="no"?>
<svg width="354px" height="356px" viewBox="0 0 354 356" version="1.1" xmlns="http://www.w3.org/2000/svg" xmlns:xlink="http://www.w3.org/1999/xlink" xmlns:sketch="http://www.bohemiancoding.com/sketch/ns">
    <!-- Generator: Sketch 3.3.3 (12081) - http://www.bohemiancoding.com/sketch -->
    <title>Imported Layers</title>
    <desc>Created with Sketch.</desc>
    <defs></defs>
    <g id="Page-1" stroke="none" stroke-width="1" fill="none" fill-rule="evenodd" sketch:type="MSPage">
        <g id="Imported-Layers" sketch:type="MSLayerGroup" fill="#4990E2">
            <path d="M352.829,184.768 C352.92,184.871 353.036,184.909 353.152,184.935 C353.023,190.984 351.488,197.703 346.368,198.787 C342.06,189.63 333.729,183.723 323.282,181.427 C306.968,177.829 288.847,179.996 272.662,183.194 C263.324,185.038 254.232,187.721 245.281,190.958 C235.995,194.298 226.723,197.742 216.753,198.064 C216.637,196.143 215.76,194.208 214.303,193.009 C216.16,192.596 217.836,191.268 218.494,189.372 L218.533,189.372 C230.901,186.199 242.986,180.847 254.967,176.475 C266.316,172.348 277.653,167.95 289.544,165.667 C301.796,163.32 314.719,163.217 326.7,166.995 C331.601,168.543 336.308,170.736 340.603,173.573 C345.414,176.746 348.818,180.744 352.829,184.768" id="Fill-1" sketch:type="MSShapeGroup"></path>
            <path d="M352.61,177.249 C352.868,178.68 353.087,180.615 353.152,182.756 C348.29,175.159 338.991,169.652 330.892,166.492 C319.646,162.095 307.264,161.45 295.386,163.062 C282.089,164.88 269.489,169.665 256.966,174.256 C244.301,178.912 230.875,182.82 218.688,188.662 C219.423,185.129 216.637,181.646 213.258,180.757 C213.271,180.679 213.258,180.615 213.258,180.55 C213.271,180.55 213.284,180.563 213.297,180.55 C224.594,177.494 235.596,172.825 246.558,168.762 C257.34,164.764 268.122,160.766 278.904,156.768 C297.695,149.804 323.824,135.591 342.422,150.1 C342.847,150.436 343.363,150.242 343.608,149.894 C343.595,152.925 344.137,156.046 345.491,159.348 C347.929,165.319 351.449,170.8 352.61,177.249" id="Fill-2" sketch:type="MSShapeGroup"></path>
            <path d="M351.604,115.407 C351.514,118.438 351.127,121.443 350.353,124.384 C348.083,133.167 343.84,140.827 343.608,149.211 C343.569,149.146 343.544,149.094 343.479,149.043 C326.004,134.676 302.041,146.502 284.011,153.221 C271.914,157.723 259.829,162.224 247.745,166.725 C236.253,171.006 224.337,174.811 213.271,180.099 C213.258,179.17 212.974,178.396 212.471,177.752 C214.354,175.791 215.102,172.928 213.967,170.323 C215.554,168.208 220.687,166.222 222.157,165.448 C224.93,163.99 227.69,162.559 230.476,161.127 C236.021,158.277 241.631,155.53 247.268,152.847 C258.72,147.418 270.366,142.375 282.154,137.732 C304.865,128.794 328.08,121.779 351.604,115.407" id="Fill-3" sketch:type="MSShapeGroup"></path>
            <path d="M342.164,87.627 C348.264,94.953 351.566,104.484 351.63,114.002 C325.062,120.141 298.972,129.117 273.797,139.486 C266.097,142.659 258.475,145.999 250.917,149.507 L250.698,149.043 C263.466,143.02 276.041,136.068 286.474,126.434 C293.851,119.625 300.119,111.203 304.169,102.007 C304.208,101.982 304.259,101.969 304.311,101.93 C306.929,99.544 310.514,98.59 313.739,97.326 C317.066,96.036 320.381,94.734 323.695,93.444 C329.731,91.084 335.767,88.736 342.164,87.627" id="Fill-4" sketch:type="MSShapeGroup"></path>
            <path d="M341.519,194.879 C347.181,202.617 348.045,212.096 347.026,221.498 C340.474,214.534 330.737,211.335 321.619,209.375 C310.244,206.938 298.546,206.641 286.964,206.886 C262.666,207.389 238.988,209.478 215.399,202.32 C215.708,201.946 215.966,201.559 216.186,201.121 C216.302,200.863 216.405,200.592 216.482,200.321 L216.547,200.321 C231.301,199.999 244.701,193.151 258.643,189.178 C273.59,184.909 289.054,182.652 304.595,182.433 C317.53,182.24 333.2,183.491 341.519,194.879" id="Fill-5" sketch:type="MSShapeGroup"></path>
            <path d="M346.755,223.626 C346.007,229.107 344.704,234.498 343.415,239.477 C341.145,248.208 337.869,256.836 332.478,263.723 C318.51,248.131 299.152,238.87 280.284,230.565 C258.565,220.995 236.305,212.793 213.516,206.125 C213.374,205.428 213.116,204.771 212.691,204.242 C213.451,203.933 214.161,203.507 214.767,202.965 C235.157,211.709 258.681,209.401 280.258,208.666 C291.981,208.266 303.808,208.098 315.428,209.878 C326.842,211.632 338.707,214.934 346.755,223.626" id="Fill-6" sketch:type="MSShapeGroup"></path>
            <path d="M341.416,86.737 C341.506,86.841 341.583,86.944 341.674,87.047 C334.761,87.821 328.325,90.31 321.825,92.799 C317.995,94.269 314.138,95.714 310.308,97.197 C308.515,97.893 306.748,98.538 305.175,99.557 C308.554,90.903 309.921,81.656 308.399,72.448 C320.793,72.473 333.11,77.361 341.416,86.737" id="Fill-7" sketch:type="MSShapeGroup"></path>
            <path d="M331.536,264.897 C328.196,268.856 324.095,272.183 318.975,274.505 C316.125,275.795 313.378,277.059 310.734,278.529 C303.047,272.57 294.587,267.386 286.461,262.034 C277.575,256.165 268.638,250.388 259.649,244.687 C242.431,233.763 225.149,222.723 207.338,212.793 C209.208,213.18 211.259,212.586 212.51,211.039 C213.323,210.046 213.722,208.537 213.645,207.079 C235.957,214.302 257.998,222.504 279.471,231.958 C298.404,240.302 317.247,249.562 331.536,264.897" id="Fill-8" sketch:type="MSShapeGroup"></path>
            <path d="M309.728,279.096 C307.922,280.154 306.181,281.327 304.492,282.707 C300.171,286.267 296.431,290.484 292.729,294.663 C292.046,295.424 291.375,296.198 290.692,296.959 C270.753,290.149 255.07,275.343 239.839,261.285 C225.549,248.092 212.897,233.763 203.327,216.791 C203.676,216.649 204.011,216.481 204.32,216.249 C205.326,215.527 205.945,214.456 206.216,213.296 C223.498,224.103 241.103,234.408 258.307,245.345 C266.832,250.774 275.306,256.269 283.74,261.827 C292.394,267.528 300.842,273.757 309.728,279.096" id="Fill-9" sketch:type="MSShapeGroup"></path>
            <path d="M298.314,54.779 C314.138,75.827 304.736,103.955 288.022,121.16 C277.872,131.619 265.156,139.177 252.143,145.522 C237.698,152.564 222.75,158.445 207.648,163.926 C207.429,164.003 207.261,164.132 207.145,164.287 C207.093,163.694 206.964,163.113 206.732,162.507 C206.681,162.353 206.616,162.211 206.539,162.069 C216.882,156.007 226.477,147.714 235.441,139.834 C245.075,131.387 254.09,122.178 261.957,112.054 C276.815,92.941 286.952,70.758 289.26,46.563 C292.833,48.549 295.902,51.58 298.314,54.779" id="Fill-10" sketch:type="MSShapeGroup"></path>
            <path d="M283.405,44.448 C285.056,44.732 286.642,45.261 288.138,45.983 C286.1,70.771 274.493,94.205 259.042,113.383 C251.627,122.591 243.269,130.987 234.422,138.816 C225.381,146.824 215.296,153.57 206.229,161.501 C205.559,160.457 204.553,159.657 203.431,159.206 C203.482,158.961 203.495,158.703 203.495,158.445 C203.663,158.522 203.869,158.509 204.05,158.316 C219.01,141.808 231.894,123.197 243.463,104.213 C254.98,85.332 266.02,65.251 273.487,44.384 C273.513,44.293 273.513,44.216 273.487,44.152 C276.763,44.164 280.026,43.868 283.405,44.448" id="Fill-11" sketch:type="MSShapeGroup"></path>
            <path d="M289.673,298.094 C284.037,304.31 278.014,310.191 270.276,313.131 C251.549,306.825 235.905,294.289 224.233,278.477 C211.401,261.092 204.707,241.218 198.027,220.969 C199.265,219.951 200.039,218.338 199.703,216.842 C200.619,217.152 201.612,217.229 202.554,217.023 C211.182,235.001 225.407,249.897 239.916,263.272 C254.851,277.046 270.237,291.258 289.673,298.094" id="Fill-12" sketch:type="MSShapeGroup"></path>
            <path d="M266.136,43.081 C268.302,43.829 270.418,44.074 272.533,44.126 C263.273,64.181 254.271,84.003 242.779,102.936 C231.082,122.191 217.501,139.925 203.392,157.439 C203.185,156.51 202.695,155.659 201.96,155.053 C201.689,154.821 201.393,154.653 201.083,154.524 C210.73,135.243 220.88,116.207 231.752,97.584 C237.092,88.427 242.65,79.412 248.325,70.461 C254.154,61.279 260.564,52.406 266.136,43.081" id="Fill-13" sketch:type="MSShapeGroup"></path>
            <path d="M267.916,313.931 C266.652,314.292 265.349,314.576 263.995,314.782 C256.231,315.917 248.106,314.743 240.406,313.557 C233.3,312.461 226.116,310.862 219.745,307.431 C206.294,300.17 200.051,285.48 197.678,271.049 C195.009,254.824 197.266,238.045 194.093,221.911 C194.467,221.988 194.867,222.04 195.293,222.027 C196.054,222.014 196.789,221.769 197.433,221.382 C205.533,259.635 229.005,300.841 267.916,313.931" id="Fill-14" sketch:type="MSShapeGroup"></path>
            <path d="M252.13,35.639 C256.373,38.141 260.526,40.901 265.323,42.772 C252.413,59.37 241.812,78.251 231.198,96.346 C220.119,115.24 209.724,134.521 200.18,154.24 C199.11,154.06 197.949,154.318 197.034,154.937 C196.853,154.576 196.647,154.227 196.402,153.905 C198.543,131.348 207.08,109.862 217.089,89.717 C226.697,70.41 238.51,52.354 252.13,35.639" id="Fill-15" sketch:type="MSShapeGroup"></path>
            <path d="M250.698,149.043 L250.917,149.507 C246.623,151.506 242.354,153.557 238.111,155.672 C232.062,158.69 226.065,161.824 220.145,165.087 C218.636,165.925 214.767,167.253 213.387,169.265 C211.968,167.215 209.428,166.196 206.964,166.544 C207.029,166.299 207.08,166.028 207.119,165.77 C207.351,166.093 207.738,166.273 208.254,166.105 C222.737,161.347 236.911,155.543 250.698,149.043" id="Fill-16" sketch:type="MSShapeGroup"></path>
            <path d="M234.835,29.913 C241.167,29.939 246.249,32.26 251.137,35.072 C237.221,52.135 225.252,70.771 215.541,90.529 C206.062,109.797 196.556,131.374 195.795,153.157 C195.009,152.319 194.016,151.674 192.958,151.351 C192.146,151.106 191.333,151.042 190.534,151.119 C189.321,140.028 187.799,129.401 188.676,118.167 C189.579,106.392 192.326,94.759 196.492,83.72 C204.101,63.549 216.534,45.609 231.34,30.068 C232.487,29.965 233.661,29.913 234.835,29.913" id="Fill-17" sketch:type="MSShapeGroup"></path>
            <path d="M224.388,312.835 C232.01,323.333 227.561,338.152 219.655,347.192 C215.438,352.016 209.711,355.511 203.224,355.885 C198.891,356.143 194.661,355.176 190.572,353.809 C195.834,343.672 198.414,331.226 200.064,320.07 C201.47,310.655 201.896,301.176 201.367,291.71 C203.792,296.507 206.926,300.905 210.962,304.542 C214.857,308.037 219.358,310.552 224.169,312.396 C224.208,312.538 224.272,312.693 224.388,312.835" id="Fill-18" sketch:type="MSShapeGroup"></path>
            <path d="M212.703,182.665 C215.012,183.465 217.114,185.49 216.727,188.134 C216.431,190.249 214.328,191.861 212.265,191.719 C211.917,189.178 210.047,187.605 207.815,186.676 C209.931,185.967 211.788,184.626 212.703,182.665" id="Fill-19" sketch:type="MSShapeGroup"></path>
            <path d="M212.162,193.989 C214.2,195.511 215.541,197.974 214.174,200.528 C212.845,202.952 209.995,203.391 207.583,202.617 C207.635,201.147 207.196,199.689 206.294,198.593 C209.002,198.206 211.504,196.62 212.162,193.989" id="Fill-20" sketch:type="MSShapeGroup"></path>
            <path d="M229.302,30.274 C214.948,45.518 203.095,63.123 195.563,82.714 C191.385,93.599 188.663,105.012 187.503,116.62 C186.394,127.776 186.226,140.389 189.669,151.248 C188.148,151.596 186.755,152.486 185.762,153.75 C185.736,153.686 185.684,153.647 185.646,153.583 C185.787,153.402 185.878,153.144 185.813,152.847 C180.603,126.37 175.973,97.532 185.001,71.338 C191.656,52.006 208.202,33.086 229.302,30.274" id="Fill-21" sketch:type="MSShapeGroup"></path>
            <path d="M210.64,204.719 C211.672,206.267 212.51,207.943 211.259,209.749 C210.137,211.361 207.983,211.632 206.281,210.961 C206.074,209.762 205.494,208.64 204.527,207.853 C204.836,207.66 205.146,207.453 205.442,207.195 C206.436,206.37 207.068,205.261 207.377,204.074 C208.383,204.616 209.505,204.81 210.64,204.719" id="Fill-22" sketch:type="MSShapeGroup"></path>
            <path d="M206.487,168.04 C211.375,167.305 214.651,173.134 211.078,176.539 C208.899,175.224 205.597,174.953 203.366,175.262 C203.366,175.237 203.379,175.211 203.379,175.185 C203.405,173.947 203.018,172.76 202.36,171.742 C204.062,170.929 205.52,169.626 206.371,168.04 C206.41,168.04 206.448,168.053 206.487,168.04" id="Fill-23" sketch:type="MSShapeGroup"></path>
            <path d="M208.783,177.39 C210.859,178.242 212.007,180.241 210.627,182.278 C209.221,184.342 206.81,185.412 204.346,185.709 C204.011,185.657 203.676,185.606 203.353,185.567 C203.044,185.541 202.824,185.632 202.67,185.799 C202.425,185.799 202.18,185.774 201.935,185.748 C201.767,183.916 200.709,182.214 199.162,181.221 C199.02,181.131 198.865,181.04 198.71,180.963 C200.671,180.331 202.36,178.835 203.044,176.913 C203.134,176.952 203.237,176.978 203.353,176.978 C205.172,176.978 207.055,176.681 208.783,177.39" id="Fill-24" sketch:type="MSShapeGroup"></path>
            <path d="M210.511,192.48 C210.743,195.343 207.725,197.007 205.004,197.471 C204.449,197.136 203.817,196.891 203.095,196.775 C203.456,194.402 201.831,191.667 200.129,190.12 C201.057,189.359 201.741,188.25 201.922,186.96 C202.205,187.037 202.489,187.089 202.786,187.128 C202.928,187.27 203.108,187.386 203.353,187.411 C205.894,187.721 209.337,188.624 210.279,191.345 C210.305,191.422 210.318,191.5 210.343,191.577 C210.124,191.835 210.085,192.222 210.472,192.454 C210.485,192.467 210.498,192.467 210.511,192.48" id="Fill-25" sketch:type="MSShapeGroup"></path>
            <path d="M205.288,164.842 C205.352,167.434 203.572,169.394 201.444,170.607 C201.057,170.22 200.645,169.872 200.18,169.588 C199.226,168.982 197.807,168.44 196.505,168.427 C198.568,166.712 199.884,164.042 199.213,161.411 C201.935,159.477 205.197,161.592 205.288,164.842" id="Fill-26" sketch:type="MSShapeGroup"></path>
            <path d="M202.953,208.82 C204.54,210.2 205.094,213.051 203.276,214.56 C201.625,215.927 199.02,215.14 197.859,213.476 C198.968,211.98 199.187,210.291 198.8,208.691 C200.116,209.014 201.483,209.027 202.799,208.627 C202.837,208.691 202.876,208.756 202.953,208.82" id="Fill-27" sketch:type="MSShapeGroup"></path>
            <path d="M202.631,198.425 C207.429,199.676 206.165,205.596 202.076,206.834 C200.593,207.286 199.213,207.144 197.949,206.641 C197.034,205.067 195.589,203.726 193.951,202.939 C193.758,202.849 193.564,202.823 193.397,202.849 C194.493,201.547 194.828,199.934 194.544,198.387 C196.905,200.076 200.168,201.379 202.296,198.671 C202.373,198.58 202.437,198.464 202.502,198.361 C202.554,198.387 202.579,198.413 202.631,198.425" id="Fill-28" sketch:type="MSShapeGroup"></path>
            <path d="M201.212,156.949 C201.522,157.413 201.677,157.98 201.651,158.535 C201.651,158.625 201.638,158.716 201.625,158.806 C200.516,158.754 199.407,159.025 198.452,159.709 C198.169,159.322 197.82,158.948 197.433,158.587 C197.485,158.509 197.524,158.419 197.549,158.316 C197.678,157.581 197.64,156.833 197.459,156.11 C197.537,156.11 197.614,156.085 197.691,156.059 C198.904,155.491 200.451,155.814 201.212,156.949" id="Fill-29" sketch:type="MSShapeGroup"></path>
            <path d="M201.367,174.798 C201.638,178.358 197.64,180.408 194.609,179.506 C194.132,179.364 193.758,179.802 193.784,180.215 C193.693,180.241 193.603,180.254 193.513,180.279 C193.5,180.112 193.487,179.957 193.461,179.789 C193.164,178.087 192.262,176.926 191.011,176.191 C192.249,175.353 193.268,174.05 193.758,172.851 C194.093,172 194.235,171.135 194.209,170.297 C194.287,170.387 194.403,170.452 194.544,170.478 C196.015,170.736 197.279,170.271 198.723,171.045 C200.129,171.793 201.251,173.186 201.367,174.798" id="Fill-30" sketch:type="MSShapeGroup"></path>
            <path d="M198.581,191.293 C200.168,192.506 202.476,195.833 200.748,197.781 C198.968,199.793 195.873,197.974 194.054,196.891 C193.642,196.001 193.023,195.188 192.236,194.543 C192.545,194.324 192.842,194.066 193.139,193.757 C194.106,192.712 194.403,191.422 194.248,190.133 C195.486,191.242 196.995,191.448 198.349,191.061 C198.414,191.139 198.478,191.216 198.581,191.293" id="Fill-31" sketch:type="MSShapeGroup"></path>
            <path d="M200.374,289.633 C200.761,299.938 200.232,310.268 198.568,320.457 C197.64,326.106 196.427,331.703 194.867,337.21 C193.306,342.704 191.075,347.966 189.373,353.396 C188.367,353.035 187.374,352.661 186.381,352.287 C179.932,349.798 173.858,347.244 167.474,346.006 C172.104,326.699 173.896,306.696 175.444,286.951 C177.005,266.934 178.526,246.957 180.59,226.979 C182.228,226.734 183.763,225.728 184.459,224.245 C185.388,226.283 188.109,227.353 190.159,226.309 C191.282,225.741 192.081,224.658 192.416,223.459 C192.455,223.291 192.494,223.11 192.533,222.917 C193.719,238.522 192.674,254.334 194.867,269.823 C195.808,276.517 197.537,283.365 200.374,289.633" id="Fill-32" sketch:type="MSShapeGroup"></path>
            <path d="M199.91,185.374 C200.593,188.159 197.588,191.048 194.996,189.036 C194.661,188.779 194.261,188.869 194.029,189.114 C193.577,187.618 192.545,186.199 191.282,185.283 C192.287,184.458 193.048,183.388 193.371,182.149 C194.674,182.149 195.847,181.866 197.137,182.343 C198.517,182.859 199.562,183.929 199.91,185.374" id="Fill-33" sketch:type="MSShapeGroup"></path>
            <path d="M197.601,215.914 C198.414,218.145 197.227,220.557 194.532,220.131 C194.222,220.092 193.938,220.002 193.667,219.886 C193.642,219.77 193.616,219.641 193.59,219.512 C193.474,219.022 192.868,218.932 192.507,219.164 C191.746,218.467 191.269,217.5 191.049,216.443 C191.075,215.836 191.062,215.217 191.011,214.624 C192.597,215.798 195.086,215.927 196.814,214.56 C197.034,214.921 197.304,215.256 197.601,215.553 C197.562,215.656 197.562,215.785 197.601,215.914" id="Fill-34" sketch:type="MSShapeGroup"></path>
            <path d="M197.098,161.205 C198.452,164.042 196.079,166.983 193.861,168.492 C193.435,167.266 192.623,166.144 191.527,165.306 C190.998,164.906 190.443,164.622 189.889,164.403 C191.075,163.062 191.643,161.14 191.398,159.373 C192.404,159.025 193.229,158.638 194.338,158.948 C195.512,159.257 196.582,160.108 197.098,161.205" id="Fill-35" sketch:type="MSShapeGroup"></path>
            <path d="M196.415,207.737 C196.969,208.756 197.188,209.93 196.814,211.206 C195.808,214.547 190.817,214.843 190.495,210.923 C190.482,210.755 190.379,210.626 190.25,210.536 C190.766,208.588 190.675,206.383 190.082,204.642 C190.882,204.564 191.668,204.281 192.378,203.791 C192.442,203.894 192.507,204.01 192.584,204.126 C192.623,204.229 192.674,204.319 192.765,204.41 C193.706,205.777 194.983,206.925 196.415,207.737" id="Fill-36" sketch:type="MSShapeGroup"></path>
            <path d="M192.636,153.157 C194.57,154.034 195.267,155.594 195.705,157.426 C194.054,156.613 192.146,156.42 190.843,157.619 C190.521,157.013 190.082,156.472 189.502,156.033 C188.586,155.349 187.464,155.066 186.355,155.117 C186.342,155.079 186.342,155.053 186.329,155.027 C187.774,153.144 190.392,152.138 192.636,153.157" id="Fill-37" sketch:type="MSShapeGroup"></path>
            <path d="M190.095,195.356 C192.313,196.517 193.784,199.161 192.172,201.456 C190.353,204.061 186.523,202.939 186.226,199.844 C186.2,199.548 186.032,199.354 185.839,199.264 C185.891,197.162 185.388,194.892 184.743,193.099 C186.355,194.479 188.251,195.524 190.095,195.356" id="Fill-38" sketch:type="MSShapeGroup"></path>
            <path d="M190.779,167.06 C192.378,168.492 192.855,170.671 191.849,172.593 C190.959,174.282 189.631,174.721 188.148,175.288 C185.968,175.03 183.466,175.443 181.222,176.307 C181.686,175.43 182.06,174.514 182.305,173.534 C182.383,173.212 182.447,172.877 182.512,172.541 C182.628,172.412 182.692,172.232 182.653,172.012 C182.628,171.871 182.628,171.742 182.615,171.6 C182.628,171.251 182.628,170.89 182.602,170.555 C182.95,166.686 187.451,164.081 190.779,167.06" id="Fill-39" sketch:type="MSShapeGroup"></path>
            <path d="M191.72,188.546 C192.61,190.004 192.803,191.951 191.14,192.983 C188.277,194.75 185.336,192.132 183.324,190.004 C182.937,188.404 181.918,187.154 180.822,185.941 C182.731,186.831 184.872,187.231 186.897,187.05 C187.748,186.973 188.599,186.754 189.399,186.418 C190.314,186.96 191.127,187.579 191.72,188.546" id="Fill-40" sketch:type="MSShapeGroup"></path>
            <path d="M191.062,179.144 C192.571,181.698 191.191,183.4 189.089,184.29 C188.741,184.226 188.444,184.381 188.238,184.613 C186.652,185.103 184.859,185.193 183.621,184.935 C181.351,184.445 179.558,183.259 177.753,181.943 C177.727,181.866 177.688,181.801 177.662,181.737 C177.559,181.505 177.404,181.363 177.224,181.26 C179.107,179.635 180.887,178.461 183.427,177.777 C185.852,177.133 189.553,176.591 191.062,179.144" id="Fill-41" sketch:type="MSShapeGroup"></path>
            <path d="M190.534,219.125 C190.701,219.448 190.895,219.744 191.114,220.041 C190.856,220.092 190.637,220.247 190.559,220.544 C190.327,221.408 190.83,222.195 190.546,223.11 C190.224,224.103 189.347,224.929 188.264,224.955 C187.193,224.968 186.213,224.31 185.646,223.42 C185.555,223.278 185.4,222.93 185.181,222.685 C185.865,222.723 186.561,222.659 187.232,222.44 C188.947,221.885 189.979,220.634 190.534,219.125" id="Fill-42" sketch:type="MSShapeGroup"></path>
            <path d="M189.528,212.367 C189.553,212.496 189.605,212.625 189.644,212.754 C189.386,212.87 189.192,213.102 189.231,213.438 C189.541,215.888 189.631,219.448 186.948,220.673 C185.039,221.55 182.782,220.763 181.544,219.19 C182.847,218.184 183.75,216.701 183.698,215.076 C184.214,215.217 184.769,215.295 185.323,215.243 C187.309,215.101 188.676,213.941 189.528,212.367" id="Fill-43" sketch:type="MSShapeGroup"></path>
            <path d="M188.341,157.542 C190.521,159.296 189.463,162.714 187.348,163.952 C187.309,163.965 187.283,163.99 187.258,164.003 C184.781,164.184 182.537,165.861 181.635,168.208 C181.338,167.898 180.964,167.64 180.513,167.447 C180.461,167.421 180.396,167.408 180.345,167.382 C181.196,165.59 181.751,163.32 181.66,161.179 C181.931,160.779 182.189,160.366 182.421,159.941 C182.757,159.348 183.169,158.703 183.35,158.045 C184.614,156.742 186.871,156.355 188.341,157.542" id="Fill-44" sketch:type="MSShapeGroup"></path>
            <path d="M188.135,204.423 C188.07,205.944 188.586,207.44 188.457,208.988 C188.302,210.807 187.193,213.193 185.052,213.283 C181.144,213.45 181.054,208.369 181.196,205.338 C183.414,204.926 184.678,203.7 185.31,202.088 C185.865,203.236 186.922,204.049 188.135,204.423" id="Fill-45" sketch:type="MSShapeGroup"></path>
            <path d="M194.661,48.781 C191.836,52.238 189.399,55.888 187.412,59.563 C186.471,61.33 185.607,63.123 184.807,64.941 C178.771,39.844 165.359,16.642 145.458,0.044 C152.126,-0.292 158.897,1.32 164.843,4.274 C181.725,12.644 190.172,31.435 194.661,48.781" id="Fill-46" sketch:type="MSShapeGroup"></path>
            <path d="M184.033,66.695 C184.033,66.708 184.046,66.721 184.046,66.734 C178.101,81.217 176.579,97.171 177.52,113.112 C170.827,94.966 163.05,77.323 154.912,59.744 C146.8,42.217 138.352,23.877 124.604,9.949 C129.234,5.151 134.715,1.63 141.551,0.456 C142.415,0.315 143.292,0.211 144.169,0.134 C163.643,17.945 178.062,40.824 184.033,66.695" id="Fill-47" sketch:type="MSShapeGroup"></path>
            <path d="M182.963,193.409 C184.085,196.555 185.349,201.095 181.841,203.094 C181.016,203.558 180.177,203.597 179.429,203.352 C179.3,203.262 179.145,203.197 178.978,203.172 C178.101,202.733 177.366,201.933 176.914,201.018 C176.373,199.896 176.231,198.645 176.257,197.394 C176.579,196.671 176.824,195.949 176.992,195.24 C177.649,195.524 178.385,195.691 179.171,195.666 C180.848,195.614 182.241,194.737 182.963,193.409" id="Fill-48" sketch:type="MSShapeGroup"></path>
            <path d="M183.169,222.259 C183.118,222.349 183.066,222.44 183.04,222.556 C182.576,224.465 180.654,225.625 178.72,225.096 C177.366,224.735 176.373,223.742 175.702,222.569 C175.999,221.859 176.231,221.098 176.45,220.337 C177.753,220.712 179.171,220.505 180.422,219.886 C181.029,220.982 182.034,221.795 183.169,222.259" id="Fill-49" sketch:type="MSShapeGroup"></path>
            <path d="M182.099,214.263 L182.099,214.289 C181.789,216.894 179.094,219.822 176.282,218.235 C175.47,217.771 174.928,217.01 174.619,216.133 C174.683,215.927 174.606,215.733 174.464,215.604 C174.27,214.727 174.296,213.786 174.58,212.948 C176.901,211.4 178.668,207.711 179.481,205.312 C179.584,205.325 179.7,205.351 179.803,205.364 C179.352,207.608 179.171,209.981 180.229,212.058 C180.667,212.922 181.325,213.696 182.099,214.263" id="Fill-50" sketch:type="MSShapeGroup"></path>
            <path d="M184.524,155.491 C182.963,156.098 181.66,157.374 181.377,159.128 L181.377,159.206 C180.899,157.413 179.803,155.891 177.817,155.117 C177.095,154.834 176.334,154.795 175.612,154.924 C176.901,153.557 178.63,152.757 180.577,152.989 C182.486,153.221 183.311,154.382 184.524,155.491" id="Fill-51" sketch:type="MSShapeGroup"></path>
            <path d="M183.763,151.97 C182.795,151.403 181.699,151.055 180.706,150.964 C177.985,150.732 175.457,152.254 174.193,154.614 C172.516,152.809 169.06,152.757 167.009,153.763 C167.009,153.66 166.984,153.557 166.932,153.454 C144.414,113.731 124.849,72.834 106.638,30.984 C106.522,30.726 106.187,30.739 105.994,30.893 L105.994,30.88 C106.651,30.429 107.283,29.939 107.902,29.423 C113.577,24.703 117.485,18.306 122.154,12.683 C122.682,12.038 123.237,11.406 123.804,10.8 C136.456,25.722 145.729,42.591 153.829,60.376 C162.263,78.909 171.162,97.493 177.765,116.8 C178.759,128.82 181.041,140.763 183.763,151.97" id="Fill-52" sketch:type="MSShapeGroup"></path>
            <path d="M180.771,188.83 C181.738,190.481 182.06,193.035 179.778,193.654 C176.85,194.427 175.212,191.448 175.134,188.946 C175.096,187.773 175.328,186.638 175.689,185.528 C176.011,184.922 176.295,184.277 176.527,183.62 C177.095,184.548 177.753,185.374 178.539,186.212 C179.313,187.037 180.19,187.837 180.771,188.83" id="Fill-53" sketch:type="MSShapeGroup"></path>
            <path d="M180.113,169.227 C181.738,170.4 180.642,173.508 180.035,175.017 C179.648,175.972 179.145,176.836 178.552,177.636 C177.611,178.229 176.811,178.899 176.218,179.622 C176.166,179.157 176.076,178.667 175.96,178.216 C175.986,178.087 175.999,177.945 175.96,177.79 C175.444,175.611 174.593,172.76 175.831,170.658 C176.579,169.381 178.733,168.221 180.113,169.227" id="Fill-54" sketch:type="MSShapeGroup"></path>
            <path d="M179.674,159.541 C180.564,162.185 179.365,164.635 178.643,167.137 C177.701,167.189 176.747,167.511 175.947,168.027 C176.115,166.325 175.689,164.687 174.877,163.307 C174.812,162.636 174.541,161.94 174.296,161.359 C174.051,160.753 173.729,160.16 173.38,159.58 C173.058,158.071 174.438,156.613 175.986,156.523 C177.74,156.42 179.145,157.967 179.674,159.541" id="Fill-55" sketch:type="MSShapeGroup"></path>
            <path d="M179.107,226.992 C179.274,227.018 179.442,227.018 179.623,227.018 C176.502,245.99 175.715,265.361 174.309,284.513 C172.8,305.11 170.543,325.487 166.313,345.722 L166.313,345.787 C162.431,345.142 158.433,344.987 154.151,345.658 C150.282,346.264 146.452,347.205 142.595,347.876 C143.098,333.328 144.607,318.935 147.948,304.736 C150.862,292.328 155.131,280.476 160.019,268.779 C168.944,256.668 174.051,242.172 172.155,226.309 C172.142,226.219 172.117,226.128 172.091,226.051 C173.406,225.832 174.309,225.071 174.967,224.039 C175.87,225.548 177.262,226.721 179.107,226.992" id="Fill-56" sketch:type="MSShapeGroup"></path>
            <path d="M176.089,202.991 C176.489,203.584 177.005,204.1 177.572,204.487 C176.592,206.95 174.167,212.328 171.665,211.142 C168.531,209.659 169.163,205.493 169.885,202.759 C171.897,202.694 173.677,201.34 174.993,199.56 C175.07,200.76 175.38,201.933 176.089,202.991" id="Fill-57" sketch:type="MSShapeGroup"></path>
            <path d="M167.628,183.607 C169.989,182.498 172.632,182.033 175.238,182.059 C174.335,184.535 172.091,187.979 169.305,189.539 C169.215,189.552 169.137,189.591 169.047,189.668 C168.209,190.094 167.319,190.352 166.416,190.352 C165.745,190.352 165.062,190.21 164.378,189.913 C160.432,188.159 165.707,184.497 167.628,183.607" id="Fill-58" sketch:type="MSShapeGroup"></path>
            <path d="M171.872,174.992 C172.207,175.327 175.625,180.021 174.657,180.744 C174.631,180.731 174.593,180.731 174.567,180.718 C174.515,180.357 174.27,180.009 173.78,179.983 C171.665,179.918 169.382,179.905 167.422,178.951 C166.016,178.255 164.572,176.746 164.404,175.159 C164.714,174.953 164.804,174.463 164.482,174.205 C164.611,173.728 164.881,173.251 165.346,172.812 C167.306,170.955 170.479,173.573 171.872,174.992" id="Fill-59" sketch:type="MSShapeGroup"></path>
            <path d="M175.006,219.628 C174.799,219.899 174.631,220.196 174.49,220.518 C174.154,220.505 173.819,220.776 173.909,221.202 C173.935,221.369 173.974,221.537 174.012,221.705 C173.535,222.956 173.032,224.116 171.291,224.232 C168.467,224.4 167.151,221.563 166.855,219.151 C169.047,220.041 171.691,219.383 173.406,217.758 C173.793,218.493 174.335,219.138 175.006,219.628" id="Fill-60" sketch:type="MSShapeGroup"></path>
            <path d="M165.952,162.159 C170.453,159.373 175.328,164.042 174.141,168.737 C174.051,169.098 174.193,169.381 174.412,169.562 C173.626,170.813 173.393,172.27 173.458,173.766 C172.039,172.128 170.169,170.645 168.209,170.207 C165.41,167.885 162.405,164.352 165.952,162.159" id="Fill-61" sketch:type="MSShapeGroup"></path>
            <path d="M173.729,191.461 C174.077,192.596 174.722,193.602 175.573,194.35 C174.915,196.052 174.374,197.858 173.071,199.199 C171.717,200.579 169.357,201.43 167.667,200.128 C164.869,197.961 166.816,194.311 168.66,191.835 C168.931,191.745 169.189,191.642 169.434,191.526 C170.93,190.855 172.258,189.862 173.393,188.688 C173.355,189.604 173.432,190.533 173.729,191.461" id="Fill-62" sketch:type="MSShapeGroup"></path>
            <path d="M170.801,213.231 C171.51,213.605 172.181,213.708 172.839,213.631 C172.62,214.521 172.645,215.462 172.865,216.365 C171.072,217.629 168.544,218.3 166.739,216.752 C165.913,216.043 165.5,214.947 165.475,213.889 C165.436,212.728 166.068,211.954 166.416,210.91 L166.416,210.858 C166.971,210.523 167.435,210.02 167.732,209.336 C168.286,211.013 169.344,212.47 170.801,213.231" id="Fill-63" sketch:type="MSShapeGroup"></path>
            <path d="M173.071,156.265 C171.949,157.413 171.472,159.09 172.426,160.715 C170.427,159.386 167.835,159.025 165.294,160.405 C165.255,160.418 165.23,160.444 165.204,160.457 C165.114,160.225 164.997,160.005 164.869,159.799 C165.062,158.032 166.029,156.394 167.693,155.569 C169.756,154.55 171.304,155.453 173.071,156.265" id="Fill-64" sketch:type="MSShapeGroup"></path>
            <path d="M169.808,226.309 C172.723,251.007 157.749,273.047 138.081,286.525 C128.679,292.961 118.065,298.223 107.18,301.602 C97.662,304.568 86.351,305.522 77.44,300.737 C87.577,299.77 96.85,294.25 105.4,289.078 C114.248,283.739 122.644,277.587 130.343,270.713 C145.497,257.184 158.317,240.25 164.933,220.905 C165.023,220.621 164.946,220.415 164.791,220.26 C165.088,220.002 165.359,219.718 165.591,219.383 C165.604,222.246 166.945,225.174 169.821,225.922 C169.795,226.038 169.782,226.167 169.808,226.309" id="Fill-65" sketch:type="MSShapeGroup"></path>
            <path d="M168.428,202.578 C167.383,204.036 167.087,206.022 167.383,207.918 C167.022,207.789 166.558,207.879 166.287,208.253 C164.443,210.755 161.464,208.949 161.348,206.228 C161.283,204.577 162.083,203.133 163.153,201.921 C164.03,201.598 164.869,201.185 165.604,200.682 C165.926,201.134 166.339,201.534 166.842,201.856 C167.37,202.204 167.899,202.436 168.428,202.578" id="Fill-66" sketch:type="MSShapeGroup"></path>
            <path d="M163.282,177.3 C164.404,179.493 166.416,180.563 168.634,181.105 C166.971,181.556 165.371,182.304 163.901,183.388 C163.772,183.478 163.656,183.594 163.527,183.697 C163.489,183.684 163.45,183.671 163.411,183.671 C160.329,183.529 155.041,183.001 154.757,178.951 C154.486,175.069 159.594,175.172 162.728,175.25 C162.779,175.959 162.96,176.668 163.282,177.3" id="Fill-67" sketch:type="MSShapeGroup"></path>
            <path d="M165.758,154.137 C165.823,154.253 165.913,154.331 166.016,154.382 C164.701,155.388 163.888,156.871 163.617,158.471 C162.844,157.916 161.902,157.568 160.922,157.4 C151.069,150.552 142.789,143.175 135.18,133.811 C127.454,124.293 120.013,114.492 112.803,104.587 C98.32,84.661 85.371,63.291 79.413,39.16 C79.4,39.109 79.374,39.083 79.361,39.044 C82.715,38.412 86.119,37.935 89.421,37.277 C95.341,36.104 101.067,34.324 105.994,30.88 L105.994,30.893 C105.865,30.984 105.8,31.138 105.865,31.306 C122.811,73.492 143.395,114.569 165.758,154.137 L165.758,154.137 L165.758,154.137 Z M108.044,37.161 L108.044,36.736 C108.044,36.633 107.889,36.633 107.889,36.736 L107.889,37.161 C107.889,37.265 108.044,37.265 108.044,37.161 L108.044,37.161 L108.044,37.161 Z" id="Fill-68" sketch:type="MSShapeGroup"></path>
            <path d="M165.926,193.176 C165.32,194.092 164.856,195.098 164.675,196.246 C164.533,197.149 164.572,198.09 164.804,198.967 C162.624,200.192 160.058,201.353 157.646,199.999 C155.105,198.58 155.067,194.711 158.343,194.26 C158.601,194.234 158.717,194.079 158.755,193.912 C161.128,194.04 163.85,193.486 165.926,193.176" id="Fill-69" sketch:type="MSShapeGroup"></path>
            <path d="M163.991,216.094 C164.172,216.559 164.404,216.984 164.649,217.358 C163.463,219.293 161.515,220.041 159.258,219.835 C156.614,219.589 154.035,217.436 155.131,214.572 C155.209,214.379 155.157,214.224 155.041,214.095 C155.054,214.082 155.093,214.057 155.105,214.044 C155.144,214.199 155.196,214.353 155.26,214.508 C156.808,218.081 161.051,217.41 163.991,216.094" id="Fill-70" sketch:type="MSShapeGroup"></path>
            <path d="M162.599,164.855 C162.831,166.725 164.172,168.672 165.862,170.245 C164.224,170.684 163.218,172.025 162.857,173.573 C162.766,173.547 162.65,173.534 162.56,173.508 C162.547,173.263 162.392,173.057 162.096,173.096 C159.361,173.431 156.086,171.226 156.679,168.169 C157.259,165.216 160.109,164.7 162.599,164.855" id="Fill-71" sketch:type="MSShapeGroup"></path>
            <path d="M163.669,161.205 C163.695,161.308 163.759,161.398 163.824,161.463 C163.218,162.056 162.857,162.701 162.689,163.384 C160.213,161.901 156.95,163.629 155.492,166.028 C155.428,165.951 155.376,165.899 155.312,165.835 C154.577,163.552 155.312,160.65 157.595,159.515 C160.006,158.316 161.992,159.618 163.669,161.192 C163.669,161.192 163.669,161.192 163.669,161.205" id="Fill-72" sketch:type="MSShapeGroup"></path>
            <path d="M163.901,211.426 C163.36,212.38 163.347,213.696 163.63,214.947 C161.27,215.604 157.698,216.468 156.821,213.554 C156.086,211.09 158.356,210.007 159.903,208.614 C160.006,208.846 160.109,209.078 160.251,209.311 C161.012,210.574 162.457,211.322 163.901,211.426" id="Fill-73" sketch:type="MSShapeGroup"></path>
            <path d="M161.786,190.739 C162.431,191.448 163.269,191.874 164.198,192.093 C161.58,192.39 158.807,192.764 156.782,191.229 C154.499,189.488 155.841,186.702 158.175,185.812 C159.349,185.361 160.612,185.374 161.876,185.425 C160.716,187.037 160.238,189.011 161.786,190.739" id="Fill-74" sketch:type="MSShapeGroup"></path>
            <path d="M153.867,214.727 C151.572,219.925 158.897,223.059 163.36,221.15 C156.227,239.58 144.839,255.456 130.24,268.766 C122.85,275.498 114.802,281.469 106.342,286.783 C97.275,292.483 87.293,298.867 76.459,300.105 C76.421,300.105 76.408,300.118 76.369,300.131 C74.731,299.138 73.171,297.939 71.739,296.494 C70.372,295.127 69.315,293.605 68.412,292.006 C103.775,277.91 133.877,248.685 150.953,214.882 C151.92,215.076 152.926,215.05 153.867,214.727" id="Fill-75" sketch:type="MSShapeGroup"></path>
            <path d="M154.757,200.063 C156.253,202.153 158.536,202.759 160.832,202.488 C159.993,203.623 159.465,204.9 159.426,206.254 C159.361,206.254 159.284,206.293 159.232,206.37 C157.246,208.859 153.21,209.336 151.507,206.241 C150.785,204.938 150.785,203.352 151.61,202.088 C152.384,200.889 153.493,200.489 154.706,199.986 C154.719,200.012 154.732,200.038 154.757,200.063" id="Fill-76" sketch:type="MSShapeGroup"></path>
            <path d="M159.31,157.31 C158.459,157.349 157.633,157.555 156.937,157.929 C154.383,159.27 153.287,162.288 154.022,164.932 C153.854,164.855 153.674,164.816 153.481,164.777 C153.506,164.493 153.429,164.197 153.21,163.926 C140.867,148.862 125.932,136.172 108.999,126.525 C105.761,124.68 102.408,122.888 98.965,121.211 C90.453,111.113 81.863,101.079 74.254,90.271 C66.116,78.715 59.951,66.566 54.767,53.489 C57.759,49.117 61.654,45.403 66.451,42.978 C70.153,41.121 74.125,40.063 78.175,39.263 C78.175,39.341 78.175,39.418 78.188,39.496 C84.275,64.49 97.907,86.518 112.971,107.05 C120.129,116.787 127.429,126.512 135.128,135.811 C141.796,143.845 149.65,152.706 159.31,157.31" id="Fill-77" sketch:type="MSShapeGroup"></path>
            <path d="M155.608,183.426 C156.176,183.8 156.782,184.058 157.401,184.239 C155.299,184.858 153.635,186.186 153.493,188.482 C153.442,188.469 153.403,188.469 153.364,188.469 C153.326,188.443 153.287,188.417 153.235,188.404 C150.746,187.631 147.767,186.663 147.096,183.787 C146.748,182.33 147.135,180.615 148.528,179.828 C149.843,179.106 151.443,179.364 152.887,179.338 C153.145,180.989 154.216,182.523 155.608,183.426" id="Fill-78" sketch:type="MSShapeGroup"></path>
            <path d="M149.998,207.131 C151.314,209.388 153.816,210.278 156.034,209.801 C155.363,210.755 154.964,211.851 154.951,212.922 C154.77,212.754 154.525,212.677 154.228,212.767 C152.255,213.425 149.985,213.296 148.644,211.477 C147.341,209.71 147.741,207.157 149.07,205.545 C149.121,205.493 149.147,205.428 149.16,205.364 C149.237,205.338 149.315,205.312 149.379,205.261 C149.469,205.932 149.663,206.563 149.998,207.131" id="Fill-79" sketch:type="MSShapeGroup"></path>
            <path d="M157.749,173.573 C155.363,174.14 153.313,175.52 152.913,177.829 C152.616,177.777 152.307,177.739 152.01,177.7 C150.114,175.74 148.399,173.56 148.554,170.658 C148.76,167.034 151.881,165.951 154.757,167.305 C154.796,167.331 154.847,167.331 154.886,167.344 C154.822,167.576 154.77,167.795 154.744,168.027 C154.448,170.374 155.815,172.49 157.749,173.573" id="Fill-80" sketch:type="MSShapeGroup"></path>
            <path d="M156.24,193.383 C154.538,194.156 153.7,196.246 154.009,198.168 C151.378,198.619 148.141,197.574 146.967,195.072 C145.02,190.894 150.837,189.978 153.532,189.862 C153.545,189.862 153.558,189.849 153.571,189.849 C153.906,191.745 154.899,192.815 156.24,193.383" id="Fill-81" sketch:type="MSShapeGroup"></path>
            <path d="M145.046,194.905 C145.871,197.948 148.76,199.444 151.649,199.431 C150.334,200.399 149.508,202.101 149.353,203.816 C149.212,203.726 149.057,203.662 148.863,203.687 C146.31,203.958 143.498,202.965 142.595,200.321 C141.809,197.987 142.905,195.214 144.865,193.77 C144.878,194.131 144.93,194.505 145.046,194.905" id="Fill-82" sketch:type="MSShapeGroup"></path>
            <path d="M151.03,164.945 C149.985,165.28 149.005,165.912 148.283,166.699 C112.107,140.763 68.347,114.711 22.086,122.398 C30.456,115.794 41.947,112.377 51.994,112.093 C71.017,111.551 89.963,119.212 106.355,128.292 C123.301,137.693 138.443,150.216 151.03,164.945" id="Fill-83" sketch:type="MSShapeGroup"></path>
            <path d="M147.561,167.705 C147.522,167.782 147.471,167.86 147.432,167.95 C147.006,168.878 146.838,169.859 146.838,170.826 C145.562,170.684 144.285,171.071 143.279,171.819 C124.307,158.161 102.215,148.811 79.348,144.142 C57.011,139.564 32.674,138.545 10.414,144.168 C10.466,143.033 10.569,141.885 10.749,140.75 C11.871,133.863 15.457,128.227 20.383,123.829 C67.599,117.161 110.198,141.356 147.561,167.705" id="Fill-84" sketch:type="MSShapeGroup"></path>
            <path d="M147.174,205.545 C147.329,205.545 147.471,205.57 147.625,205.57 C146.013,207.44 145.691,210.213 147.096,212.367 C147.715,213.309 148.631,214.005 149.65,214.456 C140.738,231.081 129.389,246.26 115.679,259.248 C101.557,272.609 85.462,282.81 68.064,291.297 C68.051,291.297 68.051,291.31 68.038,291.31 C66.632,288.64 65.587,285.751 64.233,282.965 C62.969,280.347 61.357,278.09 59.41,276.13 C59.423,276.117 59.435,276.117 59.448,276.104 C66.864,271.061 73.674,265.026 80.612,259.351 C87.977,253.328 95.341,247.305 102.705,241.295 C109.863,235.453 117.008,229.61 124.166,223.781 C131.607,217.719 138.868,211.31 146.903,206.048 C147.096,205.919 147.174,205.725 147.174,205.545" id="Fill-85" sketch:type="MSShapeGroup"></path>
            <path d="M132.175,293.115 C141.512,287.763 150.205,280.747 157.13,272.454 C146.413,295.875 141.061,322.649 141.331,348.082 C138.481,348.534 135.605,348.805 132.678,348.637 C126.603,348.289 120.645,346.393 115.421,343.298 C115.924,343.065 115.705,342.304 115.151,342.24 C113.912,342.098 114.596,331.252 114.673,330.065 C114.996,325.487 115.782,320.934 116.982,316.51 C118.813,309.752 121.586,301.473 126.706,296.095 C128.628,295.101 130.459,294.095 132.175,293.115" id="Fill-86" sketch:type="MSShapeGroup"></path>
            <path d="M146.929,171.948 C147.277,174.153 148.567,176.256 150.321,177.687 C148.85,177.829 147.496,178.345 146.555,179.286 C144.698,178.835 142.827,177.739 142.982,175.508 C143.034,174.901 143.24,174.373 143.537,173.908 C143.589,173.934 143.64,173.973 143.692,174.011 C144.465,174.54 145.149,173.431 144.594,172.812 C145.278,172.335 146.103,172.025 146.929,171.948" id="Fill-87" sketch:type="MSShapeGroup"></path>
            <path d="M145.265,182.936 C145.394,185.735 147.406,187.734 149.869,188.65 C148.038,189.049 146.335,189.926 145.458,191.319 C144.401,191.036 143.382,190.907 142.557,190.081 C141.525,189.036 141.022,187.489 141.344,186.057 C141.822,183.865 143.576,182.227 145.471,181.143 C145.304,181.685 145.226,182.278 145.265,182.936" id="Fill-88" sketch:type="MSShapeGroup"></path>
            <path d="M140.88,200.798 C141.589,203.055 143.524,204.706 145.729,205.312 C138.804,209.568 132.6,214.869 126.319,220.015 C118.749,226.231 111.178,232.435 103.595,238.625 C96.231,244.648 88.867,250.671 81.489,256.694 C73.957,262.859 66.026,268.779 59.049,275.575 C58.997,275.614 58.984,275.666 58.971,275.717 C57.901,274.685 56.74,273.718 55.476,272.841 C51.156,269.81 45.984,267.67 41.354,264.858 C47.661,258.074 53.529,251.045 60.416,244.79 C67.806,238.097 75.737,232.035 84.185,226.734 C101.738,215.707 120.67,205.209 140.325,198.49 C140.442,198.451 140.519,198.387 140.596,198.322 C140.519,199.122 140.609,199.947 140.88,200.798" id="Fill-89" sketch:type="MSShapeGroup"></path>
            <path d="M141.164,191.268 C142.028,192.235 143.163,192.918 144.362,192.931 C142.492,193.912 141.125,195.601 140.712,197.574 C140.596,197.303 140.338,197.123 139.977,197.226 C129.84,200.334 120.296,204.977 110.946,209.93 C101.441,214.959 91.846,220.002 82.779,225.793 C67.174,235.775 51.091,248.866 40.773,264.497 C37.678,262.562 34.867,260.292 32.803,257.21 C31.32,255.005 30.314,252.528 29.695,249.923 C41.496,232.461 56.16,218.377 75.428,209.401 C85.397,204.758 95.908,201.482 106.484,198.567 C117.666,195.498 129.105,191.9 140.751,191.422 C140.919,191.41 141.048,191.345 141.164,191.268" id="Fill-90" sketch:type="MSShapeGroup"></path>
            <path d="M142.157,172.954 C141.68,173.625 141.37,174.411 141.28,175.288 C141.19,176.23 141.422,177.171 141.847,178.01 C101.351,161.643 54.367,156.085 11.613,165.99 C12.155,158.961 10.272,152.048 10.388,145.109 C33.848,141.524 56.959,140.776 80.303,145.909 C102.563,150.81 123.405,160.083 142.157,172.954" id="Fill-91" sketch:type="MSShapeGroup"></path>
            <path d="M144.143,180.576 C142.247,181.479 140.596,182.936 139.848,184.819 C125.778,180.873 110.095,180.434 94.838,182.652 C94.786,182.42 94.606,182.24 94.296,182.253 C78.91,182.846 63.537,183.8 48.151,184.561 C33.332,185.296 18.23,185.309 3.475,186.999 C6.235,181.118 9.937,175.662 11.201,169.085 C11.343,168.401 11.433,167.718 11.51,167.034 C33.861,163.5 56.16,161.927 78.742,164.197 C101.209,166.441 123.237,172.025 144.143,180.576" id="Fill-92" sketch:type="MSShapeGroup"></path>
            <path d="M139.474,187.708 C139.552,188.456 139.822,189.243 140.235,189.978 C128.873,190.184 117.666,193.873 106.806,196.865 C95.857,199.883 84.984,203.301 74.693,208.137 C56.289,216.778 39.445,230.887 29.45,248.827 C27.735,240.005 30.172,229.752 33.525,222.143 C37.936,212.148 45.391,203.494 54.818,197.923 C66.619,190.945 81.373,187.27 94.838,185.219 C109.876,182.936 124.527,184.2 139.474,186.354 C139.423,186.792 139.423,187.244 139.474,187.708" id="Fill-93" sketch:type="MSShapeGroup"></path>
            <path d="M123.83,297.539 C119.51,303.007 117.111,310.694 115.499,316.859 C114.248,321.643 113.487,326.583 113.242,331.535 C113.113,334.154 112.313,339.183 113.526,342.098 C101.66,334.089 96.385,320.238 97.108,306.257 C106.29,305.11 115.744,301.498 123.83,297.539" id="Fill-94" sketch:type="MSShapeGroup"></path>
            <path d="M108.044,36.736 L108.044,37.161 C108.044,37.265 107.889,37.265 107.889,37.161 L107.889,36.736 C107.889,36.633 108.044,36.633 108.044,36.736" id="Fill-95" sketch:type="MSShapeGroup"></path>
            <path d="M97.043,120.283 C83.837,114.027 69.379,109.436 54.947,109.359 C46.977,94.527 44.062,77.194 50.614,61.214 C51.555,58.906 52.703,56.661 54.044,54.559 C57.952,67.65 65.394,79.838 73.184,90.89 C80.47,101.208 88.621,110.881 97.043,120.283" id="Fill-96" sketch:type="MSShapeGroup"></path>
            <path d="M87.822,183.852 C77.659,185.89 67.857,189.049 58.997,193.112 C51.091,196.749 44.049,202.411 38.581,209.323 C26.368,212.844 13.973,213.128 1.515,210.82 C-0.252,205.235 -0.458,199.148 1.038,193.473 C1.567,191.461 2.315,189.539 3.166,187.682 C18.088,188.121 33.255,186.728 48.151,185.993 C61.37,185.335 74.602,184.729 87.822,183.852" id="Fill-97" sketch:type="MSShapeGroup"></path>
            <path d="M37.188,211.155 C32.584,217.474 29.269,224.71 27.709,232.306 C19.738,230.836 12.4,227.405 7.074,221.06 C4.778,218.326 3.037,215.192 1.85,211.864 C13.496,214.624 25.658,214.199 37.188,211.155" id="Fill-98" sketch:type="MSShapeGroup"></path>
        </g>
    </g>
</svg>