<?xml version="1.0" encoding="utf-8"?>
<!-- Generator: Adobe Illustrator 18.0.0, SVG Export Plug-In . SVG Version: 6.00 Build 0)  -->
<!DOCTYPE svg PUBLIC "-//W3C//DTD SVG 1.1//EN" "http://www.w3.org/Graphics/SVG/1.1/DTD/svg11.dtd">
<svg version="1.1" id="Layer_1" xmlns="http://www.w3.org/2000/svg" xmlns:xlink="http://www.w3.org/1999/xlink" x="0px" y="0px"
	 width="169.6px" height="151.8px" viewBox="0 0 169.6 151.8" enable-background="new 0 0 169.6 151.8" xml:space="preserve">
<g>
	<path d="M2.1,34.6c0-1.1-1.6-1.1-1.7,0C0.2,42,0.7,49.4,0,56.9c-0.1,0.7,1.1,0.8,1.2,0.2C2.9,49.7,2.4,42,2.1,34.6z"/>
	<path d="M7.3,24.7c-0.1-0.9-1.7-0.9-1.8,0C3.5,37.8,4,52,4.6,65.1c0,0.6,1,0.6,1,0C6.3,52.1,9.1,37.8,7.3,24.7z"/>
	<path d="M13.4,19.9c0-1.7-2.6-1.7-2.6,0C10.5,38.6,9.5,57.3,10.2,76c0,0.8,1.1,0.7,1.2,0C13.4,57.4,13.6,38.5,13.4,19.9z"/>
	<path d="M20.4,12.3c0-1.7-2.7-1.7-2.7,0c0.2,24.1,3.1,48-1.9,71.8c-0.2,1,1.1,1.3,1.5,0.4C25.4,61.8,20.7,35.7,20.4,12.3z"/>
	<path d="M24.9,7.2c-0.1-1.7-2.8-1.8-2.7,0c1.7,28.7,3.3,57.2,3.2,86c0,1,1.3,0.9,1.5,0C30,64.7,27.2,35.6,24.9,7.2z"/>
	<path d="M31.4,4.2c-0.3-1.7-3.2-1.3-3,0.4c3.8,31.1,2.3,61.8,3.3,93c0,1,1.5,1,1.5,0C34.6,66.8,36.9,34.8,31.4,4.2z"/>
	<path d="M39.7,1.4c-0.1-1.9-2.9-1.9-2.9,0c-0.6,17.4,0.7,34.8,0.5,52.2C37,71.6,36.2,89.2,40,106.8c0.2,0.8,1.6,0.7,1.5-0.2
		C37.9,71.9,40.9,36.3,39.7,1.4z"/>
	<path d="M44.7,1.4c0-1.8-2.7-1.8-2.7,0c0,36.3,2.4,72.6,3,109c0,1.2,1.7,1.2,1.8,0C49.3,74.2,45.1,37.7,44.7,1.4z"/>
	<path d="M49.2,2.1c-0.2-1.8-3-1.8-2.8,0c4.1,38.6,2.8,77.2,4.2,116c0,1.3,2,1.3,2,0C54.1,79.5,53.5,40.4,49.2,2.1z"/>
	<path d="M57.7,5.2c-0.1-2.1-3.2-2.1-3.2,0c0.1,24,1.9,47.9,1.4,72c-0.3,13.6-4.2,32.7,1.7,45.5c0.2,0.4,0.8,0.2,0.8-0.2
		c-1.6-17,0.4-34.9,0.9-52C59.9,48.6,58.3,27.1,57.7,5.2z"/>
	<path d="M66.4,9.3c-0.2-1.6-3.1-1.3-2.9,0.4c5.3,40-6.6,80.4,1.2,120.1c0.2,1.1,2,0.9,2-0.3C63.4,89.4,72.1,49.2,66.4,9.3z"/>
	<path d="M72.7,72.4c-0.3-20.1,1.9-40,0.7-60.2c-0.1-1.8-3-1.9-2.9,0c1.2,20.1-0.5,40.1-0.7,60.2c-0.3,21.8,1.7,43.6,2,65.4
		c0,1.1,1.5,1,1.6,0C75.3,116,73,94.2,72.7,72.4z"/>
	<path d="M79.3,25.6c0-2-3-2-3,0c-0.8,39.7-6.3,80.2,2.7,119.4c0.2,0.9,1.6,0.5,1.4-0.4C73.6,105.1,79.4,65.4,79.3,25.6z"/>
	<path d="M82.6,26.6c-0.2-1.2-2.3-1-2.2,0.3c3.7,41.2-1.5,83.6,4.4,124.4c0.1,0.7,1.1,0.5,1.2-0.2C87.5,110.6,89.7,66.7,82.6,26.6z"
		/>
	<path d="M91.6,16.7c0-1.4-2.2-1.4-2.2,0c0.1,41.4-3,83.4,2.9,124.5c0.1,0.8,1.5,0.6,1.5-0.2C92.6,99.5,91.4,58.2,91.6,16.7z"/>
	<path d="M102.2,11c0-2-3.1-2-3.1,0c-0.3,42.4,2.8,84.5,0.4,126.8c0,0.6,1,0.7,1.1,0.1C107.4,96,101.8,53.2,102.2,11z"/>
	<path d="M107.2,9.3c-0.4-2-3.3-1.1-3,0.8c6.1,39.1-4.7,79,4,117.7c0.2,0.8,1.5,0.6,1.5-0.2C106.1,88.2,114.8,48.2,107.2,9.3z"/>
	<path d="M114.6,6.5c-0.1,38-2.7,76.1-1.3,114.1c0,1,1.5,1,1.6,0c1.6-38,2.4-76.1,2.5-114.1C117.4,4.7,114.6,4.7,114.6,6.5z"/>
	<path d="M123,5.2c0-1.7-2.6-1.7-2.6,0c-0.6,23.3-0.2,46.6-1.7,69.9c-0.6,9.4-5,31.5,3.5,38.6c0.1,0.1,0.4,0.1,0.4-0.2
		C118.8,78,123.9,41.2,123,5.2z"/>
	<path d="M127.1,4.6c-0.2-2-3.3-2-3.1,0c3.5,34.6-4,70.8,4.6,104.7c0.2,0.9,1.7,0.7,1.6-0.2C127.3,74.3,131.1,39.2,127.1,4.6z"/>
	<path d="M134,5.5c-0.4-2-3.4-1.1-3,0.8c5.8,31.9,1.5,63.7,1.3,95.8c0,1.1,1.6,1.1,1.7,0C136.8,70.4,140.9,36.9,134,5.5z"/>
	<path d="M139.4,5.6c-0.3-1.3-2.4-1-2.3,0.3c2.5,31.1,0.8,62,2.8,93c0.1,1.2,1.8,1.2,1.9,0C144,68.5,146.1,35.5,139.4,5.6z"/>
	<path d="M146.5,8.4c-0.1-1.6-2.4-1.6-2.4,0c-0.5,17.1,2.1,34.1,1.3,51.3c-0.4,8.5-2.6,20.3,3.7,27.2c0.1,0.1,0.2,0,0.2-0.1
		C147.4,60.8,148.1,34.6,146.5,8.4z"/>
	<path d="M153,11.6c-0.2-1.7-2.8-1.8-2.7,0c1.5,22.5,1.9,45.1,3.5,67.6c0.1,1.3,2,1.3,2,0C156.2,56.6,155.2,34,153,11.6z"/>
	<path d="M159.1,20.2c-0.2-1.2-2.3-1-2.2,0.3c1.4,17,0.2,34,0.9,51c0,1.1,1.6,1.1,1.6,0C160.5,54.7,162.4,36.9,159.1,20.2z"/>
	<path d="M163.6,25.3c-0.5-1.4-2.5-0.9-2.3,0.6c2.2,12.2,2.9,23.7,1.6,36c-0.1,0.9,1.4,1.1,1.6,0.2
		C167.1,50.6,167.8,36.6,163.6,25.3z"/>
	<path d="M169.2,41.3c-0.2-1-1.8-1-2,0c-0.4,2.1-0.2,4.2-0.2,6.3c0,2.9-0.1,5.8-0.2,8.6c0,0.9,1.3,1.1,1.5,0.2
		C169.2,51.7,170.1,46,169.2,41.3z"/>
</g>
</svg>
