<?xml version="1.0" encoding="iso-8859-1"?>
<!-- Generator: Adobe Illustrator 19.0.0, SVG Export Plug-In . SVG Version: 6.00 Build 0)  -->
<svg version="1.1" id="Capa_1" xmlns="http://www.w3.org/2000/svg" xmlns:xlink="http://www.w3.org/1999/xlink" x="0px" y="0px"
	 viewBox="0 0 231.5 231.5" style="enable-background:new 0 0 231.5 231.5;" xml:space="preserve">
<g>
	<path d="M215,88.738H110.282c-10.676,0-17.521-11.448-12.532-20.888c5.314-10.054,9.973-20.924,14.377-32.174
		c5.068-12.946-4.189-23.639-14.677-23.639c-5.325,0-10.966,2.737-15.212,9.333C69.63,40.961,62.73,65.794,48.471,75.455
		C39.655,81.426,14.218,93.982,4.334,98.85C1.847,100.076,0,102.601,0,105.373v76.996c0,3.65,2.98,6.735,6.598,7.216l30.682,4.059
		c1.087,0.145,2.199,0.537,3.116,1.139c26.638,17.48,45.589,24.68,63.314,24.68c3.796,0,7.551-0.33,11.303-0.96
		c22.44-3.768,25.954-19.639,26.349-27.001c0.121-2.271,1.279-4.387,3.186-5.627c11.948-7.771,11.167-19.415,9.471-26.016
		c-0.744-2.895,0.277-5.974,2.691-7.735c9.045-6.601,9.857-15.558,8.898-22.116c-0.646-4.418,2.726-8.269,7.192-8.269H215
		C237,121.738,237,88.738,215,88.738z"/>
</g>
<g>
</g>
<g>
</g>
<g>
</g>
<g>
</g>
<g>
</g>
<g>
</g>
<g>
</g>
<g>
</g>
<g>
</g>
<g>
</g>
<g>
</g>
<g>
</g>
<g>
</g>
<g>
</g>
<g>
</g>
</svg>
