<?xml version="1.0" encoding="utf-8"?>
<!-- Generator: Adobe Illustrator 18.0.0, SVG Export Plug-In . SVG Version: 6.00 Build 0)  -->
<!DOCTYPE svg PUBLIC "-//W3C//DTD SVG 1.1//EN" "http://www.w3.org/Graphics/SVG/1.1/DTD/svg11.dtd">
<svg version="1.1" id="Layer_1" xmlns="http://www.w3.org/2000/svg" xmlns:xlink="http://www.w3.org/1999/xlink" x="0px" y="0px"
	 width="173.8px" height="152.7px" viewBox="0 0 173.8 152.7" enable-background="new 0 0 173.8 152.7" xml:space="preserve">
<path d="M170.2,57c-0.2,0.1-0.3,0.3-0.5,0.4c0,0,0,0,0,0c0,0,0,0,0,0c-11.4,8.8-22,18.4-33.1,27.6c11.5-10.6,23.2-21.2,34.6-31.9
	c2.3-2.1-1-5.2-3.3-3.3C145,68.6,122,88.2,98.4,106.6c5.7-5.5,11.3-11,17.2-16.3c16.7-15.1,36.1-26.5,52-42.4c0.7,0,1.4-0.2,1.9-1
	c1-1.6,1.8-2,2.2-3.2c0.2-0.5,0.3-1.1,0.1-1.6c-0.1-0.5-0.3-0.9-0.6-1.2c-0.7-0.8-1.8-1.1-2.9-0.4c-5.7,3.4-11.2,7.1-16.5,11
	c6.1-5.6,12.2-11.1,18.2-16.7c2-1.9-0.7-5.5-3-3.8c-0.2,0.1-0.3,0.3-0.5,0.4c0,0,0,0,0,0c0,0,0,0,0,0c-31.2,23.6-59.3,51-90.6,74.4
	c28.7-27.4,62.6-49.3,89.6-78.6c2.2-2.4-1.1-5.4-3.5-3.5c-4.5,3.7-9,7.5-13.5,11.3c5.3-5.1,10.4-10.4,15.1-16.1
	c1.7-2.1-0.5-5.5-3-3.9c-3.6,2.2-7.2,4.5-10.7,6.9c2.2-1.9,4.4-3.8,6.6-5.7c2.1-1.8-0.6-4.9-2.8-3.7c-6.7,3.6-13.1,7.8-19.5,12.3
	c5.2-4.6,10.6-9.1,16.1-13.3c2.3-1.8,0.4-5.6-2.4-4.1c-3.3,1.8-6.6,3.8-9.8,5.9c2.3-2.2,4.6-4.4,6.8-6.7c1.7-1.8-0.5-4.6-2.6-3.4
	c-21.7,11.6-40.6,28.3-59.8,43.6c-14,11.1-28.4,27.3-44.6,36.4C49.8,72.2,62.4,62,75.1,52C95,36.4,113,18.9,133.6,4.3
	c1.9-1.3,0.8-4.9-1.7-4c-0.2,0.1-0.3,0.2-0.5,0.2c0,0,0,0,0,0c0,0,0,0,0,0c-5.3,2.1-10.4,4.7-15.2,7.6c0.8-0.8,1.7-1.5,2.5-2.3
	c1.7-1.6-0.5-4.6-2.5-3.3C87.4,22,63,47.1,35,67.4c5.9-5.9,11.8-11.8,18.2-17.2c10.4-8.7,20.2-17.7,28.5-28.4c0-0.1,0.1-0.1,0.2-0.2
	c0,0,0,0,0,0c0.1-0.1,0.2-0.3,0.3-0.4c1.5-1.9-1.7-4.2-3.3-2.5c-12.9,13.7-27.4,25.5-42,37.3c13.9-13.3,28.9-25.6,42.4-39.5
	c1.6-1.6-0.6-4.7-2.5-3.2c-0.1,0.1-0.3,0.2-0.4,0.3c0,0,0,0,0,0c0,0,0,0,0,0c-9.6,7.1-17.9,15.6-26.7,23.5c-3,2.7-6.1,5.2-9.2,7.7
	c10.9-10.6,21.5-21.6,31.9-32.9c1.8-1.9-0.9-4.6-2.9-2.9c-6.2,5.7-12.6,11.2-19,16.7c6-5.9,12-11.8,18-17.7c1.8-1.8-0.9-4.5-2.8-2.8
	c-8.6,7.7-17.3,15.2-26.2,22.6C47.2,20.9,55,13.8,62.6,6.3c1.8-1.8-0.9-4.4-2.8-2.8c-11.3,9.6-23,18.5-34.7,27.6
	C34.9,21.4,45.3,12,55.6,3.8c1.8-1.4-0.6-4.4-2.4-3.1C53,0.8,52.9,0.9,52.8,1c0,0,0,0,0,0c0,0-0.1,0-0.1,0.1
	c-6,4.5-11.8,9.2-17.5,14C39.3,11,43.5,7,47.8,3C49.6,1.4,47-1,45.2,0.5c-1.7,1.4-3.4,2.8-5.1,4.2c-1.1-0.1-2.2,0.8-3.4,2.7
	c-2.2,1.7-4.3,3.5-6.5,5.2c2.8-2.9,5.6-5.7,8.5-8.4c1.4-1.3-0.5-3.7-2-2.6C30.1,6.4,24,11.6,17.9,17C5.4,28.3,25.8,8.4,27.8,6.6
	C29,5.5,27.4,3.3,26,4.3c-1.9,1.4-3.8,2.9-5.7,4.4c-1-0.2-2,0.6-3.1,2.6c-3.8,3.1-7.5,6.4-11,10c-1.1,1.1,0.6,2.8,1.7,1.7
	c0.1-0.2,0.3-0.3,0.4-0.4c-1.6,2.1-3.1,4.3-4.6,6.4c-0.9,1.3,0.9,3.2,2.2,2.2c3.8-2.9,5.4-4.1,8.6-6.8c-0.8,0.9-1.9,2.2-3,3.7
	c-3.5,3-6.9,6.2-10.2,9.5c-1.6,1.6,0.8,4,2.5,2.5c2.2-2,4.3-4.2,6.3-6.3c0.7-0.6,1.6-1.3,2.7-2.3c2.3-2.1,4.8-4.1,7.2-6.1
	C13.5,32.1,7.2,39,0.6,45.6c-1.7,1.8,0.9,4.3,2.7,2.7c0.1,0,0.1-0.1,0.2-0.1c-0.7,0.8-1.5,1.7-2.3,2.5c-1.7,1.9,0.9,4.5,2.8,2.8
	c5.8-5.1,11.8-9.9,17.9-14.7C15.7,44.3,9.6,50,3.7,55.8c-1.6,1.5,0.5,4.4,2.4,3.1c6.8-4.9,13.4-9.9,20-15.1
	C19.1,50.5,12.1,57,5,63.4c-1.9,1.7,0.9,4.5,2.8,2.8c10.4-8.8,21-17.3,31.5-25.9C28.4,51,17.2,61.2,5.6,71c-1.8,1.5,0.6,4.6,2.5,3.2
	c6-4.6,12.1-9.1,18.3-13.6c-4.8,4.9-9.4,10-13.7,15.5c-1.6,2.1,0.9,4.7,2.9,2.9c3.4-2.9,6.8-5.8,10.2-8.6
	c-3.4,3.5-6.9,6.9-10.6,10.1c-1.9,1.6,0.5,4.5,2.6,3.3c2.9-1.7,5.7-3.4,8.5-5.3c-2.2,1.9-4.4,3.8-6.6,5.7c-2,1.8,0.5,4.4,2.7,3.4
	c3.4-1.6,6.5-3.4,9.6-5.2c-2.2,2-4.4,4.1-6.6,6.2c-1.6,1.6,0,4.4,2.2,3.8c17.5-5.3,30.9-20.1,44.4-31.7
	c17.9-15.4,37.3-31.8,57.7-44.9c-7.7,7.3-15.6,14.4-23.7,21.2c-2.7,2.2-5.3,4.4-8,6.7C76.2,61.5,53.6,78,31.4,94.8
	c-2.2,1.7-0.3,5.4,2.3,3.9c9.2-5.3,18-11.4,26.5-17.9C52,87.2,44,93.9,36.6,101.4c-1.9,2,0.5,4.8,2.8,3.7c4.9-2.4,9.5-5.2,14-8.3
	c-3.6,3.3-7.1,6.7-10.4,10.4c-1.8,1.9,0.5,5.1,2.8,3.7c5.3-3.1,10.4-6.4,15.3-9.9c-4.8,4.8-9.4,9.8-13.8,15.1c-1.6,2,0.4,5.4,3,3.8
	c4.3-2.6,8.5-5.4,12.7-8.2c-2.7,2.9-5.4,5.8-8,8.8c-1.7,2,0.5,5.5,3,3.9c10.7-6.9,20.9-14.5,30.9-22.3c-8.7,7.9-17.5,15.8-26.2,23.6
	c-2.1,1.8,0.7,5.4,3,3.8c2.2-1.6,4.5-3.2,6.7-4.8c-2.1,2-4.3,4-6.5,6c-2.1,1.9,0.7,5.6,3.1,4c14.3-10,28.4-20.6,42.3-31.7
	c-1.1,1.2-2.2,2.4-3.3,3.6c-12.5,9.1-24.5,18.9-34.3,31.2c-1.7,2.1,0.4,5.1,2.9,3.7c12.5-6.6,21.3-18.1,30.8-28.4
	c6-4.5,12.1-8.7,18.2-13c4.1-2.9,8.1-5.9,12-9.1c-6.5,6.9-13,13.7-19.7,20.3c-12.8,10-25.5,20.2-36.6,32.2c-1.8,2,0.7,5.6,3,3.9
	c0.2-0.1,0.3-0.3,0.5-0.4c0,0,0,0,0,0c0,0,0,0,0,0c2.1-1.6,4.2-3.3,6.3-5c-1.9,2.3-3.6,4.6-5.2,7.1c-1.8,2.8,2.7,5.4,4.5,2.6
	c9.3-14.8,25.4-26.7,38.1-38.4c13.6-12.5,27-24.9,39.1-38.9c2.1-2.4-1.4-5.9-3.5-3.5c-4.6,5.3-9.6,10.2-14.7,14.8
	c7.9-8.3,15.8-16.7,24-24.7C175.1,58.9,172.4,55.2,170.2,57z M144.9,31.5c-11.5,11.1-24.1,20.9-36.8,30.6
	C120,51.5,132.1,41,144.9,31.5z M95.2,62.7c-6,5-12.2,9.8-18.4,14.7c4.9-4.5,9.8-9,14.9-13.2c11.2-9.3,23.2-19.5,35.6-28.9
	C116.7,44.5,106,53.6,95.2,62.7z M117,34c-5.9,5.4-11.9,10.8-18,16.1c-9.9,8.6-20.3,16.3-30.6,24.2C84.8,61.2,100.5,46.9,117,34z
	 M128.2,52.6c-21,18.4-41.9,36.9-64.8,52.8C83.1,85.7,106.5,70.1,128.2,52.6z"/>
</svg>
