<?xml version="1.0" encoding="utf-8"?>
<!-- Generator: Adobe Illustrator 18.0.0, SVG Export Plug-In . SVG Version: 6.00 Build 0)  -->
<!DOCTYPE svg PUBLIC "-//W3C//DTD SVG 1.1//EN" "http://www.w3.org/Graphics/SVG/1.1/DTD/svg11.dtd">
<svg version="1.1" id="Layer_1" xmlns="http://www.w3.org/2000/svg" xmlns:xlink="http://www.w3.org/1999/xlink" x="0px" y="0px"
	 width="178.9px" height="163.1px" viewBox="0 0 178.9 163.1" enable-background="new 0 0 178.9 163.1" xml:space="preserve">
<g>
	<path d="M87.7,160.3c-1.6-5.4-5.7-9.4-8.7-13.9c-2.2-3.3-7.6-0.2-5.4,3.1c3.1,4.5,7,8.6,10.4,12.9
		C85.5,164.1,88.3,162.2,87.7,160.3z"/>
	<path d="M67.5,137.6c-2-3.3-5.5-5.4-7.8-8.5c-2.2-3.1-7.2-0.4-5.2,3c2.1,3.7,6.8,6.9,10.8,8.3C67,140.9,68.4,139,67.5,137.6z"/>
	<path d="M49.1,120.1c-1.3-2-2.8-3.7-4.5-5.5c-1.6-1.7-3.4-4.4-5.6-5.4c-1.9-0.8-5.1,0.6-4.1,3.1c1.1,2.6,3.5,4.6,5.6,6.3
		c2.2,1.9,4.5,3.4,7.4,3.3C49,121.9,49.7,120.9,49.1,120.1z"/>
	<path d="M30.8,102.1c-1.2-2.3-3-4.3-4.6-6.3c-1.3-1.7-2.9-4.7-5.1-5.2c-1.8-0.5-4.2,0.9-4,3c0.3,2.6,2.9,4.8,4.6,6.6
		c1.9,2,4.9,4.3,7.8,4C30.6,104.2,31.3,103.2,30.8,102.1z"/>
	<path d="M14.4,83c-0.9-0.9-1.5-2.4-2.3-3.5c-0.8-1.1-1.5-2.4-1.9-3.7c-0.9-2.5-0.4-6.1-2.9-7.6c-0.8-0.5-1.9-0.5-2.6,0
		c-3.5,2.4-1.3,7.7,0.1,10.7c0.8,1.7,2.1,3.3,3.5,4.6c1.7,1.5,3.3,1.4,5.4,1.4C14.6,84.8,15.1,83.6,14.4,83z"/>
	<path d="M8.3,42.5c1.2-3.4-3.9-5.3-5.6-2.4c-3,5-4.6,16.1,1.6,19.5c0.5,0.3,1.2,0,1.3-0.5c0.5-2.4,0.3-4.8,0.3-7.2
		C6,48.6,7.2,45.6,8.3,42.5z"/>
	<path d="M19.1,13C13.5,16.2,6.6,22,8.4,29.3c0.3,1.2,2.1,1.5,2.7,0.4c1.2-2.2,2.5-4.5,4.2-6.3c2-2.1,4.5-3.6,6.8-5.2
		C25.3,16,22.5,11,19.1,13z"/>
	<path d="M49.3,0.3c-6.7-0.9-14,0.6-19.4,4.8C28.2,6.4,30,9.6,32,8.8c5.6-2.3,11.3-2.5,17.3-2.1C53.5,6.9,53.2,0.8,49.3,0.3z"/>
	<path d="M75.8,10.5C72.3,8,67.7,5.5,63.3,5.1c-2.2-0.2-2.7,2.9-1.1,4c3.3,2.1,6.6,3.9,9.7,6.3C75.6,18.2,79.5,13.1,75.8,10.5z"/>
	<path d="M96.8,12.8c-4,2.3-7.6,5.3-10.6,8.7c-0.9-0.6-1.8-1.5-2.4-2.2c-1.5-1.6-3.5,0.4-2.8,2.1c0.7,1.6,2.7,2.8,3.2,4.3
		c0.6,2.1,3.3,2.9,4.9,1.3c3.4-3.5,6.9-6.3,11-8.9C103.5,16.2,100.3,10.8,96.8,12.8z"/>
	<path d="M132.1,2.3c-5.6-0.1-11.7,0.8-17,2.7c-1.9,0.7-1.5,3.2,0.5,3.4c5.4,0.5,11.1,0.2,16.6,0.1C136.1,8.3,136.1,2.3,132.1,2.3z"
		/>
	<path d="M160.7,17.1c-3.4-4.2-10.1-8.7-15.8-8.2c-1.6,0.1-2.1,2.1-0.8,3c2.1,1.5,4.5,2.5,6.5,4.2c2.1,1.7,3.9,3.5,5.5,5.6
		C158.8,24.8,163.2,20.2,160.7,17.1z"/>
	<path d="M171.5,29c-1.2-1.3-3,0.1-2.7,1.6c0.5,2.7,1.6,5.2,2.4,7.8c1,3.2,1.3,6.5,2.2,9.7c0.9,3,5.2,2.3,5.4-0.7
		C179.2,41.4,175.5,33.4,171.5,29z"/>
	<path d="M172.2,64.4c-1.7,2.7-3.7,5.1-5.5,7.6c-1.4,1.9-3,6,0.4,6.9c2.9,0.8,4.3-2.9,5.3-4.9c1.4-2.7,2.7-5.8,2.8-8.9
		C175.3,63.6,173,63.1,172.2,64.4z"/>
	<path d="M158,88.6c-1.7,1.6-3.5,3.3-5.1,5c-1.9,2-4.1,4.2-4.5,7c-0.4,2.7,3.4,3.7,5.1,2.1c1.7-1.6,2.9-4.2,4.2-6.1
		c1.3-1.9,2.9-3.9,3.4-6.2C161.6,88.6,159.4,87.3,158,88.6z"/>
	<path d="M143.2,103.2c-2.5,0.6-4.9,2.8-6.9,4.3c-1.6,1.3-4.4,3.1-4.8,5.3c-0.4,2.2,1.3,3.9,3.5,3.5c2-0.4,3.7-2.9,5-4.4
		c1-1.1,1.9-2.2,2.8-3.4c0.7-1,1.7-1.9,2.2-3C145.6,104.3,144.6,102.9,143.2,103.2z"/>
	<path d="M123.9,120.4c-3.3-0.1-6.7,2-9.4,3.8c-2.4,1.6-6.6,5.8-3.5,8.7c3.1,3,4.7-1.4,6-3.4c1.9-2.8,5-4.2,7.6-6.2
		C125.9,122.4,125.5,120.5,123.9,120.4z"/>
	<path d="M103.8,136.1c-3.2,0.6-5.2,2.4-7.3,4.8c-1.8,2.1-4.6,5.5-3.7,8.5c0.5,1.6,2.2,2.2,3.7,1.5c2.2-1.1,3.2-4.5,4.4-6.6
		c0.7-1.1,1.4-2.1,2.2-3.1c0.8-1.1,1.4-2.2,2.1-3.3C105.8,136.9,104.8,135.9,103.8,136.1z"/>
</g>
</svg>
