<?xml version="1.0" encoding="utf-8"?>
<!-- Generator: Adobe Illustrator 18.0.0, SVG Export Plug-In . SVG Version: 6.00 Build 0)  -->
<!DOCTYPE svg PUBLIC "-//W3C//DTD SVG 1.1//EN" "http://www.w3.org/Graphics/SVG/1.1/DTD/svg11.dtd">
<svg version="1.1" id="Layer_1" xmlns="http://www.w3.org/2000/svg" xmlns:xlink="http://www.w3.org/1999/xlink" x="0px" y="0px"
	 width="179px" height="162px" viewBox="0 0 179 162" enable-background="new 0 0 179 162" xml:space="preserve">
<path d="M176.3,18.4C169.9,3.6,155.9-1,140.9,0.7c-12.4-2.5-27.1,1.8-38.4,10.2c-6.6,3-12.3,7.9-16.1,14.9C81,6.9,65.9,1.2,50.4,3.6
	c-5-1.1-10.5-1.3-16.5-0.3C11.6,6.8-0.2,27.3,0,48c0.3,42.9,45.5,71.3,76.7,98.8c3.4,4.4,6.8,8.9,9.9,13.5c0.6,1.7,3.1,2.5,4.2,0.5
	c3.2-5.8,7.3-10.8,11.8-15.5c15.7-11,29.8-24.2,42.4-38.4c10.5-11.8,22.3-27.9,26.3-44.7C178.1,47.8,182,31.6,176.3,18.4z
	 M172.2,43.7c-0.4-2.1-0.9-4-1.7-6c0.8-4.2,0.9-8.5-0.2-12.6c-1.3-5-5.1-8.3-9.8-10.5c-2.1-3.5-4.6-6.3-7.5-8.5
	C169.9,9.6,175.2,25.7,172.2,43.7z M155.8,80.1c4.3-8.8,7.7-18.1,9.3-27.7c0.8-1.5,1.5-3,2.1-4.5c0.3,5-0.2,10.2-1.6,15.6
	C163,69.3,159.6,74.8,155.8,80.1z M131.3,107.6c-6.8,6.6-14.4,12.4-21.9,18.3c12.6-13.3,25.4-26.2,35.4-42.4
	c2.9-4.7,6.8-10.1,10.8-15.7c-4.5,13.1-12.1,25.2-20.7,36.3C133.7,105.3,132.5,106.5,131.3,107.6z M86.9,144.4
	c-2.5-3-5.2-5.9-7.8-8.7c3.2,2.7,6.2,5.1,9,7.3C87.6,143.5,87.2,144,86.9,144.4z M139.8,5.7c0.9-0.1,1.7-0.1,2.6-0.2
	c4.1,1.4,7.5,3.5,10,6.3c-5.2-1.2-10.6-1.7-14.9-2C134.8,9,132,8.4,129.3,8C132.8,6.9,136.4,6.2,139.8,5.7z M156.8,18.3
	c0.3,0.7,0.7,1.4,1,2.1c-1.8-1.4-3.6-2.7-5.6-4C153.8,17,155.4,17.6,156.8,18.3z M124.4,4.8c-2,0.8-4,1.6-6,2.6
	c-0.8,0-1.6,0-2.4,0.1C118.9,6.3,121.6,5.4,124.4,4.8z M89,33.7c2.7-6.2,7.2-12.2,12.8-17.1c1.3-0.6,2.6-1.1,3.9-1.5
	c-7.7,5.7-13.8,12.7-16.9,20c-0.1-0.1-0.3-0.3-0.4-0.4c0-0.1,0-0.2,0-0.3C88.6,34.2,88.8,34,89,33.7z M58.8,10.1
	c3.6,2,6.9,4.5,10,7.4c-5.3-3.7-10.9-6.7-17.1-8.3C54.2,9.1,56.6,9.4,58.8,10.1z M43.5,11c14.2,1.9,30.8,16.4,40.4,25.2
	c0.6,1.2,1.1,2.4,1.6,3.5c0.5,1.1,1.4,1.3,2.3,1.1c0.5,0.1,1-0.1,1.2-0.6c0.4-1.1,0.9-2.2,1.5-3.2c12.8-13.4,26.4-22.8,45.1-22.8
	c0.6,0.1,1.2,0.2,1.7,0.3c10,2.2,17.5,7,22.5,13.3c1.4,7.5,1,15.8-0.2,23.5c-3,4.7-6.4,9.3-9.2,13.5c-10.3,15.6-18.4,31.7-31.2,45.7
	c-9.8,10.8-20.8,20-30.1,31.1c-19.3-23.2-41.9-42.2-56.9-69.1C21.7,53.7,16,28.1,37.1,14.3C39.3,12.8,41.4,11.8,43.5,11z M38.2,92.8
	c-2.9-3.6-5.8-7.3-8.3-11.2c-5.8-8.7-9.7-18.5-11-28.6C21.5,66.4,28.8,80,38.2,92.8z M22.1,90.6C7.1,73.1-2.7,47.6,8.3,25.5
	c5.8-11.7,18.8-17.5,31.2-19c-1.5,0.6-2.9,1.2-4.3,1.9c-5.3,1.1-9.4,4.1-12.4,8.1c-3.7,3.1-7,6.7-9.5,10.6
	C1.8,45,8.1,65.9,18.4,82.6c7.4,11.9,18.2,21.7,28.3,31.3c1.6,1.6,3.2,3.2,4.8,4.8C41.1,109.8,30.9,100.9,22.1,90.6z M85.7,150.7
	c-0.1,0.1-0.2,0.2-0.2,0.2c-4.2-5-8.8-9.7-13.5-14.2c-20.7-23.1-46.3-42.9-58-71.3C8.9,53,10.7,40.9,16.2,30.9
	c-1,3.6-1.6,7.3-2,10.5c-5,44,42.9,77.4,71.1,104.8c-0.2,0.3-0.4,0.5-0.6,0.8c-1.1,1.5,0,2.9,1.4,3.3
	C86,150.4,85.9,150.6,85.7,150.7z M100,141.2c-1.9,1.3-3.8,2.5-5.7,3.8c3.6-3.2,7.4-6.2,11.2-9.2C103.7,137.6,101.8,139.4,100,141.2
	z M133.8,113.6c1.9-2.4,3.7-4.9,5.6-7.3c4.2-4.2,8.1-8.6,12-13.1C146.2,100.4,140.3,107.2,133.8,113.6z"/>
</svg>
