<?xml version="1.0" encoding="utf-8"?>
<!-- Generator: Adobe Illustrator 18.0.0, SVG Export Plug-In . SVG Version: 6.00 Build 0)  -->
<!DOCTYPE svg PUBLIC "-//W3C//DTD SVG 1.1//EN" "http://www.w3.org/Graphics/SVG/1.1/DTD/svg11.dtd">
<svg version="1.1" id="Layer_1" xmlns="http://www.w3.org/2000/svg" xmlns:xlink="http://www.w3.org/1999/xlink" x="0px" y="0px"
	 width="337.8px" height="345.9px" viewBox="0 0 337.8 345.9" enable-background="new 0 0 337.8 345.9" xml:space="preserve">
<g>
	<g>
		<g>
			<rect x="280.3" fill="none" width="56.1" height="49"/>
			<path fill="#010101" d="M329.3,25.8l-20.9,19.6l-20.9-19.6c-4.9-5.2-4.6-13.4,0.6-18.3l0.5-0.4c5.2-4.9,13.4-4.6,18.3,0.6
				l1.6,1.7l1.6-1.7c4.9-5.2,13-5.5,18.3-0.6l0.5,0.4C333.9,12.4,334.1,20.6,329.3,25.8z"/>
		</g>
		<g>
			<rect x="280.3" y="49" fill="none" width="56.1" height="49"/>
			<path fill="#010101" d="M329.3,74.8l-20.9,19.6l-20.9-19.6c-4.9-5.2-4.6-13.4,0.6-18.3l0.5-0.4c5.2-4.9,13.4-4.6,18.3,0.6
				l1.6,1.7l1.6-1.7c4.9-5.2,13-5.5,18.3-0.6l0.5,0.4C333.9,61.4,334.1,69.6,329.3,74.8z"/>
		</g>
		<g>
			<rect x="280.3" y="98" fill="none" width="56.1" height="49"/>
			<path fill="#010101" d="M329.3,123.8l-20.9,19.6l-20.9-19.6c-4.9-5.2-4.6-13.4,0.6-18.3l0.5-0.4c5.2-4.9,13.4-4.6,18.3,0.6
				l1.6,1.7l1.6-1.7c4.9-5.2,13-5.5,18.3-0.6l0.5,0.4C333.9,110.4,334.1,118.6,329.3,123.8z"/>
		</g>
		<g>
			<rect x="280.3" y="147.1" fill="none" width="56.1" height="49"/>
			<path fill="#010101" d="M329.3,172.9l-20.9,19.6l-20.9-19.6c-4.9-5.2-4.6-13.4,0.6-18.3l0.5-0.4c5.2-4.9,13.4-4.6,18.3,0.6
				l1.6,1.7l1.6-1.7c4.9-5.2,13-5.5,18.3-0.6l0.5,0.4C333.9,159.5,334.1,167.6,329.3,172.9z"/>
		</g>
		<g>
			<rect x="280.3" y="196.1" fill="none" width="56.1" height="49"/>
			<path fill="#010101" d="M329.3,221.9l-20.9,19.6l-20.9-19.6c-4.9-5.2-4.6-13.4,0.6-18.3l0.5-0.4c5.2-4.9,13.4-4.6,18.3,0.6
				l1.6,1.7l1.6-1.7c4.9-5.2,13-5.5,18.3-0.6l0.5,0.4C333.9,208.5,334.1,216.7,329.3,221.9z"/>
		</g>
		<g>
			<rect x="280.3" y="245.1" fill="none" width="56.1" height="49"/>
			<path fill="#010101" d="M329.3,270.9l-20.9,19.6l-20.9-19.6c-4.9-5.2-4.6-13.4,0.6-18.3l0.5-0.4c5.2-4.9,13.4-4.6,18.3,0.6
				l1.6,1.7l1.6-1.7c4.9-5.2,13-5.5,18.3-0.6l0.5,0.4C333.9,257.5,334.1,265.7,329.3,270.9z"/>
		</g>
		<g>
			<rect x="280.3" y="294.1" fill="none" width="56.1" height="49"/>
			<path fill="#010101" d="M329.3,319.9l-20.9,19.6l-20.9-19.6c-4.9-5.2-4.6-13.4,0.6-18.3l0.5-0.4c5.2-4.9,13.4-4.6,18.3,0.6
				l1.6,1.7l1.6-1.7c4.9-5.2,13-5.5,18.3-0.6l0.5,0.4C333.9,306.5,334.1,314.7,329.3,319.9z"/>
		</g>
		<g>
			<rect x="224.2" fill="none" width="56.1" height="49"/>
			<path fill="#010101" d="M273.2,25.8l-20.9,19.6l-20.9-19.6c-4.9-5.2-4.6-13.4,0.6-18.3l0.5-0.4c5.2-4.9,13.4-4.6,18.3,0.6
				l1.6,1.7l1.6-1.7c4.9-5.2,13-5.5,18.3-0.6l0.5,0.4C277.8,12.4,278.1,20.6,273.2,25.8z"/>
		</g>
		<g>
			<rect x="224.2" y="49" fill="none" width="56.1" height="49"/>
			<path fill="#010101" d="M273.2,74.8l-20.9,19.6l-20.9-19.6c-4.9-5.2-4.6-13.4,0.6-18.3l0.5-0.4c5.2-4.9,13.4-4.6,18.3,0.6
				l1.6,1.7l1.6-1.7c4.9-5.2,13-5.5,18.3-0.6l0.5,0.4C277.8,61.4,278.1,69.6,273.2,74.8z"/>
		</g>
		<g>
			<rect x="224.2" y="98" fill="none" width="56.1" height="49"/>
			<path fill="#010101" d="M273.2,123.8l-20.9,19.6l-20.9-19.6c-4.9-5.2-4.6-13.4,0.6-18.3l0.5-0.4c5.2-4.9,13.4-4.6,18.3,0.6
				l1.6,1.7l1.6-1.7c4.9-5.2,13-5.5,18.3-0.6l0.5,0.4C277.8,110.4,278.1,118.6,273.2,123.8z"/>
		</g>
		<g>
			<rect x="224.2" y="147.1" fill="none" width="56.1" height="49"/>
			<path fill="#010101" d="M273.2,172.9l-20.9,19.6l-20.9-19.6c-4.9-5.2-4.6-13.4,0.6-18.3l0.5-0.4c5.2-4.9,13.4-4.6,18.3,0.6
				l1.6,1.7l1.6-1.7c4.9-5.2,13-5.5,18.3-0.6l0.5,0.4C277.8,159.5,278.1,167.6,273.2,172.9z"/>
		</g>
		<g>
			<rect x="224.2" y="196.1" fill="none" width="56.1" height="49"/>
			<path fill="#010101" d="M273.2,221.9l-20.9,19.6l-20.9-19.6c-4.9-5.2-4.6-13.4,0.6-18.3l0.5-0.4c5.2-4.9,13.4-4.6,18.3,0.6
				l1.6,1.7l1.6-1.7c4.9-5.2,13-5.5,18.3-0.6l0.5,0.4C277.8,208.5,278.1,216.7,273.2,221.9z"/>
		</g>
		<g>
			<rect x="224.2" y="245.1" fill="none" width="56.1" height="49"/>
			<path fill="#010101" d="M273.2,270.9l-20.9,19.6l-20.9-19.6c-4.9-5.2-4.6-13.4,0.6-18.3l0.5-0.4c5.2-4.9,13.4-4.6,18.3,0.6
				l1.6,1.7l1.6-1.7c4.9-5.2,13-5.5,18.3-0.6l0.5,0.4C277.8,257.5,278.1,265.7,273.2,270.9z"/>
		</g>
		<g>
			<rect x="224.2" y="294.1" fill="none" width="56.1" height="49"/>
			<path fill="#010101" d="M273.2,319.9l-20.9,19.6l-20.9-19.6c-4.9-5.2-4.6-13.4,0.6-18.3l0.5-0.4c5.2-4.9,13.4-4.6,18.3,0.6
				l1.6,1.7l1.6-1.7c4.9-5.2,13-5.5,18.3-0.6l0.5,0.4C277.8,306.5,278.1,314.7,273.2,319.9z"/>
		</g>
		<g>
			<rect x="168.2" fill="none" width="56.1" height="49"/>
			<path fill="#010101" d="M217.1,25.8l-20.9,19.6l-20.9-19.6c-4.9-5.2-4.6-13.4,0.6-18.3l0.5-0.4c5.2-4.9,13.4-4.6,18.3,0.6
				l1.6,1.7l1.6-1.7c4.9-5.2,13-5.5,18.3-0.6l0.5,0.4C221.7,12.4,222,20.6,217.1,25.8z"/>
		</g>
		<g>
			<rect x="168.2" y="49" fill="none" width="56.1" height="49"/>
			<path fill="#010101" d="M217.1,74.8l-20.9,19.6l-20.9-19.6c-4.9-5.2-4.6-13.4,0.6-18.3l0.5-0.4c5.2-4.9,13.4-4.6,18.3,0.6
				l1.6,1.7l1.6-1.7c4.9-5.2,13-5.5,18.3-0.6l0.5,0.4C221.7,61.4,222,69.6,217.1,74.8z"/>
		</g>
		<g>
			<rect x="168.2" y="98" fill="none" width="56.1" height="49"/>
			<path fill="#010101" d="M217.1,123.8l-20.9,19.6l-20.9-19.6c-4.9-5.2-4.6-13.4,0.6-18.3l0.5-0.4c5.2-4.9,13.4-4.6,18.3,0.6
				l1.6,1.7l1.6-1.7c4.9-5.2,13-5.5,18.3-0.6l0.5,0.4C221.7,110.4,222,118.6,217.1,123.8z"/>
		</g>
		<g>
			<rect x="168.2" y="147.1" fill="none" width="56.1" height="49"/>
			<path fill="#010101" d="M217.1,172.9l-20.9,19.6l-20.9-19.6c-4.9-5.2-4.6-13.4,0.6-18.3l0.5-0.4c5.2-4.9,13.4-4.6,18.3,0.6
				l1.6,1.7l1.6-1.7c4.9-5.2,13-5.5,18.3-0.6l0.5,0.4C221.7,159.5,222,167.6,217.1,172.9z"/>
		</g>
		<g>
			<rect x="168.2" y="196.1" fill="none" width="56.1" height="49"/>
			<path fill="#010101" d="M217.1,221.9l-20.9,19.6l-20.9-19.6c-4.9-5.2-4.6-13.4,0.6-18.3l0.5-0.4c5.2-4.9,13.4-4.6,18.3,0.6
				l1.6,1.7l1.6-1.7c4.9-5.2,13-5.5,18.3-0.6l0.5,0.4C221.7,208.5,222,216.7,217.1,221.9z"/>
		</g>
		<g>
			<rect x="168.2" y="245.1" fill="none" width="56.1" height="49"/>
			<path fill="#010101" d="M217.1,270.9l-20.9,19.6l-20.9-19.6c-4.9-5.2-4.6-13.4,0.6-18.3l0.5-0.4c5.2-4.9,13.4-4.6,18.3,0.6
				l1.6,1.7l1.6-1.7c4.9-5.2,13-5.5,18.3-0.6l0.5,0.4C221.7,257.5,222,265.7,217.1,270.9z"/>
		</g>
		<g>
			<rect x="168.2" y="294.1" fill="none" width="56.1" height="49"/>
			<path fill="#010101" d="M217.1,319.9l-20.9,19.6l-20.9-19.6c-4.9-5.2-4.6-13.4,0.6-18.3l0.5-0.4c5.2-4.9,13.4-4.6,18.3,0.6
				l1.6,1.7l1.6-1.7c4.9-5.2,13-5.5,18.3-0.6l0.5,0.4C221.7,306.5,222,314.7,217.1,319.9z"/>
		</g>
		<g>
			<rect x="112.1" fill="none" width="56.1" height="49"/>
			<path fill="#010101" d="M161.1,25.8l-20.9,19.6l-20.9-19.6c-4.9-5.2-4.6-13.4,0.6-18.3l0.5-0.4c5.2-4.9,13.4-4.6,18.3,0.6
				l1.6,1.7l1.6-1.7c4.9-5.2,13-5.5,18.3-0.6l0.5,0.4C165.7,12.4,166,20.6,161.1,25.8z"/>
		</g>
		<g>
			<rect x="112.1" y="49" fill="none" width="56.1" height="49"/>
			<path fill="#010101" d="M161.1,74.8l-20.9,19.6l-20.9-19.6c-4.9-5.2-4.6-13.4,0.6-18.3l0.5-0.4c5.2-4.9,13.4-4.6,18.3,0.6
				l1.6,1.7l1.6-1.7c4.9-5.2,13-5.5,18.3-0.6l0.5,0.4C165.7,61.4,166,69.6,161.1,74.8z"/>
		</g>
		<g>
			<rect x="112.1" y="98" fill="none" width="56.1" height="49"/>
			<path fill="#010101" d="M161.1,123.8l-20.9,19.6l-20.9-19.6c-4.9-5.2-4.6-13.4,0.6-18.3l0.5-0.4c5.2-4.9,13.4-4.6,18.3,0.6
				l1.6,1.7l1.6-1.7c4.9-5.2,13-5.5,18.3-0.6l0.5,0.4C165.7,110.4,166,118.6,161.1,123.8z"/>
		</g>
		<g>
			<rect x="112.1" y="147.1" fill="none" width="56.1" height="49"/>
			<path fill="#010101" d="M161.1,172.9l-20.9,19.6l-20.9-19.6c-4.9-5.2-4.6-13.4,0.6-18.3l0.5-0.4c5.2-4.9,13.4-4.6,18.3,0.6
				l1.6,1.7l1.6-1.7c4.9-5.2,13-5.5,18.3-0.6l0.5,0.4C165.7,159.5,166,167.6,161.1,172.9z"/>
		</g>
		<g>
			<rect x="112.1" y="196.1" fill="none" width="56.1" height="49"/>
			<path fill="#010101" d="M161.1,221.9l-20.9,19.6l-20.9-19.6c-4.9-5.2-4.6-13.4,0.6-18.3l0.5-0.4c5.2-4.9,13.4-4.6,18.3,0.6
				l1.6,1.7l1.6-1.7c4.9-5.2,13-5.5,18.3-0.6l0.5,0.4C165.7,208.5,166,216.7,161.1,221.9z"/>
		</g>
		<g>
			<rect x="112.1" y="245.1" fill="none" width="56.1" height="49"/>
			<path fill="#010101" d="M161.1,270.9l-20.9,19.6l-20.9-19.6c-4.9-5.2-4.6-13.4,0.6-18.3l0.5-0.4c5.2-4.9,13.4-4.6,18.3,0.6
				l1.6,1.7l1.6-1.7c4.9-5.2,13-5.5,18.3-0.6l0.5,0.4C165.7,257.5,166,265.7,161.1,270.9z"/>
		</g>
		<g>
			<rect x="112.1" y="294.1" fill="none" width="56.1" height="49"/>
			<path fill="#010101" d="M161.1,319.9l-20.9,19.6l-20.9-19.6c-4.9-5.2-4.6-13.4,0.6-18.3l0.5-0.4c5.2-4.9,13.4-4.6,18.3,0.6
				l1.6,1.7l1.6-1.7c4.9-5.2,13-5.5,18.3-0.6l0.5,0.4C165.7,306.5,166,314.7,161.1,319.9z"/>
		</g>
		<g>
			<rect x="56.1" fill="none" width="56.1" height="49"/>
			<path fill="#010101" d="M105,25.8L84.1,45.4L63.1,25.8c-4.9-5.2-4.6-13.4,0.6-18.3l0.5-0.4c5.2-4.9,13.4-4.6,18.3,0.6l1.6,1.7
				l1.6-1.7c4.9-5.2,13-5.5,18.3-0.6l0.5,0.4C109.6,12.4,109.9,20.6,105,25.8z"/>
		</g>
		<g>
			<rect x="56.1" y="49" fill="none" width="56.1" height="49"/>
			<path fill="#010101" d="M105,74.8L84.1,94.4L63.1,74.8c-4.9-5.2-4.6-13.4,0.6-18.3l0.5-0.4c5.2-4.9,13.4-4.6,18.3,0.6l1.6,1.7
				l1.6-1.7c4.9-5.2,13-5.5,18.3-0.6l0.5,0.4C109.6,61.4,109.9,69.6,105,74.8z"/>
		</g>
		<g>
			<rect x="56.1" y="98" fill="none" width="56.1" height="49"/>
			<path fill="#010101" d="M105,123.8l-20.9,19.6l-20.9-19.6c-4.9-5.2-4.6-13.4,0.6-18.3l0.5-0.4c5.2-4.9,13.4-4.6,18.3,0.6l1.6,1.7
				l1.6-1.7c4.9-5.2,13-5.5,18.3-0.6l0.5,0.4C109.6,110.4,109.9,118.6,105,123.8z"/>
		</g>
		<g>
			<rect x="56.1" y="147.1" fill="none" width="56.1" height="49"/>
			<path fill="#010101" d="M105,172.9l-20.9,19.6l-20.9-19.6c-4.9-5.2-4.6-13.4,0.6-18.3l0.5-0.4c5.2-4.9,13.4-4.6,18.3,0.6l1.6,1.7
				l1.6-1.7c4.9-5.2,13-5.5,18.3-0.6l0.5,0.4C109.6,159.5,109.9,167.6,105,172.9z"/>
		</g>
		<g>
			<rect x="56.1" y="196.1" fill="none" width="56.1" height="49"/>
			<path fill="#010101" d="M105,221.9l-20.9,19.6l-20.9-19.6c-4.9-5.2-4.6-13.4,0.6-18.3l0.5-0.4c5.2-4.9,13.4-4.6,18.3,0.6l1.6,1.7
				l1.6-1.7c4.9-5.2,13-5.5,18.3-0.6l0.5,0.4C109.6,208.5,109.9,216.7,105,221.9z"/>
		</g>
		<g>
			<rect x="56.1" y="245.1" fill="none" width="56.1" height="49"/>
			<path fill="#010101" d="M105,270.9l-20.9,19.6l-20.9-19.6c-4.9-5.2-4.6-13.4,0.6-18.3l0.5-0.4c5.2-4.9,13.4-4.6,18.3,0.6l1.6,1.7
				l1.6-1.7c4.9-5.2,13-5.5,18.3-0.6l0.5,0.4C109.6,257.5,109.9,265.7,105,270.9z"/>
		</g>
		<g>
			<rect x="56.1" y="294.1" fill="none" width="56.1" height="49"/>
			<path fill="#010101" d="M105,319.9l-20.9,19.6l-20.9-19.6c-4.9-5.2-4.6-13.4,0.6-18.3l0.5-0.4c5.2-4.9,13.4-4.6,18.3,0.6l1.6,1.7
				l1.6-1.7c4.9-5.2,13-5.5,18.3-0.6l0.5,0.4C109.6,306.5,109.9,314.7,105,319.9z"/>
		</g>
		<g>
			<rect fill="none" width="56.1" height="49"/>
			<path fill="#010101" d="M49,25.8L28,45.4L7.1,25.8C2.2,20.6,2.5,12.4,7.7,7.5l0.5-0.4c5.2-4.9,13.4-4.6,18.3,0.6L28,9.4l1.6-1.7
				c4.9-5.2,13-5.5,18.3-0.6l0.5,0.4C53.6,12.4,53.8,20.6,49,25.8z"/>
		</g>
		<g>
			<rect y="49" fill="none" width="56.1" height="49"/>
			<path fill="#010101" d="M49,74.8L28,94.4L7.1,74.8c-4.9-5.2-4.6-13.4,0.6-18.3l0.5-0.4c5.2-4.9,13.4-4.6,18.3,0.6l1.6,1.7
				l1.6-1.7c4.9-5.2,13-5.5,18.3-0.6l0.5,0.4C53.6,61.4,53.8,69.6,49,74.8z"/>
		</g>
		<g>
			<rect y="98" fill="none" width="56.1" height="49"/>
			<path fill="#010101" d="M49,123.8L28,143.5L7.1,123.8c-4.9-5.2-4.6-13.4,0.6-18.3l0.5-0.4c5.2-4.9,13.4-4.6,18.3,0.6l1.6,1.7
				l1.6-1.7c4.9-5.2,13-5.5,18.3-0.6l0.5,0.4C53.6,110.4,53.8,118.6,49,123.8z"/>
		</g>
		<g>
			<rect y="147.1" fill="none" width="56.1" height="49"/>
			<path fill="#010101" d="M49,172.9L28,192.5L7.1,172.9c-4.9-5.2-4.6-13.4,0.6-18.3l0.5-0.4c5.2-4.9,13.4-4.6,18.3,0.6l1.6,1.7
				l1.6-1.7c4.9-5.2,13-5.5,18.3-0.6l0.5,0.4C53.6,159.5,53.8,167.6,49,172.9z"/>
		</g>
		<g>
			<rect y="196.1" fill="none" width="56.1" height="49"/>
			<path fill="#010101" d="M49,221.9L28,241.5L7.1,221.9c-4.9-5.2-4.6-13.4,0.6-18.3l0.5-0.4c5.2-4.9,13.4-4.6,18.3,0.6l1.6,1.7
				l1.6-1.7c4.9-5.2,13-5.5,18.3-0.6l0.5,0.4C53.6,208.5,53.8,216.7,49,221.9z"/>
		</g>
		<g>
			<rect y="245.1" fill="none" width="56.1" height="49"/>
			<path fill="#010101" d="M49,270.9L28,290.5L7.1,270.9c-4.9-5.2-4.6-13.4,0.6-18.3l0.5-0.4c5.2-4.9,13.4-4.6,18.3,0.6l1.6,1.7
				l1.6-1.7c4.9-5.2,13-5.5,18.3-0.6l0.5,0.4C53.6,257.5,53.8,265.7,49,270.9z"/>
		</g>
		<g>
			<rect y="294.1" fill="none" width="56.1" height="49"/>
			<path fill="#010101" d="M49,319.9L28,339.6L7.1,319.9c-4.9-5.2-4.6-13.4,0.6-18.3l0.5-0.4c5.2-4.9,13.4-4.6,18.3,0.6l1.6,1.7
				l1.6-1.7c4.9-5.2,13-5.5,18.3-0.6l0.5,0.4C53.6,306.5,53.8,314.7,49,319.9z"/>
		</g>
	</g>
</g>
</svg>
