<?xml version="1.0" encoding="utf-8"?>
<!-- Generator: Adobe Illustrator 18.0.0, SVG Export Plug-In . SVG Version: 6.00 Build 0)  -->
<!DOCTYPE svg PUBLIC "-//W3C//DTD SVG 1.1//EN" "http://www.w3.org/Graphics/SVG/1.1/DTD/svg11.dtd">
<svg version="1.1" id="Layer_1" xmlns="http://www.w3.org/2000/svg" xmlns:xlink="http://www.w3.org/1999/xlink" x="0px" y="0px"
	 width="288px" height="360px" viewBox="0 0 288 360" enable-background="new 0 0 288 360" xml:space="preserve">
<g>
	<path fill="#010101" d="M33.4,16.3L18,30.8L2.6,16.3C-1,12.5-0.8,6.5,3,2.9l0.3-0.3C7.2-1,13.2-0.8,16.8,3L18,4.3L19.2,3
		c3.6-3.8,9.6-4,13.5-0.4L33,2.9C36.8,6.5,37,12.5,33.4,16.3z"/>
	<path fill="#010101" d="M75.4,16.3L60,30.8L44.6,16.3C41,12.5,41.2,6.5,45,2.9l0.3-0.3C49.2-1,55.2-0.8,58.8,3L60,4.3L61.2,3
		c3.6-3.8,9.6-4,13.5-0.4L75,2.9C78.8,6.5,79,12.5,75.4,16.3z"/>
	<path fill="#010101" d="M117.4,16.3L102,30.8L86.6,16.3C83,12.5,83.2,6.5,87,2.9l0.3-0.3C91.2-1,97.2-0.8,100.8,3l1.2,1.2l1.2-1.2
		c3.6-3.8,9.6-4,13.5-0.4l0.3,0.3C120.8,6.5,121,12.5,117.4,16.3z"/>
	<path fill="#010101" d="M159.4,16.3L144,30.8l-15.4-14.5c-3.6-3.8-3.4-9.9,0.4-13.5l0.3-0.3c3.8-3.6,9.9-3.4,13.5,0.4l1.2,1.2
		l1.2-1.2c3.6-3.8,9.6-4,13.5-0.4l0.3,0.3C162.8,6.5,163,12.5,159.4,16.3z"/>
	<path fill="#010101" d="M201.4,16.3L186,30.8l-15.4-14.5c-3.6-3.8-3.4-9.9,0.4-13.5l0.3-0.3c3.8-3.6,9.9-3.4,13.5,0.4l1.2,1.2
		l1.2-1.2c3.6-3.8,9.6-4,13.5-0.4l0.3,0.3C204.8,6.5,205,12.5,201.4,16.3z"/>
	<path fill="#010101" d="M243.4,16.3L228,30.8l-15.4-14.5c-3.6-3.8-3.4-9.9,0.4-13.5l0.3-0.3c3.8-3.6,9.9-3.4,13.5,0.4l1.2,1.2
		l1.2-1.2c3.6-3.8,9.6-4,13.5-0.4l0.3,0.3C246.8,6.5,247,12.5,243.4,16.3z"/>
	<path fill="#010101" d="M285.4,16.3L270,30.8l-15.4-14.5c-3.6-3.8-3.4-9.9,0.4-13.5l0.3-0.3c3.8-3.6,9.9-3.4,13.5,0.4l1.2,1.2
		l1.2-1.2c3.6-3.8,9.6-4,13.5-0.4l0.3,0.3C288.8,6.5,289,12.5,285.4,16.3z"/>
</g>
<g>
	<path fill="#010101" d="M33.4,52.9L18,67.4L2.6,52.9C-1,49.1-0.8,43.1,3,39.5l0.3-0.3c3.8-3.6,9.9-3.4,13.5,0.4l1.2,1.2l1.2-1.2
		c3.6-3.8,9.6-4,13.5-0.4l0.3,0.3C36.8,43.1,37,49.1,33.4,52.9z"/>
	<path fill="#010101" d="M75.4,52.9L60,67.4L44.6,52.9c-3.6-3.8-3.4-9.9,0.4-13.5l0.3-0.3c3.8-3.6,9.9-3.4,13.5,0.4l1.2,1.2l1.2-1.2
		c3.6-3.8,9.6-4,13.5-0.4l0.3,0.3C78.8,43.1,79,49.1,75.4,52.9z"/>
	<path fill="#010101" d="M117.4,52.9L102,67.4L86.6,52.9c-3.6-3.8-3.4-9.9,0.4-13.5l0.3-0.3c3.8-3.6,9.9-3.4,13.5,0.4l1.2,1.2
		l1.2-1.2c3.6-3.8,9.6-4,13.5-0.4l0.3,0.3C120.8,43.1,121,49.1,117.4,52.9z"/>
	<path fill="#010101" d="M159.4,52.9L144,67.4l-15.4-14.5c-3.6-3.8-3.4-9.9,0.4-13.5l0.3-0.3c3.8-3.6,9.9-3.4,13.5,0.4l1.2,1.2
		l1.2-1.2c3.6-3.8,9.6-4,13.5-0.4l0.3,0.3C162.8,43.1,163,49.1,159.4,52.9z"/>
	<path fill="#010101" d="M201.4,52.9L186,67.4l-15.4-14.5c-3.6-3.8-3.4-9.9,0.4-13.5l0.3-0.3c3.8-3.6,9.9-3.4,13.5,0.4l1.2,1.2
		l1.2-1.2c3.6-3.8,9.6-4,13.5-0.4l0.3,0.3C204.8,43.1,205,49.1,201.4,52.9z"/>
	<path fill="#010101" d="M243.4,52.9L228,67.4l-15.4-14.5c-3.6-3.8-3.4-9.9,0.4-13.5l0.3-0.3c3.8-3.6,9.9-3.4,13.5,0.4l1.2,1.2
		l1.2-1.2c3.6-3.8,9.6-4,13.5-0.4l0.3,0.3C246.8,43.1,247,49.1,243.4,52.9z"/>
	<path fill="#010101" d="M285.4,52.9L270,67.4l-15.4-14.5c-3.6-3.8-3.4-9.9,0.4-13.5l0.3-0.3c3.8-3.6,9.9-3.4,13.5,0.4l1.2,1.2
		l1.2-1.2c3.6-3.8,9.6-4,13.5-0.4l0.3,0.3C288.8,43.1,289,49.1,285.4,52.9z"/>
</g>
<g>
	<path fill="#010101" d="M33.4,126.1L18,140.5L2.6,126.1c-3.6-3.8-3.4-9.9,0.4-13.5l0.3-0.3c3.8-3.6,9.9-3.4,13.5,0.4L18,114
		l1.2-1.2c3.6-3.8,9.6-4,13.5-0.4l0.3,0.3C36.8,116.2,37,122.2,33.4,126.1z"/>
	<path fill="#010101" d="M75.4,126.1L60,140.5l-15.4-14.5c-3.6-3.8-3.4-9.9,0.4-13.5l0.3-0.3c3.8-3.6,9.9-3.4,13.5,0.4L60,114
		l1.2-1.2c3.6-3.8,9.6-4,13.5-0.4l0.3,0.3C78.8,116.2,79,122.2,75.4,126.1z"/>
	<path fill="#010101" d="M117.4,126.1L102,140.5l-15.4-14.5c-3.6-3.8-3.4-9.9,0.4-13.5l0.3-0.3c3.8-3.6,9.9-3.4,13.5,0.4l1.2,1.2
		l1.2-1.2c3.6-3.8,9.6-4,13.5-0.4l0.3,0.3C120.8,116.2,121,122.2,117.4,126.1z"/>
	<path fill="#010101" d="M159.4,126.1L144,140.5l-15.4-14.5c-3.6-3.8-3.4-9.9,0.4-13.5l0.3-0.3c3.8-3.6,9.9-3.4,13.5,0.4l1.2,1.2
		l1.2-1.2c3.6-3.8,9.6-4,13.5-0.4l0.3,0.3C162.8,116.2,163,122.2,159.4,126.1z"/>
	<path fill="#010101" d="M201.4,126.1L186,140.5l-15.4-14.5c-3.6-3.8-3.4-9.9,0.4-13.5l0.3-0.3c3.8-3.6,9.9-3.4,13.5,0.4l1.2,1.2
		l1.2-1.2c3.6-3.8,9.6-4,13.5-0.4l0.3,0.3C204.8,116.2,205,122.2,201.4,126.1z"/>
	<path fill="#010101" d="M243.4,126.1L228,140.5l-15.4-14.5c-3.6-3.8-3.4-9.9,0.4-13.5l0.3-0.3c3.8-3.6,9.9-3.4,13.5,0.4l1.2,1.2
		l1.2-1.2c3.6-3.8,9.6-4,13.5-0.4l0.3,0.3C246.8,116.2,247,122.2,243.4,126.1z"/>
	<path fill="#010101" d="M285.4,126.1L270,140.5l-15.4-14.5c-3.6-3.8-3.4-9.9,0.4-13.5l0.3-0.3c3.8-3.6,9.9-3.4,13.5,0.4l1.2,1.2
		l1.2-1.2c3.6-3.8,9.6-4,13.5-0.4l0.3,0.3C288.8,116.2,289,122.2,285.4,126.1z"/>
</g>
<g>
	<path fill="#010101" d="M33.4,162.6L18,177.1L2.6,162.6c-3.6-3.8-3.4-9.9,0.4-13.5l0.3-0.3c3.8-3.6,9.9-3.4,13.5,0.4l1.2,1.2
		l1.2-1.2c3.6-3.8,9.6-4,13.5-0.4l0.3,0.3C36.8,152.8,37,158.8,33.4,162.6z"/>
	<path fill="#010101" d="M75.4,162.6L60,177.1l-15.4-14.5c-3.6-3.8-3.4-9.9,0.4-13.5l0.3-0.3c3.8-3.6,9.9-3.4,13.5,0.4l1.2,1.2
		l1.2-1.2c3.6-3.8,9.6-4,13.5-0.4l0.3,0.3C78.8,152.8,79,158.8,75.4,162.6z"/>
	<path fill="#010101" d="M117.4,162.6L102,177.1l-15.4-14.5c-3.6-3.8-3.4-9.9,0.4-13.5l0.3-0.3c3.8-3.6,9.9-3.4,13.5,0.4l1.2,1.2
		l1.2-1.2c3.6-3.8,9.6-4,13.5-0.4l0.3,0.3C120.8,152.8,121,158.8,117.4,162.6z"/>
	<path fill="#010101" d="M159.4,162.6L144,177.1l-15.4-14.5c-3.6-3.8-3.4-9.9,0.4-13.5l0.3-0.3c3.8-3.6,9.9-3.4,13.5,0.4l1.2,1.2
		l1.2-1.2c3.6-3.8,9.6-4,13.5-0.4l0.3,0.3C162.8,152.8,163,158.8,159.4,162.6z"/>
	<path fill="#010101" d="M201.4,162.6L186,177.1l-15.4-14.5c-3.6-3.8-3.4-9.9,0.4-13.5l0.3-0.3c3.8-3.6,9.9-3.4,13.5,0.4l1.2,1.2
		l1.2-1.2c3.6-3.8,9.6-4,13.5-0.4l0.3,0.3C204.8,152.8,205,158.8,201.4,162.6z"/>
	<path fill="#010101" d="M243.4,162.6L228,177.1l-15.4-14.5c-3.6-3.8-3.4-9.9,0.4-13.5l0.3-0.3c3.8-3.6,9.9-3.4,13.5,0.4l1.2,1.2
		l1.2-1.2c3.6-3.8,9.6-4,13.5-0.4l0.3,0.3C246.8,152.8,247,158.8,243.4,162.6z"/>
	<path fill="#010101" d="M285.4,162.6L270,177.1l-15.4-14.5c-3.6-3.8-3.4-9.9,0.4-13.5l0.3-0.3c3.8-3.6,9.9-3.4,13.5,0.4l1.2,1.2
		l1.2-1.2c3.6-3.8,9.6-4,13.5-0.4l0.3,0.3C288.8,152.8,289,158.8,285.4,162.6z"/>
</g>
<g>
	<path fill="#010101" d="M33.4,199.2L18,213.7L2.6,199.2c-3.6-3.8-3.4-9.9,0.4-13.5l0.3-0.3c3.8-3.6,9.9-3.4,13.5,0.4l1.2,1.2
		l1.2-1.2c3.6-3.8,9.6-4,13.5-0.4l0.3,0.3C36.8,189.4,37,195.4,33.4,199.2z"/>
	<path fill="#010101" d="M75.4,199.2L60,213.7l-15.4-14.5c-3.6-3.8-3.4-9.9,0.4-13.5l0.3-0.3c3.8-3.6,9.9-3.4,13.5,0.4l1.2,1.2
		l1.2-1.2c3.6-3.8,9.6-4,13.5-0.4l0.3,0.3C78.8,189.4,79,195.4,75.4,199.2z"/>
	<path fill="#010101" d="M117.4,199.2L102,213.7l-15.4-14.5c-3.6-3.8-3.4-9.9,0.4-13.5l0.3-0.3c3.8-3.6,9.9-3.4,13.5,0.4l1.2,1.2
		l1.2-1.2c3.6-3.8,9.6-4,13.5-0.4l0.3,0.3C120.8,189.4,121,195.4,117.4,199.2z"/>
	<path fill="#010101" d="M159.4,199.2L144,213.7l-15.4-14.5c-3.6-3.8-3.4-9.9,0.4-13.5l0.3-0.3c3.8-3.6,9.9-3.4,13.5,0.4l1.2,1.2
		l1.2-1.2c3.6-3.8,9.6-4,13.5-0.4l0.3,0.3C162.8,189.4,163,195.4,159.4,199.2z"/>
	<path fill="#010101" d="M201.4,199.2L186,213.7l-15.4-14.5c-3.6-3.8-3.4-9.9,0.4-13.5l0.3-0.3c3.8-3.6,9.9-3.4,13.5,0.4l1.2,1.2
		l1.2-1.2c3.6-3.8,9.6-4,13.5-0.4l0.3,0.3C204.8,189.4,205,195.4,201.4,199.2z"/>
	<path fill="#010101" d="M243.4,199.2L228,213.7l-15.4-14.5c-3.6-3.8-3.4-9.9,0.4-13.5l0.3-0.3c3.8-3.6,9.9-3.4,13.5,0.4l1.2,1.2
		l1.2-1.2c3.6-3.8,9.6-4,13.5-0.4l0.3,0.3C246.8,189.4,247,195.4,243.4,199.2z"/>
	<path fill="#010101" d="M285.4,199.2L270,213.7l-15.4-14.5c-3.6-3.8-3.4-9.9,0.4-13.5l0.3-0.3c3.8-3.6,9.9-3.4,13.5,0.4l1.2,1.2
		l1.2-1.2c3.6-3.8,9.6-4,13.5-0.4l0.3,0.3C288.8,189.4,289,195.4,285.4,199.2z"/>
</g>
<g>
	<path fill="#010101" d="M33.4,235.8L18,250.3L2.6,235.8C-1,232-0.8,225.9,3,222.3l0.3-0.3c3.8-3.6,9.9-3.4,13.5,0.4l1.2,1.2
		l1.2-1.2c3.6-3.8,9.6-4,13.5-0.4l0.3,0.3C36.8,225.9,37,232,33.4,235.8z"/>
	<path fill="#010101" d="M75.4,235.8L60,250.3l-15.4-14.5c-3.6-3.8-3.4-9.9,0.4-13.5l0.3-0.3c3.8-3.6,9.9-3.4,13.5,0.4l1.2,1.2
		l1.2-1.2c3.6-3.8,9.6-4,13.5-0.4l0.3,0.3C78.8,225.9,79,232,75.4,235.8z"/>
	<path fill="#010101" d="M117.4,235.8L102,250.3l-15.4-14.5c-3.6-3.8-3.4-9.9,0.4-13.5l0.3-0.3c3.8-3.6,9.9-3.4,13.5,0.4l1.2,1.2
		l1.2-1.2c3.6-3.8,9.6-4,13.5-0.4l0.3,0.3C120.8,225.9,121,232,117.4,235.8z"/>
	<path fill="#010101" d="M159.4,235.8L144,250.3l-15.4-14.5c-3.6-3.8-3.4-9.9,0.4-13.5l0.3-0.3c3.8-3.6,9.9-3.4,13.5,0.4l1.2,1.2
		l1.2-1.2c3.6-3.8,9.6-4,13.5-0.4l0.3,0.3C162.8,225.9,163,232,159.4,235.8z"/>
	<path fill="#010101" d="M201.4,235.8L186,250.3l-15.4-14.5c-3.6-3.8-3.4-9.9,0.4-13.5l0.3-0.3c3.8-3.6,9.9-3.4,13.5,0.4l1.2,1.2
		l1.2-1.2c3.6-3.8,9.6-4,13.5-0.4l0.3,0.3C204.8,225.9,205,232,201.4,235.8z"/>
	<path fill="#010101" d="M243.4,235.8L228,250.3l-15.4-14.5c-3.6-3.8-3.4-9.9,0.4-13.5l0.3-0.3c3.8-3.6,9.9-3.4,13.5,0.4l1.2,1.2
		l1.2-1.2c3.6-3.8,9.6-4,13.5-0.4l0.3,0.3C246.8,225.9,247,232,243.4,235.8z"/>
	<path fill="#010101" d="M285.4,235.8L270,250.3l-15.4-14.5c-3.6-3.8-3.4-9.9,0.4-13.5l0.3-0.3c3.8-3.6,9.9-3.4,13.5,0.4l1.2,1.2
		l1.2-1.2c3.6-3.8,9.6-4,13.5-0.4l0.3,0.3C288.8,225.9,289,232,285.4,235.8z"/>
</g>
<g>
	<path fill="#010101" d="M33.4,272.4L18,286.8L2.6,272.4c-3.6-3.8-3.4-9.9,0.4-13.5l0.3-0.3c3.8-3.6,9.9-3.4,13.5,0.4l1.2,1.2
		l1.2-1.2c3.6-3.8,9.6-4,13.5-0.4l0.3,0.3C36.8,262.5,37,268.5,33.4,272.4z"/>
	<path fill="#010101" d="M75.4,272.4L60,286.8l-15.4-14.5c-3.6-3.8-3.4-9.9,0.4-13.5l0.3-0.3c3.8-3.6,9.9-3.4,13.5,0.4l1.2,1.2
		l1.2-1.2c3.6-3.8,9.6-4,13.5-0.4l0.3,0.3C78.8,262.5,79,268.5,75.4,272.4z"/>
	<path fill="#010101" d="M117.4,272.4L102,286.8l-15.4-14.5c-3.6-3.8-3.4-9.9,0.4-13.5l0.3-0.3c3.8-3.6,9.9-3.4,13.5,0.4l1.2,1.2
		l1.2-1.2c3.6-3.8,9.6-4,13.5-0.4l0.3,0.3C120.8,262.5,121,268.5,117.4,272.4z"/>
	<path fill="#010101" d="M159.4,272.4L144,286.8l-15.4-14.5c-3.6-3.8-3.4-9.9,0.4-13.5l0.3-0.3c3.8-3.6,9.9-3.4,13.5,0.4l1.2,1.2
		l1.2-1.2c3.6-3.8,9.6-4,13.5-0.4l0.3,0.3C162.8,262.5,163,268.5,159.4,272.4z"/>
	<path fill="#010101" d="M201.4,272.4L186,286.8l-15.4-14.5c-3.6-3.8-3.4-9.9,0.4-13.5l0.3-0.3c3.8-3.6,9.9-3.4,13.5,0.4l1.2,1.2
		l1.2-1.2c3.6-3.8,9.6-4,13.5-0.4l0.3,0.3C204.8,262.5,205,268.5,201.4,272.4z"/>
	<path fill="#010101" d="M243.4,272.4L228,286.8l-15.4-14.5c-3.6-3.8-3.4-9.9,0.4-13.5l0.3-0.3c3.8-3.6,9.9-3.4,13.5,0.4l1.2,1.2
		l1.2-1.2c3.6-3.8,9.6-4,13.5-0.4l0.3,0.3C246.8,262.5,247,268.5,243.4,272.4z"/>
	<path fill="#010101" d="M285.4,272.4L270,286.8l-15.4-14.5c-3.6-3.8-3.4-9.9,0.4-13.5l0.3-0.3c3.8-3.6,9.9-3.4,13.5,0.4l1.2,1.2
		l1.2-1.2c3.6-3.8,9.6-4,13.5-0.4l0.3,0.3C288.8,262.5,289,268.5,285.4,272.4z"/>
</g>
<g>
	<path fill="#010101" d="M33.4,309L18,323.4L2.6,309c-3.6-3.8-3.4-9.9,0.4-13.5l0.3-0.3c3.8-3.6,9.9-3.4,13.5,0.4l1.2,1.2l1.2-1.2
		c3.6-3.8,9.6-4,13.5-0.4l0.3,0.3C36.8,299.1,37,305.1,33.4,309z"/>
	<path fill="#010101" d="M75.4,309L60,323.4L44.6,309c-3.6-3.8-3.4-9.9,0.4-13.5l0.3-0.3c3.8-3.6,9.9-3.4,13.5,0.4l1.2,1.2l1.2-1.2
		c3.6-3.8,9.6-4,13.5-0.4l0.3,0.3C78.8,299.1,79,305.1,75.4,309z"/>
	<path fill="#010101" d="M117.4,309L102,323.4L86.6,309c-3.6-3.8-3.4-9.9,0.4-13.5l0.3-0.3c3.8-3.6,9.9-3.4,13.5,0.4l1.2,1.2
		l1.2-1.2c3.6-3.8,9.6-4,13.5-0.4l0.3,0.3C120.8,299.1,121,305.1,117.4,309z"/>
	<path fill="#010101" d="M159.4,309L144,323.4L128.6,309c-3.6-3.8-3.4-9.9,0.4-13.5l0.3-0.3c3.8-3.6,9.9-3.4,13.5,0.4l1.2,1.2
		l1.2-1.2c3.6-3.8,9.6-4,13.5-0.4l0.3,0.3C162.8,299.1,163,305.1,159.4,309z"/>
	<path fill="#010101" d="M201.4,309L186,323.4L170.6,309c-3.6-3.8-3.4-9.9,0.4-13.5l0.3-0.3c3.8-3.6,9.9-3.4,13.5,0.4l1.2,1.2
		l1.2-1.2c3.6-3.8,9.6-4,13.5-0.4l0.3,0.3C204.8,299.1,205,305.1,201.4,309z"/>
	<path fill="#010101" d="M243.4,309L228,323.4L212.6,309c-3.6-3.8-3.4-9.9,0.4-13.5l0.3-0.3c3.8-3.6,9.9-3.4,13.5,0.4l1.2,1.2
		l1.2-1.2c3.6-3.8,9.6-4,13.5-0.4l0.3,0.3C246.8,299.1,247,305.1,243.4,309z"/>
	<path fill="#010101" d="M285.4,309L270,323.4L254.6,309c-3.6-3.8-3.4-9.9,0.4-13.5l0.3-0.3c3.8-3.6,9.9-3.4,13.5,0.4l1.2,1.2
		l1.2-1.2c3.6-3.8,9.6-4,13.5-0.4l0.3,0.3C288.8,299.1,289,305.1,285.4,309z"/>
</g>
<g>
	<path fill="#010101" d="M33.4,89.5L18,104L2.6,89.5C-1,85.7-0.8,79.6,3,76l0.3-0.3c3.8-3.6,9.9-3.4,13.5,0.4l1.2,1.2l1.2-1.2
		c3.6-3.8,9.6-4,13.5-0.4L33,76C36.8,79.6,37,85.7,33.4,89.5z"/>
	<path fill="#010101" d="M75.4,89.5L60,104L44.6,89.5C41,85.7,41.2,79.6,45,76l0.3-0.3c3.8-3.6,9.9-3.4,13.5,0.4l1.2,1.2l1.2-1.2
		c3.6-3.8,9.6-4,13.5-0.4L75,76C78.8,79.6,79,85.7,75.4,89.5z"/>
	<path fill="#010101" d="M117.4,89.5L102,104L86.6,89.5C83,85.7,83.2,79.6,87,76l0.3-0.3c3.8-3.6,9.9-3.4,13.5,0.4l1.2,1.2l1.2-1.2
		c3.6-3.8,9.6-4,13.5-0.4L117,76C120.8,79.6,121,85.7,117.4,89.5z"/>
	<path fill="#010101" d="M159.4,89.5L144,104l-15.4-14.5c-3.6-3.8-3.4-9.9,0.4-13.5l0.3-0.3c3.8-3.6,9.9-3.4,13.5,0.4l1.2,1.2
		l1.2-1.2c3.6-3.8,9.6-4,13.5-0.4L159,76C162.8,79.6,163,85.7,159.4,89.5z"/>
	<path fill="#010101" d="M201.4,89.5L186,104l-15.4-14.5c-3.6-3.8-3.4-9.9,0.4-13.5l0.3-0.3c3.8-3.6,9.9-3.4,13.5,0.4l1.2,1.2
		l1.2-1.2c3.6-3.8,9.6-4,13.5-0.4L201,76C204.8,79.6,205,85.7,201.4,89.5z"/>
	<path fill="#010101" d="M243.4,89.5L228,104l-15.4-14.5c-3.6-3.8-3.4-9.9,0.4-13.5l0.3-0.3c3.8-3.6,9.9-3.4,13.5,0.4l1.2,1.2
		l1.2-1.2c3.6-3.8,9.6-4,13.5-0.4L243,76C246.8,79.6,247,85.7,243.4,89.5z"/>
	<path fill="#010101" d="M285.4,89.5L270,104l-15.4-14.5c-3.6-3.8-3.4-9.9,0.4-13.5l0.3-0.3c3.8-3.6,9.9-3.4,13.5,0.4l1.2,1.2
		l1.2-1.2c3.6-3.8,9.6-4,13.5-0.4L285,76C288.8,79.6,289,85.7,285.4,89.5z"/>
</g>
<g>
	<path fill="#010101" d="M33.4,345.5L18,360L2.6,345.5c-3.6-3.8-3.4-9.9,0.4-13.5l0.3-0.3c3.8-3.6,9.9-3.4,13.5,0.4l1.2,1.2l1.2-1.2
		c3.6-3.8,9.6-4,13.5-0.4l0.3,0.3C36.8,335.7,37,341.7,33.4,345.5z"/>
	<path fill="#010101" d="M75.4,345.5L60,360l-15.4-14.5c-3.6-3.8-3.4-9.9,0.4-13.5l0.3-0.3c3.8-3.6,9.9-3.4,13.5,0.4l1.2,1.2
		l1.2-1.2c3.6-3.8,9.6-4,13.5-0.4l0.3,0.3C78.8,335.7,79,341.7,75.4,345.5z"/>
	<path fill="#010101" d="M117.4,345.5L102,360l-15.4-14.5c-3.6-3.8-3.4-9.9,0.4-13.5l0.3-0.3c3.8-3.6,9.9-3.4,13.5,0.4l1.2,1.2
		l1.2-1.2c3.6-3.8,9.6-4,13.5-0.4l0.3,0.3C120.8,335.7,121,341.7,117.4,345.5z"/>
	<path fill="#010101" d="M159.4,345.5L144,360l-15.4-14.5c-3.6-3.8-3.4-9.9,0.4-13.5l0.3-0.3c3.8-3.6,9.9-3.4,13.5,0.4l1.2,1.2
		l1.2-1.2c3.6-3.8,9.6-4,13.5-0.4l0.3,0.3C162.8,335.7,163,341.7,159.4,345.5z"/>
	<path fill="#010101" d="M201.4,345.5L186,360l-15.4-14.5c-3.6-3.8-3.4-9.9,0.4-13.5l0.3-0.3c3.8-3.6,9.9-3.4,13.5,0.4l1.2,1.2
		l1.2-1.2c3.6-3.8,9.6-4,13.5-0.4l0.3,0.3C204.8,335.7,205,341.7,201.4,345.5z"/>
	<path fill="#010101" d="M243.4,345.5L228,360l-15.4-14.5c-3.6-3.8-3.4-9.9,0.4-13.5l0.3-0.3c3.8-3.6,9.9-3.4,13.5,0.4l1.2,1.2
		l1.2-1.2c3.6-3.8,9.6-4,13.5-0.4l0.3,0.3C246.8,335.7,247,341.7,243.4,345.5z"/>
	<path fill="#010101" d="M285.4,345.5L270,360l-15.4-14.5c-3.6-3.8-3.4-9.9,0.4-13.5l0.3-0.3c3.8-3.6,9.9-3.4,13.5,0.4l1.2,1.2
		l1.2-1.2c3.6-3.8,9.6-4,13.5-0.4l0.3,0.3C288.8,335.7,289,341.7,285.4,345.5z"/>
</g>
</svg>
