<?xml version="1.0" encoding="utf-8"?>
<!-- Generator: Adobe Illustrator 18.0.0, SVG Export Plug-In . SVG Version: 6.00 Build 0)  -->
<!DOCTYPE svg PUBLIC "-//W3C//DTD SVG 1.1//EN" "http://www.w3.org/Graphics/SVG/1.1/DTD/svg11.dtd">
<svg version="1.1" id="Layer_1" xmlns="http://www.w3.org/2000/svg" xmlns:xlink="http://www.w3.org/1999/xlink" x="0px" y="0px"
	 width="504.5px" height="539.8px" viewBox="0 0 504.5 539.8" enable-background="new 0 0 504.5 539.8" xml:space="preserve">
<g>
	<g>
		<g>
			<rect x="448.5" y="0" fill="none" width="56.1" height="49"/>
			<path fill="#010101" d="M497.4,25.8l-20.9,19.6l-20.9-19.6c-4.9-5.2-4.6-13.4,0.6-18.3l0.5-0.4c5.2-4.9,13.4-4.6,18.3,0.6
				l1.6,1.7l1.6-1.7c4.9-5.2,13-5.5,18.3-0.6l0.5,0.4C502,12.4,502.3,20.6,497.4,25.8z"/>
		</g>
		<g>
			<rect x="448.5" y="49" fill="none" width="56.1" height="49"/>
			<path fill="#010101" d="M497.4,74.8l-20.9,19.6l-20.9-19.6c-4.9-5.2-4.6-13.4,0.6-18.3l0.5-0.4c5.2-4.9,13.4-4.6,18.3,0.6
				l1.6,1.7l1.6-1.7c4.9-5.2,13-5.5,18.3-0.6l0.5,0.4C502,61.4,502.3,69.6,497.4,74.8z"/>
		</g>
		<g>
			<rect x="448.5" y="98" fill="none" width="56.1" height="49"/>
			<path fill="#010101" d="M497.4,123.8l-20.9,19.6l-20.9-19.6c-4.9-5.2-4.6-13.4,0.6-18.3l0.5-0.4c5.2-4.9,13.4-4.6,18.3,0.6
				l1.6,1.7l1.6-1.7c4.9-5.2,13-5.5,18.3-0.6l0.5,0.4C502,110.4,502.3,118.6,497.4,123.8z"/>
		</g>
		<g>
			<rect x="448.5" y="147.1" fill="none" width="56.1" height="49"/>
			<path fill="#010101" d="M497.4,172.9l-20.9,19.6l-20.9-19.6c-4.9-5.2-4.6-13.4,0.6-18.3l0.5-0.4c5.2-4.9,13.4-4.6,18.3,0.6
				l1.6,1.7l1.6-1.7c4.9-5.2,13-5.5,18.3-0.6l0.5,0.4C502,159.5,502.3,167.6,497.4,172.9z"/>
		</g>
		<g>
			<rect x="448.5" y="196.1" fill="none" width="56.1" height="49"/>
			<path fill="#010101" d="M497.4,221.9l-20.9,19.6l-20.9-19.6c-4.9-5.2-4.6-13.4,0.6-18.3l0.5-0.4c5.2-4.9,13.4-4.6,18.3,0.6
				l1.6,1.7l1.6-1.7c4.9-5.2,13-5.5,18.3-0.6l0.5,0.4C502,208.5,502.3,216.7,497.4,221.9z"/>
		</g>
		<g>
			<rect x="448.5" y="245.1" fill="none" width="56.1" height="49"/>
			<path fill="#010101" d="M497.4,270.9l-20.9,19.6l-20.9-19.6c-4.9-5.2-4.6-13.4,0.6-18.3l0.5-0.4c5.2-4.9,13.4-4.6,18.3,0.6
				l1.6,1.7l1.6-1.7c4.9-5.2,13-5.5,18.3-0.6l0.5,0.4C502,257.5,502.3,265.7,497.4,270.9z"/>
		</g>
		<g>
			<rect x="448.5" y="294.1" fill="none" width="56.1" height="49"/>
			<path fill="#010101" d="M497.4,319.9l-20.9,19.6l-20.9-19.6c-4.9-5.2-4.6-13.4,0.6-18.3l0.5-0.4c5.2-4.9,13.4-4.6,18.3,0.6
				l1.6,1.7l1.6-1.7c4.9-5.2,13-5.5,18.3-0.6l0.5,0.4C502,306.5,502.3,314.7,497.4,319.9z"/>
		</g>
		<g>
			<rect x="448.5" y="343.2" fill="none" width="56.1" height="49"/>
			<path fill="#010101" d="M497.4,368.9l-20.9,19.6l-20.9-19.6c-4.9-5.2-4.6-13.4,0.6-18.3l0.5-0.4c5.2-4.9,13.4-4.6,18.3,0.6
				l1.6,1.7l1.6-1.7c4.9-5.2,13-5.5,18.3-0.6l0.5,0.4C502,355.6,502.3,363.7,497.4,368.9z"/>
		</g>
		<g>
			<rect x="448.5" y="392.2" fill="none" width="56.1" height="49"/>
			<path fill="#010101" d="M497.4,418l-20.9,19.6L455.5,418c-4.9-5.2-4.6-13.4,0.6-18.3l0.5-0.4c5.2-4.9,13.4-4.6,18.3,0.6l1.6,1.7
				l1.6-1.7c4.9-5.2,13-5.5,18.3-0.6l0.5,0.4C502,404.6,502.3,412.8,497.4,418z"/>
		</g>
		<g>
			<rect x="448.5" y="441.2" fill="none" width="56.1" height="49"/>
			<path fill="#010101" d="M497.4,467l-20.9,19.6L455.5,467c-4.9-5.2-4.6-13.4,0.6-18.3l0.5-0.4c5.2-4.9,13.4-4.6,18.3,0.6l1.6,1.7
				l1.6-1.7c4.9-5.2,13-5.5,18.3-0.6l0.5,0.4C502,453.6,502.3,461.8,497.4,467z"/>
		</g>
		<g>
			<rect x="448.5" y="490.2" fill="none" width="56.1" height="49"/>
			<path fill="#010101" d="M497.4,516l-20.9,19.6L455.5,516c-4.9-5.2-4.6-13.4,0.6-18.3l0.5-0.4c5.2-4.9,13.4-4.6,18.3,0.6l1.6,1.7
				l1.6-1.7c4.9-5.2,13-5.5,18.3-0.6l0.5,0.4C502,502.6,502.3,510.8,497.4,516z"/>
		</g>
		<g>
			<rect x="392.4" y="0" fill="none" width="56.1" height="49"/>
			<path fill="#010101" d="M441.4,25.8l-20.9,19.6l-20.9-19.6c-4.9-5.2-4.6-13.4,0.6-18.3l0.5-0.4c5.2-4.9,13.4-4.6,18.3,0.6
				l1.6,1.7l1.6-1.7c4.9-5.2,13-5.5,18.3-0.6l0.5,0.4C446,12.4,446.2,20.6,441.4,25.8z"/>
		</g>
		<g>
			<rect x="392.4" y="49" fill="none" width="56.1" height="49"/>
			<path fill="#010101" d="M441.4,74.8l-20.9,19.6l-20.9-19.6c-4.9-5.2-4.6-13.4,0.6-18.3l0.5-0.4c5.2-4.9,13.4-4.6,18.3,0.6
				l1.6,1.7l1.6-1.7c4.9-5.2,13-5.5,18.3-0.6l0.5,0.4C446,61.4,446.2,69.6,441.4,74.8z"/>
		</g>
		<g>
			<rect x="392.4" y="98" fill="none" width="56.1" height="49"/>
			<path fill="#010101" d="M441.4,123.8l-20.9,19.6l-20.9-19.6c-4.9-5.2-4.6-13.4,0.6-18.3l0.5-0.4c5.2-4.9,13.4-4.6,18.3,0.6
				l1.6,1.7l1.6-1.7c4.9-5.2,13-5.5,18.3-0.6l0.5,0.4C446,110.4,446.2,118.6,441.4,123.8z"/>
		</g>
		<g>
			<rect x="392.4" y="147.1" fill="none" width="56.1" height="49"/>
			<path fill="#010101" d="M441.4,172.9l-20.9,19.6l-20.9-19.6c-4.9-5.2-4.6-13.4,0.6-18.3l0.5-0.4c5.2-4.9,13.4-4.6,18.3,0.6
				l1.6,1.7l1.6-1.7c4.9-5.2,13-5.5,18.3-0.6l0.5,0.4C446,159.5,446.2,167.6,441.4,172.9z"/>
		</g>
		<g>
			<rect x="392.4" y="196.1" fill="none" width="56.1" height="49"/>
			<path fill="#010101" d="M441.4,221.9l-20.9,19.6l-20.9-19.6c-4.9-5.2-4.6-13.4,0.6-18.3l0.5-0.4c5.2-4.9,13.4-4.6,18.3,0.6
				l1.6,1.7l1.6-1.7c4.9-5.2,13-5.5,18.3-0.6l0.5,0.4C446,208.5,446.2,216.7,441.4,221.9z"/>
		</g>
		<g>
			<rect x="392.4" y="245.1" fill="none" width="56.1" height="49"/>
			<path fill="#010101" d="M441.4,270.9l-20.9,19.6l-20.9-19.6c-4.9-5.2-4.6-13.4,0.6-18.3l0.5-0.4c5.2-4.9,13.4-4.6,18.3,0.6
				l1.6,1.7l1.6-1.7c4.9-5.2,13-5.5,18.3-0.6l0.5,0.4C446,257.5,446.2,265.7,441.4,270.9z"/>
		</g>
		<g>
			<rect x="392.4" y="294.1" fill="none" width="56.1" height="49"/>
			<path fill="#010101" d="M441.4,319.9l-20.9,19.6l-20.9-19.6c-4.9-5.2-4.6-13.4,0.6-18.3l0.5-0.4c5.2-4.9,13.4-4.6,18.3,0.6
				l1.6,1.7l1.6-1.7c4.9-5.2,13-5.5,18.3-0.6l0.5,0.4C446,306.5,446.2,314.7,441.4,319.9z"/>
		</g>
		<g>
			<rect x="392.4" y="343.2" fill="none" width="56.1" height="49"/>
			<path fill="#010101" d="M441.4,368.9l-20.9,19.6l-20.9-19.6c-4.9-5.2-4.6-13.4,0.6-18.3l0.5-0.4c5.2-4.9,13.4-4.6,18.3,0.6
				l1.6,1.7l1.6-1.7c4.9-5.2,13-5.5,18.3-0.6l0.5,0.4C446,355.6,446.2,363.7,441.4,368.9z"/>
		</g>
		<g>
			<rect x="392.4" y="392.2" fill="none" width="56.1" height="49"/>
			<path fill="#010101" d="M441.4,418l-20.9,19.6L399.5,418c-4.9-5.2-4.6-13.4,0.6-18.3l0.5-0.4c5.2-4.9,13.4-4.6,18.3,0.6l1.6,1.7
				l1.6-1.7c4.9-5.2,13-5.5,18.3-0.6l0.5,0.4C446,404.6,446.2,412.8,441.4,418z"/>
		</g>
		<g>
			<rect x="392.4" y="441.2" fill="none" width="56.1" height="49"/>
			<path fill="#010101" d="M441.4,467l-20.9,19.6L399.5,467c-4.9-5.2-4.6-13.4,0.6-18.3l0.5-0.4c5.2-4.9,13.4-4.6,18.3,0.6l1.6,1.7
				l1.6-1.7c4.9-5.2,13-5.5,18.3-0.6l0.5,0.4C446,453.6,446.2,461.8,441.4,467z"/>
		</g>
		<g>
			<rect x="392.4" y="490.2" fill="none" width="56.1" height="49"/>
			<path fill="#010101" d="M441.4,516l-20.9,19.6L399.5,516c-4.9-5.2-4.6-13.4,0.6-18.3l0.5-0.4c5.2-4.9,13.4-4.6,18.3,0.6l1.6,1.7
				l1.6-1.7c4.9-5.2,13-5.5,18.3-0.6l0.5,0.4C446,502.6,446.2,510.8,441.4,516z"/>
		</g>
		<g>
			<rect x="336.3" y="0" fill="none" width="56.1" height="49"/>
			<path fill="#010101" d="M385.3,25.8l-20.9,19.6l-20.9-19.6c-4.9-5.2-4.6-13.4,0.6-18.3l0.5-0.4c5.2-4.9,13.4-4.6,18.3,0.6
				l1.6,1.7l1.6-1.7c4.9-5.2,13-5.5,18.3-0.6l0.5,0.4C389.9,12.4,390.2,20.6,385.3,25.8z"/>
		</g>
		<g>
			<rect x="336.3" y="49" fill="none" width="56.1" height="49"/>
			<path fill="#010101" d="M385.3,74.8l-20.9,19.6l-20.9-19.6c-4.9-5.2-4.6-13.4,0.6-18.3l0.5-0.4c5.2-4.9,13.4-4.6,18.3,0.6
				l1.6,1.7l1.6-1.7c4.9-5.2,13-5.5,18.3-0.6l0.5,0.4C389.9,61.4,390.2,69.6,385.3,74.8z"/>
		</g>
		<g>
			<rect x="336.3" y="98" fill="none" width="56.1" height="49"/>
			<path fill="#010101" d="M385.3,123.8l-20.9,19.6l-20.9-19.6c-4.9-5.2-4.6-13.4,0.6-18.3l0.5-0.4c5.2-4.9,13.4-4.6,18.3,0.6
				l1.6,1.7l1.6-1.7c4.9-5.2,13-5.5,18.3-0.6l0.5,0.4C389.9,110.4,390.2,118.6,385.3,123.8z"/>
		</g>
		<g>
			<rect x="336.3" y="147.1" fill="none" width="56.1" height="49"/>
			<path fill="#010101" d="M385.3,172.9l-20.9,19.6l-20.9-19.6c-4.9-5.2-4.6-13.4,0.6-18.3l0.5-0.4c5.2-4.9,13.4-4.6,18.3,0.6
				l1.6,1.7l1.6-1.7c4.9-5.2,13-5.5,18.3-0.6l0.5,0.4C389.9,159.5,390.2,167.6,385.3,172.9z"/>
		</g>
		<g>
			<rect x="336.3" y="196.1" fill="none" width="56.1" height="49"/>
			<path fill="#010101" d="M385.3,221.9l-20.9,19.6l-20.9-19.6c-4.9-5.2-4.6-13.4,0.6-18.3l0.5-0.4c5.2-4.9,13.4-4.6,18.3,0.6
				l1.6,1.7l1.6-1.7c4.9-5.2,13-5.5,18.3-0.6l0.5,0.4C389.9,208.5,390.2,216.7,385.3,221.9z"/>
		</g>
		<g>
			<rect x="336.3" y="245.1" fill="none" width="56.1" height="49"/>
			<path fill="#010101" d="M385.3,270.9l-20.9,19.6l-20.9-19.6c-4.9-5.2-4.6-13.4,0.6-18.3l0.5-0.4c5.2-4.9,13.4-4.6,18.3,0.6
				l1.6,1.7l1.6-1.7c4.9-5.2,13-5.5,18.3-0.6l0.5,0.4C389.9,257.5,390.2,265.7,385.3,270.9z"/>
		</g>
		<g>
			<rect x="336.3" y="294.1" fill="none" width="56.1" height="49"/>
			<path fill="#010101" d="M385.3,319.9l-20.9,19.6l-20.9-19.6c-4.9-5.2-4.6-13.4,0.6-18.3l0.5-0.4c5.2-4.9,13.4-4.6,18.3,0.6
				l1.6,1.7l1.6-1.7c4.9-5.2,13-5.5,18.3-0.6l0.5,0.4C389.9,306.5,390.2,314.7,385.3,319.9z"/>
		</g>
		<g>
			<rect x="336.3" y="343.2" fill="none" width="56.1" height="49"/>
			<path fill="#010101" d="M385.3,368.9l-20.9,19.6l-20.9-19.6c-4.9-5.2-4.6-13.4,0.6-18.3l0.5-0.4c5.2-4.9,13.4-4.6,18.3,0.6
				l1.6,1.7l1.6-1.7c4.9-5.2,13-5.5,18.3-0.6l0.5,0.4C389.9,355.6,390.2,363.7,385.3,368.9z"/>
		</g>
		<g>
			<rect x="336.3" y="392.2" fill="none" width="56.1" height="49"/>
			<path fill="#010101" d="M385.3,418l-20.9,19.6L343.4,418c-4.9-5.2-4.6-13.4,0.6-18.3l0.5-0.4c5.2-4.9,13.4-4.6,18.3,0.6l1.6,1.7
				l1.6-1.7c4.9-5.2,13-5.5,18.3-0.6l0.5,0.4C389.9,404.6,390.2,412.8,385.3,418z"/>
		</g>
		<g>
			<rect x="336.3" y="441.2" fill="none" width="56.1" height="49"/>
			<path fill="#010101" d="M385.3,467l-20.9,19.6L343.4,467c-4.9-5.2-4.6-13.4,0.6-18.3l0.5-0.4c5.2-4.9,13.4-4.6,18.3,0.6l1.6,1.7
				l1.6-1.7c4.9-5.2,13-5.5,18.3-0.6l0.5,0.4C389.9,453.6,390.2,461.8,385.3,467z"/>
		</g>
		<g>
			<rect x="336.3" y="490.2" fill="none" width="56.1" height="49"/>
			<path fill="#010101" d="M385.3,516l-20.9,19.6L343.4,516c-4.9-5.2-4.6-13.4,0.6-18.3l0.5-0.4c5.2-4.9,13.4-4.6,18.3,0.6l1.6,1.7
				l1.6-1.7c4.9-5.2,13-5.5,18.3-0.6l0.5,0.4C389.9,502.6,390.2,510.8,385.3,516z"/>
		</g>
		<g>
			<rect x="280.3" y="0" fill="none" width="56.1" height="49"/>
			<path fill="#010101" d="M329.3,25.8l-20.9,19.6l-20.9-19.6c-4.9-5.2-4.6-13.4,0.6-18.3l0.5-0.4c5.2-4.9,13.4-4.6,18.3,0.6
				l1.6,1.7l1.6-1.7c4.9-5.2,13-5.5,18.3-0.6l0.5,0.4C333.9,12.4,334.1,20.6,329.3,25.8z"/>
		</g>
		<g>
			<rect x="280.3" y="49" fill="none" width="56.1" height="49"/>
			<path fill="#010101" d="M329.3,74.8l-20.9,19.6l-20.9-19.6c-4.9-5.2-4.6-13.4,0.6-18.3l0.5-0.4c5.2-4.9,13.4-4.6,18.3,0.6
				l1.6,1.7l1.6-1.7c4.9-5.2,13-5.5,18.3-0.6l0.5,0.4C333.9,61.4,334.1,69.6,329.3,74.8z"/>
		</g>
		<g>
			<rect x="280.3" y="98" fill="none" width="56.1" height="49"/>
			<path fill="#010101" d="M329.3,123.8l-20.9,19.6l-20.9-19.6c-4.9-5.2-4.6-13.4,0.6-18.3l0.5-0.4c5.2-4.9,13.4-4.6,18.3,0.6
				l1.6,1.7l1.6-1.7c4.9-5.2,13-5.5,18.3-0.6l0.5,0.4C333.9,110.4,334.1,118.6,329.3,123.8z"/>
		</g>
		<g>
			<rect x="280.3" y="147.1" fill="none" width="56.1" height="49"/>
			<path fill="#010101" d="M329.3,172.9l-20.9,19.6l-20.9-19.6c-4.9-5.2-4.6-13.4,0.6-18.3l0.5-0.4c5.2-4.9,13.4-4.6,18.3,0.6
				l1.6,1.7l1.6-1.7c4.9-5.2,13-5.5,18.3-0.6l0.5,0.4C333.9,159.5,334.1,167.6,329.3,172.9z"/>
		</g>
		<g>
			<rect x="280.3" y="196.1" fill="none" width="56.1" height="49"/>
			<path fill="#010101" d="M329.3,221.9l-20.9,19.6l-20.9-19.6c-4.9-5.2-4.6-13.4,0.6-18.3l0.5-0.4c5.2-4.9,13.4-4.6,18.3,0.6
				l1.6,1.7l1.6-1.7c4.9-5.2,13-5.5,18.3-0.6l0.5,0.4C333.9,208.5,334.1,216.7,329.3,221.9z"/>
		</g>
		<g>
			<rect x="280.3" y="245.1" fill="none" width="56.1" height="49"/>
			<path fill="#010101" d="M329.3,270.9l-20.9,19.6l-20.9-19.6c-4.9-5.2-4.6-13.4,0.6-18.3l0.5-0.4c5.2-4.9,13.4-4.6,18.3,0.6
				l1.6,1.7l1.6-1.7c4.9-5.2,13-5.5,18.3-0.6l0.5,0.4C333.9,257.5,334.1,265.7,329.3,270.9z"/>
		</g>
		<g>
			<rect x="280.3" y="294.1" fill="none" width="56.1" height="49"/>
			<path fill="#010101" d="M329.3,319.9l-20.9,19.6l-20.9-19.6c-4.9-5.2-4.6-13.4,0.6-18.3l0.5-0.4c5.2-4.9,13.4-4.6,18.3,0.6
				l1.6,1.7l1.6-1.7c4.9-5.2,13-5.5,18.3-0.6l0.5,0.4C333.9,306.5,334.1,314.7,329.3,319.9z"/>
		</g>
		<g>
			<rect x="280.3" y="343.2" fill="none" width="56.1" height="49"/>
			<path fill="#010101" d="M329.3,368.9l-20.9,19.6l-20.9-19.6c-4.9-5.2-4.6-13.4,0.6-18.3l0.5-0.4c5.2-4.9,13.4-4.6,18.3,0.6
				l1.6,1.7l1.6-1.7c4.9-5.2,13-5.5,18.3-0.6l0.5,0.4C333.9,355.6,334.1,363.7,329.3,368.9z"/>
		</g>
		<g>
			<rect x="280.3" y="392.2" fill="none" width="56.1" height="49"/>
			<path fill="#010101" d="M329.3,418l-20.9,19.6L287.4,418c-4.9-5.2-4.6-13.4,0.6-18.3l0.5-0.4c5.2-4.9,13.4-4.6,18.3,0.6l1.6,1.7
				l1.6-1.7c4.9-5.2,13-5.5,18.3-0.6l0.5,0.4C333.9,404.6,334.1,412.8,329.3,418z"/>
		</g>
		<g>
			<rect x="280.3" y="441.2" fill="none" width="56.1" height="49"/>
			<path fill="#010101" d="M329.3,467l-20.9,19.6L287.4,467c-4.9-5.2-4.6-13.4,0.6-18.3l0.5-0.4c5.2-4.9,13.4-4.6,18.3,0.6l1.6,1.7
				l1.6-1.7c4.9-5.2,13-5.5,18.3-0.6l0.5,0.4C333.9,453.6,334.1,461.8,329.3,467z"/>
		</g>
		<g>
			<rect x="280.3" y="490.2" fill="none" width="56.1" height="49"/>
			<path fill="#010101" d="M329.3,516l-20.9,19.6L287.4,516c-4.9-5.2-4.6-13.4,0.6-18.3l0.5-0.4c5.2-4.9,13.4-4.6,18.3,0.6l1.6,1.7
				l1.6-1.7c4.9-5.2,13-5.5,18.3-0.6l0.5,0.4C333.9,502.6,334.1,510.8,329.3,516z"/>
		</g>
		<g>
			<rect x="224.2" y="0" fill="none" width="56.1" height="49"/>
			<path fill="#010101" d="M273.2,25.8l-20.9,19.6l-20.9-19.6c-4.9-5.2-4.6-13.4,0.6-18.3l0.5-0.4c5.2-4.9,13.4-4.6,18.3,0.6
				l1.6,1.7l1.6-1.7c4.9-5.2,13-5.5,18.3-0.6l0.5,0.4C277.8,12.4,278.1,20.6,273.2,25.8z"/>
		</g>
		<g>
			<rect x="224.2" y="49" fill="none" width="56.1" height="49"/>
			<path fill="#010101" d="M273.2,74.8l-20.9,19.6l-20.9-19.6c-4.9-5.2-4.6-13.4,0.6-18.3l0.5-0.4c5.2-4.9,13.4-4.6,18.3,0.6
				l1.6,1.7l1.6-1.7c4.9-5.2,13-5.5,18.3-0.6l0.5,0.4C277.8,61.4,278.1,69.6,273.2,74.8z"/>
		</g>
		<g>
			<rect x="224.2" y="98" fill="none" width="56.1" height="49"/>
			<path fill="#010101" d="M273.2,123.8l-20.9,19.6l-20.9-19.6c-4.9-5.2-4.6-13.4,0.6-18.3l0.5-0.4c5.2-4.9,13.4-4.6,18.3,0.6
				l1.6,1.7l1.6-1.7c4.9-5.2,13-5.5,18.3-0.6l0.5,0.4C277.8,110.4,278.1,118.6,273.2,123.8z"/>
		</g>
		<g>
			<rect x="224.2" y="147.1" fill="none" width="56.1" height="49"/>
			<path fill="#010101" d="M273.2,172.9l-20.9,19.6l-20.9-19.6c-4.9-5.2-4.6-13.4,0.6-18.3l0.5-0.4c5.2-4.9,13.4-4.6,18.3,0.6
				l1.6,1.7l1.6-1.7c4.9-5.2,13-5.5,18.3-0.6l0.5,0.4C277.8,159.5,278.1,167.6,273.2,172.9z"/>
		</g>
		<g>
			<rect x="224.2" y="196.1" fill="none" width="56.1" height="49"/>
			<path fill="#010101" d="M273.2,221.9l-20.9,19.6l-20.9-19.6c-4.9-5.2-4.6-13.4,0.6-18.3l0.5-0.4c5.2-4.9,13.4-4.6,18.3,0.6
				l1.6,1.7l1.6-1.7c4.9-5.2,13-5.5,18.3-0.6l0.5,0.4C277.8,208.5,278.1,216.7,273.2,221.9z"/>
		</g>
		<g>
			<rect x="224.2" y="245.1" fill="none" width="56.1" height="49"/>
			<path fill="#010101" d="M273.2,270.9l-20.9,19.6l-20.9-19.6c-4.9-5.2-4.6-13.4,0.6-18.3l0.5-0.4c5.2-4.9,13.4-4.6,18.3,0.6
				l1.6,1.7l1.6-1.7c4.9-5.2,13-5.5,18.3-0.6l0.5,0.4C277.8,257.5,278.1,265.7,273.2,270.9z"/>
		</g>
		<g>
			<rect x="224.2" y="294.1" fill="none" width="56.1" height="49"/>
			<path fill="#010101" d="M273.2,319.9l-20.9,19.6l-20.9-19.6c-4.9-5.2-4.6-13.4,0.6-18.3l0.5-0.4c5.2-4.9,13.4-4.6,18.3,0.6
				l1.6,1.7l1.6-1.7c4.9-5.2,13-5.5,18.3-0.6l0.5,0.4C277.8,306.5,278.1,314.7,273.2,319.9z"/>
		</g>
		<g>
			<rect x="224.2" y="343.2" fill="none" width="56.1" height="49"/>
			<path fill="#010101" d="M273.2,368.9l-20.9,19.6l-20.9-19.6c-4.9-5.2-4.6-13.4,0.6-18.3l0.5-0.4c5.2-4.9,13.4-4.6,18.3,0.6
				l1.6,1.7l1.6-1.7c4.9-5.2,13-5.5,18.3-0.6l0.5,0.4C277.8,355.6,278.1,363.7,273.2,368.9z"/>
		</g>
		<g>
			<rect x="224.2" y="392.2" fill="none" width="56.1" height="49"/>
			<path fill="#010101" d="M273.2,418l-20.9,19.6L231.3,418c-4.9-5.2-4.6-13.4,0.6-18.3l0.5-0.4c5.2-4.9,13.4-4.6,18.3,0.6l1.6,1.7
				l1.6-1.7c4.9-5.2,13-5.5,18.3-0.6l0.5,0.4C277.8,404.6,278.1,412.8,273.2,418z"/>
		</g>
		<g>
			<rect x="224.2" y="441.2" fill="none" width="56.1" height="49"/>
			<path fill="#010101" d="M273.2,467l-20.9,19.6L231.3,467c-4.9-5.2-4.6-13.4,0.6-18.3l0.5-0.4c5.2-4.9,13.4-4.6,18.3,0.6l1.6,1.7
				l1.6-1.7c4.9-5.2,13-5.5,18.3-0.6l0.5,0.4C277.8,453.6,278.1,461.8,273.2,467z"/>
		</g>
		<g>
			<rect x="224.2" y="490.2" fill="none" width="56.1" height="49"/>
			<path fill="#010101" d="M273.2,516l-20.9,19.6L231.3,516c-4.9-5.2-4.6-13.4,0.6-18.3l0.5-0.4c5.2-4.9,13.4-4.6,18.3,0.6l1.6,1.7
				l1.6-1.7c4.9-5.2,13-5.5,18.3-0.6l0.5,0.4C277.8,502.6,278.1,510.8,273.2,516z"/>
		</g>
		<g>
			<rect x="168.2" y="0" fill="none" width="56.1" height="49"/>
			<path fill="#010101" d="M217.1,25.8l-20.9,19.6l-20.9-19.6c-4.9-5.2-4.6-13.4,0.6-18.3l0.5-0.4c5.2-4.9,13.4-4.6,18.3,0.6
				l1.6,1.7l1.6-1.7c4.9-5.2,13-5.5,18.3-0.6l0.5,0.4C221.7,12.4,222,20.6,217.1,25.8z"/>
		</g>
		<g>
			<rect x="168.2" y="49" fill="none" width="56.1" height="49"/>
			<path fill="#010101" d="M217.1,74.8l-20.9,19.6l-20.9-19.6c-4.9-5.2-4.6-13.4,0.6-18.3l0.5-0.4c5.2-4.9,13.4-4.6,18.3,0.6
				l1.6,1.7l1.6-1.7c4.9-5.2,13-5.5,18.3-0.6l0.5,0.4C221.7,61.4,222,69.6,217.1,74.8z"/>
		</g>
		<g>
			<rect x="168.2" y="98" fill="none" width="56.1" height="49"/>
			<path fill="#010101" d="M217.1,123.8l-20.9,19.6l-20.9-19.6c-4.9-5.2-4.6-13.4,0.6-18.3l0.5-0.4c5.2-4.9,13.4-4.6,18.3,0.6
				l1.6,1.7l1.6-1.7c4.9-5.2,13-5.5,18.3-0.6l0.5,0.4C221.7,110.4,222,118.6,217.1,123.8z"/>
		</g>
		<g>
			<rect x="168.2" y="147.1" fill="none" width="56.1" height="49"/>
			<path fill="#010101" d="M217.1,172.9l-20.9,19.6l-20.9-19.6c-4.9-5.2-4.6-13.4,0.6-18.3l0.5-0.4c5.2-4.9,13.4-4.6,18.3,0.6
				l1.6,1.7l1.6-1.7c4.9-5.2,13-5.5,18.3-0.6l0.5,0.4C221.7,159.5,222,167.6,217.1,172.9z"/>
		</g>
		<g>
			<rect x="168.2" y="196.1" fill="none" width="56.1" height="49"/>
			<path fill="#010101" d="M217.1,221.9l-20.9,19.6l-20.9-19.6c-4.9-5.2-4.6-13.4,0.6-18.3l0.5-0.4c5.2-4.9,13.4-4.6,18.3,0.6
				l1.6,1.7l1.6-1.7c4.9-5.2,13-5.5,18.3-0.6l0.5,0.4C221.7,208.5,222,216.7,217.1,221.9z"/>
		</g>
		<g>
			<rect x="168.2" y="245.1" fill="none" width="56.1" height="49"/>
			<path fill="#010101" d="M217.1,270.9l-20.9,19.6l-20.9-19.6c-4.9-5.2-4.6-13.4,0.6-18.3l0.5-0.4c5.2-4.9,13.4-4.6,18.3,0.6
				l1.6,1.7l1.6-1.7c4.9-5.2,13-5.5,18.3-0.6l0.5,0.4C221.7,257.5,222,265.7,217.1,270.9z"/>
		</g>
		<g>
			<rect x="168.2" y="294.1" fill="none" width="56.1" height="49"/>
			<path fill="#010101" d="M217.1,319.9l-20.9,19.6l-20.9-19.6c-4.9-5.2-4.6-13.4,0.6-18.3l0.5-0.4c5.2-4.9,13.4-4.6,18.3,0.6
				l1.6,1.7l1.6-1.7c4.9-5.2,13-5.5,18.3-0.6l0.5,0.4C221.7,306.5,222,314.7,217.1,319.9z"/>
		</g>
		<g>
			<rect x="168.2" y="343.2" fill="none" width="56.1" height="49"/>
			<path fill="#010101" d="M217.1,368.9l-20.9,19.6l-20.9-19.6c-4.9-5.2-4.6-13.4,0.6-18.3l0.5-0.4c5.2-4.9,13.4-4.6,18.3,0.6
				l1.6,1.7l1.6-1.7c4.9-5.2,13-5.5,18.3-0.6l0.5,0.4C221.7,355.6,222,363.7,217.1,368.9z"/>
		</g>
		<g>
			<rect x="168.2" y="392.2" fill="none" width="56.1" height="49"/>
			<path fill="#010101" d="M217.1,418l-20.9,19.6L175.3,418c-4.9-5.2-4.6-13.4,0.6-18.3l0.5-0.4c5.2-4.9,13.4-4.6,18.3,0.6l1.6,1.7
				l1.6-1.7c4.9-5.2,13-5.5,18.3-0.6l0.5,0.4C221.7,404.6,222,412.8,217.1,418z"/>
		</g>
		<g>
			<rect x="168.2" y="441.2" fill="none" width="56.1" height="49"/>
			<path fill="#010101" d="M217.1,467l-20.9,19.6L175.3,467c-4.9-5.2-4.6-13.4,0.6-18.3l0.5-0.4c5.2-4.9,13.4-4.6,18.3,0.6l1.6,1.7
				l1.6-1.7c4.9-5.2,13-5.5,18.3-0.6l0.5,0.4C221.7,453.6,222,461.8,217.1,467z"/>
		</g>
		<g>
			<rect x="168.2" y="490.2" fill="none" width="56.1" height="49"/>
			<path fill="#010101" d="M217.1,516l-20.9,19.6L175.3,516c-4.9-5.2-4.6-13.4,0.6-18.3l0.5-0.4c5.2-4.9,13.4-4.6,18.3,0.6l1.6,1.7
				l1.6-1.7c4.9-5.2,13-5.5,18.3-0.6l0.5,0.4C221.7,502.6,222,510.8,217.1,516z"/>
		</g>
		<g>
			<rect x="112.1" y="0" fill="none" width="56.1" height="49"/>
			<path fill="#010101" d="M161.1,25.8l-20.9,19.6l-20.9-19.6c-4.9-5.2-4.6-13.4,0.6-18.3l0.5-0.4c5.2-4.9,13.4-4.6,18.3,0.6
				l1.6,1.7l1.6-1.7c4.9-5.2,13-5.5,18.3-0.6l0.5,0.4C165.7,12.4,166,20.6,161.1,25.8z"/>
		</g>
		<g>
			<rect x="112.1" y="49" fill="none" width="56.1" height="49"/>
			<path fill="#010101" d="M161.1,74.8l-20.9,19.6l-20.9-19.6c-4.9-5.2-4.6-13.4,0.6-18.3l0.5-0.4c5.2-4.9,13.4-4.6,18.3,0.6
				l1.6,1.7l1.6-1.7c4.9-5.2,13-5.5,18.3-0.6l0.5,0.4C165.7,61.4,166,69.6,161.1,74.8z"/>
		</g>
		<g>
			<rect x="112.1" y="98" fill="none" width="56.1" height="49"/>
			<path fill="#010101" d="M161.1,123.8l-20.9,19.6l-20.9-19.6c-4.9-5.2-4.6-13.4,0.6-18.3l0.5-0.4c5.2-4.9,13.4-4.6,18.3,0.6
				l1.6,1.7l1.6-1.7c4.9-5.2,13-5.5,18.3-0.6l0.5,0.4C165.7,110.4,166,118.6,161.1,123.8z"/>
		</g>
		<g>
			<rect x="112.1" y="147.1" fill="none" width="56.1" height="49"/>
			<path fill="#010101" d="M161.1,172.9l-20.9,19.6l-20.9-19.6c-4.9-5.2-4.6-13.4,0.6-18.3l0.5-0.4c5.2-4.9,13.4-4.6,18.3,0.6
				l1.6,1.7l1.6-1.7c4.9-5.2,13-5.5,18.3-0.6l0.5,0.4C165.7,159.5,166,167.6,161.1,172.9z"/>
		</g>
		<g>
			<rect x="112.1" y="196.1" fill="none" width="56.1" height="49"/>
			<path fill="#010101" d="M161.1,221.9l-20.9,19.6l-20.9-19.6c-4.9-5.2-4.6-13.4,0.6-18.3l0.5-0.4c5.2-4.9,13.4-4.6,18.3,0.6
				l1.6,1.7l1.6-1.7c4.9-5.2,13-5.5,18.3-0.6l0.5,0.4C165.7,208.5,166,216.7,161.1,221.9z"/>
		</g>
		<g>
			<rect x="112.1" y="245.1" fill="none" width="56.1" height="49"/>
			<path fill="#010101" d="M161.1,270.9l-20.9,19.6l-20.9-19.6c-4.9-5.2-4.6-13.4,0.6-18.3l0.5-0.4c5.2-4.9,13.4-4.6,18.3,0.6
				l1.6,1.7l1.6-1.7c4.9-5.2,13-5.5,18.3-0.6l0.5,0.4C165.7,257.5,166,265.7,161.1,270.9z"/>
		</g>
		<g>
			<rect x="112.1" y="294.1" fill="none" width="56.1" height="49"/>
			<path fill="#010101" d="M161.1,319.9l-20.9,19.6l-20.9-19.6c-4.9-5.2-4.6-13.4,0.6-18.3l0.5-0.4c5.2-4.9,13.4-4.6,18.3,0.6
				l1.6,1.7l1.6-1.7c4.9-5.2,13-5.5,18.3-0.6l0.5,0.4C165.7,306.5,166,314.7,161.1,319.9z"/>
		</g>
		<g>
			<rect x="112.1" y="343.2" fill="none" width="56.1" height="49"/>
			<path fill="#010101" d="M161.1,368.9l-20.9,19.6l-20.9-19.6c-4.9-5.2-4.6-13.4,0.6-18.3l0.5-0.4c5.2-4.9,13.4-4.6,18.3,0.6
				l1.6,1.7l1.6-1.7c4.9-5.2,13-5.5,18.3-0.6l0.5,0.4C165.7,355.6,166,363.7,161.1,368.9z"/>
		</g>
		<g>
			<rect x="112.1" y="392.2" fill="none" width="56.1" height="49"/>
			<path fill="#010101" d="M161.1,418l-20.9,19.6L119.2,418c-4.9-5.2-4.6-13.4,0.6-18.3l0.5-0.4c5.2-4.9,13.4-4.6,18.3,0.6l1.6,1.7
				l1.6-1.7c4.9-5.2,13-5.5,18.3-0.6l0.5,0.4C165.7,404.6,166,412.8,161.1,418z"/>
		</g>
		<g>
			<rect x="112.1" y="441.2" fill="none" width="56.1" height="49"/>
			<path fill="#010101" d="M161.1,467l-20.9,19.6L119.2,467c-4.9-5.2-4.6-13.4,0.6-18.3l0.5-0.4c5.2-4.9,13.4-4.6,18.3,0.6l1.6,1.7
				l1.6-1.7c4.9-5.2,13-5.5,18.3-0.6l0.5,0.4C165.7,453.6,166,461.8,161.1,467z"/>
		</g>
		<g>
			<rect x="112.1" y="490.2" fill="none" width="56.1" height="49"/>
			<path fill="#010101" d="M161.1,516l-20.9,19.6L119.2,516c-4.9-5.2-4.6-13.4,0.6-18.3l0.5-0.4c5.2-4.9,13.4-4.6,18.3,0.6l1.6,1.7
				l1.6-1.7c4.9-5.2,13-5.5,18.3-0.6l0.5,0.4C165.7,502.6,166,510.8,161.1,516z"/>
		</g>
		<g>
			<rect x="56.1" y="0" fill="none" width="56.1" height="49"/>
			<path fill="#010101" d="M105,25.8L84.1,45.4L63.1,25.8c-4.9-5.2-4.6-13.4,0.6-18.3l0.5-0.4c5.2-4.9,13.4-4.6,18.3,0.6l1.6,1.7
				l1.6-1.7c4.9-5.2,13-5.5,18.3-0.6l0.5,0.4C109.6,12.4,109.9,20.6,105,25.8z"/>
		</g>
		<g>
			<rect x="56.1" y="49" fill="none" width="56.1" height="49"/>
			<path fill="#010101" d="M105,74.8L84.1,94.4L63.1,74.8c-4.9-5.2-4.6-13.4,0.6-18.3l0.5-0.4c5.2-4.9,13.4-4.6,18.3,0.6l1.6,1.7
				l1.6-1.7c4.9-5.2,13-5.5,18.3-0.6l0.5,0.4C109.6,61.4,109.9,69.6,105,74.8z"/>
		</g>
		<g>
			<rect x="56.1" y="98" fill="none" width="56.1" height="49"/>
			<path fill="#010101" d="M105,123.8l-20.9,19.6l-20.9-19.6c-4.9-5.2-4.6-13.4,0.6-18.3l0.5-0.4c5.2-4.9,13.4-4.6,18.3,0.6l1.6,1.7
				l1.6-1.7c4.9-5.2,13-5.5,18.3-0.6l0.5,0.4C109.6,110.4,109.9,118.6,105,123.8z"/>
		</g>
		<g>
			<rect x="56.1" y="147.1" fill="none" width="56.1" height="49"/>
			<path fill="#010101" d="M105,172.9l-20.9,19.6l-20.9-19.6c-4.9-5.2-4.6-13.4,0.6-18.3l0.5-0.4c5.2-4.9,13.4-4.6,18.3,0.6l1.6,1.7
				l1.6-1.7c4.9-5.2,13-5.5,18.3-0.6l0.5,0.4C109.6,159.5,109.9,167.6,105,172.9z"/>
		</g>
		<g>
			<rect x="56.1" y="196.1" fill="none" width="56.1" height="49"/>
			<path fill="#010101" d="M105,221.9l-20.9,19.6l-20.9-19.6c-4.9-5.2-4.6-13.4,0.6-18.3l0.5-0.4c5.2-4.9,13.4-4.6,18.3,0.6l1.6,1.7
				l1.6-1.7c4.9-5.2,13-5.5,18.3-0.6l0.5,0.4C109.6,208.5,109.9,216.7,105,221.9z"/>
		</g>
		<g>
			<rect x="56.1" y="245.1" fill="none" width="56.1" height="49"/>
			<path fill="#010101" d="M105,270.9l-20.9,19.6l-20.9-19.6c-4.9-5.2-4.6-13.4,0.6-18.3l0.5-0.4c5.2-4.9,13.4-4.6,18.3,0.6l1.6,1.7
				l1.6-1.7c4.9-5.2,13-5.5,18.3-0.6l0.5,0.4C109.6,257.5,109.9,265.7,105,270.9z"/>
		</g>
		<g>
			<rect x="56.1" y="294.1" fill="none" width="56.1" height="49"/>
			<path fill="#010101" d="M105,319.9l-20.9,19.6l-20.9-19.6c-4.9-5.2-4.6-13.4,0.6-18.3l0.5-0.4c5.2-4.9,13.4-4.6,18.3,0.6l1.6,1.7
				l1.6-1.7c4.9-5.2,13-5.5,18.3-0.6l0.5,0.4C109.6,306.5,109.9,314.7,105,319.9z"/>
		</g>
		<g>
			<rect x="56.1" y="343.2" fill="none" width="56.1" height="49"/>
			<path fill="#010101" d="M105,368.9l-20.9,19.6l-20.9-19.6c-4.9-5.2-4.6-13.4,0.6-18.3l0.5-0.4c5.2-4.9,13.4-4.6,18.3,0.6l1.6,1.7
				l1.6-1.7c4.9-5.2,13-5.5,18.3-0.6l0.5,0.4C109.6,355.6,109.9,363.7,105,368.9z"/>
		</g>
		<g>
			<rect x="56.1" y="392.2" fill="none" width="56.1" height="49"/>
			<path fill="#010101" d="M105,418l-20.9,19.6L63.1,418c-4.9-5.2-4.6-13.4,0.6-18.3l0.5-0.4c5.2-4.9,13.4-4.6,18.3,0.6l1.6,1.7
				l1.6-1.7c4.9-5.2,13-5.5,18.3-0.6l0.5,0.4C109.6,404.6,109.9,412.8,105,418z"/>
		</g>
		<g>
			<rect x="56.1" y="441.2" fill="none" width="56.1" height="49"/>
			<path fill="#010101" d="M105,467l-20.9,19.6L63.1,467c-4.9-5.2-4.6-13.4,0.6-18.3l0.5-0.4c5.2-4.9,13.4-4.6,18.3,0.6l1.6,1.7
				l1.6-1.7c4.9-5.2,13-5.5,18.3-0.6l0.5,0.4C109.6,453.6,109.9,461.8,105,467z"/>
		</g>
		<g>
			<rect x="56.1" y="490.2" fill="none" width="56.1" height="49"/>
			<path fill="#010101" d="M105,516l-20.9,19.6L63.1,516c-4.9-5.2-4.6-13.4,0.6-18.3l0.5-0.4c5.2-4.9,13.4-4.6,18.3,0.6l1.6,1.7
				l1.6-1.7c4.9-5.2,13-5.5,18.3-0.6l0.5,0.4C109.6,502.6,109.9,510.8,105,516z"/>
		</g>
		<g>
			<rect y="0" fill="none" width="56.1" height="49"/>
			<path fill="#010101" d="M49,25.8L28,45.4L7.1,25.8C2.2,20.6,2.5,12.4,7.7,7.5l0.5-0.4c5.2-4.9,13.4-4.6,18.3,0.6L28,9.4l1.6-1.7
				c4.9-5.2,13-5.5,18.3-0.6l0.5,0.4C53.6,12.4,53.8,20.6,49,25.8z"/>
		</g>
		<g>
			<rect y="49" fill="none" width="56.1" height="49"/>
			<path fill="#010101" d="M49,74.8L28,94.4L7.1,74.8c-4.9-5.2-4.6-13.4,0.6-18.3l0.5-0.4c5.2-4.9,13.4-4.6,18.3,0.6l1.6,1.7
				l1.6-1.7c4.9-5.2,13-5.5,18.3-0.6l0.5,0.4C53.6,61.4,53.8,69.6,49,74.8z"/>
		</g>
		<g>
			<rect y="98" fill="none" width="56.1" height="49"/>
			<path fill="#010101" d="M49,123.8L28,143.5L7.1,123.8c-4.9-5.2-4.6-13.4,0.6-18.3l0.5-0.4c5.2-4.9,13.4-4.6,18.3,0.6l1.6,1.7
				l1.6-1.7c4.9-5.2,13-5.5,18.3-0.6l0.5,0.4C53.6,110.4,53.8,118.6,49,123.8z"/>
		</g>
		<g>
			<rect y="147.1" fill="none" width="56.1" height="49"/>
			<path fill="#010101" d="M49,172.9L28,192.5L7.1,172.9c-4.9-5.2-4.6-13.4,0.6-18.3l0.5-0.4c5.2-4.9,13.4-4.6,18.3,0.6l1.6,1.7
				l1.6-1.7c4.9-5.2,13-5.5,18.3-0.6l0.5,0.4C53.6,159.5,53.8,167.6,49,172.9z"/>
		</g>
		<g>
			<rect y="196.1" fill="none" width="56.1" height="49"/>
			<path fill="#010101" d="M49,221.9L28,241.5L7.1,221.9c-4.9-5.2-4.6-13.4,0.6-18.3l0.5-0.4c5.2-4.9,13.4-4.6,18.3,0.6l1.6,1.7
				l1.6-1.7c4.9-5.2,13-5.5,18.3-0.6l0.5,0.4C53.6,208.5,53.8,216.7,49,221.9z"/>
		</g>
		<g>
			<rect y="245.1" fill="none" width="56.1" height="49"/>
			<path fill="#010101" d="M49,270.9L28,290.5L7.1,270.9c-4.9-5.2-4.6-13.4,0.6-18.3l0.5-0.4c5.2-4.9,13.4-4.6,18.3,0.6l1.6,1.7
				l1.6-1.7c4.9-5.2,13-5.5,18.3-0.6l0.5,0.4C53.6,257.5,53.8,265.7,49,270.9z"/>
		</g>
		<g>
			<rect y="294.1" fill="none" width="56.1" height="49"/>
			<path fill="#010101" d="M49,319.9L28,339.6L7.1,319.9c-4.9-5.2-4.6-13.4,0.6-18.3l0.5-0.4c5.2-4.9,13.4-4.6,18.3,0.6l1.6,1.7
				l1.6-1.7c4.9-5.2,13-5.5,18.3-0.6l0.5,0.4C53.6,306.5,53.8,314.7,49,319.9z"/>
		</g>
		<g>
			<rect y="343.2" fill="none" width="56.1" height="49"/>
			<path fill="#010101" d="M49,368.9L28,388.6L7.1,368.9c-4.9-5.2-4.6-13.4,0.6-18.3l0.5-0.4c5.2-4.9,13.4-4.6,18.3,0.6l1.6,1.7
				l1.6-1.7c4.9-5.2,13-5.5,18.3-0.6l0.5,0.4C53.6,355.6,53.8,363.7,49,368.9z"/>
		</g>
		<g>
			<rect y="392.2" fill="none" width="56.1" height="49"/>
			<path fill="#010101" d="M49,418L28,437.6L7.1,418c-4.9-5.2-4.6-13.4,0.6-18.3l0.5-0.4c5.2-4.9,13.4-4.6,18.3,0.6l1.6,1.7l1.6-1.7
				c4.9-5.2,13-5.5,18.3-0.6l0.5,0.4C53.6,404.6,53.8,412.8,49,418z"/>
		</g>
		<g>
			<rect y="441.2" fill="none" width="56.1" height="49"/>
			<path fill="#010101" d="M49,467L28,486.6L7.1,467c-4.9-5.2-4.6-13.4,0.6-18.3l0.5-0.4c5.2-4.9,13.4-4.6,18.3,0.6l1.6,1.7l1.6-1.7
				c4.9-5.2,13-5.5,18.3-0.6l0.5,0.4C53.6,453.6,53.8,461.8,49,467z"/>
		</g>
		<g>
			<rect y="490.2" fill="none" width="56.1" height="49"/>
			<path fill="#010101" d="M49,516L28,535.7L7.1,516c-4.9-5.2-4.6-13.4,0.6-18.3l0.5-0.4c5.2-4.9,13.4-4.6,18.3,0.6l1.6,1.7l1.6-1.7
				c4.9-5.2,13-5.5,18.3-0.6l0.5,0.4C53.6,502.6,53.8,510.8,49,516z"/>
		</g>
	</g>
</g>
</svg>
