<?xml version="1.0" encoding="utf-8"?>
<!-- Generator: Adobe Illustrator 18.0.0, SVG Export Plug-In . SVG Version: 6.00 Build 0)  -->
<!DOCTYPE svg PUBLIC "-//W3C//DTD SVG 1.1//EN" "http://www.w3.org/Graphics/SVG/1.1/DTD/svg11.dtd">
<svg version="1.1" id="Layer_1" xmlns="http://www.w3.org/2000/svg" xmlns:xlink="http://www.w3.org/1999/xlink" x="0px" y="0px"
	 width="124px" height="127.1px" viewBox="0 0 124 127.1" enable-background="new 0 0 124 127.1" xml:space="preserve">
<g opacity="0.8">
	<path fill="none" d="M20.9,22.8c0,0-0.1-0.1-0.1-0.1l2.8-3c0.4,0.3,0.9,0.4,1.3,0.2l2.6,3.2c-0.3,0.4-0.4,0.9-0.2,1.3
		c0.3,0.7,1,1,1.7,0.7c0.7-0.3,1-1,0.7-1.7c-0.3-0.7-1-1-1.7-0.7c0,0-0.1,0-0.1,0.1l-2.6-3.2c0,0,0.1-0.1,0.1-0.1
		c0.2-0.3,0.3-0.6,0.3-0.9l4.1-1c0,0,0,0.1,0.1,0.1c0.3,0.6,1.1,0.8,1.7,0.4c0.6-0.3,0.8-1.1,0.5-1.7c-0.4-0.6-1.1-0.8-1.7-0.5
		c-0.4,0.2-0.6,0.7-0.6,1.2l-4.1,1c-0.1-0.2-0.2-0.3-0.3-0.5c-0.2-0.2-0.5-0.3-0.8-0.3l0.4-4c0.5,0,0.9-0.3,1.1-0.8
		c0.3-0.7-0.1-1.4-0.7-1.7c-0.7-0.3-1.4,0.1-1.7,0.7c-0.3,0.7,0.1,1.4,0.7,1.7c0,0,0.1,0,0.2,0l-0.4,4c-0.2,0.1-0.4,0.2-0.6,0.4
		c0,0,0,0.1-0.1,0.1l-3.7-1.7c0.1-0.5,0-1.1-0.5-1.5c-0.6-0.5-1.5-0.5-2.1,0.2c-0.5,0.6-0.5,1.5,0.2,2.1c0.6,0.5,1.5,0.5,2.1-0.1
		c0-0.1,0.1-0.1,0.1-0.2l3.7,1.7c-0.1,0.3-0.1,0.7,0.1,1l-2.9,3.1c-0.4-0.3-1-0.3-1.4,0c-0.6,0.4-0.9,1.2-0.5,1.8
		c0.4,0.6,1.2,0.9,1.8,0.5C21.1,24.2,21.3,23.4,20.9,22.8z"/>
	<path fill="none" d="M45,80.4c-0.4-0.4-1.1-0.4-1.5,0c0,0-0.1,0.1-0.1,0.1l-3-1.5c0,0,0-0.1,0-0.1c0.1-0.3,0.1-0.5-0.1-0.8l2.7-2.1
		c0,0,0.1,0.1,0.1,0.1c0.5,0.3,1.1,0.2,1.4-0.2c0.3-0.5,0.2-1.1-0.2-1.4c-0.5-0.3-1.1-0.2-1.4,0.2c-0.2,0.3-0.2,0.7-0.1,1.1
		l-2.7,2.1c-0.1-0.1-0.2-0.2-0.4-0.2c-0.2-0.1-0.5-0.1-0.7,0l-1-3.1c0.3-0.2,0.6-0.5,0.6-1c0-0.6-0.5-1.1-1.1-1c-0.6,0-1,0.5-1,1.1
		c0,0.6,0.5,1,1.1,1c0,0,0.1,0,0.1,0l1,3.1c-0.1,0.1-0.3,0.3-0.3,0.5c0,0,0,0.1,0,0.1l-3.3,0c-0.1-0.4-0.4-0.8-0.8-1
		c-0.6-0.2-1.3,0.2-1.5,0.8c-0.2,0.6,0.2,1.3,0.8,1.5c0.6,0.2,1.3-0.2,1.5-0.8c0-0.1,0-0.1,0-0.2l3.3,0c0,0.3,0.2,0.5,0.4,0.7
		l-1.1,3.2c-0.4-0.1-0.8,0.1-1.1,0.4c-0.4,0.5-0.2,1.2,0.2,1.5c0.5,0.4,1.2,0.2,1.5-0.2c0.4-0.5,0.2-1.2-0.2-1.5c0,0-0.1,0-0.1-0.1
		l1.1-3.2c0.4,0.1,0.8,0,1-0.3l3,1.5c-0.1,0.4,0,0.8,0.3,1.1c0.4,0.4,1.1,0.4,1.5,0C45.4,81.5,45.4,80.8,45,80.4z"/>
	<path fill="none" d="M108.8,88.7c-0.4-0.3-0.9-0.4-1.3-0.3l-2.3-3.8c0.2-0.1,0.3-0.3,0.4-0.5c0.1-0.3,0.1-0.6,0.1-0.9l4.1-0.9
		c0.2,0.5,0.6,0.8,1.2,0.9c0.8,0.1,1.4-0.5,1.5-1.3c0.1-0.8-0.5-1.4-1.3-1.5c-0.8-0.1-1.4,0.5-1.5,1.3c0,0.1,0,0.1,0,0.2l-4.2,0.9
		c-0.1-0.2-0.3-0.4-0.6-0.5c0,0-0.1,0-0.1,0l0.5-4.3c0.6,0,1.1-0.4,1.4-0.9c0.3-0.8,0-1.7-0.8-2c-0.8-0.3-1.7,0-2,0.8
		c-0.3,0.8,0,1.7,0.8,2c0.1,0,0.1,0,0.2,0.1l-0.5,4.2c-0.4,0-0.7,0.2-1,0.4l-4-1.9c0.1-0.5,0-1-0.4-1.4c-0.6-0.5-1.5-0.5-2,0.1
		c-0.5,0.6-0.5,1.5,0.1,2c0.6,0.5,1.5,0.5,2-0.1c0,0,0.1-0.1,0.1-0.1l3.9,1.9c-0.2,0.5-0.1,1,0.2,1.4l-2.4,3.6
		c-0.5-0.2-1-0.1-1.4,0.2c-0.6,0.5-0.6,1.3-0.2,1.9c0.5,0.6,1.3,0.6,1.9,0.2c0.6-0.5,0.6-1.3,0.2-1.9c0,0-0.1-0.1-0.1-0.1l2.4-3.6
		c0,0,0.1,0.1,0.1,0.1c0.3,0.1,0.7,0.1,1,0l2.3,3.8c0,0-0.1,0.1-0.1,0.1c-0.5,0.5-0.4,1.4,0.1,1.9c0.5,0.5,1.4,0.4,1.9-0.1
		C109.4,90,109.4,89.2,108.8,88.7z"/>
	<path fill="#B8C1A1" d="M117.6,98.7c0.3-3,0.2-5.9-2.5-9.8c-0.4-0.6-1-1.1-1.6-1.6c0.6,0.1,1.2,0.1,1.9,0.1c6.4-0.2,8.5-6,8.5-6
		l-3.2-1.6c0,0,0.9-2,1.7-3.6c-2.8-1.1-5.6-1.9-10.1-0.4c-0.5,0.2-1,0.4-1.5,0.7c0.2-0.5,0.4-1,0.5-1.6c1.4-6.2-2.2-10.2-2.2-10.2
		l-2.8,2.3c0,0-1.5-1.6-2.7-3c-2.1,2.1-3.9,4.4-4.3,9.1c-0.1,0.6,0,1.3,0.1,1.9c-0.4-0.4-0.9-0.7-1.4-1c-5.5-3.2-10.4-0.9-10.4-0.9
		l1.4,3.3c0,0-1.9,0.9-3.6,1.7c1.2,2.2,2.6,4.3,5.7,5.9c-3.4,0-6.9,0.3-10.3,0.8c-1.8,0.3-3.5,0.7-5.2,1.2c1.8-1.1,4.2-3,5-5.8
		c1.4-4.6-2.1-9.8-2.1-9.8s-5.8,2.3-7.2,6.9c-1.2,3.9,1.1,8.1,1.8,9.4c-1.6,0.5-3.2,1.1-4.8,1.8c-8.4,3.6-16.8,7.7-24.6,12.6
		c0.1-4.5,0.5-9.1,1.1-13.5c2.7,1.3,5.3,0.9,5.3,0.9L49.7,86c0,0,1.9-0.4,3.3-0.6c-0.5-2.3-1.7-4.3-4.6-6.5c-0.5-0.4-1-0.6-1.6-0.8
		c0,0,0-0.1,0-0.1c0.6-0.2,1.1-0.4,1.6-0.8c4.1-2.7,4.3-6.8,4.3-6.8l-2.8-0.2c0,0,0-1.7,0.1-3.1c0,0,0,0-0.1,0
		c1.2-3.4,2.6-6.8,4.1-10.1c0.7,0.6,4.6,4.1,8.8,3.6c4.6-0.5,7.8-5.6,7.8-5.6s-4.2-4.2-8.9-3.7c-3.6,0.4-6.4,3.6-7.4,5
		c0.1-0.2,0.2-0.5,0.3-0.7c1.1-2.3,2.3-4.5,3.8-6.5c0,0,0,0,0,0s0.2-0.3,0.5-0.7c1.4-1.8,3-3.6,4.8-5.1c0.2-0.2-0.1-0.6-0.4-0.4
		c-1.2,1-2.3,2.1-3.3,3.3c0.8-1.8,1.4-4.1,0.8-6.4c-1.1-4.5-6.6-7-6.6-7s-3.6,4.8-2.5,9.3c0.9,3.7,4.7,6,6.1,6.7
		c-1.4,1.9-2.6,4-3.7,6.2c-1.9,3.9-3.5,8-4.9,12.1c-2.1,0.1-4.2,0.5-6.7,2.7c-0.4,0.4-0.8,0.8-1.1,1.3c0-0.5,0-1-0.1-1.5
		c-0.7-4.9-5.3-6-5.3-6l-1,2.6c0,0-1.6-0.5-2.9-1c-0.6,2.2-1,4.5,0.5,7.8c0.2,0.4,0.4,0.8,0.7,1.1c-0.4-0.1-0.8-0.2-1.3-0.3
		c-4.9-0.6-7.6,2.5-7.6,2.5l2,1.9c0,0-1.1,1.2-2.1,2.3c1.8,1.5,3.7,2.7,7.4,2.6c0.5,0,1-0.1,1.4-0.3c-0.2,0.3-0.5,0.7-0.6,1.1
		c-2,4.5,0.2,8,0.2,8l2.4-1.4c0,0,0.9,1.4,1.6,2.6c1.9-1.3,3.6-2.8,4.6-6.3c0.2-0.6,0.2-1.3,0.2-1.9c0.2,0.2,0.4,0.5,0.6,0.7
		c0.7,0.7,1.5,1.3,2.3,1.7c-0.6,4.7-1,9.4-1.1,14.1c-3.8,2.5-7.5,5.1-11,8.1c-3.1,2.6-6,5.6-8.9,8.4c-2.6,2.5-5.2,5.2-6.9,8.5
		c-0.1,0.3,0.3,0.5,0.4,0.2c1.5-3,3.9-5.5,6.3-7.8c2.1-2.1,4.3-4.2,6.5-6.3c0.4,0.8,3.2,6.5,8.2,7.8c5.3,1.4,11-2.8,11-2.8
		s-2.9-6.5-8.2-7.9c-4.4-1.2-9.1,1.5-10.6,2.5c0.2-0.2,0.3-0.3,0.5-0.5c5.7-5.2,12.1-9.5,18.7-13.2c4.4-2.5,9-4.7,13.6-6.9
		c0.2,1.2,1.2,5.1,4.1,6.8c3.4,2.1,8.3,0.2,8.3,0.2s-0.7-5.1-4.2-7.2c-2.1-1.2-4.7-1.1-6.4-0.7c1.1-0.5,2.1-1,3.2-1.4
		c4.1-1.8,8.3-3.2,12.6-4c3.9-0.7,7.8-0.9,11.7-0.9c0.3,0.1,0.5,0.2,0.8,0.3c0.8,0.3,1.6,0.4,2.4,0.5c-0.3,0.2-0.6,0.4-1,0.7
		c-5,3.9-4.8,10-4.8,10l3.7-0.4c0,0,0.2,2.5,0.3,4.4c3-0.3,5.8-1.6,9-5c0.6-0.6,1-1.3,1.2-2.1c0.2,0.8,0.4,1.6,0.8,2.3
		c2.9,5.7,8.2,6.4,8.2,6.4l0.6-3.6C113.7,98.1,115.8,98.4,117.6,98.7z M43.5,81.9c-0.3-0.3-0.4-0.7-0.3-1.1l-3-1.5
		c-0.3,0.3-0.7,0.4-1,0.3l-1.1,3.2c0,0,0.1,0,0.1,0.1c0.5,0.4,0.6,1,0.2,1.5c-0.4,0.5-1,0.6-1.5,0.2c-0.5-0.4-0.6-1-0.2-1.5
		c0.3-0.3,0.7-0.5,1.1-0.4l1.1-3.2c-0.2-0.2-0.4-0.4-0.4-0.7l-3.3,0c0,0.1,0,0.1,0,0.2c-0.2,0.6-0.9,1-1.5,0.8
		c-0.6-0.2-1-0.9-0.8-1.5c0.2-0.6,0.9-1,1.5-0.8c0.5,0.1,0.8,0.5,0.8,1l3.3,0c0,0,0-0.1,0-0.1c0.1-0.2,0.2-0.4,0.3-0.5l-1-3.1
		c0,0-0.1,0-0.1,0c-0.6,0-1.1-0.4-1.1-1c0-0.6,0.4-1.1,1-1.1c0.6,0,1.1,0.4,1.1,1c0,0.4-0.2,0.8-0.6,1l1,3.1c0.2-0.1,0.4-0.1,0.7,0
		c0.2,0,0.3,0.1,0.4,0.2l2.7-2.1c-0.2-0.3-0.2-0.7,0.1-1.1c0.3-0.5,1-0.6,1.4-0.2c0.5,0.3,0.6,1,0.2,1.4c-0.3,0.5-1,0.6-1.4,0.2
		c0,0-0.1-0.1-0.1-0.1l-2.7,2.1c0.1,0.2,0.1,0.5,0.1,0.8c0,0,0,0.1,0,0.1l3,1.5c0,0,0-0.1,0.1-0.1c0.4-0.4,1.1-0.4,1.5,0
		c0.4,0.4,0.4,1.1,0,1.5C44.6,82.3,43.9,82.3,43.5,81.9z M107.1,90.7c-0.5-0.5-0.6-1.3-0.1-1.9c0,0,0.1-0.1,0.1-0.1l-2.3-3.8
		c-0.3,0.1-0.7,0.1-1,0c-0.1,0-0.1-0.1-0.1-0.1l-2.4,3.6c0,0,0.1,0.1,0.1,0.1c0.5,0.6,0.4,1.4-0.2,1.9c-0.6,0.5-1.4,0.4-1.9-0.2
		c-0.5-0.6-0.4-1.4,0.2-1.9c0.4-0.3,0.9-0.4,1.4-0.2l2.4-3.6c-0.3-0.4-0.4-0.9-0.2-1.4l-3.9-1.9c0,0-0.1,0.1-0.1,0.1
		c-0.5,0.6-1.4,0.6-2,0.1c-0.6-0.5-0.6-1.4-0.1-2c0.5-0.6,1.4-0.6,2-0.1c0.4,0.4,0.5,0.9,0.4,1.4l4,1.9c0.2-0.3,0.6-0.4,1-0.4
		l0.5-4.2c-0.1,0-0.1,0-0.2-0.1c-0.8-0.3-1.1-1.2-0.8-2c0.3-0.8,1.2-1.1,2-0.8c0.8,0.3,1.1,1.2,0.8,2c-0.2,0.6-0.8,0.9-1.4,0.9
		l-0.5,4.3c0,0,0.1,0,0.1,0c0.2,0.1,0.4,0.3,0.6,0.5l4.2-0.9c0-0.1,0-0.1,0-0.2c0.1-0.8,0.7-1.3,1.5-1.3c0.8,0.1,1.3,0.7,1.3,1.5
		c-0.1,0.8-0.7,1.3-1.5,1.3c-0.5,0-1-0.4-1.2-0.9l-4.1,0.9c0.1,0.3,0.1,0.6-0.1,0.9c-0.1,0.2-0.2,0.4-0.4,0.5l2.3,3.8
		c0.4-0.2,1-0.1,1.3,0.3c0.5,0.5,0.6,1.3,0.1,1.9C108.4,91.1,107.6,91.1,107.1,90.7z"/>
	<path fill="#B8C1A1" d="M13.3,86c-2.1,0.2-3.9,1.4-5.3,2.6c5.7-8.9,10.4-18.6,14.2-28.4c1.9-5.1,3.3-10.5,4.1-15.9
		c0.6-4.1,0.8-8.4-0.1-12.5c2.5,2.8,5.5,3.6,5.5,3.6l0.7-3.5c0,0,2.3,0.5,4.1,1c0.6-2.8,0.2-5.7-2-9.7c-0.4-0.7-0.9-1.2-1.5-1.7
		c0.8,0.1,1.6,0.1,2.4-0.1c6-1,8.2-5.6,8.2-5.6l-3.1-1.6c0,0,0.9-1.9,1.6-3.5c-2.6-1.1-5.3-1.9-9.6-0.5c-0.7,0.2-1.3,0.6-1.9,1
		c0.2-0.5,0.5-1.1,0.6-1.7c1.6-5.9-3-9.5-3-9.5l-2.4,2.5c0,0-1.5-1.4-2.8-2.6c-1.8,2.2-3.3,4.5-3.2,9.1c0,0.5,0.1,1,0.2,1.6
		c-0.4-0.3-0.8-0.6-1.3-0.9c-5.3-3.1-9.9-0.9-9.9-0.9l1.3,3.2c0,0-1.8,0.9-3.5,1.6c1.3,2.5,2.9,4.8,7.1,6.6c0.6,0.2,1.1,0.4,1.7,0.4
		c-0.4,0.3-0.9,0.6-1.3,1c-4.5,4.2-3.7,9.2-3.7,9.2l3.4-0.4c0,0,0.3,2,0.5,3.8c2.8-0.5,5.5-1.4,8.3-4.9c0.5-0.6,0.9-1.3,1.1-2.1
		c0.1,0.3,0.2,0.7,0.3,1.1c0.4,1,0.9,1.9,1.4,2.7c0.7,2.7,0.9,5.5,0.8,8.3c-0.2,5.5-1.5,11-3,16.2c-0.7,2.5-1.6,4.9-2.5,7.3
		c0.5-2.2,1.1-6.7-1-10c-2.9-4.6-10-5.4-10-5.4S7.5,54,10.4,58.7c2.7,4.2,8.7,5.3,9.8,5.4c-1.6,3.9-3.5,7.8-5.3,11.5
		C12.2,81,9.1,86.3,5.7,91.3c-0.1,0.2-0.2,0.3-0.2,0.3l0,0C4.7,92.8,3.9,94,3,95.1c-1,1.3-1.9,2.6-2.9,3.8c-0.2,0.3,0.2,0.6,0.4,0.4
		c1.9-2.4,3.7-4.8,5.5-7.3c1.1,1,4.7,3.8,8.5,3.4c4.6-0.5,7.8-5.6,7.8-5.6S17.9,85.5,13.3,86z M20.4,24.6c-0.6,0.4-1.5,0.2-1.8-0.5
		c-0.4-0.6-0.2-1.5,0.5-1.8c0.5-0.3,1-0.2,1.4,0l2.9-3.1c-0.2-0.3-0.2-0.7-0.1-1l-3.7-1.7c0,0.1-0.1,0.1-0.1,0.2
		c-0.5,0.6-1.5,0.7-2.1,0.1c-0.6-0.5-0.7-1.5-0.2-2.1c0.5-0.6,1.5-0.7,2.1-0.2c0.4,0.4,0.6,1,0.5,1.5l3.7,1.7c0,0,0-0.1,0.1-0.1
		c0.2-0.2,0.4-0.3,0.6-0.4l0.4-4c-0.1,0-0.1,0-0.2,0c-0.7-0.3-1-1-0.7-1.7c0.3-0.7,1-1,1.7-0.7c0.7,0.3,1,1,0.7,1.7
		c-0.2,0.5-0.6,0.8-1.1,0.8l-0.4,4c0.3,0,0.5,0.1,0.8,0.3c0.2,0.1,0.3,0.3,0.3,0.5l4.1-1c0-0.5,0.2-0.9,0.6-1.2
		c0.6-0.3,1.4-0.1,1.7,0.5c0.3,0.6,0.1,1.4-0.5,1.7c-0.6,0.3-1.4,0.1-1.7-0.4c0,0,0-0.1-0.1-0.1l-4.1,1c0,0.3-0.1,0.7-0.3,0.9
		c0,0-0.1,0.1-0.1,0.1l2.6,3.2c0,0,0.1-0.1,0.1-0.1c0.7-0.3,1.4,0,1.7,0.7c0.3,0.7,0,1.4-0.7,1.7c-0.7,0.3-1.4,0-1.7-0.7
		c-0.2-0.5-0.1-1,0.2-1.3L25,19.8c-0.4,0.2-0.9,0.1-1.3-0.2l-2.8,3c0,0,0.1,0.1,0.1,0.1C21.3,23.4,21.1,24.2,20.4,24.6z"/>
</g>
</svg>
