<?xml version="1.0" encoding="utf-8"?>
<!-- Generator: Adobe Illustrator 18.0.0, SVG Export Plug-In . SVG Version: 6.00 Build 0)  -->
<!DOCTYPE svg PUBLIC "-//W3C//DTD SVG 1.1//EN" "http://www.w3.org/Graphics/SVG/1.1/DTD/svg11.dtd">
<svg version="1.1" id="Layer_1" xmlns="http://www.w3.org/2000/svg" xmlns:xlink="http://www.w3.org/1999/xlink" x="0px" y="0px"
	 width="217.8px" height="81.5px" viewBox="0 0 217.8 81.5" enable-background="new 0 0 217.8 81.5" xml:space="preserve">
<g opacity="0.8">
	<path fill-rule="evenodd" clip-rule="evenodd" fill="#CAD0B8" d="M184.6,49.8C80,12,20.3,51.1,0,73.3c-1.1-8.6,43.2-39.8,89.1-43
		C115.5,28.4,175.2,38.8,184.6,49.8L184.6,49.8z"/>
	<path fill-rule="evenodd" clip-rule="evenodd" fill="#CAD0B8" d="M174.3,39.7c0-6.3,4.2-17.5,28.3-17.5
		C191.9,43.8,180,42.5,174.3,39.7L174.3,39.7z M149.1,33.1c-1-6.2,1.2-18,25.1-21.9C167,34.3,155.1,35,149.1,33.1L149.1,33.1z
		 M125.7,27.1c-1.6-6.1-0.5-18,22.8-24.2C143.7,26.6,131.9,28.4,125.7,27.1L125.7,27.1z M101.1,26.6c-2.2-5.9-2.3-17.9,20.4-26.3
		C119,24.3,107.3,27.3,101.1,26.6L101.1,26.6z M75.1,28.7C72.1,23.2,70.5,11.3,91.9,0C92.5,24.2,81.3,28.6,75.1,28.7L75.1,28.7z
		 M49.8,35.3C46.5,30,44.1,18.2,64.6,5.5C66.9,29.5,56.1,34.7,49.8,35.3L49.8,35.3z M27.3,43.3c-3.9-4.9-7.7-16.3,11.2-31.4
		C43.6,35.6,33.4,42,27.3,43.3L27.3,43.3z M29.1,55c6.2-0.7,17.9,2.2,20.5,26.2C26.9,72.9,26.9,60.9,29.1,55L29.1,55z M50,46.8
		c6.2-0.7,17.9,2.2,20.5,26.2C47.9,64.7,47.9,52.7,50,46.8L50,46.8z M71.7,40.4c6.3,0.2,17.4,4.7,16.6,28.9
		C67,57.7,68.7,45.9,71.7,40.4L71.7,40.4z M94.9,37.1c6.2,0.8,16.9,6.3,13.8,30.3C88.6,54,91.4,42.3,94.9,37.1L94.9,37.1z M118.4,37
		c6.1,1.5,16,8.2,10.2,31.7C110.2,53.1,114.4,41.8,118.4,37L118.4,37z M143.5,42.5c5.9,2.2,15,10,6.4,32.7
		C133.5,57.5,138.9,46.8,143.5,42.5L143.5,42.5z M167.9,48.8c5.9,2.2,15,10,6.4,32.7C157.8,63.8,163.2,53.1,167.9,48.8L167.9,48.8z
		 M188.3,51.8c5.4-3.2,17.2-5.4,29.5,15.4C193.7,69,188.7,58.1,188.3,51.8L188.3,51.8z"/>
</g>
</svg>
