<?xml version="1.0" encoding="utf-8"?>
<!-- Generator: Adobe Illustrator 18.0.0, SVG Export Plug-In . SVG Version: 6.00 Build 0)  -->
<!DOCTYPE svg PUBLIC "-//W3C//DTD SVG 1.1//EN" "http://www.w3.org/Graphics/SVG/1.1/DTD/svg11.dtd">
<svg version="1.1" id="Layer_1" xmlns="http://www.w3.org/2000/svg" xmlns:xlink="http://www.w3.org/1999/xlink" x="0px" y="0px"
	 width="144.8px" height="57.2px" viewBox="0 0 144.8 57.2" enable-background="new 0 0 144.8 57.2" xml:space="preserve">
<g opacity="0.8">
	<g>
		<path fill="#B8C1A1" d="M143.2,25.4c-22.4,2.4-44.9,6.5-67.5,5.7c-21.6-0.8-44.1-2.5-63.5-13.1c-1.5-0.8-3.1,1.3-1.5,2.2
			c19.4,10.7,41.8,12.7,63.5,13.5c23.2,0.9,46.4-3.2,69.4-5.7C145.4,27.9,144.9,25.2,143.2,25.4L143.2,25.4z"/>
	</g>
	<g>
		<path fill="#B8C1A1" d="M36.7,26.4C32.7,19.3,28.6,12.2,24,5.3c-1-1.4-3,0.3-2.1,1.7c4.4,6.6,8.4,13.6,12.4,20.5
			C35.2,29,37.6,27.9,36.7,26.4L36.7,26.4z"/>
	</g>
	<g>
		<path fill="#B8C1A1" d="M23.4,24.5c-5.6,2.1-11.5,3.2-17.3,5c-1.6,0.5-0.5,2.9,1.1,2.4c5.7-1.8,11.7-2.9,17.3-5
			C26.1,26.3,25,23.9,23.4,24.5L23.4,24.5z"/>
	</g>
	<g>
		<path fill="#B8C1A1" d="M62.8,30.9c-4.4-6.6-8.4-13.4-13.4-19.5c-1.1-1.3-3.2,0.4-2.1,1.7c5.1,6.1,9.1,12.9,13.4,19.5
			C61.7,34,63.7,32.3,62.8,30.9L62.8,30.9z"/>
	</g>
	<g>
		<path fill="#B8C1A1" d="M44,30.3c-4.8,4.3-10.1,8-15.5,11.6c-1.4,1,0.3,3,1.7,2.1c5.4-3.6,10.7-7.3,15.5-11.6
			C47,31.2,45.3,29.2,44,30.3L44,30.3z"/>
	</g>
	<g>
		<path fill="#B8C1A1" d="M87.4,30.9c-5.8-5.2-11.7-10.2-17.9-15c-1.4-1.1-2.9,1.1-1.5,2.2c6.1,4.8,12.1,9.8,17.9,15
			C87.1,34.2,88.7,32,87.4,30.9L87.4,30.9z"/>
	</g>
	<g>
		<path fill="#B8C1A1" d="M73.8,32.4c-5.5,4.2-10,9.9-13.5,15.9c-0.9,1.5,1.3,3,2.2,1.5c3.4-5.8,7.6-11.3,13-15.4
			C76.9,33.4,75.2,31.3,73.8,32.4L73.8,32.4z"/>
	</g>
	<g>
		<path fill="#B8C1A1" d="M105,29.7c-2.3-2.4-5-4.1-7.7-6c-3.5-2.5-6.8-6.2-9.7-9.4c-1.1-1.3-3.2,0.4-2.1,1.7
			c2.5,2.8,5.2,5.3,7.9,7.8c3,2.8,6.7,4.6,9.5,7.6C104.1,32.6,106.2,30.9,105,29.7L105,29.7z"/>
	</g>
	<g>
		<path fill="#B8C1A1" d="M94.9,32c-4.3,5-6,11.1-8.1,17.2c-0.6,1.6,1.9,2.5,2.5,0.9c2-5.9,3.6-11.8,7.7-16.6
			C98.2,32.3,96,30.7,94.9,32L94.9,32z"/>
	</g>
	<g>
		<path fill="#B8C1A1" d="M121.4,27.8c-5.8-6.1-12-11.8-18.6-17c-1.4-1.1-2.9,1.1-1.5,2.2c6.4,5,12.4,10.6,18.1,16.5
			C120.5,30.7,122.6,29.1,121.4,27.8L121.4,27.8z"/>
	</g>
	<g>
		<path fill="#B8C1A1" d="M110.7,30.9c-1.8,7.1-5.2,13.5-7.4,20.5c-0.5,1.6,2,2.6,2.5,0.9c2.2-6.9,5.6-13.4,7.4-20.5
			C113.6,30.2,111.1,29.2,110.7,30.9L110.7,30.9z"/>
	</g>
	<g>
		<path fill="#B8C1A1" d="M0.8,28c-3,4.2,3.5,8.8,6.5,4.6C10.3,28.4,3.8,23.8,0.8,28L0.8,28z"/>
	</g>
	<g>
		<path fill="#B8C1A1" d="M7.8,15.5c-3,4.2,3.5,8.8,6.5,4.6C17.3,15.9,10.8,11.3,7.8,15.5L7.8,15.5z"/>
	</g>
	<g>
		<path fill="#B8C1A1" d="M18.8,1.6c-3,4.2,3.5,8.8,6.5,4.6C28.3,2.1,21.8-2.5,18.8,1.6L18.8,1.6z"/>
	</g>
	<g>
		<path fill="#B8C1A1" d="M25.7,41.6c-3,4.2,3.5,8.8,6.5,4.6C35.2,42,28.7,37.4,25.7,41.6L25.7,41.6z"/>
	</g>
	<g>
		<path fill="#B8C1A1" d="M43.3,8.6c-3,4.2,3.5,8.8,6.5,4.6C52.8,9,46.3,4.4,43.3,8.6L43.3,8.6z"/>
	</g>
	<g>
		<path fill="#B8C1A1" d="M57.7,48c-3,4.2,3.5,8.8,6.5,4.6C67.2,48.5,60.7,43.8,57.7,48L57.7,48z"/>
	</g>
	<g>
		<path fill="#B8C1A1" d="M83.5,48.8c-3,4.2,3.5,8.8,6.5,4.6C93,49.2,86.5,44.6,83.5,48.8L83.5,48.8z"/>
	</g>
	<g>
		<path fill="#B8C1A1" d="M65.1,14.7c-3,4.2,3.5,8.8,6.5,4.6C74.6,15.1,68.1,10.5,65.1,14.7L65.1,14.7z"/>
	</g>
	<g>
		<path fill="#B8C1A1" d="M82.8,12.3c-3,4.2,3.5,8.8,6.5,4.6C92.3,12.8,85.8,8.1,82.8,12.3L82.8,12.3z"/>
	</g>
	<g>
		<path fill="#B8C1A1" d="M101.3,50.9c-3,4.2,3.5,8.8,6.5,4.6C110.8,51.3,104.3,46.7,101.3,50.9L101.3,50.9z"/>
	</g>
	<g>
		<path fill="#B8C1A1" d="M99.2,9.1c-3,4.2,3.5,8.8,6.5,4.6C108.7,9.6,102.2,4.9,99.2,9.1L99.2,9.1z"/>
	</g>
</g>
</svg>
