<?xml version="1.0" encoding="iso-8859-1"?>
<!-- Generator: Adobe Illustrator 16.0.0, SVG Export Plug-In . SVG Version: 6.00 Build 0)  -->
<!DOCTYPE svg PUBLIC "-//W3C//DTD SVG 1.1//EN" "http://www.w3.org/Graphics/SVG/1.1/DTD/svg11.dtd">
<svg version="1.1" id="Capa_1" xmlns="http://www.w3.org/2000/svg" xmlns:xlink="http://www.w3.org/1999/xlink" x="0px" y="0px"
	 width="581.764px" height="581.765px" viewBox="0 0 581.764 581.765" style="enable-background:new 0 0 581.764 581.765;"
	 xml:space="preserve">
<g>
	<g>
		<path d="M573.07,233.479c-3.016,0.828-5.23,4.28-4.19,7.376c0.339,1.004,0.596,2.02,0.779,3.06
			c0.122,1.383,0.118,2.766-0.013,4.145c-0.277,1.6-0.714,3.158-1.293,4.676c-0.506,1.098-1.081,2.167-1.742,3.178
			c-0.204,0.314-0.412,0.625-0.628,0.93c-0.05,0.065-0.114,0.155-0.188,0.249c-0.383,0.461-0.775,0.914-1.195,1.342
			c-0.518,0.535-1.057,1.057-1.624,1.542c-0.118,0.098-0.236,0.2-0.351,0.298c-0.15,0.11-0.318,0.232-0.424,0.306
			c-1.106,0.751-2.261,1.399-3.469,1.958c-1.66,0.632-3.374,1.094-5.128,1.392c-2.04,0.208-4.084,0.2-6.124-0.008
			c-2.179-0.359-4.309-0.942-6.365-1.746c-1.636-0.747-3.215-1.628-4.684-2.672c-0.172-0.123-0.339-0.245-0.51-0.367
			c-0.27-0.221-0.539-0.445-0.8-0.673c0.575-0.322,1.142-0.657,1.692-1.016c4.844-3.15,9.242-7.597,11.522-12.979
			c1.42-3.35,2.391-6.622,2.583-10.286c0.159-3.031-0.2-6.332-1.384-9.155c-1.252-2.982-2.807-5.794-5.324-7.916
			c-2.403-2.028-5.079-3.684-8.155-4.492c-6.043-1.587-12.714-0.094-17.055,4.557c-4.048,4.337-5.847,10.041-6.267,15.863
			c-0.388,5.349,0.521,11.024,2.305,16.071c0.069,0.192,0.139,0.384,0.212,0.575c-0.812-0.224-1.615-0.489-2.402-0.792
			c-1.131-0.518-2.229-1.105-3.272-1.787c-0.355-0.233-0.706-0.469-1.053-0.714c-0.216-0.188-1.008-0.828-1.244-1.048
			c-0.58-0.535-1.143-1.085-1.669-1.673c-0.229-0.253-0.906-1.118-1.049-1.281c-0.061-0.09-0.126-0.184-0.188-0.273
			c-1.158-2.473-1.795-5.125-2.072-7.915c-0.103-1.02,0.114-1.412,1.162-1.697c6.283-1.706,10.033-7.344,9.307-13.647
			c-0.967-8.397-7.76-14.284-16.238-14.19c-2.448,0.028-4.892,0.42-7.344,0.604c-0.343,0.024-0.768-0.094-1.053-0.294
			c-1.926-1.359-3.741-2.897-5.749-4.117c-7.156-4.337-14.443-8.462-21.551-12.876c-6.658-4.137-13.101-8.617-19.73-12.803
			c-10.865-6.854-22.276-12.611-34.46-16.797c-11.044-3.794-22.387-6.075-34.027-6.895c-6.405-0.453-12.814-0.828-19.221-1.245
			c-6.907-0.449-13.807-0.987-20.718-1.338c-7.246-0.367-14.505-0.669-21.759-0.8c-9.792-0.18-19.584-0.188-29.38-0.232
			c-9.727-0.041-19.453,0.089-29.176-0.086c-9.519-0.171-19.034-0.628-28.552-0.971c-0.661-0.024-1.322-0.118-1.979-0.179h-7.005
			c-0.457,0.061-0.91,0.147-1.367,0.179c-3.354,0.216-6.708,0.372-10.057,0.645c-5.998,0.49-11.885,1.648-17.711,3.125
			c-8.368,2.122-16.483,5.006-24.48,8.226c-11.885,4.786-23.452,10.269-34.913,15.981c-4.814,2.399-9.56,4.941-14.411,7.267
			c-6.34,3.04-12.803,5.826-19.123,8.911c-11.804,5.761-23.118,12.367-33.823,19.996c-5.504,3.921-10.788,8.107-15.733,12.713
			c-2.064,1.922-4.015,3.966-6.022,5.953c-0.542,0.535-1.048,1.004-1.975,0.8c-5.479-1.204-10.922-2.534-16.051-4.863
			c-1.02-0.465-1.93-1.261-2.766-2.032c-0.824-0.763-1.404-1.799-2.252-2.526c-1.375-1.179-2.774-2.415-4.361-3.243
			c-2.118-1.098-4.349-0.07-5.161,2.17c-0.355,0.983-0.542,2.056-0.62,3.101c-0.102,1.408-0.024,2.832-0.024,4.28
			c-0.253-0.017-0.514-0.049-0.775-0.053c-2.097-0.021-3.346,1.195-3.19,3.292c0.073,1.008,0.359,2.028,0.722,2.979
			c1.053,2.774,2.693,5.23,4.761,7.299c3.24,3.244,5.928,6.887,8.543,10.621c0.812,1.163,1.816,2.215,2.848,3.199
			c2.978,2.839,6.65,4.304,10.624,5.083c1.709,0.334,3.439,0.616,4.427,2.293c0.188,0.318,0.257,0.75,0.249,1.13
			c-0.024,1.228-0.294,2.477-0.135,3.676c0.379,2.823,0.885,5.635,1.461,8.425c1.003,4.868,2.378,9.673,2.521,14.688
			c0.094,3.354-0.298,6.598-2.579,9.278c-0.943,1.109-1.991,2.135-3.599,2.27c-2.713,0.223-4.312,1.672-4.717,4.393
			c-0.098,0.654-0.461,0.939-1.171,0.902c-1.742-0.086-3.149,0.555-4.202,2c-0.71,0.971-1.742,1.477-2.95,1.365
			c-1.449-0.129-2.889-0.379-4.333-0.586c-3.333-0.482-3.607,0.922-2.946,3.439c0.681,2.594,1.571,5.131,2.301,7.711
			c0.229,0.807,0.343,1.676,0.351,2.521c0.033,2.721-0.22,5.463,0.029,8.164c0.473,5.141,3.415,8.604,9.041,8.295
			c1.334-0.074,2.44,0.24,3.529,0.979c1.746,1.18,3.398,2.42,4.354,4.467c-0.73,0.588-1.469,1.146-2.175,1.75
			c-1.077,0.918-1.228,2.012-0.265,3.023c2.579,2.709,5.704,4.416,9.478,4.773c2.779,0.266,5.5-0.236,8.221-0.701
			c4.611-0.783,9.229-0.945,13.705,0.576c8.184,2.785,16.536,4.605,25.186,5.033c4.243,0.213,8.458-0.004,12.648-0.57
			c5.818-0.787,11.416-2.375,16.704-4.965c2.722-1.334,5.561-1.514,8.307-0.408c2.505,1.008,4.872,2.387,7.258,3.676
			c2.893,1.562,5.81,2.742,9.204,1.771c1.918-0.551,2.661-0.156,3.852,1.562c2.501,3.594,3.117,7.707,3.223,11.934
			c0.082,3.129-0.089,6.268,0.045,9.393c0.126,2.881,0.502,5.752,0.775,8.629c0.061,0.645,0.351,1.338,0.192,1.918
			c-1.297,4.756-2.599,9.518-4.06,14.227c-1.167,3.762-3.007,7.111-6.243,9.621c-1.211,0.938-2.154,2.338-2.925,3.691
			c-0.608,1.068-1.142,2.199-1.706,3.305c-1.697,3.338-3.647,6.471-6.438,9.373c1.175,0.537,2.17,1.182,3.26,1.463
			c6.667,1.719,13.142,0.928,19.282-2.02c1.832-0.877,3.382-1.346,5.353-0.664c1.428,0.494,2.758-0.053,3.611-1.412
			c0.367-0.588,0.808-1.166,1.024-1.811c0.58-1.746,1.15-3.506,1.555-5.297c0.799-3.521,1.521-7.059,2.203-10.604
			c1.04-5.402,2.48-10.641,5.373-15.406c1.579-2.604,3.064-5.283,3.754-8.303c0.269-1.184,0.437-2.391,0.653-3.594
			c0.167-0.018,0.298-0.049,0.428-0.033c2.452,0.24,4.023,1.656,4.827,3.881c0.649,1.803,1.105,3.676,1.632,5.52
			c0.861,3.023,2.109,5.781,4.712,7.771c1.2,0.918,2.444,1.906,3.297,3.121c3.289,4.705,7.625,7.582,13.354,8.303
			c0.266,0.033,0.514,0.27,0.755,0.438c0.734,0.51,1.412,1.121,2.195,1.533c3.227,1.697,6.479,3.35,9.743,4.979
			c0.224,0.109,0.747,0.004,0.893-0.184c0.567-0.727,1.216-1.469,1.522-2.314c1.869-5.213,0.849-10.008-2.436-14.332
			c-0.853-1.127-2.105-1.945-3.244-2.971c0.359-0.162,0.755-0.404,1.183-0.529c1.049-0.311,2.134-0.502,3.162-0.857
			c1.424-0.486,1.836-1.439,1.216-2.799c-1.004-2.199-2.758-3.639-4.965-4.496c-1.448-0.562-2.975-0.93-4.435-1.457
			c-0.375-0.135-0.706-0.514-0.959-0.857c-0.844-1.129-1.501-2.447-2.505-3.406c-1.163-1.113-2.615-1.922-3.937-2.867
			c-0.743-0.535-1.334-1.143-1.432-2.154c-0.282-2.934,0.804-5.199,3.248-6.807c1.416-0.93,2.848-1.836,4.304-2.701
			c3.668-2.174,6.752-4.924,8.882-8.678c0.857-1.51,2.073-2.672,3.672-3.391c5.524-2.477,10.266-6.092,14.733-10.102
			c0.673-0.604,1.293-1.215,2.24-1.375c1.538-0.258,3.056-0.648,4.602-0.816c5.92-0.633,11.84-0.33,17.74,0.232
			c4.329,0.416,8.646,1,12.967,1.518c5.639,0.678,11.265,1.43,16.911,2.033c4.99,0.533,9.988,1.031,14.998,1.338
			c6.051,0.367,12.109,0.375,18.164-0.131c4.937-0.416,9.829-1.082,14.619-2.357c9.225-2.461,18.552-4.223,28.115-4.717
			c7.046-0.367,14.026-0.029,20.93,1.461c3.15,0.682,6.243,1.555,9.005,3.312c0.543,0.346,0.8,0.742,0.869,1.432
			c0.433,4.227,0.853,8.463,1.44,12.668c0.738,5.305,1.615,10.592,1.306,15.971c-0.159,2.736-0.784,5.365-2.171,7.787
			c-4.027,7.027-8.066,14.049-11.991,21.131c-1.864,3.361-3.615,6.801-4.316,10.648c-0.098,0.547,0.017,1.18-0.217,1.645
			c-1.261,2.518-2.55,5.027-3.929,7.479c-0.689,1.225-1.595,2.326-2.497,3.611c3.052,0.477,5.916,0.986,8.801,1.359
			c3.9,0.5,7.821,0.754,11.71-0.123c3.472-0.779,6.304-2.436,7.642-5.977c0.028-0.074,0.146-0.115,0.171-0.127
			c0.657,0.457,1.24,0.959,1.901,1.312c1.808,0.963,4.859,0.045,4.68-2.807c-0.114-1.84,0.18-3.713,0.355-5.564
			c0.465-4.889,1.66-9.596,3.541-14.129c3.342-8.059,8.752-14.611,15.047-20.494c0.678-0.633,1.62-1.053,2.514-1.363
			c1.624-0.559,3.305-0.955,4.961-1.424c1.881-0.533,3.399-1.582,4.183-3.41c0.856-2.004,1.729-4.027,2.293-6.121
			c0.521-1.93,0.648-3.969,0.946-5.969c2.24-0.248,5.227,1.025,6.512,2.906c0.804,1.174,1.392,2.5,2.231,3.643
			c1.012,1.379,2.191,2.637,3.293,3.949c0.714,0.85,1.611,1.607,2.093,2.574c2.285,4.594,2.64,9.633,2.982,14.627
			c0.208,3.084,0.009,6.193,0.041,9.291c0.037,3.627,0.032,7.258,0.241,10.877c0.081,1.398-0.14,2.639-0.771,3.803
			c-1.399,2.562-2.872,5.084-4.337,7.609c-1.159,1.994-0.987,2.42,1.317,2.799c5.655,0.938,11.277,0.697,16.789-0.842
			c3.66-1.02,6.997-2.623,8.393-6.576c0.698,0.281,1.354,0.607,2.049,0.809c1.628,0.469,2.644-0.232,2.864-1.91
			c0.277-2.143-0.213-4.174-1.028-6.115c-2.759-6.557-5.255-13.188-6.084-20.318c-0.407-3.529-0.306-7.027,0.616-10.486
			c0.828-3.105,2.493-5.77,4.228-8.412c0.808-1.232,1.615-2.527,1.211-4.076c-0.188-0.723,0.005-1.16,0.393-1.701
			c1.729-2.432,2.709-5.141,1.791-8.07c-0.682-2.191-1.738-4.293-2.832-6.32c-1.848-3.424-3.749-6.811-4.386-10.715
			c-0.094-0.582-0.118-1.33,0.159-1.803c3.872-6.582,7.809-13.125,11.718-19.686c3.312-5.566,6.63-11.156,8.539-17.381
			c1.885-6.141,3.395-12.396,5.21-18.56c2.815-9.556,4.17-19.303,4.407-29.217c2.138,1.179,4.397,2.109,6.728,2.754
			c3.333,0.922,6.813,1.257,10.261,1.028c0.601,0.75,1.225,1.481,1.886,2.191c4.092,4.411,9.208,7.715,14.888,9.686
			c11.154,3.872,24.37,1.975,33.113-6.243c7.964-7.479,11.922-19.682,8.364-30.229C579.402,234.573,576.354,232.574,573.07,233.479z
			 M533.53,244.887c-0.473,0.449-0.954,0.885-1.46,1.297c-0.123,0.09-0.241,0.179-0.318,0.236c-0.326,0.229-0.653,0.457-0.991,0.669
			c-0.963,0.612-1.959,1.159-2.987,1.648c-0.184-0.372-0.358-0.747-0.53-1.122c-1.113-2.803-1.909-5.712-2.374-8.69
			c-0.241-2.199-0.29-4.398-0.074-6.598c0.241-1.412,0.596-2.795,1.094-4.137c0.241-0.506,0.498-1,0.796-1.473
			c0.131-0.208,0.265-0.416,0.404-0.624c0.077-0.094,0.154-0.184,0.216-0.249c0.285-0.306,0.575-0.604,0.89-0.877
			c0.379-0.253,0.771-0.477,1.175-0.685c0.379-0.123,0.763-0.229,1.15-0.31c0.489-0.025,0.979-0.025,1.469,0.008
			c0.645,0.135,1.273,0.31,1.894,0.53c0.526,0.257,1.036,0.539,1.525,0.861c0.106,0.069,0.212,0.143,0.318,0.216
			c0.212,0.18,0.42,0.363,0.616,0.559c0.298,0.29,0.584,0.592,0.853,0.906c0.363,0.543,0.682,1.102,0.967,1.685
			c0.314,0.873,0.551,1.763,0.723,2.672c0.094,1.167,0.081,2.334-0.024,3.497c-0.249,1.371-0.62,2.705-1.11,4.011
			c-0.579,1.244-1.256,2.444-2.052,3.566c-0.082,0.11-0.225,0.298-0.351,0.461c-0.123,0.147-0.249,0.294-0.376,0.437
			C534.509,243.9,534.037,244.41,533.53,244.887z"/>
	</g>
</g>
<g>
</g>
<g>
</g>
<g>
</g>
<g>
</g>
<g>
</g>
<g>
</g>
<g>
</g>
<g>
</g>
<g>
</g>
<g>
</g>
<g>
</g>
<g>
</g>
<g>
</g>
<g>
</g>
<g>
</g>
</svg>
