<?xml version="1.0" encoding="iso-8859-1"?>
<!-- Generator: Adobe Illustrator 18.0.0, SVG Export Plug-In . SVG Version: 6.00 Build 0)  -->
<!DOCTYPE svg PUBLIC "-//W3C//DTD SVG 1.1//EN" "http://www.w3.org/Graphics/SVG/1.1/DTD/svg11.dtd">
<svg version="1.1" id="Capa_1" xmlns="http://www.w3.org/2000/svg" xmlns:xlink="http://www.w3.org/1999/xlink" x="0px" y="0px"
	 viewBox="0 0 294.996 294.996" style="enable-background:new 0 0 294.996 294.996;" xml:space="preserve">
<path d="M280.977,118.478c-13.619-10.807-20.563-27.57-18.574-44.845c1.3-11.3-2.566-22.393-10.607-30.432
	c-8.044-8.043-19.136-11.909-30.434-10.607c-17.281,1.986-34.037-4.954-44.844-18.573C169.449,5.11,158.872,0,147.499,0
	c-11.374,0-21.951,5.11-29.021,14.02c-10.807,13.618-27.564,20.56-44.841,18.575c-11.3-1.305-22.393,2.563-30.435,10.605
	c-8.043,8.04-11.909,19.133-10.609,30.435c1.989,17.272-4.954,34.035-18.576,44.844C5.11,125.549,0,136.126,0,147.498
	s5.109,21.949,14.019,29.021c13.62,10.808,20.563,27.57,18.574,44.845c-1.3,11.3,2.566,22.393,10.607,30.432
	c8.044,8.043,19.145,11.911,30.434,10.607c17.274-1.988,34.037,4.954,44.844,18.573c7.069,8.91,17.646,14.021,29.021,14.021
	c11.373,0,21.95-5.11,29.02-14.02c10.808-13.618,27.565-20.559,44.841-18.575c11.301,1.299,22.393-2.563,30.435-10.605
	c8.043-8.04,11.909-19.133,10.609-30.434c-1.989-17.273,4.955-34.037,18.576-44.845c8.907-7.07,14.017-17.647,14.017-29.02
	S289.886,125.549,280.977,118.478z"/>
<g>
</g>
<g>
</g>
<g>
</g>
<g>
</g>
<g>
</g>
<g>
</g>
<g>
</g>
<g>
</g>
<g>
</g>
<g>
</g>
<g>
</g>
<g>
</g>
<g>
</g>
<g>
</g>
<g>
</g>
</svg>
