<?xml version="1.0" encoding="utf-8"?>
<!-- Generator: Adobe Illustrator 18.0.0, SVG Export Plug-In . SVG Version: 6.00 Build 0)  -->
<!DOCTYPE svg PUBLIC "-//W3C//DTD SVG 1.1//EN" "http://www.w3.org/Graphics/SVG/1.1/DTD/svg11.dtd">
<svg version="1.1" id="Layer_1" xmlns="http://www.w3.org/2000/svg" xmlns:xlink="http://www.w3.org/1999/xlink" x="0px" y="0px"
	 width="192.5px" height="47.9px" viewBox="0 0 192.5 47.9" enable-background="new 0 0 192.5 47.9" xml:space="preserve">
<path fill="#0B0B0B" d="M159.3,36.4c-25.6,2.8-44.8-3-63.4-10.7c-19.2-8-38.5-17-62.5-13.9c-2.9,0.4-5.8,0.9-8.6,1.7
	c-6.9,1.9-14,5.2-18.6,10.8c-4.2,5.1-6.7,14.3-1.9,20c2.2,2.6,6.7,2.6,6.2-1.5c0.2,1.8-3.6,0.1-1.6-1.5c1.6-1.3,3.9,1.2,3.6,2.7
	c-0.4,2.7-3.8,3.6-6.1,3c-3.2-0.8-4.4-4.2-5-7.1c-3.3-16,12.7-26.8,31.8-29.2c26-3.3,45.2,3.4,63.8,10.9c19.5,7.9,38,16.2,62.1,13.6
	c13.7-1.4,37.7-11.6,30.4-29.6c-0.3-0.7-0.4-1.1-1-1.6c-1.2-0.9-1.1,0-2.2,0c-2.9,0.1-3-3.4-0.2-3.6c2.8-0.2,4.5,4.5,5,6.7
	C194.3,23.2,178.3,34.4,159.3,36.4z"/>
</svg>
