<?xml version="1.0" encoding="utf-8"?>
<!-- Generator: Adobe Illustrator 18.0.0, SVG Export Plug-In . SVG Version: 6.00 Build 0)  -->
<!DOCTYPE svg PUBLIC "-//W3C//DTD SVG 1.1//EN" "http://www.w3.org/Graphics/SVG/1.1/DTD/svg11.dtd">
<svg version="1.1" id="Layer_1" xmlns="http://www.w3.org/2000/svg" xmlns:xlink="http://www.w3.org/1999/xlink" x="0px" y="0px"
	 width="253.7px" height="48px" viewBox="0 0 253.7 48" enable-background="new 0 0 253.7 48" xml:space="preserve">
<g>
	<g>
		<path fill="#090909" d="M230.6,2.3c4.4,5.2-2.8,9.8-6.9,11.3c-3.5,1.3-7.2,1.4-10.8,2.2c-1.3,0.5-2.3,1.4-2.9,2.5
			c-0.7-0.3-1.4-0.4-2.2-0.4c-3.2,0-5.8,2.6-5.8,5.8c0,3.2,2.6,5.8,5.8,5.8c0.9,0,1.7-0.2,2.4-0.6c2.2,2.9,6.1,2.4,9.8,3
			c2.8,0.5,5.6,1.4,7.9,2.9c1.1,0.8,2.1,1.8,2.8,2.9c1.1,1.6,2.3,6.4-0.7,6.8c-0.3,0-0.3,1.1,0,1.1c0.4,0,0.9-0.1,1.3-0.2
			c0.2,0,0.3-0.1,0.5-0.2c4.7-1.7,6.8-9.7,3-12.9c6.4-0.3,12.1-6.1,17.3-8.9c0.2-0.1,0.4-0.9,0.2-1c-5.2-2.9-10.2-7.7-16.2-8.3
			c3.4-4.5,0.9-13.2-5.5-12.8C230.3,1.3,230.5,2.2,230.6,2.3z M231.9,32.2c0.2,0,0.4,0.1,0.6,0.1c0,0.1,0.1,0.1,0.2,0.1
			c5,1.2,4.3,7.4,1.2,10.4c0.1-0.3,0.2-0.6,0.3-0.9c0.4-1.8,0.2-3.9-1-5.5l-0.5-0.6l0.3,0.4c1.2,1.5,1.3,3.5,0.9,5.2
			c-0.3,0.9-0.7,1.8-1.3,2.5c-0.2,0.1-0.3,0.2-0.5,0.3c1-2.4-0.8-7-1.9-8.4c-2-2.6-5.3-3.7-8.3-4.5c-3.5-0.9-8.3-0.2-10.9-2.7
			c0.1-0.1,0.2-0.1,0.2-0.2c0.3,0.3,0.6,0.5,0.8,0.5c1,0.4,2,0.6,3,0.7c1.8,0.2,3.6,0.3,5.4,0.4l0.7,0l-0.4-0.1
			c-1.7-0.3-3.5-0.4-5.2-0.7c-1-0.2-1.9-0.4-2.8-0.8l-0.9-0.5c0.2-0.2,0.5-0.5,0.7-0.8c1.3,0,2.5,0.1,3.8,0.3
			c1.5,0.3,2.9,0.8,4.2,1.2c1.6,0.5,3.2,1,4.7,1.6c0,0.1,0.4,0.2,0.8,0.3c0.1,0.1,0.3,0.1,0.4,0.1c1.7,0.6,3.4,1.1,5.1,1.5
			C231.5,32.1,231.7,32.1,231.9,32.2z M251.3,23c-4.6,2.6-8.6,6.3-13.7,7.8c1.5-0.8,2.7-2,3.8-3.3l0.5-0.6l-0.3,0.3
			c-1.2,1.4-2.7,2.7-4.4,3.4c-0.7,0.3-1.4,0.5-2.1,0.6c0.8-0.4,1.6-0.8,2.4-1.4l0.3-0.2l-0.2,0.1c-0.9,0.5-1.9,0.9-2.8,1.2
			c-0.6,0.1-1.1,0.3-1.7,0.3l-0.2,0c0.3-0.1,0.7-0.2,1-0.3c1.7-0.6,3.1-1.9,4.2-3.2l0.5-0.5l-0.3,0.3c-1.2,1.3-2.6,2.3-4.1,3
			c-0.9,0.1-1.7,0.5-2.6,0.4c0.9-0.3,1.8-0.7,2.6-1.3l0.3-0.3l-0.2,0.1c-0.9,0.6-1.8,0.9-2.8,1.1c-0.6,0-1.1,0.1-1.6,0l-0.4-0.1
			c0.3-0.1,0.5-0.1,0.8-0.2c1.8-0.6,3.5-1.7,4.8-3.1l0.5-0.5l-0.3,0.3c-1.4,1.3-3,2.2-4.7,2.8c-1,0.1-2,0.4-3,0.3l-0.4,0
			c-0.1,0-0.2-0.1-0.3-0.1c0.3-0.1,0.7-0.2,1-0.2c1.1-0.4,2.1-1.1,2.9-1.9l0.3-0.3l-0.2,0.2c-0.9,0.7-1.8,1.2-2.9,1.5
			c-0.6,0-1.2,0.2-1.7,0.1l-0.1,0c0.2-0.1,0.4-0.1,0.6-0.2c1.6-0.7,2.9-1.8,4.1-3l0.5-0.5l-0.3,0.3c-1.2,1.1-2.5,2.1-4,2.7
			c-0.8,0.3-1.7,0.5-2.6,0.4c-0.3-0.1-0.6-0.1-0.9-0.2c0.2,0,0.5-0.1,0.7-0.1c1.3-0.3,2.5-1.1,3.3-2.1l0.4-0.4l-0.2,0.2
			c-1,0.9-2.1,1.5-3.3,1.8c-0.7,0-1.4,0.1-2,0l-0.6-0.1c0.2,0,0.3-0.1,0.5-0.2c1.9-0.7,3.5-1.9,5-3.1l0.6-0.5l-0.4,0.2
			c-1.5,1-3.1,2.1-4.9,2.8c-0.8,0.2-1.5,0.4-2.3,0.4c-0.2-0.1-0.5-0.1-0.7-0.2c0.1,0,0.2,0,0.3,0c1.3-0.4,2.6-1,3.6-1.9l0.4-0.4
			l-0.3,0.2c-1.1,0.8-2.3,1.3-3.5,1.6c-0.7,0-1.4,0.1-2.1,0.1l-0.9-0.2c-0.1,0-0.2,0-0.3,0c0,0-0.1,0-0.1,0c0.4-0.1,0.8-0.2,1.1-0.2
			c2-0.6,3.9-1.6,5.4-3l0.6-0.5l-0.4,0.3c-1.6,1.3-3.4,2.2-5.3,2.7c-0.7,0.1-1.3,0.2-2,0.3c0.1,0,0.2-0.1,0.3-0.1
			c1.4-0.6,2.7-1.4,3.8-2.4l0.5-0.4l-0.3,0.2c-1.2,0.9-2.5,1.6-3.8,2.1c-0.8,0.1-1.6,0.4-2.4,0.4l-1,0c0,0,0,0-0.1,0
			c0.2-0.6,0.4-1.3,0.4-2.1c0-1.2-0.4-2.4-1.1-3.3c0.7,0,1.4,0.1,2.1,0c3.7-0.2,7.3-1.6,10.8-2.9c1.2-0.4,2.4-0.9,3.7-1.3
			c1-0.3,2-0.6,3-0.8c0.5-0.1,2.5-0.1,3.2-0.3C241.1,15.4,246.2,20,251.3,23z M236.4,12.5c-0.5,1-1.5,1.4-2.7,1.6
			c-0.6,0-1.2,0.1-1.8,0.3c0,0,0,0-0.1,0c-0.3,0-0.5,0.1-0.8,0.1c-1.5,0.4-3.1,0.9-4.6,1.4c-4.4,1.5-8.5,3.1-13,3.3
			c-0.2,0-0.5,0-0.7,0c-0.1,0-0.2,0-0.3,0c-0.4,0-0.7,0-1.1-0.1c0.7-0.6,1.7-0.8,2.6-1.1c1.8-0.5,3.7-0.6,5.6-1.2l0.7-0.3l-0.4,0.1
			c-1.9,0.6-3.7,0.5-5.5,0.8c-1,0.1-2.1,0.4-3.1,0.8c-0.2,0.2-0.4,0.3-0.7,0.4c0,0-0.1,0-0.1-0.1c0.6-0.8,1.4-1.4,2.4-1.8
			c5.6-1.2,11.4-1.3,16.1-5.1c3-2.4,4.2-6.2,2.3-9.4c0,0,0,0,0,0c0.3,0.1,0.6,0.2,0.7,0.3c0.8,0.4,1.5,1,2,1.8
			c0.9,1.4,0.9,3.1,0.2,4.6l-0.3,0.6l0.2-0.3c0.9-1.3,1.2-3.2,0.5-4.8c-0.3-0.6-0.7-1.2-1.2-1.7C236.8,4.5,238.2,9,236.4,12.5z"/>
	</g>
	<g>
		<g>
			<path fill="#090909" d="M129.4,23.6c3.8,0.7,6.3,1,10.8,1c4.9,0,29.4,0,29.4,0s24.5,0,29.4,0c4.5,0,7.1-0.4,10.9-1
				c-3.8-0.7-6.3-1-10.9-1c-4.9,0-29.4,0-29.4,0s-24.5,0-29.4,0C135.7,22.6,133.1,23,129.4,23.6z"/>
		</g>
	</g>
	<g>
		<g>
			<path fill="#090909" d="M41.8,23.6c3.9,0.7,6.6,1,11.3,1c5.1,0,30.6,0,30.6,0s25.5,0,30.6,0c4.7,0,7.4-0.4,11.3-1
				c-3.9-0.7-6.6-1-11.3-1c-5.1,0-30.6,0-30.6,0s-25.5,0-30.6,0C48.4,22.6,45.7,23,41.8,23.6z"/>
		</g>
	</g>
	<g>
		<path fill="#090909" d="M23.1,2.4c-6.5-0.4-9,8.3-5.5,12.8c-6,0.7-11,5.5-16.2,8.3c-0.3,0.2-0.1,0.9,0.1,1
			c5.3,2.8,11,8.5,17.3,8.9c-3.8,3.2-1.7,11.2,3,12.9c0.2,0.1,0.3,0.1,0.5,0.2c0.4,0.1,0.8,0.2,1.3,0.2c0.3,0,0.3-1,0-1.1
			c-2.9-0.5-1.8-5.2-0.7-6.8c0.8-1.1,1.7-2.2,2.8-2.9c2.4-1.6,5.1-2.5,7.9-2.9c3.7-0.6,7.6-0.1,9.8-3c0.7,0.3,1.6,0.6,2.4,0.6
			c3.2,0,5.8-2.6,5.8-5.8c0-3.2-2.6-5.8-5.8-5.8c-0.8,0-1.5,0.2-2.2,0.4c-0.7-1.1-1.6-2-2.9-2.5c-3.6-0.8-7.3-0.9-10.8-2.2
			c-4-1.5-11.3-6.1-6.9-11.3C23.2,3.3,23.4,2.4,23.1,2.4z M22.4,33.1c1.7-0.4,3.4-0.9,5.1-1.5c0.1,0,0.3-0.1,0.4-0.1
			c0.4,0,0.8-0.1,0.8-0.3c1.6-0.5,3.1-1.1,4.7-1.6c1.2-0.4,2.7-0.8,4.2-1.2c1.2-0.2,2.5-0.3,3.8-0.3c0.2,0.3,0.4,0.5,0.7,0.8
			l-0.9,0.5c-0.9,0.4-1.8,0.6-2.8,0.8c-1.7,0.3-3.5,0.5-5.2,0.7L32.7,31l0.7,0c1.8-0.1,3.6-0.1,5.4-0.4c1-0.1,2-0.3,3-0.7
			c0.2,0,0.5-0.2,0.8-0.5c0.1,0.1,0.2,0.1,0.2,0.2c-2.6,2.5-7.4,1.8-10.9,2.7c-3,0.8-6.3,2-8.3,4.5c-1.1,1.5-2.9,6-1.9,8.4
			c-0.2-0.1-0.3-0.2-0.5-0.3c-0.6-0.7-1-1.5-1.3-2.5c-0.4-1.7-0.3-3.6,0.9-5.2l0.3-0.4l-0.5,0.6c-1.2,1.6-1.4,3.7-1,5.5
			c0.1,0.3,0.2,0.6,0.3,0.9c-3.1-3-3.8-9.2,1.2-10.4c0.1,0,0.1-0.1,0.2-0.1c0.2,0,0.4,0,0.6-0.1C22,33.2,22.2,33.1,22.4,33.1z
			 M18.6,16.2c0.7,0.2,2.7,0.2,3.2,0.3c1,0.2,2,0.5,3,0.8c1.2,0.4,2.5,0.8,3.7,1.3c3.5,1.3,7.1,2.6,10.8,2.9c0.7,0,1.4,0,2.1,0
			c-0.7,0.9-1.1,2.1-1.1,3.3c0,0.7,0.1,1.4,0.4,2.1c0,0,0,0-0.1,0l-1,0c-0.8,0-1.6-0.3-2.4-0.4c-1.4-0.5-2.7-1.2-3.8-2.1L33,24
			l0.5,0.4c1.1,1,2.4,1.9,3.8,2.4c0.1,0,0.2,0.1,0.3,0.1c-0.7-0.1-1.3-0.2-2-0.3c-1.9-0.5-3.7-1.4-5.3-2.7l-0.4-0.3l0.6,0.5
			c1.5,1.4,3.4,2.4,5.4,3c0.4,0.1,0.8,0.1,1.1,0.2c0,0-0.1,0-0.1,0c-0.1,0-0.2,0-0.3,0l-0.8,0.2c-0.7,0.1-1.4,0-2.1-0.1
			c-1.2-0.3-2.5-0.8-3.5-1.6l-0.3-0.2l0.4,0.4c1,1,2.3,1.6,3.6,1.9c0.1,0,0.2,0,0.3,0c-0.2,0.1-0.5,0.1-0.7,0.2
			c-0.8,0-1.5-0.2-2.3-0.4c-1.8-0.6-3.4-1.7-4.9-2.8L26,24.9l0.6,0.5c1.5,1.2,3.1,2.4,5,3.1c0.2,0.1,0.3,0.1,0.5,0.2l-0.6,0.1
			c-0.6,0.1-1.3,0-2,0c-1.2-0.3-2.3-0.9-3.3-1.8l-0.2-0.2l0.4,0.4c0.9,1,2.1,1.7,3.3,2.1c0.2,0,0.5,0.1,0.7,0.1
			c-0.3,0.1-0.6,0.1-0.9,0.2c-0.8,0.1-1.7-0.1-2.6-0.4c-1.5-0.6-2.8-1.6-4-2.7l-0.3-0.3l0.5,0.5c1.1,1.2,2.5,2.4,4.1,3
			c0.2,0.1,0.4,0.2,0.6,0.2l-0.1,0c-0.6,0.1-1.1-0.1-1.7-0.1c-1-0.3-2-0.8-2.9-1.5l-0.2-0.2l0.3,0.3c0.8,0.8,1.8,1.5,2.9,1.9
			c0.3,0.1,0.7,0.2,1,0.2c-0.1,0-0.2,0.1-0.3,0.1l-0.4,0c-1,0.1-1.9-0.2-3-0.3c-1.7-0.6-3.3-1.5-4.7-2.8l-0.3-0.3l0.5,0.5
			c1.3,1.4,2.9,2.5,4.8,3.1c0.3,0,0.5,0.1,0.8,0.2L24,31.3c-0.5,0.1-1,0-1.6,0c-1-0.2-1.9-0.5-2.8-1.1l-0.2-0.1l0.3,0.3
			c0.7,0.7,1.6,1.1,2.6,1.3c-0.9,0.1-1.7-0.3-2.6-0.4c-1.6-0.6-3-1.7-4.1-3l-0.3-0.3l0.5,0.5c1.1,1.4,2.5,2.6,4.2,3.3
			c0.3,0.1,0.7,0.2,1,0.3l-0.2,0c-0.5,0-1.1-0.2-1.7-0.3c-1-0.3-1.9-0.7-2.8-1.2L16,30.6l0.3,0.2c0.7,0.5,1.5,1,2.4,1.4
			c-0.7-0.1-1.4-0.3-2.1-0.6c-1.7-0.7-3.2-2-4.4-3.4L12,27.9l0.5,0.6c1,1.3,2.3,2.5,3.8,3.3c-5.1-1.5-9.2-5.2-13.7-7.8
			C7.5,21.1,12.6,16.5,18.6,16.2z M20.1,4c-0.5,0.5-0.9,1.1-1.2,1.7c-0.7,1.6-0.4,3.4,0.5,4.8l0.2,0.3l-0.3-0.6
			c-0.7-1.5-0.7-3.2,0.2-4.6c0.4-0.8,1.2-1.4,2-1.8c0.1-0.1,0.4-0.2,0.7-0.3c0,0,0,0,0,0c-1.9,3.2-0.7,7,2.3,9.4
			c4.7,3.8,10.4,3.9,16.1,5.1c1,0.4,1.8,1,2.4,1.8c0,0-0.1,0-0.1,0.1c-0.2-0.1-0.4-0.3-0.7-0.4c-1-0.4-2-0.7-3.1-0.8
			c-1.8-0.3-3.7-0.2-5.5-0.8l-0.4-0.1l0.8,0.3c1.9,0.6,3.8,0.7,5.6,1.2c0.9,0.2,1.9,0.5,2.6,1.1c-0.4,0-0.7,0.1-1.1,0.1
			c-0.1,0-0.2,0-0.3,0c-0.2,0-0.5,0-0.7,0c-4.5-0.1-8.6-1.8-13-3.3c-1.5-0.5-3-1-4.6-1.4c-0.2-0.1-0.5-0.1-0.8-0.1c0,0,0,0-0.1,0
			c-0.6-0.1-1.2-0.2-1.8-0.3c-1.1-0.2-2.1-0.6-2.7-1.6C15.6,10.1,16.9,5.6,20.1,4z"/>
	</g>
	<path fill="#090909" d="M132,23.8c0,2.5-2,4.5-4.5,4.5c-2.5,0-4.5-2-4.5-4.5c0-2.5,2-4.5,4.5-4.5C130,19.3,132,21.3,132,23.8z"/>
</g>
</svg>
