<?xml version="1.0" encoding="utf-8"?>
<!-- Generator: Adobe Illustrator 18.0.0, SVG Export Plug-In . SVG Version: 6.00 Build 0)  -->
<!DOCTYPE svg PUBLIC "-//W3C//DTD SVG 1.1//EN" "http://www.w3.org/Graphics/SVG/1.1/DTD/svg11.dtd">
<svg version="1.1" id="Layer_1" xmlns="http://www.w3.org/2000/svg" xmlns:xlink="http://www.w3.org/1999/xlink" x="0px" y="0px"
	 width="309.4px" height="39px" viewBox="0 0 309.4 39" enable-background="new 0 0 309.4 39" xml:space="preserve">
<g>
	<g>
		<path fill="none" stroke="#000000" stroke-width="2" stroke-miterlimit="10" d="M291.7,25.5V12.5c-6.3-0.2-11.4-5.2-11.6-11.5
			H28.9c0,0.2,0,0.3,0,0.5c0,6.6-5.4,12-12,12c-0.1,0-0.1,0-0.2,0v12c0.1,0,0.1,0,0.2,0c6.6,0,12,5.4,12,12c0,0.2,0,0.3,0,0.5h251.2
			c0-0.2,0-0.3,0-0.5C280.1,31,285.2,25.7,291.7,25.5z"/>
	</g>
	<circle cx="31.5" cy="19.5" r="3.5"/>
	<circle cx="277.5" cy="19.5" r="3.5"/>
	<g>
		<polygon points="307.3,19 295.3,13.8 295.3,25.3 		"/>
	</g>
	<g>
		<polygon points="1.3,19 13.3,13.8 13.3,25.3 		"/>
	</g>
</g>
</svg>
