<?xml version="1.0" encoding="utf-8"?>
<!-- Generator: Adobe Illustrator 18.0.0, SVG Export Plug-In . SVG Version: 6.00 Build 0)  -->
<!DOCTYPE svg PUBLIC "-//W3C//DTD SVG 1.1//EN" "http://www.w3.org/Graphics/SVG/1.1/DTD/svg11.dtd">
<svg version="1.1" id="Layer_1" xmlns="http://www.w3.org/2000/svg" xmlns:xlink="http://www.w3.org/1999/xlink" x="0px" y="0px"
	 width="211px" height="211px" viewBox="0 0 211 211" enable-background="new 0 0 211 211" xml:space="preserve">
<g>
	<g>
		<path d="M1.5,211c-0.2-8.7-0.3-17.5-0.4-26.2l-0.3-26.2l-0.4-52.4c-0.1-8.7-0.1-17.5-0.1-26.2L0.1,53.9L0,1.5L0,0l1.5,0l52.4,0.1
			l26.2,0.1c8.7,0,17.5,0.1,26.2,0.1l52.4,0.4l26.2,0.3c8.7,0.1,17.5,0.2,26.2,0.4c-8.7,0.2-17.5,0.3-26.2,0.4l-26.2,0.3l-52.4,0.4
			c-8.7,0.1-17.5,0.1-26.2,0.1L53.9,2.8L1.5,2.9l1.5-1.5L2.8,53.9L2.7,80.1c0,8.7-0.1,17.5-0.1,26.2l-0.4,52.4l-0.3,26.2
			C1.8,193.6,1.6,202.3,1.5,211z"/>
	</g>
	<g>
		<g>
			<g>
				<g>
					<path d="M35.1,152.1c0,0,0.1,0.2,0.2,0.8c0.1,0.5,0,1.4-0.6,2.3c-0.5,0.9-1.6,1.8-3.2,2.1c-0.7,0.1-1.7-0.1-2.4-0.5
						c-0.8-0.4-1.5-1.1-2.1-1.9c-0.6-0.8-1-1.8-1.2-2.9c-0.2-1.1,0-2.3,0.4-3.4c0.8-2.3,2.8-4.3,5.4-5.3c0.7-0.2,1.4-0.4,2.1-0.5
						l0.3,0c0.1,0,0.1,0,0.2,0l0.1,0l0.5,0c0.3,0,0.7,0.1,1.1,0.1c1.5,0.2,2.9,0.9,4.2,1.8c1.3,0.9,2.3,2.2,3.1,3.6
						c0.8,1.4,1.3,3.2,1.3,4.8c0.1,3.5-1.3,7-3.8,9.7c-2.5,2.7-6.3,4.2-10.2,4.3c-1.9,0.1-3.9-0.2-5.8-0.9c-1.9-0.7-3.6-1.8-5-3.3
						c-1.4-1.4-2.5-3.2-3.3-5.1c-0.1-0.2-0.2-0.4-0.3-0.7l-0.2-0.7c-0.1-0.5-0.3-0.9-0.4-1.4l-0.3-1.5L15,152
						c-0.3-4.1,0.8-8.3,2.5-12c1.7-3.8,4.2-7.2,6.9-10.5c2.7-3.2,5.7-6.3,8.5-9.4c2.8-3.1,5.5-6.5,7.8-10c4.5-7.1,7.8-15.1,9.6-23.2
						c0.9-4.1,1.5-8.1,1.6-12.2c0.2-4,0-8.1-0.6-11.9c-0.6-3.9-1.7-7.6-3.4-10.9c-1.6-3.3-3.9-6.3-6.5-8.6c-1.3-1.2-2.7-2.2-4.2-3.1
						c-1.5-0.8-3-1.5-4.6-1.9c-1.6-0.4-3.2-0.6-4.7-0.5c-0.4,0-0.8,0.1-1.2,0.1l-0.6,0.1l-0.3,0L25.5,38c-0.4,0.1-0.7,0.2-1.1,0.3
						c-0.4,0.1-0.7,0.3-1,0.4c-2.7,1.3-4.7,3.6-5.3,6.2c-0.6,2.5,0.3,5.3,1.9,7c0.4,0.4,0.9,0.8,1.3,1.1c0.6,0.3,1,0.5,1.6,0.6
						c1.1,0.2,2.2,0.2,3.2-0.1c2-0.6,3.3-2.4,3.3-4.1c0.1-1.7-0.8-3.3-2-3.9c-1.2-0.7-2.5-0.5-3.4-0.1c-0.9,0.4-1.4,1-1.7,1.4
						c-0.3,0.4-0.3,0.7-0.3,0.7L22,47.5c0,0,0.1-0.3,0.3-0.7c0.3-0.5,0.8-1.1,1.7-1.6c0.9-0.4,2.3-0.7,3.8,0
						c1.4,0.7,2.5,2.4,2.5,4.4c0,0.2,0,0.5-0.1,0.8c-0.1,0.3-0.1,0.4-0.2,0.7c-0.2,0.5-0.4,1-0.7,1.5c-0.7,0.9-1.7,1.6-2.8,2
						c-2.3,0.8-5.3,0.4-7.3-1.7c-2-2-3.2-5.1-2.5-8.3c0.6-3.1,3-5.9,6-7.4c0.4-0.2,0.8-0.4,1.2-0.5c0.4-0.2,0.9-0.3,1.2-0.4l0.3-0.1
						l0.3-0.1l0.6-0.1c0.4-0.1,0.9-0.2,1.3-0.2c1.8-0.2,3.6,0,5.3,0.4c1.8,0.4,3.5,1.2,5.1,2.1c1.6,0.9,3.1,2,4.6,3.3
						c2.8,2.5,5.2,5.7,7,9.2c1.8,3.5,3,7.5,3.6,11.5c0.6,4,0.7,8.2,0.5,12.4c-0.2,4.1-0.8,8.4-1.8,12.5c-1,4.1-2.4,8.2-4.1,12.1
						c-1.8,3.9-3.9,7.7-6.3,11.2c-4.8,7.2-11.3,12.9-16.7,19.3c-2.7,3.2-5,6.7-6.7,10.4c-1.7,3.7-2.5,7.8-2.1,11.6l0.2,1.4l0.3,1.4
						c0.1,0.5,0.3,0.9,0.4,1.4l0.2,0.7c0.1,0.2,0.2,0.4,0.3,0.6c0.8,1.7,1.8,3.3,3.2,4.5c1.3,1.3,2.9,2.2,4.5,2.8
						c1.7,0.6,3.5,0.8,5.2,0.8c3.5-0.1,6.8-1.6,9-3.9c2.2-2.3,3.5-5.4,3.4-8.4c0-3-1.6-5.7-3.7-7.4c-1.1-0.8-2.3-1.4-3.5-1.7
						c-0.3,0-0.6-0.1-0.9-0.1l-0.5,0l-0.1,0c0,0-0.1,0-0.1,0l-0.2,0c-0.6,0-1.2,0.2-1.8,0.3c-2.3,0.7-4.1,2.5-4.9,4.4
						c-0.8,1.9-0.5,4,0.5,5.5c0.9,1.5,2.4,2.3,3.8,2.2c1.3-0.1,2.4-0.9,2.9-1.7c0.6-0.8,0.7-1.6,0.6-2c0-0.5-0.1-0.8-0.1-0.8
						L35.1,152.1z"/>
				</g>
				<g>
					<path d="M23.1,72.4c0,0-0.1,0-0.2,0c-0.1,0-0.3,0.1-0.6,0.1c-0.5,0-1.3,0-2.2-0.6c-0.9-0.5-1.9-1.6-2-3.1
						c-0.1-1.6,0.8-3.3,2.6-4.3c0.9-0.5,2-0.7,3.1-0.5c1.1,0.2,2.2,0.8,3,1.6c0.9,0.9,1.5,2,1.7,3.3c0.2,1.3-0.1,2.7-0.7,3.9
						c-0.2,0.3-0.3,0.6-0.5,0.9L27,74.1l-0.2,0.2l-0.3,0.4c-0.2,0.3-0.5,0.5-0.8,0.8c-0.3,0.2-0.6,0.4-0.9,0.6
						c-1.3,0.8-2.9,1.1-4.4,1c-3.1-0.2-6.2-2-7.9-5c-1.8-2.9-2-6.8-0.6-10.2c0.2-0.4,0.4-0.8,0.6-1.3l0.7-1.1
						c0.2-0.4,0.6-0.7,0.9-1.1c0.3-0.4,0.6-0.7,1-1c1.4-1.3,3.1-2.2,4.9-2.8c7.3-2.4,16,0.9,20.9,7.1c2.6,3.1,4.4,6.8,5.5,10.7
						c0.6,2,1,4,1.2,6c0.2,2.1,0.3,4.1,0.2,6.2c0,4.1-0.6,8.3-1.5,12.4c-0.9,4.1-2.4,8.1-4.3,11.9c-2,3.7-4.7,7.2-8,9.9
						c-3.3,2.7-7.3,4.6-11.6,5.2c-4.2,0.6-8.7-0.2-12.4-2.3c-3.7-2-6.7-5.5-7.9-9.5l-0.2-0.8c0-0.1-0.1-0.2-0.1-0.4l-0.1-0.4
						c-0.1-0.5-0.2-0.9-0.2-1.5c-0.1-1.1-0.1-2.1-0.1-3.1c0.1-2,0.6-4,1.4-5.9c1.6-3.7,4.5-6.7,8.1-8.2c0.9-0.4,1.8-0.6,2.8-0.9
						c0.4-0.1,0.9-0.2,1.4-0.2c0.5,0,1-0.1,1.4-0.1c1.9,0,3.7,0.4,5.4,1.2c1.7,0.7,3.2,1.9,4.3,3.2c0.1,0.2,0.3,0.3,0.4,0.5l0.3,0.5
						c0.2,0.4,0.5,0.8,0.7,1.2c0.4,0.8,0.7,1.6,0.9,2.4c0.4,1.6,0.5,3.3,0.2,4.9c-0.3,1.6-1,3.1-1.9,4.3c-2,2.5-4.8,3.8-7.6,3.8
						c-2.8,0.1-5.3-1.2-6.7-3.2c-1.4-2-1.5-4.5-0.4-6.2c1-1.7,2.9-2.5,4.4-2.4c1.6,0.1,2.6,1.1,3.1,2c0.5,0.9,0.5,1.7,0.4,2.3
						c-0.1,0.5-0.2,0.8-0.2,0.8l-0.2-0.1c0,0,0.1-0.2,0.1-0.7c0-0.5,0-1.2-0.5-2.1c-0.5-0.8-1.5-1.6-2.8-1.7
						c-1.3-0.1-2.9,0.7-3.7,2.2c-0.8,1.5-0.7,3.6,0.6,5.2c1.2,1.6,3.4,2.7,5.8,2.5c2.3-0.1,4.8-1.4,6.4-3.4c1.7-2.1,2.1-5.1,1.4-7.9
						c-0.2-0.7-0.5-1.4-0.8-2c-0.2-0.3-0.4-0.6-0.6-0.9l-0.4-0.5c-0.1-0.1-0.2-0.3-0.3-0.4c-1-1.1-2.2-2-3.7-2.6c-1.4-0.6-3-1-4.6-1
						c-0.4,0-0.8,0-1.2,0.1c-0.4,0-0.8,0.1-1.2,0.2c-0.7,0.2-1.6,0.4-2.3,0.7c-3.1,1.3-5.6,3.9-7,7.2c-0.7,1.6-1.1,3.4-1.2,5.2
						c0,0.9,0,1.8,0.1,2.7c0,0.4,0.1,0.9,0.2,1.4l0.1,0.4c0,0,0.1,0.2,0.1,0.3l0.2,0.7c1,3.5,3.5,6.6,6.9,8.5
						c3.3,1.9,7.3,2.7,11.3,2.2c3.9-0.4,7.7-2.2,10.9-4.6c3.2-2.5,5.9-5.7,8-9.3c4.1-7.2,6-15.6,6.2-23.7c0.1-4.1-0.3-8.2-1.5-12
						c-1.1-3.8-3.1-7.4-5.6-10.2c-0.6-0.7-1.3-1.4-2-2L37,59.6l-1.2-0.9c-1.5-1-3.2-1.8-5-2.4c-3.5-1.1-7.2-1.2-10.4-0.1
						c-1.6,0.5-3.1,1.4-4.2,2.5c-0.3,0.3-0.6,0.5-0.8,0.9c-0.2,0.3-0.5,0.6-0.7,0.9L14,61.6c-0.2,0.3-0.4,0.7-0.5,1
						c-1.3,2.9-1.1,6.2,0.4,8.7c0.7,1.3,1.7,2.3,2.9,3c1.2,0.7,2.5,1.2,3.8,1.3c1.3,0.1,2.6-0.2,3.6-0.7c0.3-0.1,0.5-0.3,0.8-0.5
						c0.2-0.2,0.4-0.3,0.7-0.6l0.3-0.4l0.1-0.1l0.1-0.2c0.2-0.2,0.3-0.5,0.5-0.7c0.6-1,0.8-2.1,0.7-3.2c0-0.3-0.1-0.5-0.1-0.8
						c-0.1-0.3-0.2-0.5-0.3-0.7c-0.2-0.5-0.5-0.9-0.9-1.3c-1.4-1.5-3.5-1.9-5-1.2c-1.5,0.7-2.4,2.2-2.4,3.5c0,1.4,0.9,2.3,1.6,2.8
						c0.8,0.5,1.5,0.7,2,0.7c0.5,0,0.7-0.1,0.7-0.1L23.1,72.4z"/>
				</g>
				<g>
					<path d="M12.1,41.7c0,0-0.1,0-0.2,0c-0.1,0-0.3,0-0.6,0.1c-0.5,0.2-1.2,0.6-1.6,1.5c-0.4,0.8-0.5,2.1,0.2,3.2
						c0.3,0.5,0.8,1,1.5,1.1c0.1,0.1,0.3,0.1,0.5,0.1c0.1,0,0.2,0,0.2,0l0.3,0c0.3,0,0.7-0.1,1-0.2c0.7-0.3,1.4-0.7,1.8-1.4
						c0.2-0.3,0.4-0.7,0.5-1c0.1-0.4,0.1-0.8,0.1-1.2c-0.1-0.8-0.4-1.6-1-2.3c-0.3-0.3-0.6-0.6-1-0.9l-0.1-0.1l-0.1,0l0,0l0,0
						c0,0,0.1,0.1,0,0l-0.4-0.2c-0.2-0.1-0.5-0.3-0.7-0.3c-0.8-0.3-1.8-0.3-2.6-0.1c-0.9,0.2-1.8,0.7-2.6,1.3
						c-1.6,1.2-2.9,3.1-3.7,5l-0.1,0.4c0,0.1-0.1,0.3-0.1,0.4c-0.1,0.3-0.2,0.5-0.3,0.8c-0.1,0.5-0.3,1-0.4,1.5
						c-0.2,1.1-0.3,2.1-0.4,3.2c0,1.1,0,2.1,0.1,3.2c0.1,1,0.3,2.1,0.6,3.1c0.5,2,1.3,3.8,2.2,5.5c0.9,1.7,2,3.2,3,4.4
						c2.2,2.6,4.3,4.4,5.9,5.6c1.6,1.2,2.6,1.8,2.6,1.8s-0.3-0.1-0.7-0.4c-0.5-0.2-1.2-0.6-2-1.1c-1.7-1-4.1-2.6-6.6-5.2
						c-1.2-1.3-2.4-2.7-3.5-4.5c-1.1-1.7-2-3.7-2.6-5.8c-0.6-2.1-1-4.4-0.9-6.8c0-1.2,0.2-2.4,0.4-3.5c0.1-0.6,0.3-1.2,0.4-1.8
						c0.1-0.3,0.2-0.5,0.3-0.8c0.1-0.1,0.1-0.2,0.1-0.4l0.2-0.4c1-2.3,2.4-4.3,4.3-5.8c1-0.7,2.1-1.3,3.3-1.6
						c1.3-0.2,2.5-0.2,3.7,0.3c0.3,0.1,0.5,0.2,0.7,0.4l0.4,0.2l0.1,0l0,0l0,0l0.1,0.1l0.2,0.1c0.5,0.4,0.9,0.8,1.3,1.3
						c0.7,0.9,1.1,2.1,1.2,3.2c0,0.5,0,1.2-0.2,1.7c-0.2,0.5-0.4,1-0.8,1.5c-0.7,0.8-1.6,1.4-2.5,1.7c-0.5,0.1-0.9,0.2-1.4,0.2
						l-0.3,0c-0.1,0-0.2,0-0.4-0.1c-0.2-0.1-0.4-0.1-0.7-0.2c-0.8-0.3-1.5-1-1.8-1.7c-0.7-1.4-0.4-2.8,0.1-3.7
						c0.5-0.9,1.4-1.3,1.9-1.4c0.3-0.1,0.5,0,0.6-0.1C12.1,41.7,12.1,41.7,12.1,41.7z"/>
				</g>
			</g>
			<g>
				<path d="M16.1,176.4c0,0,0.1,0,0.3-0.1c0.2,0,0.5-0.1,0.8-0.1c0.7,0,1.9,0.2,3,1.2c1.1,0.9,2,2.8,1.4,4.9
					c-0.6,2.1-2.6,3.9-5.1,4.5c-0.6,0.2-1.3,0.2-2,0.2c-0.7,0-1.4-0.1-2.1-0.2c-1.4-0.3-2.7-1-3.9-1.8c-1.2-0.9-2.3-2-3-3.4
					c-0.8-1.3-1.4-2.8-1.7-4.4c-0.7-3.1-0.5-6.4,0.1-9.5c0.1-0.8,0.3-1.5,0.4-2.3c0.2-0.8,0.3-1.6,0.5-2.3c0.3-1.6,0.8-3.1,1.2-4.6
					c0.5-1.5,1-3,1.5-4.5c0.6-1.5,1.1-3,1.8-4.4c0.6-1.4,1.3-2.8,2-4.2c0.7-1.4,1.5-2.7,2.2-3.9c1.5-2.6,3.1-4.9,4.8-7.1
					c0.8-1.1,1.7-2.1,2.4-3.1c0.8-1,1.7-1.9,2.4-2.8c1.6-1.7,3.1-3.3,4.6-4.6c1.4-1.3,2.7-2.4,3.7-3.3c1.1-0.9,1.9-1.5,2.5-1.9
					c0.6-0.4,0.9-0.7,0.9-0.7l0.1,0.1c0,0-0.3,0.3-0.8,0.8c-0.5,0.5-1.3,1.3-2.2,2.2c-0.9,1-2.1,2.2-3.3,3.6c-1.3,1.4-2.6,3-4.1,4.8
					c-0.7,0.9-1.4,1.9-2.2,2.9c-0.7,1-1.5,2.1-2.2,3.2c-1.5,2.2-2.9,4.6-4.3,7.1c-0.7,1.3-1.4,2.5-2,3.9c-0.7,1.3-1.3,2.7-1.9,4.1
					c-0.6,1.4-1.1,2.8-1.7,4.2c-0.5,1.4-1,2.9-1.4,4.4c-0.4,1.5-0.9,2.9-1.2,4.4c-0.2,0.7-0.3,1.5-0.5,2.2c-0.1,0.8-0.3,1.5-0.4,2.3
					c-0.6,2.9-0.8,5.8-0.3,8.5c0.3,1.3,0.7,2.6,1.3,3.7c0.6,1.1,1.4,2.1,2.3,2.8c0.9,0.8,2,1.3,3,1.7c0.5,0.2,1.1,0.3,1.6,0.3
					c0.6,0,1.1,0,1.6-0.1c2-0.4,3.8-1.6,4.4-3.2c0.3-0.8,0.3-1.6,0.2-2.3c-0.1-0.7-0.5-1.4-0.9-1.8c-0.9-1-1.9-1.4-2.6-1.5
					c-0.4-0.1-0.6,0-0.8,0C16.2,176.4,16.1,176.4,16.1,176.4z"/>
			</g>
			<g>
				<path d="M43.3,42.5c0,0-0.2-0.2-0.7-0.5c-0.4-0.3-1.1-0.8-1.9-1.4c-1.7-1.1-4.2-2.6-7.5-3.6c-1.6-0.5-3.5-0.9-5.4-1.1
					c-2-0.2-4-0.2-6.2-0.2c-2.2,0-4.4,0.2-6.8,0.1c-2.4-0.1-4.8-0.4-7.1-1.4c-1.2-0.5-2.2-1.1-3.2-2.1c-0.9-1-1.5-2.2-1.8-3.5
					c-0.3-1.3-0.3-2.6,0-3.8c0.3-1.2,0.8-2.4,1.6-3.3c1.7-1.9,4.2-2.6,6.4-2.2c1.1,0.2,2.1,0.7,2.9,1.4c0.8,0.7,1.3,1.6,1.6,2.6
					c0.4,1.9-0.4,3.8-1.8,4.6c-1.4,0.8-2.9,0.4-3.8-0.2c-0.9-0.6-1.2-1.4-1.4-2c0-0.3-0.1-0.5-0.1-0.6c0-0.1,0-0.2,0-0.2
					s0,0.1,0,0.2c0,0.1,0,0.3,0.1,0.6c0.2,0.5,0.6,1.2,1.5,1.7c0.4,0.2,0.9,0.4,1.5,0.4c0.3,0,0.5,0,0.9-0.1
					c0.3-0.1,0.6-0.2,0.8-0.4c1-0.7,1.6-2.3,1.2-3.8c-0.2-0.7-0.7-1.4-1.4-1.9c-0.6-0.5-1.5-0.9-2.3-1c-1.7-0.3-3.8,0.5-5,1.9
					c-1.2,1.5-1.7,3.7-1.2,5.7c0.2,1,0.7,1.9,1.4,2.6c0.7,0.7,1.6,1.3,2.6,1.7c2,0.9,4.3,1.2,6.5,1.3c2.3,0.1,4.5,0.1,6.7,0.1
					c2.2,0,4.4,0.1,6.4,0.4c2,0.3,3.9,0.8,5.6,1.5c3.3,1.3,5.8,3,7.4,4.3c0.8,0.6,1.4,1.2,1.8,1.6C43.1,42.3,43.3,42.5,43.3,42.5z"
					/>
			</g>
		</g>
		<g>
			<g>
				<g>
					<path d="M151.9,35.1c0,0,0.3,0.1,0.8,0.1c0.5,0,1.3-0.1,2-0.6c0.8-0.5,1.6-1.6,1.7-2.9c0.1-1.4-0.7-2.9-2.2-3.8
						c-1.5-1-3.5-1.3-5.5-0.5c-1.9,0.8-3.7,2.6-4.4,4.9c-0.2,0.6-0.3,1.2-0.3,1.8l0,0.2c0,0,0,0.1,0,0.1l0,0.1l0,0.5
						c0,0.4,0.1,0.6,0.1,0.9c0.2,1.2,0.8,2.4,1.7,3.5c1.7,2.1,4.3,3.7,7.4,3.7c2.9,0.1,6.1-1.2,8.4-3.4c2.3-2.2,3.7-5.5,3.9-9
						c0.1-1.7-0.2-3.5-0.8-5.2c-0.6-1.6-1.5-3.2-2.8-4.5c-1.3-1.3-2.8-2.4-4.5-3.2c-0.2-0.1-0.5-0.2-0.6-0.3l-0.7-0.2
						c-0.5-0.2-0.9-0.4-1.4-0.4l-1.4-0.3l-1.4-0.2c-3.9-0.4-7.9,0.4-11.6,2.1c-3.7,1.6-7.2,4-10.4,6.7c-6.4,5.4-12.1,11.9-19.3,16.7
						c-3.5,2.4-7.3,4.5-11.2,6.3c-3.9,1.7-8,3.1-12.1,4.1c-4.1,1-8.3,1.6-12.5,1.8c-4.2,0.3-8.3,0.1-12.4-0.5c-4-0.6-8-1.8-11.5-3.6
						c-3.6-1.8-6.7-4.2-9.2-7c-1.3-1.4-2.4-2.9-3.3-4.6c-0.9-1.6-1.7-3.3-2.1-5.1c-0.4-1.8-0.6-3.6-0.4-5.3c0-0.4,0.1-0.9,0.2-1.3
						l0.1-0.6l0.1-0.3l0.1-0.3c0.1-0.4,0.2-0.8,0.4-1.2c0.2-0.4,0.3-0.8,0.5-1.2c1.5-3.1,4.3-5.4,7.4-6c3.2-0.6,6.3,0.5,8.3,2.5
						c2.1,2.1,2.5,5,1.7,7.3c-0.4,1.2-1.1,2.2-2,2.8c-0.4,0.3-1,0.6-1.5,0.7c-0.3,0.1-0.5,0.1-0.7,0.2c-0.3,0-0.5,0.1-0.8,0.1
						c-2,0-3.7-1.1-4.4-2.5c-0.7-1.4-0.4-2.8,0-3.8c0.5-0.9,1.1-1.5,1.6-1.7c0.5-0.3,0.7-0.3,0.7-0.3l0.1,0.2c0,0-0.3,0.1-0.7,0.3
						c-0.4,0.3-1,0.8-1.4,1.7c-0.4,0.9-0.5,2.2,0.1,3.4c0.6,1.2,2.2,2.1,3.9,2c1.7-0.1,3.5-1.3,4.1-3.3c0.3-1,0.3-2.1,0.1-3.2
						c-0.2-0.6-0.3-1-0.6-1.6c-0.3-0.4-0.6-1-1.1-1.3c-1.7-1.7-4.5-2.5-7-1.9c-2.6,0.6-5,2.6-6.2,5.3c-0.2,0.3-0.3,0.7-0.4,1
						c-0.1,0.4-0.2,0.7-0.3,1.1L37.8,26l0,0.3l-0.1,0.6c-0.1,0.4-0.1,0.8-0.1,1.2c-0.2,1.6,0.1,3.2,0.5,4.7c0.4,1.6,1.1,3.1,1.9,4.6
						c0.8,1.5,1.9,2.9,3.1,4.2c2.4,2.6,5.3,4.9,8.6,6.5c3.3,1.7,7.1,2.8,10.9,3.4c3.9,0.6,7.9,0.8,11.9,0.6
						c4.1-0.2,8.1-0.7,12.2-1.6c8.1-1.8,16-5.1,23.2-9.6c3.6-2.3,6.9-4.9,10-7.8c3.1-2.8,6.2-5.8,9.4-8.5c3.3-2.7,6.7-5.1,10.5-6.9
						c3.8-1.7,7.9-2.8,12-2.5l1.5,0.2l1.5,0.3c0.5,0.1,1,0.3,1.4,0.4l0.7,0.2c0.3,0.1,0.5,0.2,0.7,0.3c1.9,0.8,3.6,1.9,5.1,3.3
						c1.4,1.4,2.6,3.1,3.3,5c0.7,1.8,1,3.8,0.9,5.8c-0.1,3.8-1.6,7.6-4.3,10.2c-2.7,2.5-6.2,3.9-9.7,3.8c-1.7,0-3.4-0.5-4.8-1.3
						c-1.4-0.8-2.7-1.8-3.6-3.1c-0.9-1.3-1.6-2.7-1.8-4.2c0-0.4-0.1-0.8-0.1-1.1l0-0.5l0-0.1c0-0.1,0-0.1,0-0.2l0-0.3
						c0-0.7,0.2-1.4,0.5-2.1c1-2.6,3-4.6,5.3-5.4c1.1-0.4,2.4-0.5,3.4-0.4c1.1,0.1,2.1,0.6,2.9,1.2c0.8,0.6,1.5,1.3,1.9,2.1
						c0.4,0.8,0.6,1.7,0.5,2.4c-0.2,1.6-1.2,2.6-2.1,3.2c-0.9,0.6-1.7,0.6-2.3,0.6c-0.6-0.1-0.8-0.2-0.8-0.2L151.9,35.1z"/>
				</g>
				<g>
					<path d="M72,23.2c0,0,0.1-0.3,0.1-0.7c0-0.5-0.1-1.2-0.7-2c-0.5-0.8-1.5-1.6-2.8-1.6c-1.3,0-2.8,0.9-3.5,2.4
						c-0.8,1.5-0.3,3.6,1.2,5c0.4,0.3,0.8,0.6,1.3,0.9c0.2,0.1,0.4,0.2,0.7,0.3c0.2,0.1,0.5,0.1,0.8,0.1c1.1,0.1,2.2-0.2,3.2-0.7
						c0.3-0.1,0.5-0.3,0.7-0.5l0.2-0.1l0.1-0.1l0.4-0.3c0.2-0.2,0.4-0.4,0.6-0.7c0.2-0.3,0.3-0.5,0.5-0.8c0.6-1.1,0.8-2.3,0.7-3.6
						c-0.1-1.3-0.5-2.6-1.3-3.8c-0.8-1.2-1.8-2.2-3-2.9c-2.5-1.5-5.8-1.6-8.7-0.4c-0.3,0.2-0.7,0.3-1,0.5l-1.1,0.7
						c-0.4,0.2-0.6,0.5-0.9,0.7c-0.3,0.2-0.6,0.5-0.9,0.8c-1.1,1.2-2,2.6-2.5,4.2c-1,3.2-1,6.9,0.1,10.4c0.5,1.7,1.3,3.4,2.4,5
						l0.9,1.2l0.9,1.1c0.6,0.7,1.3,1.4,2,2c2.9,2.5,6.4,4.5,10.2,5.6c3.8,1.2,7.9,1.6,12,1.5c8.2-0.2,16.5-2.1,23.7-6.2
						c3.6-2,6.8-4.7,9.3-8c2.5-3.2,4.2-7,4.6-10.9c0.5-3.9-0.3-7.9-2.2-11.3c-1.9-3.3-5-5.8-8.5-6.9L110.8,4c-0.1,0-0.3-0.1-0.3-0.1
						l-0.4-0.1c-0.5-0.1-1-0.2-1.4-0.2c-0.9-0.1-1.8-0.1-2.7-0.1c-1.8,0.1-3.6,0.5-5.2,1.2c-3.3,1.4-5.9,4-7.2,7
						c-0.3,0.7-0.6,1.6-0.7,2.3c-0.1,0.4-0.2,0.9-0.2,1.2c0,0.4-0.1,0.8-0.1,1.2c0,1.6,0.4,3.2,1,4.6c0.6,1.4,1.5,2.7,2.6,3.7
						c0.1,0.1,0.3,0.3,0.4,0.3l0.5,0.4c0.3,0.2,0.6,0.4,0.9,0.6c0.6,0.4,1.3,0.6,2,0.8c2.8,0.8,5.8,0.3,7.9-1.4
						c2-1.6,3.3-4.1,3.4-6.4c0.1-2.4-0.9-4.6-2.5-5.8c-1.6-1.3-3.8-1.4-5.2-0.6c-1.5,0.8-2.3,2.3-2.2,3.7c0,1.3,0.9,2.3,1.7,2.8
						c0.8,0.5,1.6,0.5,2.1,0.5c0.5,0,0.7-0.2,0.7-0.1l0.1,0.2c0,0-0.2,0.1-0.8,0.2c-0.5,0.1-1.3,0.1-2.3-0.4c-0.9-0.5-1.9-1.5-2-3.1
						c-0.2-1.5,0.7-3.4,2.4-4.4c1.7-1.1,4.2-1,6.2,0.4c2,1.4,3.3,3.9,3.2,6.7c-0.1,2.8-1.4,5.6-3.8,7.6c-1.2,0.9-2.7,1.7-4.3,1.9
						c-1.6,0.3-3.3,0.2-4.9-0.2c-0.8-0.2-1.6-0.5-2.4-0.9c-0.4-0.2-0.8-0.4-1.2-0.7l-0.5-0.3c-0.2-0.2-0.4-0.3-0.5-0.4
						c-1.4-1.1-2.5-2.6-3.2-4.3c-0.8-1.7-1.2-3.5-1.2-5.4c0-0.5,0-0.9,0.1-1.4c0-0.5,0.1-1,0.2-1.4c0.2-1,0.5-1.9,0.9-2.8
						c1.5-3.6,4.5-6.5,8.2-8.1c1.8-0.8,3.8-1.3,5.9-1.4c1-0.1,2,0,3.1,0.1c0.6,0,1,0.2,1.5,0.2l0.4,0.1c0.2,0,0.3,0.1,0.4,0.1
						l0.8,0.2c4,1.2,7.5,4.2,9.5,7.9c2.1,3.7,2.9,8.2,2.3,12.4c-0.6,4.3-2.5,8.3-5.2,11.6c-2.7,3.3-6.1,6-9.9,8
						c-3.8,2-7.8,3.4-11.9,4.3c-4.1,1-8.3,1.5-12.4,1.5c-2.1,0-4.1,0-6.2-0.2c-2-0.2-4.1-0.6-6-1.2c-3.9-1.1-7.6-2.9-10.7-5.5
						c-6.2-4.9-9.5-13.6-7.1-20.9c0.6-1.8,1.5-3.5,2.8-4.9c0.3-0.4,0.6-0.7,1-1c0.4-0.3,0.7-0.7,1.1-0.9l1.1-0.7
						c0.5-0.3,0.8-0.4,1.3-0.6c3.4-1.4,7.3-1.2,10.2,0.6c3,1.7,4.8,4.8,5,7.9c0.1,1.6-0.2,3.1-1,4.4c-0.2,0.3-0.4,0.6-0.6,0.9
						c-0.3,0.3-0.5,0.6-0.8,0.8L74.1,27l-0.2,0.2l-0.2,0.2c-0.3,0.2-0.6,0.4-0.9,0.5c-1.2,0.6-2.6,0.9-3.9,0.7
						c-1.4-0.2-2.5-0.8-3.3-1.7c-0.9-0.8-1.4-1.9-1.6-3c-0.2-1.1,0-2.2,0.5-3.1c1-1.8,2.7-2.7,4.3-2.6c1.6,0.1,2.6,1.1,3.1,2
						c0.5,0.9,0.6,1.7,0.6,2.2c0,0.3-0.1,0.5-0.1,0.6c0,0.1,0,0.2,0,0.2L72,23.2z"/>
				</g>
				<g>
					<path d="M41.5,12.3c0,0,0-0.1,0-0.2c0-0.1,0-0.3,0.1-0.6c0.1-0.5,0.5-1.3,1.4-1.9c0.9-0.5,2.3-0.8,3.7-0.1
						c0.7,0.3,1.3,1,1.7,1.8c0.1,0.2,0.1,0.4,0.2,0.7c0,0.1,0.1,0.2,0.1,0.4l0,0.3c0,0.5-0.1,1-0.2,1.4c-0.3,0.9-0.8,1.8-1.7,2.5
						c-0.4,0.3-0.9,0.6-1.5,0.8c-0.5,0.1-1.1,0.2-1.7,0.2c-1.1-0.1-2.3-0.5-3.2-1.2C40,16,39.6,15.5,39.2,15l-0.1-0.2L39,14.7l0,0
						l0,0l0-0.1l-0.2-0.4c-0.1-0.3-0.3-0.4-0.4-0.7c-0.5-1.2-0.6-2.5-0.3-3.7c0.3-1.2,0.8-2.4,1.6-3.3c1.5-2,3.5-3.4,5.8-4.3
						l0.4-0.2c0.2-0.1,0.3-0.1,0.4-0.1c0.3-0.1,0.5-0.2,0.8-0.3c0.6-0.2,1.2-0.3,1.8-0.4c1.2-0.2,2.4-0.3,3.5-0.4
						c2.3-0.1,4.6,0.3,6.8,0.9c2.1,0.6,4.1,1.5,5.8,2.6c1.7,1.1,3.2,2.3,4.5,3.5c2.5,2.4,4.1,4.9,5.2,6.6c0.5,0.9,0.9,1.6,1.1,2
						c0.2,0.5,0.4,0.7,0.4,0.7s-0.6-1-1.8-2.6c-1.2-1.6-3-3.8-5.6-5.9c-1.3-1.1-2.8-2.1-4.4-3c-1.7-0.9-3.5-1.7-5.5-2.2
						c-1-0.3-2-0.4-3.1-0.6c-1-0.1-2.1-0.2-3.2-0.1c-1.1,0-2.1,0.2-3.2,0.4c-0.5,0.1-1,0.2-1.5,0.4c-0.3,0.1-0.5,0.2-0.8,0.3
						c-0.1,0-0.3,0.1-0.4,0.1l-0.4,0.1c-1.9,0.8-3.8,2.1-5,3.7c-0.6,0.8-1.1,1.7-1.3,2.6C39.6,11,39.7,12,40,12.8
						c0,0.2,0.2,0.5,0.3,0.7l0.2,0.4c0,0.1,0-0.1,0,0l0,0l0,0l0,0.1l0.1,0.1c0.2,0.4,0.5,0.7,0.9,1c0.7,0.6,1.5,0.9,2.3,1
						c0.4,0,0.8,0,1.2-0.1c0.4-0.1,0.7-0.2,1-0.5c0.6-0.4,1.1-1.1,1.4-1.8c0.1-0.3,0.2-0.7,0.2-1l0-0.3c0-0.1,0-0.2,0-0.2
						c0-0.2,0-0.4-0.1-0.5c-0.2-0.6-0.6-1.2-1.1-1.5C45.3,9.5,44,9.6,43.2,10c-0.9,0.4-1.3,1.1-1.5,1.6c-0.1,0.2-0.1,0.5-0.1,0.6
						C41.6,12.3,41.5,12.3,41.5,12.3z"/>
				</g>
			</g>
			<g>
				<path d="M176.3,16.3c0,0,0,0.1,0,0.3c0,0.2,0,0.5,0,0.8c0.1,0.7,0.5,1.7,1.5,2.6c0.5,0.4,1.1,0.8,1.8,0.9
					c0.8,0.2,1.6,0.1,2.3-0.2c1.6-0.6,2.9-2.3,3.2-4.4c0.1-0.5,0.1-1,0.1-1.6c0-0.5-0.2-1.1-0.3-1.6c-0.3-1.1-0.9-2.1-1.7-3
					c-0.8-0.9-1.7-1.7-2.8-2.3c-1.1-0.6-2.4-1-3.7-1.3c-2.7-0.5-5.5-0.3-8.5,0.3c-0.8,0.1-1.5,0.3-2.3,0.4c-0.7,0.2-1.5,0.3-2.2,0.5
					c-1.5,0.3-2.9,0.8-4.4,1.2c-1.5,0.4-2.9,0.9-4.4,1.4c-1.4,0.6-2.9,1.1-4.2,1.7c-1.4,0.6-2.8,1.2-4.1,1.9c-1.3,0.6-2.6,1.3-3.9,2
					c-2.5,1.4-4.9,2.9-7.1,4.3c-1.1,0.7-2.1,1.5-3.2,2.2c-1,0.7-2,1.5-2.9,2.2c-1.8,1.5-3.4,2.8-4.8,4.1c-1.4,1.2-2.6,2.4-3.6,3.3
					c-1,0.9-1.7,1.7-2.2,2.2c-0.5,0.5-0.8,0.8-0.8,0.8l-0.1-0.1c0,0,0.2-0.3,0.7-0.9c0.4-0.6,1.1-1.5,1.9-2.5c0.9-1,1.9-2.4,3.3-3.7
					c1.3-1.4,2.8-2.9,4.6-4.6c0.9-0.8,1.8-1.6,2.8-2.4c1-0.8,2-1.6,3.1-2.4c2.2-1.6,4.5-3.3,7.1-4.8c1.3-0.8,2.6-1.5,3.9-2.2
					c1.3-0.7,2.8-1.4,4.2-2c1.4-0.7,2.9-1.2,4.4-1.8c1.5-0.5,3-1.1,4.5-1.5c1.5-0.4,3-0.9,4.6-1.2c0.8-0.2,1.6-0.4,2.3-0.5
					c0.8-0.1,1.5-0.3,2.3-0.4c3.1-0.6,6.4-0.7,9.5-0.1c1.5,0.3,3.1,0.9,4.4,1.7c1.4,0.8,2.5,1.9,3.4,3c0.9,1.2,1.5,2.5,1.8,3.9
					c0.2,0.7,0.3,1.3,0.2,2.1c0,0.6-0.1,1.3-0.2,2c-0.6,2.5-2.4,4.5-4.5,5.1c-2.1,0.6-4-0.3-4.9-1.4c-1-1.1-1.2-2.3-1.2-3
					c0-0.4,0.1-0.7,0.1-0.8C176.2,16.4,176.3,16.3,176.3,16.3z"/>
			</g>
			<g>
				<path d="M42.4,43.5c0,0-0.2-0.2-0.6-0.6c-0.4-0.4-0.9-1-1.6-1.8c-1.3-1.6-3-4.1-4.3-7.4c-0.7-1.7-1.2-3.5-1.5-5.6
					c-0.3-2-0.4-4.2-0.4-6.4c0-2.2,0-4.5-0.1-6.7c-0.1-2.2-0.4-4.5-1.3-6.5c-0.4-1-1-2-1.7-2.6c-0.7-0.7-1.6-1.2-2.6-1.4
					c-2-0.5-4.2,0-5.7,1.2c-1.4,1.2-2.2,3.2-1.9,5c0.1,0.9,0.5,1.7,1,2.3c0.5,0.7,1.2,1.2,1.9,1.4c1.5,0.4,3.1-0.1,3.8-1.2
					c0.2-0.3,0.3-0.6,0.4-0.8C28,12,28,11.8,28,11.5c0-0.6-0.2-1.1-0.4-1.5c-0.5-0.9-1.2-1.3-1.7-1.5c-0.3-0.1-0.5-0.1-0.6-0.1
					c-0.1,0-0.2,0-0.2,0s0.1,0,0.2,0c0.1,0,0.4,0,0.6,0.1c0.5,0.1,1.4,0.5,2,1.4c0.6,0.8,1,2.3,0.2,3.8c-0.8,1.4-2.7,2.2-4.6,1.8
					c-1-0.2-1.9-0.8-2.6-1.6c-0.7-0.8-1.2-1.8-1.4-2.9c-0.4-2.2,0.3-4.7,2.2-6.4c0.9-0.8,2.1-1.4,3.3-1.6c1.2-0.3,2.5-0.3,3.8,0
					c1.3,0.3,2.5,0.9,3.5,1.8c1,1,1.6,2,2.1,3.2c1,2.3,1.3,4.8,1.4,7.1c0.1,2.3-0.1,4.6-0.1,6.8c0,2.2,0,4.3,0.2,6.2
					c0.2,1.9,0.6,3.8,1.1,5.4c1.1,3.3,2.5,5.8,3.6,7.5c0.6,0.8,1,1.5,1.4,1.9C42.2,43.3,42.4,43.5,42.4,43.5z"/>
			</g>
		</g>
	</g>
</g>
</svg>
