<?xml version="1.0" encoding="utf-8"?>
<!-- Generator: Adobe Illustrator 18.0.0, SVG Export Plug-In . SVG Version: 6.00 Build 0)  -->
<!DOCTYPE svg PUBLIC "-//W3C//DTD SVG 1.1//EN" "http://www.w3.org/Graphics/SVG/1.1/DTD/svg11.dtd">
<svg version="1.1" id="Layer_1" xmlns="http://www.w3.org/2000/svg" xmlns:xlink="http://www.w3.org/1999/xlink" x="0px" y="0px"
	 width="360px" height="216px" viewBox="0 0 360 216" enable-background="new 0 0 360 216" xml:space="preserve">
<g>
	<path d="M162.6,70.3c-0.1,0.3,0.1,0.5,0.5,0.4c-0.3,0.6-0.9-0.1-1.1-0.4c0-0.1,0.1-0.1,0.1-0.2c0.1,0.1,0.2,0.1,0.2,0.2
		c0-0.1,0-0.2,0-0.3C162.5,70.1,162.5,70.2,162.6,70.3z M72.9,43c-0.1,0.1-0.3,0.1-0.4,0.2c-0.4-0.9-0.6-0.7-1.5-0.7
		c0.4-0.3,0.9-0.6,1.3-0.9c-0.2-0.1-0.3-0.2-0.4-0.3c0.2-0.1,0.4-0.3,0.7-0.4c-0.5-0.3-0.7-0.5-1.2-0.3c-0.6,0.2-0.8,0.3-1.3,0.1
		c-0.5-0.2-0.8-0.1-1.3,0c-0.2,0-0.6,0.6-0.7,0.7c0.2,0.1,1.2,0.4,1.2,0.6c0,0.5,0,1.2-0.7,1c-0.3-0.1-0.7-0.8-1.1-0.7
		c-0.4,0.1-0.9,0.4-0.4,0.8c0.8,0.7,1.8,0.9,2.5,1.8c0.3,0.4,0.6,0.9,1,1c0.4,0.1,1-0.2,0.9-0.7c0.7,0.3,2.4-0.9,1.3-1.3
		c0.2-0.1,0.4-0.2,0.5-0.2C73,43.5,72.9,43.3,72.9,43z M161.4,70.3c0,0.1-0.2,0.5,0.1,0.7c0-0.3,0-0.6,0.2-0.8
		c-0.1,0-0.3-0.1-0.4-0.1C161.2,70.3,161.3,70.3,161.4,70.3z M92.2,53.4c0.3,0.3,1.3,0.9,1.7,0.3c0.4-0.6,0.1-0.9,0.3-1.5
		C93.4,51,91.3,52.6,92.2,53.4z M98.1,46.1c-0.3-0.9-1.4-0.8-2.1-0.5c-0.4,0.1-1.3-1.3-1.7-1.7c-0.4-0.4-1.5-0.9-2.1-0.8
		c-0.3,0-1,0-1.2,0.2c-0.2,0.2-0.7,0.8-0.9,0.7c-0.6-0.4-0.6-0.4-1.1,0.1c-0.3,0.3-0.7,0.3-0.4-0.2c0.3-0.6,0.4-0.6,0.1-1.3
		c-0.2-0.4-0.4-0.4-0.6-0.7C87.9,41.6,88,41,87.6,41c-0.3,0-0.8-0.2-1.1,0c-0.8,0.3-1.5,0.6-2.3,0.8c0.1-0.3,0.1-0.6,0.2-0.9
		c-1.2-0.1-1.7-0.1-2.8,0.3c-0.8,0.4-1.3,0.9-1.7,1.8c-0.1,0.4-0.6,1.1-0.5,1.5c0,0.2,0.1,1.3,0.3,1.3c1.1,0.1,1.8,0,2.6,0.8
		c-0.8-0.1-1.6-0.1-2.3-0.2c0.3,0.6,0.9,1.1,1.5,1.4c0.4,0.3,0.6-0.1,1-0.1c0.8-0.1,0.2,0.1,0.7,0.6c0.2,0.2,0.9,0.3,1.1,0.3
		c0.8,0,1.8-0.1,2.5,0.1c0.2,0.1,0.5,0.2,0.7,0.3c0.2,0.1,0.3-0.3,0.4-0.3c0.4,0,0.5,0.6,0.9,0.4c-0.3-0.3-0.6-0.6-0.9-0.8
		c1.2,0.3,1.9,0.6,3.1,0.3c-0.2-0.5-0.3-0.7-0.8-0.9c0.6-0.6,0.6,0.3,1,0.6c0.2,0.1,0.6-0.2,0.6,0c0.1,0.3,0.1,0.5,0.2,0.8
		c0.5-0.6,1.5,0.7,2,1.1c-0.8,0.2-1,0.1-1,1.1c0.4-0.1,0.8-0.3,1.1-0.4c0.5-0.2,0.5-0.2,0.8,0.3c0.4,0.7,1.2,0.5,1.6,1.2
		c0.3,0.5,0.5,1,0.8,1.4c0.1,0.2-0.2,0.3-0.3,0.5c-0.6,0.6-1.2,1.2-1.9,1.9c0.2,0.1,1,0.5,0.8,0.9c-0.1,0.2-1.2,0.3-1.4,0.4
		c-0.7,0.2-1.6-0.1-2.3-0.2c0.1,0.5-0.6,0.6-0.8,1.1c-0.2,0.3,0.4,0.9,0.7,0.9c0.5,0,1.1,0.1,1.5-0.3c0.4-0.3,0.9-0.1,1.3,0.1
		c0-0.2,0.1-0.3,0.1-0.5c0.3,0,0.5,0.1,0.5,0.5c0.8-0.5,0.8,0,1.3,0.8c0.3,0.4,0.8,0.4,1.3,0.6c-0.3,0.1-0.5,0.3-0.8,0.4
		c0.4,0.3,0.7,0.5,1.3,0.5c-0.1,0.1-0.1,0.2-0.2,0.3c0.5,0.1,1,0.3,1.5,0.4c0.2,0.1,0.2,0.5,0.6,0.6c1,0.3,2,0.5,3,0.8
		c0.1-0.5,0.2-0.7-0.2-0.9c-0.4-0.3-0.7-0.5-1.1-0.8c-0.2-0.2-0.8-0.1-0.9-0.4c-0.2-0.4-0.4-0.7-0.6-1.1c0.4,0.2,0.7,0.3,1.1,0.5
		c-0.1-0.2-0.1-0.4-0.2-0.5c0.6,0.4,1.2,0.8,1.8,1.1c0.3,0.2,0.9,1,1.1,0.9c-0.1-0.2-0.2-0.4-0.2-0.6c0.1,0.1,0.3,0.1,0.4,0.1
		c0.2-0.5-0.5-0.7-0.2-1.2c0.2,0.2,0.3,0.4,0.5,0.7c0-0.3,0-1-0.2-1.3c-0.2-0.3-0.6-0.2-0.7-0.7c-0.1-0.6-0.1-0.7-0.5-0.9
		c-0.4-0.2-0.7-0.5-0.8,0.2c-0.1-0.4-0.3-0.8-0.4-1.2c-0.2-0.5-0.3-0.3-0.7-0.1c-0.1-0.3-0.2-0.6-0.3-0.8c0.3,0,0.6,0.1,0.8,0.1
		c0-0.5-0.6-0.5-0.3-1c0.2-0.3,0.5-0.3,0.9-0.1c0.3,0.2,0.6,0.8,1,0.9c0.2,0.1,0.8-0.3,1-0.4c0.2,0.6-0.4,0.7-0.8,0.8
		c0.7,0.8,1,1.1,1.9,1.5c0.2-0.6,0-1.2,0-1.7c0.7,0.5,1,0.1,1.8-0.3c-0.3-0.1-0.5-0.2-0.8-0.4c0.2-0.3,0.7-0.1,1.1,0
		c0.1-0.7,0.3-1.1-0.3-1.4c-0.4-0.2-1.2,0-1.6,0c0.1-0.2,0.3-0.4,0.4-0.7c-0.7-0.1-1-0.1-1.4-0.6c-0.4-0.4-0.6-0.6-1.1-0.8
		c-1.1-0.4-2.2-0.8-3.2-1.3c0.3,0,0.6-0.1,0.9-0.1c0-0.3-0.1-0.6-0.1-0.8c0.4,0.1,0.8,0.2,1.3,0.3c-0.2-0.7-0.2-0.7-0.9-0.6
		c-0.4,0.1-0.7-0.1-1-0.3c0.6-0.4,0.8-0.4,1.5-0.4c0-0.5-0.6-0.8-0.9-1c-0.1,0.5-0.6,0.6-1,0.8c0.1-0.6-0.3-0.5-0.6-0.5
		c0.5-0.1,1.3-0.2,1.4-0.7c-0.4-0.2-2.5-1.6-2.8-1c-0.2,0.5-0.9,1-1.1,0.4C96.9,46.6,97.9,46.2,98.1,46.1z M66.8,36.2
		c-0.2,0-0.5,0.1-0.7,0.3c0.3,0,0.6,0,0.9,0c-0.9,0.6,0.4,0.7,0.8,0.6c0.7-0.1,1.3-0.2,2-0.3c-0.1,0.2-0.3,0.4-0.6,0.3
		c0.1,0,0.1,0.1,0.2,0.1c-0.3,0-0.5,0.1-0.7,0.3c0.3,0,0.5,0.1,0.8,0.2c-0.2,0-0.3,0.1-0.5,0.1c0.1,0.4,0.4,0.4,0.8,0.5
		c0.2,0.1,0.3-0.3,0.5-0.2c0.5,0,1.3,0.3,1.7-0.2c-0.2-0.1-0.3-0.3-0.5-0.4c0.2-0.1,0.3-0.3,0.3-0.6c0.1,0.1,0.2,0.1,0.3,0.2
		c0.1-0.4-0.2-0.5-0.2-0.8c0-0.3,0.1-0.6,0.1-0.8c0-0.1-0.3-0.7-0.4-0.8c-0.2-0.1-0.6-0.4-0.8-0.2c-0.6,0.4-1.1-0.1-1.8,0.1
		c-0.8,0.3,0.5,0.4,0.6,0.7c-0.2,0-0.3,0-0.5,0c0.2,0.3,0.4,0.6,0.6,0.9c-0.3-0.2-2.4-2.2-2.3-0.8c0.2,0,0.4,0,0.6,0
		c-0.5,0.2-0.4,0.7,0.1,0.5C68,36.5,67.2,36.1,66.8,36.2z M66.8,49.5c0.1-0.8,0.6-0.6,1-0.2c0-0.1,0.2-0.2,0.2-0.3
		c0.6,0.9,0.5-0.3,0.5-0.7c-0.7,0.1-1.5-0.3-2.2-0.8c-0.3-0.2-1.3-0.5-1.4-0.8c-0.1-0.3,0.2-0.8,0.1-1.2c-0.4-1-0.7-2.4-1.5-2.9
		c-0.4-0.2-0.7-0.8-1-0.3c-0.1,0.2-0.8-0.3-1-0.4c0.2,0.4-0.2,0.5-0.1,0.7c0.1,0.3,0.2,0.5,0.3,0.8c0.2,0.6,0.4,1.2,0.6,1.8
		c-0.4,0.2-0.6,0.5-0.8,0c-0.2-0.5-0.4-1.1-0.5-1.6c-0.3-0.7-1.5-0.8-2.1-0.7c0.3,0.3,0.6,0.7,0.9,1c-0.2-0.1-0.9-0.4-1-0.2
		c-0.3,0.5-0.3,0.5-0.9,0.5c0.1-0.2,0.3-0.4,0.4-0.6c-0.4-0.2-1.4-0.9-1.8-0.8c-0.2,0.1-0.3,0.7-0.6,0.7c-0.3,0-0.6,0.1-0.9,0.1
		c0.5-0.4,1-0.9,0.3-1.3c-0.5-0.3-0.7-0.1-1.3,0.1c-1.2,0.4-2,0.8-3,1.6c0.2,0,0.3,0.2,0.4,0.2c-0.4,0.4-1,0.7-0.9,1.4
		c0.3,0,0.7,0,1,0c-0.1,0.1-0.1,0.3-0.2,0.4c0.7,0,1.4,0,2.1-0.1c-0.7,0.3-1.5,0.7-2.2,1c0.4,0.4,0.6,0.7,1.1,0.7c0.7,0,1.5,0,2.2,0
		c1.1,0,2,0.2,3.1,0.5c0.7,0.2-0.5,0.4-0.7,0.4c-0.6,0-1.2-0.2-1.7-0.2c-0.9-0.1-2.1,0.4-2.9,0.6c0.5,1.8,2.2,1.5,3.7,1.6
		c-0.1,0.9,0.1,1.4,0.9,1.3c1-0.1,2-0.2,3-0.2c0.7,0,0.9-0.5,1.6-0.7c0.4-0.1,0.6-0.1,0.9-0.4c0.3-0.2,0.3-0.6,0.7-0.5
		c-0.1,0.1,0,0.3-0.1,0.4c0.5,0.1,1,0.2,1.4,0.3c-0.1,0.1-0.2,0.2-0.3,0.2c0.8,0,1.6,0.5,2.4,0.4c0.2,0,1-0.3,1-0.5
		c0-0.4-0.5-0.3-0.2-0.8c-0.5-0.2-0.9,0.2-1.3,0.5c0-0.4,0.1-0.7-0.2-1c0.1,0,0.3,0,0.4,0.1C66.5,49.4,66.7,49.4,66.8,49.5z
		 M69.9,50.5c0.1,0.1,0.3,0.3,0.4,0.4c0.1-0.2,0.1-0.1,0.2-0.2c0,0.2,0.2,0.4,0.4,0.4c0-0.1,0.1-0.2,0.1-0.2
		c0.2,0.6,1.2,0.7,1.7,0.8c0.5,0.1,1-0.4,1.5-0.7c-0.6-0.6-1.2-1-1.9-1.5c-0.4-0.3-0.7-0.7-1-0.3c-0.3,0.3-0.7,0.6-0.2,0.9
		c-0.1,0-0.2,0-0.2,0.1C70.6,50.4,70.2,50,69.9,50.5z M161.8,69.7c-0.1,0-0.1,0.1-0.2,0.1c0,0.1,0.1,0.1,0.1,0.2
		c0.2-0.2,0.3-0.4,0.6-0.4c0-0.1-0.1-0.1-0.1-0.2c0.4,0,0.4-0.6,0.2-0.5C162.1,69,161.2,69.3,161.8,69.7z M89.1,60
		c-0.7-0.5-0.8-0.5-1.6-0.4c0.7-0.7-1.1-1.6-1.5-1.9c-0.3-0.2-0.7-0.1-0.9-0.3c-0.3-0.4-0.5-0.5-0.8,0c-0.1-0.1-0.2-0.3-0.2-0.4
		c0.7-0.1,0.5-1.1-0.1-0.9c-0.6,0.3-0.6,0.8-0.8,1.5c-0.1,0.3-0.1,0.6-0.2,0.9c0,0.2,0.2,0.5,0.1,0.7c-0.1,0.2-0.8,0.8-1,1
		c0.2,0,1.4-0.3,1.5-0.3c0.1,0.1,0.2,1.3,0.5,1.1c0.4-0.3,0.7-0.8,1.1-1c0.6-0.2,0.5-0.7,1.1-0.9c-0.1,0.9,1.5,1.1,2,1.3
		C88.5,60.4,88.8,60.2,89.1,60z M77.4,38.6c0.2,0.5,0.9,0,1.2-0.2c0.2,0.5,0.2,0.6,0.7,0.6c0.4,0,0.8,0.2,0.9-0.4
		c0.1,0.1,0.2,0.2,0.3,0.4c0-0.2,0.1-0.4,0.1-0.6c0.5,0.2,0,0.9,0.6,0.9c0.6,0,1.2,0.1,1.8,0.1c0-0.1,0-0.3,0-0.4
		c0.3,0.4,1.2,0.6,1.3-0.1c0.2,0.7,1.1,0.2,1.6,0.2c0-0.3-0.1-0.5-0.1-0.8c0.6,0,0.3,0.7,0.7,0.9c0.4,0.1,0.7,0.3,1.1,0.2
		c0.2,0,1.4-0.1,1.5-0.3c0.2-0.6,0.4-0.5,0.9-0.7c-0.2-0.3-0.6-0.3-0.9-0.3c0.2-0.2,0.5-0.4,0.7-0.5c-1-0.8-2.1-1.4-3.4-1
		c-0.5,0.2-1-0.1-1.5,0.1c-0.5,0.2-1,0.3-1.6,0.4c0.1,0.1,0.2,0.2,0.3,0.3c-0.6-0.1-1.4-0.5-1.9-0.4c-0.2,0-0.5,0.3-0.7,0.2
		c-0.3-0.2-0.5-0.3-0.8-0.5c-0.1-0.1-1.3-0.7-1.3-0.8c-0.1-0.4,1,0.1,1.1-0.4c-0.3-0.1-0.6-0.2-1-0.3c-0.4-0.1-0.2-0.3-0.6-0.6
		c-0.6-0.4-1.2,0.1-1.8,0c-0.6-0.1-0.9-0.6-1.4-0.7c-0.6-0.1-1.4-0.4-2-0.2c-1,0.3-0.7,0.7,0,1.3c0.6,0.6,1,0.5,1.8,0.4
		c0.7-0.1,1-0.3,1.5,0.2c0.3,0.3,1.1,1,0.6,1.5C76.9,37.8,77,37.9,77.4,38.6z M94.6,52.4c-0.4,0.4,1.2,0.4,1.3,0.4
		C95.8,52.1,95,52,94.6,52.4z M80.6,22.5c-0.5,0.4-1,0.8-1.4,1.2c0.8,0.6,1.7,0.1,2.6,0.1c0.9,0,1.8-0.4,2.6-0.6
		c-0.8,0.4-1.4,0.7-2.2,0.8c-0.8,0.1-1.3,0-2.1,0.4c0.8,0.2,1.7,0.8,2.4,0.3c0.9-0.6,1.4-0.7,2.5-0.8c-1,0.3-1.5,0.5-2.2,1.2
		c0.7,0.1,1.4,0.2,2.1,0.2c0.6,0,0.6,0.1,0.7-0.5c0-0.2,0.7-0.3,0.8-0.3c-0.1,0.1-0.2,0.3-0.3,0.4c0.4-0.1,0.9-0.3,1.3-0.4
		c-0.3,0.3-0.7,0.6-1,0.8c0.6-0.1,1.1-0.2,1.7-0.3c0.3-0.1,1.2,0,1.5-0.3c0.8-0.8,1.6-1.2,2.6-1.6c-0.4,0.4-0.9,0.8-1.3,1.2
		c0.3,0.1,0.6,0.2,0.8,0.4c-1.8,0.5-3.5,0.8-5.3,1.2c0.6,0.6,1.2,1.1,1.8,1.7c-0.8-0.5-1.7-1.3-2.5-1.5c-0.1,0-2.6,0-2.5-0.1
		c-0.7,1.4,0.7,1.3,1.5,1.9c0.7,0.5,1.4,1.3,1.8,2.1c-1.1-0.6-3-0.8-4,0.2c-0.9,0.9-0.1,1,0.8,1.2c0.6,0.1,1.1-0.7,1.6-1.1
		c-0.3,1-1.2,1.6-0.1,2.3c0.8,0.6,1.8-0.6,2.3-1.2c-0.8,1.1-1.3,2-2.8,1.6c-0.6-0.2-0.6-0.9-1.1-1c-0.7-0.1-1.1-0.1-1.7,0.1
		c0.4,0.8,0.4,0.8,1.2,0.9c-0.6,0.6-0.9,0.4-1.6,0.7c-0.2,0.1-0.8,0.2-1,0.4c-0.2,0.2,0.3,0.4-0.1,0.6c0.4,0.6,0.6,0.2,1-0.3
		c0,0.7,0.9,1.2,1.2,0.4c0.1,0.7,0.5,0.3,1,0.3c0.4,0,0.9,0.1,1.3,0.1c0.5,0,0.7-0.5,1-0.4c0.3,0.1,0.9,0.3,0.8-0.3
		c0.2,0.5,1.2,0.9,1.2,0.1c0.4,0.5,0.6-0.1,0.9,0.1c0.4,0.3,0.2,0.5,0.1,1c0.6-0.2,1.2-0.4,1.8-0.5c0.2-0.1,0.3-0.4,0.4-0.5
		c0.1,0,0.2,0.3,0.5,0.2c0.1,0,0.6-0.1,0.6-0.3c0-0.2,0-0.7-0.2-0.8c-0.3-0.2-0.4-0.3-0.7-0.1c-0.4,0.2-0.4,0.3-0.6,0
		c-0.2-0.3,0.9-1.1,1.1-1.3c0.6-0.5-0.3-0.8-0.1-1c0.2-0.2,1,0.3,1.4,0.2c0.7-0.2,0.9-0.4,1.3-1c-0.3-0.2-0.7-0.4-1-0.5
		c0.6-0.1,1.2-0.1,1.8-0.2c0.1-0.7-1.5-0.8-2-0.9c0.7,0,1.4,0,2,0c0.2-0.8-1.8-0.6-2.3-0.6c1.2-0.1,2.5-0.3,3.7-0.5
		c-0.1-0.2-0.1-0.4-0.2-0.7c0.4,0.1,1,0.4,1.4,0.2c0.6-0.3,0.9-0.5,1.4-1.1c-0.5,0-0.9,0-1.3-0.1c0.7-0.1,1.4-0.3,2.1-0.4
		c0.6-0.1,1.4-0.8,1.9-1.2c0.7-0.5,3.1-1.1,3.2-2c-1.8,0.4-3.7,0.7-5.5,1.1c1.1-0.3,2.2-0.7,3.3-1c-0.6-0.1-1.3-0.2-1.9-0.3
		c1.4-0.1,2.9-0.2,4.3-0.3c1-0.1,2.3-1.2,3.2-1.6c-1.3-0.5-2.4-0.8-3.7-1c-1.1-0.2-2.2,0.2-3.3,0.4c0.6-0.3,1.2-0.7,1.8-1
		c-1.1-0.2-2.3-0.5-3.5-0.5c-1.1,0-2.3,0.4-3.3,0.5c0.1,0.3,0.3,0.6,0.4,0.9c-0.5-0.4-1.2-1.1-1.8-1.1c-0.9,0-1.8,0-2.7,0
		c0.5,0.4,1.1,0.9,1.6,1.3c-0.6-0.3-1.3-0.5-1.9-0.8c-0.3-0.1-1.4-0.4-1.7-0.3c-0.3,0.1-0.3,0.4-0.6,0.5c-0.4,0-0.8,0.1-1.2,0.1
		c-0.5,0-1,0.7-1.3,1c1.1,0.6,2.1,1.1,3.2,1.7c-1.2-0.3-2.3-0.6-3.5-0.9c-0.5-0.1-1.1-0.7-1.5-1c-0.3-0.2-0.9-0.1-1.3-0.1
		c0.1,0.2,0.2,0.5,0.3,0.7c-0.4,0-0.9,0-1.3,0c0.3,0.1,0.6,0.3,0.9,0.4c-1.2,0.1-2.8-0.6-3.4,0.8c-0.8-0.7-1.8-0.2-2.7,0.3
		c0.5,0.3,1.1,0.5,1.6,0.8C79.5,22.9,80,22.7,80.6,22.5z M68.6,32c-0.3-0.4-0.8-0.4-1.2-0.3c-0.5,0.1-0.2,0.5,0.2,0.5
		C67.9,32.2,68.2,31.9,68.6,32z M89.5,63.8c0.3-0.3,1.2-1.2,0.3-1.5c-0.4-0.1-0.7,0.3-0.7,0.6C89,63.5,89.2,63.5,89.5,63.8z M159,79
		c-0.1,0.1-0.2,0.2-0.3,0.3c0.9,0.8,2.1-0.7,3-0.9c0.3-0.1,0.5,0.2,0.6-0.2c0.1-0.3,0.2-0.7,0.3-1c0.1-0.4-0.1-1-0.4-1.3
		c0.6-0.4,0.8-0.4,0.9-1.2c-0.3,0.1-0.4-0.5-0.6-0.8c-0.2-0.2-0.7,0.1-0.9,0.1c0.1-0.1,0.1-0.2,0.2-0.3c-0.7-0.4-1.4,0.4-1.7,0.9
		c0.2,0.1,0.5,0.2,0.7,0.2c-0.3,0.2-0.4,0.5-0.8,0.4c-0.2-0.1-0.5-0.2-0.8-0.1c-0.4,0.2-0.3,0.3-0.1,0.7c0.1,0.2-0.3,0.4-0.4,0.6
		c0.4,0.2,0.7,0.3,1.2,0.4c-0.3,0.3-0.6,0.6-0.9,1c0.4-0.1,0.8-0.3,1.2-0.1c-0.3,0.1-0.8,0-1,0.3c-0.2,0.3-0.4,0.4-0.7,0.4
		c0.2,0,0.3,0.1,0.5,0.1c-0.2,0.1-0.3,0.2-0.5,0.3C158.6,78.9,158.8,79,159,79z M85.4,62.4c0,0.1,0.1,0.5,0.2,0.5
		c0.8-0.1,1.8-0.4,1.9-1.5c-0.2,0-0.4,0-0.6,0c-0.5,0.1-0.8,0.1-1.3,0.4C85.4,62.1,85.3,62,85.4,62.4z M75.9,38
		c-0.1-0.5-0.7-1.4-1.3-1.2c-0.3,0.1-2.1,0.4-1.8,1.3c0.1,0.3,1.5,0.8,1.8,1C75.4,39,76.1,39.1,75.9,38z M64.5,29.5
		c0.5,0.1,0.7-0.7,1.1-0.2c-0.1,0.1-0.2,0.2-0.3,0.2c0.3,0,0.5,0.1,0.8,0.1c0.1,0.9-1.1,0.2-1.6,0.5c0.2,1.5,1.9,0,2.2,0.4
		c0.3,0.4,1,0.3,1.4,0.4c0.5,0.1,0.5,0.3,0.8,0.8c0.2,0.4,2.3,0.3,1.3-0.8c-0.2-0.2-0.5-0.4-0.4-0.7c0.1-0.3,0.1-0.3-0.1-0.5
		c-0.4-0.4-0.6-0.3-1.1-0.2c0.2-1.1-1.2-0.5-1.6-0.3c-0.3-0.7-0.6-1.2-1.4-1.1c-0.9,0.1-1.3-0.1-1.6,0.8c0.3,0,0.6,0,0.9,0
		C64.6,29.1,64.5,29.3,64.5,29.5z M64.7,33.5c0.2,0.3,0.5-0.2,0.3-0.5c-0.2-0.2-0.4-0.4-0.6-0.6c-0.3-0.2-0.6-0.6-1-0.4
		c0.1,0.3,0.1,0.6,0.2,0.8C64,33.1,64.5,33.2,64.7,33.5z M70.7,26.5c-0.2-0.6-1.7-0.4-1.3,0.4C70.1,27.2,71.2,27.8,70.7,26.5z
		 M72.6,31.1c-0.3,0.1-0.6,0.1-0.9,0.2c0.2,0.1,0.7,0.6,0.8,0.6c0.3,0,0.6-0.1,0.9-0.2c0.3-0.1,0.9-0.1,1.1-0.4
		c0.2-0.3-0.3-0.4,0.1-0.8c-0.4-0.1-0.9-0.1-1.1-0.2c-0.3-0.1-0.5-0.4-0.9-0.6c-0.5-0.2-2.1-0.5-1.2,0.5c-0.1,0-0.2,0-0.3,0
		C71.3,31.1,72.1,30.7,72.6,31.1z M57.5,31.5c-0.9,0.1-1.3,0-1.1,1.1c0.4,0,0.8,0.6,1.1,0.5c0.6-0.1,1.1-0.3,1.7-0.4
		c0.4-0.1,0.2-0.2,0.3-0.5c0.1-0.2-0.6,0-0.8-0.3c0.5-0.1,0.9-0.1,1.2-0.5C59.2,30.9,58.2,31.4,57.5,31.5z M59.2,35.3
		c0.4,0.2,0.7,0.4,1.1,0.7c-0.2,0.1-0.5,0.2-0.7,0.3c0.2,0.1,1.2,0.3,1.1,0.6c-0.1,0.6-0.6,0.3-1.1,0.3c-0.2,0-1.3,0.1-1.3-0.2
		c-0.2-0.6-0.2-0.6-0.8-0.5c0.1,0,0.2-0.1,0.3-0.2c-0.4-0.3-0.9-1-1.4-0.9c-0.9,0.2-0.6-0.2-1.3-0.5c-0.1-0.1-1.3,0-1.3,0.3
		c0,0.3,0.9,0.4,1.1,0.4c-0.7-0.1-1.3-0.2-2,0.2l0,0.4c0.5,0.3,1.3,0.1,1.8,0c-0.2,0.2-2.4,0-2.3,0.6c0.1,0.5,1.9-0.1,2.1-0.1
		c-0.7,0.6-2.1,0.2-2.6,1c0.6,0.2,0.9,0.3,1.5,0.1c0,0.1,0,0.2-0.1,0.3c0.2,0.1,0.5,0.1,0.7,0.2c-0.2-0.5,0.4-0.4,0.5,0.1
		c0.6-0.4,0.7-0.4,0.9-1.2c0.5,0.2,0.3,0.5,0.2,0.9c0.4,0,1.2,0.1,1.2-0.4c0.2,0.5,1.1,0.3,1.5,0c-0.7,0.8-2.2,0.9-3.3,1.3
		c1.2,0.8,1.8,0.5,3.1,0.1c0.7-0.3,1.5-0.5,2.2-0.8c0.4-0.2,0.7,0.3,1.1,0.2c0.2,0,0.2-0.4,0.6-0.4c0.4,0,0.7,0,1.1,0
		c0.5,0,0.7-0.6,0.8-1c0.1-0.6,0.1-1.2-0.7-1.1c-1,0.1-0.2,0.4-0.5,0.9c-0.1-0.5-0.3-0.6-0.7-0.7c-0.3-0.1-0.3-0.6-0.6-0.8
		c-0.5-0.4-0.1-1.5-1.1-1.1C59.9,34.7,59.6,35,59.2,35.3z M72.7,26.4c0.1,1.2,1.4,1.2,2.2,0.8c-0.3,0.4-0.6,0.4-1,0.4
		c-0.3,0-0.2,0.5,0.1,0.4c0.3,0,0.3,0.5,0.6,0.3c0.3-0.2,0.4-0.4,0.7-0.3c0,0.1,0,0.2,0,0.3c0.4,0.2,0.5-0.1,0.8-0.3
		c0.1,0,0.4,0.4,0.3-0.2c0.6,0.2,1.5-0.1,1.9,0.3c-0.5,0.1-0.9,0.1-1.4,0.2c0.7,0.3,1.4,0.1,2.1,0.1c-1.3,0.2-2.5,0.1-3.8,0.7
		c0.4,0.3,0.8,0.3,1.2,0.5c-0.2,0-0.5,0-0.7,0.1c0.4,0.6,1.4,0.4,2,0.5c-0.4,0-0.8,0.1-1.3,0.1c0.6,0.9,1.8,0.7,2.7,0.8
		c-0.1-0.2-0.2-0.4-0.4-0.5c0.6,0,0.8,0.2,1.3,0.6c-0.2-0.4-0.4-0.8-0.6-1.3c0.4,0.4,0.8,0.8,1.3,1.2c0.2-0.5,0.3-0.7,0-1.2
		c1.8,0.9-0.2-0.7,1-1.1c-0.1,0.4,0.1,0.7,0.2,1c0.3-0.3,0.8-0.4,0.6-1c0.3,0.3,1.5-0.4,2.1-0.6c-0.2-0.4-0.5-0.6-0.8-0.9
		c0,0.2-0.2,0.3-0.2,0.5c-0.1-0.9-1-0.3-1.4-0.2c0.5-0.9,0.7-1.3-0.4-1.4c0.7-0.6-0.3-1.3-0.9-0.8c0.1,0.2,0.3,0.5,0.4,0.7
		c-0.4,0-0.7-0.1-0.9-0.4c-0.1-0.2,0.2-0.8-0.3-0.6c-0.6,0.2-1-0.1-1.4-0.5c-0.6-0.7-0.9-1.2-1.8-1.5c-0.5-0.1-1.3-0.4-1.7,0.1
		c0.5,0.2,1,0,1.4,0.2c-0.4,0.7-1.9-0.3-2.4,0.9c0.4,0.1,0.9,0.1,1.2,0.3c-0.4,0.1-2.1,0.1-1.5,0.7c-0.3,0.1-0.5,0.2-0.8,0.3
		c0.5,0.2,0.7,0.1,1.2,0.2c-0.1,0-0.1,0.1-0.2,0.1c0.4,0.2,0.9-0.3,1.3,0c-0.2,0-0.3,0.2-0.4,0.2c0.1,0.1,0.2,0.2,0.3,0.3
		c-0.2,0-0.3-0.1-0.5-0.1C73.9,26.4,73.3,26.4,72.7,26.4z M65.1,35.7c0.3,0.4,2,0.5,1.8-0.3C66.4,35.3,65.4,35.3,65.1,35.7z
		 M52,35.8c-0.3,0.1-1.9,0.7-1.7,1.2c0.1,0.3,0.9,0.2,1.1,0C51.6,36.6,52.1,36.2,52,35.8z M162.4,71.1c0,0-0.1,0.1-0.1,0.1l0.1,0.1
		C162.4,71.2,162.5,71.2,162.4,71.1z M62.5,41.5c0.5,0.2,0.6,0.3,1,0.6c0.3,0.3,0.5,0.7,0.9,0.5c0.3-0.1,0.6-0.7,0.6-1
		c0-0.5-0.3-0.5-0.7-0.8C63.6,41,62.8,40.7,62.5,41.5z M65.9,37.9c-0.3-0.7-0.6-0.6-1.1-0.4C64.1,38.4,65.6,38.1,65.9,37.9z
		 M64.8,34.7c0.2,0.3,0.2,0.3,0.3,0.6c0.5,0,1,0.2,1.4-0.2c-0.2-0.1-0.4-0.3-0.7-0.4C65.5,34.5,65.2,34.5,64.8,34.7z M75.8,32.8
		c0.2-0.2,0.3-0.4,0.5-0.7c-1-0.3-2.2-0.4-3.1,0.2C73.4,33,75.2,32.7,75.8,32.8z M89.1,42.7c0.1,0.2,0.5,0.3,0.7,0.4
		c0.3,0.2,1.4-0.3,1.8-0.4c0.5-0.1,1.1,0,1.6,0.1c-0.7-0.9-1.1-1.2-2.1-1.6c-0.3-0.2-0.7,0.1-1.1,0c-0.4-0.1-0.8-0.3-1.1-0.4
		c-0.6,0.1-0.7,1-0.2,1.3C89.2,42.2,88.9,42.3,89.1,42.7z M78.2,32.5c-0.4,0.3,0.4,0.6,0.6,0.7c0.3,0.2,0.7,0,1-0.1
		C79.8,32.3,78.7,32.1,78.2,32.5z M78.9,34.2c-0.4,0.3,0.5,0.8,0.8,0.7c-0.1-0.1-0.1-0.3-0.2-0.4C80,34.2,79.2,34,78.9,34.2z
		 M315.2,38.9c1.2,0.1,1.9,0,3.1-0.4c0.1,0,0.2-0.6,0.1-0.7c-0.1-0.1-0.7-0.2-0.8-0.2c-0.6-0.2-0.8-0.1-1.4,0.1c0-0.1,0-0.3,0-0.4
		c-0.5,0-1-0.2-1.5,0.2c0-1.1-1.2-0.4-1.1,0.2C313.6,38.1,314.9,38.7,315.2,38.9z M220.5,46c0.6,0.7,1.4,1.1,2.2,1.2
		c0.8,0.1,2.4,0.5,3,0c-1.1-0.7-1.9-1.4-2-2.9c0-1.2,1.1-2.2,1.8-2.9c0.4-0.5,0.8-1,1.1-1.5c0.3-0.4,1.1-0.7,1.6-1
		c0.9-0.6,1.5-1.3,2.4-1.6c1.2-0.4,2.4-0.7,3.5-1.1c0.6-0.2,2.9-0.6,3-1.7c0.1-1.3-2.3-0.7-2.7-0.4c-1,0.8-2.1,0.9-3.2,1.3
		c-1.1,0-1.8,0.1-2.8,0.5c-0.8,0.3-2,0.5-2.7,1.1c-0.7,0.6-1.4,1.3-2.1,2c-0.5,0.5-0.9,1-1.4,1.5c-0.4,0.4-0.2,0.7,0,1.2
		c0,0.2-1,0.8-1.1,0.9c-0.6,0.5,0,0.5-0.4,1.1c-0.2,0.4-0.9,0.2-0.9,0.8C219.9,45.4,220,45.4,220.5,46z M222.6,25.7
		c-1.1-0.4-1.1-0.3-2.1,0.4c0.4,0.1,0.9,0.1,1.3,0.2C222.1,26.1,222.4,25.9,222.6,25.7z M226.8,23.1c-0.3-0.2-0.5-0.5-0.8-0.7
		c0.5-0.1,1.1-0.3,1.6-0.4c-0.9-0.2-1.2-0.3-2,0.2c-0.6,0.4-1.2,0.8-1.8,1.2c0.5,0.1,1.1,0.1,1.6,0.2
		C225.9,23.5,226.4,23.3,226.8,23.1z M226.8,48c0.2,0.4,1.4,1.4,1.9,1.1c0.5-0.4-1.1-1.2-1.3-1.4C227.1,47.8,226.9,47.9,226.8,48z
		 M228.2,26.5c-0.2-0.5-0.7-0.2-1-0.1c0.2,0.1,0.3,0.3,0.5,0.4C227.8,26.7,228,26.6,228.2,26.5z M226.2,24.3c-0.7-0.2-1.3-0.5-2-0.5
		c-1,0-1.3-0.1-2,0.7c0.6,0.2,1.3,0.3,1.9,0.5C225,24.9,225.6,24.9,226.2,24.3z M216.5,24.9c-0.5,0.3-1,0.6-1.4,1
		c0.8,0.3,1.4,0.4,2.3,0.4c-0.1-0.3-0.1-0.5-0.2-0.8c0.9-0.2,1.9-0.4,2.8-0.7c-0.5-0.3-0.8-0.6-1.5-0.5c-0.6,0.2-1.1,0.4-1.7,0.3
		c-1.3-0.3-2.1,0.1-3.4,0.5c0.4,0.1,0.9,0.2,1.3,0.3C215.3,25.2,215.9,25.1,216.5,24.9z M217,50.9c0.3,0.3,1.3-0.5,1.5-0.7
		c-0.4-0.4-0.7-0.5-1.2-0.6C216.6,49.8,216.3,50.3,217,50.9z M190.1,48.3c1-0.1,1.6-0.4,2.2-1.2c-0.4,0-0.5,0.4-0.8,0.6
		c-0.3,0.2-0.8,0.1-1.1,0.1C190.6,48.1,190.4,48.2,190.1,48.3z M57.6,30.6c0.5,0.3,0.4-0.1,0.8-0.2c0.3,0,2.1,0.6,1.8-0.3
		c-0.1-0.6-1.5-0.5-1.9-0.4c-0.6,0.2-1.7,0.3-2.1,0.9c0.1,0.1,0.2,0.1,0.2,0.2C56.8,30.7,57.3,30.5,57.6,30.6z M226.8,25.3
		c-0.2,0-2.8,0.1-2.6,0.8c0.3,0.7,2,0.2,2.6,0.1c-0.1-0.1-0.1-0.3-0.2-0.3c0.3,0,0.6-0.1,0.9-0.1C227.2,25.6,227,25.5,226.8,25.3z
		 M305.3,38.5c0.3,0.2,0.7,0.6,1.1,0.6c0.7-0.1,0.7-0.1,1-0.8c0.5,0.8,1.3,0.1,2.1-0.2c0.2-0.1,0.5,0.7,0.7,0.6
		c0.4-0.1,0.8-0.2,1.1-0.2c-0.1-0.2-0.3-0.4-0.4-0.7c0.5,0.2,0.6,0.4,1.1,0.1c0.3-0.2,0.7-0.4,0.9-0.7c-1-0.4-2-0.8-3-1.2
		c-0.3-0.1-0.7-0.4-1-0.3c-0.5,0.2-0.3,0.6-0.2,1.1c-0.7-0.3-2.2-1.7-2.9-1.1c-0.6,0.5-1,0.7-1.2,1.5
		C304.5,37.7,305,38.1,305.3,38.5z M162.5,73.4c0.3-0.1,0.3-0.3,0.2-0.5c-0.1,0-0.3,0.1-0.3,0.2C162.5,73.1,162.4,73.3,162.5,73.4z
		 M309.2,41.7c0.7,0.6,1.1,0.4,1.9,0.4c-0.2-0.8-0.2-0.8-0.9-1.2c-0.1-0.1-1.2-0.6-1.2-0.6c-0.1-0.5-0.5-1-1.1-0.6
		c-0.7,0.5,0.1,0.9,0.4,1.2c-0.4,0.3-0.8,0.6-1.2,0.8C307.8,41.7,308.8,41.3,309.2,41.7z M233.2,24.4c0.6-0.1,0.4-0.4,0.4-1.1
		c-0.2,0-0.8-0.1-1,0.1c-0.2,0.1-0.2,0.6-0.4,0.7c-0.5,0.3-1-0.5-1.4,0.3c0.1,0.1,0.3,0.3,0.4,0.4C231.9,24.7,232.6,24.6,233.2,24.4
		z M227.8,25.4c0.4,0,0.6-0.1,0.8,0.2c0.4,0.5,1.4-0.2,1.8-0.6c0.4-0.5-0.5-1.2-1-1c-0.8,0.2-1.4,0.4-2.1,0.8
		C227.5,25,227.5,25.4,227.8,25.4z M267.3,31.2c0.5,0.7,1.9-0.2,2.6-0.4c0.2-0.1,0.6,0.3,0.9,0.3c0.6-0.1,1.2-0.2,1.7-0.3
		c0.4-0.1,0.6-0.2,1-0.5c0.2-0.2-0.2-0.9-0.5-0.9c-0.6-0.1-0.7-0.3-1.1-0.8c-0.2-0.2-0.9,0-1.2,0c0.2-0.1,0.3-0.3,0.5-0.4
		c-0.8-0.3-1.4-0.3-1.9,0.4c-0.6,0.6-1,1.3-1.4,2.1C267.6,30.9,267.4,31.1,267.3,31.2z M259.8,27.5c0.6,0,1.7-0.4,2.1,0.1
		c0.5,0.6,0.8,1.5,1.6,1.4c1-0.1,1.4-0.1,2.3,0.2c0.8,0.3,1.2,0.1,2-0.1c-0.1-0.3-0.4-0.8-0.3-1.1c0.1-0.4,0.5-0.8,0.1-1
		c-0.8-0.4-1.2-0.1-2,0.3c0.3-0.3,0.5-0.6,0.8-0.9c-0.4-0.1-1.3-0.1-1.4-0.5c-0.2-1-0.2-0.9,0.7-1.1c-0.6-0.4-1.6-1.5-2.2-1.5
		c-0.8,0-0.3,0.4-0.7,0.6c-0.5,0.2-1,0.3-1.5,0.5c-0.6,0.2-0.5,0.4-0.7,1c-0.1,0.2-0.9,0.3-1.1,0.4c-0.2,0.1-0.5,0.9-0.6,1.2
		C258.9,26.9,259.6,27.4,259.8,27.5z M347.2,46.9c0.3-0.1,0.5,0.1,0.7,0.1c0.9-0.2,1.5-0.2,2.1-0.8c-0.4-0.3-0.6-0.7-1.1-0.7
		c-0.6,0-1.2-0.1-1.8-0.1c-0.4,0-1,0.4-1.4,0.6c-0.1,0,0.2,1.1,0.2,1.3C346.4,47.1,346.8,47,347.2,46.9z M184.8,50
		c-0.3,0.2-0.8,0.2-0.7,0.7c0.2-0.1,0.4-0.3,0.6-0.5C184.7,50.1,184.7,50.1,184.8,50z M182.2,52.2c0.3,0.1,0.4-0.1,0.6-0.3
		c-0.2-0.2-0.3-0.1-0.5,0C182.2,52,182.2,52.1,182.2,52.2z M183.6,50.5c-0.2,0.2-0.4,0.5-0.6,0.7c0.2,0,0.4,0.1,0.6,0.1
		C184.1,51,184,50.7,183.6,50.5z M165.5,68.2c0.2,0.1,0.3,0,0.5-0.1c-0.2,0-0.3-0.1-0.4-0.1c0.1,0,0.1-0.1,0.2-0.1
		c-0.3-0.3-0.4,0.1-0.4,0.2c0.1,0.1,0.1,0.1,0.1,0.2C165.5,68.3,165.5,68.3,165.5,68.2z M191.5,47.6c0.2-0.2,0.5-0.3,0.5-0.6
		c-0.3,0.2-0.3,0.4-0.7,0.3c-0.3-0.1-0.5-0.1-0.8,0C190.6,47.8,191,47.6,191.5,47.6z M162.8,73c0.1-0.1,0.2-0.3,0.2-0.5
		C162.8,72.5,162.6,72.7,162.8,73z M183.7,51.5c-0.4,0-0.8-0.1-0.8,0.5C183.2,51.8,183.5,51.7,183.7,51.5z M163.4,73.2
		c0,0.2,0.1,0.3,0.2,0.4C163.7,73.4,163.6,73.2,163.4,73.2z M163.2,70.6c-0.1,0-0.1,0.1-0.2,0.1c0.1,0,0.2,0,0.2,0.1
		c-0.2,0.2-0.3,0.4-0.3,0.7c0,0.1-0.4,0.2-0.5,0.4c0.4,0.1,0.4,0.3,0,0.4c0.3,0.3,0.9,0,0.4-0.4c0.4,0.2,0.5-0.1,0.8-0.4
		c0,0,0.1,0.1,0.1,0.1c-0.4,0.2-0.5,0.7-0.6,1.1c-0.1,0.3,0.1,0.3,0,0.7c-0.1,0.2-0.2,0.3-0.1,0.4c0.3,0.3,0.3-0.4,0.3-0.6
		c0-0.3,0-0.7,0.4-0.9c-0.5,0.4-0.1,0.8,0.2,0.1c0.1,0.1,0.1,0.2,0.1,0.4c-0.3,0-0.2,0.1-0.2,0.4c0.1,0.4,0.2,0.2,0,0.7
		c-0.1,0.4-0.6,0.5-0.1,0.9c0-0.1,0-0.2,0-0.3c0.2,0.1,0.6,0.4,0.5,0c0.4,0.3,0.8-0.2,1.4-0.2c-0.9,0.2-0.4,1.6,0.1,1.2
		c-0.3,0.4-0.2,1.1,0.1,1.3l-0.1,0c-0.2-0.2-0.1-0.1-0.3-0.2c0,0.1,0,0.2,0.1,0.2c-0.3-0.1-0.6-0.2-0.9,0c-0.1-0.3-0.3-0.3-0.5-0.3
		c0.4,0.3,0.2,0.6-0.2,0.8c0.2,0,0.5-0.1,0.7-0.1c-0.1,0.5,0.2,0.6-0.1,1c-0.2,0.2-0.8,0.3-1.1,0.5c0,0.1,0.1,0.3,0,0.2
		c0.3,0.5,0.7-0.2,1.1,0.1c-0.1,0-0.1,0.1-0.2,0.1c0.2,0,0.6,0.3,0.7,0.3c0.3-0.1,0.7-0.2,1-0.3c-0.2,0.2-0.4,0.4-0.4,0.7
		c-0.6-0.1-1.3-0.4-1.5,0.4c-0.1,0.4-0.8,0.8-1.1,1.1c0.5,0.4,1.1-0.7,1.9-0.2c0.4-1.1,0.6-0.2,1.4-0.6c0.2-0.1,0.7-0.5,1-0.5
		c0.3,0,0.4,0.4,0.8,0.3c0.6-0.2,1.1-0.1,1.8-0.4c0.9-0.4-0.5-0.6-0.7-0.7c0.7-0.5,1.1-0.7,1.2-1.6c0.1-0.9-1.4-0.3-1.6-0.5
		c0.6-0.4-0.3-1.2-0.8-1.2c0.3-0.1,0.5,0,0.7,0.2c-0.2-1.2-1.2-1.3-1.5-2.2c-0.4-1.2-0.9-1.3-2-1.5c0.2-0.2,0.4-0.4,0.7-0.3
		c-0.3-0.7,1.2-1.6,0.8-2.2c-0.3-0.4-2.1-0.2-2.3,0.2l-0.1-0.1c0.1-0.1,0.2-0.3,0.4-0.4c-0.2,0-0.3-0.1-0.5-0.1c0.1,0,0.2,0,0.3,0
		c0.1-0.4,0.9-0.5,1-1.2c-0.4-0.1-1,0-1.4,0.3c-0.2-0.1,0-0.1-0.3,0c-0.1-0.5-0.5-0.1-0.3,0.3c-0.1,0-0.2,0-0.3,0.1
		c0,0.1-0.1,0.2-0.1,0.3c0.1,0.1,0.2,0.3,0.4,0.4c-0.2-0.1-0.5-0.2-0.7-0.1c0.1,0.2,0.1,0.4,0.2,0.5c-0.1,0-0.2,0-0.3-0.1
		C162.9,70.5,163,70.5,163.2,70.6z M164.4,75.1c-0.2,0.1-0.3,0.3-0.4,0.5c0.1,0,0.1,0,0.2,0C164.4,75.5,164.5,75.4,164.4,75.1z
		 M185.3,51.1c0.4-0.4,0.8-0.8,1.1-1.2c-0.3,0.2-0.5,0.4-0.8,0.7C185.3,50.6,185.2,50.8,185.3,51.1z M187.3,48.8
		c-0.2,0.3-0.4,0.3-0.6,0.6c0.2,0,0.5,0,0.7,0C187.5,49.1,187.8,48.9,187.3,48.8z M186,49.5c-0.5,0.2-0.5,0.1-0.5,0.6
		c-0.1,0.8,1-0.3,1.2-0.5C186.5,49.2,186.3,49.4,186,49.5z M188.2,48.5c-0.3-0.2-0.7-0.2-0.8,0.2c0.1,0,0.2,0.1,0.3,0.2
		C188,48.9,188.1,48.8,188.2,48.5z M184.8,50.7c-0.2,0.1-0.1,0.5-0.4,0.6c0-0.2,0.1-0.5,0.1-0.7c-0.3,0-0.5,0.3-0.4,0.6
		c-0.1,0-0.2,0-0.3,0c0,0.3,0,0.2-0.2,0.5c0.4,0.1,0.5,0.2,0.8-0.1c0.2-0.3,0.3-0.4,0.7-0.3C185.2,51,185.2,50.5,184.8,50.7z
		 M184,52.1c0,0.5-0.3,0.6-0.6,0.6c0.1,0.1,0.1,0.2,0.3,0.2c-0.1,0.1-0.1,0.3-0.2,0.4C183.8,52.9,184,52.8,184,52.1z M184.4,52
		c-0.1,0-0.2,0-0.4-0.1c0,0.1,0,0.4,0.1,0.5c0.3-0.3,0.6-0.6,0.9-1C184.7,51.4,184.5,51.6,184.4,52z M189,48.7
		c-0.4-0.3-1.2,0.2-1.5,0.6c0.2-0.1,0.4-0.1,0.6-0.2C188.4,49,188.7,48.8,189,48.7z M189.4,48.1c-0.1,0-0.3,0-0.5,0
		c0,0.1,0.1,0.2,0.1,0.3C189.3,48.7,189.4,48.5,189.4,48.1z M238.6,41.5c-0.6,0.1-0.5,0.3-0.5,1c0.6-0.1,1.1-0.2,1.7-0.3
		C239.5,41.6,239.1,41.4,238.6,41.5z M297.3,103.6c0,0.3,0.1,0.5,0.1,0.8c0.6,0.1,0.1-0.6,0.6-0.6c0.5,0.1,0.3,0.8,0.1,1
		c-0.3,0.5-0.4,2,0.4,1.4c0.6-0.5,0.9-1.3,1.2-2.1c0.1-0.2-0.3-0.7-0.3-0.8c-0.2-0.4-0.4,0.1-0.7-0.4c0.5-0.5,1.1,0.2,1.3-0.7
		c0.3,0.4,0.5,0.3,0.8,0.1c0.2-0.1,0.7-0.2,0.8-0.3c0.3-0.4,1.1-0.1,1.5-0.1c-0.7,0.6-0.3,1.1,0.3,1.6c0.3-0.4,0.6-1.2,1.1-1.1
		c-0.3-0.3-0.5-0.6,0-0.9c0.5,0.8,1.4,0.4,1.9-0.2c0.1,0.2,0.2,0.4,0.3,0.6c0.3-0.4,0.5-0.8,0.8-1c-0.1,0.2-0.1,0.5-0.2,0.7
		c0.5-0.2,0.6-0.6,1-0.8c0.1,0-0.1-1,0-1.3c0.1-0.5,0.3-0.6,0.3-1.2c0-0.4-0.1-1.1,0.5-0.8c0-0.4-0.1-0.7,0.2-1
		c0.4-0.2,0.2-0.7,0.3-1.2c0-0.3-0.3-0.8-0.5-1.1c-0.2-0.3,0-0.6,0.1-0.9c-0.5-0.3-0.8,0.1-0.7,0.7c-0.3-1.2-1,0.4-1.1,0.8
		c-0.1,0.4,0.3,0.5,0.3,0.7c-0.2,0.5-0.3,1-0.5,1.5c-0.2,0.6-0.6,1.3-1.2,1.6c-0.4,0.2-0.7,0.4-1.1,0.4c-0.4,0,0.1-0.7,0.2-0.8
		c-0.5,0.2-0.7,0.1-0.7,0.7c0,0.3-0.5,0.7-0.7,1c-0.2,0.3,0.1,0.6-0.3,0.7c-0.6,0.2-0.3-0.2-0.7-0.2c-0.7,0.1-1.9-0.1-2.3,0.5
		c-0.5,0.7-1.1,1.1-1.8,1.1C298.9,102.9,297.8,103.3,297.3,103.6z M296.3,138.5c-0.3,0.3-0.8,0.6-1,0.9c-0.3,0.5-0.1,0.6,0,1.1
		c0.1,0.3,0.1,0.8,0.1,1.2c0,0.2,0.6,0.6,0.7,0.7c-0.1-0.5-0.3-1.6,0.6-1.2c-0.1-0.1-1-0.7-0.5-0.8c0.5-0.1,0.5-0.7,0-0.8
		c0.1-0.1,0.2-0.3,0.3-0.4C296.4,138.9,296.3,138.7,296.3,138.5z M318.5,167.8c-0.6-0.5,0.2-1.2-0.7-1.5c-0.1,0-0.6,0.6-0.7,0.2
		c-0.1-0.4-0.3-0.9-0.4-1.3c-0.2-0.8-0.2-1.2-0.9-1.6c-0.3-0.1-2.1-1-2.1-1.2c0-0.7,0.2-1.6-0.3-2.1c-0.7-0.8-0.6-1.1-0.7-2.2
		c0-0.7-0.9-1.1-1.4-0.7c-0.2-1.6-0.7-2.8-1.3-4.2c-0.7,0.2-0.8,1.5-1,2.2c-0.2,0.7,0,1.6,0,2.3c0,0.9-0.5,3.8-1.7,3.3
		c-0.4-0.2-0.8-0.9-1.3-1.2c-0.8-0.5-1.7-1-2.5-1.5c-0.8-0.5-0.4-0.7-0.2-1.7c0.2-0.8,0.6-1.1,1.1-1.7c-0.8-0.8-1-0.8-2-0.9
		c-0.8-0.1-1.6-0.2-2.4-0.2c0,0.4,0.1,0.8,0.1,1.1c-0.9-0.1-1.7-0.6-2.3,0.2c-0.6,0.8-0.7,1.6-0.9,2.6c-0.8-0.4-1.5-0.8-2.3-1.2
		c-0.3-0.1-1.2,0.9-1.5,1.1c-1.3,1.1-2.9,2-3.6,3.6c-0.3,0.8-0.3,1.5-1.1,1.7c-1.1,0.2-2.1,0.5-3.2,0.7c-0.7,0.2-1.1,0.5-1.8,0.9
		c-0.8,0.6-0.9,0.8-1.3,1.8c-0.1-0.3-0.3-0.7-0.4-1c-0.5,1.3-0.9,2.4-0.3,3.7c0.3,0.8,0.2,0.9,0,1.7c-0.2,0.6,0.2,1,0.4,1.5
		c0.6,1.3,1,2.6,1.2,4.1c0.1,0.6,0.5,2,0.3,2.5c-0.1,0.2-1.3,0.9-0.7,1.3c0.5,0.4,1,1.1,1.6,1.1c0.6,0,1.3,0.2,1.8-0.3
		c0.7-0.7,0.9-0.9,1.7-1c0.6-0.1,1.3-0.2,1.9-0.2c0.5,0,1,0,1.4,0c0.1,0,0.4-0.7,0.4-0.8c0.2-0.5,1.2-0.7,1.7-1
		c0.5-0.3,1.3,0.1,1.7-0.1c0.4-0.2,1.1-0.9,1.5-0.9c1.5,0.2,2.8,0.4,4.2,0.9c0.9,0.3,1,0.5,1.5,1.4c0.3,0.6,0.6,1.1,1,1.7
		c0.8-0.9,1.5-1.7,2-2.8c0.4,1.1-0.4,2-0.9,2.9c0.9,0.2,0.9-0.3,1.3-1.2c0.1,0.6-0.1,2,0.5,2c0.5,0,0.9,1.1,1,1.5
		c0.3,1.6,1.5,2,2.8,2.3c0.9,0.1,1,0.3,1.7-0.3c0.8-0.7,0.7-0.4,1.4,0.4c0.3,0.4,1.1,0.1,1.4-0.2c0.7-0.7,0.8-0.8,1.7-0.8
		c1.6-0.1,1.4-2.2,1.7-3.5c0.2-1.2,1.5-2,1.8-3.2c0.3-1.4,1-3,1.1-4.4c0-1.3-0.4-2.9-0.6-4.2C319.7,168.9,319.1,168.4,318.5,167.8z
		 M293.7,144.9c-0.3,0.9,1.1,0.5,1.3,0.4C295,144.8,293.9,144.3,293.7,144.9z M298.8,153.7c-0.5,0.3-1.1-0.4-1.1,0.6
		c0.4,0,0.9,0.2,1.2,0C299.2,154.1,299.3,153.6,298.8,153.7z M320.4,146.7c0.2-0.5,0.3-0.6,0-1c0-0.1-0.2,0.1-0.3-0.1
		c-0.1-0.1-0.2-0.3-0.3-0.4c-0.5-0.4-1.1-0.7-1.6-1c-0.2,0.6,2.1,0.9,1.9,2.1C320.2,146.4,320.4,146.5,320.4,146.7z M315.4,188.5
		c-0.3,0.1-1.2,0.7-1.5,0.6c-0.5-0.2-1.1-0.5-1.6-0.7c-0.1,0.8,0,1.8,0.3,2.6c0.4,1,0.9,1.2,1.8,1.4
		C315.4,192.5,316.5,188.8,315.4,188.5z M317,147.4c-0.4,0-0.8-0.1-1.2,0c0.3,0.6,1.5,1,2.1,0.8c0.4-0.1,1-0.3,1.2-0.7
		c0.1-0.1,0.9-0.1,0.4-0.6c0.7-0.2,0.4-0.8,0-1c-0.5-0.4-0.4,0.6-0.4,0.9c-0.1,0-1.8,1.3-1.4,0.2C317.6,146.8,317.4,147.4,317,147.4
		z M313.3,147.3c-0.3-0.4-0.1-0.9-0.6-1.2c-0.4-0.3-0.9-0.6-1.3-0.8c-0.7-0.4-1.5-0.6-2.2-0.9c-1.1-0.4-2.3-0.9-3.4-1.3
		c-0.5-0.2-1.4,0.2-1.8,0.7c-0.1,0.2-0.7,1.2-0.9,1.1c-0.5-0.2-0.7-0.3-0.9-0.8c-0.2-0.6-0.4-1-0.4-1.6c-0.1-0.6-0.3-0.5-0.8-0.7
		c-0.9-0.2-1.8,0-2.3,0.9c0.3,0.1,0.6,0.1,1,0.1c0.2,0,0,0.5,0.2,0.7c0.5,0.3,1.2,0.1,1.8,0.1c0,0.1,0,0.4,0,0.5
		c-0.7-0.2-1.1-0.1-1.9,0.1c0.3,0.5,0.6,1.1,0.9,1.6c0.3-0.3,0.5-0.7,0.8-1c0.1,0.8,0.1,0.8,0.8,1.1c0.8,0.3,1.6,0.7,2.3,1
		c0.3,0.1,1.1,0.3,1.3,0.7c0.3,0.6,0.5,1.3,0.8,1.9c-0.9,0.3-1,0.2-1.1,1.2c0.7-0.1,1.4-0.1,2.1-0.2c0.4,0,0.6,1.1,1.1,1.1
		c0.7,0,1.4,0.2,2.1-0.2c0.4-0.2,0.5-1.4,0.8-1.3c0.4,0.1,1.6,0,1.9,0.3c0.6,0.6,1.1,1.2,1.7,1.8c0.4,0.5,1,0.4,1.6,0.5
		c0.4,0.1,1.1,0.6,1.4,0.5c-0.3-0.3-1.1-0.8-0.7-1.2c-0.4-0.1-0.9,0-0.7-0.6c-0.9,0-0.9-0.3-1.3-1.2c-0.1-0.2-0.5-0.4-0.7-0.5
		c-0.2-0.1-0.3-0.6-0.3-0.8c0.3,0,0.6-0.1,0.9-0.1C315.5,147.5,313.8,147.9,313.3,147.3z M309.7,80.3c0,0.7,0.1,1.3-0.2,2
		c-0.4,0.8-0.1,0.8,0.1,1.6c0.1,0.5,0.1,0.5-0.2,1c-0.1,0.2,0.1,0.6,0.1,0.8c0,0.8-0.1,1,0.2,1.7c0.1-0.4,0.1-1.1,0.6-1.2
		c0.5-0.1,0.8,0.5,0.7,1c0.5-0.5-0.1-1.3-0.4-1.8c-0.4-0.6-0.6-0.7-0.4-1.4c0.3-0.9,0.2-1.2,1.1-1.4c0.6-0.1,0.5,0.9,1.1,0.9
		c-0.5-0.8-0.7-1.5-0.9-2.5c-0.1-0.4-0.2-0.9-0.3-1.3c-0.1-0.3-0.4-0.5-0.5-0.8c-0.2-1,0.6-1.4,0.1-2.4c-0.3-0.5,0.1-1.9-0.9-1.2
		c0.3,0.3,0.6,0.9,0.2,1.3c-0.2,0.1-0.2-0.2-0.5,0.1c-0.3,0.2-0.2,0.3-0.1,0.7c0.1,0.5-0.2,1.2-0.2,1.7
		C309.2,79.5,310.2,79.8,309.7,80.3z M291.8,130.9c0.5,0.1,0.8-0.6,0.2-0.7C291.8,130.4,291.2,130.8,291.8,130.9z M291.1,131.1
		c0.1-0.5,0.3-0.8,0.6-1.1c0.2-0.2,0.1-0.8,0.2-1c-0.1,0-0.1,0.1-0.2,0.1C291.5,129.6,291,130.4,291.1,131.1z M292.7,128.9
		c-0.2,0.1-0.5,0-0.7-0.2c0,0.3,0,0.6,0.2,0.8c0.4-0.4,0.1,0.7,0.5,0.9c0-0.2,0-0.3,0-0.5c0.1,0.1,0.1,0.3,0.2,0.4
		C293.2,130,292.7,129.4,292.7,128.9z M291.2,128c0.1,0.2,0.3,0.4,0.5,0.6c0-0.2,0-0.5,0-0.6c-0.4,0-0.3-0.4-0.8-0.4
		c0.1,0.3,0.1,0.6-0.1,0.8C290.9,128.2,291.1,128.1,291.2,128z M292,127.6c0,0.4,0.3,0.5,0.6,0.7c0.3,0.3,0,0.3,0.2,0.5
		c0.7,0.9,0.6-0.3,0.5-0.9C293,127.4,292.5,127.6,292,127.6z M289.6,128.4c0.1,1.1-0.1,1.9,1.1,1.4c-0.3,0.4-1,1-0.3,1.3
		c0.2,0.1,0.2,0.5,0.5,0.4c0.3,0,0.2-0.5,0.1-0.8c0-0.4,0.5-1.2,0.3-1.4c-0.4-0.6-0.6-0.7-1.2-0.9
		C290,128.4,289.8,128.4,289.6,128.4z M287,142.8c-0.1,0.4,0,0.7-0.2,1.1c-0.3,0.6-0.5,0.7-0.1,1.2c0.2,0.3,0.7-0.1,0.6,0.6
		c0,0.3-0.4,1.5-0.2,1.7c0.1,0.2,0.9,0.3,1.1,0.1c0.1-0.1-0.2-0.5-0.1-0.7c0-0.2,0.2-0.4,0.2-0.5c0-0.4,0-0.9,0-1.3
		c0-0.4-0.5-0.7,0.3-0.8c0.4,0,0.1,0.8,0.2,1c0.2,0.5,0.7,0.4,0.6,0.9c-0.1,0.5,0.2,0.6,0.6,0.5c-0.2,0,0.8-0.8,0.7-0.5
		c0.3-0.7-0.4-0.3-0.6-0.8c-0.1-0.1,0.3-0.4,0.2-0.5c-0.1-0.2-0.2-0.5-0.4-0.7c-0.2-0.4-0.4-0.4-0.7-0.6c0.9,0.3,1.2-1.5,2-1
		c0.2-0.8-0.5-0.3-0.8-0.3c-0.4,0-0.4,0.2-0.7,0.2c-0.4,0.1-0.2-0.3-0.5,0.1c-0.9,0.9-1.8-0.7-1.1-1.5c0.3-0.4,0.7,0.1,1.2,0
		c0.5,0,1.1-0.2,1.6,0c1.1,0.7,1.7-0.6,2.1-1.6c-0.5,0-0.8,0.7-1.2,1c-0.2,0.1-0.6-0.1-0.9-0.1c-0.3,0-0.3,0.2-0.6,0.1
		c-0.5-0.2-1.3-0.6-1.7-0.4c-0.6,0.4-0.7,0.7-1,1.4C287.8,142,287.2,142.3,287,142.8z M288.1,126.6c0.3,0.5,0.6,1,0.9,1.5
		c0.6-0.7,0.5-1-0.2-1.5C288.6,126.6,288.3,126.6,288.1,126.6z M282.5,150.3c0,0.6,0.4,1,0.8,0.5
		C283.7,150.3,282.9,150.1,282.5,150.3z M308.1,90.6c0,0.2,0,0.7-0.2,0.8c-0.3,0.2-0.4,0.2-0.5,0.6c0,0.1,0.3,1.3,0.4,1.3
		c0.1,0,0.3-0.5,0.5-0.4c0.1,0,0.5,0.1,0.3-0.2c-0.2-0.4-0.8-0.1-0.8-0.8c0.3-0.1,0.7,0.2,0.8,0.1c0.2-0.1,0.6-0.4,0.8-0.2
		c0.3,0.2,1,0.9,1.4,0.8c0,0,0.2-0.8,0.3-0.8c0.1-0.2,0.6-0.4,0.7-0.4c0.6,0,1-0.1,1.5-0.6c-1.1,0-0.3-0.9-0.4-1.4
		c-0.8,0.8-0.8,0.6-1.7,0.1c-0.7-0.3-1-1-1.5-1.6c-0.6-0.8-0.3,1-0.3,1.2c0.1,0.3-0.4,0.6-0.4,0.9c0,0.3,0.1,0.5-0.1,0.8
		C308.7,90.8,308.4,90.7,308.1,90.6z M178.4,73.5c0,0.3,0.5,0.8,0.7,0.8c0.4-0.1,0.3-0.6,0-0.7C179,73.2,178.7,73.3,178.4,73.5z
		 M203,100.6c-0.3,0.1-0.8,0.5-1.1,0.5c-0.2,0-1-0.2-1.1,0.1c-0.5,1,1.6,0.4,1.8,0.4C202.3,101.1,202.7,100.9,203,100.6z
		 M194.8,101.4c0-0.4-0.7-0.5-1.1-0.5c-0.7,0.1-0.9,0-1.5-0.4c-0.1,0.1-0.2,0.4-0.2,0.5C193.1,101.4,193.8,101.5,194.8,101.4z
		 M179.8,73.3c-0.1,0.3,0,0.8,0.3,0.8c0.4,0,0.3,0.3,0.4,0.7c0.1-0.5,0-1,0.6-1c-0.1-0.1-0.2-0.2-0.3-0.3c1.4-0.3-0.9-1.5-0.2-0.2
		c-0.3,0-0.4-0.2-0.2-0.4c-0.1,0-0.2,0-0.3,0C180.1,73,180,73.2,179.8,73.3z M191.9,68.8c-0.7-0.2-0.9-0.2-1.6,0
		c0.2,0.3,0.4,0.5,0.2,0.9C190.8,69.3,191.5,69.1,191.9,68.8z M177.2,94.7c0,0.1-0.2,0.4-0.3,0.6c0,0.1,0.2,0.2,0.2,0.3
		c-0.1,0.5-0.5,0.5-0.1,0.9c0.3,0.3,0.6,0.3,0.6-0.2c0-0.3,0.4,0,0.5-0.5c0.1-0.5,0.1-1,0.2-1.5c0.1-1-1.1-0.4-1.3-0.2
		c-0.1,0-0.2-0.1-0.3-0.1C176.6,94.5,177.2,94.3,177.2,94.7z M356.6,60.1c-0.2,0-1.1-0.2-1.2-0.1c-0.2,0.2,0,0.7,0.2,0.8
		c0.5,0.4,1.3-0.2,1.7,0.2c0.4,0.5,1.1,0.7,1.4-0.1C357.9,60.7,357.2,60.2,356.6,60.1z M186.7,71.3c0.2-0.3,0.5-0.5,0.8-0.7
		c-0.3-0.4,0-0.6,0.2-0.9C186.7,69.5,186.6,70.5,186.7,71.3z M188.7,66.4c0-0.1,0-0.2-0.1-0.3c0.1,0,0.1,0,0.2,0
		C188.7,65.4,187.9,65.9,188.7,66.4z M177.2,92.3c-0.4,0.3,0.3,0.9,0.6,0.9c0.3-0.8,0.3-1.2,0.2-2c-0.3,0.1,0,0.3-0.2,0.5
		C177.7,92,177.4,92.1,177.2,92.3z M322.8,147.9c-0.3-0.1-0.2-0.6-0.6-0.7c0,0.3,0,0.6,0.2,0.8c0.2,0.2,0.1,0.5,0.2,0.6
		c0.2,0.3,1.1,0.5,0.8-0.1C323.2,148.2,323,148,322.8,147.9z M301.4,103.4c0.1-0.1,0.3,0.4,0.5,0.2c0.1-0.1,0.5-0.5,0.5-0.7
		c0.1-1.2-1.6-0.2-1.8-0.4c-0.4,0.8-0.7,0.6-0.4,1.6C300.8,104.6,301,103.6,301.4,103.4z M295.6,144.8c-0.5,0.6,0.4,0.6,0.7,0.6
		c0.2,0,0.1-0.4,0.3-0.4c0.2,0.1,0.5,0.2,0.7,0.2c0.6-0.2,0.8,0.1,1.3,0.4c0.2-1-0.9-1.1-1.5-1.3
		C296.5,144.5,295.9,144.4,295.6,144.8z M340.5,189.4c0-0.4-0.1-0.7-0.3-1.1c-0.5,0.3-0.6,0.3-0.8,0.8c-0.1,0.6-0.3,0.3-0.6,0.7
		c-0.2,0.3-0.2,0.8-0.4,1.1c-0.2,0.3-0.6,0.6-0.9,0.8c-0.3,0.2-0.6,0.6-0.9,0.7c-0.3,0.1-0.8,0.2-1,0.5c-0.6,0.8-1.1,1.5-1.7,2.3
		c-0.6,0.8,1.1,0.6,1.3,0.8c0.3,0.4,1.5,0.8,1.9,0.2c0.4-0.6,1.1-1.4,1.3-2.1c0.3-1,0.6-1.2,1.4-1.8c0.1,0.2,0.2,0.4,0.4,0.4
		c-0.3-0.6-0.4-0.7,0.1-1.2c0.4-0.5,0.8-1.1,1.2-1.6c-0.1-0.4-0.2-0.8-0.4-1.2C341,189,340.8,189.2,340.5,189.4z M335.3,196.4
		c-0.3,0.1-0.1,0.5-0.4,0.8C335.3,197,336.2,197.1,335.3,196.4z M345.4,184.5c-0.8,0.5-0.9,0.4-1.9,0.2c-0.6-0.1-0.2-1.2-0.8-1.5
		c0.1,0.6-0.3,1-0.7,0.3c-0.1-0.2,0.1-0.5-0.1-0.7c-0.1-0.1-0.3-0.4-0.4-0.6c-0.2-0.8,0.2-0.7-0.6-1c-0.4-0.2-0.6-0.6-1-0.7
		c0.2,0.4,0.4,0.9,0.6,1.3c0.1-0.1,0.2-0.1,0.2-0.2c0.2,0.5,0.7,2.2,1.2,2c-0.2,0.5,0.2,1.1,0,1.6c-0.3,0.7-0.4,0.9-1,1.4
		c0.2,0.2,0.5,0.5,0.7,0.6c0.2,0.1,0.7,0.1,0.8,0.3c0.3,0.5-0.4,1.3-0.7,1.6c0.5,0.3,1.1,0.6,1.5-0.2c0.3-0.6,0.9-1.4,0.9-2.2
		c0-0.5,0.5-0.5,0.8-0.4c0.3,0.1,0.1-0.3,0.2-0.4C345.6,185.8,346.2,184.6,345.4,184.5z M171.1,95.6c0.2,0.2,0.4,0.3,0.6,0.5
		c0.2-0.1,0.4-0.3,0.5-0.4C171.9,95,171.7,95.3,171.1,95.6z M354.9,56.8c0,0.6,0.1,0.9-0.4,1.1c-0.4,0.2-0.1,0.8,0,1.2
		c-0.7-0.1-1-0.2-1.6-0.6c-0.4-0.3-1.2,0.2-1.3-0.2c-0.2-0.7-0.1-1.3-0.7-1.3c-0.7,0-1.4-0.1-2.1-0.1c-0.4,0,0.3-1.3-0.6-1.1
		c-0.5,0.1-0.3,1.3-0.3,1.7c0,0.7-2.4,1-3,1.1c0.5,0.4,1.2,0.6,1.2,1.3c0.1,0.9,0.4,1.2,0.9,1.9c0.1,0.1-0.3,0.6-0.4,0.6
		c-0.2,0.1-0.7-0.1-0.9-0.2c-0.3-0.1-1.1-0.4-1.4-0.2c-1.3,0.8-2.6,1.6-3.9,2.4c-1,0.6-2.1,0.9-2.6,2.1c-0.9-0.9-0.9-1-2.1-0.8
		c-1.1,0.1-1.2,0.2-1.9,1.2c0-0.4,0-0.7,0-1.1c-0.3,0.2-1,0.7-1.4,0.6c-0.5-0.1-0.9-0.3-1.2,0.1c-0.6,1-1.3,2.1-1.9,3.1
		c0.3,0.1,1.6,0.3,1.4,0.7c-0.3,1-0.3,1,0.3,1.9c-1,0.4-1.9,0.9-1.4,2.2c0.1,0.2-0.8,0.6-1,0.6c-0.5,0.2-0.9,0.1-1,0.7
		c-0.1,0.7,0.1,1.3-0.5,1.4c-0.8,0.2-0.9,0.1-1,1c-0.1,0.9-1.2,1.8-1.8,2.4c-0.7-3.1-2.9-9,0.8-10.8c1.1-0.5,1.7-0.7,2.3-1.7
		c0.6-1,1.3-1.4,2.2-2.1c0.6-0.5,1.5-0.7,1.7-1.5c0.1-0.6,0.3-1.2,0.4-1.9c0-0.1,0.9-0.2,1-0.3c-0.6-0.1-1-0.2-1.6-0.1
		c-0.5,0.1-0.7,0.8-1,1.2c-0.5,0.8-1.6,1.4-2.3,2c-0.3-0.9-0.3-1.3-0.1-2.3c-0.7,0.4-1,0.6-1.7,0.5c-0.8,0-1-0.1-1.6,0.4
		c-1,0.8-1.8,1.7-2.6,2.7c0.3,0.2,0.9,0.5,0.7,0.9c-0.1,0.1-1,0.2-1.1,0.2c-0.9,0.1-1.8,0.2-2.7,0.3c0.3-0.2,0.6-0.5,1-0.7
		c-0.9-0.2-1.7-0.3-2.6-0.5c-0.2-0.1-0.8,0.5-1,0.6c-0.3,0.2-0.6,0-0.9,0c-0.8-0.1-1.5-0.1-2.3-0.1c-0.5,0-1.9-0.2-2.3,0.2
		c-1.3,1.2-2.6,2.5-3.9,3.8c-1.2,1.2-2.5,2.1-3.9,3.1c0.2,0.5,0.5,0.4,0.9,0.5c0.5,0,0.6,0,0.7,0.5c0.1,0.2,0.2,0.9,0.4,0.9
		c1,0.1,1.1,0.2,1.6-0.8c0.4-0.9,2.9,1.1,2.7,1.8c-0.3,1.6-0.6,3.2-1,4.8c-0.3,1.5-0.9,2.3-1.7,3.6c-0.8,1.2-1.4,2.4-2.4,3.4
		c-0.7,0.7-1.3,1.3-2,2c-0.4,0.4-1.1,0.4-1.6,0.5c-0.2,0.1-0.5-0.6-0.7-0.7c-0.2,0-0.7,0.4-0.9,0.5c-0.8,0.4-0.8,0.7-1.1,1.6
		c-0.5,1.4-1.6,2.2-2.6,3.2c1.1,1,2.1,2.1,1.9,3.7c-0.2,1.1,0,1.4-0.9,1.9c-0.8,0.4-1.2,0.4-2,0.3c0.1-0.6,0.2-1.3,0.3-1.9
		c0.1-0.7-0.6-0.7,0-1.3c0.4-0.4,0.2-1-0.3-0.9c-0.5,0-1.2,0.4-1.4-0.4c-0.1-0.4,0.4-1.3,0.5-1.7c0-0.1-1-0.7-1.2-0.7
		c-0.4,0-1.1,0.7-1.4,0.9c-0.5,0.3-1,0.6-1.4,0.9c-0.4-1,0.5-1.7,1.1-2.2c-0.6-0.5-0.6-0.6-1.3-0.3c-0.4,0.2-0.8,0.5-1.2,0.8
		c-0.5,0.4-0.8,0.7-1.4,0.9c-0.1,0-1.1,0.4-0.8,0.7c0.4,0.4,0.8,0.8,1.1,1.3c0.4,0.7,0.4,0.6,1.1,0.3c1-0.5,1.8-0.1,2.8,0.2
		c-1.2,1-2.3,2-3.5,2.9c0.5,0.4,1.1,0.8,1.4,1.4c0.4,0.8,0.7,1.6,1.1,2.4c-0.6-0.1-1.2-0.2-1.8-0.3c0.6,0.5,1.3,0.9,1.9,1.4
		c-0.5,0.3-0.9,0.7-1.4,1c0.6,0.2,1.2,0.3,1.7,0.5c-0.7,1.3-1.3,3-2.3,4.2c-1,1.2-1.7,2.6-3.2,3.2c-1.5,0.6-3,1.3-4.6,1.8
		c-0.5,0.2-1,0.3-1.4,0.5c-0.4,0.1-0.3,0.1-0.2,0.6c0.1,0.3,0.1,0.9-0.5,0.6c-0.1-0.1-0.3-0.8-0.4-1c0.2,0,0.3-0.2,0.5-0.2
		c-0.5-0.4-1.5-0.7-2.1-0.3c-0.5,0.4-1.7,1-1.9,1.7c-0.1,0.2-0.5,1.1-0.4,1.3c0.3,0.5,0.6,1,0.9,1.5c0.4,0.7,1,1.3,1.5,2
		c0.6,0.8,1,1.1,1,2.1c0,0.6,0.4,2.1-0.1,2.5c-1.3,1.2-2.6,2.4-4.1,3.4c-0.5-0.5,0.2-1.2-0.2-1.6c-0.5-0.5-0.9-1-1.4-1.5
		c-0.8-0.9-1.4-1.4-2.6-1.4c0-0.3,0.1-0.5,0.1-0.8c-1.1,0-0.9,0.2-1,1.4c-0.1,0.7-0.4,1.4-0.6,2c-0.1,0.3,0,0.6,0,0.9
		c0.1,0.6,0.1,0.5,0.6,0.4c0.3,0,0.6,1.7,0.7,2c0.2,0.5,1.2,1,1.6,1.3c0.3,0.3,1,0.9,1.2,1.3c0.2,0.6,0,1.5,0.1,2.1
		c0.1,0.6,0.5,1.2,0.7,1.8c-0.9-0.2-1.5-0.7-2.2-1.3c-0.7-0.5-0.7-0.9-1-1.8c-0.2-0.6-0.4-2.1-0.8-2.5c-0.7-0.7-1.3-1.4-2-2.1
		c-0.3-0.3,0.1-2,0.2-2.5c0.1-0.9-0.1-1.9-0.2-2.8c-0.1-1.8-0.7-3.2-1.2-4.9c-0.3,0.4-0.7,0.8-1,1.3c-0.4,0.5-0.4,0.5-1.1,0.4
		c-0.7-0.2-0.6-0.1-0.5-0.9c0-0.3,0.3-1.2,0.2-1.5c-0.5-1.1-0.7-2-1.6-2.7c-0.8-0.6-1-1.7-1.4-2.6c-0.4,0.3-0.9,0.9-1.4,0.9
		c-0.8,0.1-1.6,0.2-2.4,0.3c-0.1,0-0.6,0-0.7,0.1c-0.1,0.2,0.1,0.7,0,0.9c-0.4,0.4-0.8,0.8-1.2,1.2c-1.1,1.2-2.3,2.3-3.4,3.5
		c-0.4,0.4-1.2,0.6-1.6,0.8c-0.6,0.3-0.4,0.7-0.4,1.5c0,0.6,0.2,1.5,0,2.1c-0.1,0.5-0.6,1.4-0.4,2c0.2,0.9,0.3,1.3,0.9,1.9
		c0.5,0.6,0.7,1.2,1,1.9c0.6,1.3-1.6,2.4-1.8,0.7c-0.1-0.8-0.1-1.5-0.1-2.2c0-0.8-0.2-0.9-0.7-1.4c-0.1,0.5,0,1.1-0.4,1.4
		c-0.5,0.3-0.9,0.6-1.4,0.9c-1.3-2.4-2.3-4.9-3.5-7.4c-0.3-0.7-0.8-1.4-0.9-2.1c-0.1-0.5,0-1.2-0.1-1.7c0-1.6-0.1-3.2-0.1-4.8
		c-0.3,0.5-0.7,0.9-1,1.4c-0.3,0.5-0.4,0.4-0.9,0.4c-0.6,0-1.4-1.2-1.8-1.7c0.4-0.1,1.4,0,1.5-0.7c-0.2,0-0.6,0.1-0.8,0.1
		c-0.6-0.2-1.4-0.8-2-1.1c-0.4-0.2-0.7-1.3-0.9-1.7c-0.2-0.5-3.6,0.3-4.2,0.3c-1.3,0.1-2.5-0.3-3.8-0.6c-0.5-0.1-1.2-0.1-1.4-0.6
		c-0.5-1-0.4-1.3-1.4-0.9c-0.8,0.3-1.3,0.2-2.2,0c-0.5-0.1-0.9-0.7-1.4-1c-0.9-0.4-1-0.5-1.4-1.5c-0.3-0.6-0.4-1.4-1.1-1.5
		c-1.1-0.2-1.1-0.1-1.9,0.8c-0.3,0.3,0.7,1.5,0.9,1.8c0.7,1.2,1.3,2.4,1.9,3.7c0.1-0.6,0.2-1.1,0.3-1.7c0.5,0.8,0.4,1.6,0.4,2.6
		c0.8,0,2.2,0.1,2.9-0.4c0.7-0.5,1.4-1.6,2-2.3c0.1,0.7-0.1,1.8,0.5,2.2c0.3,0.2,0.7,0.6,1.1,0.7c0.3,0.1,0.7,0,0.9,0.4
		c0.1,0.3,0.4,1,0.6,1c0.5,0.1,0.3,0.4,0.3,0.9c0,0.5-1.1,1.4-1.4,1.8c0-0.2-0.1-0.3-0.2-0.5c-0.3,0.6-0.4,0.9-0.4,1.6
		c0,0.6-0.2,0.5-0.7,0.8c-0.5,0.2-1,0.5-1.6,0.7c-0.3,0.1-0.3,1-0.6,1.2c-0.2,0.1-0.6-0.2-0.9-0.1c-0.4,0.2-0.8,0.3-1.1,0.5
		c-0.5,0.2-0.4,0.9-0.9,1.1c-0.9,0.3-1.7,0.6-2.6,0.9c-0.3,0.1-0.3,0.2-0.5,0.5c-0.2,0.3-0.5,0.3-0.8,0.4c-0.7,0.1-1.5,0.4-2.2,0.6
		c-0.5,0.1-0.7,0.8-1.2,0.8c-0.9,0-1,0.2-1.2-0.7c-0.2-1-0.4-1.9-0.5-2.9c-0.3-1.5-1-2.5-1.8-3.8c-0.5-0.8-0.5-0.9-1.3-1.2
		c-0.5-0.2-0.5-1.6-0.5-2c-0.1-0.7-0.6-1.4-0.9-2.1c-0.2-0.4-0.6-0.6-0.9-1c-0.5-0.9-1-1.8-1.5-2.8c-0.3-0.5-0.4-1.2-1.1-1.1
		c0.1-0.6,0.2-1.1,0.2-1.7c-0.2,0.7-0.4,1.4-0.7,2c-0.8-0.8-1.2-1.5-1.7-2.5c-0.5,0.7,0.4,1.8,0.7,2.5c0.6,1.3,1.3,2.6,1.9,3.8
		c0.4,0.8,0.2,1.6,0.8,2.2c0.2,0.3,0.8,0.7,0.9,1c0.1,0.7,0.2,1.3,0.3,1.9c0.1,0.4,0,1.1,0.3,1.4c0.4,0.3,0.9,0.7,1.2,1.1
		c0.5,0.8,0.8,2.1,1.1,3c0.1,0.3,1,0.3,1.2,0.5c0.3,0.4,0.7,0.8,1,1.2c0.6,0.7,1.8,1.4,0.9,2.3c0.6,0.2,1.3,1.4,1.8,1.3
		c1.7-0.4,3.4-0.9,5-1.3c0.3-0.1,1.2-0.5,1.5,0c0.2,0.3-0.4,1.9-0.5,2.2c-0.3,1.3-1.3,2.6-1.9,3.8c-0.5,1-1,2.1-1.8,2.9
		c-2,2.1-4.4,4.1-5.9,6.7c-0.3,0.6-2.5,3.5-2.2,4.1c0.6,0.9,0.6,1.1,0.5,2.2c-0.1,1,0,1.1,0.6,1.9c0.9,1.2,0.6,3.1,0.7,4.7
		c0.1,1.1-0.9,2.5-1.8,2.9c-0.5,0.2-1.6,0.5-1.9,0.9c-0.5,0.6-1,1.2-1.5,1.8c-0.4,0.5-1,0.8-0.7,1.4c0.2,0.4,0.9,1.5,0.8,2
		c-0.1,0.6,0,1.9-0.3,2.4c-0.3,0.4-1.5,0.7-2,0.9c-0.7,0.3-0.6,0.7-0.6,1.5c0,0.5,0,1.7-0.2,2.1c-0.8,1.2-1.6,2.6-2.6,3.7
		c-0.5,0.6-1.2,1-1.7,1.5c-0.3,0.3-0.9,1.1-1.4,1.2c-1.5,0.3-3,0.6-4.5,0.9c-0.7,0.1-1.4,0.3-2.1,0.4c-0.3,0.1-1-0.8-1.2-1
		c-0.8-0.7-0.8-0.7-0.7-1.9c0-0.4-0.5-1.3-0.6-1.6c-0.3-0.9-0.7-1.7-1.1-2.6c-0.2-0.5-0.9-0.9-1.2-1.3c-0.3-0.3-0.3-1.5-0.3-1.8
		c-0.2-1-0.3-2-0.5-3c-0.2-1.3-0.9-2.4-1.5-3.6c-0.4-0.8-0.8-1.6-1.1-2.3c-0.2-0.3,0.1-1,0.1-1.3c0.3-1.7,0.3-3.3,1.1-4.8
		c0.8-1.4,0.3-2.5,0-4c-0.4-1.6-0.7-3.2-1.1-4.8c-0.1-0.5-0.8-1.1-1-1.4c-0.5-0.7-1.1-1.5-1.6-2.2c-0.3-0.4-0.1-0.9,0-1.4
		c0.1-1,0.2-2,0.3-3c0.1-0.9,0.1-0.9-0.3-1.6c-0.6-0.8-0.5-0.8-1.4-0.8c-0.5,0-1.5,0.3-1.9-0.1c-0.5-0.6-1-1.3-1.6-1.9
		c-0.2-0.3-3.4,0.2-3.8,0.4c-0.7,0.4-1.5,0.8-2.2,1.1c-0.6,0.3-0.8,0.1-1.5,0c-0.7-0.2-1.1-0.4-1.7-0.2c-0.8,0.3-1.6,0.6-2.5,0.9
		c-0.4,0.1-0.8-0.4-1.1-0.6c-0.8-0.6-1.6-1.1-2.4-1.7c-1-0.7-1.5-1.1-2.1-2.1c-1-1.7-2-3.5-3-5.2c-0.3-0.6-0.6-1.1-1-1.7
		c-0.1-0.3,0.4-1.2,0.5-1.5c0.2-0.5,0.7-1.3,0.6-1.8c-0.2-0.8-0.4-1.7-0.6-2.5c-0.1-0.6-0.5-1.6-0.5-2.1c0-0.3,0.5-0.9,0.6-1.2
		c1-1.7,1.9-3.5,2.9-5.2c0.7-1.2,1.5-1.6,2.7-2.3c0.6-0.4,0.9-0.4,1-1.1c0.1-0.9,0.3-1.8,0.4-2.8c0.2-1.1,2.3-1.3,2.8-2.3
		c0.3-0.7,0.4-1.8,1.2-2c0.2-0.1,0.7,1,1.3,0.8c0.3-0.1,0.9-0.3,1.1-0.2c0.1,0.1,0.7,0.5,0.8,0.4c0.6-0.3,1.2-0.8,1.8-1.1
		c1.1-0.5,2.5-1,3.7-1.2c0.3,0,0.8-0.2,1.1-0.1c0.3,0.1,0.6,0.3,0.9,0.3c0.3,0,0.6-0.4,0.9-0.4c0.3,0,0.6,0,0.8,0
		c0.8,0,1.4,0.2,2.1-0.2c0.6-0.3,1.1,0.1,1.7,0.4c-0.4,1-0.5,1,0,1.9c0.2,0.4-0.7,1.1-1,1.4c0.5,0.4,1.1,1.2,1.7,1.4
		c1,0.3,2.1,0.5,3.1,0.8c0.8,0.2,0.6,1.1,1.4,1.4c0.7,0.3,1.3,0.2,2,0.6c0.9,0.6,1.4,0.8,1.9-0.3c0.1-0.3-0.3-0.7-0.2-0.9
		c0.1-0.2,0.3-0.8,0.6-0.9c1-0.3,1.5-0.4,2.5-0.2c0.2,0.1,0,0.5,0.3,0.6c0.5,0.1,0.9,0.2,1.4,0.3c0.4,0.1,0.4,0.3,0.6,0.6
		c0.1,0.2,0.5-0.2,0.6-0.2c0.7,0.2,1.5,0.4,2.2,0.7c0.8,0.2,0.9,0.2,1.7-0.1c0.9-0.4,0.9-0.5,1.8-0.1c1,0.5,2.6,0.3,3-0.9
		c0.3-0.8,1.7-3.3,1.1-4.1c-0.4-0.5,0.4-1.6,0.2-1.8c-0.2-0.2-0.5,0.1-0.7,0.3c-0.2,0.2-0.5-0.3-0.7-0.2c-0.3,0.1-0.5,0.7-0.8,0.8
		c-0.3,0.1-0.8,0-1,0c-0.6,0-0.9-0.7-1.5-0.8c-0.4-0.1-0.7-0.3-0.9,0.1c-0.2,0.5-0.2,0.5-0.7,0.6c-0.5,0.1-1.3-0.6-1.7-0.8
		c-0.7-0.4-2-2.5-1.2-3.4c-0.3,0-0.5,0.1-0.8,0.1c-0.1-0.9,1-1.1,1.5-1.1c0.9,0,1.4,0,2.2-0.5c-0.2-0.1-0.5-0.2-0.7-0.4
		c0.2-0.4,1.1-0.2,1.5-0.2c0.8,0.1,0.8-0.1,1.4-0.5c0.4-0.3,0.9-0.7,1.4-0.6c0.6,0,1.2,0.2,1.8-0.1c-0.1,0.2,0.1,0.5,0.4,0.6
		c0.4,0.2,0.3-0.4,0.7,0.2c0.2,0.2,1.3,0.4,1.7,0.5c0.6,0.2,1-0.1,1.7,0c0.7,0.1,1.2-0.2,1.8-0.6c0.5-0.3,0.2-1.2-0.1-1.6
		c-0.5-0.5-1-0.6-1.5-1.1c-0.5-0.5-0.9-1.1-1.6-1.2c-0.1,0-0.6-0.4-0.7-0.4c-0.3-0.2-0.5-0.4-0.8-0.6c0-0.1,0.2-0.3,0.2-0.3
		c0.3,0.1,0.5,0.1,0.8,0.2c-0.2-0.8,0.3-1.1,0.9-1.1c-0.3-0.2-0.7-0.5-0.8-0.8c0.3,0,0.5,0,0.8,0c-0.2-0.6,0.6-0.2,0.7-0.5
		c0.1-0.4-0.5-0.2-0.7-0.2c-0.6,0.1-1.3,0.1-1.8,0.7c0-0.1,0-0.1,0-0.2c-0.7,0.2-1,0.3-1.6,0.8c0-0.1,0.1-0.2,0.1-0.3
		c-0.7-0.1-0.4,0.8-0.1,1.2c0.4,0.4,1,0.2,1.6,0.2c-0.4,0.8-0.9,0.2-1.4,0.5c-0.5,0.3-1.5,1.1-2,0.7c0.3-0.9-0.1-0.8-0.8-1.2
		c0.4-0.2,1.8-0.7,0.8-1.1c-0.3-0.1-0.7,0-1,0c-0.2,0-0.5-0.3-0.7-0.5c0.4,0,0.9,0.2,1.1-0.2c-0.4,0.2-1.5-0.3-1.8,0
		c-0.3,0.3-1.1,1-1.2,1.4c0,0.3,0,0.8-0.2,1.1c-0.1,0.2-0.7,0.2-0.8,0.4c-0.2,0.8-0.1,1.4-0.8,1.8c-0.6,0.4-0.5,1.1-0.2,1.7
		c0.2,0.4,1.2,0.8,1.1,1c-0.2,0.5-1.1-0.1-1.4,0.2c-0.5,0.5-1,0.9-1.5,1.4c-0.1-0.5,0.3-0.6,0.6-0.9c-0.3-0.1-0.6-0.1-0.9-0.3
		c-0.5-0.2-0.8-0.1-1.3-0.2c-0.2-0.1-0.5,0.1-0.7,0.2c-0.2,0.1,0.1,0.5,0,0.5c-0.4,0.3-0.7,0-1-0.2c-0.4,0.4,0,0.8,0.3,1.2
		c0.3,0.6,0.4,0.5-0.1,1c0.6,0.4,1.3,0.6,1.2,1.5c-0.4-0.3-0.6-0.6-1-0.1c0.5,0.1,0.5,0.4,0.2,0.7c-0.4,0.3-0.2,0.4,0,0.9
		c-0.4-0.1-0.7,0-0.9-0.4c-0.2-0.4-0.3-0.3-0.7,0c-0.3-1.1-0.5-1.2,0.3-1.9c-0.8,0-0.8-0.1-1.3-0.8c-0.3-0.4-0.5-1.1-0.8-1.4
		c-0.6-0.5-0.4-0.9-0.3-1.7c0.1-0.8-0.2-0.8-0.8-1.2c-0.8-0.6-1.7-1.5-2.6-1.6c-0.2,0-0.8-0.8-0.9-1c-0.2-0.8-0.3-1-0.9-1.4
		c-0.3,0.8-0.6,0.4-0.7-0.2c-0.1-0.6,0-0.4-0.6-0.3c-0.6,0.2-1,0.2-0.6,0.9c0.1,0.2-0.3,0.8,0.1,1.1c0.4,0.3,0.9,0.5,1.2,0.9
		c0.3,0.4,0.2,1,0.6,1.3c0.4,0.4,0.7,0.7,1.2,0.7c0.4,0,1,0,0.4,0.4c0.5,0.4,3,1.5,2.4,2.3c-0.3-0.1-1-1.1-1.3-0.9
		c-0.3,0.3-0.3,0.4-0.4,0.8c-0.1,0.4,0.2,0.3,0.4,0.5c0.7,0.6-0.5,0.7-0.5,1.1c0.1,0.5-0.9,1.4-0.9,0.6c-0.5,0.3-0.6,0.9-0.4,1.4
		c0.2,0.5-0.8,0.7-0.9,0.3c-0.2-0.7-2.6-0.6-1.7-1.7c0.1,0.2,1.4,0.3,1.7,0.2c0.3-0.1,1-0.1,1.3-0.3c0.3-0.2,0-0.4,0.4-0.6
		c0.2-0.1-0.3-1.6-0.5-1.6c-0.2,0-0.7,0-0.6-0.3c0.1-0.4-0.3-0.5-0.6-0.4c0.1-0.3-0.7-0.9-0.9-0.8c-0.5,0.1-0.8-0.4-1.2-0.8
		c-0.7-0.6-1.6-1-1.8-1.9c-0.2-0.8-0.2-0.9-0.9-1.3c-0.4-0.2-0.8-0.3-1.1,0c-0.2,0.2-2.1,1.6-2.3,1.6c-0.6-0.2-1.3-0.4-1.9-0.6
		c-0.3-0.1-0.8,0.6-1.1,0.8c-0.1,0.1,0.3,1.1,0,1.4c-0.2,0.3-1.1,0.6-1.4,0.7c-1,0.5-1.3,1.4-2,2.4c-0.2,0.3,0.6,0.6,0.2,1.1
		c-0.2,0.3-0.9,0.8-0.7,1.2c-0.2,0.1-0.7,0.1-0.9,0.3c-0.1,0.2-0.4,0.8-0.6,0.8c-0.7,0.1-1.3,0-2,0c-0.6,0-0.9,0.7-1.4,0.8
		c-0.4,0.1-1.2-0.8-0.6-1.2c-0.5,0.2-0.7-0.6-1.4-0.2c-0.5,0.3-0.9-0.1-1.3,0.2c0.1-0.4,0.2-0.7,0.1-1.1c0-0.2,0-0.4-0.1-0.6
		c0-0.2-0.2,0.1-0.3-0.1c-0.4-0.6-0.1-0.7,0.1-1.4c0.2-0.6,0.6-1.6,0.4-2.3c-0.2-0.6-0.1-1.2,0-1.8c-0.4,0.3-0.6-0.3-0.4-0.6
		c0.1-0.3,0.8-0.3,1-0.4c0-0.1-0.1-0.1-0.1-0.2c0.6-0.6,0.9,0.2,1.4,0.1c0.8-0.2,1-0.2,1.8,0c0.6,0.2,1.1-0.1,1.6,0.1
		c0.4,0.1,1.1,0.2,1.4,0.2c1-0.2,0.9-2.2,0.9-3c0-0.8,0.1-1-0.6-1.2c-0.4-0.1-0.5-0.9-0.4-1.1c-0.4,0.1-0.2-0.1-0.4-0.2
		c-0.2-0.1-0.6-0.1-0.7-0.2c-0.3-0.2-0.4-0.4-0.8-0.4c-0.3,0-0.5,0-0.6-0.3c0.1,0,0.2-0.1,0.3-0.1c-0.3-0.1-0.4-0.3-0.4-0.6
		c0.4,0,0.9,0,1.3-0.2c0.8-0.5,0.3,0.4,0.8,0.3c0.2,0,1.1-0.2,1.1-0.5c-0.1-0.5-0.2-0.8-0.4-1.2c0.2,0,0.6-0.1,0.7,0.2
		c0.1,0.3,0.1,0.3,0.4,0.4c0.6,0.1,0.8,0,1.4-0.2c-0.1,0-0.3-0.1-0.4-0.1c0.3-0.4,0.8-0.5,1.2-0.7c0.6-0.3,0-0.7,0.3-1.2
		c0.1-0.2,1.1-0.4,1.3-0.5c0.5-0.2,0.8-0.2,1.3-0.2c-0.2-0.1-0.7-0.1-0.7-0.3c0,0,0.5-0.1,0.5-0.1c0.1-0.1,0-0.3,0.1-0.4
		c0.3-0.4,0.4-0.7,0.5-1.2c0.1-0.3,0.5-0.2,0.6-0.4c0.5-0.6,1.1-0.3,1.7-0.5c0.1,0,0-0.3,0.2-0.4c0.2,0,0.4-0.1,0.5-0.1
		c0.3,0,0.6,0.1,0.8,0.1c-0.1-0.5,0.3-0.4,0.7-0.4c-0.2-0.1-0.7-0.5-0.5-0.7c0.4-0.3,0.1-0.3-0.1-0.8c-0.1-0.5,0.1-0.7-0.3-1.1
		c-0.3-0.3-0.2-0.4-0.3-0.9c0-0.7,0.1-1.5,0.9-1.6c0.6,0,1.1-0.6,1.6-0.9c-0.4,0.6-0.6,1.8,0.3,2c-0.5,0.8-1.4,1.1-1.3,2.1
		c0.1,0.8,0.8,1.4,1.6,1.1c-0.1,0.2-0.2,0.4-0.3,0.6c0.7,0.4,1.3-0.6,1.9-0.7c0.2,0,0.8,0.3,0.9,0.6c0.1,0.4,0.5,0.5,0.8,0.7
		c0-0.1,0.1-0.3,0.1-0.4c-0.2,0-0.4,0-0.6-0.1c0.4-0.3,1.9-0.3,2.2-0.7c0.5-0.6,1.9-1,2.5-0.5c-0.1,0-0.3-0.1-0.4-0.2
		c0,0.7,0.9,0.8,1.3,0.4c0.1-0.2,0.2-0.5,0.3-0.6c0.1-0.1,0.3,0,0.3-0.1c0.2-0.2,0.5-0.3,0.7-0.6c-0.1,0.3-0.3,0.4-0.4,0.6
		c1.1,0.5,0.4-1.5,0.4-2c0-0.4,0.1-0.7,0.3-1c0.2-0.3,0-0.7,0.4-1c1-0.7,1.2,0.9,2,0.9c0.4,0,0.7-0.6,0.6-0.9c0-0.2,0.2-1.2,0.1-1.2
		c-0.1-0.1-0.3,0.2-0.4,0.1c-0.2-0.1-0.3-0.3-0.4-0.5c-0.1-0.1-0.3-1-0.2-1c0.7-0.3,1.5-0.7,2.3-0.6c0.6,0.1,1.1,0.1,1.7,0.2
		c0.8,0.1,0.1-0.2,0.6-0.5c0.3-0.2,0.7-0.1,1.1-0.3c0.2-0.2,0.8,0.1,1.1,0.1c-0.2-0.5-1.2-0.7-1.7-0.9c0.1-0.1,0.1-0.3,0.2-0.4
		c-1.6,0.3-3.2,0.7-4.8,1c-0.2,0-0.8,0.3-0.9,0.1c-0.3-0.5-0.4-0.6-0.9-0.8c-0.6-0.3-0.6-0.2-0.5-0.9c0.1-0.5,0.1-0.7,0-1.2
		c-0.1-0.3-0.4-1.1-0.4-1.5c0.1-0.3,0.7-0.8,0.9-1c0.5-0.6,1.2-1,1.7-1.6c0.3-0.3,0.6-1,1-1.2c0.3-0.2,0.8,0.2,0.6-0.5
		c-0.2-0.8-0.8-1.2-1.6-1.2c-1.1,0-1.2-0.1-2,0.8c-0.5,0.5-0.7,1-0.3,1.7c0.4,0.6-2.6,2.2-2.9,2.5c-0.8,0.9-2,2.5-1.2,3.8
		c0.3,0.6,1.3,0.6,1.7,1.3c0.2,0.5-0.6,0.9-1,1.2c-0.6,0.5-1.1,0.7-1.2,1.6c-0.1,0.7-0.1,1.7-0.3,2.3c-0.4,0.9-1,0.9-1.8,1
		c-0.3,0.1-0.3,0.4-0.4,0.7c-0.1,0.4-0.3,0.3-0.7,0.3c-0.5,0-0.6,0.2-0.7-0.4c0-0.3-0.2-0.8-0.1-1.1c0.2-0.6-0.6-1.3-1-1.8
		c-0.2-0.2-0.1-0.6-0.2-0.8c-0.1-0.3-0.4-0.6-0.5-1c-0.1-0.3,0.2-0.8-0.1-0.9c-0.3-0.1-0.3-0.6-0.4-0.9c-0.2,0.8-0.4,0.9-1,1.4
		c-0.5,0.3-0.8,0.8-1.3,1.1c-0.7,0.4-2.5,0.2-2.6-0.9c0-1.4-0.6-2.7-0.5-4.1c0.1-1.2,0.1-1.2,1-1.9c0.5-0.4,1-0.6,1.5-0.9
		c0.7-0.3,1.2-0.5,1.7-1.1c0.5-0.5,0.9-1,1.4-1.5c1.1-1,1.5-2.3,2.3-3.5c0.8-1.2,1.8-2.1,2.7-3.2c0.9-1,1.8-2.2,3-2.7
		c1.4-0.6,2.7-1.1,4.1-1.5c0.5-0.2,0.8-1,1.3-1.3c0.5-0.3,1.2-0.4,1.7-0.3c-0.7,0.7-1,1.1-1.2,2.1c0.6-0.1,1.2-1.2,1.5-1.7
		c0.1,0.3,0.1,0.6,0.2,0.9c0.3-0.4,0.6-0.7,0.8-1.1c0.1-0.2,0.8,0,1,0c-0.2,0.3-0.3,0.6-0.5,0.9c0.7,0.6,0.3-0.8,0.9-0.6
		c0.6,0.2,1.3,0.5,1.9,0.7c0.5,0.2-0.5,0.7-0.7,0.8c-0.5,0.1-1.1-0.1-1.6-0.1c0.2,0.4,0.7,0.3,0.9,0.8c0.1,0.1,0.7-0.1,0.9-0.1
		c0.5,0,1.1,0.3,1.4-0.2c0.2-0.2,0.8,0.3,1.1,0.4c-0.1,0.5-0.6,0.2-1,0.1c-0.2,1,1.7,0.6,2.1,0.7c1,0,1.5,0.3,2.4,0.8
		c0.9,0.5,1.6,0.9,2.5,1.2c0.7,0.2,1.6,0.7,1.9,1.5c0.3,0.8,0.2,0.8-0.2,1.5c-0.3,0.4-0.4,0.7-0.8,0.8c-1,0.3-1.3,0.4-2.3,0.1
		c-1.9-0.4-3.4-0.9-5.1-1.7c0.5,0.5,1.9,1.5,1.9,2.2c0,0.8-0.1,2.3,0.6,2.6c0.8,0.3,1.8,1.2,2.6,0.9c0.5-0.2,0.2-0.9-0.2-0.9
		c-0.5,0-0.6-0.4-1-0.8c0.7-0.6,0.8-0.5,1.6-0.2c0.7,0.3,1.4,0.5,2.1,0.7c-0.1-0.2-0.6-1.6-0.5-1.6c0.5-0.4,1.1-0.7,1.6-1.1
		c0.3-0.2,0.8-0.7,1.1-0.6c0.6,0.2,1.1,0.3,1.7,0.5c0.1-0.3,0.3-0.9,0.2-1.2c0-0.1-0.6-1-0.6-0.9c0.1-0.5,0.3-1,0.4-1.6
		c0-0.2-0.6-0.7-0.7-0.9c0.7,0.1,1.4,0.2,2.1,0.3c0.5,0.1,0.9,0.9,1.2,1.3c-0.3,0-1.3-0.1-1.5,0.3c-0.3,0.5,0.3,0.9,0.6,1.3
		c0.4,0.5,0.9,0.2,1.4,0.1c0.6-0.1,0.2-0.6,0.5-1c0.2-0.2,0.8-0.3,1-0.4c0.6-0.3,1.2-0.6,1.9-0.8c0.9-0.4,1.9-0.9,2.8-1.3
		c0.3,0.9,0.3,0.9,1.1,1.1c0.5,0.1,0.8-0.9,1.3-0.8c0.7,0.1,1.1,0.2,1.8-0.1c0.7-0.4,0.9-0.3,1.7-0.1c-0.1,0.2-0.2,0.4-0.4,0.6
		c0.9,0.3,0.8,0.3,1.4-0.5c0.5-0.7,0.2-0.8-0.3-1.5c1.2-0.5,3-0.3,4.2,0.2c0.8,0.3,1.7,0.7,2.5,1c0.6,0.2,1.2,0.9,1.8,1.3
		c0-0.3,0.4-1.4,0.1-1.6c-0.6-0.5-1.2-0.9-1.9-1.4c-0.4-0.3,0.2-1.2,0.4-1.6c0.2-0.3-0.8-0.7-1.1-0.9c0.6-0.5,1.2-1,1.8-1.5
		c0.4-0.3,0.6-1.5,0.8-2.1c0.2-0.7,3.1,0,3.8,0.1c-0.3,0.7-0.5,1.4-0.8,2.2c-0.1,0.4,0.5,1.2,0.7,1.6c0.3,0.6-0.7,3.5-0.2,3.8
		c0.6,0.4,1.3,0.5,1,1.2c-0.2,0.4-0.4,1.4-0.8,1.7c-0.7,0.4-1.3,0.8-2,1.2c-0.3,0.2-1.2-0.1-1.5-0.2c0.8,0.7,1.8,1.3,2.9,0.9
		c0.9-0.3,1.9-1.5,2.6-2.2c0.7-0.8-1.2-1.9,0.4-2.4c0.3-0.1,1.2-0.6,1.4-0.3c0.4,0.5,0.8,0.9,1.2,1.4c-0.1-0.6,0-1.2-0.5-1.5
		c-0.6-0.5-0.7-0.5-1.5-0.4c-0.2,0-1.7,0.4-1.8,0.2c-0.1-0.4-0.5-1.2-0.3-1.6c0.2-0.5,0.8-1.2,0.5-1.7c-0.3-0.4-1.1-1.2-0.8-1.6
		c0.4-0.6,0.9-0.7,1.5-0.9c0.5-0.2,0.1-1.3-0.1-1.5c0.3-0.1,1,0.8,0.8,1.2c-0.5,0.9-0.4,0.9,0.1,1.7c0.3,0.6,2.8,0.6,3.4,0.6
		c-0.9-0.3-1.7-0.7-2.6-1.1c-1-0.5,0.7-1.2,1.1-1.3c1.2-0.4,1.7-0.1,2.9,0.4c0.4,0.1,0.7,0.4,1,0.6c0.3,0.2,0.8,0,1.1,0
		c-0.1-0.3-0.2-1.1-0.5-1.3c-0.2-0.2-1.1-0.2-1.4-0.2c-0.4-0.1-0.5-1.8-0.6-2.3c1.3-0.1,2.7-0.3,4-0.4c0.8-0.1,1.5-0.2,2.3-0.2
		c0.5-0.1,0.3-0.6,0.3-1.1c0-1,0-1,0.7-1.4c0.5-0.3,1.1-0.8,1.7-1c1.2-0.5,2.7-0.5,4-0.7c2.4-0.4,4.8-0.7,7.1-1.6
		c0.5-0.2,0.3-1.1,0.7-1.3c0.7-0.4,1.4-0.7,2.1-1.1c0.8-0.4,2.3-0.4,2.9,0.5c-0.6,0.2-1.3,0.4-1.9,0.6c1,0.1,2,0.3,3.1,0.4
		c-0.4,0.4-0.8,0.7-1.3,1.1c0.6,0,1.1,0.1,1.7,0.1c0-0.2-0.1-1.1,0.1-1.1c0.4,0,0.9,0,1.3,0c0.7,0,1.4-0.1,2,0.3
		c0.6,0.4,1.5,0.8,2,1.4c0.1,0.2,0.7,0.7,0.6,0.9c-0.1,0.2-0.3,0.9-0.4,1c-2.7,1.7-5.5,3.4-8.2,5.1c1.9-0.5,3.8-1.1,5.7-1.6
		c-0.5-0.1-1-0.1-1.5-0.2c0.6-0.5,1.5-1,2.2-0.5c1,0.8,1.3,0.7,2.5,0.6c1.6-0.2,3.3,0.2,4.9,0.4c-0.3,0.2-0.6,0.4-0.9,0.5
		c0.4,0.2,1.1,0.8,1.6,0.7c0.7,0,1.3-0.1,2-0.1c0.4,0,1.5,0.2,1.5-0.3c0.1-1,0-1,0.9-1c0.6,0,1.3,0.1,1.9,0c0.5-0.1,1.4-0.5,1.8-0.3
		c0.4,0.1,1,1.2,1.3,1.5c0.2,0.2-0.2,1.4-0.2,1.8c0,0.3,0,1.8,0.2,1.9c0.6,0.3,1.2,0.7,1.8,1c0.3,0.2,1.1-1.2,1.3-1.4
		c0.5-0.7,0.4-0.8,1.1-0.3c0.7,0.5,0.8,0.7,1.6,0.4c0.5-0.2,1.1-0.5,1.6-0.3c0.4,0.2,1.2,0.8,1.5,0.7c0.6-0.3,1.2-0.5,1.8-0.8
		c-0.2-0.3-0.8-1-0.5-1.3c0.2-0.2,0.7-1.3,1-1.2c1.2,0.2,2.4,0.3,3.6,0.5c0.9,0.1,1.8,0.5,2.7,0.7c0.9,0.2,2.2,0.3,3.1,0.8
		c0.5,0.3,1.7,2.2,2.2,2.1c1.2-0.2,2.4-0.4,3.5-0.6c1-0.2,1.9,0.3,2.8,0.6c0.6,0.2,0.8,0.1,1,0.7c0.2,0.6,0.2,0.8,0,1.4
		c1,0.3,1.8,0.7,2.8,0.5c1.2-0.2,1.9-0.3,3.1-0.1c0.4,0.1,1,0.3,1.4,0.1c0.6-0.4,0.5-0.4,1,0.1c0.4,0.4,0.9,1.1,1.4,1.3
		c0.3,0.1,1-0.1,1.4-0.1c-0.1-0.8-0.2-1.6-0.3-2.4c1.7,0.1,3.4,0.3,5.1,0.4c1.3,0.1,2.6,1,3.8,1.6c1.4,0.7,2.7,1.4,4.1,2.2
		c0.8,0.5,0.9,0.5,1.3,1.5c0.4,1.1,0.3,1.4,1.3,1.4c-0.1-0.4-0.2-0.9-0.4-1.3c1,0,1.7,0.1,2.6,0.4c0.7,0.2,1.3,1,1.9,1.5
		c-0.3,0.3-0.9,0.9-1.3,1C355.9,57.1,355.3,56.9,354.9,56.8z M222.4,93.2c-0.2-0.2-0.2-0.7-0.4-0.8c-0.8-0.5-0.9,0.8-1,1.3
		c-0.5-0.8-0.6-1.1-0.2-2c-0.3-0.2-1.1-0.3-1.3-0.6c-0.2-0.2-0.2-1.1-0.2-1.4c0,0-1.1-0.5-0.6-0.6c0.5-0.1,0.6,0.5,1.1,0.1
		c-0.3-0.3-0.7-0.4-0.4-0.8c0.2-0.2,0.5-0.4,0.8-0.3c0.6,0.1,1.5,0.1,2,0.3c-0.4,0.2-0.7,0.6-0.7,1.1c0.4-0.5,0.5-0.8,1.1-0.9
		c-0.3-1-0.5-0.3-1.3-0.6c0.1-0.4,0.4-0.9,0.2-1.3c-0.1-0.2-0.5-1-0.7-0.7c-0.3,0.4-0.8,0-1.2-0.2c-0.3-0.1-0.8,0.4-1.1,0.4
		c-0.8,0.1-0.7-0.3-1,0.7c-0.1,0.3-1,0.5-1.2,0.6c-0.6,0.2-0.5,0.3-0.6,0.9c-0.1,0.3-0.5,0.6-0.7,0.8c0.5,0,1.1,0.4,1,1
		c0,0.9,0.1,1.2,0.5,2c0.2,0.5,0.8,0.6,1,1.1c0.4,0.7,0.6,1,1.3,1.3c-0.6,0.2-0.7,0.1-0.9,0.8c-0.1,0.4-0.3,0.8-0.4,1.2
		c-0.2,0.5-0.1,0.8-0.1,1.3c0.1,0.6,0.2,0.5,0.7,0.6c0.4,0.1,0.5,0.4,0.8,0.5c0.4,0.1,0.9,0.3,1.3,0.4c0.6,0.2,1.5-0.2,2.1-0.3
		c-0.1-0.7-0.2-1.4-0.1-2.1c0.2-1.1-0.3-0.6-0.7-1.3c0.1,0,0.3,0,0.4,0c0-0.2-0.1-0.5-0.2-0.6c-0.1-0.1-0.5,0-0.6-0.1
		c-0.3-0.4-0.1-0.7,0.1-1c0,0.1,1.6,0.2,1.9,0.1C223.1,93.7,222.7,93.5,222.4,93.2z M54.7,34.3c0.4,0.1,1,0.3,1.4,0
		c-0.1-0.1-0.2-0.2-0.3-0.3C55.4,34,55,33.9,54.7,34.3z M91,121.2c0.4,0.3,0.7,0.5,1.1,0.6c0.2,0.1,0.5-0.3,0.9-0.2
		c-0.1-0.1-0.1-0.3-0.2-0.4C92.3,121.1,91.4,120.6,91,121.2z M87.5,87.7c0,0-0.1,0.1-0.1,0.1l0.1,0.1c0.2-0.2,0.2-0.3,0.2-0.5
		c0,0-0.1,0.1-0.1,0.2c-0.1-0.3-0.4-0.4-0.6-0.2c-0.3,0.1-0.5-0.2-0.8,0.1c0.1,0,0.2,0,0.3,0.1C86.7,87.6,87.2,87.9,87.5,87.7z
		 M85.5,86.9c-0.2-0.1-0.2-0.1-0.3,0c0.1,0.1,0.1,0.1,0.2,0.2C85.5,87,85.5,87,85.5,86.9z M86,87.4c0,0,0-0.1,0-0.1
		c-0.1-0.1-0.2-0.1-0.3-0.2c-0.1,0.1-0.1,0.1-0.2,0.2C85.7,87.3,85.9,87.4,86,87.4z M113.3,80.2c0.1-0.3,0.3-0.6,0.4-0.9
		c-0.8-0.3-1.7,0.8-2,1.5c-0.5,1.2-0.9,1.8-1.8,2.7c-0.2,0.2-0.2,1.1-0.1,1.3c0.2,0.3,0.9,0.2,1.2,0.2c0.9-0.1,1.9-0.1,2.8,0.4
		c-0.3,0.1-0.5,0.3-0.5,0.7c0.8-0.2,1-0.7,1.9-0.8c-0.1,0.6-0.2,0.6,0.4,0.9c0.5,0.2,0.5,0.2,0.8-0.2c0.3-0.5,0-1.6-0.2-2.1
		c-0.1-0.3-0.7-0.5-0.6-0.7c0.1-0.6,0-0.6-0.4-1c-0.3-0.3-1.4,0.1-1.8,0.2c0-0.2,0-0.7-0.2-0.8c-0.2-0.1-0.5-0.1-0.5-0.3
		C112.7,80.7,112.9,80.6,113.3,80.2z M102.1,121.4c0.2,0.6,1.2,0.1,1.5-0.2c-0.1-0.1-0.1-0.1-0.2-0.2
		C103,121,101.8,120.6,102.1,121.4z M93.9,119.4c0.4-0.1,0.8-0.2,1.2-0.4c-0.3-0.3-0.6-0.5-1-0.6c-0.3,0-0.4-0.5-0.6-0.5
		c-0.6,0-1.2-0.3-1.6-0.8c0,0-0.1,0.1-0.1,0.1c-1.2-0.8-2.5-1.5-3.8-1.6c-0.8-0.1-1.4,0.1-2.2,0.3c-0.6,0.2-0.8,0.8-1.3,1.1
		c1,0.5,2.2-1.8,3.2-0.7c-0.2,0.1-0.3,0.2-0.5,0.1c0.2,0.2,0.5,0.4,0.7,0.3c0.3-0.1,0.3,0.1,0.7,0.2c0.6,0,1.1,0.4,1.7,0.5
		c0.6,0.1,0.6,0.7,1.2,1c0.2,0.1,0.8-0.1,0.8,0.3c0,0.1-0.5,0.5-0.6,0.6C92.3,119.5,93.1,119.3,93.9,119.4z M105.1,85.8
		c-0.5,0.9,0.4,1,1,1.3c0.6,0.3,0.8-0.1,1.2-0.5c-0.6,0-1.2-0.1-1.9-0.1C105.3,86.2,105.2,86,105.1,85.8z M104.7,81.8
		c0.6,0.5,2,1.7,2.8,1.1C106.8,82.1,105.7,81.8,104.7,81.8z M133.8,148.8c0.3,1.3,0.3,1.3-0.4,2.3c-0.9,1.3-1.8,2.6-2.6,3.8
		c-0.4,0.6-0.9,1.1-1,1.8c-0.1,1.9-0.3,3.8-0.4,5.6c-0.1,1.2-1.4,2.5-2,3.5c-0.3,0.4-0.5,1.1-1,1.2c-0.5,0-1.6-0.1-2,0.1
		c-1.2,0.9-2.5,1.7-3.7,2.6c-0.2,0.2-0.2,2-0.3,2.4c0,0.4,0,1.1-0.2,1.4c-1,1.3-2.1,2.6-3.1,4c-0.9,1.2-1.9,2.4-2.8,3.6
		c-0.2,0.3-3.2-1-3.6-1.1c-0.3,1,1.4,1.1,1.6,2c0.1,0.4,0.4,1.3,0.3,1.7c-0.1,0.4-0.6,0.9-0.9,1.3c-0.6,0.9-1.5,0.9-2.5,1.2
		c-1,0.3-1.4,0.2-2.4,0c0.2,0.6,0.3,0.9,0.1,1.5c-0.1,0.4,0,1-0.2,1.1c-1,0.7-1.6,0.4-2.6-0.1c0,0.5-0.1,1.2,0,1.7
		c0.1,0.4,0.7,1,0.5,1.3c-0.3,0.7-0.6,1.3-0.9,2c-0.3,0.7-0.4,0.6-1.1,0.8c-0.6,0.1-0.7,0.7-1,1.2c-0.2,0.4,0.5,1,0.8,1.3
		c0.3,0.4,1.2,0,1,0.7c-0.2,0.6-0.3,0.8-0.7,1.3c-0.3,0.4-0.8,0.8-1,1.4c-0.3,0.8-0.5,0.8-1.2,1.3c-0.7,0.4,0.1,2.5,0.2,3.3
		c0.1,0.3,0,1,0.3,1.1c0.5,0.5,1,0.9,1.6,1.3c0.9,0.8,1.5,0.6,2.7,0.7c-1.1,0.5-2.1,1-3.2,1.4c-0.9,0.4-1,0.2-1.9-0.3
		c-1.3-0.6-2.5-1.2-3.8-1.8c-0.6-0.3-0.8-1-1-1.7c-0.7-1.7-1.8-3.3-1.6-5.1c0.3-2.8,0.6-5.5,0.9-8.3c0.3-2.6,0.4-5.4,0.9-8
		c0.6-3.3,1.2-6.6,1.9-9.9c0.4-2,0.8-4,1.1-6c0.2-0.9,0.5-1.8,0.5-2.7c0-0.7-0.2-1.6-0.3-2.3c-0.1-0.5,0-1.6-0.3-2
		c-0.3-0.4-1.2-0.8-1.6-1.1c-0.8-0.5-1.5-1.1-2.3-1.6c-0.8-0.5-1-1.1-1.5-2c-0.9-1.8-1.9-3.6-2.9-5.3c-0.8-1.5-1.6-2.9-2.4-4.4
		c-0.5-0.9,0.3-2.6,0.6-3.5c0.1-0.5,0.2-1.5,0.5-1.9c0.5-0.6,0.9-1.2,1.3-1.7c1-1.3,1.9-2,1.6-3.8c-0.1-0.4-0.3-0.6,0-0.9
		c0,0-0.1-0.6-0.1-0.8c0.1-0.5-1.1-1.1-1-1.6c0.2-0.7,0.1-0.6-0.4-0.9c-0.4-0.2-0.4-0.2-0.8,0c-0.3,0.2-0.5,0.4-0.8,0.6
		c-0.1,0.1,0.3,0.6,0.3,0.7c-0.8,0.3-0.7,0.4-1.1-0.4c-0.2,0.5-0.9-0.3-1.4-0.4c-0.2,0-0.4,0.2-0.5,0.1c-0.2-0.2-0.5-0.4-0.7-0.5
		c-0.5-0.4-1.4-0.8-1.8-1.3c-0.3-0.4-0.1-1.1-0.5-1.5c-0.9-1.1-1.5-2-2.7-2.3c-1-0.3-2.6-0.3-3.4-1.1c-0.7-0.7-1.4-1.4-2.1-2
		c-0.4-0.4-1.1,0-1.6,0.2c-1.2,0.4-2.5-0.5-3.6-1c-0.9-0.4-1.9-0.8-2.8-1.1c-0.3-0.1-0.8-0.2-1.1-0.4c-0.6-0.6-1.2-1.2-1.8-1.9
		c-0.6-0.6-0.2-0.9,0-1.7c0.2-0.5-0.8-1.5-1.1-2c-0.3-0.5-0.6-0.8-1-1.2c-0.7-0.6-1.3-1.2-2-1.8c-0.1-0.1,0-0.6,0.1-0.8
		c0-0.2-0.3-0.5-0.4-0.7c-0.5-0.6-0.9-1.1-1.4-1.6c-0.5-0.4-1-0.6-1.2-1.3c-0.1-0.4-0.4-2.1-0.7-2.2c-0.6-0.3-1.2-0.6-1.8-0.8
		c0.2,0.7,0.3,2,0.8,2.6c0.7,0.8,1.2,1.4,1.6,2.4c0.2,0.6,0.4,0.7,0.8,1.1c0.3,0.3,0.4,0.7,0.6,1.2c0.2,0.5,0.4,0.8,0.4,1.3
		c0,0.7,0.4,0.2,0.6,0.4c0.2,0.2,0.7,0.6,0.7,1c-0.1,0.5-0.5,0.6-0.7,0.2c-0.4-0.8-1.2-1.3-1.9-1.8c-0.2-0.1-0.1-1.1-0.1-1.3
		c0-0.4-0.6-0.7-0.9-0.9c-0.3-0.2-0.5-0.1-0.8-0.4c-0.3-0.3-0.7-0.6-1-0.9c0.4,0,1.3-0.1,0.8-0.9c-0.5-0.7-0.7-1-1.4-1.4
		c-0.5-0.2-0.6-1-0.8-1.5c-0.3-0.8-0.6-1.7-1-2.5c-0.4-0.9-1.5-1.7-2.4-1.9c-0.7-0.2-1-0.1-1.3-0.8c-0.3-0.8-0.7-1.5-1-2.3
		c-0.5-1.1-1.5-1.8-1.9-3c-0.5-1.6-0.4-2.6-0.4-4.3c0.1-1.4,0.1-2.8,0.2-4.2c0.1-1.3-0.2-2.2-0.7-3.5c0.8,0.2,1.5,0.4,2.3,0.7
		c0-1.1,0.1-1.3-0.7-2.1c-0.6-0.6-1.1-1-1.7-1.5c-0.6-0.4-1.2-0.4-1.8-0.7c-1-0.4-1.2-0.5-1.6-1.5c-0.5-1.2-2.4-1.9-2.2-3.3
		c0.1-1.3,0-1.2-1-1.8c-0.1-0.1-0.7,1.2-1.2,0.6c-0.3-0.5-0.8-1.7-1.3-2c-0.7-0.3-0.9-0.5-1.3-1.2c-0.4-0.7-0.8-1.6-1.4-2.1
		c-0.5-0.5-1.1-0.8-1.6-1.1c-1.3-0.9-2.4-1.3-3.8-1.8c-0.6-0.2-1.2,0.3-1.8,0.1c-0.6-0.1-1.3-0.8-1.8-1.1c-0.7-0.4-0.9-0.6-1.7-0.5
		c-0.7,0.1-1.1,0.3-0.8,1.2c0.2,0.8-2.7,1.6-3.4,1.8c-0.1-0.3,0-0.6,0.3-0.7c-0.5-0.2-0.1-1.6,0.2-1.8c0.7-0.4,1.1-0.4,1.9-0.4
		c-0.2-0.2-0.4-0.3-0.6-0.5c0.2-0.2,0.4-0.3,0.7-0.5c-1.3,0.3-1.8,0.5-2.9,1.4c-1,0.7-1.3,1.5-1.9,2.6c0.3,0.1,0.6,0.1,0.9,0.2
		c-0.9,1.2-1.8,1.9-3,2.8c-0.6,0.4-2.5,0.9-2.5,1.8c-0.1,0.8-2.5,1.2-3.2,1.4c-0.3,0.1-0.6,0.1-0.9,0.1c-0.4,0-0.2,0.2-0.5,0.4
		c-0.6,0.4-1,0.5-1.6,0.3c0.6-0.6,1.2-0.7,1.8-1.1c0.5-0.3,2-1.7,2.4-0.9c0.3-0.6,1.5-1.9,2.1-1.4c-0.2-0.6,0.9-1,1-1.7
		c0.1-0.6,0.1-0.7,0.5-1.1c0.2-0.2,0.5-0.4,0.2-0.7c-0.8,0.4-1.7,1.1-2.5,0.5c-0.3-0.2-0.8-0.8-1.2-0.7c-0.4,0.2-0.8,0.4-1.2,0.5
		C8,67.6,7.8,66.8,7.7,66c-0.2,0.1-1.3,0.9-1.4,0.8c-0.4-0.3-1.2-0.7-1.5-1.2c-0.3-0.5-0.3-1.5-0.5-2.1c-0.1-0.5,0.3-0.9,0.5-1.3
		c0.5-0.8,0.4-1,1.3-0.9c0.7,0.1,0.8-0.5,1.4-0.8C8.2,60.3,8.7,60.8,9,60c0.2-0.6-0.1-0.7-0.5-1.2c0.2-0.1,0.4-0.2,0.6-0.3
		c-0.3-0.8-0.9-0.1-1.4,0.2c-0.6,0.3-0.7-0.1-1.3,0c-1.2,0.2-2.5,0.4-3.1-0.9c0.1,0,0.3-0.2,0.4-0.2c-0.6-0.2-1.3-0.3-1.7-0.8
		c0.8-0.4,1.4-0.8,2.4-0.8c-0.1-0.1-0.1-0.2-0.2-0.3c0.7-0.4,1.1-0.5,1.9-0.6c0,0.9,0.7,0.8,1.4,1c0.6,0.2,0.8-0.1,1.4-0.5
		c-0.3-0.1-0.5-0.2-0.8-0.3c0.1,0,0.2-0.1,0.3-0.1c-0.3-0.2-0.4-0.5-0.1-0.7c-0.7-0.1-1.2-0.2-1.9-0.4c-0.5-0.2-0.5-1-1-1.2
		c-0.3-0.2-1.8-0.6-2-0.9c-0.1-0.2,0.3-0.9,0.3-1c0-0.1,0.4-0.1,0.5-0.1c0.6,0,1.4,0.1,1.8-0.4c0.4-0.6,0.8-1.2,1.3-1.7
		c0.9-0.8,2.1-1.3,3.2-1.5c0.7-0.1,1.4-0.1,2-0.6c0.8-0.7,0.8-0.7,1.7-0.2c0.8,0.4,3.1-0.2,3.5,0.8c0.3,0.7,2.7,0.7,3.5,0.8
		c1.2,0.2,2.4,0.3,3.6,0.5c1.8,0.3,3.5,0.6,5.3,0.9c1.2,0.2,2.3,0.9,3.3,1.4c0.2,0.1,1.4-1.4,1.6-1.6c0.3-0.3,1,0.7,1.3,0.5
		c0.6-0.3,3.4-2,3.9-1.3c-1,0.5-2,1.1-3.1,1.6c0.8,0.5,3.4-1.7,3.6-0.8c0.3-0.4,0.6-0.7,0.9-1.1c0.2-0.3-0.4-0.4,0.1-0.7
		c0.8,0.9,1.6,1.8,2.4,2.6c0.3-0.9,0.4-1.2,1-1.7c0.4,0.4-0.3,0.6,0.2,0.9c0.2,0.1-0.1,0.5-0.2,0.7c0.3-0.1,1-0.1,1.2-0.3
		c0.1-0.1-0.1-0.5,0.1-0.5c0.2,0,0.4-0.1,0.6-0.1c0.7-0.1,1.6,0.6,2.2,0.8c1.3,0.6,2.8,0.8,4.2,1.1c0-0.1-0.1-0.2-0.1-0.3
		c0.9,0,1.3,0.4,2.1,1c0.6,0.4-1.2,1-1.3,1c0.6,0.2,1.2,0.5,1.8,0.4c1-0.1,2-0.2,3-0.2c0.5,0,1.3-0.2,1.6,0.3c0.5,0.7,0.9,1.3,1.4,2
		c-0.1-0.3-0.1-0.6-0.2-0.9c0-0.2,0.1-0.3,0.1-0.5c-0.1-0.7-0.4-0.5,0-1.2c0.3-0.5,2.3-0.5,1.8-1.2c-1,0.4-1.7,0.7-2.7,0.7
		c0.2-0.9,0.6-0.8,1.4-1.1c0.8-0.3,1-0.4,1.7,0.1c0.2,0.1,0.4,0.6,0.5,0.9c0.2,0.3,0.4,0.3,0.7,0.3c0.6,0.1,1.2,0.3,1.8,0.6
		c0.5,0.2,3.3,0.5,3.5,0.1c0.2-0.8,0.3-1.2,1.2-1.2c0.5,0,1.2,0.3,1.7,0.4c-0.1,0.3-0.4,1.1-0.3,1.3c0.1,0.3,0.9,0.6,1.1,0.7
		c-0.3-0.9-0.6-1.7,0.5-1.9c0.5-0.1,0.7-0.5,1.1-0.8c0.2-0.2,0.1-0.5,0-0.9c-0.3,0.1-0.6,0.3-0.9,0.4c-0.1-0.9,0.5-1,1.2-1.1
		c0-0.7-0.7-0.2-1.1-0.4c-0.3-0.1-1.5-0.4-1.7-0.7c-0.3-0.8-0.3-1.3-0.3-2.1c0-0.8,0.4-0.9,1-0.7c0.1-0.4-0.2-0.5-0.5-0.5
		c0.6-0.4,0.7-0.3,0.7-1.1c0-0.7,0-1-0.3-1.5c-0.2-0.4-0.1-1.1,0-1.6c0-0.4,0.7-0.2,1-0.2c-1.1-1.2,0.8-0.9,1.6-0.9
		c1.1,0,1.8,0.1,2.8,0.4c-0.4,0.6-1,1.9-1.6,2.3c-0.5,0.3-1.9,0.1-2.4,0c1.8,0.3-0.3,1.5-0.2,2c0.9-0.2,1.5,0.7,1.6,1.5
		c0.1,0.6,1,1.2,1.4,1.7c-0.5,0.3-0.9,0.6-1.4,0.9c0.4,0.2,0.8,0.5,1.2,0.2c0.4-0.3,0.8,0.1,1.2,0.3c-0.2,0.1-0.4,0.3-0.6,0.4
		c0.4,0.4,0.7,0.4,0.5,1c-0.1,0.6-0.2,0.7,0.3,1c0.3-0.5,0.5-0.7,0.5-1.2c0-0.2,0.2-1.1,0.6-0.8c0.2,0.2,1.1,0.5,1.1,0.8
		c0.1,0.5,0.4,1.1-0.2,1.3c0-0.1-0.1-0.3-0.1-0.4c-1.3,0.7,1.6,3.2,1.7,1.9c0-0.4,0-0.6,0.3-0.9c0.1-0.1,0.6-0.4,0.6-0.6
		c0-1,0-1,0.9-1.3c-0.3-0.5-0.7-0.8-0.5-1.4c0.1-0.7,0.5-0.5,1-0.4c0.4,0.1,1.4,0,1.6,0.3c0.5,0.6,0.6,0.7,1.3,0.8
		c-0.3,0.5,0.2,0.9-0.1,1.3c-0.2,0.2-0.9,0.1-1.2,0.2c0.3,0.6,0.4,1.1,0.9,1.4c0.5,0.4,0.7,0.8,0.2,1.4c-0.3,0.4-1.1,0.7-1.6,1
		c-0.4,0.3-0.7-0.3-1.1-0.6c0.2,0.4,0.3,0.8,0.5,1.2c-0.3-0.1-0.5-0.3-0.8-0.4c0,0.1,0.1,0.2,0.1,0.3c-0.3-0.1-0.6-0.1-0.8-0.2
		c-0.2,0,0-0.5-0.2-0.5c-0.4,0-1-0.2-1.2,0.3c0.3,0.2,0.5,0.3,0.8,0.5c-0.3,0.4-0.5,0.9-0.9,1.2c-0.6,0.3-0.8,0.1-1.5-0.3
		c-1-0.5-1.9-0.5-3-0.5c0.8,0.4,1.5,0.8,2.3,1.2c0.6,0.3,1.5,0.2,2.1,0.3c-0.2,0.4-0.6,1.5-1.1,1.7c-0.2,0.1-0.6,0.4-0.8,0.3
		c-0.3,0-0.6-0.1-0.9,0c-0.8,0.6-0.9,0.6-1.9,0.3c-0.6-0.2-1.2-0.3-1.8-0.5c0.4,0.2,0.8,0.4,1.2,0.6c-0.1,0.1-0.1,0.2-0.2,0.3
		c0.6-0.2,0.7-0.1,1.3,0.2c0.3,0.2,0.8,0.6,0.3,0.9c-0.5,0.3-0.8,0.3-1.4,0.2c-0.2,0-0.5,0.7-0.6,0.8c-0.5,0.8-1.2,1.6-1.4,2.5
		c-0.2,1-0.4,2.1-0.7,3.1c0.4,0.1,1.3,0.1,1.6,0.4c0.3,0.3,0.6,1.5,0.7,2c0.3,0.8,0.5,0.5,1.3,0.4c0.4-0.1,0.9,0.2,1.3,0.3
		c1.2,0.4,2.1,0.8,3.2,1.6c0.3,0.2,1,0.9,1.4,1c0.6,0.1,1.2,0.1,1.8,0.2c0.2,0,1.4,0,1.4,0.3c0,0.8-0.1,1.7-0.1,2.5
		c0,1.2,1.1,2.1,1.8,2.9c0.7,0.8,2.1-0.7,2-1.4c-0.1-0.7-0.2-1.5-0.4-2.2c-0.1-0.4-0.6-0.9-0.8-1.3c0.7-0.5,2.2-1,2.7-1.7
		c0.5-0.7,0.6-2.5,0-3c-0.4-0.4-0.8-0.7-1.1-1.2c-0.5-0.7-0.6-0.6,0-1.1c0.6-0.6,0.7-0.5,0.5-1.4c-0.1-0.5-0.4-1-0.3-1.5
		c0.3-0.9,0.3-1,0-1.9c-0.2-0.5,0.2-0.7,0.7-0.8c1-0.1,1.9,0.7,2.9,0.3c0.6-0.3,0.8,0,1.4,0.4c0.3,0.2,1.1,0.5,1.1,0.9
		c0.1,0.5,0.4,1,1.1,0.9c0.5-0.1,0.8,0.2,1.3,0.4c-0.3,0.4-0.4,0.6-0.3,1.1c0.1,0.5,0.2,0.9,0,1.4c0.1,0,0.3,0,0.4,0
		c-0.2,0.3-0.9,0.8-0.6,1.1c0.6-1.9,2.9,2.3,3.4-0.3c0.1,0.1,0.3,0.1,0.4,0.2c0.3-0.5,0.7-1.1,0.6-1.7c-0.1-0.4,0.5-1.3,1-1.2
		c-0.1,0.2-0.1,0.5-0.2,0.7c1,0,1.7,2.1,2.1,2.9c0.3,0.5,1.1,1.4,1.1,1.9c0,0.3-0.5,0.7-0.4,1c0,0.1,0.5,0.4,0.6,0.5
		c0.2,0.2,0.7,0.4,0.8,0.7c0.2,0.3-0.1,0.6,0.3,0.7c0.8,0,1.1,0.1,1.7,0.5c0.4,0.3,1.3,0.7,0.3,0.9c-0.5,0.1-1.1,0.3-1.6,0.5
		c0.3,0.1,0.7-0.1,1.1-0.2c-0.2,0.4-1,0.5-1.4,0.6c-0.4,0.1-0.3,0.9-0.1,0.7c0.2-0.2,0.3-0.3,0.6-0.4c0.3-0.1,0.2-0.2,0.3-0.3
		c0.4-0.2,0.8-0.3,1.2-0.3c-0.3,0-0.3-0.1-0.4-0.2c0.3,0,0.9,0,1,0.4c0.2,0.5-0.4,0.4-0.1,0.8c0.3-0.6,0.8-0.3,1.3-0.1
		c0.4,0.1,0.1,1,0,1.2c-0.2,0.5,0.4,0.6,0,1.2c-0.2,0.2-0.9,0.7-1.2,0.7c-0.4,0.1-0.8,0-1.3,0.2c-0.5,0.2-0.7,0.4-1,0.8
		c-0.7,0.8-1.3,0.9-2.4,0.8c-1.1-0.1-2-0.1-3.1-0.1c-0.9,0.1-1.9-0.3-2.2,1c-0.1,0.3-1,0.4-1.2,0.6c-0.4,0.3-0.8,0.8-1.1,1.2
		c-0.6,0.7-1,1.5-1.7,2c1.3-0.6,1.9-2,3.2-2.6c0.9-0.4,3.2-1.7,3.8-0.2c-0.1-0.1-0.2-0.1-0.3-0.1c0.6,0.4-0.2,0.8-0.5,1
		c-0.4,0.4-0.7-0.3-1.2,0.1c0.2,0.1,0.7,0.6,0.7,0.6c0.3-0.1,0.6-0.2,0.9,0c-0.1,0.4-0.3,0.7-0.6,0.9c0.1-0.1,0.3,0,0.5,0
		c-0.2,0.7,0.5,1.2,1,1.3c-0.1,0-0.1,0.1-0.2,0.1c0.7,0.4,1.5,0.7,2.1,0.2c0,0.1,0,0.2,0.1,0.3c0.1,0,0.3-0.1,0.4-0.1
		c-0.4-0.6,0.4-1.4,0.7-1.8c0.6,0.2,0.2,0.7,0.1,1.2c0.4-0.3,1,0.3,0.7,0.5c-0.5,0.2-0.9,0.5-1.4,0.4c0.1,0.1,0.2,0.3,0.3,0.4
		c-0.6,0.2-1.2,0.5-1.8,0.7c-0.2,0.1-0.5,0.2-0.7,0.3c-0.3,0.2-0.3-0.3-0.5-0.1c-0.4,0.3-0.8,1-1.2,1.4c-0.3,0.3-0.6-0.1-0.8-0.2
		c-0.6-0.9,0.9-1.7,1.4-2.1c0.4-0.3,0.2,0,0.4,0.2c0.3,0.3,0.5-0.1,0.9-0.4c-0.4,0-0.9-0.2-1.3,0.1c0-0.2,0.2-0.4,0.3-0.6
		c-0.5-0.1-1.1,0.5-1.5,0.7c-0.3,0.2-0.2-0.2-0.5,0.1c-0.1,0.2-0.5,0.1-0.7,0.1c0.3,1-1.3,0.6-1.6,1.1c-0.1-0.1-0.1-0.1-0.2-0.2
		c-0.3,0.5-0.5,0.6-1,0.8c-0.3,0.1-0.3,0.4-0.5,0.7c-0.2,0.5-1.1,2.2,0.1,2.1c0-0.1-0.1-0.2-0.1-0.2c0.1,0.1,0.2,0.2,0.3,0.3
		c-0.4,0.3-0.8,0-1.2-0.1c-0.2,0-0.1,0.5-0.4,0.6c-0.9,0.1-1.4,0.1-2.2,0.7c0.6-0.1,1-0.4,1.6-0.4c-0.1,0-0.1,0.1-0.2,0.1
		c0.2,0,0.3,0,0.5,0c-0.4,0.2-0.7,0.4-1.1,0.4c-0.4,0-1-0.1-1.2,0.3c0.9,0.1-0.4,1.8-0.7,2c0.2-0.4-0.4-0.6-0.6-1
		c0,0.5,0.7,1.2,0.4,1.7c-0.2,0.5-0.7,1.1-0.8,1.5l-0.1,0c0-0.4,0.2-0.6,0.3-1c-0.2-0.1-0.1-0.6-0.6-0.5c0.1-0.4,0.1-0.7,0.2-1
		c0-0.1,0.3-0.7,0-0.5c-0.7,0.5-0.5,0.9-0.3,1.8c-0.2-0.2-0.5-0.3-0.7-0.4c0.2,0.3,0.6,0.4,0.8,0.6c0.1,0.2-0.2,0.8-0.1,1
		c0.1,0.4,0.6,0.2,0.5,0.8c-0.1,0.5-0.4,0.4-0.8,0.6c0.4,0,1-0.1,0.9,0.4c0,0.2-0.8,0.2-1,0.3c0.1,0.1,0.2,0.2,0.3,0.2
		c-0.2,0.1-0.3,0.2-0.5,0.2c0.2,0.4,0.4,0,0.8,0.2c-0.2,0.1-0.4,0.2-0.6,0.3c-0.2,0.1-0.4-0.2-0.5-0.1c-0.3,0.1-0.5,0.7-0.7,1
		c-0.1,0.2-0.6,0.1-0.8,0.4c-0.2,0.3-0.4,0.6-0.7,0.8c-1,0.6-1.2,0.9-1.7,2c-0.3,0.5-0.1,1.4,0.2,2c0.4,0.9,0.7,1.7,1,2.7
		c0.1,0.5,0.3,1.8-0.1,2.2c-0.3,0.3-0.5,0.6-0.8,0.2c-0.1-0.1-0.7-0.7-0.7-0.7c-0.1-0.4-0.3-0.7-0.4-1.1c-0.2-0.4-0.4-0.6-0.3-1.1
		c-0.1,0.1-0.1,0.1-0.2,0.2c-0.2-0.6,0.4-1.5-0.2-1.9c-0.5-0.4-0.8-1.1-1.4-0.9c-0.3,0.1-0.7,0.4-1,0.1c-0.3-0.2-0.6-0.5-1-0.6
		c-0.5-0.2-1.5,0.6-1.6-0.3c-0.1,0.8-1.9,0.2-2.4,0.6c0.4,0,1.7,0.2,0.7,0.7c0.1,0.1,0.7,0.2,0.7,0.3c0.1,0.3-0.2,0.4-0.4,0.4
		c0.1-0.4-0.4-0.5-0.7-0.7c0.1,0.3-0.1,0.4-0.1,0.6c-0.2-0.5-0.5,0-0.8-0.2c-0.4-0.3-0.6-0.6-1.1-0.5c-0.3,0.1-0.7-0.2-0.9-0.3
		c-0.5-0.2-1.3,0.4-1.8,0.6c-0.8,0.3-2.7,1.7-2.7,2.9c0,0.4,0.5,0.7,0.5,1.1c0,0.2-0.2,0.6-0.2,0.9c-0.2,0.6-0.4,1.3-0.4,1.9
		c0,1.7,0.2,2.8,1.1,4.2c0.5,0.8,0.7,1.4,1.6,1.6c0.2,0.1,0.5,0.5,0.6,0.5c0.4-0.1,0.7-0.3,1.1-0.4c0.4-0.1,0.6-0.2,1-0.2
		c0.3,0,0.5,0.3,0.6,0.3c0.1-0.1,0.3-0.1,0.5-0.2c0.1-0.1-0.1-0.3,0-0.4c0.3-0.3,0.5-0.4,0.6-0.8c0.2-0.7,0.1-1.5,0.9-1.8
		c0.3-0.1,1.3-0.4,1.6-0.3c0.4,0,1.6-0.2,1.2,0.7c-0.2,0.4-0.6,1.4-0.9,1.4c0.1,0.1,0.1,0.2,0.4,0.2c-0.1,0.1-0.2,0.2-0.3,0.3
		l0.1,0.1c0.1,0,0.1-0.1,0.2-0.1c-0.2,0.4-0.3,0.9-0.4,1.3c-0.2-0.2-0.3-0.5-0.2-0.8c-0.1,0.1-0.2,0.3-0.3,0.5
		c0.6,0-0.1,1.1,0.1,1.5c0.2,0.4-0.4,1-0.7,1.3c0.8,0.3,1.6,0.1,2.4,0.2c0.3,0,0.6-0.3,0.9-0.2c0.4,0,0.9,0,1.2,0.2
		c0.7,0.3,1.2,0.8,1.1,1.7c-0.1,0.6-0.2,1.1-0.3,1.6c-0.1,0.3-0.3,0.6-0.4,0.9c-0.2,1.5,1.6,3.9,3,3.4c0.8-0.3,1.3-0.7,2.1-0.4
		c0.9,0.3,1.2,0.7,1.8,1.4c0-1.1,1.3-2.5,1.8-3.3c0.2-0.3,1.1-0.4,1.4-0.5c0.7-0.3,1.4-0.5,2.1-0.8c0.7-0.2,1.8,0.3,2.5,0.5
		c1.7,0.4,3.4,0.8,5.1,1.2c0.9,0.2,1.8,0.2,2.5,0.9c1.3,1.3,2.6,2.5,3.9,3.8c0.8,0.8,2.6,0.8,3.7,1.1c1,0.2,1.8,1.9,2.4,2.7
		c0.6,0.8,1.3,1.7,1.9,2.5c0.2,0.2,0.5,0.9,0.7,0.9c1.4,0.5,2.7,1,4.1,1.5c1.4,0.5,2.7,1,4.1,1.5c1.1,0.4,2.3,1.6,3.3,2.4
		c0.2,0,1.4,0,1.5,0.2C133.5,147.6,133.7,148.2,133.8,148.8z M90.3,91c0,0.4-1.4,0.8-1.8,0.7c-0.6,0-0.7,0-1.1,0.4
		c-0.3,0.3-0.5,0.6-1,0.4c0.1-0.3,0.3-0.5,0.6-0.6c-0.2-0.2-0.2-0.1-0.3-0.4c-0.3,0.4-0.6,0.8-0.8,1.3c0.2,0.1,0.4,0.1,0.7,0.2
		c0,0.1-0.1,0.1-0.1,0.2c0.9,0.1,1.3-0.4,2.1-0.6c0.8-0.3,1.3-0.6,2-1.1C90.4,91.3,90.4,91.2,90.3,91z M91.4,90.8
		c0.7,0.7,2.2-0.6,1.4-0.9c0.2-0.2,0.4-0.4,0.6-0.6c-0.4,0.2-1.3,0.9-1.6,0.7c-0.5-0.2-1.2,0.1-1.8,0.2C88.8,91.8,91,90.3,91.4,90.8
		z M77.4,86.1c0.4,0.2,0.8-0.1,1.2-0.2c0,0.1-0.1,0.2-0.1,0.3c1,0.5,2.4-1.5,3.1-0.9c-0.3,0.1-0.6,0.4-0.8,0.8
		c0.3-0.2,0.7-0.2,0.9,0.1c0.2,0.3,0.5,0.2,0.8,0.4c0.1,0.1,1.6-0.4,1.8-0.5c-0.1,0.4,0.3,0.3,0.6,0.5c0.2,0.1,0.3,0.5,0.5,0.6
		c-0.3,0-0.7-0.3-0.8,0.2c-0.5-0.6-1.5-0.3-1.8,0.3l-0.1-0.1c0.1-0.1,0.1-0.2,0.2-0.2c-0.1,0.1-0.3,0.1-0.4,0.2c0-0.1,0-0.2,0-0.3
		c-0.3,0.4-0.9,1.3-1,1.7c0.4,0.1,0.6-0.7,0.9-0.9c0.1,0.4-0.3,0.9-0.4,1.3c-0.1,0.5-0.4,1.1-0.4,1.6c0.1,0.8,0.5,3,1.3,1.3
		c0.4-0.9,0.3-1.5,0.1-2.4c-0.2-1,0.5-1.1,0.8-1.8c0,0.2,0,0.4,0,0.6c0.3-0.3,0.2-0.8,0.7-0.9c-0.5-0.6,0.5-0.5,0.7-0.2
		c0.3,0.3,0.8,0.2,0.9,0.7c-0.1,0-0.1,0-0.2,0c0.2,0.3,0.3,0.8-0.1,1.1c-0.1,0-0.5,0.5-0.4,0.7c0.1,0.3,0.8-0.4,1-0.4
		c0.4,0,0.4,1.1,0.5,1.4c0.2-0.3,0.5-0.5,0.7-0.8c0.1-0.2,0-0.6,0.1-0.8c0.2-0.5,0.7-1-0.1-1.4c0.5-0.3,0.3,0.4,0.7,0.3
		c-0.1,0.1,0,0.2-0.2,0.3c0.1,0.1,0.1,0.1,0.2,0.2c0.2-0.2,0.7,0.1,1,0c0,0-0.1-0.5,0.3-0.2c-0.5-0.4-0.4-1.5-1.2-1.6
		c-0.6-0.1-1.4-0.2-2.1-0.3c-0.2,0-1.6-0.4-1.5-0.6c0.1-0.2,0-0.3-0.1-0.5c-0.1-0.2,0.1-0.3,0.1-0.5c-0.1-0.5-0.5-0.2-0.3-0.9
		c-1,0.2-1-0.3-1.5-1c-0.3-0.4-0.6,0.1-0.9-0.1c-0.3-0.1-0.7-0.4-1-0.3c0.4,0.3,0,0.5-0.3,0.7c0.1-0.2,0.2-0.3,0.2-0.5
		c-0.3,0.2-0.2,0.5-0.6,0.7c0.1-0.1,0.1-0.2,0.1-0.4c-0.5,0.1-0.3,0.6-0.7,0.7c-0.4,0.2-0.9,0.4-1.3,0.6
		C78.2,85.3,77.8,85.7,77.4,86.1z M52.1,55.3c-0.1,0-0.3-0.1-0.4-0.1c0.1-0.1,0.2-0.2,0.3-0.3c-0.5-0.1-0.8,0.5-1.2,0.6
		c-0.6,0.1-0.9,0.1-1.5-0.1c0.2-0.5,0.9-0.6,1.3-0.8c-0.8-0.3-1.1-0.4-1.9-0.1c-0.5,0.2-1,0.4-1.6,0.6c-0.6,0.2-1.1,0.3-1.7,0.5
		c-0.3,0.1-1.5,0.2-0.6,0.7c0.1,0,0.2-0.2,0.2-0.2c0-0.1-0.1-0.1-0.1-0.2c0.4-0.1,1.3-0.1,1.7,0c0-0.1,0-0.1-0.1-0.2
		c0.6-0.1,1.2,0,1.8,0.3c-0.3,0.5-1.1,0.1-1.5,0.2c0.2,0.1,0.4,0.3,0.5,0.5c-0.2,0.1-0.5,0.2-0.7,0.3c0.4,0.5-0.3,0.5-0.6,0.6
		c0.4,0.3,0.9,0.1,1.3,0.3c0.3,0.1,0.7-0.6,1-0.8c0.4-0.3,1.2-0.1,0.6,0.3c-0.3,0.2-0.3,0.4-0.4,0.5c-0.1,0.1-0.4,0.1-0.5,0.2
		c0.6,0.6,1.2-1,2-0.8c-0.1-0.3-0.3-0.4-0.6-0.5c0.6-0.7,1.9,0.3,2.2-0.4c-0.1,0-0.3,0-0.4,0c0-0.4,0.3-0.2,0.4-0.5
		C51.9,55.7,52,55.5,52.1,55.3z M60.6,61.7c-0.7-0.3-1.7-0.5-2.4,0c-0.2,0.2-0.4,0.6-0.6,0.7c-0.3,0.4-0.5,0.4-1,0.5
		c-0.4,0-1.1,0-1.3-0.5c-0.1-0.1-0.8,0-1-0.4c-0.1-0.1-0.7-0.4-0.8-0.3c-0.2,0.1,0.7,0.5,0.8,0.5c-0.2,0.6,1,1,0.3,1.2
		c-0.2,0.1-0.5-0.1-0.6,0.1c-0.2,0.3-0.1,0.4-0.4,0.5c0.1,0,0.1,0.1,0.2,0.1c-0.3,0.2-0.6,0-0.9,0c0,0.1,0,0.1,0,0.2
		c-0.3,0-0.6-0.2-0.9-0.1c0.4,0.6,1.5,0.7,2.1,0.8c0.4,0.1,2-0.2,1.7-0.7c0.5-0.4,0.8-0.3,1.3-0.5c0.3-0.1,0.6-0.6,0.9-0.8
		c-0.1,0-0.2,0-0.2,0c0.3-0.3,0.5-0.5,0.9-0.6c0.3-0.1,0.6,0.1,0.9-0.3c-0.3,0.1-0.3,0.1-0.5,0c0.2-0.1,0.5-0.1,0.7-0.2
		c-0.2,0-0.5,0-0.7-0.1c0.2,0,0.4,0,0.5,0c-0.7-0.2-1.2,0.2-1.8,0.6c0.2-0.8,2.2-1.2,2.4-0.3C60.4,62,60.5,61.8,60.6,61.7z
		 M71.7,78.9c0.1-0.4,0-0.2,0.3-0.4c0,0.1,0,0.2-0.1,0.3c0.1-0.1,0.1-0.1,0.1-0.2c0.3,0.1,0.2,0.5,0.2,0.8c0.1-0.2,0.3-0.4,0.5-0.3
		c0.2,0.1-0.1,0.5-0.2,0.7c0.1-0.1,0.3-0.1,0.4-0.2c-0.4,0.2-0.4,0.8-0.3,1.2c0.1,0.4,0.4-0.1,0.4-0.3c0.1,0,0.2,0,0.3,0.1
		c-0.2-0.4,0.1-0.8-0.1-1c-0.3-0.2-0.4-0.8-0.5-1.1c-0.2-0.5-1.2-2.7-0.8-2.9l-0.1,0c-0.1,0.2-0.2,0.1-0.4,0.2
		c0.1-0.2,0.2-0.4,0.4-0.5c0,0-0.2-0.2-0.2-0.2c-0.3,0.6-0.3,0.7,0.1,1.1c-0.4-0.2-1-0.5-1.2,0.1c-0.3,1-0.1,0.8,0.6,0.9
		c-0.8,0.2,0.2,1.1,0.4,1.5C71.5,78.8,71.6,78.9,71.7,78.9z M4.3,65.9c-0.7-0.3-1,0.2-1.7,0.1c0.3,0.5,0.7,0.5,1.2,0.7
		c0.1-0.2,0.4-0.2,0.6-0.2c0-0.1,0-0.1,0-0.2C4.3,66.2,4.1,66.2,4.3,65.9z M44.4,44.6c0.6,0.3,1.1,0.5,1.6,1
		c0.7,0.9,0.6,0.8,1.6,0.3c0.1-0.1,0.3-0.2,0.4-0.3c0.1-0.1,0.1,0.2,0.2,0.2c0.3-0.1,0.6-0.3,0.9-0.4l0.3-1.4c0.4,0.3,0.9-0.1,1-0.6
		c0.1-0.4,0.3-0.4,0.7-0.6c0.8-0.3,2.1-0.6,2.7-1.2c0.4-0.4,0.4-0.6-0.1-0.9c-0.3-0.2-0.7-0.5-1.1-0.7c-0.8-0.3-1.6-0.6-2.3,0.1
		c0.1-0.1,0-0.3,0.1-0.4c-0.9,0.3-1.7-0.8-2.5-0.7c-1,0.1-2,0.3-3,0.4c0.2,0.3,0.9,1.3,0.7,1.4c-0.3,0.3-1.1,1.1-0.6,1.5
		c-0.9,0.1-0.2,0.4-0.6,0.8c-0.3,0.4-0.7,0.7-0.6,1.2C44.1,44.7,44.3,44.7,44.4,44.6z M48.3,36.3c0.5,0.1,0.2-0.3,0.4-0.5
		c0.3-0.3,0.7,0.1,0.6,0.6c0.3-0.1,0.7-0.1,0.9-0.3c0.2-0.2-0.4-0.7,0-0.9c0.2-0.1,0.4,0.7,0.8,0.3c0.2-0.2,0.1-0.5-0.2-0.6
		c0.3-0.2,0.6,0.1,0.6-0.5c0-0.3,0.4-0.2,0.6-0.1c-0.7,0.5,0,1.2,0.6,1.1c0.4-0.1,1.6-1,0.8-1.4c0.1-0.1,0.4-0.1,0.5-0.1
		c-1.1-0.2-0.1-0.7,0.3-0.8c-0.7-0.4-0.9-0.6-1.7-0.4c0.1,0.1,0.1,0.2,0.3,0.2c-0.3,0.3-0.6,0.1-1,0c-0.3-0.1-0.6,0-0.9,0.1
		c-0.7,0.1-0.9,0.4-1.5,0.9c-0.4,0.3-1.1,1.2-1.6,1.3c-0.8,0.1-1.4,0.3-0.7,1.1C47.6,36.2,47.9,36.3,48.3,36.3z M56,31.9
		c-0.7-0.6-0.7-0.7-1.5-0.3c0.3,0.2,0.6,0.4,0.9,0.6C55.6,32,55.8,31.9,56,31.9z M16.7,69.5c0.3,0.2,0.8-0.1,0.9-0.3
		c0.1,0,0.1,0.1,0.2,0.1c0.1-0.1,0.1-0.1,0.2-0.2c-0.2-0.1-0.4-0.2-0.6-0.3C17,69,16.8,69.2,16.7,69.5z M38,75.9
		c0.1-0.6-1.3-0.4-1.4-0.2c-0.1,0.7,1.5,3.4,2,2.7c-0.2-0.1-0.3-0.3-0.5-0.4C38,77.2,37.9,76.7,38,75.9z M16,70.3
		c-0.9-0.5-1,1.3-0.1,1.3c0.3,0,0.5-0.5,0.8-0.5c0.3,0,0.6-0.2,0.5-0.6c0.2,0.1,0.4,0,0.5-0.2c-0.1,0-0.2,0-0.3-0.1
		C17.7,69.6,15.9,69.5,16,70.3z M45.9,82.9c-0.1-0.2-0.5-0.3-0.7-0.4c-0.3-0.1-0.4-0.3-0.5-0.6c-0.5-0.9-0.7-0.7-1.6-1
		c-0.7-0.2-1-0.6-1.7-0.3c1.2,1.5,2.5,2.4,4.2,3.2C46.5,84.2,46.4,83.8,45.9,82.9z M218.3,155.7c-0.3-0.4-1.1-1.6-1.1-0.4
		c0,1-0.3,1-0.9,1.7c-0.5,0.6-0.7,1.1-1.4,1.4c-0.7,0.4-1.2,0.6-2,0.7c-0.3,0-0.6,1.3-0.5,1.7c0.1,0.6,0.6,1.6,0.5,2.2
		c-0.1,0.7-0.8,1.3-1,2c-0.3,0.8-0.1,1.4,0.1,2.1c0.2,0.7,0.3,1.4,0.4,2.1c0,0.3,1.3,0.7,1.5,0.6c0.2-0.1,1.4-0.5,1.5-0.5
		c0.2-0.5,0.3-1.1,0.5-1.6c0.6-2,1.2-4,1.8-5.9c0.4-1.3,0.5-2,0.4-3.4c0.2,0.2,0.3,0.3,0.5,0.5C218.9,157.8,218.5,156.9,218.3,155.7
		L218.3,155.7z M287.7,123.3c-0.2,0.4,0,1.1,0.1,1.5c0.1,0.4,0.6,0.4,0.9,0.5c-0.6,0.3-0.2,0.9,0.3,1c0.4,0.1,0.3-0.3,0.8,0
		c0.2,0.1,0.4,0.4,0.5,0.5c0-0.3,0.1-0.5,0.1-0.8c0.5,0.2,0.6,0.1,0.7,0.8c0,0.2,0.6,0.5,0.8,0.6c0.3-0.7-0.4-0.5-0.4-1.1
		c0.5,0.2,0.8,0,0.4-0.5c-0.2-0.2-0.2,0.2-0.4,0.2c-0.2-0.1-0.4-0.3-0.6-0.4c-0.2-0.1-0.3-0.2-0.6-0.2c-0.3-0.1-0.3,0.3-0.5,0.3
		c-0.5,0-0.3-0.5-0.5-0.9c-0.4-0.7,0.1-0.5,0.1-1.2c0-0.3,0.4,0,0.5-0.1c0.1-0.2,0.1-0.4,0.2-0.6c0.2-0.8,0-0.5-0.2-1.1
		c-0.1-0.4,0.4-0.5,0.1-1c-0.7,0.4-0.4,0-1.1-0.1c-0.2,0-0.6,0.1-0.7,0.3c-0.1,0.6-0.2,1.2-0.3,1.8c-0.1,0.3,0.3,0.4,0.2,0.8
		C288,123.6,287.8,123.5,287.7,123.3z M289.4,114.8c0.1-0.6,0.7-2-0.4-1.5c-0.6,0.3-1.1,1-1.2,1.7c-0.2,0.8,0.4,1.3,0.8,1.9
		C289,116.2,289.2,115.7,289.4,114.8z M287.1,128.7c-0.2,0.8-0.3,1.3-0.8,1.8c-0.6,0.6-0.9,1-1.3,1.7c0.8-0.5,1.5-0.6,1.7-1.6
		c0-0.3,0.6-0.6,0.9-0.7c0.1,0-0.1-0.7-0.1-0.9C287.3,128.9,287.2,128.8,287.1,128.7z M293.7,131.2c-0.1-0.3-0.3-0.6-0.6-0.6
		c0,0.3,0.1,0.6,0.1,0.9c-0.3-0.1-0.3-0.1-0.4,0.1c-0.3-0.2-0.4,0-0.4,0.4c-0.4-0.3-0.6,0.4-1.1,0.6c0.2-0.3,0.2-0.8-0.2-0.8
		c-0.5,0-0.3,0.6-0.6,0.7c-0.5,0.1-1.3,0.7-0.8,1.4c0.2-0.2,0.6-1.6,0.8-0.6c0.1-0.2,0.1-0.2,0.3-0.3c0,0.3,0,0.2,0.3,0.4
		c0-0.1,0-0.3,0-0.5c1.1-0.1,0.4,0.9,0.6,1.4c0.1,0.3,1,1,1.2,0.4l0.1,0c-0.2,0.8,0.5,0.5,0.4-0.2c-0.1-0.5-0.4-0.8,0.2-1.2
		c0.3,0.4,0.1,0.8,0.4,1.2c0-0.2,0-0.5,0-0.7c0.1,0,0.1,0.1,0.2,0.1c0.1-0.3,0.5-1.5,0-1.5c0-0.1,0-0.3,0-0.4
		c-0.1,0-0.2-0.1-0.3-0.1c0.1-0.1,0.1-0.1,0.2-0.2C294.1,131.5,294,131.1,293.7,131.2z M288.4,152.2c-0.2-0.4-1.7-1-1.6-0.2
		C287.3,152.2,288.8,153.2,288.4,152.2z M285.2,150.8c-0.1-0.2-0.7-0.4-0.9-0.4c-0.5,0-0.4,0.2-0.6,0.7c1,0.3,1.6,0.2,2.6,0.1
		c1.4-0.2-0.1-1-0.7-0.8C285.7,150.6,285.5,150.8,285.2,150.8z M289.4,151.2c0.2,0,0.2-0.2,0.4-0.2c0.4,0.1,0.7-0.4,0.9-0.4
		c0.6,0,1.7,0.3,2.2-0.2c-0.7-0.3-1.2,0-1.9-0.1c-0.4,0-0.5,0-0.8,0.3c-0.2,0.2-0.4-0.2-0.7-0.1c-0.5,0.3-1.4-0.6-1.9,0
		c-0.5,0.6,0.9,0.4,1.1,0.7C289.1,150.9,289.2,151.2,289.4,151.2z M290,147.2c0.2,0.2,0.4,0.3,0.6,0.5c0.2-0.3,0.5-0.5,0.2-0.8
		c-0.2-0.2,0-0.4,0.2-0.4c-0.2-0.5-0.5-0.3-0.5,0.2C290.3,146,290.1,147,290,147.2z M276.8,140.7c0,0.2,0.3,0.4,0.3,0.7
		c0,0.1-0.2,0.2-0.2,0.4c0.1,0.2,0.1,0.4,0.2,0.6c0.1,0.3,0.2,0,0.1,0.5c0.3-0.1,0.3,0,0.4-0.3c0.5,0.5,0.4,1.4,0.5,2.1
		c0.1,0.6,1.2,0.1,1.5,0c0,0.3,0.1,0.5,0.1,0.8c0.9-0.5,1-0.7,1.8-0.2c0.1,0.1,0.4-0.1,0.7,0c0.2,0.1,0.2,0.6,0.3,0.8
		c0.5-0.2,0.9-0.5,1.4-0.7c-0.1,0.3-0.1,0.6,0.2,0.5c0-0.7,0-1.3,0-2c0-0.6,0.2-0.6,0.6-1c0.6-0.5,0.6-0.5,0.5-1.4
		c0-0.4,0.3-1.1,0.6-1c0.7,0.2,1,0,0.4-0.6c-0.2-0.2-0.5-0.4-0.6-0.6c-0.1-0.1,0.1-0.4,0.1-0.5c-0.3-0.8-0.6-0.7-0.5-1.6
		c0-0.4,0.9-0.4,1.2-0.5c-0.1-0.2-0.3-0.4-0.4-0.6c0.4-0.1,0.7-0.2,1-0.3c-0.1-0.3-0.3-0.3-0.6-0.3c-0.2-0.1-0.4-0.4-0.6-0.6
		c-0.2-0.3-1-1-1.2-1c-0.3,0-1,1.1-1.2,1.4c-0.4,0.5-0.1,0.8-0.6,1c-0.7,0.2-0.8,0.2-1.3,0.8c-0.3,0.5-0.5,0.9-1,1.1
		c-0.5,0.2-1,0.2-1.3,0.7c-0.4,0.7-0.5,0.7,0,1.2c-0.5-0.1-1.5-0.1-1.7-0.8c-0.2,0.1-0.4,0.3-0.6,0.4
		C276.9,139.9,276.8,140.3,276.8,140.7z M292.3,152.4c0.2-0.3,0.3-0.5,0.7-0.7c0.5-0.2,1.7-0.6,1.9-1.2c-0.5,0-0.9,0.1-1.4,0.2
		c-0.2,0-0.5,0-0.6,0.1c-0.1,0.1-0.1,0.3-0.2,0.4c-0.4,0.2-0.8,0.3-1.2,0.6c-0.4,0.3,0.2,0.5-0.2,0.9
		C291.6,152.7,292.1,152.7,292.3,152.4z M96.5,121.3c0.2,0,0.6-0.1,0.8,0c0.2,0.1,0.1,0.8,0.5,0.6c0.2-0.1,0.2-0.7,0.4-0.8
		c0.3-0.2,0.4,0.1,0.5,0.1c0.5,0,0.9-0.2,1.5-0.2c0.4,0,0.4,0.4,0.7-0.1c0.1-0.2-0.3-0.5-0.5-0.5c-0.5-0.1-0.5-0.1-0.8-0.6
		c-0.2-0.4-0.2-0.1-0.5-0.2c-0.2-0.1-0.6-0.3-0.9-0.2c-0.1,0.1-0.6,0.2-0.7,0.2c-0.7,0-0.9-0.2-1.6,0.1c0.7,0.3,0.6,0.6,1.1,1.3
		c-0.4,0.3-2.3-0.4-2.1,0.2C95.5,121.5,95.7,121.2,96.5,121.3z M153.5,59.2c0.5,0.2,0.9-0.3,0.9-0.9c0.4,0.2,0.7-0.2,1-0.5
		c-0.4-0.2-0.1-0.8-0.3-0.9c-0.4-0.2-0.7-0.5-1.1-0.3c0.5-0.9-2.1-2-1.6-0.8c-0.8-0.1-1,0.3-1.7,0c0,0.3,0.1,0.6,0.1,0.8
		c-0.3-0.4-0.4-0.8-0.9-0.8c-0.4,0-0.5,0.4-0.4,0.8c-0.3-0.3-0.5-0.8-0.9-0.7c0.3,0.8-0.1,0.4-0.3,0.7c-0.2,0.3-0.3,0.6-0.4,0.9
		c-0.2-0.3-0.4-0.6-0.6-0.9c0.2,0,0.4-0.1,0.4-0.4c0-0.2-0.5-0.3-0.6-0.4c-0.6-0.5-0.5-0.6-1.3-0.6c0.1,0.4,0.4,0.3,0.7,0.4
		c0.1,1-0.9-0.1-1.2,0.3c-0.4,0.5,0.3,0.4,0.2,0.7c-0.1,0.2-0.4,0-0.6-0.1c0,0.1,0,0.2,0,0.3c-0.3,0-0.2,0-0.5,0.2
		c0.6,0.3,0.8,0.1,1.5-0.1c0.3-0.1,1,0.2,1.3,0.3c-0.3,0.1-0.5,0.3-0.8,0.4c0.2,0.1,0.5,0.2,0.8,0.1c0,0.1,0,0.1,0,0.2
		c-0.8,0-1.6,0.3-2.3,0.3c0.1,0.6,1.4,0.3,1.8,0.3c-0.2,0.3-0.1,0.5,0.2,0.4c0,0.1,0,0.2,0,0.2c0.1,0,0.2,0,0.2,0
		c-0.2,0.6-1.1,0.4-0.9,1c0.6-0.1,1.2-0.2,1.8-0.2c0.2,0,0.3,0.4,0.4,0.5c0.2,0.1,0.6,0.1,0.8,0.2c0.5,0.1,0.9,0.2,1.4-0.1
		c0.2-0.1,0.2-0.3,0.5-0.4c0.3,0,0.6-0.1,0.9-0.1C152.4,59.8,153.1,59.1,153.5,59.2z M147,46.8c-0.1-0.5-0.6-1.5-0.4-2
		c0.4-1.2,0.7-2.7,1.5-3.6c0.5-0.6,1.1-1.2,1.6-1.8c0.2-0.2-0.2-1.6-0.3-1.8c-0.1-0.5,0-1.4-0.5-1.7c-0.5-0.4-1.1-0.8-1.7-1.1
		c0.8-0.8,1.6-1.6,2.4-2.4c-0.8-0.6-1.4-0.8-1.8-1.8c-0.3-0.8,0.7-1.7,1-2.4c0.4-0.7,1.2-1,1.9-1.4c0.7-0.5,1.3-1,1.9-1.7
		c-0.2-0.2-0.4-0.4-0.6-0.5c0.7-0.1,1.6-0.2,2.3-0.6c0.8-0.5,1.7-1,2.5-1.5c-0.9-0.4-1.9-1-2.9-1.1c-0.7-0.1-2.1-0.3-2.6,0.3
		c-0.3,0.4-0.5,0.9-1,0.9c-0.6-0.1-1.2-0.2-1.7-0.3c-0.7-0.1-2,0.8-2.6,1.1c0.1-0.2,1.3-2.1,0.4-2.2c-0.8,0-1.5,0.1-2.1-0.4
		c1-0.4,2.1-0.8,3.1-1.1c-2-0.9-3.8-1.8-6-2.1c-2.4-0.3-4.7-0.8-7.1-0.6c-0.9,0.1-1.7,0.2-2.6,0.2c-0.3,0-0.9-0.1-1.2,0.1
		c-0.4,0.2-0.5,1.2-1,1.1c-0.7-0.1-1.4-0.2-2.1-0.4c-0.8-0.1-1.8-0.6-2.6-0.2c-1.2,0.5-2.3,1.1-3.5,1.6c1.1,0.7,2.3,1.2,3,2.4
		c-2-0.7-3.8-1.3-5.9-1.7c-0.6-0.1-1.5,0.2-2.2,0.3c-1.4,0.2-2.8,0.4-4.2,0.6c-0.6,0.1-1.6,0-2.2,0.3c-0.8,0.4-1.6,0.8-2.4,1.2
		c-2,1-4,2-5.9,3.1c0.7,0.8,1.6,0.7,2.6,0.8c-0.2,0.6-0.4,1.1-0.7,1.7c-0.2,0.6-0.3,0.5-1,0.5c-0.9,0.1-1.7,0.2-2.6,0.5
		c-1.2,0.3-2.3,0.7-3.5,1c-0.3,0.1-0.3,0.8-0.3,1.1c0,0.2,0.5,0.7,0.6,0.9c0.3,0.5,0.8,1.4,1.3,1.7c0.7,0.4,1.3,0.8,2,1.2
		c0.3,0.2,1.3,1,1.7,1c0.8-0.1,1.5-0.2,2.3-0.3c1.4-0.2,2.6,0.1,3.9,0.3c0.7,0.1,1.4,0.2,2.1,0.4c0.3,0.1,1.1,1.3,1.3,1.6
		c0.9,1.2,1.5,2.7,2.1,4.1c0.3,0.8,0.5,0.9,0.2,1.6c-0.3,0.7-0.7,1.2-0.1,1.8c0.6,0.6,1.3,0.9,1,1.8c-0.2,0.8-0.6,1.3,0,1.9
		c0.7,0.8,0.7,0.8,1.6,0.5c0.7-0.2,1.4-0.4,2.1-0.6c-0.1,0.5-0.1,1-0.2,1.6c0,0.2-0.7,0.3-0.8,0.4c-0.5,0.2-1,0.4-1.4,0.6
		c-0.1,0-0.1,0.7-0.1,0.8c-0.1,0.7-0.5,1.9-0.2,2.6c0.4,1,0.7,2,1.1,3c0.6,1.6,1.6,2.9,2.5,4.3c0.5,0.8,1.1,1.7,1.6,2.5
		c0.3,0.4,1,0.5,1.4,0.6c0.9,0.3,1.7,0.6,2.5,0.9c0.2,0.1,1.4,0.1,1.4,0c0.5-1.6,1.1-3.3,1.6-4.9c0.4-1.3,0.9-2.6,1.4-3.9
		c0.3-0.7,0.2-0.7,0.9-0.9c0.9-0.3,1.7-0.6,2.6-0.8c0.5-0.2,1.3-0.3,1.8-0.6c0.5-0.4,1-1.3,1.4-1.8c0.4-0.5,0.5-0.8,1-0.9
		c0.8-0.2,1.6-0.4,2.4-0.6c1.1-0.3,2.6-0.4,3.6-1.1c1.3-0.8,2.6-1.6,3.9-2.4C147.2,47.8,147.3,47.8,147,46.8z M277.6,121
		c0.2-0.1,0.7-0.1,0.8-0.5c0.1-0.3,0.1-0.8,0.5-0.8c0.1-0.3,0-0.6-0.3-0.7c0,0.1,0,0.2-0.1,0.2c-0.9-0.5-1.3,0.3-2,0.7
		c0,0.6-0.1,0.8,0.4,1.1c0.2,0.1,0.3,0.1,0.5,0.2C277.7,121.3,277.4,121.1,277.6,121z M273.6,147.8c0.2-0.8,0-1.9,0.2-2.6
		c0.3-0.9-0.8-1.5-1.3-0.8c0.5-0.5,0-0.4-0.1-0.8c0-0.2-0.1-0.9-0.2-1c-0.2-0.1-0.7-0.2-0.8-0.4c-0.1-0.4,0.3-0.5,0.2-0.8
		c-0.1-0.5-0.7-0.4-0.7-0.7c0-0.5-0.2-0.3-0.5-0.5c-0.3-0.3,0.1-0.3-0.5-0.5c-0.4-0.1-0.6,0-0.8-0.3c-0.4-0.6-1-0.7-1.5-1.2
		c-0.4-0.4-1.1-0.8-1.4-1.3c-0.5-0.7-0.3-1-1.2-1.1c-0.3,0-1.6-0.5-1.7-0.3c-0.2,0.3,0.8,1.6,1,1.8c0.4,0.4,1.3,0.5,1.3,1.3
		c0,0.8,1,0.7,1.2,1.4c0.1,0.4,0.2,0.9,0.4,1.3c0.1,0.3,0.4,0.2,0.6,0.4c0.5,0.5,0.8,1.7,1,2.3c0.3,0.6,0.7,1,1.1,1.4
		c0.8,0.9,1.7,1.8,2.6,2.7c0-0.2,0.1-0.4,0.1-0.6C273,147.9,273.2,147.1,273.6,147.8z M275.8,144.1c-0.5-0.4-0.3,0.7-0.3,0.8
		C276.2,145.2,276.2,144.5,275.8,144.1z M281.5,149.8c-0.5,0.1-1.2-0.3-1-0.9c-0.3,0.2-1.2,0.1-1.5-0.2c-0.3-0.4-0.4-0.2-0.6,0.2
		c-0.1,0.2-0.3,0.1-0.5,0.1c-0.7-0.1-1.3,0.1-1.7-0.6c-0.1-0.1-1.1-0.3-1.3-0.5c-0.1,0.4-0.4,0.1-0.7,0.1c-0.3-0.1-0.3,0.1-0.5,0.3
		c-0.6,0.7,0.2,0.8,0.7,0.9c0,0.1,0,0.2-0.1,0.3c0.6,0.1,1.2,0.5,1.8,0.6c0.3,0.1,0.7-0.2,1-0.1c0.3,0,0.6,0.2,0.9,0.3
		c0.3,0.1,0.5,0.2,0.8,0.3c0.2,0,0.4,0.1,0.6,0.1c0.1,0,0.2-0.2,0.3-0.2c0.6,0.1,0.9,0.3,1.5,0.1c0.4,0.2,0.8,0.3,1.2,0.5
		C281.9,150.4,282.5,149.6,281.5,149.8z M273,143.6c0.2,0.1,0.3,0.1,0.5,0.1c0.1,0,0.2,0.3,0.3,0.4c0.1,0.2,0.1,0.3,0.2,0.4
		c0.2,0.2,0.4,0.3,0.6,0.2c-0.2-0.2-0.1-0.4,0.1-0.6c-0.8,0-0.4-1.2-1.1-1.2c0,0.1,0,0.2,0,0.3C273.4,142.9,273.2,143.3,273,143.6z"
		/>
</g>
</svg>
