<?xml version="1.0" encoding="iso-8859-1"?>
<!-- Generator: Adobe Illustrator 16.0.0, SVG Export Plug-In . SVG Version: 6.00 Build 0)  -->
<!DOCTYPE svg PUBLIC "-//W3C//DTD SVG 1.1//EN" "http://www.w3.org/Graphics/SVG/1.1/DTD/svg11.dtd">
<svg version="1.1" id="Capa_1" xmlns="http://www.w3.org/2000/svg" xmlns:xlink="http://www.w3.org/1999/xlink" x="0px" y="0px"
	 width="31.843px" height="31.842px" viewBox="0 0 31.843 31.842" style="enable-background:new 0 0 31.843 31.842;"
	 xml:space="preserve">
<g>
	<path d="M31.843,7.546c0.006-0.389-0.146-0.764-0.418-1.042c-0.271-0.277-0.646-0.433-1.035-0.433h-6.396
		c-0.181,0-0.344,0.109-0.413,0.276c-0.067,0.167-0.028,0.359,0.099,0.487l1.233,1.232c0.195,0.194,0.306,0.457,0.306,0.732
		c0,0.274-0.108,0.538-0.305,0.732l-6.26,6.257c-0.536,0.537-1.405,0.537-1.939,0l-4.039-4.039c-0.239-0.239-0.562-0.373-0.9-0.373
		s-0.662,0.134-0.901,0.373L0.372,22.245c-0.496,0.498-0.496,1.305,0,1.803L1.726,25.4c0.239,0.239,0.562,0.372,0.9,0.372
		c0.338,0,0.661-0.133,0.9-0.37l7.277-7.276c0.536-0.535,1.405-0.535,1.94,0l3.968,3.969c0.258,0.256,0.605,0.399,0.971,0.399
		s0.715-0.146,0.973-0.399l9.416-9.417c0.193-0.194,0.457-0.303,0.73-0.303c0.274,0,0.539,0.109,0.731,0.304l1.453,1.457
		c0.127,0.127,0.316,0.166,0.484,0.099c0.166-0.067,0.273-0.228,0.279-0.407L31.843,7.546z"/>
</g>
<g>
</g>
<g>
</g>
<g>
</g>
<g>
</g>
<g>
</g>
<g>
</g>
<g>
</g>
<g>
</g>
<g>
</g>
<g>
</g>
<g>
</g>
<g>
</g>
<g>
</g>
<g>
</g>
<g>
</g>
</svg>
