<?xml version="1.0" encoding="UTF-8" standalone="no" ?>
<!DOCTYPE svg PUBLIC "-//W3C//DTD SVG 1.1//EN" "http://www.w3.org/Graphics/SVG/1.1/DTD/svg11.dtd">
<svg xmlns="http://www.w3.org/2000/svg" xmlns:xlink="http://www.w3.org/1999/xlink" version="1.1" width="16.6232" height="16.6232" viewBox="0 0 16.62 16.62" xml:space="preserve">
<desc>Created with Fabric.js 1.6.0-rc.1</desc>
<defs></defs>
<g style="stroke: none; stroke-width: 1; stroke-dasharray: none; stroke-linecap: butt; stroke-linejoin: miter; stroke-miterlimit: 10; fill: none; fill-rule: nonzero; opacity: 1;" transform="translate(-0.019999999999999574 -0.019999999999999574) scale(0.04 0.04)" >
	<path d="M 411.47 96.426 l -46.319 -46.32 c -5.482 -5.482 -14.371 -5.482 -19.853 0 L 152.348 243.058 l -82.066 -82.064 c -5.48 -5.482 -14.37 -5.482 -19.851 0 l -46.319 46.32 c -5.482 5.481 -5.482 14.37 0 19.852 l 138.311 138.31 c 2.741 2.742 6.334 4.112 9.926 4.112 c 3.593 0 7.186 -1.37 9.926 -4.112 L 411.47 116.277 c 2.633 -2.632 4.111 -6.203 4.111 -9.925 C 415.582 102.628 414.103 99.059 411.47 96.426 z" style="stroke: none; stroke-width: 1; stroke-dasharray: none; stroke-linecap: butt; stroke-linejoin: miter; stroke-miterlimit: 10; fill: #e69138; fill-rule: nonzero; opacity: 1;" transform=" matrix(1 0 0 1 0 0) " stroke-linecap="round" />
</g>
</svg>