<?xml version="1.0" encoding="UTF-8" standalone="no" ?>
<!DOCTYPE svg PUBLIC "-//W3C//DTD SVG 1.1//EN" "http://www.w3.org/Graphics/SVG/1.1/DTD/svg11.dtd">
<svg xmlns="http://www.w3.org/2000/svg" xmlns:xlink="http://www.w3.org/1999/xlink" version="1.1" width="69.36" height="19.68" viewBox="0 0 69.36 19.68" xml:space="preserve">
<desc>Created with Fabric.js 1.6.0-rc.1</desc>
<defs></defs>
<g style="stroke: none; stroke-width: 1; stroke-dasharray: none; stroke-linecap: butt; stroke-linejoin: miter; stroke-miterlimit: 10; fill: none; fill-rule: nonzero; opacity: 1;" transform="translate(-0.11999999999999744 -0.11999999999999922) scale(0.24 0.24)" >
	<path d="M 176.6 72.6 c 0 0 0 -0.1 0 -0.2 c -2.1 0 -4.2 0 -6.5 0 L 176.6 72.6 z" style="stroke: none; stroke-width: 1; stroke-dasharray: none; stroke-linecap: butt; stroke-linejoin: miter; stroke-miterlimit: 10; fill: #000000; fill-rule: nonzero; opacity: 1;" transform=" matrix(1 0 0 1 0 0) " stroke-linecap="round" />
	<path d="M 233.5 39.5 c -0.2 -31.7 -29.8 -30.7 -29.8 -30.7 s 2.3 25.2 -8.2 29.9 c -4.1 -5.8 0.2 -28.3 0.3 -30 c -12.2 -0.5 -28.3 -0.3 -49.5 0 c -19.1 0.3 -36.7 1.6 -52.4 3.7 c 0.9 4.8 0.3 11.4 -5.4 19.6 l 0.6 -18.9 C 44.3 19.7 15 32.3 7.5 42.6 c 5.5 8.4 20.2 15.8 42.2 21.2 l 0.8 -22.6 c 0 0 9.2 8.6 2 23.3 c 23.9 5.5 56.1 8.7 94.7 8.1 c 8.4 -0.1 16 -0.2 22.9 -0.2 l -2 0 l 1.4 -22.5 c 10.7 5.7 7.4 20.7 7 22.5 C 226.8 72.1 233.9 71 233.5 39.5 z M 140.6 26.4 c 0 0 11.4 10.6 -1 28.4 L 140.6 26.4 z" style="stroke: none; stroke-width: 1; stroke-dasharray: none; stroke-linecap: butt; stroke-linejoin: miter; stroke-miterlimit: 10; fill: #000000; fill-rule: nonzero; opacity: 1;" transform=" matrix(1 0 0 1 0 0) " stroke-linecap="round" />
	<path d="M 266.5 59.7 L 254.3 47 l 16.2 0.3 c 2.7 0.1 10.5 -0.6 10.6 -3.3 c 0.1 -2.7 -7.6 -6.5 -10.4 -6.6 l -16.2 -0.3 l 11.7 -11.2 c 2 -1.9 6.9 -8.7 5 -10.7 c -1.9 -2 -9.9 1.7 -11.8 3.6 l -20.3 19.5 c 0 0 0 0 0 0.1 c -0.4 0.4 -0.8 0.9 -1.1 1.5 c -0.5 1.2 -0.6 2.6 -0.1 3.8 c 0.2 0.6 0.6 1.1 1 1.6 c 0 0 0 0.1 0 0.1 c 0 0 0 0 0.1 0.1 c 0.1 0.1 0.3 0.2 0.5 0.4 c 0.1 0.2 0.2 0.4 0.3 0.5 l 19.5 20.3 c 1.9 2 10.1 10.9 12 9 C 273.3 73.7 268.4 61.7 266.5 59.7 z" style="stroke: none; stroke-width: 1; stroke-dasharray: none; stroke-linecap: butt; stroke-linejoin: miter; stroke-miterlimit: 10; fill: #000000; fill-rule: nonzero; opacity: 1;" transform=" matrix(1 0 0 1 0 0) " stroke-linecap="round" />
</g>
</svg>