<?xml version="1.0" encoding="UTF-8" standalone="no" ?>
<!DOCTYPE svg PUBLIC "-//W3C//DTD SVG 1.1//EN" "http://www.w3.org/Graphics/SVG/1.1/DTD/svg11.dtd">
<svg xmlns="http://www.w3.org/2000/svg" xmlns:xlink="http://www.w3.org/1999/xlink" version="1.1" width="69.0928" height="69.0928" viewBox="0 0 69.09 69.09" xml:space="preserve">
<desc>Created with Fabric.js 1.6.0-rc.1</desc>
<defs></defs>
<g style="stroke: none; stroke-width: 1; stroke-dasharray: none; stroke-linecap: butt; stroke-linejoin: miter; stroke-miterlimit: 10; fill: none; fill-rule: nonzero; opacity: 1;" transform="translate(-1.0850000000000009 -1.0850000000000009) scale(2.17 2.17)" >
	<path d="M 31.843 7.546 c 0.006 -0.389 -0.146 -0.764 -0.418 -1.042 c -0.271 -0.277 -0.646 -0.433 -1.035 -0.433 h -6.396 c -0.181 0 -0.344 0.109 -0.413 0.276 c -0.067 0.167 -0.028 0.359 0.099 0.487 l 1.233 1.232 c 0.195 0.194 0.306 0.457 0.306 0.732 c 0 0.274 -0.108 0.538 -0.305 0.732 l -6.26 6.257 c -0.536 0.537 -1.405 0.537 -1.939 0 l -4.039 -4.039 c -0.239 -0.239 -0.562 -0.373 -0.9 -0.373 s -0.662 0.134 -0.901 0.373 L 0.372 22.245 c -0.496 0.498 -0.496 1.305 0 1.803 L 1.726 25.4 c 0.239 0.239 0.562 0.372 0.9 0.372 c 0.338 0 0.661 -0.133 0.9 -0.37 l 7.277 -7.276 c 0.536 -0.535 1.405 -0.535 1.94 0 l 3.968 3.969 c 0.258 0.256 0.605 0.399 0.971 0.399 s 0.715 -0.146 0.973 -0.399 l 9.416 -9.417 c 0.193 -0.194 0.457 -0.303 0.73 -0.303 c 0.274 0 0.539 0.109 0.731 0.304 l 1.453 1.457 c 0.127 0.127 0.316 0.166 0.484 0.099 c 0.166 -0.067 0.273 -0.228 0.279 -0.407 L 31.843 7.546 z" style="stroke: none; stroke-width: 1; stroke-dasharray: none; stroke-linecap: butt; stroke-linejoin: miter; stroke-miterlimit: 10; fill: #000000; fill-rule: nonzero; opacity: 1;" transform=" matrix(1 0 0 1 0 0) " stroke-linecap="round" />
</g>
</svg>