<?xml version="1.0" encoding="UTF-8" standalone="no" ?>
<!DOCTYPE svg PUBLIC "-//W3C//DTD SVG 1.1//EN" "http://www.w3.org/Graphics/SVG/1.1/DTD/svg11.dtd">
<svg xmlns="http://www.w3.org/2000/svg" xmlns:xlink="http://www.w3.org/1999/xlink" version="1.1" width="24.22" height="24.22" viewBox="0 0 24.22 24.22" xml:space="preserve">
<desc>Created with Fabric.js 1.6.0-rc.1</desc>
<defs></defs>
<g style="stroke: none; stroke-width: 1; stroke-dasharray: none; stroke-linecap: butt; stroke-linejoin: miter; stroke-miterlimit: 10; fill: none; fill-rule: nonzero; opacity: 1;" transform="translate(-0.025000000000000355 -0.025000000000000355) scale(0.05 0.05)" >
	<path d="M 467.844 350.3 c -20.3 -20.5 -40.6 -40.7 -60.3 -60.2 c -10.7 -10.6 -23.2 -16.2 -36.3 -16.2 c -13.1 0 -25.6 5.6 -36.2 16.1 l -2.7 2.7 c -10.7 10.6 -21.8 21.6 -32.5 32.6 c -2.2 -1.1 -4.4 -2.2 -6.5 -3.3 c -4.9 -2.4 -9.6 -4.7 -13.7 -7.3 c -32.2 -20.2 -61.8 -47.1 -90.4 -82.4 c -13.9 -17.1 -23.6 -32.3 -30.4 -47.7 c 9.5 -9.2 18.8 -18.6 27.9 -27.8 c 2.3 -2.3 4.7 -4.7 7 -7 c 22.3 -22.4 22.2 -51.4 -0.1 -73.9 c -6.8 -6.9 -13.8 -13.8 -20.5 -20.5 c -3 -3 -6 -6 -9 -9 c -3.2 -3.2 -6.3 -6.3 -9.5 -9.5 c -6.8 -6.9 -13.9 -14 -21 -20.9 c -10.7 -10.5 -23.3 -16 -36.3 -16 s -25.6 5.5 -36.2 16 c -5.1 5.1 -10.3 10.2 -15.2 15.2 c -7.2 7.3 -14.7 14.8 -22.2 22 c -14 13.3 -21.8 30.1 -23.3 50 c -2.3 31.3 6.4 59.6 14.2 80.8 c 17.8 47.9 45 93.3 83.2 138.8 c 47.6 56.6 104.9 101.4 170.3 133.3 c 36 17.5 66.9 26.4 97 28.1 c 2.2 0.1 4.4 0.2 6.5 0.2 c 25.4 0 46.3 -9 62.1 -26.6 c 6.8 -7.6 14.1 -14.7 21.8 -22.2 c 3.9 -3.8 7.9 -7.7 11.9 -11.7 C 489.844 401.4 489.944 372.6 467.844 350.3 z M 448.444 404.9 c -3.8 3.8 -7.7 7.6 -11.5 11.4 c -7.7 7.5 -15.7 15.3 -23.1 23.6 c -11.7 13.1 -26.5 18.6 -47 17.5 c -26.5 -1.5 -54 -9.5 -86.7 -25.4 c -62 -30.2 -116.4 -72.7 -161.5 -126.3 c -36.2 -43.1 -61.9 -85.8 -78.6 -130.8 c -10.3 -27.6 -14.1 -49 -12.6 -69.3 c 1 -13.1 5.9 -23.8 15 -32.4 c 7.7 -7.7 15.3 -15.4 22.7 -22.8 c 4.9 -4.9 9.9 -10 14.9 -15 c 3.8 -3.8 9.9 -8.3 17.3 -8.3 c 7.4 0 13.5 4.5 17.4 8.3 c 6.9 6.8 14 13.9 20.7 20.7 c 3.2 3.2 6.3 6.4 9.5 9.5 c 3 3 6 6 9 9 c 6.7 6.7 13.6 13.6 20.4 20.4 c 12 12.1 12.1 23.8 0.1 35.8 c -2.3 2.4 -4.7 4.7 -7 7.1 c -9.7 9.8 -19.8 20 -29.9 29.7 c -5 4.8 -9.9 13 -5 24.8 c 7.8 18.7 19.1 36.9 35.5 57.1 c 30.5 37.5 62.3 66.4 97 88.2 c 5.4 3.4 10.9 6.1 16.2 8.7 c 3.2 1.5 6.1 3 9 4.6 c 3.6 2 7.2 2.9 10.8 2.9 l 0 0 c 5.7 0 11 -2.5 15.7 -7.3 c 11.3 -11.7 23.1 -23.3 34.4 -34.6 l 2.7 -2.7 c 3.8 -3.8 9.9 -8.3 17.2 -8.3 c 7.3 0 13.4 4.5 17.3 8.3 c 19.6 19.5 39.9 39.7 60.1 60.1 C 460.144 380.9 460.044 393.2 448.444 404.9 z" style="stroke: none; stroke-width: 1; stroke-dasharray: none; stroke-linecap: butt; stroke-linejoin: miter; stroke-miterlimit: 10; fill: #000000; fill-rule: nonzero; opacity: 1;" transform=" matrix(1 0 0 1 0 0) " stroke-linecap="round" />
</g>
</svg>