<?xml version="1.0" encoding="UTF-8" standalone="no" ?>
<!DOCTYPE svg PUBLIC "-//W3C//DTD SVG 1.1//EN" "http://www.w3.org/Graphics/SVG/1.1/DTD/svg11.dtd">
<svg xmlns="http://www.w3.org/2000/svg" xmlns:xlink="http://www.w3.org/1999/xlink" version="1.1" width="80.8673" height="80.869" viewBox="0 0 80.87 80.87" xml:space="preserve">
<desc>Created with Fabric.js 1.6.0-rc.1</desc>
<defs></defs>
<g style="stroke: none; stroke-width: 1; stroke-dasharray: none; stroke-linecap: butt; stroke-linejoin: miter; stroke-miterlimit: 10; fill: none; fill-rule: nonzero; opacity: 1;" transform="translate(-0.08500000000000085 -0.08500000000000085) scale(0.17 0.17)" >
	<polygon points="473.01,155.5 421.75,102.03 444.06,87.8 445.36,76.71 435.02,76.1 408.18,95.4 374.7,95.43 354.2,82.91 346.86,84.41 346.96,92.55 360.18,107.18 358.44,114.87 202.94,131.59 41.87,127.09 24.51,134.37 11.73,150.61 5.15,188.61 3.99,215.93 0,241.44 1.1,266.84 5.58,267.76 12.1,260.58 17.4,236.75 13.1,203.68 14.6,203.45 24.69,253.79 17.82,297.49 24.09,384.68 24.69,394.34 30.81,399.56 57.87,399.6 66.58,396.96 42.38,357.55 54.39,307.49 60.68,307.5 82.62,374.05 93.93,391.14 99.51,394.57 129.38,394.6 133.21,389.8 107.35,373.92 89.83,319.94 94.22,311.17 104.52,312.13 110.98,327.96 120.35,312.53 129.42,328.02 137.11,311.2 159.73,293.81 240.01,286.12 253.48,302.59 264.84,383.12 270.81,394.69 298.17,394.68 301.12,390.35 284.49,367.21 282.49,323.14 291.47,328.12 300.93,357.39 312.95,395.4 318.35,399.58 342.82,399.6 344.85,394.07 337.7,387.45 314.62,342.35 319.94,295.08 345.8,275.95 383.47,205.99 426.83,185.97 466.7,181.43 470.12,177.72 475.69,162 " style="stroke: none; stroke-width: 1; stroke-dasharray: none; stroke-linecap: butt; stroke-linejoin: miter; stroke-miterlimit: 10; fill: #000000; fill-rule: nonzero; opacity: 1;" transform="  matrix(1 0 0 1 0 0) "/>
</g>
</svg>