<?xml version="1.0" encoding="UTF-8" standalone="no" ?>
<!DOCTYPE svg PUBLIC "-//W3C//DTD SVG 1.1//EN" "http://www.w3.org/Graphics/SVG/1.1/DTD/svg11.dtd">
<svg xmlns="http://www.w3.org/2000/svg" xmlns:xlink="http://www.w3.org/1999/xlink" version="1.1" width="144.5" height="23.9" viewBox="0 0 144.5 23.9" xml:space="preserve">
<desc>Created with Fabric.js 1.6.0-rc.1</desc>
<defs></defs>
<g style="stroke: none; stroke-width: 1; stroke-dasharray: none; stroke-linecap: butt; stroke-linejoin: miter; stroke-miterlimit: 10; fill: none; fill-rule: nonzero; opacity: 1;" transform="translate(-0.5 -0.5)" >
	<path d="M 139.5 8.4 c -1.5 -0.6 -4 -1.4 -5.4 0.1 c -1.2 1.3 -1.8 3 -0.7 4.5 c 1.5 2.1 6.3 1.5 5.7 -1.6 c -0.1 -0.7 -1.1 -0.4 -1 0.3 c 0.2 1.5 -2 1.5 -2.7 1.2 c -3.6 -1.3 0.1 -4.6 2.2 -3.9 c 1.8 0.6 5.1 2.3 4.4 4.6 c -0.5 1.8 -2.3 2.6 -4 3 c -5.1 1.3 -10.6 0.7 -15.8 0.1 c -9.8 -1.1 -19.4 -3.3 -29 -5.3 c -4.5 -0.9 -18.1 -5.4 -20.3 0.9 c -0.5 -3 0.3 -5.9 3.8 -7.6 c 3.9 -1.9 8.5 -2 12.6 -1 c 5.6 1.4 11.1 3.8 16 6.8 c 2.7 1.6 6.5 3.9 9.9 2.9 c 2.1 -0.6 3.6 -2.2 3.2 -4.9 c -0.3 -2.2 -3.3 -3.9 -5.1 -3.3 c -3.4 1.1 -2.9 6.5 0.6 4.8 c 0.4 -0.2 0.5 -1.1 -0.2 -1.2 c -0.9 -0.4 -0.2 -1.2 0.2 -1.3 c 2.2 -0.9 3.9 3 0.9 4.4 c -1.5 0.2 -2.9 0.1 -4.3 -0.4 c -2 -0.7 -3.8 -1.8 -5.7 -2.7 C 102 7.5 99.1 6.1 96.1 5 c -4.7 -1.7 -9.7 -3.2 -14.7 -2.5 c -3.3 0.5 -7.5 1.8 -8.7 5.3 c -0.2 0.6 -0.3 1.1 -0.4 1.7 C 72.2 9 72 8.4 71.8 7.8 c -1.2 -3.5 -5.4 -4.9 -8.7 -5.3 c -5 -0.7 -10.1 0.7 -14.7 2.5 c -3 1.1 -5.9 2.6 -8.8 3.9 c -1.9 0.9 -3.7 2 -5.7 2.7 c -1.4 0.5 -2.8 0.6 -4.3 0.4 c -3 -1.4 -1.4 -5.3 0.9 -4.4 c 0.4 0.2 1.1 0.9 0.2 1.3 c -0.7 0.1 -0.7 1 -0.2 1.2 c 3.5 1.6 4 -3.8 0.6 -4.8 c -1.8 -0.6 -4.8 1.1 -5.1 3.3 c -0.4 2.6 1.1 4.2 3.2 4.9 c 3.4 1 7.2 -1.3 9.9 -2.9 c 4.9 -2.9 10.5 -5.4 16 -6.8 c 4.1 -1 8.8 -0.9 12.6 1 c 3.5 1.7 4.3 4.6 3.8 7.6 c -2.2 -6.3 -15.8 -1.8 -20.3 -0.9 c -9.7 2 -19.2 4.2 -29 5.3 c -5.1 0.6 -10.7 1.2 -15.8 -0.1 c -1.7 -0.4 -3.4 -1.2 -4 -3 C 2 11.3 5.3 9.6 7 9 c 2.2 -0.7 5.8 2.7 2.2 3.9 c -0.7 0.3 -2.9 0.3 -2.7 -1.2 c 0.1 -0.7 -0.9 -0.9 -1 -0.3 c -0.7 3.1 4.1 3.6 5.7 1.6 c 1.1 -1.5 0.5 -3.3 -0.7 -4.5 C 9.1 7 6.6 7.8 5.1 8.4 C 1.8 9.8 0 13.7 2.9 16.3 c 3 2.6 8.3 2.4 12 2.4 c 11.2 0 22.6 -2.7 33.5 -5.1 c 1 -0.2 1.9 -0.4 2.9 -0.7 c -3.4 2 -5.8 5 -2.7 8 c 1.8 1.8 6.2 1.3 6.7 -1.5 c 0.4 -2.2 -2.1 -3.1 -3.6 -1.8 c -0.5 0.5 0.2 1.2 0.8 0.8 c 1.8 -1.4 2.2 1.1 0.9 2 c -1.1 0.7 -2.5 0.5 -3.6 -0.1 c -2.4 -1.4 -0.4 -4 0.9 -5.1 c 1.5 -1.4 3.7 -2.7 5.8 -3.4 c 0.9 -0.2 1.9 -0.4 2.8 -0.6 c 2.9 -0.6 6.1 -1 9.1 -0.2 c 2.1 0.6 2.7 2.3 2.4 4.3 c 0 0.2 -0.1 0.5 -0.2 0.7 c -0.2 0.4 -0.4 0.8 -0.6 1.2 c -0.3 0.4 -0.6 0.8 -0.9 1.2 c -0.5 0.6 -1.1 1.1 -1.8 1.5 c -1.8 1.2 -4.4 -0.1 -3.8 -2.5 c 0.3 -1.2 1.3 -1.6 2.4 -1.6 c 0.4 0.1 0.7 -0.5 0.3 -0.7 c -3.7 -1.7 -6.5 4 -3 6 c 2.7 1.5 5.8 -0.3 7.5 -2.8 c 0 -0.1 0.1 -0.1 0.1 -0.2 c 0.1 -0.1 0.1 -0.2 0.2 -0.3 c 0.1 -0.2 0.2 -0.3 0.3 -0.5 c 0.5 -1 0.9 -2 1.1 -3.1 c 0.2 1.1 0.6 2.1 1.1 3.1 c 0.1 0.2 0.2 0.4 0.3 0.5 c 0.1 0.1 0.1 0.2 0.1 0.3 c 0 0.1 0.1 0.1 0.1 0.2 c 1.7 2.5 4.8 4.2 7.5 2.8 c 3.5 -1.9 0.7 -7.7 -3 -6 c -0.4 0.2 -0.1 0.8 0.3 0.7 c 1.1 0 2.1 0.4 2.4 1.6 c 0.6 2.4 -2.1 3.6 -3.8 2.5 c -0.7 -0.4 -1.3 -0.9 -1.8 -1.5 c -0.3 -0.4 -0.6 -0.8 -0.9 -1.2 c -0.2 -0.4 -0.4 -0.8 -0.6 -1.2 c -0.1 -0.2 -0.1 -0.4 -0.2 -0.7 c -0.3 -2 0.3 -3.7 2.4 -4.3 c 2.9 -0.8 6.1 -0.4 9.1 0.2 c 0.9 0.2 1.9 0.4 2.8 0.6 c 2.2 0.7 4.3 2 5.8 3.4 c 1.3 1.2 3.3 3.8 0.9 5.1 c -1.1 0.6 -2.5 0.8 -3.6 0.1 c -1.3 -0.9 -0.9 -3.4 0.9 -2 c 0.5 0.4 1.3 -0.3 0.8 -0.8 c -1.5 -1.3 -4 -0.5 -3.6 1.8 c 0.5 2.8 4.8 3.3 6.7 1.5 c 3.1 -3 0.7 -6 -2.7 -8 c 1 0.2 1.9 0.4 2.9 0.7 c 10.9 2.4 22.3 5.1 33.5 5.1 c 3.6 0 9 0.2 12 -2.4 C 144.6 13.7 142.7 9.8 139.5 8.4 z" style="stroke: none; stroke-width: 1; stroke-dasharray: none; stroke-linecap: butt; stroke-linejoin: miter; stroke-miterlimit: 10; fill: rgb(0,0,0); fill-rule: nonzero; opacity: 1;" transform=" matrix(1 0 0 1 0 0) " stroke-linecap="round" />
</g>
</svg>