<?xml version="1.0" encoding="UTF-8" standalone="no" ?>
<!DOCTYPE svg PUBLIC "-//W3C//DTD SVG 1.1//EN" "http://www.w3.org/Graphics/SVG/1.1/DTD/svg11.dtd">
<svg xmlns="http://www.w3.org/2000/svg" xmlns:xlink="http://www.w3.org/1999/xlink" version="1.1" width="311.5" height="41" viewBox="0 0 311.5 41" xml:space="preserve">
<desc>Created with Fabric.js 1.6.0-rc.1</desc>
<defs></defs>
<g style="stroke: none; stroke-width: 1; stroke-dasharray: none; stroke-linecap: butt; stroke-linejoin: miter; stroke-miterlimit: 10; fill: none; fill-rule: nonzero; opacity: 1;" transform="translate(-0.5 -0.5)" >
	<polygon points="0.7,40.3 28,26.3 0.7,12.4 83.9,12.4 83.9,40.3 " style="stroke: #000000; stroke-width: 1.3; stroke-dasharray: none; stroke-linecap: round; stroke-linejoin: round; stroke-miterlimit: 12; fill: #FFFFFF; fill-rule: nonzero; opacity: 1;" transform="  matrix(1 0 0 1 0 0) "/>
	<polygon points="55.3,28.6 83.9,40.3 83.9,18.7 " style="stroke: #000000; stroke-width: 1.3; stroke-dasharray: none; stroke-linecap: round; stroke-linejoin: round; stroke-miterlimit: 10; fill: #FFFFFF; fill-rule: nonzero; opacity: 1;" transform="  matrix(1 0 0 1 0 0) "/>
	<polygon points="310.9,40.3 283.5,26.3 310.9,12.4 227.6,12.4 227.6,40.3 " style="stroke: #000000; stroke-width: 1.3; stroke-dasharray: none; stroke-linecap: round; stroke-linejoin: round; stroke-miterlimit: 12; fill: #FFFFFF; fill-rule: nonzero; opacity: 1;" transform="  matrix(1 0 0 1 0 0) "/>
	<polygon points="256.2,28.6 227.6,40.3 227.6,18.7 " style="stroke: #000000; stroke-width: 1.3; stroke-dasharray: none; stroke-linecap: round; stroke-linejoin: round; stroke-miterlimit: 12; fill: #FFFFFF; fill-rule: nonzero; opacity: 1;" transform="  matrix(1 0 0 1 0 0) "/>
	<rect x="55.3" y="0.7" rx="0" ry="0" width="200.9" height="28" style="stroke: #000000; stroke-width: 1.3; stroke-dasharray: none; stroke-linecap: round; stroke-linejoin: round; stroke-miterlimit: 10; fill: #FFFFFF; fill-rule: nonzero; opacity: 1;" transform=" matrix(1 0 0 1 0 0) "/>
</g>
</svg>