<?xml version="1.0" encoding="UTF-8" standalone="no" ?>
<!DOCTYPE svg PUBLIC "-//W3C//DTD SVG 1.1//EN" "http://www.w3.org/Graphics/SVG/1.1/DTD/svg11.dtd">
<svg xmlns="http://www.w3.org/2000/svg" xmlns:xlink="http://www.w3.org/1999/xlink" version="1.1" width="312.4" height="67.9" viewBox="0 0 312.4 67.9" xml:space="preserve">
<desc>Created with Fabric.js 1.6.0-rc.1</desc>
<defs></defs>
<g style="stroke: none; stroke-width: 1; stroke-dasharray: none; stroke-linecap: butt; stroke-linejoin: miter; stroke-miterlimit: 10; fill: none; fill-rule: nonzero; opacity: 1;" transform="translate(-0.5 -0.5)" >
	<path d="M 52 4.9 V 18 c -12.2 -1.5 -20.4 -3.5 -20.4 -6.5 c 1.4 -3.8 6 -3.3 10.5 -3.9 C 45 7.1 51.6 7.8 52 4.9 z" style="stroke: none; stroke-width: 1; stroke-dasharray: none; stroke-linecap: butt; stroke-linejoin: miter; stroke-miterlimit: 10; fill: #FFFFFF; fill-rule: nonzero; opacity: 1;" transform=" matrix(1 0 0 1 0 0) " stroke-linecap="round" />
	<path d="M 270.4 7.5 c 4.5 0.7 9 0.1 10.5 3.9 c 0 2.9 -8.2 5 -20.4 6.5 V 4.8 C 260.9 7.8 267.4 7.1 270.4 7.5 z" style="stroke: none; stroke-width: 1; stroke-dasharray: none; stroke-linecap: butt; stroke-linejoin: miter; stroke-miterlimit: 10; fill: #FFFFFF; fill-rule: nonzero; opacity: 1;" transform=" matrix(1 0 0 1 0 0) " stroke-linecap="round" />
	<path d="M 260.5 17.9 c 12.2 -1.5 20.4 -3.5 20.4 -6.5 v 40.9 v 0 l 0 5.4 c 0 11.5 -124.6 9.2 -124.6 9.2 S 31.6 69.4 31.6 57.9 l 0 -5.4 v -0.1 V 11.5 c 0 3 8.2 5 20.4 6.5 c 35.3 4.2 104.2 3.2 104.2 3.2 S 225.1 22.1 260.5 17.9 z" style="stroke: none; stroke-width: 1; stroke-dasharray: none; stroke-linecap: butt; stroke-linejoin: miter; stroke-miterlimit: 10; fill: #FFFFFF; fill-rule: nonzero; opacity: 1;" transform=" matrix(1 0 0 1 0 0) " stroke-linecap="round" />
	<path d="M 260.5 4.8 c 0 -0.2 0 -0.4 0 -0.6 c 0.2 -1.5 1 -1.9 3.7 -2.5 c 8 -1.6 40.7 -0.8 47.6 -0.8 l -16 27.9 L 309 52.4 h -28.1 v 0 V 11.4 c -1.4 -3.8 -5.9 -3.3 -10.5 -3.9 C 267.4 7.1 260.9 7.8 260.5 4.8 z" style="stroke: none; stroke-width: 1; stroke-dasharray: none; stroke-linecap: butt; stroke-linejoin: miter; stroke-miterlimit: 10; fill: #FFFFFF; fill-rule: nonzero; opacity: 1;" transform=" matrix(1 0 0 1 0 0) " stroke-linecap="round" />
	<path d="M 52 4.9 c -0.4 3 -7 2.2 -9.9 2.7 c -4.5 0.7 -9 0.1 -10.5 3.9 v 40.9 v 0.1 H 3.5 l 13.2 -23.6 L 0.7 1 c 6.9 0 39.6 -0.8 47.6 0.8 C 51 2.3 51.8 2.7 52 4.2 C 52 4.5 52 4.7 52 4.9 z" style="stroke: none; stroke-width: 1; stroke-dasharray: none; stroke-linecap: butt; stroke-linejoin: miter; stroke-miterlimit: 10; fill: #FFFFFF; fill-rule: nonzero; opacity: 1;" transform=" matrix(1 0 0 1 0 0) " stroke-linecap="round" />
	<polyline points="31.6,52.4 31.6,11.5 31.6,11.4 " style="stroke: #000000; stroke-width: 1.39; stroke-dasharray: none; stroke-linecap: round; stroke-linejoin: round; stroke-miterlimit: 3.86; fill: none; fill-rule: nonzero; opacity: 1;" transform="  matrix(1 0 0 1 0 0) "/>
	<polyline points="0.7,1 16.7,28.9 3.5,52.4 31.6,52.4 " style="stroke: #000000; stroke-width: 1.39; stroke-dasharray: none; stroke-linecap: round; stroke-linejoin: round; stroke-miterlimit: 3.86; fill: none; fill-rule: nonzero; opacity: 1;" transform="  matrix(1 0 0 1 0 0) "/>
	<polyline points="52,4.4 52,4.9 52,18 52,18 " style="stroke: #000000; stroke-width: 1.39; stroke-dasharray: none; stroke-linecap: round; stroke-linejoin: round; stroke-miterlimit: 3.86; fill: none; fill-rule: nonzero; opacity: 1;" transform="  matrix(1 0 0 1 0 0) "/>
	<polyline points="280.9,52.3 280.9,11.4 280.9,11.3 " style="stroke: #000000; stroke-width: 1.39; stroke-dasharray: none; stroke-linecap: round; stroke-linejoin: round; stroke-miterlimit: 3.86; fill: none; fill-rule: nonzero; opacity: 1;" transform="  matrix(1 0 0 1 0 0) "/>
	<polyline points="311.7,0.9 295.8,28.8 309,52.4 280.9,52.4 " style="stroke: #000000; stroke-width: 1.39; stroke-dasharray: none; stroke-linecap: round; stroke-linejoin: round; stroke-miterlimit: 3.86; fill: none; fill-rule: nonzero; opacity: 1;" transform="  matrix(1 0 0 1 0 0) "/>
	<polyline points="260.5,4.3 260.5,4.8 260.5,17.9 260.5,17.9 " style="stroke: #000000; stroke-width: 1.39; stroke-dasharray: none; stroke-linecap: round; stroke-linejoin: round; stroke-miterlimit: 3.86; fill: none; fill-rule: nonzero; opacity: 1;" transform="  matrix(1 0 0 1 0 0) "/>
	<path d="M 0.7 1 c 6.9 0 39.6 -0.8 47.6 0.8 C 51 2.3 51.8 2.7 52 4.2 c 0 0.2 0 0.4 0 0.6 c -0.4 3 -7 2.2 -9.9 2.7 c -4.5 0.7 -9 0.1 -10.5 3.9 c 0 3 8.2 5 20.4 6.5 c 35.3 4.2 104.2 3.2 104.2 3.2 s 68.9 1 104.2 -3.3 c 12.2 -1.5 20.4 -3.5 20.4 -6.5 c -1.4 -3.8 -5.9 -3.3 -10.5 -3.9 c -3 -0.4 -9.5 0.3 -9.9 -2.7 c 0 -0.2 0 -0.4 0 -0.6 c 0.2 -1.5 1 -1.9 3.7 -2.5 c 8 -1.6 40.7 -0.8 47.6 -0.8" style="stroke: #000000; stroke-width: 1.39; stroke-dasharray: none; stroke-linecap: round; stroke-linejoin: round; stroke-miterlimit: 3.86; fill: none; fill-rule: nonzero; opacity: 1;" transform=" matrix(1 0 0 1 0 0) " stroke-linecap="round" />
	<path d="M 31.6 52.4 L 31.6 52.4 l 0 5.5 c 0 11.5 124.6 9.1 124.6 9.1 s 124.6 2.3 124.6 -9.2 l 0 -5.4 v 0" style="stroke: #000000; stroke-width: 1.39; stroke-dasharray: none; stroke-linecap: round; stroke-linejoin: round; stroke-miterlimit: 3.86; fill: none; fill-rule: nonzero; opacity: 1;" transform=" matrix(1 0 0 1 0 0) " stroke-linecap="round" />
</g>
</svg>