<?xml version="1.0" encoding="utf-8"?>
<!-- Generator: Adobe Illustrator 18.0.0, SVG Export Plug-In . SVG Version: 6.00 Build 0)  -->
<!DOCTYPE svg PUBLIC "-//W3C//DTD SVG 1.1//EN" "http://www.w3.org/Graphics/SVG/1.1/DTD/svg11.dtd">
<svg version="1.1" id="Layer_1" xmlns="http://www.w3.org/2000/svg" xmlns:xlink="http://www.w3.org/1999/xlink" x="0px" y="0px"
	 viewBox="0 0 109.9 87.7" enable-background="new 0 0 109.9 87.7" xml:space="preserve">
<g>
	<path fill="#2B2727" d="M0,70.8c4,0,7.6,0,11.6,0c0-17.9,0-35.4,0-53.5c-3.8,0-7.5,0-11.4,0C6.5,11.3,12.3,5.6,18.1,0
		c5.1,5.1,10.8,10.8,17.1,17.1c-4.2,0-8,0-12.1,0c0,18.1,0,35.5,0,53.5c3.8,0,7.6,0,10.8,0c-5.8,5.7-11.6,11.5-17.3,17
		C12,82.9,6.3,77.2,0,70.8z"/>
	<path fill="#2B2727" d="M107.8,7.1c0,3.3,0,6.4,0,9.8c-21.2,0-42.2,0-63.4,0c0-3.3,0-6.4,0-9.8C65.5,7.1,86.3,7.1,107.8,7.1z"/>
	<path fill="#2B2727" d="M107.7,49c-21.1,0-42,0-63.3,0c0-3.2,0-6.3,0-9.8c21,0,41.9,0,63.3,0C107.7,42.3,107.7,45.3,107.7,49z"/>
	<path fill="#2B2727" d="M44.4,81c0-3.4,0-6.5,0-9.9c21.1,0,42,0,63.3,0c0,3.1,0,6.3,0,9.9C86.6,81,65.6,81,44.4,81z"/>
</g>
</svg>
