<?xml version="1.0" encoding="utf-8"?>
<!-- Generator: Adobe Illustrator 18.0.0, SVG Export Plug-In . SVG Version: 6.00 Build 0)  -->
<!DOCTYPE svg PUBLIC "-//W3C//DTD SVG 1.1//EN" "http://www.w3.org/Graphics/SVG/1.1/DTD/svg11.dtd">
<svg version="1.1" id="Layer_1" xmlns="http://www.w3.org/2000/svg" xmlns:xlink="http://www.w3.org/1999/xlink" x="0px" y="0px"
	 viewBox="0 0 216 216" enable-background="new 0 0 216 216" xml:space="preserve">
<path fill="#393434" d="M0.1,88.3c0-45.5,35.5-84.7,80.9-88c37-2.7,65.2,13.4,84.5,44.9c1.6,2.6,3.5,4.3,6,5.9
	c22.5,13.7,37.3,33.2,42.4,59.1c6.1,31-2.8,57.9-25.1,80c-18,17.9-40,26.6-65.5,25.5c-23.1-1-42.6-10.4-58.9-26.7
	c-5.9-5.9-10.7-12.6-14.9-19.8c-0.6-1-1.6-1.9-2.6-2.5C19.4,150.9,3.8,127.3,0.1,95.8C-0.1,93.3,0.1,90.8,0.1,88.3z M66.1,171.2
	c14.5,20,42.7,32.7,72.8,26.8c31-6.1,54.3-30.7,58.1-63.2c3.2-27.6-9.2-53.6-27.7-66.7c6.6,30.8-0.6,57.8-22.7,80.1
	C124.3,170.5,97.1,177.8,66.1,171.2z M68.5,78c22.2,22.2,44.3,44.3,66.6,66.6c2.5-2.5,5.1-5,7.6-7.4C120.3,114.8,98.2,92.7,76,70.5
	C73.5,73,70.9,75.6,68.5,78z M149.9,127c1.5-3,2.9-6.1,4.5-9.1c0.6-1.1,0.4-1.8-0.5-2.7C135.1,96.4,116.4,77.7,97.6,59
	c-0.4-0.4-1.1-0.9-1.4-0.8c-3.5,1.5-6.9,3.2-10.2,4.8C107.5,84.5,128.6,105.6,149.9,127z M61.1,87.9c-1.4,3-2.7,5.9-4.2,8.7
	c-0.8,1.5-0.6,2.4,0.7,3.6c17.8,17.7,35.6,35.5,53.3,53.3c3.7,3.7,3.7,3.7,8.4,1.4c2-1,3.9-2.1,5.8-3.1
	C103.6,130.4,82.5,109.3,61.1,87.9z M159,103.2c0.4-4.1,0.9-8.1,1-12.2c0-1.2-0.5-2.7-1.3-3.5c-11-11.1-22.1-22.2-33.2-33.2
	c-0.7-0.7-2-1.3-3.1-1.3c-3,0-6,0.2-8.9,0.5c-1.3,0.1-2.5,0.5-3.3,0.7C126.4,70.6,142.6,86.8,159,103.2z M52,111.3
	c-0.3,4.6-0.6,8.7-1,12.8c-0.1,1.5,0.4,2.5,1.4,3.5c9.9,9.9,20,19.6,29.6,29.8c3.5,3.7,7,5.5,11.9,4.4c0.1,0,0.1,0,0.2,0
	c2.4-0.3,4.7-0.7,7.3-1C84.9,144.2,68.8,128.1,52,111.3z M143.7,55.5c4.5,4.5,9.1,9.2,13.6,13.7c-1.4-8.8-2.8-10.4-11.4-13.1
	C145.1,55.9,144.3,55.7,143.7,55.5z M67.9,159.9c-5.1-5.1-9.7-9.8-14.8-14.8c1.3,3.6,2.5,6.9,3.8,10.1c0.1,0.4,0.5,0.8,0.9,1
	C61,157.3,64.2,158.5,67.9,159.9z"/>
</svg>
