<?xml version="1.0" encoding="utf-8"?>
<!-- Generator: Adobe Illustrator 18.0.0, SVG Export Plug-In . SVG Version: 6.00 Build 0)  -->
<!DOCTYPE svg PUBLIC "-//W3C//DTD SVG 1.1//EN" "http://www.w3.org/Graphics/SVG/1.1/DTD/svg11.dtd">
<svg version="1.1" id="Layer_1" xmlns="http://www.w3.org/2000/svg" xmlns:xlink="http://www.w3.org/1999/xlink" x="0px" y="0px"
	 viewBox="24 0 167 181" enable-background="new 24 0 167 181" xml:space="preserve">
<path fill="#FFFFFF" d="M56.2,110.6c-1-3.6-1.7-7.4-2-11.3H30.9c0.3,6.7,1.5,13.1,3.4,19.2L56.2,110.6z"/>
<path fill="#FFFFFF" d="M55.7,152.4l15-17.9c-5-4.8-9.1-10.6-12-17l-21.9,8C41.1,135.8,47.6,144.9,55.7,152.4z"/>
<path fill="#FFFFFF" d="M104.3,149.5c-10.5-0.7-20.1-4.4-28.1-10.3l-15,17.9c12.1,9.2,26.9,15,43.1,15.7V149.5z"/>
<path fill="#FFFFFF" d="M108,18.6V0L55.6,30.3L108,60.5V41.9c29.7,0,53.9,24.2,53.9,53.9c0,28.5-22.2,51.8-50.2,53.7v23.3
	c40.9-1.9,73.5-35.7,73.5-77C185.1,53.2,150.5,18.6,108,18.6z"/>
<text transform="matrix(1 0 0 1 30.9044 198.7207)" font-family="'HelveticaNeue-Bold'" font-size="8.64">Created by Kyle Levi Fox</text>
<text transform="matrix(1 0 0 1 30.9044 207.3595)" font-family="'HelveticaNeue-Bold'" font-size="8.64">from the Noun Project</text>
</svg>
