<?xml version="1.0" encoding="utf-8"?>
<!-- Generator: Adobe Illustrator 18.0.0, SVG Export Plug-In . SVG Version: 6.00 Build 0)  -->
<!DOCTYPE svg PUBLIC "-//W3C//DTD SVG 1.1//EN" "http://www.w3.org/Graphics/SVG/1.1/DTD/svg11.dtd">
<svg version="1.1" id="Layer_1" xmlns="http://www.w3.org/2000/svg" xmlns:xlink="http://www.w3.org/1999/xlink" x="0px" y="0px"
	 width="203.2px" height="66.9px" viewBox="0 0 203.2 66.9" enable-background="new 0 0 203.2 66.9" xml:space="preserve">
<g>
	<path d="M195.5,0c-0.3-0.2-0.6,0.3-0.4,0.5c6.7,5.3,7.1,14.2,3.2,21.3c-3.8,7-10.7,11.8-17.8,15.2c-14.8,7.2-32.3,7.5-48.2,4.3
		C97.8,34.4,68,12.6,32.8,8.3c-8.3-1-17.9-1.6-25.4,2.9c-5.3,3.2-8.7,9.5-6.9,15.7c0.1,0.2,0.4,0.1,0.3-0.1
		c-1.1-4.7,0.8-9.2,4.2-12.3c3.7-3.4,8.5-4.4,13.4-4.6c9-0.4,18.2,1.7,26.8,4.1c17.7,4.9,34.3,13,51.3,20
		c28.7,11.9,66.4,22.3,94.1,1.9c6.3-4.6,11.6-10.9,12.5-18.9C203.8,10.6,201.1,3.5,195.5,0z"/>
	<path d="M190.5,53c-21.9,12.5-47.6,11.9-71.2,4.7c-15.2-4.6-29.2-12.4-43.6-19c4.2-2.3,8.4-4.8,12.5-7.3
		c12.3-7.4,24.7-14.2,38-19.5c13-5.1,26.4-8.9,40.1-11.5c0.2,0,0.1-0.3-0.1-0.3c-22,3.6-43.5,11-63.3,21.4
		c-9.6,5.1-19.1,11.2-28.9,16.5C67.6,35,61,32.3,54.2,30.3c-8.7-2.6-21-5.8-29,0.3c-5.9,4.4-7.6,14.1-0.5,18.2
		c4.1,2.4,9.4,2.4,13.9,2.2c5.8-0.3,11.5-1.4,17-3.2c6.3-2,12.2-4.8,18-7.8c16.2,7.7,31.5,17.5,48.9,22.6c23.1,6.8,49,6.7,69.5-6.9
		C193.7,54.5,192.2,52,190.5,53z M38,49.1c-5.2,0.2-13.5,0.1-15.7-5.8c-2.1-5.6,2.5-11.4,7.5-13.2c5.5-2,11.7-1.1,17.2,0.1
		c5.3,1.1,10.5,2.8,15.5,4.7c3.2,1.2,6.3,2.6,9.4,4C61.3,44.5,50.2,48.7,38,49.1z"/>
</g>
</svg>
