<?xml version="1.0" encoding="utf-8"?>
<!-- Generator: Adobe Illustrator 18.0.0, SVG Export Plug-In . SVG Version: 6.00 Build 0)  -->
<!DOCTYPE svg PUBLIC "-//W3C//DTD SVG 1.1//EN" "http://www.w3.org/Graphics/SVG/1.1/DTD/svg11.dtd">
<svg version="1.1" id="Layer_1" xmlns="http://www.w3.org/2000/svg" xmlns:xlink="http://www.w3.org/1999/xlink" x="0px" y="0px"
	 width="371.4px" height="72.4px" viewBox="0 0 371.4 72.4" enable-background="new 0 0 371.4 72.4" xml:space="preserve">
<g>
	<path d="M371.1,26.1c-1.5-10-9.3-18.1-18.3-22c-10.4-4.6-22.5-4.7-33.6-3.2c-9.4,1.3-21.1,6.1-20.6,17.5c0.3,6.9,5.1,12.7,11,16.5
		c-1.3,2.3-2.7,4.6-4.1,6.7c-0.7,1-1.4,2-2.2,3c-2.9-1.4-5.9-2.7-9-3.8c-5-1.8-11.4-3.5-16.6-1.6c-4,1.4-6.3,5.2-4.9,9.4
		c1.6,4.6,6.3,7.1,10.8,7.7c8.2,1,14.8-3.4,20-9.2c1.5,0.7,3.1,1.5,4.6,2.2c9.6,4.4,20.6,8.2,30.8,3.7c4.2-1.9,7.6-4.9,9.4-9.1
		c0.6-1.4-1.4-2.6-2-1.2c-6.1,13.5-23.2,10.9-34.2,6.2c-2.4-1-4.8-2.2-7.2-3.3c1.6-2,3-4.1,4.3-6.1c0.7-1.1,1.3-2.3,2-3.4
		c2.3,1.2,4.6,2.2,6.9,2.8c8.8,2.4,20.7-0.9,22.5-11.1c1.6-8.7-7-16.3-15.2-12.3c-4.7,2.2-8,6.8-10.7,11c-1.5,2.3-2.8,4.6-4.1,7
		c-5.4-3.4-10.6-9.4-10.2-16.2c0.5-7.5,7.6-12,14.2-13.5c6.5-1.5,13.8-1.4,20.5-0.9c6.8,0.6,13.7,2.1,19.7,5.6
		c11.3,6.8,17,19.7,10.9,31.9c-5.7,11.5-17.4,20.1-29,24.8c-12.2,5-25.8,6.1-38.7,3c-6.5-1.6-12.8-4.1-18.5-7.7
		c-5.2-3.2-9.9-7.1-15.5-9.5c-2-0.9-4.2-1.5-6.5-1.8c-3.3-6.3-10.1-11.3-16-13.8c-5.3-2.2-11.2-3.2-16.9-2.8
		c-2.8-3.1-6.5-5.6-10.4-7.1c-10.5-4.2-23.7-2.8-31.4,6.1c-3.2,3.6-5.1,8.1-5.5,12.9c0,0.4,0.6,0.4,0.7,0
		c1.6-13.8,15.5-21.3,28.5-19.1c5.7,1,11.3,3.5,15.4,7.6c-3.3,0.6-6.6,1.6-9.6,3.3c-4.4,2.4-8.5,6.4-9.6,11.4
		c-1.1,4.8,0.9,9.5,4.8,12.5c8.6,6.4,20.3,0.3,22.5-9.6c1.1-5.2,0-10.2-2.7-14.3c3.5,0,6.9,0.5,9.9,1.5c4.8,1.5,9.3,4.2,12.8,7.8
		c1,1,2.1,2.3,3,3.8c-1.2,0.2-2.4,0.5-3.6,0.9c-4.3,1.7-7.9,5.8-7.3,10.6c0.5,4.3,4,7.6,8.4,7.2c4.5-0.4,8.1-4.3,8.8-8.7
		c0.4-2.5,0.1-4.9-0.7-7.1c2.3,0.5,4.5,1.4,6.4,2.4c5,2.6,9.4,6.3,14.3,9.1c5,2.9,10.3,5.1,15.9,6.6c11.2,3,23,3.2,34.2,0.4
		c10.8-2.8,21-8.4,29.1-16.1C366.2,47.1,372.8,37.1,371.1,26.1z M290.7,53.6c-5.7,1.6-14.6,0.4-16.2-6.5c-1.9-8.5,11.2-6.7,15.6-5.5
		c4.1,1.1,7.9,2.7,11.7,4.5C298.8,49.5,295.2,52.4,290.7,53.6z M320.2,22c4.4-5,12.4-8.7,16.7-1.5c3.5,5.9-0.2,12.5-5.8,15.2
		c-6,2.9-13.2,1.5-18.9-1.6C314.6,29.9,317,25.7,320.2,22z M226,52c-2.6,5.1-8.9,8.7-14.5,6.2c-5.9-2.6-7.2-9.2-3.4-14.2
		c3.8-5,10-7.5,16.3-8C227.4,40.7,228.6,46.8,226,52z M254.2,61.9c-2,2.3-5.6,3.3-7.7,0.6c-1.8-2.4-1.1-6.2,1-8.2
		c2-1.9,4.4-2.7,6.9-2.8C256.2,55,256.8,58.9,254.2,61.9z"/>
	<path d="M12.8,54.3c8.1,7.7,18.3,13.3,29.1,16.1C53.1,73.3,65,73.1,76.1,70c5.5-1.5,10.9-3.7,15.9-6.6c4.9-2.8,9.3-6.5,14.3-9.1
		c1.9-1,4.1-1.9,6.4-2.4c-0.8,2.3-1,4.7-0.7,7.1c0.7,4.3,4.3,8.3,8.8,8.7c4.4,0.4,7.9-2.9,8.4-7.2c0.6-4.9-3-8.9-7.3-10.6
		c-1.2-0.5-2.4-0.8-3.6-0.9c1-1.4,2-2.7,3-3.8c3.5-3.6,8-6.3,12.8-7.8c3.1-1,6.5-1.5,9.9-1.5c-2.6,4.2-3.8,9.1-2.7,14.3
		c2.2,9.9,13.8,16.1,22.5,9.6c3.9-2.9,5.9-7.7,4.8-12.5c-1.1-5-5.3-9-9.6-11.4c-3-1.6-6.2-2.7-9.6-3.3c4.1-4.1,9.7-6.7,15.4-7.6
		c12.9-2.2,26.9,5.3,28.5,19.1c0,0.4,0.7,0.4,0.7,0c-0.3-4.8-2.3-9.2-5.5-12.9c-7.8-8.8-20.9-10.2-31.4-6.1c-3.9,1.5-7.6,4-10.4,7.1
		c-5.7-0.5-11.6,0.5-16.9,2.8c-5.9,2.5-12.6,7.6-16,13.8c-2.2,0.3-4.4,0.9-6.5,1.8c-5.6,2.4-10.4,6.4-15.5,9.5
		c-5.7,3.5-12,6.1-18.5,7.7c-12.8,3.1-26.4,1.9-38.7-3c-11.6-4.7-23.4-13.4-29-24.8C-0.3,27.8,5.4,14.9,16.7,8.2
		c5.9-3.5,12.9-5,19.7-5.6C43,2,50.3,1.9,56.8,3.5C63.4,5,70.6,9.5,71,17c0.4,6.8-4.7,12.8-10.2,16.2c-1.3-2.3-2.7-4.7-4.1-7
		C54,22,50.6,17.4,46,15.2c-8.3-3.9-16.8,3.6-15.2,12.3C32.6,37.8,44.4,41,53.2,38.6c2.3-0.6,4.7-1.6,6.9-2.8c0.7,1.1,1.3,2.3,2,3.4
		c1.3,2.1,2.7,4.2,4.3,6.1c-2.4,1.1-4.8,2.3-7.2,3.3c-11,4.7-28.1,7.3-34.2-6.2c-0.6-1.4-2.7-0.2-2,1.2c1.9,4.2,5.3,7.3,9.4,9.1
		c10.3,4.6,21.2,0.8,30.8-3.7c1.5-0.7,3.1-1.4,4.6-2.2c5.1,5.8,11.8,10.2,20,9.2c4.6-0.6,9.3-3.1,10.8-7.7c1.5-4.2-0.8-8-4.9-9.4
		c-5.3-1.8-11.6-0.1-16.6,1.6c-3.1,1.1-6,2.4-9,3.8c-0.8-1-1.5-2-2.2-3c-1.5-2.2-2.8-4.5-4.1-6.7c5.9-3.7,10.7-9.5,11-16.5
		C73.3,7,61.6,2.1,52.2,0.8C41.1-0.6,29-0.5,18.6,4.1c-9,4-16.8,12-18.3,22C-1.4,37.1,5.2,47.1,12.8,54.3z M69.5,46.2
		c3.8-1.8,7.7-3.4,11.7-4.5c4.4-1.2,17.5-3,15.6,5.5c-1.6,6.9-10.5,8.1-16.2,6.5C76.2,52.4,72.6,49.5,69.5,46.2z M59.2,34.1
		c-5.7,3.1-12.9,4.6-18.9,1.6c-5.7-2.8-9.4-9.3-5.8-15.2c4.3-7.2,12.3-3.6,16.7,1.5C54.4,25.7,56.8,29.9,59.2,34.1z M147,36
		c6.3,0.5,12.5,3,16.3,8c3.8,5,2.4,11.6-3.4,14.2c-5.6,2.5-11.9-1.1-14.5-6.2C142.8,46.8,144,40.7,147,36z M116.9,51.5
		c2.5,0.1,5,0.9,6.9,2.8c2.1,2,2.8,5.8,1,8.2c-2.1,2.7-5.7,1.7-7.7-0.6C114.5,58.9,115.2,55,116.9,51.5z"/>
</g>
</svg>
