<?xml version="1.0" encoding="UTF-8" standalone="no"?>
<svg width="341px" height="343px" viewBox="0 0 341 343" version="1.1" xmlns="http://www.w3.org/2000/svg" xmlns:xlink="http://www.w3.org/1999/xlink" xmlns:sketch="http://www.bohemiancoding.com/sketch/ns">
    <!-- Generator: Sketch 3.3.3 (12081) - http://www.bohemiancoding.com/sketch -->
    <title>Imported Layers</title>
    <desc>Created with Sketch.</desc>
    <defs></defs>
    <g id="Page-1" stroke="none" stroke-width="1" fill="none" fill-rule="evenodd" sketch:type="MSPage">
        <path d="M339.574132,170.685328 C338.736801,165.283381 336.331599,160.621974 334.029545,155.73877 C330.918072,149.141777 330.016424,143.191999 332.187417,136.116261 C333.853584,130.685225 336.460232,125.571738 337.717442,120.011017 C338.816894,115.148416 338.997709,110.111285 338.31935,105.175964 C336.972339,95.3671335 332.175282,86.068561 324.650225,79.5721653 C316.394627,72.4455222 305.629463,68.8470522 294.795129,69.7342466 C294.16167,66.6472466 293.189638,63.5711547 291.81593,60.5350593 C287.486079,50.9662077 278.850648,42.0045752 267.705652,42.0675999 C264.255606,42.0869921 260.973026,42.5524056 257.572734,41.6749073 C254.428495,40.8628579 251.543951,39.2533031 248.784399,37.5843596 C243.999478,34.6888579 239.377168,31.3315787 233.944225,29.7365681 C217.065332,24.7806423 200.317499,33.9640734 188.991688,46.7193102 C185.332915,31.6370063 178.461947,16.5631865 165.395944,7.3894515 C153.926937,-0.661958396 137.095371,-3.07871458 124.96014,4.92785079 C118.46415,9.21232076 114.275068,15.8868826 109.501068,21.8439321 C103.674944,29.1123808 96.9908584,33.3168579 87.840894,35.2718367 C80.0937623,36.926236 72.0116983,37.4813384 64.7706057,40.9416388 C58.1447694,44.1074197 53.0601075,49.7626776 49.7411218,56.2299851 C41.8350186,71.6383208 42.8143317,92.0474268 52.8149759,106.312833 C51.9558015,106.329801 51.0978406,106.35889 50.2398798,106.412218 C38.9953744,107.104278 27.0312499,111.405717 18.9698157,119.495911 C18.8982178,119.511667 18.82662,119.524999 18.7550221,119.540755 C18.4698442,119.602568 18.3861111,119.835275 18.4395061,120.048589 C15.5586022,123.065292 13.2080079,126.58377 11.6219331,130.623413 C7.84908973,140.234685 12.217773,149.951402 11.0576449,159.801441 C9.83805415,170.165374 2.22683706,177.830151 0.455093292,187.935925 C-2.61633375,205.449529 10.2081787,223.704886 28.3855417,224.577536 C27.7059687,228.676568 27.5639865,232.872561 28.059104,237.074614 C29.3333033,247.894264 36.4421218,253.456197 45.4731609,258.260621 C49.9401396,260.636169 54.6716662,262.963236 58.1047232,266.779868 C62.2622534,271.398854 63.1226413,277.855254 66.7838406,282.790575 C73.389047,291.690395 83.0037908,294.063519 93.113652,293.107239 C91.1198335,304.731667 95.4314812,316.987554 103.945559,325.151681 C113.182898,334.00908 125.904261,337.115473 138.330737,334.947179 C146.597257,333.503671 154.383221,331.2166 162.772307,333.312172 C169.043794,334.878095 174.858997,337.780868 180.920545,339.956434 C192.574008,344.137883 204.147378,343.350073 212.682086,333.553363 C220.288449,324.820801 224.961727,310.543275 218.741207,299.987844 C225.85852,302.165833 233.495221,303.069996 240.712043,303.714787 C247.666745,304.335338 254.781631,304.180201 261.299463,301.416808 C266.216659,299.330932 270.451855,295.979713 274.240474,292.267314 C282.710866,283.968653 289.43257,273.333229 300.294816,267.852501 C306.336947,264.804285 312.2553,262.677201 317.079054,257.711579 C321.514481,253.145921 324.675709,247.559748 326.998392,241.670572 C329.913275,234.278497 331.663175,226.316777 333.050232,218.510194 C334.258901,211.698674 334.819549,204.706565 333.396086,197.882925 C333.067221,196.307307 332.635207,194.804409 332.107325,193.375444 C340.58257,191.361077 340.597132,177.287169 339.574132,170.685328 L339.574132,170.685328 Z M337.063353,170.657451 C337.308485,172.011271 337.512357,173.852321 337.571819,175.878808 C332.958004,168.67096 324.132051,163.460512 316.448022,160.460777 C305.773873,156.295084 294.020901,155.679381 282.750912,157.213791 C270.136339,158.931215 258.175855,163.467784 246.288182,167.823762 C234.260955,172.231858 221.527456,175.939409 209.961367,181.472254 C210.659143,178.122247 208.008809,174.821932 204.801467,173.97837 C204.808748,173.910497 204.801467,173.851109 204.806321,173.784448 C204.818456,173.783236 204.828164,173.792932 204.841513,173.789296 C215.561777,170.882886 226.000503,166.461459 236.410104,162.607254 C246.640104,158.818497 256.871317,155.029741 267.102531,151.242197 C284.943748,144.635508 309.742093,131.172455 327.39036,144.923967 C327.794463,145.239091 328.289581,145.051229 328.512869,144.727621 C328.511656,147.594035 329.015268,150.552561 330.299175,153.685618 C332.620645,159.352996 335.959047,164.54284 337.063353,170.657451 L337.063353,170.657451 Z M191.080161,200.458455 C192.331303,200.767519 193.628559,200.772367 194.878488,200.402702 C194.917321,200.464515 194.953727,200.52754 195.018043,200.583292 C196.52888,201.891056 197.049481,204.592635 195.329919,206.0216 C193.764474,207.320879 191.284033,206.56943 190.182154,205.001084 C191.243987,203.583027 191.452713,201.981957 191.080161,200.458455 L191.080161,200.458455 Z M194.191634,198.699823 C192.782734,199.126451 191.472129,198.99313 190.271955,198.521656 C189.399431,197.032091 188.02815,195.75584 186.480908,195.011664 C186.295239,194.921974 186.113211,194.898946 185.945745,194.923186 C186.995442,193.68572 187.314599,192.15737 187.042769,190.695681 C189.279293,192.294328 192.382271,193.524522 194.40036,190.964748 C194.475599,190.870211 194.533848,190.770826 194.596951,190.673865 C194.636997,190.689621 194.664908,190.716285 194.712236,190.728406 C199.270229,191.917391 198.076122,197.525381 194.191634,198.699823 L194.191634,198.699823 Z M183.244442,214.125126 C182.941061,215.070497 182.113438,215.858307 181.084371,215.875275 C180.062584,215.892243 179.128172,215.263208 178.600289,214.425706 C178.515342,214.291172 178.357584,213.954232 178.154926,213.731222 C178.804161,213.765158 179.46189,213.703345 180.09899,213.498515 C181.733606,212.973713 182.710492,211.783515 183.234734,210.34849 C183.391278,210.657554 183.580588,210.943589 183.7881,211.21508 C183.544182,211.262349 183.329389,211.412639 183.255364,211.692614 C183.038143,212.515572 183.519912,213.265808 183.244442,214.125126 L183.244442,214.125126 Z M167.552374,212.790699 C167.105798,213.984533 166.620389,215.086254 164.971211,215.189275 C162.294179,215.356533 161.038182,212.658589 160.766353,210.376367 C162.837837,211.21508 165.346189,210.599377 166.982019,209.061331 C167.348503,209.748543 167.855755,210.359398 168.494068,210.8236 C168.296264,211.080547 168.13972,211.367794 168.002592,211.66595 C167.694357,211.664738 167.376414,211.921685 167.451652,212.325285 C167.480777,212.480423 167.514755,212.635561 167.552374,212.790699 L167.552374,212.790699 Z M139.640129,166.449338 C140.286937,165.992409 141.062378,165.699102 141.851168,165.630017 C142.18246,167.728013 143.409332,169.719353 145.071858,171.076808 C143.67752,171.200434 142.383905,171.690088 141.489538,172.586978 C139.734784,172.163985 137.955759,171.119229 138.107449,169.006688 C138.148709,168.43583 138.346513,167.93042 138.635332,167.484398 C138.683873,167.518335 138.733627,167.551059 138.782168,167.584996 C139.507855,168.09283 140.15709,167.040801 139.640129,166.449338 L139.640129,166.449338 Z M152.121214,167.174123 C149.851926,167.706197 147.903008,169.018808 147.525602,171.21013 C147.244065,171.154377 146.9601,171.116805 146.674922,171.087717 C144.877695,169.226063 143.244293,167.162003 143.394769,164.403459 C143.582866,160.975883 146.54993,159.946883 149.280357,161.23283 C149.320403,161.252222 149.361663,161.25707 149.402922,161.267978 C149.339819,161.482505 149.290065,161.699455 149.263367,161.915194 C148.984257,164.139239 150.285154,166.147547 152.121214,167.174123 L152.121214,167.174123 Z M166.047606,154.977625 C164.153296,153.725614 161.695912,153.385038 159.276147,154.689165 C159.245809,154.704921 159.220325,154.723102 159.189987,154.74007 C159.103826,154.517059 158.993396,154.311017 158.87083,154.112247 C159.06378,152.439667 159.977563,150.882229 161.55393,150.10654 C163.514983,149.142989 164.982132,149.992611 166.655581,150.765876 C165.596175,151.853052 165.148385,153.446851 166.047606,154.977625 L166.047606,154.977625 Z M159.899898,156.354473 C164.176353,153.714706 168.807157,158.134921 167.679794,162.589073 C167.593634,162.932073 167.727122,163.198717 167.939488,163.369611 C167.18225,164.551324 166.967456,165.941505 167.029346,167.357137 C165.681122,165.799699 163.904524,164.399823 162.04662,163.98289 C159.391431,161.783084 156.542079,158.425805 159.899898,156.354473 L159.899898,156.354473 Z M189.808389,150.621646 C189.878773,150.613162 189.950371,150.598618 190.024396,150.564681 C191.173602,150.028971 192.646819,150.339247 193.37372,151.415515 C193.669819,151.853052 193.813015,152.388762 193.786317,152.914777 C193.781463,153.005678 193.769328,153.091731 193.755979,153.17536 C192.711136,153.122031 191.656584,153.38019 190.748869,154.034678 C190.486748,153.662589 190.155456,153.302621 189.781691,152.970529 C189.832659,152.895384 189.871492,152.808119 189.889695,152.707522 C190.015901,152.006978 189.977068,151.300374 189.808389,150.621646 L189.808389,150.621646 Z M202.1572,185.0683 C202.171762,185.075572 202.186325,185.081632 202.199673,185.088904 C202.414467,187.806239 199.555406,189.38307 196.963321,189.820607 C196.441506,189.509119 195.84688,189.275201 195.162453,189.167331 C195.494958,186.910561 193.957424,184.320487 192.338584,182.856374 C193.222029,182.131589 193.870051,181.086833 194.041157,179.865123 C194.308132,179.930572 194.582389,179.985112 194.861499,180.026321 C194.9962,180.160854 195.167307,180.267512 195.396663,180.294176 C197.809147,180.577787 201.088086,181.441953 201.977599,184.021119 C202.003083,184.097476 202.016431,184.168985 202.038275,184.24413 C201.824695,184.476837 201.789503,184.853773 202.1572,185.0683 L202.1572,185.0683 Z M182.803933,196.620006 C183.566026,196.552133 184.315983,196.283066 184.982207,195.809169 C185.046524,195.91825 185.108414,196.028543 185.177584,196.135201 C185.215204,196.229738 185.271026,196.319427 185.354759,196.39942 C186.249125,197.692639 187.456581,198.791936 188.821794,199.555505 C189.34725,200.526328 189.548695,201.635321 189.190705,202.840063 C188.245371,206.014328 183.507777,206.293091 183.198328,202.581904 C183.184979,202.419494 183.087898,202.294656 182.962905,202.212239 C183.449527,200.363918 183.373075,198.271982 182.803933,196.620006 L182.803933,196.620006 Z M184.790471,193.606939 C183.064841,196.072176 179.424271,195.006815 179.150015,192.070105 C179.123317,191.787706 178.966773,191.610752 178.775036,191.529547 C178.832072,189.535784 178.34909,187.384459 177.739901,185.676731 C179.26894,186.992978 181.067382,187.981982 182.824563,187.820784 C184.921531,188.923717 186.321937,191.420466 184.790471,193.606939 L184.790471,193.606939 Z M158.818648,191.239876 C156.743524,192.405833 154.309196,193.506342 152.019278,192.226455 C149.609221,190.879907 149.569175,187.209929 152.686716,186.784512 C152.923353,186.751787 153.041065,186.616042 153.078684,186.451208 C155.332196,186.579681 157.914574,186.043971 159.884122,185.7543 C159.301631,186.625738 158.861122,187.579593 158.687588,188.667982 C158.551673,189.523664 158.596574,190.410858 158.818648,191.239876 L158.818648,191.239876 Z M157.704634,206.392476 C155.465684,207.016664 152.064179,207.831137 151.238983,205.065321 C150.543634,202.734618 152.695211,201.708042 154.157506,200.38937 C154.255801,200.609957 154.356524,200.830543 154.488798,201.05113 C155.210844,202.246176 156.586979,202.95278 157.960688,203.057013 C157.44494,203.9636 157.426737,205.205914 157.704634,206.392476 L157.704634,206.392476 Z M158.505559,167.776494 C158.626912,167.317141 158.882965,166.867483 159.325901,166.448126 C161.185019,164.685858 164.201837,167.166851 165.524577,168.514611 C165.841307,168.835794 169.089908,173.279038 168.16399,173.963826 C168.137293,173.96019 168.111809,173.95413 168.085111,173.950494 C168.037784,173.596586 167.79872,173.266918 167.340008,173.252374 C165.320705,173.191773 163.161848,173.172381 161.305157,172.264582 C159.971495,171.612519 158.592933,170.17507 158.437602,168.680656 C158.731275,168.47825 158.811367,168.018897 158.505559,167.776494 L158.505559,167.776494 Z M162.451937,174.310462 C160.870716,174.743151 159.353812,175.448543 157.960688,176.472695 C157.838122,176.562384 157.72041,176.670254 157.599058,176.769639 C157.565079,176.757519 157.5311,176.745398 157.488627,176.744186 C154.570104,176.608441 149.552186,176.112727 149.280357,172.26943 C149.020663,168.588543 153.868688,168.68308 156.844246,168.761861 C156.892787,169.436953 157.067535,170.103561 157.373342,170.702296 C158.431535,172.779688 160.340406,173.798992 162.451937,174.310462 L162.451937,174.310462 Z M155.951093,183.438141 C156.560282,184.113232 157.363634,184.520469 158.241011,184.732572 C155.758143,185.007699 153.11873,185.366455 151.197723,183.902342 C149.031584,182.251579 150.308211,179.615448 152.526531,178.770674 C153.642972,178.345257 154.84072,178.353741 156.032399,178.405858 C154.935374,179.936632 154.481517,181.810406 155.951093,183.438141 L155.951093,183.438141 Z M150.086136,176.51148 C150.627367,176.861752 151.197723,177.107791 151.785068,177.281109 C149.796104,177.872572 148.211243,179.125794 148.074115,181.30136 C148.035282,181.296512 147.992809,181.2953 147.953976,181.290451 C147.918784,181.263787 147.878737,181.240759 147.830196,181.226215 C145.477175,180.499006 142.644812,179.581512 142.002858,176.855692 C141.677634,175.472784 142.045332,173.840201 143.365645,173.106932 C144.613147,172.41366 146.137332,172.656063 147.507399,172.636671 C147.750104,174.202593 148.77189,175.661858 150.086136,176.51148 L150.086136,176.51148 Z M148.119015,182.610335 C148.133577,182.609123 148.144499,182.601851 148.157848,182.600639 C148.469723,184.396844 149.413844,185.4113 150.684403,185.94701 C149.070417,186.685126 148.274346,188.664345 148.565592,190.483579 C146.073015,190.91142 143.001588,189.928476 141.890001,187.545656 C140.044232,183.59449 145.564549,182.7279 148.119015,182.610335 L148.119015,182.610335 Z M149.224535,192.205851 C149.242737,192.231303 149.256086,192.259179 149.274289,192.284632 C150.695325,194.259003 152.868745,194.835921 155.047019,194.578974 C154.250947,195.651607 153.746122,196.872105 153.712143,198.15078 C153.647826,198.154416 153.581083,198.185929 153.522834,198.258649 C151.638232,200.625713 147.815634,201.076582 146.19194,198.139872 C145.508727,196.902406 145.516008,195.399508 146.290236,194.199614 C147.026844,193.059109 148.083823,192.683384 149.224535,192.205851 L149.224535,192.205851 Z M158.408478,182.657603 C154.662332,181.00078 159.676609,177.530784 161.49204,176.683586 C163.737058,175.635194 166.247837,175.185536 168.716143,175.219473 C167.865463,177.563508 165.734517,180.831098 163.09025,182.302483 C163.006517,182.320664 162.922784,182.355812 162.843905,182.432169 C162.843905,182.433381 162.842691,182.434593 162.842691,182.434593 C161.459275,183.136349 159.947225,183.337543 158.408478,182.657603 L158.408478,182.657603 Z M175.714531,165.303985 C175.733947,164.968257 175.733947,164.634953 175.703609,164.308921 C176.039755,160.641367 180.314997,158.168858 183.466517,160.998911 C184.982207,162.360003 185.434851,164.424063 184.479809,166.244508 C183.644905,167.838307 182.377987,168.256451 180.967873,168.795798 C178.90731,168.547335 176.523951,168.942451 174.399072,169.760561 C174.83594,168.935179 175.191503,168.061317 175.423285,167.129278 C175.499737,166.827487 175.564054,166.511151 175.616236,166.191179 C175.725453,166.067554 175.790983,165.899084 175.753364,165.690618 C175.730307,165.55972 175.72788,165.432459 175.714531,165.303985 L175.714531,165.303985 Z M174.015599,178.901572 C175.829816,179.735437 177.861253,180.119646 179.777406,179.949964 C180.59168,179.878455 181.398673,179.666353 182.153485,179.342745 C183.027221,179.859063 183.802663,180.443254 184.365737,181.36802 C185.203068,182.743656 185.391164,184.596826 183.811157,185.572497 C181.096506,187.246289 178.296908,184.768932 176.38925,182.748505 C176.022766,181.231063 175.061656,180.045713 174.015599,178.901572 L174.015599,178.901572 Z M173.022937,186.201533 C170.25125,186.939649 168.69794,184.113232 168.619061,181.741321 C168.582656,180.634752 168.807157,179.559695 169.143303,178.508879 C169.456392,177.924688 169.725794,177.321105 169.946656,176.699342 C170.474538,177.57684 171.107997,178.361013 171.847033,179.147611 C172.588495,179.939056 173.419759,180.696565 173.973125,181.640724 C174.888122,183.199374 175.198784,185.62219 173.022937,186.201533 L173.022937,186.201533 Z M183.941004,178.273748 C184.896047,177.494423 185.618093,176.478755 185.927542,175.29583 C187.161695,175.303102 188.273282,175.030398 189.507435,175.489752 C190.815613,175.974558 191.805848,176.991437 192.138353,178.356165 C192.782734,180.998356 189.929741,183.73872 187.47357,181.829798 C187.1532,181.581335 186.769727,181.673448 186.55372,181.898883 C186.119278,180.479614 185.14846,179.143974 183.941004,178.273748 L183.941004,178.273748 Z M187.103446,172.790596 C186.650801,172.656063 186.301307,173.079056 186.313442,173.468112 C186.229709,173.489929 186.142335,173.502049 186.061029,173.527501 C186.04768,173.374787 186.041613,173.223285 186.014915,173.066936 C185.734592,171.448897 184.874204,170.3496 183.688592,169.656328 C184.864495,168.852762 185.832887,167.618932 186.294026,166.480851 C186.618036,165.684558 186.751524,164.865236 186.719972,164.064095 C186.800065,164.148936 186.906855,164.21196 187.040342,164.234989 C188.441962,164.487088 189.639709,164.039854 191.009777,164.771911 C192.336157,165.480939 193.402844,166.809307 193.520556,168.336444 C193.779036,171.707056 189.981922,173.651126 187.103446,172.790596 L187.103446,172.790596 Z M176.491186,171.161649 C178.798093,170.549582 182.306389,170.038112 183.732278,172.448808 C185.170303,174.877685 183.856058,176.481179 181.86952,177.334437 C181.539442,177.273837 181.248196,177.412006 181.058887,177.631381 C179.554118,178.095582 177.847905,178.191331 176.675641,177.93802 C174.51557,177.471395 172.820278,176.34907 171.10557,175.101907 C171.075232,175.036459 171.041253,174.974646 171.014556,174.909197 C170.924755,174.692247 170.771851,174.557713 170.601958,174.461964 C172.387051,172.917858 174.079915,171.800381 176.491186,171.161649 L176.491186,171.161649 Z M173.266855,168.540063 C172.900371,169.443013 172.421029,170.263547 171.859168,171.021056 C170.973296,171.582218 170.212417,172.22095 169.646915,172.910586 C169.604442,172.466989 169.513428,172.005211 169.399357,171.570098 C169.429695,171.447685 169.440616,171.314363 169.404211,171.164073 C168.915161,169.100013 168.1021,166.40207 169.276791,164.410731 C169.989129,163.202353 172.031488,162.092148 173.349374,163.050851 C174.882054,164.164692 173.846919,167.107462 173.266855,168.540063 L173.266855,168.540063 Z M162.468926,184.478049 C162.727406,184.391996 162.977392,184.296247 163.211602,184.190801 C164.628997,183.548434 165.894702,182.612759 166.973524,181.49407 C166.926196,182.364296 167.00993,183.244218 167.280545,184.127777 C167.613051,185.207681 168.22952,186.162748 169.040154,186.872989 C168.406695,188.481331 167.894588,190.186635 166.655581,191.458038 C165.3741,192.773073 163.136364,193.582699 161.530873,192.342808 C158.875684,190.290868 160.720239,186.830568 162.468926,184.478049 L162.468926,184.478049 Z M163.636335,194.837133 C165.541567,194.770473 167.242926,193.490586 168.483147,191.799826 C168.564453,192.942755 168.854485,194.054172 169.529204,195.058932 C169.906609,195.622519 170.388378,196.103688 170.934463,196.481837 C170.002478,198.817388 167.696784,203.902999 165.330414,202.78431 C162.351214,201.37595 162.948268,197.430844 163.636335,194.837133 L163.636335,194.837133 Z M170.314353,193.182734 C169.794965,192.119798 169.662691,190.933236 169.682108,189.749098 C169.991556,189.071582 170.229406,188.380734 170.381097,187.715338 C171.012129,187.984406 171.700196,188.140755 172.446513,188.115303 C174.038656,188.060762 175.367463,187.230533 176.04825,185.970038 C177.114937,188.952805 178.312684,193.261515 174.98035,195.152257 C174.196414,195.598278 173.408837,195.631003 172.695285,195.399508 C172.569079,195.308607 172.421029,195.251642 172.264485,195.227402 C171.436862,194.818953 170.741513,194.055384 170.314353,193.182734 L170.314353,193.182734 Z M174.376015,197.27813 C176.479051,196.893921 177.679225,195.72554 178.281132,194.200826 C178.801734,195.290427 179.805317,196.064904 180.958164,196.420024 C180.892634,197.858685 181.381684,199.275529 181.259118,200.737218 C181.115922,202.461914 180.061371,204.732017 178.02872,204.815646 C174.327474,204.967148 174.235246,200.1603 174.376015,197.27813 L174.376015,197.27813 Z M184.847506,187.049943 C185.138752,186.842688 185.425143,186.599073 185.704253,186.299706 C186.62289,185.311914 186.906855,184.091416 186.758805,182.869706 C187.93835,183.915674 189.366666,184.116868 190.650574,183.747204 C190.710036,183.824773 190.780421,183.90113 190.871435,183.970215 C192.373777,185.121628 194.57268,188.271653 192.933211,190.116338 C191.237919,192.024049 188.308474,190.302989 186.579204,189.276413 C186.184809,188.432851 185.59989,187.659586 184.847506,187.049943 L184.847506,187.049943 Z M195.396663,178.546451 C195.107844,178.513727 194.897905,178.608264 194.759563,178.764614 C194.521713,178.758554 194.292357,178.73795 194.05936,178.717345 C193.897962,176.976893 192.890737,175.36249 191.41752,174.415907 C191.287673,174.332278 191.143264,174.255921 191.001282,174.178353 C192.854332,173.579618 194.453755,172.165197 195.104204,170.332632 C195.194004,170.372628 195.29594,170.394444 195.406371,170.394444 C197.132001,170.399292 198.911026,170.116893 200.557777,170.793197 C202.526111,171.602823 203.613428,173.493565 202.302823,175.418243 C200.969161,177.374434 198.679243,178.397374 196.340784,178.678561 C196.020414,178.626444 195.703684,178.580388 195.396663,178.546451 L195.396663,178.546451 Z M202.731196,169.989632 C200.66578,168.740045 197.530036,168.47825 195.413652,168.77883 C195.414866,168.752165 195.422147,168.727925 195.42336,168.700049 C195.453698,167.520759 195.083574,166.403282 194.459823,165.439731 C196.08109,164.664042 197.457225,163.428999 198.267858,161.929738 C198.304264,161.928526 198.337029,161.938222 198.375862,161.932162 C203.016374,161.225558 206.127848,166.759614 202.731196,169.989632 L202.731196,169.989632 Z M193.589727,164.354978 C193.228097,163.992586 192.826421,163.667766 192.391979,163.393851 C191.487905,162.822992 190.142108,162.30425 188.904314,162.289706 C190.864154,160.670455 192.106801,158.13977 191.474556,155.647868 C194.05572,153.806819 197.153844,155.819974 197.232723,158.893642 C197.29704,161.357667 195.605389,163.210837 193.589727,164.354978 L193.589727,164.354978 Z M186.387467,162.358791 C185.983364,161.187985 185.223698,160.128685 184.174001,159.338451 C183.672816,158.960303 183.151001,158.683964 182.623118,158.480345 C183.750481,157.207731 184.283218,155.384861 184.053862,153.709858 C185.011332,153.38625 185.787987,153.01901 186.848606,153.305045 C187.958979,153.604413 188.972271,154.406766 189.468602,155.447886 C190.748869,158.134921 188.498997,160.927402 186.387467,162.358791 L186.387467,162.358791 Z M183.524766,152.045762 C183.225026,151.477328 182.811214,150.964646 182.260275,150.550137 C181.388965,149.896861 180.325919,149.629006 179.267727,149.671427 C179.261659,149.644762 179.251951,149.618098 179.245883,149.591434 C180.618378,147.809773 183.095179,146.85713 185.235834,147.825529 C187.065826,148.652123 187.730837,150.127144 188.142221,151.87002 C186.573136,151.093119 184.768627,150.913741 183.524766,152.045762 L183.524766,152.045762 Z M181.159609,151.97789 C183.217745,153.640773 182.220229,156.882911 180.206994,158.05008 C180.176656,158.067049 180.154812,158.087653 180.128115,158.105833 C177.775093,158.276727 175.642933,159.859618 174.788613,162.086088 C174.509503,161.793992 174.157581,161.547953 173.719499,161.361303 C173.669745,161.339487 173.61635,161.328579 173.565382,161.309186 C174.371161,159.601459 174.894189,157.447709 174.816524,155.42607 C175.068937,155.040649 175.315282,154.651593 175.53857,154.245568 C175.848019,153.683194 176.243627,153.077186 176.422015,152.448151 C177.618549,151.219169 179.759204,150.84708 181.159609,151.97789 L181.159609,151.97789 Z M174.543481,153.474727 C174.538627,153.502603 174.545908,153.525632 174.544695,153.552296 C174.089624,151.853052 173.054488,150.414391 171.166246,149.676275 C170.474538,149.405996 169.757346,149.370847 169.074132,149.490837 C170.291296,148.200042 171.942901,147.437685 173.782602,147.661907 C175.598033,147.883706 176.384396,148.986639 177.537243,150.028971 C176.044609,150.602254 174.817737,151.817904 174.543481,153.474727 L174.543481,153.474727 Z M169.427268,151.00949 C171.094648,150.917377 172.423456,152.377854 172.927068,153.874692 C173.769253,156.379925 172.639463,158.70578 171.950182,161.07042 C171.053389,161.115264 170.154168,161.41948 169.394503,161.91277 C169.551047,160.304427 169.149371,158.749413 168.37393,157.439225 C168.316894,156.80413 168.052346,156.143582 167.829058,155.59454 C167.594848,155.016409 167.287826,154.454035 166.956535,153.912264 C166.653154,152.477239 167.956478,151.089483 169.427268,151.00949 L169.427268,151.00949 Z M159.816164,164.011978 C158.262855,164.433759 157.304172,165.707586 156.968026,167.169275 C156.875798,167.146247 156.776289,167.13049 156.681634,167.111098 C156.671926,166.883239 156.52873,166.678409 156.241125,166.71477 C153.644186,167.042013 150.537567,164.946441 151.105495,162.044879 C151.652794,159.249974 154.360164,158.761533 156.725321,158.905762 C156.937688,160.674091 158.215527,162.528473 159.816164,164.011978 L159.816164,164.011978 Z M156.801773,157.511946 C154.456033,156.110858 151.363976,157.749501 149.972065,160.014755 C149.92231,159.949307 149.862848,159.899614 149.809453,159.839013 C149.104396,157.669508 149.807026,154.927932 151.970737,153.848027 C154.259442,152.70631 156.146471,153.940141 157.737399,155.433342 C157.738613,155.435766 157.738613,155.439402 157.738613,155.443038 C157.762883,155.549695 157.819919,155.626052 157.887876,155.689077 C157.312666,156.250239 156.961958,156.865943 156.801773,157.511946 L156.801773,157.511946 Z M144.636204,181.46377 C142.90572,181.838282 141.29052,182.6673 140.458043,183.993243 C139.455673,183.725388 138.477574,183.596914 137.702132,182.817589 C136.724033,181.834646 136.249545,180.362049 136.550499,179.000957 C137.007997,176.933261 138.664456,175.377035 140.460471,174.350459 C140.313634,174.85708 140.238396,175.419455 140.269947,176.053338 C140.398581,178.705225 142.303812,180.595967 144.636204,181.46377 L144.636204,181.46377 Z M140.061221,187.394155 C140.846371,190.276324 143.588933,191.690745 146.329068,191.685897 C145.085207,192.599755 144.301271,194.208098 144.14594,195.838257 C144.020947,195.750992 143.871684,195.694027 143.681161,195.714632 C141.26625,195.974003 138.598926,195.031056 137.743392,192.527035 C136.98494,190.307837 138.029784,187.685038 139.885261,186.317886 C139.903463,186.658462 139.958072,187.014794 140.061221,187.394155 L140.061221,187.394155 Z M143.882606,197.481748 C143.925079,197.429632 143.951777,197.371455 143.968766,197.310854 C144.041577,197.28419 144.113175,197.257526 144.170211,197.213893 C144.257584,197.841717 144.446894,198.444088 144.757556,198.977374 C146.008698,201.119003 148.383563,201.969837 150.486599,201.514119 C149.859207,202.413434 149.473307,203.450918 149.468453,204.47507 C149.298559,204.317508 149.063136,204.235091 148.779172,204.329628 C146.905492,204.952603 144.746634,204.821706 143.474862,203.09701 C142.243136,201.42443 142.618115,199.006462 143.882606,197.481748 L143.882606,197.481748 Z M149.638346,206.032508 C149.707517,205.85313 149.654122,205.700416 149.549759,205.586487 C149.566748,205.565883 149.594659,205.551338 149.609221,205.530734 C149.651695,205.679812 149.696595,205.830102 149.760912,205.976755 C151.231702,209.366759 155.248463,208.720755 158.046848,207.484501 C158.220382,207.91719 158.430321,208.322003 158.664531,208.677123 C157.545663,210.513324 155.69868,211.221141 153.551958,211.023582 C151.046033,210.792088 148.593503,208.75348 149.638346,206.032508 L149.638346,206.032508 Z M155.537282,198.131388 C155.470538,196.559406 156.235058,195.19589 157.253204,194.042052 C158.080826,193.739049 158.87083,193.340296 159.57346,192.867611 C159.885335,193.297876 160.268809,193.680872 160.74451,193.983876 C161.254189,194.311119 161.759015,194.529282 162.255346,194.667451 C161.267538,196.049148 160.979933,197.931406 161.265111,199.728823 C160.91683,199.608833 160.477535,199.690038 160.217841,200.043946 C158.476435,202.41707 155.645285,200.706918 155.537282,198.131388 L155.537282,198.131388 Z M160.339193,202.569784 C160.345261,202.552815 160.344047,202.535847 160.348901,202.518879 C160.874357,202.191635 161.316079,201.71895 161.592762,201.074158 C162.123072,202.658261 163.120588,204.046017 164.507645,204.767165 C165.175083,205.115013 165.82189,205.218035 166.440787,205.141678 C166.239342,205.986451 166.257545,206.883342 166.465058,207.7366 C164.764912,208.935282 162.36699,209.572801 160.651068,208.101416 C159.874414,207.433596 159.477592,206.392476 159.448467,205.387717 C159.414488,204.285996 160.010328,203.557575 160.339193,202.569784 L160.339193,202.569784 Z M168.128798,207.519649 C168.187047,207.324515 168.11909,207.139077 167.986816,207.019088 C167.79872,206.182798 167.826631,205.285907 168.09846,204.490826 C170.294937,203.030349 171.978093,199.532476 172.738972,197.252678 C172.843335,197.273282 172.947698,197.297522 173.053275,197.310854 C172.627328,199.429455 172.44894,201.685013 173.452524,203.653324 C173.871189,204.473858 174.490086,205.198642 175.230335,205.740413 C175.229122,205.747685 175.225481,205.754957 175.224268,205.763441 C174.93909,208.23595 172.379769,211.013886 169.705164,209.503717 C168.935791,209.069815 168.417616,208.343819 168.128798,207.519649 L168.128798,207.519649 Z M169.867777,211.498692 C171.099503,211.8526 172.456221,211.65383 173.638193,211.074487 C174.219471,212.110759 175.163592,212.877964 176.250908,213.322773 C176.19994,213.403978 176.150186,213.490031 176.123488,213.60396 C175.680552,215.413497 173.856627,216.514006 172.020567,216.014656 C170.74394,215.66802 169.798606,214.731133 169.160293,213.61608 C169.434549,212.939777 169.659051,212.216204 169.867777,211.498692 L169.867777,211.498692 Z M174.706093,210.407879 C175.940246,209.455236 176.790926,208.05536 176.75088,206.507618 C177.242357,206.650635 177.758104,206.714872 178.292054,206.674876 C180.171801,206.53307 181.476339,205.436197 182.282118,203.942996 C182.308816,204.069045 182.350075,204.187823 182.388908,204.3066 C182.142563,204.416893 181.962962,204.641116 182.003008,204.9623 C182.290613,207.286943 182.3792,210.653918 179.832015,211.817451 C178.021438,212.645257 175.874716,211.909565 174.706093,210.407879 L174.706093,210.407879 Z M183.72257,207.809321 C183.752908,207.228766 183.735919,206.644575 183.682524,206.079777 C185.197001,207.203314 187.55609,207.320879 189.200414,206.028872 C189.404285,206.371872 189.655485,206.680936 189.937022,206.959699 C189.909111,207.065144 189.90183,207.180285 189.94673,207.305123 C190.71125,209.420088 189.583887,211.709582 187.033061,211.309618 C186.734535,211.262349 186.463919,211.177508 186.206652,211.075699 C186.179955,210.958133 186.160538,210.839356 186.132627,210.723003 C186.022196,210.249105 185.445773,210.166688 185.1072,210.389699 C184.386367,209.732787 183.931296,208.810444 183.72257,207.809321 L183.72257,207.809321 Z M197.389268,199.044035 C198.324894,198.257437 198.931656,197.210257 199.222901,196.090356 C200.170663,196.600614 201.245844,196.781204 202.312531,196.698787 C203.290631,198.167748 204.092769,199.755487 202.903517,201.464427 C201.845325,202.986717 199.801752,203.254572 198.186552,202.610992 C197.986321,201.475335 197.430527,200.408762 196.516745,199.668222 C196.814058,199.485208 197.106517,199.282801 197.389268,199.044035 L197.389268,199.044035 Z M199.419492,194.703812 C199.463179,193.316056 199.055435,191.931936 198.197474,190.885967 C200.766503,190.517515 203.132873,189.023102 203.759051,186.523929 C205.697047,187.968649 206.973673,190.307837 205.666709,192.718533 C204.415567,195.026208 201.699702,195.433444 199.419492,194.703812 L199.419492,194.703812 Z M203.860987,184.372603 C203.527268,181.965543 201.759164,180.47113 199.636713,179.588784 C201.64752,178.922176 203.409556,177.647137 204.282079,175.787907 C206.461567,176.550264 208.462666,178.471307 208.099823,180.980176 C207.812218,182.972727 205.82204,184.507137 203.860987,184.372603 L203.860987,184.372603 Z M334.925125,120.543091 C332.7602,128.873264 328.738584,136.135653 328.52015,144.074345 C328.483745,144.022229 328.453406,143.9689 328.395157,143.92042 C311.813577,130.296169 289.061232,141.51336 271.950556,147.88007 C260.476695,152.149996 249.002834,156.417497 237.530186,160.686211 C226.632748,164.740398 215.321499,168.350989 204.817243,173.355395 C204.797826,172.481533 204.528424,171.742204 204.057577,171.138621 C205.837816,169.280603 206.555008,166.56448 205.48104,164.095607 C206.985809,162.090936 211.85325,160.208678 213.253656,159.471773 C215.874866,158.092501 218.503357,156.728985 221.139129,155.377589 C226.40946,152.674798 231.727118,150.065331 237.079969,147.529798 C247.951922,142.377526 258.998624,137.59613 270.195801,133.195307 C291.743118,124.726964 313.777058,118.070582 336.10467,112.03354 C336.024577,114.903589 335.647172,117.762731 334.925125,120.543091 L334.925125,120.543091 Z M336.126513,110.707596 C310.919211,116.52284 286.158485,125.029967 262.263001,134.865462 C250.797634,139.585045 239.486385,144.683989 228.387503,150.208349 C222.643898,153.066278 216.954901,156.029653 211.338716,159.128773 C209.907972,159.917794 206.239492,161.186773 204.92646,163.083575 C203.579449,161.141929 201.168179,160.177165 198.830933,160.511681 C198.89525,160.271702 198.935296,160.024451 198.970488,159.775989 C199.192563,160.080204 199.568755,160.25231 200.054164,160.093536 C213.798527,155.57636 227.252858,150.079876 240.338278,143.915572 C252.45288,138.209409 264.389093,131.616052 274.290229,122.490798 C281.295898,116.035611 287.245801,108.056921 291.080535,99.3389038 C291.127862,99.3134515 291.176403,99.2952713 291.22009,99.2540628 C293.702958,96.9948685 297.102036,96.09919 300.17225,94.90172 C303.322556,93.6727377 306.471648,92.4413314 309.623168,91.213561 C315.352211,88.978607 321.077613,86.7557731 327.146442,85.7025328 C332.937374,92.6473738 336.075545,101.678091 336.126513,110.707596 L336.126513,110.707596 Z M295.096083,71.317137 C306.867257,71.3377413 318.554698,75.9700593 326.440172,84.865031 C326.522691,84.9571441 326.599143,85.0553172 326.680449,85.1486423 C320.124997,85.890395 314.017335,88.2489745 307.844143,90.6051299 C304.20236,91.9965222 300.553296,93.3733702 296.916367,94.7780946 C295.206513,95.4386423 293.535492,96.0446494 292.046499,97.0057766 C295.245346,88.810137 296.54867,80.0400027 295.096083,71.317137 L295.096083,71.317137 Z M285.523812,54.5671017 C300.544801,74.5132183 291.630261,101.175105 275.761019,117.494876 C266.123218,127.404303 254.064438,134.568519 241.711987,140.581321 C228.002816,147.254671 213.808236,152.829936 199.482595,158.024628 C199.272656,158.100985 199.114898,158.222186 198.998399,158.365204 C198.946218,157.813738 198.832147,157.251363 198.614926,156.680505 C198.560317,156.536275 198.494787,156.399317 198.428043,156.263572 C208.247873,150.525897 217.348083,142.656289 225.85852,135.193918 C234.997563,127.18008 243.556542,118.453579 251.025777,108.855639 C265.122061,90.7384515 274.741659,69.7172784 276.930855,46.7750628 C280.327506,48.6621688 283.239962,51.5346423 285.523812,54.5671017 L285.523812,54.5671017 Z M261.970542,44.4867801 C265.071093,44.5037483 268.171645,44.218925 271.378987,44.7667554 C272.949285,45.0346105 274.447987,45.5448685 275.871449,46.2260204 C273.933453,69.7221264 262.915876,91.9371335 248.256517,110.114921 C241.216869,118.842635 233.288922,126.80678 224.891342,134.226731 C216.30688,141.811515 206.737036,148.213374 198.133157,155.732709 C197.494844,154.73401 196.543442,153.980137 195.475542,153.55472 C195.520442,153.314741 195.536218,153.071126 195.537431,152.827512 C195.69883,152.90508 195.896634,152.889324 196.061673,152.70631 C210.25868,137.065268 222.488567,119.415918 233.474592,101.419932 C244.3963,83.5318155 254.882353,64.4874374 261.963261,44.7134268 C261.993599,44.6310098 261.988745,44.5570769 261.970542,44.4867801 L261.970542,44.4867801 Z M261.057972,44.472236 C252.267211,63.4802536 243.731289,82.2713208 232.819289,100.212766 C221.717979,118.463275 208.831577,135.271487 195.439136,151.87608 C195.243759,151.00343 194.777766,150.193805 194.078777,149.612038 C193.823937,149.399936 193.538759,149.243586 193.243873,149.115112 C202.405972,130.839151 212.038919,112.793473 222.351438,95.1392748 C227.421538,86.4612536 232.702791,77.9104939 238.08962,69.426395 C243.614791,60.7229215 249.695755,52.3139674 254.995211,43.4735363 C257.038784,44.1862006 259.050805,44.4152713 261.057972,44.472236 L261.057972,44.472236 Z M254.212488,43.186289 C241.966826,58.9158084 231.900652,76.8172572 221.832051,93.9636211 C211.313232,111.875978 201.447289,130.156787 192.39562,148.850893 C191.368979,148.676363 190.2671,148.913918 189.405499,149.505381 C189.404285,149.506593 189.404285,149.507805 189.403072,149.509017 C189.236819,149.163593 189.034161,148.835137 188.808446,148.522437 C190.830175,127.141296 198.93651,106.779459 208.44325,87.6817519 C217.554382,69.3791264 228.768549,52.2618508 241.694997,36.4268861 C245.717826,38.7903137 249.665417,41.4155363 254.212488,43.186289 L254.212488,43.186289 Z M225.285737,30.9934268 C231.296317,31.0213031 236.110364,33.2198967 240.75573,35.8826918 C227.551385,52.0558084 216.191595,69.7281865 206.967606,88.4550169 C197.974186,106.71401 188.950428,127.172808 188.227168,147.817045 C187.477211,147.028024 186.541584,146.417169 185.53072,146.109317 C184.763773,145.875398 183.991972,145.818434 183.240801,145.885095 C182.086741,135.36966 180.643862,125.302671 181.466631,114.650278 C182.329446,103.486416 184.940947,92.4655716 188.890965,81.9961935 C196.106574,62.8754586 207.915367,45.8745363 221.961898,31.1352324 C223.058922,31.0455434 224.165656,30.9885787 225.285737,30.9934268 L225.285737,30.9934268 Z M220.025115,31.3424868 C206.410599,45.7812112 195.162453,62.4767059 188.012374,81.0435504 C184.038086,91.3638508 181.460563,102.182289 180.359898,113.184953 C179.301705,123.762201 179.152442,135.722356 182.418033,146.011144 C180.969086,146.342024 179.6512,147.178314 178.711933,148.37942 C178.675527,148.326091 178.629414,148.277611 178.590581,148.225494 C178.73499,148.046116 178.815083,147.808561 178.759261,147.521314 C173.808086,122.425349 169.419987,95.0920063 177.982606,70.2651087 C184.301421,51.940667 200.006837,33.9967978 220.025115,31.3424868 L220.025115,31.3424868 Z M158.856268,6.69254337 C174.878414,14.6300239 182.893734,32.4369356 187.147132,48.8779073 C184.473741,52.1551935 182.154698,55.6167059 180.277378,59.1024586 C179.378157,60.7738261 178.563883,62.4767059 177.804218,64.198978 C172.075175,40.4035045 159.338036,18.4139321 140.45683,2.67835256 C146.78414,2.36080486 153.212172,3.89642676 158.856268,6.69254337 L158.856268,6.69254337 Z M136.745876,3.07710521 C137.568645,2.93651157 138.396268,2.8359144 139.226317,2.76198153 C157.710702,19.6501865 171.40167,41.3331193 177.068823,65.8594374 C177.07125,65.8727695 177.079745,65.8800416 177.083385,65.8921617 C171.435648,79.6230699 169.993983,94.7538543 170.879855,109.85555 C164.525848,92.6558579 157.152481,75.9349109 149.432047,59.2745646 C141.732243,42.6566388 133.715709,25.271508 120.655773,12.0738861 C125.057221,7.52034902 130.254741,4.18973418 136.745876,3.07710521 L136.745876,3.07710521 Z M87.2705381,37.9758402 C93.635467,36.7141335 99.75041,34.7252183 104.809588,30.5280133 C110.198844,26.0581052 113.901303,19.9931865 118.33309,14.6615363 C118.842769,14.0482572 119.365798,13.4555822 119.898535,12.8774515 C131.905132,27.0240805 140.714097,43.016607 148.400552,59.8769356 C156.409805,77.4414444 164.849858,95.0604939 171.122559,113.349787 C172.053332,124.753628 174.223111,136.07384 176.813983,146.691084 C175.892919,146.162646 174.850503,145.82813 173.913663,145.746925 C171.327645,145.522702 168.923656,146.963787 167.731976,149.201165 C166.134979,147.494649 162.849972,147.441321 160.911976,148.39154 C160.908335,148.297003 160.885278,148.200042 160.829456,148.099444 C139.465382,110.447013 120.889983,71.6758932 103.606987,32.0090946 C103.428599,31.6006458 102.711406,31.8963773 102.880086,32.3145222 C118.959268,72.3097766 138.494563,111.242095 159.720296,148.74666 C159.785826,148.864225 159.874414,148.93331 159.967855,148.983003 C158.716713,149.93807 157.941271,151.337946 157.686431,152.860236 C156.953463,152.33301 156.055456,151.998494 155.128325,151.843356 C145.774488,145.354232 137.91814,138.352427 130.697677,129.476847 C123.364357,120.461886 116.302866,111.17301 109.465876,101.776264 C95.7202997,82.8858119 83.4321645,62.6379038 77.7722926,39.761137 C77.7601573,39.7150805 77.7358869,39.6859921 77.717684,39.6472077 C80.9092499,39.0569568 84.1323673,38.5976034 87.2705381,37.9758402 L87.2705381,37.9758402 Z M65.4720221,43.3814232 C68.9766769,41.6155186 72.755588,40.618031 76.6012428,39.8617342 C76.5939616,39.930819 76.5903211,40.0023278 76.6097374,40.0811087 C82.3885346,63.7650769 95.3271182,84.6517165 109.624848,104.113027 C116.408442,113.346151 123.336446,122.556247 130.655204,131.376073 C136.976446,138.994794 144.432332,147.391628 153.605353,151.752455 C152.79472,151.798512 152.011997,151.988798 151.349414,152.337858 C148.921154,153.614109 147.878737,156.469614 148.587435,158.976059 C148.419969,158.911823 148.247648,158.865766 148.072901,158.828194 C148.08989,158.562762 148.018293,158.285211 147.81078,158.033112 C136.094214,143.748314 121.926332,131.720285 105.855645,122.573215 C102.780577,120.823066 99.5938655,119.129883 96.3270613,117.531236 C88.2425702,107.969656 80.0998299,98.4517094 72.8745132,88.208978 C65.1467979,77.2560063 59.2976164,65.7345999 54.3743531,53.3405434 C57.2188513,49.1978791 60.9103887,45.679402 65.4720221,43.3814232 L65.4720221,43.3814232 Z M50.4401111,60.6611087 C51.3369047,58.4734232 52.4242214,56.3536105 53.6959936,54.3598473 C57.4033068,66.7635999 64.4587303,78.3225787 71.8636485,88.7992289 C78.7710221,98.5704868 86.5084456,107.746646 94.503136,116.65495 C81.9638015,110.728201 68.248563,106.380706 54.5491004,106.299501 C46.9839972,92.2474091 44.2256591,75.8161335 50.4401111,60.6611087 L50.4401111,60.6611087 Z M51.7422214,108.891999 C69.8055132,108.375681 87.7887125,115.640494 103.337584,124.254278 C119.424047,133.166218 133.797015,145.033049 145.736869,158.995451 C144.747848,159.314211 143.815862,159.911734 143.131435,160.657123 C108.797225,136.072628 67.2704634,111.376628 23.3676235,118.660833 C31.3016378,112.403204 42.2099972,109.16349 51.7422214,108.891999 L51.7422214,108.891999 Z M12.6036734,136.05566 C13.6715737,129.525328 17.0742926,124.18883 21.7475702,120.023137 C66.5629794,113.693999 106.992716,136.637427 142.453075,161.604918 C142.410602,161.683699 142.363275,161.760056 142.326869,161.840049 C141.928834,162.724819 141.760154,163.649586 141.768648,164.570717 C140.546631,164.430123 139.339175,164.799787 138.384132,165.510027 C120.385157,152.559656 99.4130506,143.702257 77.7043353,139.267497 C56.5089403,134.939395 33.4168086,133.972208 12.2820897,139.301434 C12.3294171,138.220317 12.426499,137.139201 12.6036734,136.05566 L12.6036734,136.05566 Z M78.6181182,140.948561 C99.7407018,145.589363 119.519915,154.38495 137.321086,166.587508 C136.868442,167.220179 136.568702,167.970416 136.488609,168.792162 C136.401236,169.68784 136.618456,170.581095 137.029841,171.381024 C98.5963495,155.864819 54.0018015,150.594982 13.4191609,159.978395 C13.9385488,153.322013 12.1534563,146.768653 12.2578193,140.184992 C34.5247552,136.794989 56.4567588,136.078688 78.6181182,140.948561 L78.6181182,140.948561 Z M13.0369011,162.916317 C13.161894,162.269102 13.2529082,161.623098 13.3269331,160.978307 C34.540531,157.618603 55.7019474,156.133886 77.1388335,158.280363 C98.462862,160.415932 119.369438,165.707586 139.200834,173.805052 C137.4121,174.67043 135.836947,176.050914 135.129463,177.834999 C121.775855,174.095936 106.889567,173.681427 92.4122356,175.775787 C92.3588406,175.562473 92.1938015,175.387943 91.9001289,175.398851 C77.2929509,175.964861 62.6991218,176.871448 48.099225,177.591384 C34.0369189,178.283444 19.7015702,178.301625 5.69994027,179.901483 C8.32236375,174.32743 11.8306591,169.15819 13.0369011,162.916317 L13.0369011,162.916317 Z M3.3881787,186.031851 C3.8917908,184.124141 4.60048831,182.310967 5.40505415,180.541427 C19.5692961,180.961996 33.9641075,179.639688 48.099225,178.939144 C60.6482677,178.317381 73.2082321,177.741674 85.7475666,176.919929 C76.1121929,178.842183 66.7984029,181.845554 58.3996093,185.692487 C50.8854741,189.135819 44.2086698,194.508678 39.0208584,201.055978 C27.4292855,204.399925 15.6641787,204.668992 3.83475521,202.474035 C2.16494738,197.181169 1.96835664,191.41683 3.3881787,186.031851 L3.3881787,186.031851 Z M9.11600788,212.185904 C6.94016091,209.599466 5.28491536,206.626395 4.16240646,203.463038 C15.207894,206.085837 26.7472855,205.682236 37.6969047,202.798854 C33.3294349,208.784992 30.1767018,215.641356 28.7022712,222.850416 C21.1359545,221.45054 14.1727588,218.19507 9.11600788,212.185904 L9.11600788,212.185904 Z M34.2189474,213.21854 C38.4080292,203.736953 45.4768015,195.529194 54.4289616,190.248448 C65.6261396,183.644183 79.6350506,180.156006 92.4146627,178.215572 C106.685695,176.047278 120.581748,177.241112 134.771474,179.290628 C134.726574,179.703925 134.72172,180.130554 134.771474,180.574151 C134.851567,181.274695 135.108834,182.022508 135.498374,182.719416 C124.716221,182.912126 114.078478,186.416059 103.764745,189.255808 C93.3830541,192.11495 83.0608264,195.357088 73.2956057,199.937289 C55.8232997,208.131717 39.8327054,221.506292 30.3526627,238.503579 C28.7216876,230.140681 31.0346627,220.423964 34.2189474,213.21854 L34.2189474,213.21854 Z M33.5296662,246.453179 C32.1231929,244.357607 31.1681502,242.020844 30.578378,239.548335 C41.7816235,222.994646 55.7007339,209.646734 73.9945951,201.131123 C83.4442997,196.732724 93.4303815,193.622695 103.466218,190.870211 C114.074837,187.961377 124.931015,184.543497 135.980143,184.090204 C136.145182,184.084144 136.270175,184.021119 136.374538,183.941126 C137.200947,184.857409 138.268848,185.508261 139.414414,185.524017 C137.635389,186.44636 136.3442,188.051066 135.946164,189.91878 C135.839374,189.671529 135.59667,189.493363 135.254456,189.597596 C125.632431,192.541579 116.569841,196.946038 107.694132,201.634109 C98.6728015,206.40096 89.5725915,211.176296 80.9687125,216.670356 C66.1503815,226.131338 50.8854741,238.541151 41.0935559,253.36166 C38.159257,251.526671 35.4931467,249.37777 33.5296662,246.453179 L33.5296662,246.453179 Z M58.3656307,263.991024 C57.3499118,263.015353 56.2504598,262.106342 55.0490719,261.263992 C50.9582855,258.396367 46.0374492,256.363819 41.6517766,253.705872 C47.6380862,247.277349 53.2045168,240.611271 59.7417659,234.684522 C66.7486485,228.333568 74.279773,222.584985 82.2950933,217.559974 C98.96162,207.113625 116.930257,197.155717 135.584535,190.79143 C135.691325,190.753858 135.771417,190.695681 135.838161,190.627808 C135.771417,191.386529 135.849083,192.177974 136.103922,192.977904 C136.782282,195.117109 138.613488,196.679395 140.714097,197.25389 C134.133161,201.293533 128.254855,206.319755 122.292816,211.199324 C115.103905,217.083653 107.916207,222.96677 100.720015,228.84019 C93.7289082,234.547565 86.7378015,240.253727 79.7466947,245.961102 C72.5929759,251.801798 65.0594243,257.420695 58.438442,263.864974 C58.3996093,263.903759 58.3789794,263.946179 58.3656307,263.991024 L58.3656307,263.991024 Z M66.9780043,278.781232 C65.6370613,276.240851 64.6456129,273.508971 63.3665595,270.863144 C62.1675986,268.379727 60.637346,266.250218 58.779442,264.383717 C58.7952178,264.376444 58.8097801,264.375232 58.8243424,264.364324 C65.859136,259.57808 72.3223602,253.859798 78.9093638,248.482091 C85.9004705,242.775929 92.8915773,237.068554 99.8814705,231.362391 C106.667492,225.823487 113.457154,220.28943 120.250456,214.75901 C127.30588,209.015275 134.204759,202.94672 141.823257,197.950798 C142.012567,197.827172 142.084164,197.650218 142.087805,197.475688 C142.228574,197.48296 142.366915,197.507201 142.508898,197.505989 C140.985926,199.271893 140.669196,201.909236 142.01378,203.950268 C142.596271,204.835038 143.4603,205.502858 144.431118,205.929487 C135.968008,221.688095 125.206485,236.07955 112.187809,248.387554 C98.7917267,261.054314 83.5158976,270.72255 66.9986342,278.765476 C66.988926,278.769112 66.9852855,278.776384 66.9780043,278.781232 L66.9780043,278.781232 Z M74.8865346,287.140494 C73.3235168,286.199971 71.8454456,285.060678 70.4826591,283.69595 C69.1854029,282.395459 68.1842463,280.953162 67.3311396,279.432084 C100.892335,266.074476 129.468378,238.372681 145.667698,206.331876 C146.588762,206.516102 147.546232,206.484589 148.432104,206.188858 C146.252616,211.112059 153.203677,214.083918 157.443727,212.269533 C150.677122,229.743141 139.863417,244.784236 126.011051,257.400091 C119.001741,263.784982 111.361399,269.45236 103.32909,274.488278 C94.7191431,279.885377 85.2500221,285.939388 74.9678406,287.115042 C74.936289,287.118678 74.9132321,287.130798 74.8865346,287.140494 L74.8865346,287.140494 Z M75.9010399,287.718625 C85.5242783,286.799918 94.3150399,281.565229 102.439577,276.660208 C110.826236,271.595201 118.799083,265.773897 126.112987,259.253261 C140.494449,246.430151 152.653951,230.38066 158.93636,212.03319 C159.026161,211.772607 158.947282,211.570201 158.800446,211.432031 C159.083196,211.188416 159.341677,210.913289 159.562538,210.598165 C159.5771,213.305805 160.841592,216.081317 163.5793,216.796406 C163.555029,216.906699 163.544108,217.024264 163.559883,217.16001 C166.330357,240.573699 152.124855,261.466398 133.452374,274.234967 C124.528125,280.338671 114.460737,285.329745 104.127588,288.535522 C95.0953353,291.337699 84.3617232,292.250345 75.9010399,287.718625 L75.9010399,287.718625 Z M94.5638122,292.948466 C103.275695,291.861289 112.258193,288.432501 119.932513,284.682529 C115.823524,289.859042 113.546955,297.144459 112.016702,302.992427 C110.828663,307.53142 110.109043,312.217066 109.879688,316.903925 C109.758335,319.390978 108.992602,324.161466 110.145449,326.915162 C98.8900221,319.321893 93.8781716,306.203052 94.5638122,292.948466 L94.5638122,292.948466 Z M128.326453,333.115826 C122.563431,332.792218 116.904773,330.988741 111.941463,328.056879 C112.418378,327.832656 112.210866,327.116356 111.689051,327.056967 C110.509506,326.923646 111.157527,316.634858 111.236406,315.513745 C111.543428,311.169886 112.28489,306.859964 113.426816,302.659123 C115.167008,296.257264 117.794285,288.404625 122.652019,283.316589 C124.484438,282.368794 126.224631,281.414939 127.843471,280.487748 C136.707043,275.413045 144.962641,268.763936 151.529015,260.90766 C141.360905,283.098427 136.284737,308.486487 136.532296,332.598296 C133.828567,333.021289 131.104207,333.272176 128.326453,333.115826 L128.326453,333.115826 Z M160.249392,330.419095 C156.565136,329.798543 152.764382,329.655526 148.707574,330.293045 C145.026958,330.869964 141.399737,331.762006 137.742179,332.398314 C138.211812,318.610441 139.641342,304.965586 142.812278,291.507381 C145.585179,279.74236 149.629851,268.508201 154.272791,257.417059 C162.741969,245.941709 167.587567,232.201105 165.786698,217.16001 C165.77699,217.073957 165.758787,216.992752 165.733303,216.917607 C166.983232,216.711565 167.832698,215.987992 168.458876,215.007473 C169.316837,216.441285 170.642004,217.553914 172.387051,217.808437 C172.548449,217.831466 172.711061,217.831466 172.873673,217.838738 C169.916317,235.822603 169.168787,254.177345 167.835125,272.328469 C166.399527,291.857653 164.268581,311.171098 160.250606,330.353646 C160.245752,330.376674 160.251819,330.396066 160.249392,330.419095 L160.249392,330.419095 Z M179.294424,336.57249 C173.178268,334.213911 167.405538,331.802003 161.353698,330.622713 C165.746652,312.3213 167.446798,293.365398 168.909093,274.644628 C170.392019,255.666911 171.836111,236.727978 173.797164,217.793893 C175.352901,217.561186 176.804275,216.610967 177.472926,215.205031 C178.35273,217.140618 180.927826,218.147801 182.880385,217.157586 C183.942218,216.619451 184.707951,215.598936 185.02104,214.457218 C185.063513,214.30208 185.098705,214.128762 185.126616,213.94696 C186.262474,228.739593 185.263745,243.72736 187.343723,258.409699 C188.242944,264.758229 189.877559,271.246141 192.572794,277.187434 C192.935638,286.955056 192.438093,296.752978 190.8593,306.409095 C189.983136,311.761349 188.823008,317.065123 187.343723,322.284056 C185.866866,327.495717 183.744414,332.477095 182.135282,337.625731 C181.179026,337.288791 180.232478,336.933671 179.294424,336.57249 L179.294424,336.57249 Z M210.87515,331.748674 C206.874164,336.316755 201.438794,339.630402 195.27531,339.994006 C191.169962,340.236409 187.151987,339.311642 183.272353,338.015999 C188.26236,328.405939 190.71125,316.616678 192.283976,306.038218 C193.61157,297.11537 194.019314,288.133133 193.518129,279.158169 C195.820182,283.706858 198.793314,287.874974 202.62562,291.317095 C206.323225,294.638013 210.59604,297.012349 215.161314,298.758861 C215.194079,298.898243 215.255969,299.041261 215.361545,299.18549 C222.605065,309.130066 218.380791,323.179734 210.87515,331.748674 L210.87515,331.748674 Z M252.957705,301.022904 C245.583125,302.101596 237.877253,300.992603 230.570631,299.863006 C223.828296,298.821886 217.010723,297.315353 210.960097,294.055035 C198.193834,287.176854 192.269414,273.2496 190.017115,259.569596 C187.484492,244.189137 189.62636,228.280239 186.608328,212.990681 C186.968745,213.065826 187.344937,213.113095 187.75268,213.105823 C188.468659,213.093702 189.166435,212.862208 189.785332,212.487695 C197.474214,248.756006 219.750858,287.816798 256.6723,300.219338 C255.478193,300.56355 254.241613,300.835042 252.957705,301.022904 L252.957705,301.022904 Z M258.913677,299.463042 C241.150125,293.485388 226.294175,281.595529 215.215922,266.607762 C203.041858,250.137702 196.690278,231.299367 190.341125,212.097427 C191.52431,211.129027 192.257278,209.610374 191.934481,208.188681 C192.803364,208.484413 193.745058,208.554709 194.640638,208.363211 C202.831919,225.399282 216.336004,239.521671 230.102211,252.199338 C244.273734,265.249095 258.877271,278.729116 277.32889,285.202483 C271.983321,291.098932 266.267627,296.670561 258.913677,299.463042 L258.913677,299.463042 Z M291.397264,270.623165 C287.285848,273.997413 283.743574,277.989787 280.226784,281.959133 C279.58483,282.681494 278.941663,283.405066 278.293641,284.128639 C259.374816,277.669815 244.483673,263.641964 230.03304,250.320717 C216.468278,237.815155 204.455613,224.2309 195.37846,208.137777 C195.704898,208.008091 196.021627,207.842045 196.317727,207.627519 C197.269129,206.939095 197.862542,205.923427 198.117382,204.822918 C214.523001,215.074133 231.22836,224.833271 247.561168,235.210536 C255.6493,240.349476 263.694958,245.555077 271.698143,250.826126 C279.907627,256.234133 287.931442,262.142702 296.363001,267.198013 C294.653147,268.199137 292.995474,269.312978 291.397264,270.623165 L291.397264,270.623165 Z M305.141627,262.845671 C302.434257,264.074653 299.822755,265.268487 297.318043,266.662303 C290.016275,261.010681 281.986392,256.102024 274.279307,251.024897 C265.845321,245.467812 257.35794,239.99072 248.826873,234.583925 C232.492851,224.232112 216.087232,213.768794 199.181641,204.353868 C200.955812,204.711413 202.902303,204.149038 204.095196,202.682501 C204.858503,201.746826 205.240762,200.314225 205.170378,198.934953 C226.351211,205.785257 247.266282,213.556692 267.642549,222.517112 C285.61604,230.421868 303.500944,239.198063 317.054784,253.737384 C313.885061,257.490992 309.998147,260.642229 305.141627,262.845671 L305.141627,262.845671 Z M328.328414,229.642543 C326.176837,237.9206 323.070218,246.096847 317.955218,252.629603 C304.692624,237.846667 286.321097,229.063201 268.419204,221.191169 C247.797805,212.124091 226.675221,204.345384 205.052666,198.025943 C204.910684,197.365395 204.663125,196.744844 204.267517,196.239434 C204.98835,195.952186 205.659428,195.543738 206.233424,195.03348 C225.587905,203.323656 247.91309,201.129911 268.39372,200.434215 C279.516873,200.056066 290.745602,199.893656 301.777741,201.58684 C312.598727,203.2473 323.862648,206.377932 331.507844,214.623264 C330.79672,219.809473 329.555285,224.92902 328.328414,229.642543 L328.328414,229.642543 Z M331.755403,212.604049 C325.545805,206.000996 316.307253,202.963688 307.643912,201.110519 C296.853264,198.802844 285.751955,198.514384 274.757435,198.743455 C251.693214,199.223413 229.22362,201.208692 206.829264,194.417777 C207.122937,194.071141 207.37899,193.695416 207.578008,193.285755 C207.696933,193.042141 207.789161,192.786406 207.869253,192.527035 C207.88867,192.527035 207.905659,192.531883 207.926289,192.531883 C221.926705,192.221607 234.639574,185.734907 247.881538,181.958271 C262.06641,177.91378 276.740332,175.774575 291.489492,175.564897 C303.769132,175.390367 318.637218,176.575717 326.538467,187.363854 C331.914374,194.701388 332.722581,203.686049 331.755403,212.604049 L331.755403,212.604049 Z M331.131652,191.06777 C327.053001,182.393384 319.14083,176.793879 309.221492,174.612254 C293.747858,171.211342 276.544955,173.254798 261.179325,176.286045 C252.314538,178.034982 243.696097,180.587483 235.201435,183.646607 C226.386403,186.822084 217.581079,190.08119 208.114385,190.389042 C208.012449,188.56496 207.175118,186.729971 205.790488,185.595526 C207.558592,185.208893 209.142239,183.949611 209.772058,182.14977 C209.784193,182.148558 209.796328,182.150982 209.808463,182.148558 C221.548086,179.146398 233.013453,174.066847 244.392659,169.925395 C255.156609,166.008165 265.916919,161.837625 277.206325,159.676603 C288.831876,157.450133 301.095741,157.356808 312.464026,160.940734 C317.117887,162.407271 321.588506,164.482239 325.663517,167.169275 C330.227577,170.18113 333.465257,173.97231 337.264798,177.781671 C337.360666,177.878632 337.46867,177.923476 337.577887,177.945292 C337.44804,183.681755 335.99788,190.049678 331.131652,191.06777 L331.131652,191.06777 Z" id="Imported-Layers" fill="#0B468C" sketch:type="MSShapeGroup"></path>
    </g>
</svg>