<?xml version="1.0" encoding="utf-8"?>
<!-- Generator: Adobe Illustrator 18.0.0, SVG Export Plug-In . SVG Version: 6.00 Build 0)  -->
<!DOCTYPE svg PUBLIC "-//W3C//DTD SVG 1.1//EN" "http://www.w3.org/Graphics/SVG/1.1/DTD/svg11.dtd">
<svg version="1.1" id="Layer_1" xmlns="http://www.w3.org/2000/svg" xmlns:xlink="http://www.w3.org/1999/xlink" x="0px" y="0px"
	 width="312.4px" height="67.9px" viewBox="0 0 312.4 67.9" enable-background="new 0 0 312.4 67.9" xml:space="preserve">
<g>
	<g id="XMLID_1_">
		<g>
			<path fill="#FFFFFF" d="M52,4.9V18c-12.2-1.5-20.4-3.5-20.4-6.5c1.4-3.8,6-3.3,10.5-3.9C45,7.1,51.6,7.8,52,4.9z"/>
			<path fill="#FFFFFF" d="M270.4,7.5c4.5,0.7,9,0.1,10.5,3.9c0,2.9-8.2,5-20.4,6.5V4.8C260.9,7.8,267.4,7.1,270.4,7.5z"/>
			<path fill="#FFFFFF" d="M260.5,17.9c12.2-1.5,20.4-3.5,20.4-6.5v40.9v0l0,5.4c0,11.5-124.6,9.2-124.6,9.2S31.6,69.4,31.6,57.9
				l0-5.4v-0.1V11.5c0,3,8.2,5,20.4,6.5c35.3,4.2,104.2,3.2,104.2,3.2S225.1,22.1,260.5,17.9z"/>
			<path fill="#FFFFFF" d="M260.5,4.8c0-0.2,0-0.4,0-0.6c0.2-1.5,1-1.9,3.7-2.5c8-1.6,40.7-0.8,47.6-0.8l-16,27.9L309,52.4h-28.1v0
				V11.4c-1.4-3.8-5.9-3.3-10.5-3.9C267.4,7.1,260.9,7.8,260.5,4.8z"/>
			<path fill="#FFFFFF" d="M52,4.9c-0.4,3-7,2.2-9.9,2.7c-4.5,0.7-9,0.1-10.5,3.9v40.9v0.1H3.5l13.2-23.6L0.7,1
				c6.9,0,39.6-0.8,47.6,0.8C51,2.3,51.8,2.7,52,4.2C52,4.5,52,4.7,52,4.9z"/>
		</g>
		<g>
			
				<polyline fill="none" stroke="#000000" stroke-width="1.3873" stroke-linecap="round" stroke-linejoin="round" stroke-miterlimit="3.8636" points="
				31.6,52.4 31.6,11.5 31.6,11.4 			"/>
			
				<polyline fill="none" stroke="#000000" stroke-width="1.3873" stroke-linecap="round" stroke-linejoin="round" stroke-miterlimit="3.8636" points="
				0.7,1 16.7,28.9 3.5,52.4 31.6,52.4 			"/>
			
				<polyline fill="none" stroke="#000000" stroke-width="1.3873" stroke-linecap="round" stroke-linejoin="round" stroke-miterlimit="3.8636" points="
				52,4.4 52,4.9 52,18 52,18 			"/>
			
				<polyline fill="none" stroke="#000000" stroke-width="1.3873" stroke-linecap="round" stroke-linejoin="round" stroke-miterlimit="3.8636" points="
				280.9,52.3 280.9,11.4 280.9,11.3 			"/>
			
				<polyline fill="none" stroke="#000000" stroke-width="1.3873" stroke-linecap="round" stroke-linejoin="round" stroke-miterlimit="3.8636" points="
				311.7,0.9 295.8,28.8 309,52.4 280.9,52.4 			"/>
			
				<polyline fill="none" stroke="#000000" stroke-width="1.3873" stroke-linecap="round" stroke-linejoin="round" stroke-miterlimit="3.8636" points="
				260.5,4.3 260.5,4.8 260.5,17.9 260.5,17.9 			"/>
			
				<path fill="none" stroke="#000000" stroke-width="1.3873" stroke-linecap="round" stroke-linejoin="round" stroke-miterlimit="3.8636" d="
				M0.7,1c6.9,0,39.6-0.8,47.6,0.8C51,2.3,51.8,2.7,52,4.2c0,0.2,0,0.4,0,0.6c-0.4,3-7,2.2-9.9,2.7c-4.5,0.7-9,0.1-10.5,3.9
				c0,3,8.2,5,20.4,6.5c35.3,4.2,104.2,3.2,104.2,3.2s68.9,1,104.2-3.3c12.2-1.5,20.4-3.5,20.4-6.5c-1.4-3.8-5.9-3.3-10.5-3.9
				c-3-0.4-9.5,0.3-9.9-2.7c0-0.2,0-0.4,0-0.6c0.2-1.5,1-1.9,3.7-2.5c8-1.6,40.7-0.8,47.6-0.8"/>
			
				<path fill="none" stroke="#000000" stroke-width="1.3873" stroke-linecap="round" stroke-linejoin="round" stroke-miterlimit="3.8636" d="
				M31.6,52.4L31.6,52.4l0,5.5c0,11.5,124.6,9.1,124.6,9.1s124.6,2.3,124.6-9.2l0-5.4v0"/>
		</g>
	</g>
</g>
</svg>
